<?xml version="1.0"?>
<?xml-stylesheet type="text/css" href="FocusGraph.css" ?>
<!DOCTYPE svg PUBLIC "-//W3C//DTD SVG 1.1//EN" "http://www.w3.org/Graphics/SVG/1.1/DTD/svg11.dtd">
<svg xmlns="http://www.w3.org/2000/svg" version="1.1" width="441.43" height="187.5">
<defs>
<marker id="arrowStart" markerWidth="3.75" markerHeight="3.75" markerUnits="px" refX="1.88" refY="1.88">
<circle class="connector" cx="1.88" cy="1.88" r="1.88" />
</marker>
<marker id="arrowEnd" markerWidth="7.5" markerHeight="7.5" markerUnits="px" refX="7.5" refY="3.75">
<polygon class="connector" points="0 0 7.5 3.75 0 7.5" />
</marker>
</defs>
<g>
<g transform="translate(3.75 3.75)">
<a href="StructureDefinition-BreastMedicationRequest.html" target="_top">
<rect class="profile" x="0" y="0" width="158.48" height="26.25" rx="3.75" ry="3.75" />
</a>
<a href="StructureDefinition-BreastMedicationRequest.html" target="_top">
<title />
<text x="5.62" y="18.75" text-anchor="left" class="profile">Medication Request</text>
</a>
</g>
<g transform="translate(3.75 37.5)">
<a href="StructureDefinition-BreastServiceRequest.html" target="_top">
<rect class="profile" x="0" y="0" width="133.74" height="26.25" rx="3.75" ry="3.75" />
</a>
<a href="StructureDefinition-BreastServiceRequest.html" target="_top">
<title />
<text x="5.62" y="18.75" text-anchor="left" class="profile">Service Request</text>
</a>
</g>
<line class="connector" marker-end="url(#arrowEnd)" x1="192.23" y1="16.88" x2="222.23" y2="16.88" />
<line class="connector" marker-start="url(#arrowStart)" x1="162.23" y1="16.88" x2="192.23" y2="16.88" />
<line class="connector" marker-start="url(#arrowStart)" x1="137.49" y1="50.62" x2="192.23" y2="50.62" />
<line class="connector" x1="192.23" y1="16.88" x2="192.23" y2="50.62" />
</g>
<g>
<g transform="translate(222.23 3.75)">
<a href="StructureDefinition-BreastLateralityExtension.html" target="_top">
<rect class="focus" x="0" y="0" width="127.33" height="26.25" rx="3.75" ry="3.75" />
</a>
<a href="StructureDefinition-BreastLateralityExtension.html" target="_top">
<title />
<text x="5.62" y="18.75" text-anchor="left" class="focus">BreastLaterality</text>
</a>
</g>
</g>
<g>
<g transform="translate(3.75 146.25)">
<a target="_top">
<rect class="focus" x="0" y="0" width="57.72" height="26.25" rx="3.75" ry="3.75" />
</a>
<a target="_top">
<title />
<text x="5.62" y="18.75" text-anchor="left" class="focus">Focus</text>
</a>
</g>
<g transform="translate(68.97 146.25)">
<a target="_top">
<rect class="profile" x="0" y="0" width="143.81" height="26.25" rx="3.75" ry="3.75" />
</a>
<a target="_top">
<title />
<text x="5.62" y="18.75" text-anchor="left" class="profile">Profiled Resource</text>
</a>
</g>
</g>
</svg>
