<?xml version="1.0"?>
<!DOCTYPE svg PUBLIC "-//W3C//DTD SVG 1.1//EN" "http://www.w3.org/Graphics/SVG/1.1/DTD/svg11.dtd">
<svg xmlns="http://www.w3.org/2000/svg" version="1.1" width="1246.5" height="1102.5">
<defs>
<marker id="arrowStart" markerWidth="3.75" markerHeight="3.75" markerUnits="px" refX="1.875" refY="1.875">
<circle fill="Black" stroke-width="0" cx="1.875" cy="1.875" r="1.875" />
</marker>
<marker id="arrowEnd" markerWidth="7.5" markerHeight="7.5" markerUnits="px" refX="7.5" refY="3.75">
<polygon fill="Black" stroke-width="0" points="0 0 7.5 3.75 0 7.5" />
</marker>
</defs>
<g>
<g transform="translate(7.5 7.5)">
<a href="./StructureDefinition-MGFinding.html" target="_top">
<rect fill="LightCyan" stroke="Black" stroke-width="1.875" x="0" y="0" width="120" height="33.75" rx="3.75" ry="3.75" />
</a>
<a href="./StructureDefinition-MGFinding.html" target="_top">
<text x="60" y="22.5" text-anchor="middle">MG Finding</text>
</a>
</g>
<line stroke="Black" stroke-width="1.875" marker-end="url(#arrowEnd)" x1="172.5" y1="24.375" x2="217.5" y2="24.375" />
<text x="176.25" y="20.625" text-anchor="left"></text>
<line stroke="Black" stroke-width="1.875" marker-start="url(#arrowStart)" x1="127.5" y1="24.375" x2="172.5" y2="24.375" />
<text x="131.25" y="20.625" text-anchor="left">0..*</text>
<line stroke="Black" stroke-width="1.875" x1="172.5" y1="24.375" x2="172.5" y2="24.375" />
</g>
<g>
<g transform="translate(217.5 7.5)">
<rect fill="White" stroke="Black" stroke-width="1.875" x="0" y="0" width="57" height="33.75" rx="3.75" ry="3.75" />
<text x="28.5" y="22.5" text-anchor="middle">Mass</text>
</g>
<line stroke="Black" stroke-width="1.875" marker-end="url(#arrowEnd)" x1="319.5" y1="24.375" x2="364.5" y2="24.375" />
<text x="323.25" y="20.625" text-anchor="left">0..*</text>
<line stroke="Black" stroke-width="1.875" marker-end="url(#arrowEnd)" x1="319.5" y1="75" x2="364.5" y2="75" />
<text x="323.25" y="71.25" text-anchor="left">0..1</text>
<line stroke="Black" stroke-width="1.875" marker-end="url(#arrowEnd)" x1="319.5" y1="135" x2="364.5" y2="135" />
<text x="323.25" y="131.25" text-anchor="left">0..*</text>
<line stroke="Black" stroke-width="1.875" marker-end="url(#arrowEnd)" x1="319.5" y1="195" x2="364.5" y2="195" />
<text x="323.25" y="191.25" text-anchor="left">0..1</text>
<line stroke="Black" stroke-width="1.875" marker-end="url(#arrowEnd)" x1="319.5" y1="255" x2="364.5" y2="255" />
<text x="323.25" y="251.25" text-anchor="left">0..*</text>
<line stroke="Black" stroke-width="1.875" marker-end="url(#arrowEnd)" x1="319.5" y1="333.75" x2="364.5" y2="333.75" />
<text x="323.25" y="330" text-anchor="left">0..1</text>
<line stroke="Black" stroke-width="1.875" marker-end="url(#arrowEnd)" x1="319.5" y1="393.75" x2="364.5" y2="393.75" />
<text x="323.25" y="390" text-anchor="left">0..1</text>
<line stroke="Black" stroke-width="1.875" marker-end="url(#arrowEnd)" x1="319.5" y1="453.75" x2="364.5" y2="453.75" />
<text x="323.25" y="450" text-anchor="left">0..1</text>
<line stroke="Black" stroke-width="1.875" marker-end="url(#arrowEnd)" x1="319.5" y1="513.75" x2="364.5" y2="513.75" />
<text x="323.25" y="510" text-anchor="left">0..1</text>
<line stroke="Black" stroke-width="1.875" marker-end="url(#arrowEnd)" x1="319.5" y1="573.75" x2="364.5" y2="573.75" />
<text x="323.25" y="570" text-anchor="left">0..1</text>
<line stroke="Black" stroke-width="1.875" marker-end="url(#arrowEnd)" x1="319.5" y1="633.75" x2="364.5" y2="633.75" />
<text x="323.25" y="630" text-anchor="left">0..1</text>
<line stroke="Black" stroke-width="1.875" marker-end="url(#arrowEnd)" x1="319.5" y1="693.75" x2="364.5" y2="693.75" />
<text x="323.25" y="690" text-anchor="left">0..3</text>
<line stroke="Black" stroke-width="1.875" marker-end="url(#arrowEnd)" x1="319.5" y1="753.75" x2="364.5" y2="753.75" />
<text x="323.25" y="750" text-anchor="left">0..*</text>
<line stroke="Black" stroke-width="1.875" marker-end="url(#arrowEnd)" x1="319.5" y1="813.75" x2="364.5" y2="813.75" />
<text x="323.25" y="810" text-anchor="left">0..3</text>
<line stroke="Black" stroke-width="1.875" marker-end="url(#arrowEnd)" x1="319.5" y1="873.75" x2="364.5" y2="873.75" />
<text x="323.25" y="870" text-anchor="left">0..*</text>
<line stroke="Black" stroke-width="1.875" marker-end="url(#arrowEnd)" x1="319.5" y1="933.75" x2="364.5" y2="933.75" />
<text x="323.25" y="930" text-anchor="left">0..*</text>
<line stroke="Black" stroke-width="1.875" marker-end="url(#arrowEnd)" x1="319.5" y1="993.75" x2="364.5" y2="993.75" />
<text x="323.25" y="990" text-anchor="left">0..*</text>
<line stroke="Black" stroke-width="1.875" marker-end="url(#arrowEnd)" x1="319.5" y1="1053.75" x2="364.5" y2="1053.75" />
<text x="323.25" y="1050" text-anchor="left">1..1</text>
<line stroke="Black" stroke-width="1.875" marker-start="url(#arrowStart)" x1="274.5" y1="24.375" x2="319.5" y2="24.375" />
<text x="278.25" y="20.625" text-anchor="left"></text>
<line stroke="Black" stroke-width="1.875" x1="319.5" y1="24.375" x2="319.5" y2="1053.75" />
</g>
<g>
<g transform="translate(364.5 7.5)">
<a href="./StructureDefinition-TumorSatellite.html" target="_top">
<rect fill="LightCyan" stroke="Black" stroke-width="1.875" x="0" y="0" width="162" height="33.75" rx="3.75" ry="3.75" />
</a>
<a href="./StructureDefinition-TumorSatellite.html" target="_top">
<text x="81" y="22.5" text-anchor="middle">TumorSatellite</text>
</a>
</g>
</g>
<g>
<g transform="translate(364.5 48.75)">
<a href="./StructureDefinition-AssociatedFeatures.html" target="_top">
<rect fill="LightCyan" stroke="Black" stroke-width="1.875" x="0" y="0" width="120" height="52.5" rx="3.75" ry="3.75" />
</a>
<a href="./StructureDefinition-AssociatedFeatures.html" target="_top">
<text x="60" y="22.5" text-anchor="middle">Associated</text>
</a>
<a href="./StructureDefinition-AssociatedFeatures.html" target="_top">
<text x="60" y="41.25" text-anchor="middle">Features</text>
</a>
</g>
</g>
<g>
<g transform="translate(364.5 108.75)">
<a href="./StructureDefinition-ConsistentWith.html" target="_top">
<rect fill="LightCyan" stroke="Black" stroke-width="1.875" x="0" y="0" width="120" height="52.5" rx="3.75" ry="3.75" />
</a>
<a href="./StructureDefinition-ConsistentWith.html" target="_top">
<text x="60" y="22.5" text-anchor="middle">Consistent</text>
</a>
<a href="./StructureDefinition-ConsistentWith.html" target="_top">
<text x="60" y="41.25" text-anchor="middle">With</text>
</a>
</g>
</g>
<g>
<g transform="translate(364.5 168.75)">
<a href="StructureDefinition-AbnormalityMass-definitions.html#Observation.component:massType" target="_top">
<rect fill="LightYellow" stroke="Black" stroke-width="1.875" x="0" y="0" width="172.5" height="52.5" rx="3.75" ry="3.75" />
</a>
<a href="StructureDefinition-AbnormalityMass-definitions.html#Observation.component:massType" target="_top">
<text x="86.25" y="22.5" text-anchor="middle">Mass Type</text>
</a>
<a href="StructureDefinition-AbnormalityMass-definitions.html#Observation.component:massType" target="_top">
<text x="86.25" y="41.25" text-anchor="middle">CodeableConcept</text>
</a>
</g>
<line stroke="Black" stroke-width="1.875" marker-end="url(#arrowEnd)" x1="582" y1="195" x2="627" y2="195" />
<text x="585.75" y="191.25" text-anchor="left">0..1</text>
<line stroke="Black" stroke-width="1.875" marker-start="url(#arrowStart)" x1="537" y1="195" x2="582" y2="195" />
<text x="540.75" y="191.25" text-anchor="left"></text>
<line stroke="Black" stroke-width="1.875" x1="582" y1="195" x2="582" y2="195" />
</g>
<g>
<g transform="translate(627 168.75)">
<a href="./ValueSet-MassTypeValueSetVS.html" target="_top">
<rect fill="LightGreen" stroke="Black" stroke-width="1.875" x="0" y="0" width="109.49999" height="52.5" rx="3.75" ry="3.75" />
</a>
<a href="./ValueSet-MassTypeValueSetVS.html" target="_top">
<text x="54.749996" y="22.5" text-anchor="middle">Mass Type</text>
</a>
<a href="./ValueSet-MassTypeValueSetVS.html" target="_top">
<text x="54.749996" y="41.25" text-anchor="middle">ValueSet</text>
</a>
</g>
</g>
<g>
<g transform="translate(364.5 228.75)">
<a href="StructureDefinition-AbnormalityMass-definitions.html#Observation.component:obsChanges" target="_top">
<rect fill="LightYellow" stroke="Black" stroke-width="1.875" x="0" y="0" width="330" height="52.5" rx="3.75" ry="3.75" />
</a>
<a href="StructureDefinition-AbnormalityMass-definitions.html#Observation.component:obsChanges" target="_top">
<text x="165" y="22.5" text-anchor="middle">Observed Change In Abnormality</text>
</a>
<a href="StructureDefinition-AbnormalityMass-definitions.html#Observation.component:obsChanges" target="_top">
<text x="165" y="41.25" text-anchor="middle">CodeableConcept</text>
</a>
</g>
<line stroke="Black" stroke-width="1.875" marker-end="url(#arrowEnd)" x1="739.5" y1="264.375" x2="784.5" y2="264.375" />
<text x="743.25" y="260.625" text-anchor="left">0..*</text>
<line stroke="Black" stroke-width="1.875" marker-start="url(#arrowStart)" x1="694.5" y1="255" x2="739.5" y2="255" />
<text x="698.25" y="251.25" text-anchor="left"></text>
<line stroke="Black" stroke-width="1.875" x1="739.5" y1="255" x2="739.5" y2="264.375" />
</g>
<g>
<g transform="translate(784.5 228.75)">
<a href="./ValueSet-ObservedChangesVS.html" target="_top">
<rect fill="LightGreen" stroke="Black" stroke-width="1.875" x="0" y="0" width="99" height="71.25" rx="3.75" ry="3.75" />
</a>
<a href="./ValueSet-ObservedChangesVS.html" target="_top">
<text x="49.5" y="22.5" text-anchor="middle">Observed</text>
</a>
<a href="./ValueSet-ObservedChangesVS.html" target="_top">
<text x="49.5" y="41.25" text-anchor="middle">Change</text>
</a>
<a href="./ValueSet-ObservedChangesVS.html" target="_top">
<text x="49.5" y="60" text-anchor="middle">ValueSet</text>
</a>
</g>
</g>
<g>
<g transform="translate(364.5 307.5)">
<a href="StructureDefinition-AbnormalityMass-definitions.html#Observation.component:biRadsAssessmentCategory" target="_top">
<rect fill="LightYellow" stroke="Black" stroke-width="1.875" x="0" y="0" width="287.99997" height="52.5" rx="3.75" ry="3.75" />
</a>
<a href="StructureDefinition-AbnormalityMass-definitions.html#Observation.component:biRadsAssessmentCategory" target="_top">
<text x="143.99998" y="22.5" text-anchor="middle">BiRads Assessment Category</text>
</a>
<a href="StructureDefinition-AbnormalityMass-definitions.html#Observation.component:biRadsAssessmentCategory" target="_top">
<text x="143.99998" y="41.25" text-anchor="middle">CodeableConcept</text>
</a>
</g>
<line stroke="Black" stroke-width="1.875" marker-end="url(#arrowEnd)" x1="697.5" y1="333.75" x2="742.5" y2="333.75" />
<text x="701.25" y="330" text-anchor="left">0..1</text>
<line stroke="Black" stroke-width="1.875" marker-start="url(#arrowStart)" x1="652.5" y1="333.75" x2="697.5" y2="333.75" />
<text x="656.25" y="330" text-anchor="left"></text>
<line stroke="Black" stroke-width="1.875" x1="697.5" y1="333.75" x2="697.5" y2="333.75" />
</g>
<g>
<g transform="translate(742.5 307.5)">
<a href="./ValueSet-BiRadsAssessmentCategoriesVS.html" target="_top">
<rect fill="LightGreen" stroke="Black" stroke-width="1.875" x="0" y="0" width="99" height="52.5" rx="3.75" ry="3.75" />
</a>
<a href="./ValueSet-BiRadsAssessmentCategoriesVS.html" target="_top">
<text x="49.5" y="22.5" text-anchor="middle">BiRads</text>
</a>
<a href="./ValueSet-BiRadsAssessmentCategoriesVS.html" target="_top">
<text x="49.5" y="41.25" text-anchor="middle">ValueSet</text>
</a>
</g>
</g>
<g>
<g transform="translate(364.5 367.5)">
<a href="StructureDefinition-AbnormalityMass-definitions.html#Observation.component:orientation" target="_top">
<rect fill="LightYellow" stroke="Black" stroke-width="1.875" x="0" y="0" width="172.5" height="52.5" rx="3.75" ry="3.75" />
</a>
<a href="StructureDefinition-AbnormalityMass-definitions.html#Observation.component:orientation" target="_top">
<text x="86.25" y="22.5" text-anchor="middle">Orientation</text>
</a>
<a href="StructureDefinition-AbnormalityMass-definitions.html#Observation.component:orientation" target="_top">
<text x="86.25" y="41.25" text-anchor="middle">CodeableConcept</text>
</a>
</g>
<line stroke="Black" stroke-width="1.875" marker-end="url(#arrowEnd)" x1="582" y1="384.375" x2="627" y2="384.375" />
<text x="585.75" y="380.625" text-anchor="left">0..1</text>
<line stroke="Black" stroke-width="1.875" marker-start="url(#arrowStart)" x1="537" y1="393.75" x2="582" y2="393.75" />
<text x="540.75" y="390" text-anchor="left"></text>
<line stroke="Black" stroke-width="1.875" x1="582" y1="384.375" x2="582" y2="393.75" />
</g>
<g>
<g transform="translate(627 367.5)">
<a href="./ValueSet-OrientationVS.html" target="_top">
<rect fill="LightGreen" stroke="Black" stroke-width="1.875" x="0" y="0" width="225" height="33.75" rx="3.75" ry="3.75" />
</a>
<a href="./ValueSet-OrientationVS.html" target="_top">
<text x="112.5" y="22.5" text-anchor="middle">Orientation ValueSet</text>
</a>
</g>
</g>
<g>
<g transform="translate(364.5 427.5)">
<a href="StructureDefinition-AbnormalityMass-definitions.html#Observation.component:shape" target="_top">
<rect fill="LightYellow" stroke="Black" stroke-width="1.875" x="0" y="0" width="172.5" height="52.5" rx="3.75" ry="3.75" />
</a>
<a href="StructureDefinition-AbnormalityMass-definitions.html#Observation.component:shape" target="_top">
<text x="86.25" y="22.5" text-anchor="middle">Shape</text>
</a>
<a href="StructureDefinition-AbnormalityMass-definitions.html#Observation.component:shape" target="_top">
<text x="86.25" y="41.25" text-anchor="middle">CodeableConcept</text>
</a>
</g>
<line stroke="Black" stroke-width="1.875" marker-end="url(#arrowEnd)" x1="582" y1="453.75" x2="627" y2="453.75" />
<text x="585.75" y="450" text-anchor="left">0..1</text>
<line stroke="Black" stroke-width="1.875" marker-start="url(#arrowStart)" x1="537" y1="453.75" x2="582" y2="453.75" />
<text x="540.75" y="450" text-anchor="left"></text>
<line stroke="Black" stroke-width="1.875" x1="582" y1="453.75" x2="582" y2="453.75" />
</g>
<g>
<g transform="translate(627 427.5)">
<a href="./ValueSet-ShapeVS.html" target="_top">
<rect fill="LightGreen" stroke="Black" stroke-width="1.875" x="0" y="0" width="99" height="52.5" rx="3.75" ry="3.75" />
</a>
<a href="./ValueSet-ShapeVS.html" target="_top">
<text x="49.5" y="22.5" text-anchor="middle">Shape</text>
</a>
<a href="./ValueSet-ShapeVS.html" target="_top">
<text x="49.5" y="41.25" text-anchor="middle">ValueSet</text>
</a>
</g>
</g>
<g>
<g transform="translate(364.5 487.5)">
<a href="StructureDefinition-AbnormalityMass-definitions.html#Observation.component:margin" target="_top">
<rect fill="LightYellow" stroke="Black" stroke-width="1.875" x="0" y="0" width="172.5" height="52.5" rx="3.75" ry="3.75" />
</a>
<a href="StructureDefinition-AbnormalityMass-definitions.html#Observation.component:margin" target="_top">
<text x="86.25" y="22.5" text-anchor="middle">Margin</text>
</a>
<a href="StructureDefinition-AbnormalityMass-definitions.html#Observation.component:margin" target="_top">
<text x="86.25" y="41.25" text-anchor="middle">CodeableConcept</text>
</a>
</g>
<line stroke="Black" stroke-width="1.875" marker-end="url(#arrowEnd)" x1="582" y1="504.375" x2="627" y2="504.375" />
<text x="585.75" y="500.625" text-anchor="left">0..1</text>
<line stroke="Black" stroke-width="1.875" marker-start="url(#arrowStart)" x1="537" y1="513.75" x2="582" y2="513.75" />
<text x="540.75" y="510" text-anchor="left"></text>
<line stroke="Black" stroke-width="1.875" x1="582" y1="504.375" x2="582" y2="513.75" />
</g>
<g>
<g transform="translate(627 487.5)">
<a href="./ValueSet-MarginVS.html" target="_top">
<rect fill="LightGreen" stroke="Black" stroke-width="1.875" x="0" y="0" width="162" height="33.75" rx="3.75" ry="3.75" />
</a>
<a href="./ValueSet-MarginVS.html" target="_top">
<text x="81" y="22.5" text-anchor="middle">MarginValueSet</text>
</a>
</g>
</g>
<g>
<g transform="translate(364.5 547.5)">
<a href="StructureDefinition-AbnormalityMass-definitions.html#Observation.component:mgDensity" target="_top">
<rect fill="LightYellow" stroke="Black" stroke-width="1.875" x="0" y="0" width="172.5" height="52.5" rx="3.75" ry="3.75" />
</a>
<a href="StructureDefinition-AbnormalityMass-definitions.html#Observation.component:mgDensity" target="_top">
<text x="86.25" y="22.5" text-anchor="middle">Density</text>
</a>
<a href="StructureDefinition-AbnormalityMass-definitions.html#Observation.component:mgDensity" target="_top">
<text x="86.25" y="41.25" text-anchor="middle">CodeableConcept</text>
</a>
</g>
<line stroke="Black" stroke-width="1.875" marker-end="url(#arrowEnd)" x1="582" y1="564.375" x2="627" y2="564.375" />
<text x="585.75" y="560.625" text-anchor="left">0..1</text>
<line stroke="Black" stroke-width="1.875" marker-start="url(#arrowStart)" x1="537" y1="573.75" x2="582" y2="573.75" />
<text x="540.75" y="570" text-anchor="left"></text>
<line stroke="Black" stroke-width="1.875" x1="582" y1="564.375" x2="582" y2="573.75" />
</g>
<g>
<g transform="translate(627 547.5)">
<a href="./ValueSet-MGDensityVS.html" target="_top">
<rect fill="LightGreen" stroke="Black" stroke-width="1.875" x="0" y="0" width="214.5" height="33.75" rx="3.75" ry="3.75" />
</a>
<a href="./ValueSet-MGDensityVS.html" target="_top">
<text x="107.25" y="22.5" text-anchor="middle">MG Density ValueSet</text>
</a>
</g>
</g>
<g>
<g transform="translate(364.5 607.5)">
<a href="StructureDefinition-AbnormalityMass-definitions.html#Observation.component:obsCount" target="_top">
<rect fill="LightYellow" stroke="Black" stroke-width="1.875" x="0" y="0" width="193.5" height="52.5" rx="3.75" ry="3.75" />
</a>
<a href="StructureDefinition-AbnormalityMass-definitions.html#Observation.component:obsCount" target="_top">
<text x="96.75" y="22.5" text-anchor="middle">Observed Count</text>
</a>
<a href="StructureDefinition-AbnormalityMass-definitions.html#Observation.component:obsCount" target="_top">
<text x="96.75" y="41.25" text-anchor="middle">Quantity or Range</text>
</a>
</g>
</g>
<g>
<g transform="translate(364.5 667.5)">
<a href="StructureDefinition-AbnormalityMass-definitions.html#Observation.component:obsSize" target="_top">
<rect fill="LightYellow" stroke="Black" stroke-width="1.875" x="0" y="0" width="193.5" height="52.5" rx="3.75" ry="3.75" />
</a>
<a href="StructureDefinition-AbnormalityMass-definitions.html#Observation.component:obsSize" target="_top">
<text x="96.75" y="22.5" text-anchor="middle">Observed Size</text>
</a>
<a href="StructureDefinition-AbnormalityMass-definitions.html#Observation.component:obsSize" target="_top">
<text x="96.75" y="41.25" text-anchor="middle">Quantity or Range</text>
</a>
</g>
<line stroke="Black" stroke-width="1.875" marker-end="url(#arrowEnd)" x1="602.99994" y1="693.75" x2="647.99994" y2="693.75" />
<text x="606.74994" y="690" text-anchor="left">0..3</text>
<line stroke="Black" stroke-width="1.875" marker-start="url(#arrowStart)" x1="557.99994" y1="693.75" x2="602.99994" y2="693.75" />
<text x="561.74994" y="690" text-anchor="left"></text>
<line stroke="Black" stroke-width="1.875" x1="602.99994" y1="693.75" x2="602.99994" y2="693.75" />
</g>
<g>
<g transform="translate(647.99994 667.5)">
<a href="./ValueSet-UnitsOfLengthVS.html" target="_top">
<rect fill="LightGreen" stroke="Black" stroke-width="1.875" x="0" y="0" width="151.49998" height="52.5" rx="3.75" ry="3.75" />
</a>
<a href="./ValueSet-UnitsOfLengthVS.html" target="_top">
<text x="75.74999" y="22.5" text-anchor="middle">UnitsOfLength</text>
</a>
<a href="./ValueSet-UnitsOfLengthVS.html" target="_top">
<text x="75.74999" y="41.25" text-anchor="middle">ValueSet</text>
</a>
</g>
</g>
<g>
<g transform="translate(364.5 727.5)">
<a href="StructureDefinition-AbnormalityMass-definitions.html#Observation.component:obsDistribution" target="_top">
<rect fill="LightYellow" stroke="Black" stroke-width="1.875" x="0" y="0" width="414" height="52.5" rx="3.75" ry="3.75" />
</a>
<a href="StructureDefinition-AbnormalityMass-definitions.html#Observation.component:obsDistribution" target="_top">
<text x="207" y="22.5" text-anchor="middle">Observed distribution of abnormalities</text>
</a>
<a href="StructureDefinition-AbnormalityMass-definitions.html#Observation.component:obsDistribution" target="_top">
<text x="207" y="41.25" text-anchor="middle">CodeableConcept</text>
</a>
</g>
<line stroke="Black" stroke-width="1.875" marker-end="url(#arrowEnd)" x1="823.5" y1="753.75" x2="868.5" y2="753.75" />
<text x="827.25" y="750" text-anchor="left">0..*</text>
<line stroke="Black" stroke-width="1.875" marker-start="url(#arrowStart)" x1="778.5" y1="753.75" x2="823.5" y2="753.75" />
<text x="782.25" y="750" text-anchor="left"></text>
<line stroke="Black" stroke-width="1.875" x1="823.5" y1="753.75" x2="823.5" y2="753.75" />
</g>
<g>
<g transform="translate(868.5 727.5)">
<a href="./ValueSet-CalcificationDistributionVS.html" target="_top">
<rect fill="LightGreen" stroke="Black" stroke-width="1.875" x="0" y="0" width="287.99997" height="52.5" rx="3.75" ry="3.75" />
</a>
<a href="./ValueSet-CalcificationDistributionVS.html" target="_top">
<text x="143.99998" y="22.5" text-anchor="middle">Calcification Distribution</text>
</a>
<a href="./ValueSet-CalcificationDistributionVS.html" target="_top">
<text x="143.99998" y="41.25" text-anchor="middle">ValueSet</text>
</a>
</g>
</g>
<g>
<g transform="translate(364.5 787.5)">
<a href="StructureDefinition-AbnormalityMass-definitions.html#Observation.component:obsDistRegionSize" target="_top">
<rect fill="LightYellow" stroke="Black" stroke-width="1.875" x="0" y="0" width="361.5" height="52.5" rx="3.75" ry="3.75" />
</a>
<a href="StructureDefinition-AbnormalityMass-definitions.html#Observation.component:obsDistRegionSize" target="_top">
<text x="180.75" y="22.5" text-anchor="middle">Observed Distribution Region Size</text>
</a>
<a href="StructureDefinition-AbnormalityMass-definitions.html#Observation.component:obsDistRegionSize" target="_top">
<text x="180.75" y="41.25" text-anchor="middle">Quantity or Range</text>
</a>
</g>
<line stroke="Black" stroke-width="1.875" marker-end="url(#arrowEnd)" x1="771" y1="813.75" x2="816" y2="813.75" />
<text x="774.75" y="810" text-anchor="left">0..3</text>
<line stroke="Black" stroke-width="1.875" marker-start="url(#arrowStart)" x1="726" y1="813.75" x2="771" y2="813.75" />
<text x="729.75" y="810" text-anchor="left"></text>
<line stroke="Black" stroke-width="1.875" x1="771" y1="813.75" x2="771" y2="813.75" />
</g>
<g>
<g transform="translate(816 787.5)">
<a href="./ValueSet-UnitsOfLengthVS.html" target="_top">
<rect fill="LightGreen" stroke="Black" stroke-width="1.875" x="0" y="0" width="151.49998" height="52.5" rx="3.75" ry="3.75" />
</a>
<a href="./ValueSet-UnitsOfLengthVS.html" target="_top">
<text x="75.74999" y="22.5" text-anchor="middle">UnitsOfLength</text>
</a>
<a href="./ValueSet-UnitsOfLengthVS.html" target="_top">
<text x="75.74999" y="41.25" text-anchor="middle">ValueSet</text>
</a>
</g>
</g>
<g>
<g transform="translate(364.5 847.5)">
<a href="StructureDefinition-AbnormalityMass-definitions.html#Observation.component:notPreviouslySeen" target="_top">
<rect fill="LightYellow" stroke="Black" stroke-width="1.875" x="0" y="0" width="214.5" height="52.5" rx="3.75" ry="3.75" />
</a>
<a href="StructureDefinition-AbnormalityMass-definitions.html#Observation.component:notPreviouslySeen" target="_top">
<text x="107.25" y="22.5" text-anchor="middle">Not Previously Seen</text>
</a>
<a href="StructureDefinition-AbnormalityMass-definitions.html#Observation.component:notPreviouslySeen" target="_top">
<text x="107.25" y="41.25" text-anchor="middle">CodeableConcept</text>
</a>
</g>
<line stroke="Black" stroke-width="1.875" marker-end="url(#arrowEnd)" x1="624" y1="873.75" x2="669" y2="873.75" />
<text x="627.75" y="870" text-anchor="left">0..*</text>
<line stroke="Black" stroke-width="1.875" marker-start="url(#arrowStart)" x1="579" y1="873.75" x2="624" y2="873.75" />
<text x="582.75" y="870" text-anchor="left"></text>
<line stroke="Black" stroke-width="1.875" x1="624" y1="873.75" x2="624" y2="873.75" />
</g>
<g>
<g transform="translate(669 847.5)">
<a href="./ValueSet-NotPreviouslySeenVS.html" target="_top">
<rect fill="LightGreen" stroke="Black" stroke-width="1.875" x="0" y="0" width="193.5" height="52.5" rx="3.75" ry="3.75" />
</a>
<a href="./ValueSet-NotPreviouslySeenVS.html" target="_top">
<text x="96.75" y="22.5" text-anchor="middle">NotPreviouslySeen</text>
</a>
<a href="./ValueSet-NotPreviouslySeenVS.html" target="_top">
<text x="96.75" y="41.25" text-anchor="middle">ValueSet</text>
</a>
</g>
</g>
<g>
<g transform="translate(364.5 907.5)">
<a href="StructureDefinition-AbnormalityMass-definitions.html#Observation.component:correspondsWith" target="_top">
<rect fill="LightYellow" stroke="Black" stroke-width="1.875" x="0" y="0" width="183" height="52.5" rx="3.75" ry="3.75" />
</a>
<a href="StructureDefinition-AbnormalityMass-definitions.html#Observation.component:correspondsWith" target="_top">
<text x="91.5" y="22.5" text-anchor="middle">Corresponds With</text>
</a>
<a href="StructureDefinition-AbnormalityMass-definitions.html#Observation.component:correspondsWith" target="_top">
<text x="91.5" y="41.25" text-anchor="middle">CodeableConcept</text>
</a>
</g>
<line stroke="Black" stroke-width="1.875" marker-end="url(#arrowEnd)" x1="592.5" y1="933.75" x2="637.5" y2="933.75" />
<text x="596.25" y="930" text-anchor="left">0..*</text>
<line stroke="Black" stroke-width="1.875" marker-start="url(#arrowStart)" x1="547.5" y1="933.75" x2="592.5" y2="933.75" />
<text x="551.25" y="930" text-anchor="left"></text>
<line stroke="Black" stroke-width="1.875" x1="592.5" y1="933.75" x2="592.5" y2="933.75" />
</g>
<g>
<g transform="translate(637.5 907.5)">
<a href="./ValueSet-CorrespondsWithVS.html" target="_top">
<rect fill="LightGreen" stroke="Black" stroke-width="1.875" x="0" y="0" width="172.5" height="52.5" rx="3.75" ry="3.75" />
</a>
<a href="./ValueSet-CorrespondsWithVS.html" target="_top">
<text x="86.25" y="22.5" text-anchor="middle">CorrespondsWith</text>
</a>
<a href="./ValueSet-CorrespondsWithVS.html" target="_top">
<text x="86.25" y="41.25" text-anchor="middle">ValueSet</text>
</a>
</g>
</g>
<g>
<g transform="translate(364.5 967.5)">
<a href="StructureDefinition-AbnormalityMass-definitions.html#Observation.component:PreviouslyDemonstratedBy" target="_top">
<rect fill="LightYellow" stroke="Black" stroke-width="1.875" x="0" y="0" width="287.99997" height="52.5" rx="3.75" ry="3.75" />
</a>
<a href="StructureDefinition-AbnormalityMass-definitions.html#Observation.component:PreviouslyDemonstratedBy" target="_top">
<text x="143.99998" y="22.5" text-anchor="middle">Previously Demonstrated By</text>
</a>
<a href="StructureDefinition-AbnormalityMass-definitions.html#Observation.component:PreviouslyDemonstratedBy" target="_top">
<text x="143.99998" y="41.25" text-anchor="middle">CodeableConcept</text>
</a>
</g>
<line stroke="Black" stroke-width="1.875" marker-end="url(#arrowEnd)" x1="697.5" y1="993.75" x2="742.5" y2="993.75" />
<text x="701.25" y="990" text-anchor="left">0..*</text>
<line stroke="Black" stroke-width="1.875" marker-start="url(#arrowStart)" x1="652.5" y1="993.75" x2="697.5" y2="993.75" />
<text x="656.25" y="990" text-anchor="left"></text>
<line stroke="Black" stroke-width="1.875" x1="697.5" y1="993.75" x2="697.5" y2="993.75" />
</g>
<g>
<g transform="translate(742.5 967.5)">
<a href="./ValueSet-PreviouslyDemonstratedByVS.html" target="_top">
<rect fill="LightGreen" stroke="Black" stroke-width="1.875" x="0" y="0" width="267" height="52.5" rx="3.75" ry="3.75" />
</a>
<a href="./ValueSet-PreviouslyDemonstratedByVS.html" target="_top">
<text x="133.5" y="22.5" text-anchor="middle">PreviouslyDemonstratedBy</text>
</a>
<a href="./ValueSet-PreviouslyDemonstratedByVS.html" target="_top">
<text x="133.5" y="41.25" text-anchor="middle">ValueSet</text>
</a>
</g>
</g>
<g>
<g transform="translate(364.5 1027.5)">
<a href="StructureDefinition-AbnormalityMass-definitions.html#Observation.bodySite.extension:breastBodyLocation" target="_top">
<rect fill="LightSalmon" stroke="Black" stroke-width="1.875" x="0" y="0" width="225" height="52.5" rx="3.75" ry="3.75" />
</a>
<a href="StructureDefinition-AbnormalityMass-definitions.html#Observation.bodySite.extension:breastBodyLocation" target="_top">
<text x="112.5" y="22.5" text-anchor="middle">Breast Body Location</text>
</a>
<a href="StructureDefinition-AbnormalityMass-definitions.html#Observation.bodySite.extension:breastBodyLocation" target="_top">
<text x="112.5" y="41.25" text-anchor="middle">extension</text>
</a>
</g>
<line stroke="Black" stroke-width="1.875" marker-end="url(#arrowEnd)" x1="634.5" y1="1044.375" x2="679.5" y2="1044.375" />
<text x="638.25" y="1040.625" text-anchor="left">1..1</text>
<line stroke="Black" stroke-width="1.875" marker-start="url(#arrowStart)" x1="589.5" y1="1053.75" x2="634.5" y2="1053.75" />
<text x="593.25" y="1050" text-anchor="left"></text>
<line stroke="Black" stroke-width="1.875" x1="634.5" y1="1044.375" x2="634.5" y2="1053.75" />
</g>
<g>
<g transform="translate(679.5 1027.5)">
<a href="./StructureDefinition-BreastBodyLocationExtension.html" target="_top">
<rect fill="LightCyan" stroke="Black" stroke-width="1.875" x="0" y="0" width="183" height="33.75" rx="3.75" ry="3.75" />
</a>
<a href="./StructureDefinition-BreastBodyLocationExtension.html" target="_top">
<text x="91.5" y="22.5" text-anchor="middle">Breast Body Loc.</text>
</a>
</g>
</g>
</svg>
