<?xml version="1.0"?>
<!DOCTYPE svg PUBLIC "-//W3C//DTD SVG 1.1//EN" "http://www.w3.org/Graphics/SVG/1.1/DTD/svg11.dtd">
<svg xmlns="http://www.w3.org/2000/svg" version="1.1" width="547.5" height="367.5">
<defs>
<marker id="arrowStart" markerWidth="3.75" markerHeight="3.75" markerUnits="px" refX="1.875" refY="1.875">
<circle fill="Black" stroke-width="0" cx="1.875" cy="1.875" r="1.875" />
</marker>
<marker id="arrowEnd" markerWidth="7.5" markerHeight="7.5" markerUnits="px" refX="7.5" refY="3.75">
<polygon fill="Black" stroke-width="0" points="0 0 7.5 3.75 0 7.5" />
</marker>
</defs>
<g>
<g>
<rect fill="LightBlue" stroke="Black" stroke-width="1.875" x="7.5" y="7.5" width="120" height="33.75" rx="3.75" ry="3.75" />
<a href="./StructureDefinition-BreastRadNMFinding.html" target="_blank">
<title>'BreastRadNMFinding'</title>
<text x="15" y="30">NM Finding</text>
</a>
</g>
<line stroke="Black" stroke-width="1.875" marker-end="url(#arrowEnd)" x1="157.5" y1="33.75" x2="187.5" y2="33.75" />
<line stroke="Black" stroke-width="1.875" marker-start="url(#arrowStart)" x1="127.5" y1="24.375" x2="157.5" y2="24.375" />
<line stroke="Black" stroke-width="1.875" x1="157.5" y1="24.375" x2="157.5" y2="33.75" />
</g>
<g>
<g>
<rect fill="LightGreen" stroke="Black" stroke-width="1.875" x="187.5" y="7.5" width="57" height="52.5" rx="3.75" ry="3.75" />
<text x="195" y="30">NM</text>
<text x="195" y="48.75">Mass</text>
</g>
<line stroke="Black" stroke-width="1.875" marker-end="url(#arrowEnd)" x1="274.5" y1="24.375" x2="304.5" y2="24.375" />
<line stroke="Black" stroke-width="1.875" marker-end="url(#arrowEnd)" x1="274.5" y1="65.625" x2="304.5" y2="65.625" />
<line stroke="Black" stroke-width="1.875" marker-end="url(#arrowEnd)" x1="274.5" y1="106.875" x2="304.5" y2="106.875" />
<line stroke="Black" stroke-width="1.875" marker-end="url(#arrowEnd)" x1="274.5" y1="166.875" x2="304.5" y2="166.875" />
<line stroke="Black" stroke-width="1.875" marker-end="url(#arrowEnd)" x1="274.5" y1="226.875" x2="304.5" y2="226.875" />
<line stroke="Black" stroke-width="1.875" marker-end="url(#arrowEnd)" x1="274.5" y1="277.5" x2="304.5" y2="277.5" />
<line stroke="Black" stroke-width="1.875" marker-end="url(#arrowEnd)" x1="274.5" y1="328.125" x2="304.5" y2="328.125" />
<line stroke="Black" stroke-width="1.875" marker-start="url(#arrowStart)" x1="244.49998" y1="33.75" x2="274.5" y2="33.75" />
<line stroke="Black" stroke-width="1.875" x1="274.5" y1="24.375" x2="274.5" y2="328.125" />
</g>
<g>
<g>
<rect fill="LightSalmon" stroke="Black" stroke-width="1.875" x="304.5" y="7.5" width="57" height="33.75" rx="3.75" ry="3.75" />
<a href="./StructureDefinition-CommonSize.html" target="_blank">
<title>'CommonSize'</title>
<text x="312" y="30">Size</text>
</a>
</g>
<g>
<rect fill="LightSalmon" stroke="Black" stroke-width="1.875" x="304.5" y="48.75" width="67.5" height="33.75" rx="3.75" ry="3.75" />
<a href="./StructureDefinition-CommonCount.html" target="_blank">
<title>'CommonCount'</title>
<text x="312" y="71.25">Count</text>
</a>
</g>
<g>
<rect fill="LightSalmon" stroke="Black" stroke-width="1.875" x="304.5" y="90" width="130.5" height="33.75" rx="3.75" ry="3.75" />
<a href="./StructureDefinition-CommonOrientation.html" target="_blank">
<title>'CommonOrientation'</title>
<text x="312" y="112.5">Orientation</text>
</a>
</g>
<g>
<rect fill="LightSalmon" stroke="Black" stroke-width="1.875" x="304.5" y="131.25" width="78" height="71.25" rx="3.75" ry="3.75" />
<a href="./StructureDefinition-BreastRadNMMassMargin.html" target="_blank">
<title>'BreastRadNMMassMargin'</title>
<text x="312" y="153.75">NM</text>
</a>
<a href="./StructureDefinition-BreastRadNMMassMargin.html" target="_blank">
<title>'BreastRadNMMassMargin'</title>
<text x="312" y="172.5">Mass</text>
</a>
<a href="./StructureDefinition-BreastRadNMMassMargin.html" target="_blank">
<title>'BreastRadNMMassMargin'</title>
<text x="312" y="191.25">Margin</text>
</a>
</g>
<g>
<rect fill="LightSalmon" stroke="Black" stroke-width="1.875" x="304.5" y="210" width="88.5" height="33.75" rx="3.75" ry="3.75" />
<a href="./StructureDefinition-CommonObservedChanges.html" target="_blank">
<title>'CommonObservedChanges'</title>
<text x="312" y="232.5">Changes</text>
</a>
</g>
<g>
<rect fill="LightSalmon" stroke="Black" stroke-width="1.875" x="304.5" y="251.25" width="151.49998" height="52.5" rx="3.75" ry="3.75" />
<a href="./StructureDefinition-AimAnnotatedImagingStudy.html" target="_blank">
<title>'AimAnnotatedImagingStudy'</title>
<text x="312" y="273.75">Annotated</text>
</a>
<a href="./StructureDefinition-AimAnnotatedImagingStudy.html" target="_blank">
<title>'AimAnnotatedImagingStudy'</title>
<text x="312" y="292.5">Imaging Study</text>
</a>
</g>
<g>
<rect fill="LightSalmon" stroke="Black" stroke-width="1.875" x="304.5" y="311.25" width="183" height="33.75" rx="3.75" ry="3.75" />
<a href="./StructureDefinition-BreastBodyLocationExtension.html" target="_blank">
<title>'BreastBodyLocationExtension'</title>
<text x="312" y="333.75">Breast Body Loc.</text>
</a>
</g>
</g>
</svg>
