<?xml version="1.0"?>
<!DOCTYPE svg PUBLIC "-//W3C//DTD SVG 1.1//EN" "http://www.w3.org/Graphics/SVG/1.1/DTD/svg11.dtd">
<svg xmlns="http://www.w3.org/2000/svg" version="1.1" width="631.5" height="101.25">
<defs>
<marker id="arrowStart" markerWidth="3.75" markerHeight="3.75" markerUnits="px" refX="1.875" refY="1.875">
<circle fill="Black" stroke-width="0" cx="1.875" cy="1.875" r="1.875" />
</marker>
<marker id="arrowEnd" markerWidth="7.5" markerHeight="7.5" markerUnits="px" refX="7.5" refY="3.75">
<polygon fill="Black" stroke-width="0" points="0 0 7.5 3.75 0 7.5" />
</marker>
</defs>
<g>
<g transform="translate(7.5 7.5)">
<rect fill="LightBlue" stroke="Black" stroke-width="1.875" x="0" y="0" width="109.49999" height="71.25" rx="3.75" ry="3.75" />
<a href="./StructureDefinition-BreastRadReport.html" target="_top">
<text x="54.749996" y="22.5" text-anchor="middle">Breast</text>
</a>
<a href="./StructureDefinition-BreastRadReport.html" target="_top">
<text x="54.749996" y="41.25" text-anchor="middle">Radiology</text>
</a>
<a href="./StructureDefinition-BreastRadReport.html" target="_top">
<text x="54.749996" y="60" text-anchor="middle">Report</text>
</a>
</g>
<line stroke="Black" stroke-width="1.875" marker-end="url(#arrowEnd)" x1="131.99998" y1="33.75" x2="176.99998" y2="33.75" />
<text x="135.74998" y="30" text-anchor="left"></text>
<line stroke="Black" stroke-width="1.875" marker-start="url(#arrowStart)" x1="116.99999" y1="43.125" x2="131.99998" y2="43.125" />
<line stroke="Black" stroke-width="1.875" x1="131.99998" y1="33.75" x2="131.99998" y2="43.125" />
</g>
<g>
<g transform="translate(176.99998 7.5)">
<rect fill="White" stroke="Black" stroke-width="1.875" x="0" y="0" width="130.5" height="52.5" rx="3.75" ry="3.75" />
<text x="65.25" y="22.5" text-anchor="middle">Impressions</text>
<text x="65.25" y="41.25" text-anchor="middle">Extension</text>
</g>
<line stroke="Black" stroke-width="1.875" marker-end="url(#arrowEnd)" x1="322.5" y1="24.375" x2="367.5" y2="24.375" />
<text x="326.25" y="20.625" text-anchor="left">0..*</text>
<line stroke="Black" stroke-width="1.875" marker-start="url(#arrowStart)" x1="307.5" y1="33.75" x2="322.5" y2="33.75" />
<line stroke="Black" stroke-width="1.875" x1="322.5" y1="24.375" x2="322.5" y2="33.75" />
</g>
<g>
<g transform="translate(367.5 7.5)">
<rect fill="LightCyan" stroke="Black" stroke-width="1.875" x="0" y="0" width="203.99998" height="33.75" rx="3.75" ry="3.75" />
<a href="http://hl7.org/fhir/StructureDefinition/ClinicalImpression" target="_top">
<text x="101.99999" y="22.5" text-anchor="middle">ClinicalImpression</text>
</a>
</g>
</g>
</svg>
