<?xml version="1.0"?>
<?xml-stylesheet type="text/css" href="FocusGraph.css" ?>
<!DOCTYPE svg PUBLIC "-//W3C//DTD SVG 1.1//EN" "http://www.w3.org/Graphics/SVG/1.1/DTD/svg11.dtd">
<svg xmlns="http://www.w3.org/2000/svg" version="1.1" width="985.88" height="213.75">
<defs>
<marker id="arrowStart" markerWidth="3.75" markerHeight="3.75" markerUnits="px" refX="1.88" refY="1.88">
<circle class="connector" cx="1.88" cy="1.88" r="1.88" />
</marker>
<marker id="arrowEnd" markerWidth="7.5" markerHeight="7.5" markerUnits="px" refX="7.5" refY="3.75">
<polygon class="connector" points="0 0 7.5 3.75 0 7.5" />
</marker>
</defs>
<g>
<g transform="translate(7.5 7.5)">
<a href="StructureDefinition-BreastRadiologyComposition.html" target="_top">
<rect class="profile" x="0" y="0" width="130.5" height="71.25" rx="3.75" ry="3.75" />
</a>
<a href="StructureDefinition-BreastRadiologyComposition.html" target="_top">
<text x="65.25" y="22.5" text-anchor="middle" class="profile">Breast</text>
</a>
<a href="StructureDefinition-BreastRadiologyComposition.html" target="_top">
<text x="65.25" y="41.25" text-anchor="middle" class="profile">Radiology</text>
</a>
<a href="StructureDefinition-BreastRadiologyComposition.html" target="_top">
<text x="65.25" y="60" text-anchor="middle" class="profile">Composition</text>
</a>
</g>
<line class="connector" marker-end="url(#arrowEnd)" x1="168" y1="24.38" x2="228" y2="24.38" />
<text x="171.75" y="20.62" text-anchor="right" class="lhsText">1..1</text>
<line class="connector" marker-start="url(#arrowStart)" x1="138" y1="43.12" x2="168" y2="43.12" />
<line class="connector" x1="168" y1="24.38" x2="168" y2="43.12" />
</g>
<g>
<g transform="translate(228 7.5)">
<a href="StructureDefinition-BreastRadiologyReport.html" target="_top">
<rect class="focus" x="0" y="0" width="78" height="33.75" rx="3.75" ry="3.75" />
</a>
<a href="StructureDefinition-BreastRadiologyReport.html" target="_top">
<text x="39" y="22.5" text-anchor="middle" class="focus">Report</text>
</a>
</g>
<line class="connector" marker-end="url(#arrowEnd)" x1="336" y1="24.38" x2="396" y2="24.38" />
<text x="339.75" y="20.62" text-anchor="right" class="lhsText">1..1</text>
<line class="connector" marker-end="url(#arrowEnd)" x1="336" y1="65.62" x2="396" y2="65.62" />
<text x="339.75" y="61.88" text-anchor="right" class="lhsText">1..1</text>
<line class="connector" marker-start="url(#arrowStart)" x1="306" y1="24.38" x2="336" y2="24.38" />
<line class="connector" x1="336" y1="24.38" x2="336" y2="65.62" />
</g>
<g>
<g transform="translate(396 7.5)">
<a href="StructureDefinition-BreastRadiologyReport-definitions.html#DiagnosticReport.code" target="_top">
<rect class="element" x="0" y="0" width="57" height="33.75" rx="3.75" ry="3.75" />
</a>
<a href="StructureDefinition-BreastRadiologyReport-definitions.html#DiagnosticReport.code" target="_top">
<text x="28.5" y="22.5" text-anchor="middle" class="element">Code</text>
</a>
</g>
<line class="connector" marker-end="url(#arrowEnd)" x1="483" y1="24.38" x2="603" y2="24.38" />
<text x="486.75" y="20.62" text-anchor="right" class="lhsText">pattern </text>
<line class="connector" marker-start="url(#arrowStart)" x1="453" y1="24.38" x2="483" y2="24.38" />
<line class="connector" x1="483" y1="24.38" x2="483" y2="24.38" />
</g>
<g>
<g transform="translate(603 7.5)">
<a href="http://hl7.org/fhir/us/breast-radiology/CodeSystem/ObservationCodesCS" target="_top">
<rect class="value" x="0" y="0" width="351" height="33.75" rx="3.75" ry="3.75" />
</a>
<a href="http://hl7.org/fhir/us/breast-radiology/CodeSystem/ObservationCodesCS" target="_top">
<text x="175.5" y="22.5" text-anchor="middle" class="value">ObservationCodesCS#LOINC#10193-1</text>
</a>
</g>
</g>
<g>
<g transform="translate(396 48.75)">
<a href="StructureDefinition-BreastRadiologyReport-definitions.html#DiagnosticReport.conclusionCode" target="_top">
<rect class="element" x="0" y="0" width="162" height="33.75" rx="3.75" ry="3.75" />
</a>
<a href="StructureDefinition-BreastRadiologyReport-definitions.html#DiagnosticReport.conclusionCode" target="_top">
<text x="81" y="22.5" text-anchor="middle" class="element">ConclusionCode</text>
</a>
</g>
<line class="connector" marker-end="url(#arrowEnd)" x1="588" y1="65.62" x2="648" y2="65.62" />
<text x="591.75" y="61.88" text-anchor="right" class="lhsText">bind</text>
<line class="connector" marker-start="url(#arrowStart)" x1="558" y1="65.62" x2="588" y2="65.62" />
<line class="connector" x1="588" y1="65.62" x2="588" y2="65.62" />
</g>
<g>
<g transform="translate(648 48.75)">
<a href="ValueSet-BiRadsAssessmentCategoryVS.html" target="_top">
<rect class="valueSet" x="0" y="0" width="288" height="33.75" rx="3.75" ry="3.75" />
</a>
<a href="ValueSet-BiRadsAssessmentCategoryVS.html" target="_top">
<text x="144" y="22.5" text-anchor="middle" class="valueSet">BiRadsAssessmentCategoryVS</text>
</a>
</g>
</g>
<g>
<g transform="translate(7.5 165)">
<rect class="focus" x="0" y="0" width="67.5" height="33.75" rx="3.75" ry="3.75" />
<text x="33.75" y="22.5" text-anchor="middle" class="focus">Focus</text>
</g>
<g transform="translate(82.5 165)">
<rect class="profile" x="0" y="0" width="193.5" height="33.75" rx="3.75" ry="3.75" />
<text x="96.75" y="22.5" text-anchor="middle" class="profile">Profiled Resource</text>
</g>
<g transform="translate(283.5 165)">
<rect class="element" x="0" y="0" width="183" height="33.75" rx="3.75" ry="3.75" />
<text x="91.5" y="22.5" text-anchor="middle" class="element">Resource Element</text>
</g>
<g transform="translate(474 165)">
<rect class="valueSet" x="0" y="0" width="99" height="33.75" rx="3.75" ry="3.75" />
<text x="49.5" y="22.5" text-anchor="middle" class="valueSet">ValueSet</text>
</g>
<g transform="translate(580.5 165)">
<rect class="value" x="0" y="0" width="67.5" height="33.75" rx="3.75" ry="3.75" />
<text x="33.75" y="22.5" text-anchor="middle" class="value">Value</text>
</g>
</g>
</svg>
