<?xml version="1.0"?>
<!DOCTYPE svg PUBLIC "-//W3C//DTD SVG 1.1//EN" "http://www.w3.org/Graphics/SVG/1.1/DTD/svg11.dtd">
<svg xmlns="http://www.w3.org/2000/svg" version="1.1" width="879" height="101.25">
<defs>
<marker id="arrowStart" markerWidth="3.75" markerHeight="3.75" markerUnits="px" refX="1.875" refY="1.875">
<circle fill="Black" stroke-width="0" cx="1.875" cy="1.875" r="1.875" />
</marker>
<marker id="arrowEnd" markerWidth="7.5" markerHeight="7.5" markerUnits="px" refX="7.5" refY="3.75">
<polygon fill="Black" stroke-width="0" points="0 0 7.5 3.75 0 7.5" />
</marker>
</defs>
<g>
<g transform="translate(7.5 7.5)">
<a href="./StructureDefinition-BreastRadComposition.html" target="_top">
<rect fill="LightCyan" stroke="Black" stroke-width="1.875" x="0" y="0" width="130.5" height="71.25" rx="3.75" ry="3.75" />
</a>
<a href="./StructureDefinition-BreastRadComposition.html" target="_top">
<text x="65.25" y="22.5" text-anchor="middle">Breast</text>
</a>
<a href="./StructureDefinition-BreastRadComposition.html" target="_top">
<text x="65.25" y="41.25" text-anchor="middle">Radiology</text>
</a>
<a href="./StructureDefinition-BreastRadComposition.html" target="_top">
<text x="65.25" y="60" text-anchor="middle">Composition</text>
</a>
</g>
<line stroke="Black" stroke-width="1.875" marker-end="url(#arrowEnd)" x1="183" y1="43.125" x2="228" y2="43.125" />
<text x="186.75" y="39.375" text-anchor="left"></text>
<line stroke="Black" stroke-width="1.875" marker-start="url(#arrowStart)" x1="138" y1="43.125" x2="183" y2="43.125" />
<text x="141.75" y="39.375" text-anchor="left"></text>
<line stroke="Black" stroke-width="1.875" x1="183" y1="43.125" x2="183" y2="43.125" />
</g>
<g>
<g transform="translate(228 7.5)">
<rect fill="White" stroke="Black" stroke-width="1.875" x="0" y="0" width="109.49999" height="71.25" rx="3.75" ry="3.75" />
<text x="54.749996" y="22.5" text-anchor="middle">Breast</text>
<text x="54.749996" y="41.25" text-anchor="middle">Radiology</text>
<text x="54.749996" y="60" text-anchor="middle">Report</text>
</g>
<line stroke="Black" stroke-width="1.875" marker-end="url(#arrowEnd)" x1="382.5" y1="33.75" x2="427.5" y2="33.75" />
<text x="386.25" y="30" text-anchor="left">1..1</text>
<line stroke="Black" stroke-width="1.875" marker-start="url(#arrowStart)" x1="337.5" y1="43.125" x2="382.5" y2="43.125" />
<text x="341.25" y="39.375" text-anchor="left"></text>
<line stroke="Black" stroke-width="1.875" x1="382.5" y1="33.75" x2="382.5" y2="43.125" />
</g>
<g>
<g transform="translate(427.5 7.5)">
<a href="StructureDefinition-BreastRadReport-definitions.html#DiagnosticReport.conclusionCode" target="_top">
<rect fill="LightYellow" stroke="Black" stroke-width="1.875" x="0" y="0" width="172.5" height="52.5" rx="3.75" ry="3.75" />
</a>
<a href="StructureDefinition-BreastRadReport-definitions.html#DiagnosticReport.conclusionCode" target="_top">
<text x="86.25" y="22.5" text-anchor="middle">Conclusion Code</text>
</a>
<a href="StructureDefinition-BreastRadReport-definitions.html#DiagnosticReport.conclusionCode" target="_top">
<text x="86.25" y="41.25" text-anchor="middle">CodeableConcept</text>
</a>
</g>
<line stroke="Black" stroke-width="1.875" marker-end="url(#arrowEnd)" x1="645" y1="33.75" x2="690" y2="33.75" />
<line stroke="Black" stroke-width="1.875" marker-start="url(#arrowStart)" x1="600" y1="33.75" x2="645" y2="33.75" />
<text x="603.75" y="30" text-anchor="left"></text>
<line stroke="Black" stroke-width="1.875" x1="645" y1="33.75" x2="645" y2="33.75" />
</g>
<g>
<g transform="translate(690 7.5)">
<a href="./ValueSet-BiRadsAssessmentCategoriesVS.html" target="_top">
<rect fill="LightGreen" stroke="Black" stroke-width="1.875" x="0" y="0" width="99" height="52.5" rx="3.75" ry="3.75" />
</a>
<a href="./ValueSet-BiRadsAssessmentCategoriesVS.html" target="_top">
<text x="49.5" y="22.5" text-anchor="middle">BiRads</text>
</a>
<a href="./ValueSet-BiRadsAssessmentCategoriesVS.html" target="_top">
<text x="49.5" y="41.25" text-anchor="middle">ValueSet</text>
</a>
</g>
</g>
</svg>
