<?xml version="1.0"?>
<?xml-stylesheet type="text/css" href="FocusGraph.css" ?>
<!DOCTYPE svg PUBLIC "-//W3C//DTD SVG 1.1//EN" "http://www.w3.org/Graphics/SVG/1.1/DTD/svg11.dtd">
<svg xmlns="http://www.w3.org/2000/svg" version="1.1" width="1206.38" height="251.25">
<defs>
<marker id="arrowStart" markerWidth="3.75" markerHeight="3.75" markerUnits="px" refX="1.88" refY="1.88">
<circle class="connector" cx="1.88" cy="1.88" r="1.88" />
</marker>
<marker id="arrowEnd" markerWidth="7.5" markerHeight="7.5" markerUnits="px" refX="7.5" refY="3.75">
<polygon class="connector" points="0 0 7.5 3.75 0 7.5" />
</marker>
</defs>
<g>
<g transform="translate(7.5 7.5)">
<a href="StructureDefinition-FindingsLeftBreast.html" target="_top">
<rect class="profile" x="0" y="0" width="130.5" height="52.5" rx="3.75" ry="3.75" />
</a>
<a href="StructureDefinition-FindingsLeftBreast.html" target="_top">
<text x="65.25" y="22.5" text-anchor="middle" class="profile">Findings</text>
</a>
<a href="StructureDefinition-FindingsLeftBreast.html" target="_top">
<text x="65.25" y="41.25" text-anchor="middle" class="profile">Left Breast</text>
</a>
</g>
<g transform="translate(7.5 67.5)">
<a href="StructureDefinition-FindingsRightBreast.html" target="_top">
<rect class="profile" x="0" y="0" width="141" height="52.5" rx="3.75" ry="3.75" />
</a>
<a href="StructureDefinition-FindingsRightBreast.html" target="_top">
<text x="70.5" y="22.5" text-anchor="middle" class="profile">Findings</text>
</a>
<a href="StructureDefinition-FindingsRightBreast.html" target="_top">
<text x="70.5" y="41.25" text-anchor="middle" class="profile">Right Breast</text>
</a>
</g>
<line class="connector" marker-end="url(#arrowEnd)" x1="178.5" y1="24.38" x2="238.5" y2="24.38" />
<text x="182.25" y="20.62" text-anchor="right" class="lhsText">0..1</text>
<line class="connector" marker-start="url(#arrowStart)" x1="138" y1="33.75" x2="178.5" y2="33.75" />
<line class="connector" marker-start="url(#arrowStart)" x1="148.5" y1="93.75" x2="178.5" y2="93.75" />
<line class="connector" x1="178.5" y1="24.38" x2="178.5" y2="93.75" />
</g>
<g>
<g transform="translate(238.5 7.5)">
<a href="StructureDefinition-USFinding.html" target="_top">
<rect class="focus" x="0" y="0" width="214.5" height="33.75" rx="3.75" ry="3.75" />
</a>
<a href="StructureDefinition-USFinding.html" target="_top">
<text x="107.25" y="22.5" text-anchor="middle" class="focus">Ultrasound Findings</text>
</a>
</g>
<line class="connector" marker-end="url(#arrowEnd)" x1="483" y1="24.38" x2="543" y2="24.38" />
<text x="486.75" y="20.62" text-anchor="right" class="lhsText">1..1</text>
<line class="connector" marker-start="url(#arrowStart)" x1="453" y1="24.38" x2="483" y2="24.38" />
<line class="connector" x1="483" y1="24.38" x2="483" y2="24.38" />
</g>
<g>
<g transform="translate(543 7.5)">
<a href="StructureDefinition-USFinding-definitions.html#Observation.code" target="_top">
<rect class="element" x="0" y="0" width="57" height="33.75" rx="3.75" ry="3.75" />
</a>
<a href="StructureDefinition-USFinding-definitions.html#Observation.code" target="_top">
<text x="28.5" y="22.5" text-anchor="middle" class="element">Code</text>
</a>
</g>
<line class="connector" marker-end="url(#arrowEnd)" x1="630" y1="24.38" x2="750" y2="24.38" />
<text x="633.75" y="20.62" text-anchor="right" class="lhsText">pattern </text>
<line class="connector" marker-start="url(#arrowStart)" x1="600" y1="24.38" x2="630" y2="24.38" />
<line class="connector" x1="630" y1="24.38" x2="630" y2="24.38" />
</g>
<g>
<g transform="translate(750 7.5)">
<a href="http://hl7.org/fhir/us/breast-radiology/CodeSystem/ObservationCodesCS" target="_top">
<rect class="value" x="0" y="0" width="424.5" height="33.75" rx="3.75" ry="3.75" />
</a>
<a href="http://hl7.org/fhir/us/breast-radiology/CodeSystem/ObservationCodesCS" target="_top">
<text x="212.25" y="22.5" text-anchor="middle" class="value">ObservationCodesCS#usFindingObservation</text>
</a>
</g>
</g>
<g>
<g transform="translate(7.5 202.5)">
<rect class="focus" x="0" y="0" width="67.5" height="33.75" rx="3.75" ry="3.75" />
<text x="33.75" y="22.5" text-anchor="middle" class="focus">Focus</text>
</g>
<g transform="translate(82.5 202.5)">
<rect class="profile" x="0" y="0" width="193.5" height="33.75" rx="3.75" ry="3.75" />
<text x="96.75" y="22.5" text-anchor="middle" class="profile">Profiled Resource</text>
</g>
<g transform="translate(283.5 202.5)">
<rect class="element" x="0" y="0" width="183" height="33.75" rx="3.75" ry="3.75" />
<text x="91.5" y="22.5" text-anchor="middle" class="element">Resource Element</text>
</g>
<g transform="translate(474 202.5)">
<rect class="value" x="0" y="0" width="67.5" height="33.75" rx="3.75" ry="3.75" />
<text x="33.75" y="22.5" text-anchor="middle" class="value">Value</text>
</g>
</g>
</svg>
