<?xml version="1.0"?>
<!DOCTYPE svg PUBLIC "-//W3C//DTD SVG 1.1//EN" "http://www.w3.org/Graphics/SVG/1.1/DTD/svg11.dtd">
<svg xmlns="http://www.w3.org/2000/svg" version="1.1" width="631.5" height="180">
<defs>
<marker id="arrowStart" markerWidth="3.75" markerHeight="3.75" markerUnits="px" refX="1.875" refY="1.875">
<circle fill="Black" stroke-width="0" cx="1.875" cy="1.875" r="1.875" />
</marker>
<marker id="arrowEnd" markerWidth="7.5" markerHeight="7.5" markerUnits="px" refX="7.5" refY="3.75">
<polygon fill="Black" stroke-width="0" points="0 0 7.5 3.75 0 7.5" />
</marker>
</defs>
<g>
<g transform="translate(7.5 7.5)">
<a href="./StructureDefinition-AbnormalityCyst.html" target="_top">
<rect fill="LightCyan" stroke="Black" stroke-width="1.875" x="0" y="0" width="57" height="33.75" rx="3.75" ry="3.75" />
</a>
<a href="./StructureDefinition-AbnormalityCyst.html" target="_top">
<text x="28.5" y="22.5" text-anchor="middle">Cyst</text>
</a>
</g>
<g transform="translate(7.5 48.75)">
<a href="./StructureDefinition-AbnormalityFibroadenoma.html" target="_top">
<rect fill="LightCyan" stroke="Black" stroke-width="1.875" x="0" y="0" width="141" height="33.75" rx="3.75" ry="3.75" />
</a>
<a href="./StructureDefinition-AbnormalityFibroadenoma.html" target="_top">
<text x="70.5" y="22.5" text-anchor="middle">Fibroadenoma</text>
</a>
</g>
<g transform="translate(7.5 90)">
<a href="./StructureDefinition-Mass.html" target="_top">
<rect fill="LightCyan" stroke="Black" stroke-width="1.875" x="0" y="0" width="57" height="33.75" rx="3.75" ry="3.75" />
</a>
<a href="./StructureDefinition-Mass.html" target="_top">
<text x="28.5" y="22.5" text-anchor="middle">Mass</text>
</a>
</g>
<g transform="translate(7.5 131.25)">
<a href="./StructureDefinition-MGAbnormalityFatNecrosis.html" target="_top">
<rect fill="LightCyan" stroke="Black" stroke-width="1.875" x="0" y="0" width="172.5" height="33.75" rx="3.75" ry="3.75" />
</a>
<a href="./StructureDefinition-MGAbnormalityFatNecrosis.html" target="_top">
<text x="86.25" y="22.5" text-anchor="middle">MG Fat Necrosis</text>
</a>
</g>
<line stroke="Black" stroke-width="1.875" marker-end="url(#arrowEnd)" x1="210" y1="33.75" x2="240" y2="33.75" />
<line stroke="Black" stroke-width="1.875" marker-start="url(#arrowStart)" x1="64.5" y1="24.375" x2="210" y2="24.375" />
<line stroke="Black" stroke-width="1.875" marker-start="url(#arrowStart)" x1="148.5" y1="65.625" x2="210" y2="65.625" />
<line stroke="Black" stroke-width="1.875" marker-start="url(#arrowStart)" x1="64.5" y1="106.875" x2="210" y2="106.875" />
<line stroke="Black" stroke-width="1.875" marker-start="url(#arrowStart)" x1="180" y1="148.125" x2="210" y2="148.125" />
<line stroke="Black" stroke-width="1.875" x1="210" y1="24.375" x2="210" y2="148.125" />
</g>
<g>
<g transform="translate(240 7.5)">
<rect fill="White" stroke="Black" stroke-width="1.875" x="0" y="0" width="151.49998" height="52.5" rx="3.75" ry="3.75" />
<text x="75.74999" y="22.5" text-anchor="middle">Annotated</text>
<text x="75.74999" y="41.25" text-anchor="middle">Imaging Study</text>
</g>
<line stroke="Black" stroke-width="1.875" marker-end="url(#arrowEnd)" x1="421.49997" y1="43.125" x2="451.49997" y2="43.125" />
<line stroke="Black" stroke-width="1.875" marker-start="url(#arrowStart)" x1="391.49997" y1="33.75" x2="421.49997" y2="33.75" />
<line stroke="Black" stroke-width="1.875" x1="421.49997" y1="33.75" x2="421.49997" y2="43.125" />
</g>
<g>
<g transform="translate(451.49997 7.5)">
<a href="./StructureDefinition-AimAnnotationPolyLineExtension.html" target="_top">
<rect fill="LightBlue" stroke="Black" stroke-width="1.875" x="0" y="0" width="120" height="71.25" rx="3.75" ry="3.75" />
</a>
<a href="./StructureDefinition-AimAnnotationPolyLineExtension.html" target="_top">
<text x="60" y="22.5" text-anchor="middle">Annotation</text>
</a>
<a href="./StructureDefinition-AimAnnotationPolyLineExtension.html" target="_top">
<text x="60" y="41.25" text-anchor="middle">PolyLine</text>
</a>
<a href="./StructureDefinition-AimAnnotationPolyLineExtension.html" target="_top">
<text x="60" y="60" text-anchor="middle">Location</text>
</a>
</g>
</g>
</svg>
