<?xml version="1.0"?>
<!DOCTYPE svg PUBLIC "-//W3C//DTD SVG 1.1//EN" "http://www.w3.org/Graphics/SVG/1.1/DTD/svg11.dtd">
<svg xmlns="http://www.w3.org/2000/svg" version="1.1" width="558" height="228.75">
<defs>
<marker id="arrowStart" markerWidth="3.75" markerHeight="3.75" markerUnits="px" refX="1.875" refY="1.875">
<circle fill="Black" stroke-width="0" cx="1.875" cy="1.875" r="1.875" />
</marker>
<marker id="arrowEnd" markerWidth="7.5" markerHeight="7.5" markerUnits="px" refX="7.5" refY="3.75">
<polygon fill="Black" stroke-width="0" points="0 0 7.5 3.75 0 7.5" />
</marker>
</defs>
<g>
<g>
<rect fill="LightBlue" stroke="Black" stroke-width="1.875" x="7.5" y="7.5" width="99" height="33.75" rx="3.75" ry="3.75" />
<a href="./StructureDefinition-BreastRadSectionFindings.html" target="_blank">
<title>'BreastRadSectionFindings'</title>
<text x="15" y="30">Findings</text>
</a>
</g>
<line stroke="Black" stroke-width="1.875" marker-end="url(#arrowEnd)" x1="136.5" y1="24.375" x2="166.5" y2="24.375" />
<line stroke="Black" stroke-width="1.875" marker-start="url(#arrowStart)" x1="106.5" y1="24.375" x2="136.5" y2="24.375" />
<line stroke="Black" stroke-width="1.875" x1="136.5" y1="24.375" x2="136.5" y2="24.375" />
</g>
<g>
<g>
<rect fill="LightGreen" stroke="Black" stroke-width="1.875" x="166.5" y="7.5" width="141" height="33.75" rx="3.75" ry="3.75" />
<text x="174" y="30">Right Breast</text>
</g>
<line stroke="Black" stroke-width="1.875" marker-end="url(#arrowEnd)" x1="337.5" y1="24.375" x2="367.5" y2="24.375" />
<line stroke="Black" stroke-width="1.875" marker-end="url(#arrowEnd)" x1="337.5" y1="65.625" x2="367.5" y2="65.625" />
<line stroke="Black" stroke-width="1.875" marker-end="url(#arrowEnd)" x1="337.5" y1="106.875" x2="367.5" y2="106.875" />
<line stroke="Black" stroke-width="1.875" marker-end="url(#arrowEnd)" x1="337.5" y1="148.125" x2="367.5" y2="148.125" />
<line stroke="Black" stroke-width="1.875" marker-end="url(#arrowEnd)" x1="337.5" y1="189.375" x2="367.5" y2="189.375" />
<line stroke="Black" stroke-width="1.875" marker-start="url(#arrowStart)" x1="307.5" y1="24.375" x2="337.5" y2="24.375" />
<line stroke="Black" stroke-width="1.875" x1="337.5" y1="24.375" x2="337.5" y2="189.375" />
</g>
<g>
<g>
<rect fill="LightSalmon" stroke="Black" stroke-width="1.875" x="367.5" y="7.5" width="130.5" height="33.75" rx="3.75" ry="3.75" />
<a href="./StructureDefinition-BiRadsAssessmentCategory.html" target="_blank">
<title>'BiRadsAssessmentCategory'</title>
<text x="375" y="30">BiRads Code</text>
</a>
</g>
<g>
<rect fill="LightSalmon" stroke="Black" stroke-width="1.875" x="367.5" y="48.75" width="120" height="33.75" rx="3.75" ry="3.75" />
<a href="./StructureDefinition-BreastRadMammoFinding.html" target="_blank">
<title>'BreastRadMammoFinding'</title>
<text x="375" y="71.25">Mg Finding</text>
</a>
</g>
<g>
<rect fill="LightSalmon" stroke="Black" stroke-width="1.875" x="367.5" y="90" width="130.5" height="33.75" rx="3.75" ry="3.75" />
<a href="./StructureDefinition-BreastRadMRIFinding.html" target="_blank">
<title>'BreastRadMRIFinding'</title>
<text x="375" y="112.5">MRI Finding</text>
</a>
</g>
<g>
<rect fill="LightSalmon" stroke="Black" stroke-width="1.875" x="367.5" y="131.25" width="120" height="33.75" rx="3.75" ry="3.75" />
<a href="./StructureDefinition-BreastRadNMFinding.html" target="_blank">
<title>'BreastRadNMFinding'</title>
<text x="375" y="153.75">NM Finding</text>
</a>
</g>
<g>
<rect fill="LightSalmon" stroke="Black" stroke-width="1.875" x="367.5" y="172.5" width="120" height="33.75" rx="3.75" ry="3.75" />
<a href="./StructureDefinition-BreastRadUltraSoundFinding.html" target="_blank">
<title>'BreastRadUltraSoundFinding'</title>
<text x="375" y="195">US Finding</text>
</a>
</g>
</g>
</svg>
