<?xml version="1.0"?>
<?xml-stylesheet type="text/css" href="FocusGraph.css" ?>
<!DOCTYPE svg PUBLIC "-//W3C//DTD SVG 1.1//EN" "http://www.w3.org/Graphics/SVG/1.1/DTD/svg11.dtd">
<svg xmlns="http://www.w3.org/2000/svg" version="1.1" width="1377.38" height="768.75">
<defs>
<marker id="arrowStart" markerWidth="3.75" markerHeight="3.75" markerUnits="px" refX="1.88" refY="1.88">
<circle class="connector" cx="1.88" cy="1.88" r="1.88" />
</marker>
<marker id="arrowEnd" markerWidth="7.5" markerHeight="7.5" markerUnits="px" refX="7.5" refY="3.75">
<polygon class="connector" points="0 0 7.5 3.75 0 7.5" />
</marker>
</defs>
<g>
<g transform="translate(7.5 7.5)">
<a href="StructureDefinition-MGFinding.html" target="_top">
<rect class="profile" x="0" y="0" width="130.5" height="33.75" rx="3.75" ry="3.75" />
</a>
<a href="StructureDefinition-MGFinding.html" target="_top">
<text x="65.25" y="22.5" text-anchor="middle" class="profile">Mg Findings</text>
</a>
</g>
<line class="connector" marker-end="url(#arrowEnd)" x1="168" y1="24.38" x2="228" y2="24.38" />
<text x="171.75" y="20.62" text-anchor="right" class="lhsText">0..*</text>
<line class="connector" marker-start="url(#arrowStart)" x1="138" y1="24.38" x2="168" y2="24.38" />
<line class="connector" x1="168" y1="24.38" x2="168" y2="24.38" />
</g>
<g>
<g transform="translate(228 7.5)">
<a href="StructureDefinition-AbnormalityFibroadenoma.html" target="_top">
<rect class="focus" x="0" y="0" width="141" height="33.75" rx="3.75" ry="3.75" />
</a>
<a href="StructureDefinition-AbnormalityFibroadenoma.html" target="_top">
<text x="70.5" y="22.5" text-anchor="middle" class="focus">Fibroadenoma</text>
</a>
</g>
<line class="connector" marker-end="url(#arrowEnd)" x1="399" y1="24.38" x2="459" y2="24.38" />
<text x="402.75" y="20.62" text-anchor="right" class="lhsText">1..1</text>
<line class="connector" marker-end="url(#arrowEnd)" x1="399" y1="65.62" x2="459" y2="65.62" />
<text x="402.75" y="61.88" text-anchor="right" class="lhsText">1..1</text>
<line class="connector" marker-end="url(#arrowEnd)" x1="399" y1="106.88" x2="459" y2="106.88" />
<text x="402.75" y="103.12" text-anchor="right" class="lhsText">0..*</text>
<line class="connector" marker-end="url(#arrowEnd)" x1="399" y1="620.62" x2="459" y2="620.62" />
<text x="402.75" y="616.88" text-anchor="right" class="lhsText">0..*</text>
<line class="connector" marker-start="url(#arrowStart)" x1="369" y1="24.38" x2="399" y2="24.38" />
<line class="connector" x1="399" y1="24.38" x2="399" y2="620.62" />
</g>
<g>
<g transform="translate(459 7.5)">
<a href="StructureDefinition-AbnormalityFibroadenoma-definitions.html#Observation.code" target="_top">
<rect class="element" x="0" y="0" width="57" height="33.75" rx="3.75" ry="3.75" />
</a>
<a href="StructureDefinition-AbnormalityFibroadenoma-definitions.html#Observation.code" target="_top">
<text x="28.5" y="22.5" text-anchor="middle" class="element">Code</text>
</a>
</g>
<line class="connector" marker-end="url(#arrowEnd)" x1="546" y1="24.38" x2="666" y2="24.38" />
<text x="549.75" y="20.62" text-anchor="right" class="lhsText">pattern </text>
<line class="connector" marker-start="url(#arrowStart)" x1="516" y1="24.38" x2="546" y2="24.38" />
<line class="connector" x1="546" y1="24.38" x2="546" y2="24.38" />
</g>
<g>
<g transform="translate(666 7.5)">
<a href="http://hl7.org/fhir/us/breast-radiology/CodeSystem/ObservationCodesCS" target="_top">
<rect class="value" x="0" y="0" width="571.5" height="33.75" rx="3.75" ry="3.75" />
</a>
<a href="http://hl7.org/fhir/us/breast-radiology/CodeSystem/ObservationCodesCS" target="_top">
<text x="285.75" y="22.5" text-anchor="middle" class="value">ObservationCodesCS#abnormalityFibroadenomaObservation</text>
</a>
</g>
</g>
<g>
<g transform="translate(459 48.75)">
<a href="StructureDefinition-AbnormalityFibroadenoma-definitions.html#Observation.bodySite" target="_top">
<rect class="element" x="0" y="0" width="99" height="33.75" rx="3.75" ry="3.75" />
</a>
<a href="StructureDefinition-AbnormalityFibroadenoma-definitions.html#Observation.bodySite" target="_top">
<text x="49.5" y="22.5" text-anchor="middle" class="element">BodySite</text>
</a>
</g>
<line class="connector" marker-end="url(#arrowEnd)" x1="588" y1="65.62" x2="648" y2="65.62" />
<text x="591.75" y="61.88" text-anchor="right" class="lhsText">1..*</text>
<line class="connector" marker-start="url(#arrowStart)" x1="558" y1="65.62" x2="588" y2="65.62" />
<line class="connector" x1="588" y1="65.62" x2="588" y2="65.62" />
</g>
<g>
<g transform="translate(648 48.75)">
<a href="StructureDefinition-AbnormalityFibroadenoma-definitions.html#Observation.bodySite.extension" target="_top">
<rect class="element" x="0" y="0" width="109.5" height="33.75" rx="3.75" ry="3.75" />
</a>
<a href="StructureDefinition-AbnormalityFibroadenoma-definitions.html#Observation.bodySite.extension" target="_top">
<text x="54.75" y="22.5" text-anchor="middle" class="element">extension</text>
</a>
</g>
<line class="connector" marker-end="url(#arrowEnd)" x1="787.5" y1="65.62" x2="817.5" y2="65.62" />
<line class="connector" marker-start="url(#arrowStart)" x1="757.5" y1="65.62" x2="787.5" y2="65.62" />
<line class="connector" x1="787.5" y1="65.62" x2="787.5" y2="65.62" />
</g>
<g>
<g transform="translate(817.5 48.75)">
<a href="StructureDefinition-BreastBodyLocationExtension.html" target="_top">
<rect class="extension" x="0" y="0" width="204" height="33.75" rx="3.75" ry="3.75" />
</a>
<a href="StructureDefinition-BreastBodyLocationExtension.html" target="_top">
<text x="102" y="22.5" text-anchor="middle" class="extension">BreastBodyLocation</text>
</a>
</g>
</g>
<g>
<g transform="translate(459 90)">
<a href="StructureDefinition-AbnormalityFibroadenoma-definitions.html#Observation.component" target="_top">
<rect class="element" x="0" y="0" width="120" height="33.75" rx="3.75" ry="3.75" />
</a>
<a href="StructureDefinition-AbnormalityFibroadenoma-definitions.html#Observation.component" target="_top">
<text x="60" y="22.5" text-anchor="middle" class="element">Components</text>
</a>
</g>
<line class="connector" marker-end="url(#arrowEnd)" x1="609" y1="106.88" x2="669" y2="106.88" />
<text x="612.75" y="103.12" text-anchor="right" class="lhsText">0..1</text>
<line class="connector" marker-end="url(#arrowEnd)" x1="609" y1="148.12" x2="669" y2="148.12" />
<text x="612.75" y="144.38" text-anchor="right" class="lhsText">0..1</text>
<line class="connector" marker-end="url(#arrowEnd)" x1="609" y1="189.38" x2="669" y2="189.38" />
<text x="612.75" y="185.62" text-anchor="right" class="lhsText">0..1</text>
<line class="connector" marker-end="url(#arrowEnd)" x1="609" y1="230.62" x2="669" y2="230.62" />
<text x="612.75" y="226.88" text-anchor="right" class="lhsText">0..1</text>
<line class="connector" marker-end="url(#arrowEnd)" x1="609" y1="271.88" x2="669" y2="271.88" />
<text x="612.75" y="268.12" text-anchor="right" class="lhsText">0..*</text>
<line class="connector" marker-end="url(#arrowEnd)" x1="609" y1="313.12" x2="669" y2="313.12" />
<text x="612.75" y="309.38" text-anchor="right" class="lhsText">0..1</text>
<line class="connector" marker-end="url(#arrowEnd)" x1="609" y1="354.38" x2="669" y2="354.38" />
<text x="612.75" y="350.62" text-anchor="right" class="lhsText">0..*</text>
<line class="connector" marker-end="url(#arrowEnd)" x1="609" y1="395.62" x2="669" y2="395.62" />
<text x="612.75" y="391.88" text-anchor="right" class="lhsText">0..1</text>
<line class="connector" marker-end="url(#arrowEnd)" x1="609" y1="436.88" x2="669" y2="436.88" />
<text x="612.75" y="433.12" text-anchor="right" class="lhsText">0..3</text>
<line class="connector" marker-end="url(#arrowEnd)" x1="609" y1="478.12" x2="669" y2="478.12" />
<text x="612.75" y="474.38" text-anchor="right" class="lhsText">0..1</text>
<line class="connector" marker-end="url(#arrowEnd)" x1="609" y1="528.75" x2="669" y2="528.75" />
<text x="612.75" y="525" text-anchor="right" class="lhsText">0..*</text>
<line class="connector" marker-end="url(#arrowEnd)" x1="609" y1="579.38" x2="669" y2="579.38" />
<text x="612.75" y="575.62" text-anchor="right" class="lhsText">0..1</text>
<line class="connector" marker-start="url(#arrowStart)" x1="579" y1="106.88" x2="609" y2="106.88" />
<line class="connector" x1="609" y1="106.88" x2="609" y2="579.38" />
</g>
<g>
<g transform="translate(669 90)">
<a href="StructureDefinition-AbnormalityFibroadenoma-definitions.html#Observation.component:biRadsAssessmentCategory" target="_top">
<rect class="element" x="0" y="0" width="130.5" height="33.75" rx="3.75" ry="3.75" />
</a>
<a href="StructureDefinition-AbnormalityFibroadenoma-definitions.html#Observation.component:biRadsAssessmentCategory" target="_top">
<text x="65.25" y="22.5" text-anchor="middle" class="element">BiRads Code</text>
</a>
</g>
<line class="connector" marker-end="url(#arrowEnd)" x1="829.5" y1="106.88" x2="889.5" y2="106.88" />
<text x="833.25" y="103.12" text-anchor="right" class="lhsText">bind</text>
<line class="connector" marker-start="url(#arrowStart)" x1="799.5" y1="106.88" x2="829.5" y2="106.88" />
<line class="connector" x1="829.5" y1="106.88" x2="829.5" y2="106.88" />
</g>
<g>
<g transform="translate(889.5 90)">
<a href="ValueSet-BiRadsAssessmentCategoryVS.html" target="_top">
<rect class="valueSet" x="0" y="0" width="288" height="33.75" rx="3.75" ry="3.75" />
</a>
<a href="ValueSet-BiRadsAssessmentCategoryVS.html" target="_top">
<text x="144" y="22.5" text-anchor="middle" class="valueSet">BiRadsAssessmentCategoryVS</text>
</a>
</g>
</g>
<g>
<g transform="translate(669 131.25)">
<a href="StructureDefinition-AbnormalityFibroadenoma-definitions.html#Observation.component:mgBreastDensity" target="_top">
<rect class="element" x="0" y="0" width="88.5" height="33.75" rx="3.75" ry="3.75" />
</a>
<a href="StructureDefinition-AbnormalityFibroadenoma-definitions.html#Observation.component:mgBreastDensity" target="_top">
<text x="44.25" y="22.5" text-anchor="middle" class="element">Density</text>
</a>
</g>
<line class="connector" marker-end="url(#arrowEnd)" x1="787.5" y1="148.12" x2="847.5" y2="148.12" />
<text x="791.25" y="144.38" text-anchor="right" class="lhsText">bind</text>
<line class="connector" marker-start="url(#arrowStart)" x1="757.5" y1="148.12" x2="787.5" y2="148.12" />
<line class="connector" x1="787.5" y1="148.12" x2="787.5" y2="148.12" />
</g>
<g>
<g transform="translate(847.5 131.25)">
<a href="ValueSet-MGBreastDensityVS.html" target="_top">
<rect class="valueSet" x="0" y="0" width="193.5" height="33.75" rx="3.75" ry="3.75" />
</a>
<a href="ValueSet-MGBreastDensityVS.html" target="_top">
<text x="96.75" y="22.5" text-anchor="middle" class="valueSet">MGBreastDensityVS</text>
</a>
</g>
</g>
<g>
<g transform="translate(669 172.5)">
<a href="StructureDefinition-AbnormalityFibroadenoma-definitions.html#Observation.component:fibroAdenomaType" target="_top">
<rect class="element" x="0" y="0" width="267" height="33.75" rx="3.75" ry="3.75" />
</a>
<a href="StructureDefinition-AbnormalityFibroadenoma-definitions.html#Observation.component:fibroAdenomaType" target="_top">
<text x="133.5" y="22.5" text-anchor="middle" class="element">Fibroadenoma Abnormality</text>
</a>
</g>
<line class="connector" marker-end="url(#arrowEnd)" x1="966" y1="189.38" x2="1026" y2="189.38" />
<text x="969.75" y="185.62" text-anchor="right" class="lhsText">bind</text>
<line class="connector" marker-start="url(#arrowStart)" x1="936" y1="189.38" x2="966" y2="189.38" />
<line class="connector" x1="966" y1="189.38" x2="966" y2="189.38" />
</g>
<g>
<g transform="translate(1026 172.5)">
<a href="ValueSet-AbnormalityFibroAdenomaTypeVS.html" target="_top">
<rect class="valueSet" x="0" y="0" width="319.5" height="33.75" rx="3.75" ry="3.75" />
</a>
<a href="ValueSet-AbnormalityFibroAdenomaTypeVS.html" target="_top">
<text x="159.75" y="22.5" text-anchor="middle" class="valueSet">AbnormalityFibroAdenomaTypeVS</text>
</a>
</g>
</g>
<g>
<g transform="translate(669 213.75)">
<a href="StructureDefinition-AbnormalityFibroadenoma-definitions.html#Observation.component:margin" target="_top">
<rect class="element" x="0" y="0" width="78" height="33.75" rx="3.75" ry="3.75" />
</a>
<a href="StructureDefinition-AbnormalityFibroadenoma-definitions.html#Observation.component:margin" target="_top">
<text x="39" y="22.5" text-anchor="middle" class="element">Margin</text>
</a>
</g>
<line class="connector" marker-end="url(#arrowEnd)" x1="777" y1="230.62" x2="837" y2="230.62" />
<text x="780.75" y="226.88" text-anchor="right" class="lhsText">bind</text>
<line class="connector" marker-start="url(#arrowStart)" x1="747" y1="230.62" x2="777" y2="230.62" />
<line class="connector" x1="777" y1="230.62" x2="777" y2="230.62" />
</g>
<g>
<g transform="translate(837 213.75)">
<a href="ValueSet-MarginVS.html" target="_top">
<rect class="valueSet" x="0" y="0" width="99" height="33.75" rx="3.75" ry="3.75" />
</a>
<a href="ValueSet-MarginVS.html" target="_top">
<text x="49.5" y="22.5" text-anchor="middle" class="valueSet">MarginVS</text>
</a>
</g>
</g>
<g>
<g transform="translate(669 255)">
<a href="StructureDefinition-AbnormalityFibroadenoma-definitions.html#Observation.component:obsChanges" target="_top">
<rect class="element" x="0" y="0" width="183" height="33.75" rx="3.75" ry="3.75" />
</a>
<a href="StructureDefinition-AbnormalityFibroadenoma-definitions.html#Observation.component:obsChanges" target="_top">
<text x="91.5" y="22.5" text-anchor="middle" class="element">Observed Changes</text>
</a>
</g>
<line class="connector" marker-end="url(#arrowEnd)" x1="882" y1="271.88" x2="942" y2="271.88" />
<text x="885.75" y="268.12" text-anchor="right" class="lhsText">bind</text>
<line class="connector" marker-start="url(#arrowStart)" x1="852" y1="271.88" x2="882" y2="271.88" />
<line class="connector" x1="882" y1="271.88" x2="882" y2="271.88" />
</g>
<g>
<g transform="translate(942 255)">
<a href="ValueSet-ObservedChangesVS.html" target="_top">
<rect class="valueSet" x="0" y="0" width="193.5" height="33.75" rx="3.75" ry="3.75" />
</a>
<a href="ValueSet-ObservedChangesVS.html" target="_top">
<text x="96.75" y="22.5" text-anchor="middle" class="valueSet">ObservedChangesVS</text>
</a>
</g>
</g>
<g>
<g transform="translate(669 296.25)">
<a href="StructureDefinition-AbnormalityFibroadenoma-definitions.html#Observation.component:observedCount" target="_top">
<rect class="element" x="0" y="0" width="162" height="33.75" rx="3.75" ry="3.75" />
</a>
<a href="StructureDefinition-AbnormalityFibroadenoma-definitions.html#Observation.component:observedCount" target="_top">
<text x="81" y="22.5" text-anchor="middle" class="element">Observed Count</text>
</a>
</g>
</g>
<g>
<g transform="translate(669 337.5)">
<a href="StructureDefinition-AbnormalityFibroadenoma-definitions.html#Observation.component:obsDistribution" target="_top">
<rect class="element" x="0" y="0" width="235.5" height="33.75" rx="3.75" ry="3.75" />
</a>
<a href="StructureDefinition-AbnormalityFibroadenoma-definitions.html#Observation.component:obsDistribution" target="_top">
<text x="117.75" y="22.5" text-anchor="middle" class="element">Observed Distribution</text>
</a>
</g>
<line class="connector" marker-end="url(#arrowEnd)" x1="934.5" y1="354.38" x2="994.5" y2="354.38" />
<text x="938.25" y="350.62" text-anchor="right" class="lhsText">bind</text>
<line class="connector" marker-start="url(#arrowStart)" x1="904.5" y1="354.38" x2="934.5" y2="354.38" />
<line class="connector" x1="934.5" y1="354.38" x2="934.5" y2="354.38" />
</g>
<g>
<g transform="translate(994.5 337.5)">
<a href="ValueSet-CalcificationDistributionVS.html" target="_top">
<rect class="valueSet" x="0" y="0" width="298.5" height="33.75" rx="3.75" ry="3.75" />
</a>
<a href="ValueSet-CalcificationDistributionVS.html" target="_top">
<text x="149.25" y="22.5" text-anchor="middle" class="valueSet">CalcificationDistributionVS</text>
</a>
</g>
</g>
<g>
<g transform="translate(669 378.75)">
<a href="StructureDefinition-AbnormalityFibroadenoma-definitions.html#Observation.component:obsDistRegionSize" target="_top">
<rect class="element" x="0" y="0" width="361.5" height="33.75" rx="3.75" ry="3.75" />
</a>
<a href="StructureDefinition-AbnormalityFibroadenoma-definitions.html#Observation.component:obsDistRegionSize" target="_top">
<text x="180.75" y="22.5" text-anchor="middle" class="element">Observed Distribution Region Size</text>
</a>
</g>
</g>
<g>
<g transform="translate(669 420)">
<a href="StructureDefinition-AbnormalityFibroadenoma-definitions.html#Observation.component:obsSize" target="_top">
<rect class="element" x="0" y="0" width="151.5" height="33.75" rx="3.75" ry="3.75" />
</a>
<a href="StructureDefinition-AbnormalityFibroadenoma-definitions.html#Observation.component:obsSize" target="_top">
<text x="75.75" y="22.5" text-anchor="middle" class="element">Observed Size</text>
</a>
</g>
</g>
<g>
<g transform="translate(669 461.25)">
<a href="StructureDefinition-AbnormalityFibroadenoma-definitions.html#Observation.component:orientation" target="_top">
<rect class="element" x="0" y="0" width="130.5" height="33.75" rx="3.75" ry="3.75" />
</a>
<a href="StructureDefinition-AbnormalityFibroadenoma-definitions.html#Observation.component:orientation" target="_top">
<text x="65.25" y="22.5" text-anchor="middle" class="element">Orientation</text>
</a>
</g>
<line class="connector" marker-end="url(#arrowEnd)" x1="829.5" y1="478.12" x2="889.5" y2="478.12" />
<text x="833.25" y="474.38" text-anchor="right" class="lhsText">bind</text>
<line class="connector" marker-start="url(#arrowStart)" x1="799.5" y1="478.12" x2="829.5" y2="478.12" />
<line class="connector" x1="829.5" y1="478.12" x2="829.5" y2="478.12" />
</g>
<g>
<g transform="translate(889.5 461.25)">
<a href="ValueSet-OrientationVS.html" target="_top">
<rect class="valueSet" x="0" y="0" width="151.5" height="33.75" rx="3.75" ry="3.75" />
</a>
<a href="ValueSet-OrientationVS.html" target="_top">
<text x="75.75" y="22.5" text-anchor="middle" class="valueSet">OrientationVS</text>
</a>
</g>
</g>
<g>
<g transform="translate(669 502.5)">
<a href="StructureDefinition-AbnormalityFibroadenoma-definitions.html#Observation.component:prevDemBy" target="_top">
<rect class="element" x="0" y="0" width="256.5" height="52.5" rx="3.75" ry="3.75" />
</a>
<a href="StructureDefinition-AbnormalityFibroadenoma-definitions.html#Observation.component:prevDemBy" target="_top">
<text x="128.25" y="22.5" text-anchor="middle" class="element">Previously</text>
</a>
<a href="StructureDefinition-AbnormalityFibroadenoma-definitions.html#Observation.component:prevDemBy" target="_top">
<text x="128.25" y="41.25" text-anchor="middle" class="element">Demonstrated by Changes</text>
</a>
</g>
<line class="connector" marker-end="url(#arrowEnd)" x1="955.5" y1="519.38" x2="1015.5" y2="519.38" />
<text x="959.25" y="515.62" text-anchor="right" class="lhsText">bind</text>
<line class="connector" marker-start="url(#arrowStart)" x1="925.5" y1="528.75" x2="955.5" y2="528.75" />
<line class="connector" x1="955.5" y1="519.38" x2="955.5" y2="528.75" />
</g>
<g>
<g transform="translate(1015.5 502.5)">
<a href="ValueSet-PreviouslyDemonstratedByVS.html" target="_top">
<rect class="valueSet" x="0" y="0" width="288" height="33.75" rx="3.75" ry="3.75" />
</a>
<a href="ValueSet-PreviouslyDemonstratedByVS.html" target="_top">
<text x="144" y="22.5" text-anchor="middle" class="valueSet">PreviouslyDemonstratedByVS</text>
</a>
</g>
</g>
<g>
<g transform="translate(669 562.5)">
<a href="StructureDefinition-AbnormalityFibroadenoma-definitions.html#Observation.component:shape" target="_top">
<rect class="element" x="0" y="0" width="67.5" height="33.75" rx="3.75" ry="3.75" />
</a>
<a href="StructureDefinition-AbnormalityFibroadenoma-definitions.html#Observation.component:shape" target="_top">
<text x="33.75" y="22.5" text-anchor="middle" class="element">Shape</text>
</a>
</g>
<line class="connector" marker-end="url(#arrowEnd)" x1="766.5" y1="579.38" x2="826.5" y2="579.38" />
<text x="770.25" y="575.62" text-anchor="right" class="lhsText">bind</text>
<line class="connector" marker-start="url(#arrowStart)" x1="736.5" y1="579.38" x2="766.5" y2="579.38" />
<line class="connector" x1="766.5" y1="579.38" x2="766.5" y2="579.38" />
</g>
<g>
<g transform="translate(826.5 562.5)">
<a href="ValueSet-ShapeVS.html" target="_top">
<rect class="valueSet" x="0" y="0" width="88.5" height="33.75" rx="3.75" ry="3.75" />
</a>
<a href="ValueSet-ShapeVS.html" target="_top">
<text x="44.25" y="22.5" text-anchor="middle" class="valueSet">ShapeVS</text>
</a>
</g>
</g>
<g>
<g transform="translate(459 603.75)">
<a href="StructureDefinition-AbnormalityFibroadenoma-definitions.html#Observation.hasMember" target="_top">
<rect class="element" x="0" y="0" width="109.5" height="33.75" rx="3.75" ry="3.75" />
</a>
<a href="StructureDefinition-AbnormalityFibroadenoma-definitions.html#Observation.hasMember" target="_top">
<text x="54.75" y="22.5" text-anchor="middle" class="element">HasMember</text>
</a>
</g>
<line class="connector" marker-end="url(#arrowEnd)" x1="598.5" y1="620.62" x2="658.5" y2="620.62" />
<text x="602.25" y="616.88" text-anchor="right" class="lhsText">0..*</text>
<line class="connector" marker-start="url(#arrowStart)" x1="568.5" y1="620.62" x2="598.5" y2="620.62" />
<line class="connector" x1="598.5" y1="620.62" x2="598.5" y2="620.62" />
</g>
<g>
<g transform="translate(658.5 603.75)">
<a href="StructureDefinition-AssociatedFeature.html" target="_top">
<rect class="profile" x="0" y="0" width="204" height="33.75" rx="3.75" ry="3.75" />
</a>
<a href="StructureDefinition-AssociatedFeature.html" target="_top">
<text x="102" y="22.5" text-anchor="middle" class="profile">Associated Feature</text>
</a>
</g>
</g>
<g>
<g transform="translate(7.5 720)">
<rect class="focus" x="0" y="0" width="67.5" height="33.75" rx="3.75" ry="3.75" />
<text x="33.75" y="22.5" text-anchor="middle" class="focus">Focus</text>
</g>
<g transform="translate(82.5 720)">
<rect class="profile" x="0" y="0" width="193.5" height="33.75" rx="3.75" ry="3.75" />
<text x="96.75" y="22.5" text-anchor="middle" class="profile">Profiled Resource</text>
</g>
<g transform="translate(283.5 720)">
<rect class="extension" x="0" y="0" width="109.5" height="33.75" rx="3.75" ry="3.75" />
<text x="54.75" y="22.5" text-anchor="middle" class="extension">Extension</text>
</g>
<g transform="translate(400.5 720)">
<rect class="element" x="0" y="0" width="183" height="33.75" rx="3.75" ry="3.75" />
<text x="91.5" y="22.5" text-anchor="middle" class="element">Resource Element</text>
</g>
<g transform="translate(591 720)">
<rect class="valueSet" x="0" y="0" width="99" height="33.75" rx="3.75" ry="3.75" />
<text x="49.5" y="22.5" text-anchor="middle" class="valueSet">ValueSet</text>
</g>
<g transform="translate(697.5 720)">
<rect class="value" x="0" y="0" width="67.5" height="33.75" rx="3.75" ry="3.75" />
<text x="33.75" y="22.5" text-anchor="middle" class="value">Value</text>
</g>
</g>
</svg>
