<?xml version="1.0"?>
<?xml-stylesheet type="text/css" href="FocusGraph.css" ?>
<!DOCTYPE svg PUBLIC "-//W3C//DTD SVG 1.1//EN" "http://www.w3.org/Graphics/SVG/1.1/DTD/svg11.dtd">
<svg xmlns="http://www.w3.org/2000/svg" version="1.1" width="849.72" height="555">
<defs>
<marker id="arrowStart" markerWidth="3.75" markerHeight="3.75" markerUnits="px" refX="1.88" refY="1.88">
<circle class="connector" cx="1.88" cy="1.88" r="1.88" />
</marker>
<marker id="arrowEnd" markerWidth="7.5" markerHeight="7.5" markerUnits="px" refX="7.5" refY="3.75">
<polygon class="connector" points="0 0 7.5 3.75 0 7.5" />
</marker>
</defs>
<g>
<g transform="translate(3.75 3.75)">
<a href="StructureDefinition-BreastImagingDocument.html" target="_top">
<rect class="focus" x="0" y="0" width="87.93" height="63.75" rx="3.75" ry="3.75" />
</a>
<a href="StructureDefinition-BreastImagingDocument.html" target="_top">
<text x="5.62" y="18.75" text-anchor="left" class="focus">Breast</text>
</a>
<a href="StructureDefinition-BreastImagingDocument.html" target="_top">
<text x="5.62" y="37.5" text-anchor="left" class="focus">Imaging</text>
</a>
<a href="StructureDefinition-BreastImagingDocument.html" target="_top">
<text x="5.62" y="56.25" text-anchor="left" class="focus">Document</text>
</a>
</g>
<line class="connector" marker-end="url(#arrowEnd)" x1="121.68" y1="35.62" x2="181.68" y2="35.62" />
<text x="125.43" y="31.88" text-anchor="right" class="lhsText">1..1</text>
<line class="connector" marker-start="url(#arrowStart)" x1="91.68" y1="35.62" x2="121.68" y2="35.62" />
<line class="connector" x1="121.68" y1="35.62" x2="121.68" y2="35.62" />
</g>
<g>
<g transform="translate(181.68 3.75)">
<a href="StructureDefinition-BreastImagingComposition.html" target="_top">
<rect class="profile" x="0" y="0" width="104.43" height="63.75" rx="3.75" ry="3.75" />
</a>
<a href="StructureDefinition-BreastImagingComposition.html" target="_top">
<text x="5.62" y="18.75" text-anchor="left" class="profile">Breast</text>
</a>
<a href="StructureDefinition-BreastImagingComposition.html" target="_top">
<text x="5.62" y="37.5" text-anchor="left" class="profile">Imaging</text>
</a>
<a href="StructureDefinition-BreastImagingComposition.html" target="_top">
<text x="5.62" y="56.25" text-anchor="left" class="profile">Composition</text>
</a>
</g>
<line class="connector" marker-end="url(#arrowEnd)" x1="316.11" y1="16.88" x2="376.11" y2="16.88" />
<text x="319.86" y="13.12" text-anchor="right" class="lhsText">1..1</text>
<line class="connector" marker-end="url(#arrowEnd)" x1="316.11" y1="50.62" x2="376.11" y2="50.62" />
<text x="319.86" y="46.88" text-anchor="right" class="lhsText">0..1</text>
<line class="connector" marker-end="url(#arrowEnd)" x1="316.11" y1="103.12" x2="376.11" y2="103.12" />
<text x="319.86" y="99.38" text-anchor="right" class="lhsText">0..1</text>
<line class="connector" marker-end="url(#arrowEnd)" x1="316.11" y1="174.38" x2="376.11" y2="174.38" />
<text x="319.86" y="170.62" text-anchor="right" class="lhsText">0..1</text>
<line class="connector" marker-end="url(#arrowEnd)" x1="316.11" y1="245.62" x2="376.11" y2="245.62" />
<text x="319.86" y="241.88" text-anchor="right" class="lhsText">0..1</text>
<line class="connector" marker-end="url(#arrowEnd)" x1="316.11" y1="307.5" x2="376.11" y2="307.5" />
<text x="319.86" y="303.75" text-anchor="right" class="lhsText">0..1</text>
<line class="connector" marker-end="url(#arrowEnd)" x1="316.11" y1="408.75" x2="376.11" y2="408.75" />
<text x="319.86" y="405" text-anchor="right" class="lhsText">0..1</text>
<line class="connector" marker-start="url(#arrowStart)" x1="286.11" y1="35.62" x2="316.11" y2="35.62" />
<line class="connector" x1="316.11" y1="16.88" x2="316.11" y2="408.75" />
</g>
<g>
<g transform="translate(376.11 3.75)">
<a href="StructureDefinition-BreastImagingComposition-definitions.html#Composition.section:report" target="_top">
<rect class="element" x="0" y="0" width="121.83" height="26.25" rx="3.75" ry="3.75" />
</a>
<a href="StructureDefinition-BreastImagingComposition-definitions.html#Composition.section:report" target="_top">
<text x="5.62" y="18.75" text-anchor="left" class="element">Report Section</text>
</a>
</g>
<line class="connector" marker-end="url(#arrowEnd)" x1="527.95" y1="16.88" x2="587.95" y2="16.88" />
<text x="531.7" y="13.12" text-anchor="right" class="lhsText">1..1</text>
<line class="connector" marker-start="url(#arrowStart)" x1="497.95" y1="16.88" x2="527.95" y2="16.88" />
<line class="connector" x1="527.95" y1="16.88" x2="527.95" y2="16.88" />
</g>
<g>
<g transform="translate(587.95 3.75)">
<a href="StructureDefinition-BreastImagingReport.html" target="_top">
<rect class="profile" x="0" y="0" width="62.29" height="26.25" rx="3.75" ry="3.75" />
</a>
<a href="StructureDefinition-BreastImagingReport.html" target="_top">
<text x="5.62" y="18.75" text-anchor="left" class="profile">Report</text>
</a>
</g>
</g>
<g>
<g transform="translate(376.11 37.5)">
<a href="StructureDefinition-BreastImagingComposition-definitions.html#Composition.section:impressions" target="_top">
<rect class="element" x="0" y="0" width="161.22" height="26.25" rx="3.75" ry="3.75" />
</a>
<a href="StructureDefinition-BreastImagingComposition-definitions.html#Composition.section:impressions" target="_top">
<text x="5.62" y="18.75" text-anchor="left" class="element">Impressions Section</text>
</a>
</g>
<line class="connector" marker-end="url(#arrowEnd)" x1="567.33" y1="50.62" x2="627.33" y2="50.62" />
<text x="571.08" y="46.88" text-anchor="right" class="lhsText">1..*</text>
<line class="connector" marker-start="url(#arrowStart)" x1="537.33" y1="50.62" x2="567.33" y2="50.62" />
<line class="connector" x1="567.33" y1="50.62" x2="567.33" y2="50.62" />
</g>
<g>
<g transform="translate(627.33 37.5)">
<a href="http://hl7.org/fhir/StructureDefinition/ClinicalImpression" target="_top">
<rect class="fhir" x="0" y="0" width="146.55" height="26.25" rx="3.75" ry="3.75" />
</a>
<a href="http://hl7.org/fhir/StructureDefinition/ClinicalImpression" target="_top">
<text x="5.62" y="18.75" text-anchor="left" class="fhir">ClinicalImpression</text>
</a>
</g>
</g>
<g>
<g transform="translate(376.11 71.25)">
<a href="StructureDefinition-BreastImagingComposition-definitions.html#Composition.section:findingsBiLateralBreast" target="_top">
<rect class="element" x="0" y="0" width="130.08" height="63.75" rx="3.75" ry="3.75" />
</a>
<a href="StructureDefinition-BreastImagingComposition-definitions.html#Composition.section:findingsBiLateralBreast" target="_top">
<text x="5.62" y="18.75" text-anchor="left" class="element">Findings</text>
</a>
<a href="StructureDefinition-BreastImagingComposition-definitions.html#Composition.section:findingsBiLateralBreast" target="_top">
<text x="5.62" y="37.5" text-anchor="left" class="element">BiLateral Breast</text>
</a>
<a href="StructureDefinition-BreastImagingComposition-definitions.html#Composition.section:findingsBiLateralBreast" target="_top">
<text x="5.62" y="56.25" text-anchor="left" class="element">Section</text>
</a>
</g>
<line class="connector" marker-end="url(#arrowEnd)" x1="536.19" y1="93.75" x2="596.19" y2="93.75" />
<text x="539.94" y="90" text-anchor="right" class="lhsText">1..1</text>
<line class="connector" marker-start="url(#arrowStart)" x1="506.19" y1="103.12" x2="536.19" y2="103.12" />
<line class="connector" x1="536.19" y1="93.75" x2="536.19" y2="103.12" />
</g>
<g>
<g transform="translate(596.19 71.25)">
<a href="StructureDefinition-FindingsBiLateralBreast.html" target="_top">
<rect class="profile" x="0" y="0" width="77.87" height="45" rx="3.75" ry="3.75" />
</a>
<a href="StructureDefinition-FindingsBiLateralBreast.html" target="_top">
<text x="5.62" y="18.75" text-anchor="left" class="profile">Findings</text>
</a>
<a href="StructureDefinition-FindingsBiLateralBreast.html" target="_top">
<text x="5.62" y="37.5" text-anchor="left" class="profile">BiLateral</text>
</a>
</g>
</g>
<g>
<g transform="translate(376.11 142.5)">
<a href="StructureDefinition-BreastImagingComposition-definitions.html#Composition.section:findingsLeftBreast" target="_top">
<rect class="element" x="0" y="0" width="92.52" height="63.75" rx="3.75" ry="3.75" />
</a>
<a href="StructureDefinition-BreastImagingComposition-definitions.html#Composition.section:findingsLeftBreast" target="_top">
<text x="5.62" y="18.75" text-anchor="left" class="element">Findings</text>
</a>
<a href="StructureDefinition-BreastImagingComposition-definitions.html#Composition.section:findingsLeftBreast" target="_top">
<text x="5.62" y="37.5" text-anchor="left" class="element">Left Breast</text>
</a>
<a href="StructureDefinition-BreastImagingComposition-definitions.html#Composition.section:findingsLeftBreast" target="_top">
<text x="5.62" y="56.25" text-anchor="left" class="element">Section</text>
</a>
</g>
<line class="connector" marker-end="url(#arrowEnd)" x1="498.63" y1="165" x2="558.63" y2="165" />
<text x="502.38" y="161.25" text-anchor="right" class="lhsText">1..1</text>
<line class="connector" marker-start="url(#arrowStart)" x1="468.63" y1="174.38" x2="498.63" y2="174.38" />
<line class="connector" x1="498.63" y1="165" x2="498.63" y2="174.38" />
</g>
<g>
<g transform="translate(558.63 142.5)">
<a href="StructureDefinition-FindingsLeftBreast.html" target="_top">
<rect class="profile" x="0" y="0" width="92.52" height="45" rx="3.75" ry="3.75" />
</a>
<a href="StructureDefinition-FindingsLeftBreast.html" target="_top">
<text x="5.62" y="18.75" text-anchor="left" class="profile">Findings</text>
</a>
<a href="StructureDefinition-FindingsLeftBreast.html" target="_top">
<text x="5.62" y="37.5" text-anchor="left" class="profile">Left Breast</text>
</a>
</g>
</g>
<g>
<g transform="translate(376.11 213.75)">
<a href="StructureDefinition-BreastImagingComposition-definitions.html#Composition.section:findingsRightBreast" target="_top">
<rect class="element" x="0" y="0" width="103.51" height="63.75" rx="3.75" ry="3.75" />
</a>
<a href="StructureDefinition-BreastImagingComposition-definitions.html#Composition.section:findingsRightBreast" target="_top">
<text x="5.62" y="18.75" text-anchor="left" class="element">Findings</text>
</a>
<a href="StructureDefinition-BreastImagingComposition-definitions.html#Composition.section:findingsRightBreast" target="_top">
<text x="5.62" y="37.5" text-anchor="left" class="element">Right Breast</text>
</a>
<a href="StructureDefinition-BreastImagingComposition-definitions.html#Composition.section:findingsRightBreast" target="_top">
<text x="5.62" y="56.25" text-anchor="left" class="element">Section</text>
</a>
</g>
<line class="connector" marker-end="url(#arrowEnd)" x1="509.62" y1="236.25" x2="569.62" y2="236.25" />
<text x="513.37" y="232.5" text-anchor="right" class="lhsText">1..1</text>
<line class="connector" marker-start="url(#arrowStart)" x1="479.62" y1="245.62" x2="509.62" y2="245.62" />
<line class="connector" x1="509.62" y1="236.25" x2="509.62" y2="245.62" />
</g>
<g>
<g transform="translate(569.62 213.75)">
<a href="StructureDefinition-FindingsRightBreast.html" target="_top">
<rect class="profile" x="0" y="0" width="103.51" height="45" rx="3.75" ry="3.75" />
</a>
<a href="StructureDefinition-FindingsRightBreast.html" target="_top">
<text x="5.62" y="18.75" text-anchor="left" class="profile">Findings</text>
</a>
<a href="StructureDefinition-FindingsRightBreast.html" target="_top">
<text x="5.62" y="37.5" text-anchor="left" class="profile">Right Breast</text>
</a>
</g>
</g>
<g>
<g transform="translate(376.11 285)">
<a href="StructureDefinition-BreastImagingComposition-definitions.html#Composition.section:recommendations" target="_top">
<rect class="element" x="0" y="0" width="150.22" height="45" rx="3.75" ry="3.75" />
</a>
<a href="StructureDefinition-BreastImagingComposition-definitions.html#Composition.section:recommendations" target="_top">
<text x="5.62" y="18.75" text-anchor="left" class="element">Recommendations</text>
</a>
<a href="StructureDefinition-BreastImagingComposition-definitions.html#Composition.section:recommendations" target="_top">
<text x="5.62" y="37.5" text-anchor="left" class="element">Section</text>
</a>
</g>
<line class="connector" marker-end="url(#arrowEnd)" x1="556.34" y1="298.12" x2="616.34" y2="298.12" />
<text x="560.09" y="294.38" text-anchor="right" class="lhsText">1..*</text>
<line class="connector" marker-end="url(#arrowEnd)" x1="556.34" y1="331.88" x2="616.34" y2="331.88" />
<text x="560.09" y="328.12" text-anchor="right" class="lhsText">1..*</text>
<line class="connector" marker-end="url(#arrowEnd)" x1="556.34" y1="365.62" x2="616.34" y2="365.62" />
<text x="560.09" y="361.88" text-anchor="right" class="lhsText">1..*</text>
<line class="connector" marker-start="url(#arrowStart)" x1="526.34" y1="307.5" x2="556.34" y2="307.5" />
<line class="connector" x1="556.34" y1="298.12" x2="556.34" y2="365.62" />
</g>
<g>
<g transform="translate(616.34 285)">
<a href="StructureDefinition-BreastMedicationRequest.html" target="_top">
<rect class="profile" x="0" y="0" width="158.48" height="26.25" rx="3.75" ry="3.75" />
</a>
<a href="StructureDefinition-BreastMedicationRequest.html" target="_top">
<text x="5.62" y="18.75" text-anchor="left" class="profile">Medication Request</text>
</a>
</g>
</g>
<g>
<g transform="translate(616.34 318.75)">
<a href="StructureDefinition-ServiceRecommendation.html" target="_top">
<rect class="profile" x="0" y="0" width="201.51" height="26.25" rx="3.75" ry="3.75" />
</a>
<a href="StructureDefinition-ServiceRecommendation.html" target="_top">
<text x="5.62" y="18.75" text-anchor="left" class="profile">Service Recommendation</text>
</a>
</g>
</g>
<g>
<g transform="translate(616.34 352.5)">
<a href="StructureDefinition-BreastServiceRequest.html" target="_top">
<rect class="profile" x="0" y="0" width="133.74" height="26.25" rx="3.75" ry="3.75" />
</a>
<a href="StructureDefinition-BreastServiceRequest.html" target="_top">
<text x="5.62" y="18.75" text-anchor="left" class="profile">Service Request</text>
</a>
</g>
</g>
<g>
<g transform="translate(376.11 386.25)">
<a href="StructureDefinition-BreastImagingComposition-definitions.html#Composition.section:relatedResources" target="_top">
<rect class="element" x="0" y="0" width="152.97" height="45" rx="3.75" ry="3.75" />
</a>
<a href="StructureDefinition-BreastImagingComposition-definitions.html#Composition.section:relatedResources" target="_top">
<text x="5.62" y="18.75" text-anchor="left" class="element">Related Resources</text>
</a>
<a href="StructureDefinition-BreastImagingComposition-definitions.html#Composition.section:relatedResources" target="_top">
<text x="5.62" y="37.5" text-anchor="left" class="element">Section</text>
</a>
</g>
<line class="connector" marker-end="url(#arrowEnd)" x1="559.09" y1="399.38" x2="619.09" y2="399.38" />
<text x="562.84" y="395.62" text-anchor="right" class="lhsText">1..*</text>
<line class="connector" marker-start="url(#arrowStart)" x1="529.09" y1="408.75" x2="559.09" y2="408.75" />
<line class="connector" x1="559.09" y1="399.38" x2="559.09" y2="408.75" />
</g>
<g>
<g transform="translate(619.09 386.25)">
<a href="http://hl7.org/fhir/StructureDefinition/Resource" target="_top">
<rect class="fhir" x="0" y="0" width="83.36" height="26.25" rx="3.75" ry="3.75" />
</a>
<a href="http://hl7.org/fhir/StructureDefinition/Resource" target="_top">
<text x="5.62" y="18.75" text-anchor="left" class="fhir">Resource</text>
</a>
</g>
</g>
<g>
<g transform="translate(3.75 513.75)">
<rect class="focus" x="0" y="0" width="57.72" height="26.25" rx="3.75" ry="3.75" />
<text x="5.62" y="18.75" text-anchor="left" class="focus">Focus</text>
</g>
<g transform="translate(68.97 513.75)">
<rect class="profile" x="0" y="0" width="143.81" height="26.25" rx="3.75" ry="3.75" />
<text x="5.62" y="18.75" text-anchor="left" class="profile">Profiled Resource</text>
</g>
<g transform="translate(220.28 513.75)">
<rect class="fhir" x="0" y="0" width="125.5" height="26.25" rx="3.75" ry="3.75" />
<text x="5.62" y="18.75" text-anchor="left" class="fhir">Base Resource</text>
</g>
<g transform="translate(353.27 513.75)">
<rect class="element" x="0" y="0" width="148.39" height="26.25" rx="3.75" ry="3.75" />
<text x="5.62" y="18.75" text-anchor="left" class="element">Resource Element</text>
</g>
</g>
</svg>
