<?xml version="1.0"?>
<!DOCTYPE svg PUBLIC "-//W3C//DTD SVG 1.1//EN" "http://www.w3.org/Graphics/SVG/1.1/DTD/svg11.dtd">
<svg xmlns="http://www.w3.org/2000/svg" version="1.1" width="778.5" height="832.5">
<defs>
<marker id="arrowStart" markerWidth="3.75" markerHeight="3.75" markerUnits="px" refX="1.875" refY="1.875">
<circle fill="Black" stroke-width="0" cx="1.875" cy="1.875" r="1.875" />
</marker>
<marker id="arrowEnd" markerWidth="7.5" markerHeight="7.5" markerUnits="px" refX="7.5" refY="3.75">
<polygon fill="Black" stroke-width="0" points="0 0 7.5 3.75 0 7.5" />
</marker>
</defs>
<g>
<g transform="translate(7.5 7.5)">
<rect fill="LightCyan" stroke="Black" stroke-width="1.875" x="0" y="0" width="120" height="33.75" rx="3.75" ry="3.75" />
<a href="./StructureDefinition-MGFinding.html" target="_blank">
<title>'MGFinding'</title>
<text x="60" y="22.5" text-anchor="middle">MG Finding</text>
</a>
</g>
<line stroke="Black" stroke-width="1.875" marker-end="url(#arrowEnd)" x1="157.5" y1="24.375" x2="187.5" y2="24.375" />
<line stroke="Black" stroke-width="1.875" marker-start="url(#arrowStart)" x1="127.5" y1="24.375" x2="157.5" y2="24.375" />
<line stroke="Black" stroke-width="1.875" x1="157.5" y1="24.375" x2="157.5" y2="24.375" />
</g>
<g>
<g transform="translate(187.5 7.5)">
<rect fill="White" stroke="Black" stroke-width="1.875" x="0" y="0" width="162" height="33.75" rx="3.75" ry="3.75" />
<text x="81" y="22.5" text-anchor="middle">Foreign Object</text>
</g>
<line stroke="Black" stroke-width="1.875" marker-end="url(#arrowEnd)" x1="379.5" y1="43.125" x2="409.5" y2="43.125" />
<line stroke="Black" stroke-width="1.875" marker-end="url(#arrowEnd)" x1="379.5" y1="121.875" x2="409.5" y2="121.875" />
<line stroke="Black" stroke-width="1.875" marker-end="url(#arrowEnd)" x1="379.5" y1="200.625" x2="409.5" y2="200.625" />
<line stroke="Black" stroke-width="1.875" marker-end="url(#arrowEnd)" x1="379.5" y1="279.375" x2="409.5" y2="279.375" />
<line stroke="Black" stroke-width="1.875" marker-end="url(#arrowEnd)" x1="379.5" y1="358.125" x2="409.5" y2="358.125" />
<line stroke="Black" stroke-width="1.875" marker-end="url(#arrowEnd)" x1="379.5" y1="436.875" x2="409.5" y2="436.875" />
<line stroke="Black" stroke-width="1.875" marker-end="url(#arrowEnd)" x1="379.5" y1="515.625" x2="409.5" y2="515.625" />
<line stroke="Black" stroke-width="1.875" marker-end="url(#arrowEnd)" x1="379.5" y1="594.375" x2="409.5" y2="594.375" />
<line stroke="Black" stroke-width="1.875" marker-end="url(#arrowEnd)" x1="379.5" y1="663.75" x2="409.5" y2="663.75" />
<line stroke="Black" stroke-width="1.875" marker-end="url(#arrowEnd)" x1="379.5" y1="733.125" x2="409.5" y2="733.125" />
<line stroke="Black" stroke-width="1.875" marker-end="url(#arrowEnd)" x1="379.5" y1="793.125" x2="409.5" y2="793.125" />
<line stroke="Black" stroke-width="1.875" marker-start="url(#arrowStart)" x1="349.5" y1="24.375" x2="379.5" y2="24.375" />
<line stroke="Black" stroke-width="1.875" x1="379.5" y1="24.375" x2="379.5" y2="793.125" />
</g>
<g>
<g transform="translate(409.5 7.5)">
<rect fill="LightGreen" stroke="Black" stroke-width="1.875" x="0" y="0" width="99" height="71.25" rx="3.75" ry="3.75" />
<a href="./ValueSet-MGAbnormalitiesVS.html" target="_blank">
<title>'MGAbnormalitiesVS'</title>
<text x="49.5" y="22.5" text-anchor="middle">Foreign</text>
</a>
<a href="./ValueSet-MGAbnormalitiesVS.html" target="_blank">
<title>'MGAbnormalitiesVS'</title>
<text x="49.5" y="41.25" text-anchor="middle">Object</text>
</a>
<a href="./ValueSet-MGAbnormalitiesVS.html" target="_blank">
<title>'MGAbnormalitiesVS'</title>
<text x="49.5" y="60" text-anchor="middle">ValueSet</text>
</a>
</g>
<g transform="translate(409.5 86.25)">
<rect fill="LightYellow" stroke="Black" stroke-width="1.875" x="0" y="0" width="309" height="71.25" rx="3.75" ry="3.75" />
<text x="154.5" y="22.5" text-anchor="middle">BiRads Assessment Category</text>
<text x="154.5" y="41.25" text-anchor="middle">CodeableConcept</text>
<a href="./ValueSet-BiRadsAssessmentCategoriesVS.html" target="_blank">
<title>'BiRadsAssessmentCategoriesVS'</title>
<text x="154.5" y="60" text-anchor="middle">BiRadsAssessmentCategoriesVS</text>
</a>
</g>
<g transform="translate(409.5 165)">
<rect fill="LightYellow" stroke="Black" stroke-width="1.875" x="0" y="0" width="183" height="71.25" rx="3.75" ry="3.75" />
<text x="91.5" y="22.5" text-anchor="middle">Consistent With</text>
<text x="91.5" y="41.25" text-anchor="middle">CodeableConcept</text>
<a href="./ValueSet-ConsistentWithVS.html" target="_blank">
<title>'ConsistentWithVS'</title>
<text x="91.5" y="60" text-anchor="middle">ConsistentWithVS</text>
</a>
</g>
<g transform="translate(409.5 243.75)">
<rect fill="LightYellow" stroke="Black" stroke-width="1.875" x="0" y="0" width="309" height="71.25" rx="3.75" ry="3.75" />
<text x="154.5" y="22.5" text-anchor="middle">Change In Definition</text>
<text x="154.5" y="41.25" text-anchor="middle">CodeableConcept</text>
<a href="./ValueSet-ObservedChangeInDefinitionVS.html" target="_blank">
<title>'ObservedChangeInDefinitionVS'</title>
<text x="154.5" y="60" text-anchor="middle">ObservedChangeInDefinitionVS</text>
</a>
</g>
<g transform="translate(409.5 322.5)">
<rect fill="LightYellow" stroke="Black" stroke-width="1.875" x="0" y="0" width="267" height="71.25" rx="3.75" ry="3.75" />
<text x="133.5" y="22.5" text-anchor="middle">Change In Number</text>
<text x="133.5" y="41.25" text-anchor="middle">CodeableConcept</text>
<a href="./ValueSet-ObservedChangeInNumberVS.html" target="_blank">
<title>'ObservedChangeInNumberVS'</title>
<text x="133.5" y="60" text-anchor="middle">ObservedChangeInNumberVS</text>
</a>
</g>
<g transform="translate(409.5 401.25)">
<rect fill="LightYellow" stroke="Black" stroke-width="1.875" x="0" y="0" width="309" height="71.25" rx="3.75" ry="3.75" />
<text x="154.5" y="22.5" text-anchor="middle">Change In Prominance</text>
<text x="154.5" y="41.25" text-anchor="middle">CodeableConcept</text>
<a href="./ValueSet-ObservedChangeInProminanceVS.html" target="_blank">
<title>'ObservedChangeInProminanceVS'</title>
<text x="154.5" y="60" text-anchor="middle">ObservedChangeInProminanceVS</text>
</a>
</g>
<g transform="translate(409.5 480)">
<rect fill="LightYellow" stroke="Black" stroke-width="1.875" x="0" y="0" width="246" height="71.25" rx="3.75" ry="3.75" />
<text x="123" y="22.5" text-anchor="middle">Change In Size</text>
<text x="123" y="41.25" text-anchor="middle">CodeableConcept</text>
<a href="./ValueSet-ObservedChangeInSizeVS.html" target="_blank">
<title>'ObservedChangeInSizeVS'</title>
<text x="123" y="60" text-anchor="middle">ObservedChangeInSizeVS</text>
</a>
</g>
<g transform="translate(409.5 558.75)">
<rect fill="LightYellow" stroke="Black" stroke-width="1.875" x="0" y="0" width="256.5" height="71.25" rx="3.75" ry="3.75" />
<text x="128.25" y="22.5" text-anchor="middle">Change In State</text>
<text x="128.25" y="41.25" text-anchor="middle">CodeableConcept</text>
<a href="./ValueSet-ObservedChangeInStateVS.html" target="_blank">
<title>'ObservedChangeInStateVS'</title>
<text x="128.25" y="60" text-anchor="middle">ObservedChangeInStateVS</text>
</a>
</g>
<g transform="translate(409.5 637.5)">
<rect fill="LightYellow" stroke="Black" stroke-width="1.875" x="0" y="0" width="99" height="52.5" rx="3.75" ry="3.75" />
<text x="49.5" y="22.5" text-anchor="middle">Size</text>
<text x="49.5" y="41.25" text-anchor="middle">Quantity</text>
</g>
<g transform="translate(409.5 697.5)">
<rect fill="LightYellow" stroke="Black" stroke-width="1.875" x="0" y="0" width="172.5" height="71.25" rx="3.75" ry="3.75" />
<text x="86.25" y="22.5" text-anchor="middle">Orientation</text>
<text x="86.25" y="41.25" text-anchor="middle">CodeableConcept</text>
<a href="./ValueSet-OrientationVS.html" target="_blank">
<title>'OrientationVS'</title>
<text x="86.25" y="60" text-anchor="middle">OrientationVS</text>
</a>
</g>
<g transform="translate(409.5 776.25)">
<rect fill="LightBlue" stroke="Black" stroke-width="1.875" x="0" y="0" width="183" height="33.75" rx="3.75" ry="3.75" />
<a href="./StructureDefinition-BreastBodyLocationExtension.html" target="_blank">
<title>'BreastBodyLocationExtension'</title>
<text x="91.5" y="22.5" text-anchor="middle">Breast Body Loc.</text>
</a>
</g>
</g>
</svg>
