<?xml version="1.0"?>
<!DOCTYPE svg PUBLIC "-//W3C//DTD SVG 1.1//EN" "http://www.w3.org/Graphics/SVG/1.1/DTD/svg11.dtd">
<svg xmlns="http://www.w3.org/2000/svg" version="1.1" width="1074" height="476.25">
<defs>
<marker id="arrowStart" markerWidth="3.75" markerHeight="3.75" markerUnits="px" refX="1.875" refY="1.875">
<circle fill="Black" stroke-width="0" cx="1.875" cy="1.875" r="1.875" />
</marker>
<marker id="arrowEnd" markerWidth="7.5" markerHeight="7.5" markerUnits="px" refX="7.5" refY="3.75">
<polygon fill="Black" stroke-width="0" points="0 0 7.5 3.75 0 7.5" />
</marker>
</defs>
<g>
<g transform="translate(7.5 7.5)">
<rect fill="LightCyan" stroke="Black" stroke-width="1.875" x="0" y="0" width="57" height="33.75" rx="3.75" ry="3.75" />
<a href="./StructureDefinition-AbnormalityCyst.html" target="_top">
<text x="28.5" y="22.5" text-anchor="middle">Cyst</text>
</a>
</g>
<g transform="translate(7.5 48.75)">
<rect fill="LightCyan" stroke="Black" stroke-width="1.875" x="0" y="0" width="57" height="33.75" rx="3.75" ry="3.75" />
<a href="./StructureDefinition-AbnormalityDuct.html" target="_top">
<text x="28.5" y="22.5" text-anchor="middle">Duct</text>
</a>
</g>
<g transform="translate(7.5 90)">
<rect fill="LightCyan" stroke="Black" stroke-width="1.875" x="0" y="0" width="141" height="33.75" rx="3.75" ry="3.75" />
<a href="./StructureDefinition-AbnormalityFibroadenoma.html" target="_top">
<text x="70.5" y="22.5" text-anchor="middle">Fibroadenoma</text>
</a>
</g>
<g transform="translate(7.5 131.25)">
<rect fill="LightCyan" stroke="Black" stroke-width="1.875" x="0" y="0" width="162" height="33.75" rx="3.75" ry="3.75" />
<a href="./StructureDefinition-AbnormalityForeignObject.html" target="_top">
<text x="81" y="22.5" text-anchor="middle">Foreign Object</text>
</a>
</g>
<g transform="translate(7.5 172.5)">
<rect fill="LightCyan" stroke="Black" stroke-width="1.875" x="0" y="0" width="120" height="33.75" rx="3.75" ry="3.75" />
<a href="./StructureDefinition-AbnormalityLymphNode.html" target="_top">
<text x="60" y="22.5" text-anchor="middle">Lymph Node</text>
</a>
</g>
<g transform="translate(7.5 213.75)">
<rect fill="LightCyan" stroke="Black" stroke-width="1.875" x="0" y="0" width="57" height="33.75" rx="3.75" ry="3.75" />
<a href="./StructureDefinition-AbnormalityMass.html" target="_top">
<text x="28.5" y="22.5" text-anchor="middle">Mass</text>
</a>
</g>
<g transform="translate(7.5 255)">
<rect fill="LightCyan" stroke="Black" stroke-width="1.875" x="0" y="0" width="214.5" height="33.75" rx="3.75" ry="3.75" />
<a href="./StructureDefinition-MGAbnormalityArchitecturalDistortion.html" target="_top">
<text x="107.25" y="22.5" text-anchor="middle">MG Arch. Distortion</text>
</a>
</g>
<g transform="translate(7.5 296.25)">
<rect fill="LightCyan" stroke="Black" stroke-width="1.875" x="0" y="0" width="141" height="33.75" rx="3.75" ry="3.75" />
<a href="./StructureDefinition-MGAbnormalityAsymmetry.html" target="_top">
<text x="70.5" y="22.5" text-anchor="middle">MG Asymmetry</text>
</a>
</g>
<g transform="translate(7.5 337.5)">
<rect fill="LightCyan" stroke="Black" stroke-width="1.875" x="0" y="0" width="99" height="33.75" rx="3.75" ry="3.75" />
<a href="./StructureDefinition-MGAbnormalityCalcification.html" target="_top">
<text x="49.5" y="22.5" text-anchor="middle">MG Calc.</text>
</a>
</g>
<g transform="translate(7.5 378.75)">
<rect fill="LightCyan" stroke="Black" stroke-width="1.875" x="0" y="0" width="120" height="33.75" rx="3.75" ry="3.75" />
<a href="./StructureDefinition-MGAbnormalityDensity.html" target="_top">
<text x="60" y="22.5" text-anchor="middle">MG Density</text>
</a>
</g>
<g transform="translate(7.5 420)">
<rect fill="LightCyan" stroke="Black" stroke-width="1.875" x="0" y="0" width="172.5" height="33.75" rx="3.75" ry="3.75" />
<a href="./StructureDefinition-MGAbnormalityFatNecrosis.html" target="_top">
<text x="86.25" y="22.5" text-anchor="middle">MG Fat Necrosis</text>
</a>
</g>
<line stroke="Black" stroke-width="1.875" marker-end="url(#arrowEnd)" x1="237" y1="24.375" x2="282" y2="24.375" />
<text x="240.74998" y="20.625" text-anchor="left"></text>
<line stroke="Black" stroke-width="1.875" marker-start="url(#arrowStart)" x1="64.5" y1="24.375" x2="237" y2="24.375" />
<line stroke="Black" stroke-width="1.875" marker-start="url(#arrowStart)" x1="64.5" y1="65.625" x2="237" y2="65.625" />
<line stroke="Black" stroke-width="1.875" marker-start="url(#arrowStart)" x1="148.5" y1="106.875" x2="237" y2="106.875" />
<line stroke="Black" stroke-width="1.875" marker-start="url(#arrowStart)" x1="169.5" y1="148.125" x2="237" y2="148.125" />
<line stroke="Black" stroke-width="1.875" marker-start="url(#arrowStart)" x1="127.5" y1="189.375" x2="237" y2="189.375" />
<line stroke="Black" stroke-width="1.875" marker-start="url(#arrowStart)" x1="64.5" y1="230.625" x2="237" y2="230.625" />
<line stroke="Black" stroke-width="1.875" marker-start="url(#arrowStart)" x1="222" y1="271.875" x2="237" y2="271.875" />
<line stroke="Black" stroke-width="1.875" marker-start="url(#arrowStart)" x1="148.5" y1="313.125" x2="237" y2="313.125" />
<line stroke="Black" stroke-width="1.875" marker-start="url(#arrowStart)" x1="106.5" y1="354.375" x2="237" y2="354.375" />
<line stroke="Black" stroke-width="1.875" marker-start="url(#arrowStart)" x1="127.5" y1="395.625" x2="237" y2="395.625" />
<line stroke="Black" stroke-width="1.875" marker-start="url(#arrowStart)" x1="180" y1="436.875" x2="237" y2="436.875" />
<line stroke="Black" stroke-width="1.875" x1="237" y1="24.375" x2="237" y2="436.875" />
</g>
<g>
<g transform="translate(282 7.5)">
<rect fill="White" stroke="Black" stroke-width="1.875" x="0" y="0" width="203.99998" height="33.75" rx="3.75" ry="3.75" />
<text x="101.99999" y="22.5" text-anchor="middle">ObservedItemRegion</text>
</g>
<line stroke="Black" stroke-width="1.875" marker-end="url(#arrowEnd)" x1="500.99997" y1="33.75" x2="545.99994" y2="33.75" />
<text x="504.74997" y="30" text-anchor="left">1..1</text>
<line stroke="Black" stroke-width="1.875" marker-end="url(#arrowEnd)" x1="500.99997" y1="112.5" x2="545.99994" y2="112.5" />
<text x="504.74997" y="108.75" text-anchor="left">1..3</text>
<line stroke="Black" stroke-width="1.875" marker-start="url(#arrowStart)" x1="485.99997" y1="24.375" x2="500.99997" y2="24.375" />
<line stroke="Black" stroke-width="1.875" x1="500.99997" y1="24.375" x2="500.99997" y2="112.5" />
</g>
<g>
<g transform="translate(545.99994 7.5)">
<a href="StructureDefinition-ObservedItemRegion-definitions.html#Observation.component:groupingType" target="_top">
<rect fill="LightYellow" stroke="Black" stroke-width="1.875" x="0" y="0" width="172.5" height="52.5" rx="3.75" ry="3.75" />
</a>
<a href="StructureDefinition-ObservedItemRegion-definitions.html#Observation.component:groupingType" target="_top">
<text x="86.25" y="22.5" text-anchor="middle">Region Type</text>
</a>
<a href="StructureDefinition-ObservedItemRegion-definitions.html#Observation.component:groupingType" target="_top">
<text x="86.25" y="41.25" text-anchor="middle">CodeableConcept</text>
</a>
</g>
<line stroke="Black" stroke-width="1.875" marker-end="url(#arrowEnd)" x1="733.49994" y1="43.125" x2="778.49994" y2="43.125" />
<line stroke="Black" stroke-width="1.875" marker-start="url(#arrowStart)" x1="718.49994" y1="33.75" x2="733.49994" y2="33.75" />
<line stroke="Black" stroke-width="1.875" x1="733.49994" y1="33.75" x2="733.49994" y2="43.125" />
</g>
<g>
<g transform="translate(778.49994 7.5)">
<rect fill="LightGreen" stroke="Black" stroke-width="1.875" x="0" y="0" width="99" height="71.25" rx="3.75" ry="3.75" />
<a href="./ValueSet-ItemRegionVS.html" target="_top">
<text x="49.5" y="22.5" text-anchor="middle">Item</text>
</a>
<a href="./ValueSet-ItemRegionVS.html" target="_top">
<text x="49.5" y="41.25" text-anchor="middle">Region</text>
</a>
<a href="./ValueSet-ItemRegionVS.html" target="_top">
<text x="49.5" y="60" text-anchor="middle">ValueSet</text>
</a>
</g>
</g>
<g>
<g transform="translate(545.99994 86.25)">
<a href="StructureDefinition-ObservedItemRegion-definitions.html#Observation.component:sizeDimension" target="_top">
<rect fill="LightYellow" stroke="Black" stroke-width="1.875" x="0" y="0" width="246" height="52.5" rx="3.75" ry="3.75" />
</a>
<a href="StructureDefinition-ObservedItemRegion-definitions.html#Observation.component:sizeDimension" target="_top">
<text x="123" y="22.5" text-anchor="middle">Item Region Components</text>
</a>
<a href="StructureDefinition-ObservedItemRegion-definitions.html#Observation.component:sizeDimension" target="_top">
<text x="123" y="41.25" text-anchor="middle">Quantity | Range</text>
</a>
</g>
<line stroke="Black" stroke-width="1.875" marker-end="url(#arrowEnd)" x1="806.99994" y1="112.5" x2="851.99994" y2="112.5" />
<line stroke="Black" stroke-width="1.875" marker-start="url(#arrowStart)" x1="791.99994" y1="112.5" x2="806.99994" y2="112.5" />
<line stroke="Black" stroke-width="1.875" x1="806.99994" y1="112.5" x2="806.99994" y2="112.5" />
</g>
<g>
<g transform="translate(851.99994 86.25)">
<rect fill="LightGreen" stroke="Black" stroke-width="1.875" x="0" y="0" width="162" height="52.5" rx="3.75" ry="3.75" />
<a href="./ValueSet-DimensionCodeVS.html" target="_top">
<text x="81" y="22.5" text-anchor="middle">Dimension Code</text>
</a>
<a href="./ValueSet-DimensionCodeVS.html" target="_top">
<text x="81" y="41.25" text-anchor="middle">ValueSet</text>
</a>
</g>
</g>
</svg>
