<?xml version="1.0"?>
<?xml-stylesheet type="text/css" href="FocusGraph.css" ?>
<!DOCTYPE svg PUBLIC "-//W3C//DTD SVG 1.1//EN" "http://www.w3.org/Graphics/SVG/1.1/DTD/svg11.dtd">
<svg xmlns="http://www.w3.org/2000/svg" version="1.1" width="1315.875" height="393.75">
<defs>
<marker id="arrowStart" markerWidth="3.75" markerHeight="3.75" markerUnits="px" refX="1.875" refY="1.875">
<circle fill="Black" stroke-width="0" cx="1.875" cy="1.875" r="1.875" />
</marker>
<marker id="arrowEnd" markerWidth="7.5" markerHeight="7.5" markerUnits="px" refX="7.5" refY="3.75">
<polygon fill="Black" stroke-width="0" points="0 0 7.5 3.75 0 7.5" />
</marker>
</defs>
<g>
<g transform="translate(7.5 7.5)">
<a href="StructureDefinition-AbnormalityArchitecturalDistortion.html" target="_top">
<rect class="profile" fill="White" stroke="Black" stroke-width="1.875" x="0" y="0" width="267" height="33.75" rx="3.75" ry="3.75" />
</a>
<a href="StructureDefinition-AbnormalityArchitecturalDistortion.html" target="_top">
<text x="133.5" y="22.5" text-anchor="middle" class="profile">Architectural Distortion</text>
</a>
</g>
<g transform="translate(7.5 48.75)">
<a href="StructureDefinition-AbnormalityAsymmetry.html" target="_top">
<rect class="profile" fill="White" stroke="Black" stroke-width="1.875" x="0" y="0" width="109.49999" height="33.75" rx="3.75" ry="3.75" />
</a>
<a href="StructureDefinition-AbnormalityAsymmetry.html" target="_top">
<text x="54.749996" y="22.5" text-anchor="middle" class="profile">Asymmetry</text>
</a>
</g>
<g transform="translate(7.5 90)">
<a href="StructureDefinition-AbnormalityCalcification.html" target="_top">
<rect class="profile" fill="White" stroke="Black" stroke-width="1.875" x="0" y="0" width="151.49998" height="33.75" rx="3.75" ry="3.75" />
</a>
<a href="StructureDefinition-AbnormalityCalcification.html" target="_top">
<text x="75.74999" y="22.5" text-anchor="middle" class="profile">Calcification</text>
</a>
</g>
<g transform="translate(7.5 131.25)">
<a href="StructureDefinition-AbnormalityCyst.html" target="_top">
<rect class="profile" fill="White" stroke="Black" stroke-width="1.875" x="0" y="0" width="57" height="33.75" rx="3.75" ry="3.75" />
</a>
<a href="StructureDefinition-AbnormalityCyst.html" target="_top">
<text x="28.5" y="22.5" text-anchor="middle" class="profile">Cyst</text>
</a>
</g>
<g transform="translate(7.5 172.5)">
<a href="StructureDefinition-AbnormalityDensity.html" target="_top">
<rect class="profile" fill="White" stroke="Black" stroke-width="1.875" x="0" y="0" width="88.5" height="33.75" rx="3.75" ry="3.75" />
</a>
<a href="StructureDefinition-AbnormalityDensity.html" target="_top">
<text x="44.25" y="22.5" text-anchor="middle" class="profile">Density</text>
</a>
</g>
<g transform="translate(7.5 213.75)">
<a href="StructureDefinition-AbnormalityDuct.html" target="_top">
<rect class="profile" fill="White" stroke="Black" stroke-width="1.875" x="0" y="0" width="57" height="33.75" rx="3.75" ry="3.75" />
</a>
<a href="StructureDefinition-AbnormalityDuct.html" target="_top">
<text x="28.5" y="22.5" text-anchor="middle" class="profile">Duct</text>
</a>
</g>
<g transform="translate(7.5 255)">
<a href="StructureDefinition-AbnormalityFatNecrosis.html" target="_top">
<rect class="profile" fill="White" stroke="Black" stroke-width="1.875" x="0" y="0" width="141" height="33.75" rx="3.75" ry="3.75" />
</a>
<a href="StructureDefinition-AbnormalityFatNecrosis.html" target="_top">
<text x="70.5" y="22.5" text-anchor="middle" class="profile">Fat Necrosis</text>
</a>
</g>
<g transform="translate(7.5 296.25)">
<a href="StructureDefinition-AbnormalityForeignObject.html" target="_top">
<rect class="profile" fill="White" stroke="Black" stroke-width="1.875" x="0" y="0" width="162" height="33.75" rx="3.75" ry="3.75" />
</a>
<a href="StructureDefinition-AbnormalityForeignObject.html" target="_top">
<text x="81" y="22.5" text-anchor="middle" class="profile">Foreign Object</text>
</a>
</g>
<g transform="translate(7.5 337.5)">
<a href="StructureDefinition-AbnormalityMass.html" target="_top">
<rect class="profile" fill="White" stroke="Black" stroke-width="1.875" x="0" y="0" width="57" height="33.75" rx="3.75" ry="3.75" />
</a>
<a href="StructureDefinition-AbnormalityMass.html" target="_top">
<text x="28.5" y="22.5" text-anchor="middle" class="profile">Mass</text>
</a>
</g>
<line stroke="Black" stroke-width="1.875" marker-end="url(#arrowEnd)" x1="304.5" y1="24.375" x2="334.5" y2="24.375" />
<line stroke="Black" stroke-width="1.875" marker-start="url(#arrowStart)" x1="274.5" y1="24.375" x2="304.5" y2="24.375" />
<line stroke="Black" stroke-width="1.875" marker-start="url(#arrowStart)" x1="116.99999" y1="65.625" x2="304.5" y2="65.625" />
<line stroke="Black" stroke-width="1.875" marker-start="url(#arrowStart)" x1="158.99998" y1="106.875" x2="304.5" y2="106.875" />
<line stroke="Black" stroke-width="1.875" marker-start="url(#arrowStart)" x1="64.5" y1="148.125" x2="304.5" y2="148.125" />
<line stroke="Black" stroke-width="1.875" marker-start="url(#arrowStart)" x1="96" y1="189.375" x2="304.5" y2="189.375" />
<line stroke="Black" stroke-width="1.875" marker-start="url(#arrowStart)" x1="64.5" y1="230.625" x2="304.5" y2="230.625" />
<line stroke="Black" stroke-width="1.875" marker-start="url(#arrowStart)" x1="148.5" y1="271.875" x2="304.5" y2="271.875" />
<line stroke="Black" stroke-width="1.875" marker-start="url(#arrowStart)" x1="169.5" y1="313.125" x2="304.5" y2="313.125" />
<line stroke="Black" stroke-width="1.875" marker-start="url(#arrowStart)" x1="64.5" y1="354.375" x2="304.5" y2="354.375" />
<line stroke="Black" stroke-width="1.875" x1="304.5" y1="24.375" x2="304.5" y2="354.375" />
</g>
<g>
<g transform="translate(334.5 7.5)">
<a href="StructureDefinition-ConsistentWith.html" target="_top">
<rect class="focus" fill="White" stroke="Black" stroke-width="1.875" x="0" y="0" width="172.5" height="33.75" rx="3.75" ry="3.75" />
</a>
<a href="StructureDefinition-ConsistentWith.html" target="_top">
<text x="86.25" y="22.5" text-anchor="middle" class="focus">Consistent With</text>
</a>
</g>
<line stroke="Black" stroke-width="1.875" marker-end="url(#arrowEnd)" x1="537" y1="24.375" x2="597" y2="24.375" />
<text x="540.75" y="20.625" text-anchor="right" class="lhsText">1..*</text>
<line stroke="Black" stroke-width="1.875" marker-start="url(#arrowStart)" x1="507" y1="24.375" x2="537" y2="24.375" />
<line stroke="Black" stroke-width="1.875" x1="537" y1="24.375" x2="537" y2="24.375" />
</g>
<g>
<g transform="translate(597 7.5)">
<a href="StructureDefinition-ConsistentWith-definitions.html#Observation.component" target="_top">
<rect class="element" fill="White" stroke="Black" stroke-width="1.875" x="0" y="0" width="120" height="33.75" rx="3.75" ry="3.75" />
</a>
<a href="StructureDefinition-ConsistentWith-definitions.html#Observation.component" target="_top">
<text x="60" y="22.5" text-anchor="middle" class="element">Components</text>
</a>
</g>
<line stroke="Black" stroke-width="1.875" marker-end="url(#arrowEnd)" x1="747" y1="24.375" x2="807" y2="24.375" />
<text x="750.75" y="20.625" text-anchor="right" class="lhsText">1..1</text>
<line stroke="Black" stroke-width="1.875" marker-end="url(#arrowEnd)" x1="747" y1="84.375" x2="807" y2="84.375" />
<text x="750.75" y="80.625" text-anchor="right" class="lhsText">0..*</text>
<line stroke="Black" stroke-width="1.875" marker-start="url(#arrowStart)" x1="717" y1="24.375" x2="747" y2="24.375" />
<line stroke="Black" stroke-width="1.875" x1="747" y1="24.375" x2="747" y2="84.375" />
</g>
<g>
<g transform="translate(807 7.5)">
<a href="StructureDefinition-ConsistentWith-definitions.html#Observation.component:consistentWith" target="_top">
<rect class="element" fill="White" stroke="Black" stroke-width="1.875" x="0" y="0" width="172.5" height="33.75" rx="3.75" ry="3.75" />
</a>
<a href="StructureDefinition-ConsistentWith-definitions.html#Observation.component:consistentWith" target="_top">
<text x="86.25" y="22.5" text-anchor="middle" class="element">Consistent With</text>
</a>
</g>
<line stroke="Black" stroke-width="1.875" marker-end="url(#arrowEnd)" x1="1009.50006" y1="33.75" x2="1069.5" y2="33.75" />
<text x="1013.25006" y="30" text-anchor="right" class="lhsText">bind</text>
<line stroke="Black" stroke-width="1.875" marker-start="url(#arrowStart)" x1="979.50006" y1="24.375" x2="1009.50006" y2="24.375" />
<line stroke="Black" stroke-width="1.875" x1="1009.50006" y1="24.375" x2="1009.50006" y2="33.75" />
</g>
<g>
<g transform="translate(1069.5 7.5)">
<a href="ValueSet-ConsistentWithVS.html" target="_top">
<rect class="valueSet" fill="White" stroke="Black" stroke-width="1.875" x="0" y="0" width="183" height="52.5" rx="3.75" ry="3.75" />
</a>
<a href="ValueSet-ConsistentWithVS.html" target="_top">
<text x="91.5" y="22.5" text-anchor="middle" class="valueSet">ConsistentWithVS</text>
</a>
<a href="ValueSet-ConsistentWithVS.html" target="_top">
<text x="91.5" y="41.25" text-anchor="middle" class="valueSet">ValueSet</text>
</a>
</g>
</g>
<g>
<g transform="translate(807 67.5)">
<a href="StructureDefinition-ConsistentWith-definitions.html#Observation.component:qualifier" target="_top">
<rect class="element" fill="White" stroke="Black" stroke-width="1.875" x="0" y="0" width="109.49999" height="33.75" rx="3.75" ry="3.75" />
</a>
<a href="StructureDefinition-ConsistentWith-definitions.html#Observation.component:qualifier" target="_top">
<text x="54.749996" y="22.5" text-anchor="middle" class="element">Qualifier</text>
</a>
</g>
<line stroke="Black" stroke-width="1.875" marker-end="url(#arrowEnd)" x1="946.5" y1="93.75" x2="1006.5" y2="93.75" />
<text x="950.25" y="90" text-anchor="right" class="lhsText">bind</text>
<line stroke="Black" stroke-width="1.875" marker-start="url(#arrowStart)" x1="916.5" y1="84.375" x2="946.5" y2="84.375" />
<line stroke="Black" stroke-width="1.875" x1="946.5" y1="84.375" x2="946.5" y2="93.75" />
</g>
<g>
<g transform="translate(1006.5 67.5)">
<a href="ValueSet-ConsistentWithQualifierVS.html" target="_top">
<rect class="valueSet" fill="White" stroke="Black" stroke-width="1.875" x="0" y="0" width="277.5" height="52.5" rx="3.75" ry="3.75" />
</a>
<a href="ValueSet-ConsistentWithQualifierVS.html" target="_top">
<text x="138.75" y="22.5" text-anchor="middle" class="valueSet">ConsistentWithQualifierVS</text>
</a>
<a href="ValueSet-ConsistentWithQualifierVS.html" target="_top">
<text x="138.75" y="41.25" text-anchor="middle" class="valueSet">ValueSet</text>
</a>
</g>
</g>
</svg>
