<?xml version="1.0"?>
<?xml-stylesheet type="text/css" href="FocusGraph.css" ?>
<!DOCTYPE svg PUBLIC "-//W3C//DTD SVG 1.1//EN" "http://www.w3.org/Graphics/SVG/1.1/DTD/svg11.dtd">
<svg xmlns="http://www.w3.org/2000/svg" version="1.1" width="1294.88" height="626.25">
<defs>
<marker id="arrowStart" markerWidth="3.75" markerHeight="3.75" markerUnits="px" refX="1.88" refY="1.88">
<circle class="connector" cx="1.88" cy="1.88" r="1.88" />
</marker>
<marker id="arrowEnd" markerWidth="7.5" markerHeight="7.5" markerUnits="px" refX="7.5" refY="3.75">
<polygon class="connector" points="0 0 7.5 3.75 0 7.5" />
</marker>
</defs>
<g>
<g transform="translate(7.5 7.5)">
<a href="StructureDefinition-AbnormalityArchitecturalDistortion.html" target="_top">
<rect class="profile" x="0" y="0" width="267" height="33.75" rx="3.75" ry="3.75" />
</a>
<a href="StructureDefinition-AbnormalityArchitecturalDistortion.html" target="_top">
<text x="133.5" y="22.5" text-anchor="middle" class="profile">Architectural Distortion</text>
</a>
</g>
<g transform="translate(7.5 48.75)">
<a href="StructureDefinition-AssociatedFeature.html" target="_top">
<rect class="profile" x="0" y="0" width="204" height="33.75" rx="3.75" ry="3.75" />
</a>
<a href="StructureDefinition-AssociatedFeature.html" target="_top">
<text x="102" y="22.5" text-anchor="middle" class="profile">Associated Feature</text>
</a>
</g>
<g transform="translate(7.5 90)">
<a href="StructureDefinition-AbnormalityAsymmetry.html" target="_top">
<rect class="profile" x="0" y="0" width="109.5" height="33.75" rx="3.75" ry="3.75" />
</a>
<a href="StructureDefinition-AbnormalityAsymmetry.html" target="_top">
<text x="54.75" y="22.5" text-anchor="middle" class="profile">Asymmetry</text>
</a>
</g>
<g transform="translate(7.5 131.25)">
<a href="StructureDefinition-AbnormalityCalcification.html" target="_top">
<rect class="profile" x="0" y="0" width="151.5" height="33.75" rx="3.75" ry="3.75" />
</a>
<a href="StructureDefinition-AbnormalityCalcification.html" target="_top">
<text x="75.75" y="22.5" text-anchor="middle" class="profile">Calcification</text>
</a>
</g>
<g transform="translate(7.5 172.5)">
<a href="StructureDefinition-AbnormalityCyst.html" target="_top">
<rect class="profile" x="0" y="0" width="57" height="33.75" rx="3.75" ry="3.75" />
</a>
<a href="StructureDefinition-AbnormalityCyst.html" target="_top">
<text x="28.5" y="22.5" text-anchor="middle" class="profile">Cyst</text>
</a>
</g>
<g transform="translate(7.5 213.75)">
<a href="StructureDefinition-AbnormalityLymphNode.html" target="_top">
<rect class="profile" x="0" y="0" width="57" height="33.75" rx="3.75" ry="3.75" />
</a>
<a href="StructureDefinition-AbnormalityLymphNode.html" target="_top">
<text x="28.5" y="22.5" text-anchor="middle" class="profile">Cyst</text>
</a>
</g>
<g transform="translate(7.5 255)">
<a href="StructureDefinition-AbnormalityDensity.html" target="_top">
<rect class="profile" x="0" y="0" width="88.5" height="33.75" rx="3.75" ry="3.75" />
</a>
<a href="StructureDefinition-AbnormalityDensity.html" target="_top">
<text x="44.25" y="22.5" text-anchor="middle" class="profile">Density</text>
</a>
</g>
<g transform="translate(7.5 296.25)">
<a href="StructureDefinition-AbnormalityDuct.html" target="_top">
<rect class="profile" x="0" y="0" width="57" height="33.75" rx="3.75" ry="3.75" />
</a>
<a href="StructureDefinition-AbnormalityDuct.html" target="_top">
<text x="28.5" y="22.5" text-anchor="middle" class="profile">Duct</text>
</a>
</g>
<g transform="translate(7.5 337.5)">
<a href="StructureDefinition-AbnormalityFatNecrosis.html" target="_top">
<rect class="profile" x="0" y="0" width="141" height="33.75" rx="3.75" ry="3.75" />
</a>
<a href="StructureDefinition-AbnormalityFatNecrosis.html" target="_top">
<text x="70.5" y="22.5" text-anchor="middle" class="profile">Fat Necrosis</text>
</a>
</g>
<g transform="translate(7.5 378.75)">
<a href="StructureDefinition-AbnormalityFibroadenoma.html" target="_top">
<rect class="profile" x="0" y="0" width="141" height="33.75" rx="3.75" ry="3.75" />
</a>
<a href="StructureDefinition-AbnormalityFibroadenoma.html" target="_top">
<text x="70.5" y="22.5" text-anchor="middle" class="profile">Fibroadenoma</text>
</a>
</g>
<g transform="translate(7.5 420)">
<a href="StructureDefinition-AbnormalityForeignObject.html" target="_top">
<rect class="profile" x="0" y="0" width="162" height="33.75" rx="3.75" ry="3.75" />
</a>
<a href="StructureDefinition-AbnormalityForeignObject.html" target="_top">
<text x="81" y="22.5" text-anchor="middle" class="profile">Foreign Object</text>
</a>
</g>
<g transform="translate(7.5 461.25)">
<a href="StructureDefinition-AbnormalityMass.html" target="_top">
<rect class="profile" x="0" y="0" width="57" height="33.75" rx="3.75" ry="3.75" />
</a>
<a href="StructureDefinition-AbnormalityMass.html" target="_top">
<text x="28.5" y="22.5" text-anchor="middle" class="profile">Mass</text>
</a>
</g>
<line class="connector" marker-end="url(#arrowEnd)" x1="304.5" y1="24.38" x2="334.5" y2="24.38" />
<line class="connector" marker-start="url(#arrowStart)" x1="274.5" y1="24.38" x2="304.5" y2="24.38" />
<line class="connector" marker-start="url(#arrowStart)" x1="211.5" y1="65.62" x2="304.5" y2="65.62" />
<line class="connector" marker-start="url(#arrowStart)" x1="117" y1="106.88" x2="304.5" y2="106.88" />
<line class="connector" marker-start="url(#arrowStart)" x1="159" y1="148.12" x2="304.5" y2="148.12" />
<line class="connector" marker-start="url(#arrowStart)" x1="64.5" y1="189.38" x2="304.5" y2="189.38" />
<line class="connector" marker-start="url(#arrowStart)" x1="64.5" y1="230.62" x2="304.5" y2="230.62" />
<line class="connector" marker-start="url(#arrowStart)" x1="96" y1="271.88" x2="304.5" y2="271.88" />
<line class="connector" marker-start="url(#arrowStart)" x1="64.5" y1="313.12" x2="304.5" y2="313.12" />
<line class="connector" marker-start="url(#arrowStart)" x1="148.5" y1="354.38" x2="304.5" y2="354.38" />
<line class="connector" marker-start="url(#arrowStart)" x1="148.5" y1="395.62" x2="304.5" y2="395.62" />
<line class="connector" marker-start="url(#arrowStart)" x1="169.5" y1="436.88" x2="304.5" y2="436.88" />
<line class="connector" marker-start="url(#arrowStart)" x1="64.5" y1="478.12" x2="304.5" y2="478.12" />
<line class="connector" x1="304.5" y1="24.38" x2="304.5" y2="478.12" />
</g>
<g>
<g transform="translate(334.5 7.5)">
<a href="StructureDefinition-BreastBodyLocationExtension.html" target="_top">
<rect class="focus" x="0" y="0" width="204" height="33.75" rx="3.75" ry="3.75" />
</a>
<a href="StructureDefinition-BreastBodyLocationExtension.html" target="_top">
<text x="102" y="22.5" text-anchor="middle" class="focus">BreastBodyLocation</text>
</a>
</g>
<line class="connector" marker-end="url(#arrowEnd)" x1="568.5" y1="24.38" x2="628.5" y2="24.38" />
<text x="572.25" y="20.62" text-anchor="right" class="lhsText">0..1</text>
<line class="connector" marker-end="url(#arrowEnd)" x1="568.5" y1="84.38" x2="628.5" y2="84.38" />
<text x="572.25" y="80.62" text-anchor="right" class="lhsText">0..1</text>
<line class="connector" marker-end="url(#arrowEnd)" x1="568.5" y1="144.38" x2="628.5" y2="144.38" />
<text x="572.25" y="140.62" text-anchor="right" class="lhsText">0..*</text>
<line class="connector" marker-end="url(#arrowEnd)" x1="568.5" y1="185.62" x2="628.5" y2="185.62" />
<text x="572.25" y="181.88" text-anchor="right" class="lhsText">0..*</text>
<line class="connector" marker-end="url(#arrowEnd)" x1="568.5" y1="245.62" x2="628.5" y2="245.62" />
<text x="572.25" y="241.88" text-anchor="right" class="lhsText">0..1</text>
<line class="connector" marker-end="url(#arrowEnd)" x1="568.5" y1="305.62" x2="628.5" y2="305.62" />
<text x="572.25" y="301.88" text-anchor="right" class="lhsText">0..1</text>
<line class="connector" marker-end="url(#arrowEnd)" x1="568.5" y1="365.62" x2="628.5" y2="365.62" />
<text x="572.25" y="361.88" text-anchor="right" class="lhsText">0..1</text>
<line class="connector" marker-start="url(#arrowStart)" x1="538.5" y1="24.38" x2="568.5" y2="24.38" />
<line class="connector" x1="568.5" y1="24.38" x2="568.5" y2="365.62" />
</g>
<g>
<g transform="translate(628.5 7.5)">
<a href="StructureDefinition-BreastBodyLocationExtension-definitions.html#Extension.extension:clockDirection" target="_top">
<rect class="element" x="0" y="0" width="172.5" height="33.75" rx="3.75" ry="3.75" />
</a>
<a href="StructureDefinition-BreastBodyLocationExtension-definitions.html#Extension.extension:clockDirection" target="_top">
<text x="86.25" y="22.5" text-anchor="middle" class="element">Clock Direction</text>
</a>
</g>
<line class="connector" marker-end="url(#arrowEnd)" x1="831" y1="33.75" x2="891" y2="33.75" />
<text x="834.75" y="30" text-anchor="right" class="lhsText">bind</text>
<line class="connector" marker-start="url(#arrowStart)" x1="801" y1="24.38" x2="831" y2="24.38" />
<line class="connector" x1="831" y1="24.38" x2="831" y2="33.75" />
</g>
<g>
<g transform="translate(891 7.5)">
<a href="ValueSet-BreastBodyLocationClockPositionsVS.html" target="_top">
<rect class="valueSet" x="0" y="0" width="372" height="52.5" rx="3.75" ry="3.75" />
</a>
<a href="ValueSet-BreastBodyLocationClockPositionsVS.html" target="_top">
<text x="186" y="22.5" text-anchor="middle" class="valueSet">BreastBodyLocationClockPositionsVS</text>
</a>
<a href="ValueSet-BreastBodyLocationClockPositionsVS.html" target="_top">
<text x="186" y="41.25" text-anchor="middle" class="valueSet">ValueSet</text>
</a>
</g>
</g>
<g>
<g transform="translate(628.5 67.5)">
<a href="StructureDefinition-BreastBodyLocationExtension-definitions.html#Extension.extension:depth" target="_top">
<rect class="element" x="0" y="0" width="67.5" height="33.75" rx="3.75" ry="3.75" />
</a>
<a href="StructureDefinition-BreastBodyLocationExtension-definitions.html#Extension.extension:depth" target="_top">
<text x="33.75" y="22.5" text-anchor="middle" class="element">Depth</text>
</a>
</g>
<line class="connector" marker-end="url(#arrowEnd)" x1="726" y1="93.75" x2="786" y2="93.75" />
<text x="729.75" y="90" text-anchor="right" class="lhsText">bind</text>
<line class="connector" marker-start="url(#arrowStart)" x1="696" y1="84.38" x2="726" y2="84.38" />
<line class="connector" x1="726" y1="84.38" x2="726" y2="93.75" />
</g>
<g>
<g transform="translate(786 67.5)">
<a href="ValueSet-BreastBodyLocationDepthVS.html" target="_top">
<rect class="valueSet" x="0" y="0" width="277.5" height="52.5" rx="3.75" ry="3.75" />
</a>
<a href="ValueSet-BreastBodyLocationDepthVS.html" target="_top">
<text x="138.75" y="22.5" text-anchor="middle" class="valueSet">BreastBodyLocationDepthVS</text>
</a>
<a href="ValueSet-BreastBodyLocationDepthVS.html" target="_top">
<text x="138.75" y="41.25" text-anchor="middle" class="valueSet">ValueSet</text>
</a>
</g>
</g>
<g>
<g transform="translate(628.5 127.5)">
<a href="StructureDefinition-BreastBodyLocationExtension-definitions.html#Extension.extension:distanceFromLandmark" target="_top">
<rect class="element" x="0" y="0" width="225" height="33.75" rx="3.75" ry="3.75" />
</a>
<a href="StructureDefinition-BreastBodyLocationExtension-definitions.html#Extension.extension:distanceFromLandmark" target="_top">
<text x="112.5" y="22.5" text-anchor="middle" class="element">DistanceFromLandmark</text>
</a>
</g>
</g>
<g>
<g transform="translate(628.5 168.75)">
<a href="StructureDefinition-BreastBodyLocationExtension-definitions.html#Extension.extension:landmark" target="_top">
<rect class="element" x="0" y="0" width="99" height="33.75" rx="3.75" ry="3.75" />
</a>
<a href="StructureDefinition-BreastBodyLocationExtension-definitions.html#Extension.extension:landmark" target="_top">
<text x="49.5" y="22.5" text-anchor="middle" class="element">Landmark</text>
</a>
</g>
<line class="connector" marker-end="url(#arrowEnd)" x1="757.5" y1="195" x2="817.5" y2="195" />
<text x="761.25" y="191.25" text-anchor="right" class="lhsText">bind</text>
<line class="connector" marker-start="url(#arrowStart)" x1="727.5" y1="185.62" x2="757.5" y2="185.62" />
<line class="connector" x1="757.5" y1="185.62" x2="757.5" y2="195" />
</g>
<g>
<g transform="translate(817.5 168.75)">
<a href="ValueSet-BreastLandmarkVS.html" target="_top">
<rect class="valueSet" x="0" y="0" width="183" height="52.5" rx="3.75" ry="3.75" />
</a>
<a href="ValueSet-BreastLandmarkVS.html" target="_top">
<text x="91.5" y="22.5" text-anchor="middle" class="valueSet">BreastLandmarkVS</text>
</a>
<a href="ValueSet-BreastLandmarkVS.html" target="_top">
<text x="91.5" y="41.25" text-anchor="middle" class="valueSet">ValueSet</text>
</a>
</g>
</g>
<g>
<g transform="translate(628.5 228.75)">
<a href="StructureDefinition-BreastBodyLocationExtension-definitions.html#Extension.extension:laterality" target="_top">
<rect class="element" x="0" y="0" width="120" height="33.75" rx="3.75" ry="3.75" />
</a>
<a href="StructureDefinition-BreastBodyLocationExtension-definitions.html#Extension.extension:laterality" target="_top">
<text x="60" y="22.5" text-anchor="middle" class="element">Laterality</text>
</a>
</g>
<line class="connector" marker-end="url(#arrowEnd)" x1="778.5" y1="255" x2="838.5" y2="255" />
<text x="782.25" y="251.25" text-anchor="right" class="lhsText">bind</text>
<line class="connector" marker-start="url(#arrowStart)" x1="748.5" y1="245.62" x2="778.5" y2="245.62" />
<line class="connector" x1="778.5" y1="245.62" x2="778.5" y2="255" />
</g>
<g>
<g transform="translate(838.5 228.75)">
<a href="ValueSet-LateralityVS.html" target="_top">
<rect class="valueSet" x="0" y="0" width="141" height="52.5" rx="3.75" ry="3.75" />
</a>
<a href="ValueSet-LateralityVS.html" target="_top">
<text x="70.5" y="22.5" text-anchor="middle" class="valueSet">LateralityVS</text>
</a>
<a href="ValueSet-LateralityVS.html" target="_top">
<text x="70.5" y="41.25" text-anchor="middle" class="valueSet">ValueSet</text>
</a>
</g>
</g>
<g>
<g transform="translate(628.5 288.75)">
<a href="StructureDefinition-BreastBodyLocationExtension-definitions.html#Extension.extension:quadrant" target="_top">
<rect class="element" x="0" y="0" width="99" height="33.75" rx="3.75" ry="3.75" />
</a>
<a href="StructureDefinition-BreastBodyLocationExtension-definitions.html#Extension.extension:quadrant" target="_top">
<text x="49.5" y="22.5" text-anchor="middle" class="element">Quadrant</text>
</a>
</g>
<line class="connector" marker-end="url(#arrowEnd)" x1="757.5" y1="315" x2="817.5" y2="315" />
<text x="761.25" y="311.25" text-anchor="right" class="lhsText">bind</text>
<line class="connector" marker-start="url(#arrowStart)" x1="727.5" y1="305.62" x2="757.5" y2="305.62" />
<line class="connector" x1="757.5" y1="305.62" x2="757.5" y2="315" />
</g>
<g>
<g transform="translate(817.5 288.75)">
<a href="ValueSet-BreastBodyLocationQuadrantVS.html" target="_top">
<rect class="valueSet" x="0" y="0" width="309" height="52.5" rx="3.75" ry="3.75" />
</a>
<a href="ValueSet-BreastBodyLocationQuadrantVS.html" target="_top">
<text x="154.5" y="22.5" text-anchor="middle" class="valueSet">BreastBodyLocationQuadrantVS</text>
</a>
<a href="ValueSet-BreastBodyLocationQuadrantVS.html" target="_top">
<text x="154.5" y="41.25" text-anchor="middle" class="valueSet">ValueSet</text>
</a>
</g>
</g>
<g>
<g transform="translate(628.5 348.75)">
<a href="StructureDefinition-BreastBodyLocationExtension-definitions.html#Extension.extension:region" target="_top">
<rect class="element" x="0" y="0" width="78" height="33.75" rx="3.75" ry="3.75" />
</a>
<a href="StructureDefinition-BreastBodyLocationExtension-definitions.html#Extension.extension:region" target="_top">
<text x="39" y="22.5" text-anchor="middle" class="element">Region</text>
</a>
</g>
<line class="connector" marker-end="url(#arrowEnd)" x1="736.5" y1="375" x2="796.5" y2="375" />
<text x="740.25" y="371.25" text-anchor="right" class="lhsText">bind</text>
<line class="connector" marker-start="url(#arrowStart)" x1="706.5" y1="365.62" x2="736.5" y2="365.62" />
<line class="connector" x1="736.5" y1="365.62" x2="736.5" y2="375" />
</g>
<g>
<g transform="translate(796.5 348.75)">
<a href="ValueSet-BreastBodyLocationRegionVS.html" target="_top">
<rect class="valueSet" x="0" y="0" width="288" height="52.5" rx="3.75" ry="3.75" />
</a>
<a href="ValueSet-BreastBodyLocationRegionVS.html" target="_top">
<text x="144" y="22.5" text-anchor="middle" class="valueSet">BreastBodyLocationRegionVS</text>
</a>
<a href="ValueSet-BreastBodyLocationRegionVS.html" target="_top">
<text x="144" y="41.25" text-anchor="middle" class="valueSet">ValueSet</text>
</a>
</g>
</g>
<g>
<g transform="translate(7.5 577.5)">
<rect class="focus" x="0" y="0" width="67.5" height="33.75" rx="3.75" ry="3.75" />
<text x="33.75" y="22.5" text-anchor="middle" class="focus">Focus</text>
</g>
<g transform="translate(82.5 577.5)">
<rect class="profile" x="0" y="0" width="193.5" height="33.75" rx="3.75" ry="3.75" />
<text x="96.75" y="22.5" text-anchor="middle" class="profile">Profiled Resource</text>
</g>
<g transform="translate(283.5 577.5)">
<rect class="element" x="0" y="0" width="183" height="33.75" rx="3.75" ry="3.75" />
<text x="91.5" y="22.5" text-anchor="middle" class="element">Resource Element</text>
</g>
<g transform="translate(474 577.5)">
<rect class="valueSet" x="0" y="0" width="99" height="33.75" rx="3.75" ry="3.75" />
<text x="49.5" y="22.5" text-anchor="middle" class="valueSet">ValueSet</text>
</g>
</g>
</svg>
