<?xml version="1.0"?>
<?xml-stylesheet type="text/css" href="FocusGraph.css" ?>
<!DOCTYPE svg PUBLIC "-//W3C//DTD SVG 1.1//EN" "http://www.w3.org/Graphics/SVG/1.1/DTD/svg11.dtd">
<svg xmlns="http://www.w3.org/2000/svg" version="1.1" width="696.52" height="153.75">
<defs>
<marker id="arrowStart" markerWidth="3.75" markerHeight="3.75" markerUnits="px" refX="1.88" refY="1.88">
<circle class="connector" cx="1.88" cy="1.88" r="1.88" />
</marker>
<marker id="arrowEnd" markerWidth="7.5" markerHeight="7.5" markerUnits="px" refX="7.5" refY="3.75">
<polygon class="connector" points="0 0 7.5 3.75 0 7.5" />
</marker>
</defs>
<g>
<g transform="translate(3.75 3.75)">
<a href="StructureDefinition-ServiceRecommendation.html" target="_top">
<rect class="focus" x="0" y="0" width="201.51" height="26.25" rx="3.75" ry="3.75" />
</a>
<a href="StructureDefinition-ServiceRecommendation.html" target="_top">
<text x="5.62" y="18.75" text-anchor="left" class="focus">Service Recommendation</text>
</a>
</g>
<line class="connector" marker-end="url(#arrowEnd)" x1="235.26" y1="16.88" x2="295.26" y2="16.88" />
<text x="239.01" y="13.12" text-anchor="right" class="lhsText">1..1</text>
<line class="connector" marker-start="url(#arrowStart)" x1="205.26" y1="16.88" x2="235.26" y2="16.88" />
<line class="connector" x1="235.26" y1="16.88" x2="235.26" y2="16.88" />
</g>
<g>
<g transform="translate(295.26 3.75)">
<a href="StructureDefinition-ServiceRecommendation-definitions.html#ServiceRequest.code" target="_top">
<rect class="element" x="0" y="0" width="52.22" height="26.25" rx="3.75" ry="3.75" />
</a>
<a href="StructureDefinition-ServiceRecommendation-definitions.html#ServiceRequest.code" target="_top">
<text x="5.62" y="18.75" text-anchor="left" class="element">Code</text>
</a>
</g>
<line class="connector" marker-end="url(#arrowEnd)" x1="377.49" y1="16.88" x2="437.49" y2="16.88" />
<text x="381.24" y="13.12" text-anchor="right" class="lhsText">bind</text>
<line class="connector" marker-start="url(#arrowStart)" x1="347.49" y1="16.88" x2="377.49" y2="16.88" />
<line class="connector" x1="377.49" y1="16.88" x2="377.49" y2="16.88" />
</g>
<g>
<g transform="translate(437.49 3.75)">
<a href="ValueSet-ServiceRecommendationsVS.html" target="_top">
<rect class="valueSet" x="0" y="0" width="227.16" height="26.25" rx="3.75" ry="3.75" />
</a>
<a href="ValueSet-ServiceRecommendationsVS.html" target="_top">
<text x="5.62" y="18.75" text-anchor="left" class="valueSet">ServiceRecommendationsVS</text>
</a>
</g>
</g>
<g>
<g transform="translate(3.75 112.5)">
<rect class="focus" x="0" y="0" width="57.72" height="26.25" rx="3.75" ry="3.75" />
<text x="5.62" y="18.75" text-anchor="left" class="focus">Focus</text>
</g>
<g transform="translate(68.97 112.5)">
<rect class="element" x="0" y="0" width="148.39" height="26.25" rx="3.75" ry="3.75" />
<text x="5.62" y="18.75" text-anchor="left" class="element">Resource Element</text>
</g>
<g transform="translate(224.85 112.5)">
<rect class="valueSet" x="0" y="0" width="79.72" height="26.25" rx="3.75" ry="3.75" />
<text x="5.62" y="18.75" text-anchor="left" class="valueSet">ValueSet</text>
</g>
</g>
</svg>
