<?xml version="1.0"?>
<!DOCTYPE svg PUBLIC "-//W3C//DTD SVG 1.1//EN" "http://www.w3.org/Graphics/SVG/1.1/DTD/svg11.dtd">
<svg xmlns="http://www.w3.org/2000/svg" version="1.1" width="547.5" height="202.5">
<defs>
<marker id="arrowStart" markerWidth="3.75" markerHeight="3.75" markerUnits="px" refX="1.875" refY="1.875">
<circle fill="Black" stroke-width="0" cx="1.875" cy="1.875" r="1.875" />
</marker>
<marker id="arrowEnd" markerWidth="7.5" markerHeight="7.5" markerUnits="px" refX="7.5" refY="3.75">
<polygon fill="Black" stroke-width="0" points="0 0 7.5 3.75 0 7.5" />
</marker>
</defs>
<g>
<g>
<rect fill="LightBlue" stroke="Black" stroke-width="1.875" x="7.5" y="7.5" width="99" height="33.75" rx="3.75" ry="3.75" />
<a href="./StructureDefinition-BreastRadSectionFindings.html" target="_blank">
<title>'BreastRadSectionFindings'</title>
<text x="15" y="30">Findings</text>
</a>
</g>
<line stroke="Black" stroke-width="1.875" marker-end="url(#arrowEnd)" x1="136.5" y1="24.375" x2="166.5" y2="24.375" />
<line stroke="Black" stroke-width="1.875" marker-start="url(#arrowStart)" x1="106.5" y1="24.375" x2="136.5" y2="24.375" />
<line stroke="Black" stroke-width="1.875" x1="136.5" y1="24.375" x2="136.5" y2="24.375" />
</g>
<g>
<g>
<rect fill="LightGreen" stroke="Black" stroke-width="1.875" x="166.5" y="7.5" width="141" height="33.75" rx="3.75" ry="3.75" />
<text x="174" y="30">Right Breast</text>
</g>
<line stroke="Black" stroke-width="1.875" marker-end="url(#arrowEnd)" x1="337.5" y1="33.75" x2="367.5" y2="33.75" />
<line stroke="Black" stroke-width="1.875" marker-end="url(#arrowEnd)" x1="337.5" y1="93.75" x2="367.5" y2="93.75" />
<line stroke="Black" stroke-width="1.875" marker-end="url(#arrowEnd)" x1="337.5" y1="153.75" x2="367.5" y2="153.75" />
<line stroke="Black" stroke-width="1.875" marker-start="url(#arrowStart)" x1="307.5" y1="24.375" x2="337.5" y2="24.375" />
<line stroke="Black" stroke-width="1.875" x1="337.5" y1="24.375" x2="337.5" y2="153.75" />
</g>
<g>
<g>
<rect fill="LightSalmon" stroke="Black" stroke-width="1.875" x="367.5" y="7.5" width="88.5" height="52.5" rx="3.75" ry="3.75" />
<a href="./StructureDefinition-BreastRadMammoFinding.html" target="_blank">
<title>'BreastRadMammoFinding'</title>
<text x="375" y="30">Mammo</text>
</a>
<a href="./StructureDefinition-BreastRadMammoFinding.html" target="_blank">
<title>'BreastRadMammoFinding'</title>
<text x="375" y="48.75">Finding</text>
</a>
</g>
<g>
<rect fill="LightSalmon" stroke="Black" stroke-width="1.875" x="367.5" y="67.5" width="88.5" height="52.5" rx="3.75" ry="3.75" />
<a href="./StructureDefinition-BreastRadMRIFinding.html" target="_blank">
<title>'BreastRadMRIFinding'</title>
<text x="375" y="90">MRI</text>
</a>
<a href="./StructureDefinition-BreastRadMRIFinding.html" target="_blank">
<title>'BreastRadMRIFinding'</title>
<text x="375" y="108.75">Finding</text>
</a>
</g>
<g>
<rect fill="LightSalmon" stroke="Black" stroke-width="1.875" x="367.5" y="127.5" width="120" height="52.5" rx="3.75" ry="3.75" />
<a href="./StructureDefinition-BreastRadUltraSoundFinding.html" target="_blank">
<title>'BreastRadUltraSoundFinding'</title>
<text x="375" y="150">UltraSound</text>
</a>
<a href="./StructureDefinition-BreastRadUltraSoundFinding.html" target="_blank">
<title>'BreastRadUltraSoundFinding'</title>
<text x="375" y="168.75">Finding</text>
</a>
</g>
</g>
</svg>
