<?xml version="1.0"?>
<!DOCTYPE svg PUBLIC "-//W3C//DTD SVG 1.1//EN" "http://www.w3.org/Graphics/SVG/1.1/DTD/svg11.dtd">
<svg xmlns="http://www.w3.org/2000/svg" version="1.1" width="453" height="330">
<defs>
<marker id="arrowStart" markerWidth="3.75" markerHeight="3.75" markerUnits="px" refX="1.875" refY="1.875">
<circle fill="Black" stroke-width="0" cx="1.875" cy="1.875" r="1.875" />
</marker>
<marker id="arrowEnd" markerWidth="7.5" markerHeight="7.5" markerUnits="px" refX="7.5" refY="3.75">
<polygon fill="Black" stroke-width="0" points="0 0 7.5 3.75 0 7.5" />
</marker>
</defs>
<g>
<g>
<rect fill="LightBlue" stroke="Black" stroke-width="1.875" x="7.5" y="7.5" width="88.5" height="52.5" rx="3.75" ry="3.75" />
<a href="./StructureDefinition-BreastRadMammoFinding.html" target="_blank">
<title>'BreastRadMammoFinding'</title>
<text x="15" y="30">Mammo</text>
</a>
<a href="./StructureDefinition-BreastRadMammoFinding.html" target="_blank">
<title>'BreastRadMammoFinding'</title>
<text x="15" y="48.75">Finding</text>
</a>
</g>
<line stroke="Black" stroke-width="1.875" marker-end="url(#arrowEnd)" x1="125.99999" y1="24.375" x2="156" y2="24.375" />
<line stroke="Black" stroke-width="1.875" marker-start="url(#arrowStart)" x1="96" y1="33.75" x2="125.99999" y2="33.75" />
<line stroke="Black" stroke-width="1.875" x1="125.99999" y1="24.375" x2="125.99999" y2="33.75" />
</g>
<g>
<g>
<rect fill="LightGreen" stroke="Black" stroke-width="1.875" x="156" y="7.5" width="57" height="33.75" rx="3.75" ry="3.75" />
<text x="163.5" y="30">Mass</text>
</g>
<line stroke="Black" stroke-width="1.875" marker-end="url(#arrowEnd)" x1="243.00002" y1="24.375" x2="273" y2="24.375" />
<line stroke="Black" stroke-width="1.875" marker-end="url(#arrowEnd)" x1="243.00002" y1="65.625" x2="273" y2="65.625" />
<line stroke="Black" stroke-width="1.875" marker-end="url(#arrowEnd)" x1="243.00002" y1="106.875" x2="273" y2="106.875" />
<line stroke="Black" stroke-width="1.875" marker-end="url(#arrowEnd)" x1="243.00002" y1="148.125" x2="273" y2="148.125" />
<line stroke="Black" stroke-width="1.875" marker-end="url(#arrowEnd)" x1="243.00002" y1="189.375" x2="273" y2="189.375" />
<line stroke="Black" stroke-width="1.875" marker-end="url(#arrowEnd)" x1="243.00002" y1="240" x2="273" y2="240" />
<line stroke="Black" stroke-width="1.875" marker-end="url(#arrowEnd)" x1="243.00002" y1="290.625" x2="273" y2="290.625" />
<line stroke="Black" stroke-width="1.875" marker-start="url(#arrowStart)" x1="213" y1="24.375" x2="243.00002" y2="24.375" />
<line stroke="Black" stroke-width="1.875" x1="243.00002" y1="24.375" x2="243.00002" y2="290.625" />
</g>
<g>
<g>
<rect fill="LightSalmon" stroke="Black" stroke-width="1.875" x="273" y="7.5" width="67.5" height="33.75" rx="3.75" ry="3.75" />
<a href="./StructureDefinition-BreastRadMassShape.html" target="_blank">
<title>'BreastRadMassShape'</title>
<text x="280.5" y="30">Shape</text>
</a>
</g>
<g>
<rect fill="LightSalmon" stroke="Black" stroke-width="1.875" x="273" y="48.75" width="57" height="33.75" rx="3.75" ry="3.75" />
<a href="./StructureDefinition-BreastRadMassSize.html" target="_blank">
<title>'BreastRadMassSize'</title>
<text x="280.5" y="71.25">Size</text>
</a>
</g>
<g>
<rect fill="LightSalmon" stroke="Black" stroke-width="1.875" x="273" y="90" width="78" height="33.75" rx="3.75" ry="3.75" />
<a href="./StructureDefinition-BreastRadMammoMassMargin.html" target="_blank">
<title>'BreastRadMammoMassMargin'</title>
<text x="280.5" y="112.5">Margin</text>
</a>
</g>
<g>
<rect fill="LightSalmon" stroke="Black" stroke-width="1.875" x="273" y="131.25" width="88.5" height="33.75" rx="3.75" ry="3.75" />
<a href="./StructureDefinition-BreastRadMammoMassDensity.html" target="_blank">
<title>'BreastRadMammoMassDensity'</title>
<text x="280.5" y="153.75">Density</text>
</a>
</g>
<g>
<rect fill="LightSalmon" stroke="Black" stroke-width="1.875" x="273" y="172.5" width="88.5" height="33.75" rx="3.75" ry="3.75" />
<a href="./StructureDefinition-BreastRadObservedChanges.html" target="_blank">
<title>'BreastRadObservedChanges'</title>
<text x="280.5" y="195">Changes</text>
</a>
</g>
<g>
<rect fill="LightSalmon" stroke="Black" stroke-width="1.875" x="273" y="213.75" width="120" height="52.5" rx="3.75" ry="3.75" />
<a href="./StructureDefinition-BreastRadMammoAssociatedFeatures.html" target="_blank">
<title>'BreastRadMammoAssociatedFeatures'</title>
<text x="280.5" y="236.25">Associated</text>
</a>
<a href="./StructureDefinition-BreastRadMammoAssociatedFeatures.html" target="_blank">
<title>'BreastRadMammoAssociatedFeatures'</title>
<text x="280.5" y="255">Features</text>
</a>
</g>
<g>
<rect fill="LightSalmon" stroke="Black" stroke-width="1.875" x="273" y="273.75" width="67.5" height="33.75" rx="3.75" ry="3.75" />
<a href="./StructureDefinition-BreastRadObservedState.html" target="_blank">
<title>'BreastRadObservedState'</title>
<text x="280.5" y="296.25">State</text>
</a>
</g>
</g>
</svg>
