<?xml version="1.0"?>
<!DOCTYPE svg PUBLIC "-//W3C//DTD SVG 1.1//EN" "http://www.w3.org/Graphics/SVG/1.1/DTD/svg11.dtd">
<svg xmlns="http://www.w3.org/2000/svg" version="1.1" width="505.49994" height="390">
<defs>
<marker id="arrowStart" markerWidth="3.75" markerHeight="3.75" markerUnits="px" refX="1.875" refY="1.875">
<circle fill="Black" stroke-width="0" cx="1.875" cy="1.875" r="1.875" />
</marker>
<marker id="arrowEnd" markerWidth="7.5" markerHeight="7.5" markerUnits="px" refX="7.5" refY="3.75">
<polygon fill="Black" stroke-width="0" points="0 0 7.5 3.75 0 7.5" />
</marker>
</defs>
<g>
<g>
<rect fill="LightBlue" stroke="Black" stroke-width="1.875" x="7.5" y="7.5" width="120" height="52.5" rx="3.75" ry="3.75" />
<a href="./StructureDefinition-BreastRadUltraSoundFinding.html" target="_blank">
<title>'BreastRadUltraSoundFinding'</title>
<text x="15" y="30">UltraSound</text>
</a>
<a href="./StructureDefinition-BreastRadUltraSoundFinding.html" target="_blank">
<title>'BreastRadUltraSoundFinding'</title>
<text x="15" y="48.75">Finding</text>
</a>
</g>
<line stroke="Black" stroke-width="1.875" marker-end="url(#arrowEnd)" x1="157.5" y1="24.375" x2="187.5" y2="24.375" />
<line stroke="Black" stroke-width="1.875" marker-start="url(#arrowStart)" x1="127.5" y1="33.75" x2="157.5" y2="33.75" />
<line stroke="Black" stroke-width="1.875" x1="157.5" y1="24.375" x2="157.5" y2="33.75" />
</g>
<g>
<g>
<rect fill="LightGreen" stroke="Black" stroke-width="1.875" x="187.5" y="7.5" width="57" height="33.75" rx="3.75" ry="3.75" />
<text x="195" y="30">Mass</text>
</g>
<line stroke="Black" stroke-width="1.875" marker-end="url(#arrowEnd)" x1="274.5" y1="24.375" x2="304.5" y2="24.375" />
<line stroke="Black" stroke-width="1.875" marker-end="url(#arrowEnd)" x1="274.5" y1="65.625" x2="304.5" y2="65.625" />
<line stroke="Black" stroke-width="1.875" marker-end="url(#arrowEnd)" x1="274.5" y1="106.875" x2="304.5" y2="106.875" />
<line stroke="Black" stroke-width="1.875" marker-end="url(#arrowEnd)" x1="274.5" y1="148.125" x2="304.5" y2="148.125" />
<line stroke="Black" stroke-width="1.875" marker-end="url(#arrowEnd)" x1="274.5" y1="189.375" x2="304.5" y2="189.375" />
<line stroke="Black" stroke-width="1.875" marker-end="url(#arrowEnd)" x1="274.5" y1="249.375" x2="304.5" y2="249.375" />
<line stroke="Black" stroke-width="1.875" marker-end="url(#arrowEnd)" x1="274.5" y1="309.375" x2="304.5" y2="309.375" />
<line stroke="Black" stroke-width="1.875" marker-end="url(#arrowEnd)" x1="274.5" y1="350.625" x2="304.5" y2="350.625" />
<line stroke="Black" stroke-width="1.875" marker-start="url(#arrowStart)" x1="244.49998" y1="24.375" x2="274.5" y2="24.375" />
<line stroke="Black" stroke-width="1.875" x1="274.5" y1="24.375" x2="274.5" y2="350.625" />
</g>
<g>
<g>
<rect fill="LightSalmon" stroke="Black" stroke-width="1.875" x="304.5" y="7.5" width="57" height="33.75" rx="3.75" ry="3.75" />
<a href="./StructureDefinition-BreastRadMassSize.html" target="_blank">
<title>'BreastRadMassSize'</title>
<text x="312" y="30">Size</text>
</a>
</g>
<g>
<rect fill="LightSalmon" stroke="Black" stroke-width="1.875" x="304.5" y="48.75" width="67.5" height="33.75" rx="3.75" ry="3.75" />
<a href="./StructureDefinition-BreastRadMassShape.html" target="_blank">
<title>'BreastRadMassShape'</title>
<text x="312" y="71.25">Shape</text>
</a>
</g>
<g>
<rect fill="LightSalmon" stroke="Black" stroke-width="1.875" x="304.5" y="90" width="130.5" height="33.75" rx="3.75" ry="3.75" />
<a href="./StructureDefinition-BreastRadUSMassOrientation.html" target="_blank">
<title>'BreastRadUSMassOrientation'</title>
<text x="312" y="112.5">Orientation</text>
</a>
</g>
<g>
<rect fill="LightSalmon" stroke="Black" stroke-width="1.875" x="304.5" y="131.25" width="78" height="33.75" rx="3.75" ry="3.75" />
<a href="./StructureDefinition-BreastRadUSMassMargin.html" target="_blank">
<title>'BreastRadUSMassMargin'</title>
<text x="312" y="153.75">Margin</text>
</a>
</g>
<g>
<rect fill="LightSalmon" stroke="Black" stroke-width="1.875" x="304.5" y="172.5" width="141" height="33.75" rx="3.75" ry="3.75" />
<a href="./StructureDefinition-BreastRadUSMassEchoPattern.html" target="_blank">
<title>'BreastRadUSMassEchoPattern'</title>
<text x="312" y="195">Echo Pattern</text>
</a>
</g>
<g>
<rect fill="LightSalmon" stroke="Black" stroke-width="1.875" x="304.5" y="213.75" width="109.49999" height="71.25" rx="3.75" ry="3.75" />
<a href="./StructureDefinition-BreastRadUSMassPosteriorAcousticFeatures.html" target="_blank">
<title>'BreastRadUSMassPosteriorAcousticFeatures'</title>
<text x="312" y="236.25">Posterior</text>
</a>
<a href="./StructureDefinition-BreastRadUSMassPosteriorAcousticFeatures.html" target="_blank">
<title>'BreastRadUSMassPosteriorAcousticFeatures'</title>
<text x="312" y="255">Acoustic</text>
</a>
<a href="./StructureDefinition-BreastRadUSMassPosteriorAcousticFeatures.html" target="_blank">
<title>'BreastRadUSMassPosteriorAcousticFeatures'</title>
<text x="312" y="273.75">Features</text>
</a>
</g>
<g>
<rect fill="LightSalmon" stroke="Black" stroke-width="1.875" x="304.5" y="292.5" width="88.5" height="33.75" rx="3.75" ry="3.75" />
<a href="./StructureDefinition-BreastRadObservedChanges.html" target="_blank">
<title>'BreastRadObservedChanges'</title>
<text x="312" y="315">Changes</text>
</a>
</g>
<g>
<rect fill="LightSalmon" stroke="Black" stroke-width="1.875" x="304.5" y="333.75" width="67.5" height="33.75" rx="3.75" ry="3.75" />
<a href="./StructureDefinition-BreastRadObservedState.html" target="_blank">
<title>'BreastRadObservedState'</title>
<text x="312" y="356.25">State</text>
</a>
</g>
</g>
</svg>
