<?xml version="1.0"?>
<?xml-stylesheet type="text/css" href="FocusGraph.css" ?>
<!DOCTYPE svg PUBLIC "-//W3C//DTD SVG 1.1//EN" "http://www.w3.org/Graphics/SVG/1.1/DTD/svg11.dtd">
<svg xmlns="http://www.w3.org/2000/svg" version="1.1" width="1345.88" height="727.5">
<defs>
<marker id="arrowStart" markerWidth="3.75" markerHeight="3.75" markerUnits="px" refX="1.88" refY="1.88">
<circle class="connector" cx="1.88" cy="1.88" r="1.88" />
</marker>
<marker id="arrowEnd" markerWidth="7.5" markerHeight="7.5" markerUnits="px" refX="7.5" refY="3.75">
<polygon class="connector" points="0 0 7.5 3.75 0 7.5" />
</marker>
</defs>
<g>
<g transform="translate(7.5 7.5)">
<a href="StructureDefinition-MGFinding.html" target="_top">
<rect class="profile" x="0" y="0" width="130.5" height="33.75" rx="3.75" ry="3.75" />
</a>
<a href="StructureDefinition-MGFinding.html" target="_top">
<text x="65.25" y="22.5" text-anchor="middle" class="profile">Mg Findings</text>
</a>
</g>
<line class="connector" marker-end="url(#arrowEnd)" x1="168" y1="24.38" x2="228" y2="24.38" />
<text x="171.75" y="20.62" text-anchor="right" class="lhsText">0..*</text>
<line class="connector" marker-start="url(#arrowStart)" x1="138" y1="24.38" x2="168" y2="24.38" />
<line class="connector" x1="168" y1="24.38" x2="168" y2="24.38" />
</g>
<g>
<g transform="translate(228 7.5)">
<a href="StructureDefinition-AbnormalityCalcification.html" target="_top">
<rect class="focus" x="0" y="0" width="151.5" height="33.75" rx="3.75" ry="3.75" />
</a>
<a href="StructureDefinition-AbnormalityCalcification.html" target="_top">
<text x="75.75" y="22.5" text-anchor="middle" class="focus">Calcification</text>
</a>
</g>
<line class="connector" marker-end="url(#arrowEnd)" x1="409.5" y1="24.38" x2="469.5" y2="24.38" />
<text x="413.25" y="20.62" text-anchor="right" class="lhsText">1..1</text>
<line class="connector" marker-end="url(#arrowEnd)" x1="409.5" y1="65.62" x2="469.5" y2="65.62" />
<text x="413.25" y="61.88" text-anchor="right" class="lhsText">1..1</text>
<line class="connector" marker-end="url(#arrowEnd)" x1="409.5" y1="106.88" x2="469.5" y2="106.88" />
<text x="413.25" y="103.12" text-anchor="right" class="lhsText">1..*</text>
<line class="connector" marker-end="url(#arrowEnd)" x1="409.5" y1="538.12" x2="469.5" y2="538.12" />
<text x="413.25" y="534.38" text-anchor="right" class="lhsText">0..*</text>
<line class="connector" marker-start="url(#arrowStart)" x1="379.5" y1="24.38" x2="409.5" y2="24.38" />
<line class="connector" x1="409.5" y1="24.38" x2="409.5" y2="538.12" />
</g>
<g>
<g transform="translate(469.5 7.5)">
<a href="StructureDefinition-AbnormalityCalcification-definitions.html#Observation.code" target="_top">
<rect class="element" x="0" y="0" width="57" height="33.75" rx="3.75" ry="3.75" />
</a>
<a href="StructureDefinition-AbnormalityCalcification-definitions.html#Observation.code" target="_top">
<text x="28.5" y="22.5" text-anchor="middle" class="element">Code</text>
</a>
</g>
<line class="connector" marker-end="url(#arrowEnd)" x1="556.5" y1="24.38" x2="676.5" y2="24.38" />
<text x="560.25" y="20.62" text-anchor="right" class="lhsText">pattern </text>
<line class="connector" marker-start="url(#arrowStart)" x1="526.5" y1="24.38" x2="556.5" y2="24.38" />
<line class="connector" x1="556.5" y1="24.38" x2="556.5" y2="24.38" />
</g>
<g>
<g transform="translate(676.5 7.5)">
<a href="http://hl7.org/fhir/us/breast-radiology/CodeSystem/ObservationCodesCS" target="_top">
<rect class="value" x="0" y="0" width="582" height="33.75" rx="3.75" ry="3.75" />
</a>
<a href="http://hl7.org/fhir/us/breast-radiology/CodeSystem/ObservationCodesCS" target="_top">
<text x="291" y="22.5" text-anchor="middle" class="value">ObservationCodesCS#abnormalityCalcificationObservation</text>
</a>
</g>
</g>
<g>
<g transform="translate(469.5 48.75)">
<a href="StructureDefinition-AbnormalityCalcification-definitions.html#Observation.bodySite" target="_top">
<rect class="element" x="0" y="0" width="99" height="33.75" rx="3.75" ry="3.75" />
</a>
<a href="StructureDefinition-AbnormalityCalcification-definitions.html#Observation.bodySite" target="_top">
<text x="49.5" y="22.5" text-anchor="middle" class="element">BodySite</text>
</a>
</g>
<line class="connector" marker-end="url(#arrowEnd)" x1="598.5" y1="65.62" x2="658.5" y2="65.62" />
<text x="602.25" y="61.88" text-anchor="right" class="lhsText">1..*</text>
<line class="connector" marker-start="url(#arrowStart)" x1="568.5" y1="65.62" x2="598.5" y2="65.62" />
<line class="connector" x1="598.5" y1="65.62" x2="598.5" y2="65.62" />
</g>
<g>
<g transform="translate(658.5 48.75)">
<a href="StructureDefinition-AbnormalityCalcification-definitions.html#Observation.bodySite.extension" target="_top">
<rect class="element" x="0" y="0" width="109.5" height="33.75" rx="3.75" ry="3.75" />
</a>
<a href="StructureDefinition-AbnormalityCalcification-definitions.html#Observation.bodySite.extension" target="_top">
<text x="54.75" y="22.5" text-anchor="middle" class="element">extension</text>
</a>
</g>
<line class="connector" marker-end="url(#arrowEnd)" x1="798" y1="65.62" x2="828" y2="65.62" />
<line class="connector" marker-start="url(#arrowStart)" x1="768" y1="65.62" x2="798" y2="65.62" />
<line class="connector" x1="798" y1="65.62" x2="798" y2="65.62" />
</g>
<g>
<g transform="translate(828 48.75)">
<a href="StructureDefinition-BreastBodyLocationExtension.html" target="_top">
<rect class="extension" x="0" y="0" width="204" height="33.75" rx="3.75" ry="3.75" />
</a>
<a href="StructureDefinition-BreastBodyLocationExtension.html" target="_top">
<text x="102" y="22.5" text-anchor="middle" class="extension">BreastBodyLocation</text>
</a>
</g>
</g>
<g>
<g transform="translate(469.5 90)">
<a href="StructureDefinition-AbnormalityCalcification-definitions.html#Observation.component" target="_top">
<rect class="element" x="0" y="0" width="120" height="33.75" rx="3.75" ry="3.75" />
</a>
<a href="StructureDefinition-AbnormalityCalcification-definitions.html#Observation.component" target="_top">
<text x="60" y="22.5" text-anchor="middle" class="element">Components</text>
</a>
</g>
<line class="connector" marker-end="url(#arrowEnd)" x1="619.5" y1="106.88" x2="679.5" y2="106.88" />
<text x="623.25" y="103.12" text-anchor="right" class="lhsText">0..1</text>
<line class="connector" marker-end="url(#arrowEnd)" x1="619.5" y1="148.12" x2="679.5" y2="148.12" />
<text x="623.25" y="144.38" text-anchor="right" class="lhsText">1..1</text>
<line class="connector" marker-end="url(#arrowEnd)" x1="619.5" y1="189.38" x2="679.5" y2="189.38" />
<text x="623.25" y="185.62" text-anchor="right" class="lhsText">0..*</text>
<line class="connector" marker-end="url(#arrowEnd)" x1="619.5" y1="230.62" x2="679.5" y2="230.62" />
<text x="623.25" y="226.88" text-anchor="right" class="lhsText">0..*</text>
<line class="connector" marker-end="url(#arrowEnd)" x1="619.5" y1="271.88" x2="679.5" y2="271.88" />
<text x="623.25" y="268.12" text-anchor="right" class="lhsText">0..*</text>
<line class="connector" marker-end="url(#arrowEnd)" x1="619.5" y1="313.12" x2="679.5" y2="313.12" />
<text x="623.25" y="309.38" text-anchor="right" class="lhsText">0..1</text>
<line class="connector" marker-end="url(#arrowEnd)" x1="619.5" y1="354.38" x2="679.5" y2="354.38" />
<text x="623.25" y="350.62" text-anchor="right" class="lhsText">0..*</text>
<line class="connector" marker-end="url(#arrowEnd)" x1="619.5" y1="395.62" x2="679.5" y2="395.62" />
<text x="623.25" y="391.88" text-anchor="right" class="lhsText">0..1</text>
<line class="connector" marker-end="url(#arrowEnd)" x1="619.5" y1="436.88" x2="679.5" y2="436.88" />
<text x="623.25" y="433.12" text-anchor="right" class="lhsText">0..3</text>
<line class="connector" marker-end="url(#arrowEnd)" x1="619.5" y1="487.5" x2="679.5" y2="487.5" />
<text x="623.25" y="483.75" text-anchor="right" class="lhsText">0..*</text>
<line class="connector" marker-start="url(#arrowStart)" x1="589.5" y1="106.88" x2="619.5" y2="106.88" />
<line class="connector" x1="619.5" y1="106.88" x2="619.5" y2="487.5" />
</g>
<g>
<g transform="translate(679.5 90)">
<a href="StructureDefinition-AbnormalityCalcification-definitions.html#Observation.component:biRadsAssessmentCategory" target="_top">
<rect class="element" x="0" y="0" width="130.5" height="33.75" rx="3.75" ry="3.75" />
</a>
<a href="StructureDefinition-AbnormalityCalcification-definitions.html#Observation.component:biRadsAssessmentCategory" target="_top">
<text x="65.25" y="22.5" text-anchor="middle" class="element">BiRads Code</text>
</a>
</g>
<line class="connector" marker-end="url(#arrowEnd)" x1="840" y1="106.88" x2="900" y2="106.88" />
<text x="843.75" y="103.12" text-anchor="right" class="lhsText">bind</text>
<line class="connector" marker-start="url(#arrowStart)" x1="810" y1="106.88" x2="840" y2="106.88" />
<line class="connector" x1="840" y1="106.88" x2="840" y2="106.88" />
</g>
<g>
<g transform="translate(900 90)">
<a href="ValueSet-BiRadsAssessmentCategoryVS.html" target="_top">
<rect class="valueSet" x="0" y="0" width="288" height="33.75" rx="3.75" ry="3.75" />
</a>
<a href="ValueSet-BiRadsAssessmentCategoryVS.html" target="_top">
<text x="144" y="22.5" text-anchor="middle" class="valueSet">BiRadsAssessmentCategoryVS</text>
</a>
</g>
</g>
<g>
<g transform="translate(679.5 131.25)">
<a href="StructureDefinition-AbnormalityCalcification-definitions.html#Observation.component:calcificationType" target="_top">
<rect class="element" x="0" y="0" width="204" height="33.75" rx="3.75" ry="3.75" />
</a>
<a href="StructureDefinition-AbnormalityCalcification-definitions.html#Observation.component:calcificationType" target="_top">
<text x="102" y="22.5" text-anchor="middle" class="element">Calcification Type</text>
</a>
</g>
<line class="connector" marker-end="url(#arrowEnd)" x1="913.5" y1="148.12" x2="973.5" y2="148.12" />
<text x="917.25" y="144.38" text-anchor="right" class="lhsText">bind</text>
<line class="connector" marker-start="url(#arrowStart)" x1="883.5" y1="148.12" x2="913.5" y2="148.12" />
<line class="connector" x1="913.5" y1="148.12" x2="913.5" y2="148.12" />
</g>
<g>
<g transform="translate(973.5 131.25)">
<a href="ValueSet-CalcificationTypeVS.html" target="_top">
<rect class="valueSet" x="0" y="0" width="214.5" height="33.75" rx="3.75" ry="3.75" />
</a>
<a href="ValueSet-CalcificationTypeVS.html" target="_top">
<text x="107.25" y="22.5" text-anchor="middle" class="valueSet">CalcificationTypeVS</text>
</a>
</g>
</g>
<g>
<g transform="translate(679.5 172.5)">
<a href="StructureDefinition-AbnormalityCalcification-definitions.html#Observation.component:correspondsWith" target="_top">
<rect class="element" x="0" y="0" width="183" height="33.75" rx="3.75" ry="3.75" />
</a>
<a href="StructureDefinition-AbnormalityCalcification-definitions.html#Observation.component:correspondsWith" target="_top">
<text x="91.5" y="22.5" text-anchor="middle" class="element">Corresponds With</text>
</a>
</g>
<line class="connector" marker-end="url(#arrowEnd)" x1="892.5" y1="189.38" x2="952.5" y2="189.38" />
<text x="896.25" y="185.62" text-anchor="right" class="lhsText">bind</text>
<line class="connector" marker-start="url(#arrowStart)" x1="862.5" y1="189.38" x2="892.5" y2="189.38" />
<line class="connector" x1="892.5" y1="189.38" x2="892.5" y2="189.38" />
</g>
<g>
<g transform="translate(952.5 172.5)">
<a href="ValueSet-CorrespondsWithVS.html" target="_top">
<rect class="valueSet" x="0" y="0" width="193.5" height="33.75" rx="3.75" ry="3.75" />
</a>
<a href="ValueSet-CorrespondsWithVS.html" target="_top">
<text x="96.75" y="22.5" text-anchor="middle" class="valueSet">CorrespondsWithVS</text>
</a>
</g>
</g>
<g>
<g transform="translate(679.5 213.75)">
<a href="StructureDefinition-AbnormalityCalcification-definitions.html#Observation.component:notPreviouslySeen" target="_top">
<rect class="element" x="0" y="0" width="214.5" height="33.75" rx="3.75" ry="3.75" />
</a>
<a href="StructureDefinition-AbnormalityCalcification-definitions.html#Observation.component:notPreviouslySeen" target="_top">
<text x="107.25" y="22.5" text-anchor="middle" class="element">Not Previously Seen</text>
</a>
</g>
<line class="connector" marker-end="url(#arrowEnd)" x1="924" y1="230.62" x2="984" y2="230.62" />
<text x="927.75" y="226.88" text-anchor="right" class="lhsText">bind</text>
<line class="connector" marker-start="url(#arrowStart)" x1="894" y1="230.62" x2="924" y2="230.62" />
<line class="connector" x1="924" y1="230.62" x2="924" y2="230.62" />
</g>
<g>
<g transform="translate(984 213.75)">
<a href="ValueSet-NotPreviouslySeenVS.html" target="_top">
<rect class="valueSet" x="0" y="0" width="214.5" height="33.75" rx="3.75" ry="3.75" />
</a>
<a href="ValueSet-NotPreviouslySeenVS.html" target="_top">
<text x="107.25" y="22.5" text-anchor="middle" class="valueSet">NotPreviouslySeenVS</text>
</a>
</g>
</g>
<g>
<g transform="translate(679.5 255)">
<a href="StructureDefinition-AbnormalityCalcification-definitions.html#Observation.component:obsChanges" target="_top">
<rect class="element" x="0" y="0" width="183" height="33.75" rx="3.75" ry="3.75" />
</a>
<a href="StructureDefinition-AbnormalityCalcification-definitions.html#Observation.component:obsChanges" target="_top">
<text x="91.5" y="22.5" text-anchor="middle" class="element">Observed Changes</text>
</a>
</g>
<line class="connector" marker-end="url(#arrowEnd)" x1="892.5" y1="271.88" x2="952.5" y2="271.88" />
<text x="896.25" y="268.12" text-anchor="right" class="lhsText">bind</text>
<line class="connector" marker-start="url(#arrowStart)" x1="862.5" y1="271.88" x2="892.5" y2="271.88" />
<line class="connector" x1="892.5" y1="271.88" x2="892.5" y2="271.88" />
</g>
<g>
<g transform="translate(952.5 255)">
<a href="ValueSet-ObservedChangesVS.html" target="_top">
<rect class="valueSet" x="0" y="0" width="193.5" height="33.75" rx="3.75" ry="3.75" />
</a>
<a href="ValueSet-ObservedChangesVS.html" target="_top">
<text x="96.75" y="22.5" text-anchor="middle" class="valueSet">ObservedChangesVS</text>
</a>
</g>
</g>
<g>
<g transform="translate(679.5 296.25)">
<a href="StructureDefinition-AbnormalityCalcification-definitions.html#Observation.component:observedCount" target="_top">
<rect class="element" x="0" y="0" width="162" height="33.75" rx="3.75" ry="3.75" />
</a>
<a href="StructureDefinition-AbnormalityCalcification-definitions.html#Observation.component:observedCount" target="_top">
<text x="81" y="22.5" text-anchor="middle" class="element">Observed Count</text>
</a>
</g>
</g>
<g>
<g transform="translate(679.5 337.5)">
<a href="StructureDefinition-AbnormalityCalcification-definitions.html#Observation.component:obsDistribution" target="_top">
<rect class="element" x="0" y="0" width="235.5" height="33.75" rx="3.75" ry="3.75" />
</a>
<a href="StructureDefinition-AbnormalityCalcification-definitions.html#Observation.component:obsDistribution" target="_top">
<text x="117.75" y="22.5" text-anchor="middle" class="element">Observed Distribution</text>
</a>
</g>
<line class="connector" marker-end="url(#arrowEnd)" x1="945" y1="354.38" x2="1005" y2="354.38" />
<text x="948.75" y="350.62" text-anchor="right" class="lhsText">bind</text>
<line class="connector" marker-start="url(#arrowStart)" x1="915" y1="354.38" x2="945" y2="354.38" />
<line class="connector" x1="945" y1="354.38" x2="945" y2="354.38" />
</g>
<g>
<g transform="translate(1005 337.5)">
<a href="ValueSet-CalcificationDistributionVS.html" target="_top">
<rect class="valueSet" x="0" y="0" width="298.5" height="33.75" rx="3.75" ry="3.75" />
</a>
<a href="ValueSet-CalcificationDistributionVS.html" target="_top">
<text x="149.25" y="22.5" text-anchor="middle" class="valueSet">CalcificationDistributionVS</text>
</a>
</g>
</g>
<g>
<g transform="translate(679.5 378.75)">
<a href="StructureDefinition-AbnormalityCalcification-definitions.html#Observation.component:obsDistRegionSize" target="_top">
<rect class="element" x="0" y="0" width="361.5" height="33.75" rx="3.75" ry="3.75" />
</a>
<a href="StructureDefinition-AbnormalityCalcification-definitions.html#Observation.component:obsDistRegionSize" target="_top">
<text x="180.75" y="22.5" text-anchor="middle" class="element">Observed Distribution Region Size</text>
</a>
</g>
</g>
<g>
<g transform="translate(679.5 420)">
<a href="StructureDefinition-AbnormalityCalcification-definitions.html#Observation.component:obsSize" target="_top">
<rect class="element" x="0" y="0" width="151.5" height="33.75" rx="3.75" ry="3.75" />
</a>
<a href="StructureDefinition-AbnormalityCalcification-definitions.html#Observation.component:obsSize" target="_top">
<text x="75.75" y="22.5" text-anchor="middle" class="element">Observed Size</text>
</a>
</g>
</g>
<g>
<g transform="translate(679.5 461.25)">
<a href="StructureDefinition-AbnormalityCalcification-definitions.html#Observation.component:prevDemBy" target="_top">
<rect class="element" x="0" y="0" width="256.5" height="52.5" rx="3.75" ry="3.75" />
</a>
<a href="StructureDefinition-AbnormalityCalcification-definitions.html#Observation.component:prevDemBy" target="_top">
<text x="128.25" y="22.5" text-anchor="middle" class="element">Previously</text>
</a>
<a href="StructureDefinition-AbnormalityCalcification-definitions.html#Observation.component:prevDemBy" target="_top">
<text x="128.25" y="41.25" text-anchor="middle" class="element">Demonstrated by Changes</text>
</a>
</g>
<line class="connector" marker-end="url(#arrowEnd)" x1="966" y1="478.12" x2="1026" y2="478.12" />
<text x="969.75" y="474.38" text-anchor="right" class="lhsText">bind</text>
<line class="connector" marker-start="url(#arrowStart)" x1="936" y1="487.5" x2="966" y2="487.5" />
<line class="connector" x1="966" y1="478.12" x2="966" y2="487.5" />
</g>
<g>
<g transform="translate(1026 461.25)">
<a href="ValueSet-PreviouslyDemonstratedByVS.html" target="_top">
<rect class="valueSet" x="0" y="0" width="288" height="33.75" rx="3.75" ry="3.75" />
</a>
<a href="ValueSet-PreviouslyDemonstratedByVS.html" target="_top">
<text x="144" y="22.5" text-anchor="middle" class="valueSet">PreviouslyDemonstratedByVS</text>
</a>
</g>
</g>
<g>
<g transform="translate(469.5 521.25)">
<a href="StructureDefinition-AbnormalityCalcification-definitions.html#Observation.hasMember" target="_top">
<rect class="element" x="0" y="0" width="109.5" height="33.75" rx="3.75" ry="3.75" />
</a>
<a href="StructureDefinition-AbnormalityCalcification-definitions.html#Observation.hasMember" target="_top">
<text x="54.75" y="22.5" text-anchor="middle" class="element">HasMember</text>
</a>
</g>
<line class="connector" marker-end="url(#arrowEnd)" x1="609" y1="538.12" x2="669" y2="538.12" />
<text x="612.75" y="534.38" text-anchor="right" class="lhsText">0..*</text>
<line class="connector" marker-end="url(#arrowEnd)" x1="609" y1="579.38" x2="669" y2="579.38" />
<text x="612.75" y="575.62" text-anchor="right" class="lhsText">0..*</text>
<line class="connector" marker-start="url(#arrowStart)" x1="579" y1="538.12" x2="609" y2="538.12" />
<line class="connector" x1="609" y1="538.12" x2="609" y2="579.38" />
</g>
<g>
<g transform="translate(669 521.25)">
<a href="StructureDefinition-AssociatedFeature.html" target="_top">
<rect class="profile" x="0" y="0" width="204" height="33.75" rx="3.75" ry="3.75" />
</a>
<a href="StructureDefinition-AssociatedFeature.html" target="_top">
<text x="102" y="22.5" text-anchor="middle" class="profile">Associated Feature</text>
</a>
</g>
</g>
<g>
<g transform="translate(669 562.5)">
<a href="StructureDefinition-ConsistentWith.html" target="_top">
<rect class="profile" x="0" y="0" width="172.5" height="33.75" rx="3.75" ry="3.75" />
</a>
<a href="StructureDefinition-ConsistentWith.html" target="_top">
<text x="86.25" y="22.5" text-anchor="middle" class="profile">Consistent With</text>
</a>
</g>
</g>
<g>
<g transform="translate(7.5 678.75)">
<rect class="focus" x="0" y="0" width="67.5" height="33.75" rx="3.75" ry="3.75" />
<text x="33.75" y="22.5" text-anchor="middle" class="focus">Focus</text>
</g>
<g transform="translate(82.5 678.75)">
<rect class="profile" x="0" y="0" width="193.5" height="33.75" rx="3.75" ry="3.75" />
<text x="96.75" y="22.5" text-anchor="middle" class="profile">Profiled Resource</text>
</g>
<g transform="translate(283.5 678.75)">
<rect class="extension" x="0" y="0" width="109.5" height="33.75" rx="3.75" ry="3.75" />
<text x="54.75" y="22.5" text-anchor="middle" class="extension">Extension</text>
</g>
<g transform="translate(400.5 678.75)">
<rect class="element" x="0" y="0" width="183" height="33.75" rx="3.75" ry="3.75" />
<text x="91.5" y="22.5" text-anchor="middle" class="element">Resource Element</text>
</g>
<g transform="translate(591 678.75)">
<rect class="valueSet" x="0" y="0" width="99" height="33.75" rx="3.75" ry="3.75" />
<text x="49.5" y="22.5" text-anchor="middle" class="valueSet">ValueSet</text>
</g>
<g transform="translate(697.5 678.75)">
<rect class="value" x="0" y="0" width="67.5" height="33.75" rx="3.75" ry="3.75" />
<text x="33.75" y="22.5" text-anchor="middle" class="value">Value</text>
</g>
</g>
</svg>
