<?xml version="1.0"?>
<!DOCTYPE svg PUBLIC "-//W3C//DTD SVG 1.1//EN" "http://www.w3.org/Graphics/SVG/1.1/DTD/svg11.dtd">
<svg xmlns="http://www.w3.org/2000/svg" version="1.1" width="511.49997" height="697.5">
<defs>
<marker id="arrowStart" markerWidth="3.75" markerHeight="3.75" markerUnits="px" refX="1.875" refY="1.875">
<circle fill="Black" stroke-width="0" cx="1.875" cy="1.875" r="1.875" />
</marker>
<marker id="arrowEnd" markerWidth="7.5" markerHeight="7.5" markerUnits="px" refX="7.5" refY="3.75">
<polygon fill="Black" stroke-width="0" points="0 0 7.5 3.75 0 7.5" />
</marker>
</defs>
<g />
<g>
<g transform="translate(67.5 7.5)">
<rect fill="LightGreen" stroke="Black" stroke-width="1.875" x="0" y="0" width="88.5" height="33.75" rx="3.75" ry="3.75" />
<text x="44.25" y="22.5" text-anchor="middle">US Mass</text>
</g>
<line stroke="Black" stroke-width="1.875" marker-end="url(#arrowEnd)" x1="186" y1="24.375" x2="216" y2="24.375" />
<line stroke="Black" stroke-width="1.875" marker-end="url(#arrowEnd)" x1="186" y1="65.625" x2="216" y2="65.625" />
<line stroke="Black" stroke-width="1.875" marker-end="url(#arrowEnd)" x1="186" y1="106.875" x2="216" y2="106.875" />
<line stroke="Black" stroke-width="1.875" marker-end="url(#arrowEnd)" x1="186" y1="148.125" x2="216" y2="148.125" />
<line stroke="Black" stroke-width="1.875" marker-end="url(#arrowEnd)" x1="186" y1="189.375" x2="216" y2="189.375" />
<line stroke="Black" stroke-width="1.875" marker-end="url(#arrowEnd)" x1="186" y1="240" x2="216" y2="240" />
<line stroke="Black" stroke-width="1.875" marker-end="url(#arrowEnd)" x1="186" y1="290.625" x2="216" y2="290.625" />
<line stroke="Black" stroke-width="1.875" marker-end="url(#arrowEnd)" x1="186" y1="331.875" x2="216" y2="331.875" />
<line stroke="Black" stroke-width="1.875" marker-end="url(#arrowEnd)" x1="186" y1="373.125" x2="216" y2="373.125" />
<line stroke="Black" stroke-width="1.875" marker-end="url(#arrowEnd)" x1="186" y1="414.375" x2="216" y2="414.375" />
<line stroke="Black" stroke-width="1.875" marker-end="url(#arrowEnd)" x1="186" y1="465" x2="216" y2="465" />
<line stroke="Black" stroke-width="1.875" marker-end="url(#arrowEnd)" x1="186" y1="515.625" x2="216" y2="515.625" />
<line stroke="Black" stroke-width="1.875" marker-end="url(#arrowEnd)" x1="186" y1="556.875" x2="216" y2="556.875" />
<line stroke="Black" stroke-width="1.875" marker-end="url(#arrowEnd)" x1="186" y1="607.5" x2="216" y2="607.5" />
<line stroke="Black" stroke-width="1.875" marker-end="url(#arrowEnd)" x1="186" y1="658.125" x2="216" y2="658.125" />
<line stroke="Black" stroke-width="1.875" marker-start="url(#arrowStart)" x1="156" y1="24.375" x2="186" y2="24.375" />
<line stroke="Black" stroke-width="1.875" x1="186" y1="24.375" x2="186" y2="658.125" />
</g>
<g>
<g transform="translate(216 7.5)">
<rect fill="LightSalmon" stroke="Black" stroke-width="1.875" x="0" y="0" width="130.5" height="33.75" rx="3.75" ry="3.75" />
<a href="./StructureDefinition-BiRadsAssessmentCategory.html" target="_blank">
<title>'BiRadsAssessmentCategory'</title>
<text x="65.25" y="22.5" text-anchor="middle">BiRads Code</text>
</a>
</g>
<g transform="translate(216 48.75)">
<rect fill="LightSalmon" stroke="Black" stroke-width="1.875" x="0" y="0" width="67.5" height="33.75" rx="3.75" ry="3.75" />
<a href="./StructureDefinition-CommonCount.html" target="_blank">
<title>'CommonCount'</title>
<text x="33.75" y="22.5" text-anchor="middle">Count</text>
</a>
</g>
<g transform="translate(216 90)">
<rect fill="LightSalmon" stroke="Black" stroke-width="1.875" x="0" y="0" width="141" height="33.75" rx="3.75" ry="3.75" />
<a href="./StructureDefinition-CommonObservedChangeInState.html" target="_blank">
<title>'CommonObservedChangeInState'</title>
<text x="70.5" y="22.5" text-anchor="middle">State Change</text>
</a>
</g>
<g transform="translate(216 131.25)">
<rect fill="LightSalmon" stroke="Black" stroke-width="1.875" x="0" y="0" width="57" height="33.75" rx="3.75" ry="3.75" />
<a href="./StructureDefinition-CommonSize.html" target="_blank">
<title>'CommonSize'</title>
<text x="28.5" y="22.5" text-anchor="middle">Size</text>
</a>
</g>
<g transform="translate(216 172.5)">
<rect fill="LightSalmon" stroke="Black" stroke-width="1.875" x="0" y="0" width="130.5" height="33.75" rx="3.75" ry="3.75" />
<a href="./StructureDefinition-Orientation.html" target="_blank">
<title>'Orientation'</title>
<text x="65.25" y="22.5" text-anchor="middle">Orientation</text>
</a>
</g>
<g transform="translate(216 213.75)">
<rect fill="LightSalmon" stroke="Black" stroke-width="1.875" x="0" y="0" width="67.5" height="52.5" rx="3.75" ry="3.75" />
<a href="./StructureDefinition-Hilum.html" target="_blank">
<title>'Hilum'</title>
<text x="33.75" y="22.5" text-anchor="middle">Hilum</text>
</a>
<a href="./StructureDefinition-Hilum.html" target="_blank">
<title>'Hilum'</title>
<text x="33.75" y="41.25" text-anchor="middle">Shape</text>
</a>
</g>
<g transform="translate(216 273.75)">
<rect fill="LightSalmon" stroke="Black" stroke-width="1.875" x="0" y="0" width="130.5" height="33.75" rx="3.75" ry="3.75" />
<a href="./StructureDefinition-BreastRadUSBoundary.html" target="_blank">
<title>'BreastRadUSBoundary'</title>
<text x="65.25" y="22.5" text-anchor="middle">US Boundary</text>
</a>
</g>
<g transform="translate(216 315)">
<rect fill="LightSalmon" stroke="Black" stroke-width="1.875" x="0" y="0" width="172.5" height="33.75" rx="3.75" ry="3.75" />
<a href="./StructureDefinition-BreastRadUSEchoPattern.html" target="_blank">
<title>'BreastRadUSEchoPattern'</title>
<text x="86.25" y="22.5" text-anchor="middle">US Echo Pattern</text>
</a>
</g>
<g transform="translate(216 356.25)">
<rect fill="LightSalmon" stroke="Black" stroke-width="1.875" x="0" y="0" width="151.49998" height="33.75" rx="3.75" ry="3.75" />
<a href="./StructureDefinition-BreastRadUSElasticity.html" target="_blank">
<title>'BreastRadUSElasticity'</title>
<text x="75.74999" y="22.5" text-anchor="middle">US Elasticity</text>
</a>
</g>
<g transform="translate(216 397.5)">
<rect fill="LightSalmon" stroke="Black" stroke-width="1.875" x="0" y="0" width="109.49999" height="33.75" rx="3.75" ry="3.75" />
<a href="./StructureDefinition-BreastRadUSMargin.html" target="_blank">
<title>'BreastRadUSMargin'</title>
<text x="54.749996" y="22.5" text-anchor="middle">US Margin</text>
</a>
</g>
<g transform="translate(216 438.75)">
<rect fill="LightSalmon" stroke="Black" stroke-width="1.875" x="0" y="0" width="235.5" height="52.5" rx="3.75" ry="3.75" />
<a href="./StructureDefinition-BreastRadUSPosteriorAcousticFeatures.html" target="_blank">
<title>'BreastRadUSPosteriorAcousticFeatures'</title>
<text x="117.75" y="22.5" text-anchor="middle">US Posterior Acoustic</text>
</a>
<a href="./StructureDefinition-BreastRadUSPosteriorAcousticFeatures.html" target="_blank">
<title>'BreastRadUSPosteriorAcousticFeatures'</title>
<text x="117.75" y="41.25" text-anchor="middle">Features</text>
</a>
</g>
<g transform="translate(216 498.75)">
<rect fill="LightSalmon" stroke="Black" stroke-width="1.875" x="0" y="0" width="67.5" height="33.75" rx="3.75" ry="3.75" />
<a href="./StructureDefinition-UltraSoundShape.html" target="_blank">
<title>'UltraSoundShape'</title>
<text x="33.75" y="22.5" text-anchor="middle">Shape</text>
</a>
</g>
<g transform="translate(216 540)">
<rect fill="LightSalmon" stroke="Black" stroke-width="1.875" x="0" y="0" width="162" height="33.75" rx="3.75" ry="3.75" />
<a href="./StructureDefinition-BreastRadUSVascularity.html" target="_blank">
<title>'BreastRadUSVascularity'</title>
<text x="81" y="22.5" text-anchor="middle">US Vascularity</text>
</a>
</g>
<g transform="translate(216 581.25)">
<rect fill="LightSalmon" stroke="Black" stroke-width="1.875" x="0" y="0" width="151.49998" height="52.5" rx="3.75" ry="3.75" />
<a href="./StructureDefinition-AimAnnotatedImagingStudy.html" target="_blank">
<title>'AimAnnotatedImagingStudy'</title>
<text x="75.74999" y="22.5" text-anchor="middle">Annotated</text>
</a>
<a href="./StructureDefinition-AimAnnotatedImagingStudy.html" target="_blank">
<title>'AimAnnotatedImagingStudy'</title>
<text x="75.74999" y="41.25" text-anchor="middle">Imaging Study</text>
</a>
</g>
<g transform="translate(216 641.25)">
<rect fill="LightSalmon" stroke="Black" stroke-width="1.875" x="0" y="0" width="183" height="33.75" rx="3.75" ry="3.75" />
<a href="./StructureDefinition-BreastBodyLocationExtension.html" target="_blank">
<title>'BreastBodyLocationExtension'</title>
<text x="91.5" y="22.5" text-anchor="middle">Breast Body Loc.</text>
</a>
</g>
</g>
</svg>
