<?xml version="1.0"?>
<!DOCTYPE svg PUBLIC "-//W3C//DTD SVG 1.1//EN" "http://www.w3.org/Graphics/SVG/1.1/DTD/svg11.dtd">
<svg xmlns="http://www.w3.org/2000/svg" version="1.1" width="600" height="348.75">
<defs>
<marker id="arrowStart" markerWidth="3.75" markerHeight="3.75" markerUnits="px" refX="1.875" refY="1.875">
<circle fill="Black" stroke-width="0" cx="1.875" cy="1.875" r="1.875" />
</marker>
<marker id="arrowEnd" markerWidth="7.5" markerHeight="7.5" markerUnits="px" refX="7.5" refY="3.75">
<polygon fill="Black" stroke-width="0" points="0 0 7.5 3.75 0 7.5" />
</marker>
</defs>
<g>
<g>
<rect fill="LightBlue" stroke="Black" stroke-width="1.875" x="7.5" y="7.5" width="130.5" height="33.75" rx="3.75" ry="3.75" />
<a href="./StructureDefinition-BreastRadMRIFinding.html" target="_blank">
<title>'BreastRadMRIFinding'</title>
<text x="15" y="30">MRI Finding</text>
</a>
</g>
<line stroke="Black" stroke-width="1.875" marker-end="url(#arrowEnd)" x1="168" y1="24.375" x2="198" y2="24.375" />
<line stroke="Black" stroke-width="1.875" marker-start="url(#arrowStart)" x1="138" y1="24.375" x2="168" y2="24.375" />
<line stroke="Black" stroke-width="1.875" x1="168" y1="24.375" x2="168" y2="24.375" />
</g>
<g>
<g>
<rect fill="LightGreen" stroke="Black" stroke-width="1.875" x="198" y="7.5" width="99" height="33.75" rx="3.75" ry="3.75" />
<text x="205.5" y="30">MRI Mass</text>
</g>
<line stroke="Black" stroke-width="1.875" marker-end="url(#arrowEnd)" x1="327" y1="24.375" x2="357" y2="24.375" />
<line stroke="Black" stroke-width="1.875" marker-end="url(#arrowEnd)" x1="327" y1="65.625" x2="357" y2="65.625" />
<line stroke="Black" stroke-width="1.875" marker-end="url(#arrowEnd)" x1="327" y1="106.875" x2="357" y2="106.875" />
<line stroke="Black" stroke-width="1.875" marker-end="url(#arrowEnd)" x1="327" y1="157.5" x2="357" y2="157.5" />
<line stroke="Black" stroke-width="1.875" marker-end="url(#arrowEnd)" x1="327" y1="208.125" x2="357" y2="208.125" />
<line stroke="Black" stroke-width="1.875" marker-end="url(#arrowEnd)" x1="327" y1="258.75" x2="357" y2="258.75" />
<line stroke="Black" stroke-width="1.875" marker-end="url(#arrowEnd)" x1="327" y1="309.375" x2="357" y2="309.375" />
<line stroke="Black" stroke-width="1.875" marker-start="url(#arrowStart)" x1="297" y1="24.375" x2="327" y2="24.375" />
<line stroke="Black" stroke-width="1.875" x1="327" y1="24.375" x2="327" y2="309.375" />
</g>
<g>
<g>
<rect fill="LightSalmon" stroke="Black" stroke-width="1.875" x="357" y="7.5" width="57" height="33.75" rx="3.75" ry="3.75" />
<a href="./StructureDefinition-CommonSize.html" target="_blank">
<title>'CommonSize'</title>
<text x="364.5" y="30">Size</text>
</a>
</g>
<g>
<rect fill="LightSalmon" stroke="Black" stroke-width="1.875" x="357" y="48.75" width="67.5" height="33.75" rx="3.75" ry="3.75" />
<a href="./StructureDefinition-CommonCount.html" target="_blank">
<title>'CommonCount'</title>
<text x="364.5" y="71.25">Count</text>
</a>
</g>
<g>
<rect fill="LightSalmon" stroke="Black" stroke-width="1.875" x="357" y="90" width="130.5" height="33.75" rx="3.75" ry="3.75" />
<a href="./StructureDefinition-CommonOrientation.html" target="_blank">
<title>'CommonOrientation'</title>
<text x="364.5" y="112.5">Orientation</text>
</a>
</g>
<g>
<rect fill="LightSalmon" stroke="Black" stroke-width="1.875" x="357" y="131.25" width="99" height="52.5" rx="3.75" ry="3.75" />
<a href="./StructureDefinition-BreastRadMRIMassMargin.html" target="_blank">
<title>'BreastRadMRIMassMargin'</title>
<text x="364.5" y="153.75">MRI Mass</text>
</a>
<a href="./StructureDefinition-BreastRadMRIMassMargin.html" target="_blank">
<title>'BreastRadMRIMassMargin'</title>
<text x="364.5" y="172.5">Margin</text>
</a>
</g>
<g>
<rect fill="LightSalmon" stroke="Black" stroke-width="1.875" x="357" y="191.25" width="88.5" height="33.75" rx="3.75" ry="3.75" />
<a href="./StructureDefinition-CommonObservedChangeInState.html" target="_blank">
<title>'CommonObservedChangeInState'</title>
<text x="364.5" y="213.75">Changes</text>
</a>
</g>
<g>
<rect fill="LightSalmon" stroke="Black" stroke-width="1.875" x="357" y="232.5" width="151.49998" height="52.5" rx="3.75" ry="3.75" />
<a href="./StructureDefinition-AimAnnotatedImagingStudy.html" target="_blank">
<title>'AimAnnotatedImagingStudy'</title>
<text x="364.5" y="255">Annotated</text>
</a>
<a href="./StructureDefinition-AimAnnotatedImagingStudy.html" target="_blank">
<title>'AimAnnotatedImagingStudy'</title>
<text x="364.5" y="273.75">Imaging Study</text>
</a>
</g>
<g>
<rect fill="LightSalmon" stroke="Black" stroke-width="1.875" x="357" y="292.5" width="183" height="33.75" rx="3.75" ry="3.75" />
<a href="./StructureDefinition-BreastBodyLocationExtension.html" target="_blank">
<title>'BreastBodyLocationExtension'</title>
<text x="364.5" y="315">Breast Body Loc.</text>
</a>
</g>
</g>
</svg>
