<?xml version="1.0"?>
<!DOCTYPE svg PUBLIC "-//W3C//DTD SVG 1.1//EN" "http://www.w3.org/Graphics/SVG/1.1/DTD/svg11.dtd">
<svg xmlns="http://www.w3.org/2000/svg" version="1.1" width="979.50006" height="723.75">
<defs>
<marker id="arrowStart" markerWidth="3.75" markerHeight="3.75" markerUnits="px" refX="1.875" refY="1.875">
<circle fill="Black" stroke-width="0" cx="1.875" cy="1.875" r="1.875" />
</marker>
<marker id="arrowEnd" markerWidth="7.5" markerHeight="7.5" markerUnits="px" refX="7.5" refY="3.75">
<polygon fill="Black" stroke-width="0" points="0 0 7.5 3.75 0 7.5" />
</marker>
</defs>
<g>
<g transform="translate(7.5 7.5)">
<rect fill="LightCyan" stroke="Black" stroke-width="1.875" x="0" y="0" width="120" height="52.5" rx="3.75" ry="3.75" />
<a href="./StructureDefinition-AssociatedFeatures.html" target="_top">
<text x="60" y="22.5" text-anchor="middle">Associated</text>
</a>
<a href="./StructureDefinition-AssociatedFeatures.html" target="_top">
<text x="60" y="41.25" text-anchor="middle">Features</text>
</a>
</g>
<g transform="translate(7.5 67.5)">
<rect fill="LightCyan" stroke="Black" stroke-width="1.875" x="0" y="0" width="120" height="33.75" rx="3.75" ry="3.75" />
<a href="./StructureDefinition-MGFinding.html" target="_top">
<text x="60" y="22.5" text-anchor="middle">MG Finding</text>
</a>
</g>
<line stroke="Black" stroke-width="1.875" marker-end="url(#arrowEnd)" x1="142.5" y1="24.375" x2="187.5" y2="24.375" />
<text x="146.25" y="20.625" text-anchor="left"></text>
<line stroke="Black" stroke-width="1.875" marker-start="url(#arrowStart)" x1="127.5" y1="33.75" x2="142.5" y2="33.75" />
<line stroke="Black" stroke-width="1.875" marker-start="url(#arrowStart)" x1="127.5" y1="84.375" x2="142.5" y2="84.375" />
<line stroke="Black" stroke-width="1.875" x1="142.5" y1="24.375" x2="142.5" y2="84.375" />
</g>
<g>
<g transform="translate(187.5 7.5)">
<rect fill="White" stroke="Black" stroke-width="1.875" x="0" y="0" width="99" height="33.75" rx="3.75" ry="3.75" />
<text x="49.5" y="22.5" text-anchor="middle">MG Calc.</text>
</g>
<line stroke="Black" stroke-width="1.875" marker-end="url(#arrowEnd)" x1="301.5" y1="33.75" x2="346.5" y2="33.75" />
<text x="305.25" y="30" text-anchor="left">0..1</text>
<line stroke="Black" stroke-width="1.875" marker-end="url(#arrowEnd)" x1="301.5" y1="93.75" x2="346.5" y2="93.75" />
<text x="305.25" y="90" text-anchor="left">0..*</text>
<line stroke="Black" stroke-width="1.875" marker-end="url(#arrowEnd)" x1="301.5" y1="144.375" x2="346.5" y2="144.375" />
<text x="305.25" y="140.625" text-anchor="left">0..1</text>
<line stroke="Black" stroke-width="1.875" marker-end="url(#arrowEnd)" x1="301.5" y1="185.625" x2="346.5" y2="185.625" />
<text x="305.25" y="181.875" text-anchor="left">0..1</text>
<line stroke="Black" stroke-width="1.875" marker-end="url(#arrowEnd)" x1="301.5" y1="236.25" x2="346.5" y2="236.25" />
<text x="305.25" y="232.5" text-anchor="left">0..1</text>
<line stroke="Black" stroke-width="1.875" marker-end="url(#arrowEnd)" x1="301.5" y1="296.25" x2="346.5" y2="296.25" />
<text x="305.25" y="292.5" text-anchor="left">0..1</text>
<line stroke="Black" stroke-width="1.875" marker-end="url(#arrowEnd)" x1="301.5" y1="356.25" x2="346.5" y2="356.25" />
<text x="305.25" y="352.5" text-anchor="left">0..*</text>
<line stroke="Black" stroke-width="1.875" marker-end="url(#arrowEnd)" x1="301.5" y1="435" x2="346.5" y2="435" />
<text x="305.25" y="431.25" text-anchor="left">0..1</text>
<line stroke="Black" stroke-width="1.875" marker-end="url(#arrowEnd)" x1="301.5" y1="495" x2="346.5" y2="495" />
<text x="305.25" y="491.25" text-anchor="left">0..*</text>
<line stroke="Black" stroke-width="1.875" marker-end="url(#arrowEnd)" x1="301.5" y1="555" x2="346.5" y2="555" />
<text x="305.25" y="551.25" text-anchor="left">0..1</text>
<line stroke="Black" stroke-width="1.875" marker-end="url(#arrowEnd)" x1="301.5" y1="615" x2="346.5" y2="615" />
<text x="305.25" y="611.25" text-anchor="left">0..*</text>
<line stroke="Black" stroke-width="1.875" marker-end="url(#arrowEnd)" x1="301.5" y1="675" x2="346.5" y2="675" />
<text x="305.25" y="671.25" text-anchor="left">1..1</text>
<line stroke="Black" stroke-width="1.875" marker-start="url(#arrowStart)" x1="286.5" y1="24.375" x2="301.5" y2="24.375" />
<line stroke="Black" stroke-width="1.875" x1="301.5" y1="24.375" x2="301.5" y2="675" />
</g>
<g>
<g transform="translate(346.5 7.5)">
<rect fill="LightCyan" stroke="Black" stroke-width="1.875" x="0" y="0" width="120" height="52.5" rx="3.75" ry="3.75" />
<a href="./StructureDefinition-AssociatedFeatures.html" target="_top">
<text x="60" y="22.5" text-anchor="middle">Associated</text>
</a>
<a href="./StructureDefinition-AssociatedFeatures.html" target="_top">
<text x="60" y="41.25" text-anchor="middle">Features</text>
</a>
</g>
</g>
<g>
<g transform="translate(346.5 67.5)">
<rect fill="LightCyan" stroke="Black" stroke-width="1.875" x="0" y="0" width="120" height="52.5" rx="3.75" ry="3.75" />
<a href="./StructureDefinition-ConsistentWith.html" target="_top">
<text x="60" y="22.5" text-anchor="middle">Consistent</text>
</a>
<a href="./StructureDefinition-ConsistentWith.html" target="_top">
<text x="60" y="41.25" text-anchor="middle">With</text>
</a>
</g>
</g>
<g>
<g transform="translate(346.5 127.5)">
<rect fill="LightCyan" stroke="Black" stroke-width="1.875" x="0" y="0" width="193.5" height="33.75" rx="3.75" ry="3.75" />
<a href="./StructureDefinition-ObservedItemGroup.html" target="_top">
<text x="96.75" y="22.5" text-anchor="middle">ObservedItemGroup</text>
</a>
</g>
</g>
<g>
<g transform="translate(346.5 168.75)">
<rect fill="LightCyan" stroke="Black" stroke-width="1.875" x="0" y="0" width="203.99998" height="33.75" rx="3.75" ry="3.75" />
<a href="./StructureDefinition-ObservedItemRegion.html" target="_top">
<text x="101.99999" y="22.5" text-anchor="middle">ObservedItemRegion</text>
</a>
</g>
</g>
<g>
<g transform="translate(346.5 210)">
<a href="StructureDefinition-MGAbnormalityCalcification-definitions.html#Observation.component:calcificationType" target="_top">
<rect fill="LightYellow" stroke="Black" stroke-width="1.875" x="0" y="0" width="203.99998" height="52.5" rx="3.75" ry="3.75" />
</a>
<a href="StructureDefinition-MGAbnormalityCalcification-definitions.html#Observation.component:calcificationType" target="_top">
<text x="101.99999" y="22.5" text-anchor="middle">Calcification Type</text>
</a>
<a href="StructureDefinition-MGAbnormalityCalcification-definitions.html#Observation.component:calcificationType" target="_top">
<text x="101.99999" y="41.25" text-anchor="middle">CodeableConcept</text>
</a>
</g>
<line stroke="Black" stroke-width="1.875" marker-end="url(#arrowEnd)" x1="565.5" y1="226.875" x2="610.5" y2="226.875" />
<line stroke="Black" stroke-width="1.875" marker-start="url(#arrowStart)" x1="550.5" y1="236.25" x2="565.5" y2="236.25" />
<line stroke="Black" stroke-width="1.875" x1="565.5" y1="226.875" x2="565.5" y2="236.25" />
</g>
<g>
<g transform="translate(610.5 210)">
<rect fill="LightGreen" stroke="Black" stroke-width="1.875" x="0" y="0" width="235.5" height="33.75" rx="3.75" ry="3.75" />
<a href="./ValueSet-MammoCalcificationTypeVS.html" target="_top">
<text x="117.75" y="22.5" text-anchor="middle">MG Calc. TypeValueSet</text>
</a>
</g>
</g>
<g>
<g transform="translate(346.5 270)">
<a href="StructureDefinition-MGAbnormalityCalcification-definitions.html#Observation.component:calcificationDistribution" target="_top">
<rect fill="LightYellow" stroke="Black" stroke-width="1.875" x="0" y="0" width="287.99997" height="52.5" rx="3.75" ry="3.75" />
</a>
<a href="StructureDefinition-MGAbnormalityCalcification-definitions.html#Observation.component:calcificationDistribution" target="_top">
<text x="143.99998" y="22.5" text-anchor="middle">Calcification Distribution</text>
</a>
<a href="StructureDefinition-MGAbnormalityCalcification-definitions.html#Observation.component:calcificationDistribution" target="_top">
<text x="143.99998" y="41.25" text-anchor="middle">CodeableConcept</text>
</a>
</g>
<line stroke="Black" stroke-width="1.875" marker-end="url(#arrowEnd)" x1="649.5" y1="296.25" x2="694.5" y2="296.25" />
<line stroke="Black" stroke-width="1.875" marker-start="url(#arrowStart)" x1="634.5" y1="296.25" x2="649.5" y2="296.25" />
<line stroke="Black" stroke-width="1.875" x1="649.5" y1="296.25" x2="649.5" y2="296.25" />
</g>
<g>
<g transform="translate(694.5 270)">
<rect fill="LightGreen" stroke="Black" stroke-width="1.875" x="0" y="0" width="225" height="52.5" rx="3.75" ry="3.75" />
<a href="./ValueSet-MammoCalcificationDistributionVS.html" target="_top">
<text x="112.5" y="22.5" text-anchor="middle">MG Calc.</text>
</a>
<a href="./ValueSet-MammoCalcificationDistributionVS.html" target="_top">
<text x="112.5" y="41.25" text-anchor="middle">DistributionValueSet</text>
</a>
</g>
</g>
<g>
<g transform="translate(346.5 330)">
<a href="StructureDefinition-MGAbnormalityCalcification-definitions.html#Observation.component:observedChanges" target="_top">
<rect fill="LightYellow" stroke="Black" stroke-width="1.875" x="0" y="0" width="330" height="52.5" rx="3.75" ry="3.75" />
</a>
<a href="StructureDefinition-MGAbnormalityCalcification-definitions.html#Observation.component:observedChanges" target="_top">
<text x="165" y="22.5" text-anchor="middle">Observed Change In Abnormality</text>
</a>
<a href="StructureDefinition-MGAbnormalityCalcification-definitions.html#Observation.component:observedChanges" target="_top">
<text x="165" y="41.25" text-anchor="middle">CodeableConcept</text>
</a>
</g>
<line stroke="Black" stroke-width="1.875" marker-end="url(#arrowEnd)" x1="691.5" y1="365.625" x2="736.5" y2="365.625" />
<line stroke="Black" stroke-width="1.875" marker-start="url(#arrowStart)" x1="676.5" y1="356.25" x2="691.5" y2="356.25" />
<line stroke="Black" stroke-width="1.875" x1="691.5" y1="356.25" x2="691.5" y2="365.625" />
</g>
<g>
<g transform="translate(736.5 330)">
<rect fill="LightGreen" stroke="Black" stroke-width="1.875" x="0" y="0" width="99" height="71.25" rx="3.75" ry="3.75" />
<a href="./ValueSet-ObservedChangesVS.html" target="_top">
<text x="49.5" y="22.5" text-anchor="middle">Observed</text>
</a>
<a href="./ValueSet-ObservedChangesVS.html" target="_top">
<text x="49.5" y="41.25" text-anchor="middle">Change</text>
</a>
<a href="./ValueSet-ObservedChangesVS.html" target="_top">
<text x="49.5" y="60" text-anchor="middle">ValueSet</text>
</a>
</g>
</g>
<g>
<g transform="translate(346.5 408.75)">
<a href="StructureDefinition-MGAbnormalityCalcification-definitions.html#Observation.component:biRadsAssessmentCategory" target="_top">
<rect fill="LightYellow" stroke="Black" stroke-width="1.875" x="0" y="0" width="287.99997" height="52.5" rx="3.75" ry="3.75" />
</a>
<a href="StructureDefinition-MGAbnormalityCalcification-definitions.html#Observation.component:biRadsAssessmentCategory" target="_top">
<text x="143.99998" y="22.5" text-anchor="middle">BiRads Assessment Category</text>
</a>
<a href="StructureDefinition-MGAbnormalityCalcification-definitions.html#Observation.component:biRadsAssessmentCategory" target="_top">
<text x="143.99998" y="41.25" text-anchor="middle">CodeableConcept</text>
</a>
</g>
<line stroke="Black" stroke-width="1.875" marker-end="url(#arrowEnd)" x1="649.5" y1="435" x2="694.5" y2="435" />
<line stroke="Black" stroke-width="1.875" marker-start="url(#arrowStart)" x1="634.5" y1="435" x2="649.5" y2="435" />
<line stroke="Black" stroke-width="1.875" x1="649.5" y1="435" x2="649.5" y2="435" />
</g>
<g>
<g transform="translate(694.5 408.75)">
<rect fill="LightGreen" stroke="Black" stroke-width="1.875" x="0" y="0" width="99" height="52.5" rx="3.75" ry="3.75" />
<a href="./ValueSet-BiRadsAssessmentCategoriesVS.html" target="_top">
<text x="49.5" y="22.5" text-anchor="middle">BiRads</text>
</a>
<a href="./ValueSet-BiRadsAssessmentCategoriesVS.html" target="_top">
<text x="49.5" y="41.25" text-anchor="middle">ValueSet</text>
</a>
</g>
</g>
<g>
<g transform="translate(346.5 468.75)">
<a href="StructureDefinition-MGAbnormalityCalcification-definitions.html#Observation.component:notPreviouslySeen" target="_top">
<rect fill="LightYellow" stroke="Black" stroke-width="1.875" x="0" y="0" width="214.5" height="52.5" rx="3.75" ry="3.75" />
</a>
<a href="StructureDefinition-MGAbnormalityCalcification-definitions.html#Observation.component:notPreviouslySeen" target="_top">
<text x="107.25" y="22.5" text-anchor="middle">Not Previously Seen</text>
</a>
<a href="StructureDefinition-MGAbnormalityCalcification-definitions.html#Observation.component:notPreviouslySeen" target="_top">
<text x="107.25" y="41.25" text-anchor="middle">CodeableConcept</text>
</a>
</g>
<line stroke="Black" stroke-width="1.875" marker-end="url(#arrowEnd)" x1="576" y1="495" x2="621" y2="495" />
<line stroke="Black" stroke-width="1.875" marker-start="url(#arrowStart)" x1="561" y1="495" x2="576" y2="495" />
<line stroke="Black" stroke-width="1.875" x1="576" y1="495" x2="576" y2="495" />
</g>
<g>
<g transform="translate(621 468.75)">
<rect fill="LightGreen" stroke="Black" stroke-width="1.875" x="0" y="0" width="193.5" height="52.5" rx="3.75" ry="3.75" />
<a href="./ValueSet-NotPreviouslySeenVS.html" target="_top">
<text x="96.75" y="22.5" text-anchor="middle">NotPreviouslySeen</text>
</a>
<a href="./ValueSet-NotPreviouslySeenVS.html" target="_top">
<text x="96.75" y="41.25" text-anchor="middle">ValueSet</text>
</a>
</g>
</g>
<g>
<g transform="translate(346.5 528.75)">
<a href="StructureDefinition-MGAbnormalityCalcification-definitions.html#Observation.component:observedCount" target="_top">
<rect fill="LightYellow" stroke="Black" stroke-width="1.875" x="0" y="0" width="193.5" height="52.5" rx="3.75" ry="3.75" />
</a>
<a href="StructureDefinition-MGAbnormalityCalcification-definitions.html#Observation.component:observedCount" target="_top">
<text x="96.75" y="22.5" text-anchor="middle">Observed Count</text>
</a>
<a href="StructureDefinition-MGAbnormalityCalcification-definitions.html#Observation.component:observedCount" target="_top">
<text x="96.75" y="41.25" text-anchor="middle">Quantity or Range</text>
</a>
</g>
</g>
<g>
<g transform="translate(346.5 588.75)">
<a href="StructureDefinition-MGAbnormalityCalcification-definitions.html#Observation.component:correspondsWith" target="_top">
<rect fill="LightYellow" stroke="Black" stroke-width="1.875" x="0" y="0" width="183" height="52.5" rx="3.75" ry="3.75" />
</a>
<a href="StructureDefinition-MGAbnormalityCalcification-definitions.html#Observation.component:correspondsWith" target="_top">
<text x="91.5" y="22.5" text-anchor="middle">Corresponds With</text>
</a>
<a href="StructureDefinition-MGAbnormalityCalcification-definitions.html#Observation.component:correspondsWith" target="_top">
<text x="91.5" y="41.25" text-anchor="middle">CodeableConcept</text>
</a>
</g>
<line stroke="Black" stroke-width="1.875" marker-end="url(#arrowEnd)" x1="544.5" y1="615" x2="589.5" y2="615" />
<line stroke="Black" stroke-width="1.875" marker-start="url(#arrowStart)" x1="529.5" y1="615" x2="544.5" y2="615" />
<line stroke="Black" stroke-width="1.875" x1="544.5" y1="615" x2="544.5" y2="615" />
</g>
<g>
<g transform="translate(589.5 588.75)">
<rect fill="LightGreen" stroke="Black" stroke-width="1.875" x="0" y="0" width="172.5" height="52.5" rx="3.75" ry="3.75" />
<a href="./ValueSet-CorrespondsWithVS.html" target="_top">
<text x="86.25" y="22.5" text-anchor="middle">CorrespondsWith</text>
</a>
<a href="./ValueSet-CorrespondsWithVS.html" target="_top">
<text x="86.25" y="41.25" text-anchor="middle">ValueSet</text>
</a>
</g>
</g>
<g>
<g transform="translate(346.5 648.75)">
<a href="StructureDefinition-MGAbnormalityCalcification-definitions.html#Observation.bodySite.extension:breastBodyLocation" target="_top">
<rect fill="LightSalmon" stroke="Black" stroke-width="1.875" x="0" y="0" width="225" height="52.5" rx="3.75" ry="3.75" />
</a>
<a href="StructureDefinition-MGAbnormalityCalcification-definitions.html#Observation.bodySite.extension:breastBodyLocation" target="_top">
<text x="112.5" y="22.5" text-anchor="middle">Breast Body Location</text>
</a>
<a href="StructureDefinition-MGAbnormalityCalcification-definitions.html#Observation.bodySite.extension:breastBodyLocation" target="_top">
<text x="112.5" y="41.25" text-anchor="middle">extension</text>
</a>
</g>
<line stroke="Black" stroke-width="1.875" marker-end="url(#arrowEnd)" x1="586.5" y1="665.625" x2="631.5" y2="665.625" />
<line stroke="Black" stroke-width="1.875" marker-start="url(#arrowStart)" x1="571.5" y1="675" x2="586.5" y2="675" />
<line stroke="Black" stroke-width="1.875" x1="586.5" y1="665.625" x2="586.5" y2="675" />
</g>
<g>
<g transform="translate(631.5 648.75)">
<rect fill="LightCyan" stroke="Black" stroke-width="1.875" x="0" y="0" width="183" height="33.75" rx="3.75" ry="3.75" />
<a href="./StructureDefinition-BreastBodyLocationExtension.html" target="_top">
<text x="91.5" y="22.5" text-anchor="middle">Breast Body Loc.</text>
</a>
</g>
</g>
</svg>
