<?xml version="1.0"?>
<!DOCTYPE svg PUBLIC "-//W3C//DTD SVG 1.1//EN" "http://www.w3.org/Graphics/SVG/1.1/DTD/svg11.dtd">
<svg xmlns="http://www.w3.org/2000/svg" version="1.1" width="736.5" height="221.25">
<defs>
<marker id="arrowStart" markerWidth="3.75" markerHeight="3.75" markerUnits="px" refX="1.875" refY="1.875">
<circle fill="Black" stroke-width="0" cx="1.875" cy="1.875" r="1.875" />
</marker>
<marker id="arrowEnd" markerWidth="7.5" markerHeight="7.5" markerUnits="px" refX="7.5" refY="3.75">
<polygon fill="Black" stroke-width="0" points="0 0 7.5 3.75 0 7.5" />
</marker>
</defs>
<g>
<g transform="translate(7.5 7.5)">
<rect fill="White" stroke="Black" stroke-width="1.875" x="0" y="0" width="130.5" height="71.25" rx="3.75" ry="3.75" />
<text x="65.25" y="22.5" text-anchor="middle">Breast</text>
<text x="65.25" y="41.25" text-anchor="middle">Radiology</text>
<text x="65.25" y="60" text-anchor="middle">Composition</text>
</g>
<line stroke="Black" stroke-width="1.875" marker-end="url(#arrowEnd)" x1="153" y1="33.75" x2="198" y2="33.75" />
<text x="156.75" y="30" text-anchor="left">0..*</text>
<line stroke="Black" stroke-width="1.875" marker-end="url(#arrowEnd)" x1="153" y1="93.75" x2="198" y2="93.75" />
<text x="156.75" y="90" text-anchor="left">0..*</text>
<line stroke="Black" stroke-width="1.875" marker-end="url(#arrowEnd)" x1="153" y1="153.75" x2="198" y2="153.75" />
<text x="156.75" y="150" text-anchor="left">1..1</text>
<line stroke="Black" stroke-width="1.875" marker-start="url(#arrowStart)" x1="138" y1="43.125" x2="153" y2="43.125" />
<line stroke="Black" stroke-width="1.875" x1="153" y1="33.75" x2="153" y2="153.75" />
</g>
<g>
<g transform="translate(198 7.5)">
<a href="StructureDefinition-BreastRadComposition-definitions.html#Composition.section:impressions" target="_top">
<rect fill="LightYellow" stroke="Black" stroke-width="1.875" x="0" y="0" width="214.5" height="52.5" rx="3.75" ry="3.75" />
</a>
<a href="StructureDefinition-BreastRadComposition-definitions.html#Composition.section:impressions" target="_top">
<text x="107.25" y="22.5" text-anchor="middle">Impressions Section</text>
</a>
<a href="StructureDefinition-BreastRadComposition-definitions.html#Composition.section:impressions" target="_top">
<text x="107.25" y="41.25" text-anchor="middle">Section</text>
</a>
</g>
<line stroke="Black" stroke-width="1.875" marker-end="url(#arrowEnd)" x1="427.5" y1="24.375" x2="472.5" y2="24.375" />
<line stroke="Black" stroke-width="1.875" marker-start="url(#arrowStart)" x1="412.5" y1="33.75" x2="427.5" y2="33.75" />
<line stroke="Black" stroke-width="1.875" x1="427.5" y1="24.375" x2="427.5" y2="33.75" />
</g>
<g>
<g transform="translate(472.5 7.5)">
<rect fill="LightCyan" stroke="Black" stroke-width="1.875" x="0" y="0" width="203.99998" height="33.75" rx="3.75" ry="3.75" />
<a href="http://hl7.org/fhir/StructureDefinition/ClinicalImpression" target="_top">
<text x="101.99999" y="22.5" text-anchor="middle">ClinicalImpression</text>
</a>
</g>
</g>
<g>
<g transform="translate(198 67.5)">
<a href="StructureDefinition-BreastRadComposition-definitions.html#Composition.section:relatedResources" target="_top">
<rect fill="LightYellow" stroke="Black" stroke-width="1.875" x="0" y="0" width="287.99997" height="52.5" rx="3.75" ry="3.75" />
</a>
<a href="StructureDefinition-BreastRadComposition-definitions.html#Composition.section:relatedResources" target="_top">
<text x="143.99998" y="22.5" text-anchor="middle">Releated Resources Section</text>
</a>
<a href="StructureDefinition-BreastRadComposition-definitions.html#Composition.section:relatedResources" target="_top">
<text x="143.99998" y="41.25" text-anchor="middle">Section</text>
</a>
</g>
<line stroke="Black" stroke-width="1.875" marker-end="url(#arrowEnd)" x1="500.99997" y1="84.375" x2="545.99994" y2="84.375" />
<line stroke="Black" stroke-width="1.875" marker-start="url(#arrowStart)" x1="485.99997" y1="93.75" x2="500.99997" y2="93.75" />
<line stroke="Black" stroke-width="1.875" x1="500.99997" y1="84.375" x2="500.99997" y2="93.75" />
</g>
<g>
<g transform="translate(545.99994 67.5)">
<rect fill="LightCyan" stroke="Black" stroke-width="1.875" x="0" y="0" width="99" height="33.75" rx="3.75" ry="3.75" />
<a href="http://hl7.org/fhir/StructureDefinition/Resource" target="_top">
<text x="49.5" y="22.5" text-anchor="middle">Resource</text>
</a>
</g>
</g>
<g>
<g transform="translate(198 127.5)">
<a href="StructureDefinition-BreastRadComposition-definitions.html#Composition.section:report" target="_top">
<rect fill="LightYellow" stroke="Black" stroke-width="1.875" x="0" y="0" width="162" height="52.5" rx="3.75" ry="3.75" />
</a>
<a href="StructureDefinition-BreastRadComposition-definitions.html#Composition.section:report" target="_top">
<text x="81" y="22.5" text-anchor="middle">Report Section</text>
</a>
<a href="StructureDefinition-BreastRadComposition-definitions.html#Composition.section:report" target="_top">
<text x="81" y="41.25" text-anchor="middle">Section</text>
</a>
</g>
<line stroke="Black" stroke-width="1.875" marker-end="url(#arrowEnd)" x1="375" y1="163.125" x2="420" y2="163.125" />
<line stroke="Black" stroke-width="1.875" marker-start="url(#arrowStart)" x1="360" y1="153.75" x2="375" y2="153.75" />
<line stroke="Black" stroke-width="1.875" x1="375" y1="153.75" x2="375" y2="163.125" />
</g>
<g>
<g transform="translate(420 127.5)">
<rect fill="LightCyan" stroke="Black" stroke-width="1.875" x="0" y="0" width="109.49999" height="71.25" rx="3.75" ry="3.75" />
<a href="./StructureDefinition-BreastRadReport.html" target="_top">
<text x="54.749996" y="22.5" text-anchor="middle">Breast</text>
</a>
<a href="./StructureDefinition-BreastRadReport.html" target="_top">
<text x="54.749996" y="41.25" text-anchor="middle">Radiology</text>
</a>
<a href="./StructureDefinition-BreastRadReport.html" target="_top">
<text x="54.749996" y="60" text-anchor="middle">Report</text>
</a>
</g>
</g>
</svg>
