<?xml version="1.0"?>
<?xml-stylesheet type="text/css" href="FocusGraph.css" ?>
<!DOCTYPE svg PUBLIC "-//W3C//DTD SVG 1.1//EN" "http://www.w3.org/Graphics/SVG/1.1/DTD/svg11.dtd">
<svg xmlns="http://www.w3.org/2000/svg" version="1.1" width="952.56" height="558.75">
<defs>
<marker id="arrowStart" markerWidth="3.75" markerHeight="3.75" markerUnits="px" refX="1.88" refY="1.88">
<circle class="connector" cx="1.88" cy="1.88" r="1.88" />
</marker>
<marker id="arrowEnd" markerWidth="7.5" markerHeight="7.5" markerUnits="px" refX="7.5" refY="3.75">
<polygon class="connector" points="0 0 7.5 3.75 0 7.5" />
</marker>
</defs>
<g>
<g transform="translate(3.75 3.75)">
<a href="StructureDefinition-ArchitecturalDistortionAbnormality.html" target="_top">
<rect class="profile" x="0" y="0" width="178.6" height="26.25" rx="3.75" ry="3.75" />
</a>
<a href="StructureDefinition-ArchitecturalDistortionAbnormality.html" target="_top">
<title />
<text x="5.62" y="18.75" text-anchor="left" class="profile">Architectural Distortion</text>
</a>
</g>
<g transform="translate(3.75 37.5)">
<a href="StructureDefinition-AssociatedFeature.html" target="_top">
<rect class="profile" x="0" y="0" width="154.82" height="26.25" rx="3.75" ry="3.75" />
</a>
<a href="StructureDefinition-AssociatedFeature.html" target="_top">
<title />
<text x="5.62" y="18.75" text-anchor="left" class="profile">Associated Feature</text>
</a>
</g>
<g transform="translate(3.75 71.25)">
<a href="StructureDefinition-AsymmetryAbnormality.html" target="_top">
<rect class="profile" x="0" y="0" width="95.23" height="26.25" rx="3.75" ry="3.75" />
</a>
<a href="StructureDefinition-AsymmetryAbnormality.html" target="_top">
<title />
<text x="5.62" y="18.75" text-anchor="left" class="profile">Asymmetry</text>
</a>
</g>
<g transform="translate(3.75 105)">
<a href="StructureDefinition-CalcificationAbnormality.html" target="_top">
<rect class="profile" x="0" y="0" width="101.68" height="26.25" rx="3.75" ry="3.75" />
</a>
<a href="StructureDefinition-CalcificationAbnormality.html" target="_top">
<title />
<text x="5.62" y="18.75" text-anchor="left" class="profile">Calcification</text>
</a>
</g>
<g transform="translate(3.75 138.75)">
<a href="StructureDefinition-CystAbnormality.html" target="_top">
<rect class="profile" x="0" y="0" width="45.79" height="26.25" rx="3.75" ry="3.75" />
</a>
<a href="StructureDefinition-CystAbnormality.html" target="_top">
<title />
<text x="5.62" y="18.75" text-anchor="left" class="profile">Cyst</text>
</a>
</g>
<g transform="translate(3.75 172.5)">
<a href="StructureDefinition-DensityAbnormality.html" target="_top">
<rect class="profile" x="0" y="0" width="67.79" height="26.25" rx="3.75" ry="3.75" />
</a>
<a href="StructureDefinition-DensityAbnormality.html" target="_top">
<title />
<text x="5.62" y="18.75" text-anchor="left" class="profile">Density</text>
</a>
</g>
<g transform="translate(3.75 206.25)">
<a href="StructureDefinition-DuctAbnormality.html" target="_top">
<rect class="profile" x="0" y="0" width="46.72" height="26.25" rx="3.75" ry="3.75" />
</a>
<a href="StructureDefinition-DuctAbnormality.html" target="_top">
<title />
<text x="5.62" y="18.75" text-anchor="left" class="profile">Duct</text>
</a>
</g>
<g transform="translate(3.75 240)">
<a href="StructureDefinition-FatNecrosisAbnormality.html" target="_top">
<rect class="profile" x="0" y="0" width="105.33" height="26.25" rx="3.75" ry="3.75" />
</a>
<a href="StructureDefinition-FatNecrosisAbnormality.html" target="_top">
<title />
<text x="5.62" y="18.75" text-anchor="left" class="profile">Fat Necrosis</text>
</a>
</g>
<g transform="translate(3.75 273.75)">
<a href="StructureDefinition-FibroadenomaAbnormality.html" target="_top">
<rect class="profile" x="0" y="0" width="119.09" height="26.25" rx="3.75" ry="3.75" />
</a>
<a href="StructureDefinition-FibroadenomaAbnormality.html" target="_top">
<title />
<text x="5.62" y="18.75" text-anchor="left" class="profile">Fibroadenoma</text>
</a>
</g>
<g transform="translate(3.75 307.5)">
<a href="StructureDefinition-ForeignObjectAbnormality.html" target="_top">
<rect class="profile" x="0" y="0" width="120.92" height="26.25" rx="3.75" ry="3.75" />
</a>
<a href="StructureDefinition-ForeignObjectAbnormality.html" target="_top">
<title />
<text x="5.62" y="18.75" text-anchor="left" class="profile">Foreign Object</text>
</a>
</g>
<g transform="translate(3.75 341.25)">
<a href="StructureDefinition-LymphNodeAbnormality.html" target="_top">
<rect class="profile" x="0" y="0" width="106.26" height="26.25" rx="3.75" ry="3.75" />
</a>
<a href="StructureDefinition-LymphNodeAbnormality.html" target="_top">
<title />
<text x="5.62" y="18.75" text-anchor="left" class="profile">Lymph Node</text>
</a>
</g>
<g transform="translate(3.75 375)">
<a href="StructureDefinition-MassAbnormality.html" target="_top">
<rect class="profile" x="0" y="0" width="52.21" height="26.25" rx="3.75" ry="3.75" />
</a>
<a href="StructureDefinition-MassAbnormality.html" target="_top">
<title />
<text x="5.62" y="18.75" text-anchor="left" class="profile">Mass</text>
</a>
</g>
<g transform="translate(3.75 408.75)">
<a href="StructureDefinition-SkinLesionAbnormality.html" target="_top">
<rect class="profile" x="0" y="0" width="98.04" height="26.25" rx="3.75" ry="3.75" />
</a>
<a href="StructureDefinition-SkinLesionAbnormality.html" target="_top">
<title />
<text x="5.62" y="18.75" text-anchor="left" class="profile">Skin Lesion</text>
</a>
</g>
<line class="connector" marker-end="url(#arrowEnd)" x1="212.35" y1="16.88" x2="242.35" y2="16.88" />
<line class="connector" marker-start="url(#arrowStart)" x1="182.35" y1="16.88" x2="212.35" y2="16.88" />
<line class="connector" marker-start="url(#arrowStart)" x1="158.57" y1="50.62" x2="212.35" y2="50.62" />
<line class="connector" marker-start="url(#arrowStart)" x1="98.98" y1="84.38" x2="212.35" y2="84.38" />
<line class="connector" marker-start="url(#arrowStart)" x1="105.43" y1="118.12" x2="212.35" y2="118.12" />
<line class="connector" marker-start="url(#arrowStart)" x1="49.54" y1="151.88" x2="212.35" y2="151.88" />
<line class="connector" marker-start="url(#arrowStart)" x1="71.54" y1="185.62" x2="212.35" y2="185.62" />
<line class="connector" marker-start="url(#arrowStart)" x1="50.47" y1="219.38" x2="212.35" y2="219.38" />
<line class="connector" marker-start="url(#arrowStart)" x1="109.08" y1="253.12" x2="212.35" y2="253.12" />
<line class="connector" marker-start="url(#arrowStart)" x1="122.84" y1="286.88" x2="212.35" y2="286.88" />
<line class="connector" marker-start="url(#arrowStart)" x1="124.67" y1="320.62" x2="212.35" y2="320.62" />
<line class="connector" marker-start="url(#arrowStart)" x1="110.01" y1="354.38" x2="212.35" y2="354.38" />
<line class="connector" marker-start="url(#arrowStart)" x1="55.96" y1="388.12" x2="212.35" y2="388.12" />
<line class="connector" marker-start="url(#arrowStart)" x1="101.79" y1="421.88" x2="212.35" y2="421.88" />
<line class="connector" x1="212.35" y1="16.88" x2="212.35" y2="421.88" />
</g>
<g>
<g transform="translate(242.35 3.75)">
<a href="StructureDefinition-BreastBodyLocationExtension.html" target="_top">
<rect class="focus" x="0" y="0" width="160.33" height="26.25" rx="3.75" ry="3.75" />
</a>
<a href="StructureDefinition-BreastBodyLocationExtension.html" target="_top">
<title />
<text x="5.62" y="18.75" text-anchor="left" class="focus">BreastBodyLocation</text>
</a>
</g>
<line class="connector" marker-end="url(#arrowEnd)" x1="432.67" y1="16.88" x2="492.67" y2="16.88" />
<text x="436.42" y="13.12" text-anchor="right" class="lhsText">0..1</text>
<line class="connector" marker-end="url(#arrowEnd)" x1="432.67" y1="50.62" x2="492.67" y2="50.62" />
<text x="436.42" y="46.88" text-anchor="right" class="lhsText">0..1</text>
<line class="connector" marker-end="url(#arrowEnd)" x1="432.67" y1="84.38" x2="492.67" y2="84.38" />
<text x="436.42" y="80.62" text-anchor="right" class="lhsText">0..*</text>
<line class="connector" marker-end="url(#arrowEnd)" x1="432.67" y1="118.12" x2="492.67" y2="118.12" />
<text x="436.42" y="114.38" text-anchor="right" class="lhsText">0..*</text>
<line class="connector" marker-end="url(#arrowEnd)" x1="432.67" y1="151.88" x2="492.67" y2="151.88" />
<text x="436.42" y="148.12" text-anchor="right" class="lhsText">0..1</text>
<line class="connector" marker-end="url(#arrowEnd)" x1="432.67" y1="185.62" x2="492.67" y2="185.62" />
<text x="436.42" y="181.88" text-anchor="right" class="lhsText">0..1</text>
<line class="connector" marker-end="url(#arrowEnd)" x1="432.67" y1="219.38" x2="492.67" y2="219.38" />
<text x="436.42" y="215.62" text-anchor="right" class="lhsText">0..1</text>
<line class="connector" marker-start="url(#arrowStart)" x1="402.67" y1="16.88" x2="432.67" y2="16.88" />
<line class="connector" x1="432.67" y1="16.88" x2="432.67" y2="219.38" />
</g>
<g>
<g transform="translate(492.67 3.75)">
<a href="StructureDefinition-BreastBodyLocationExtension-definitions.html#Extension.extension:clockDirection" target="_top">
<rect class="element" x="0" y="0" width="117.26" height="26.25" rx="3.75" ry="3.75" />
</a>
<a href="StructureDefinition-BreastBodyLocationExtension-definitions.html#Extension.extension:clockDirection" target="_top">
<title />
<text x="5.62" y="18.75" text-anchor="left" class="element">Clock Position</text>
</a>
</g>
<line class="connector" marker-end="url(#arrowEnd)" x1="639.93" y1="16.88" x2="699.93" y2="16.88" />
<text x="643.68" y="13.12" text-anchor="right" class="lhsText">bind</text>
<line class="connector" marker-start="url(#arrowStart)" x1="609.93" y1="16.88" x2="639.93" y2="16.88" />
<line class="connector" x1="639.93" y1="16.88" x2="639.93" y2="16.88" />
</g>
<g>
<g transform="translate(699.93 3.75)">
<a href="ValueSet-rde1558-location.html" target="_top">
<rect class="valueSet" x="0" y="0" width="155.75" height="26.25" rx="3.75" ry="3.75" />
</a>
<a href="ValueSet-rde1558-location.html" target="_top">
<title />
<text x="5.62" y="18.75" text-anchor="left" class="valueSet">RDE1558_Location</text>
</a>
</g>
</g>
<g>
<g transform="translate(492.67 37.5)">
<a href="StructureDefinition-BreastBodyLocationExtension-definitions.html#Extension.extension:depth" target="_top">
<rect class="element" x="0" y="0" width="56.8" height="26.25" rx="3.75" ry="3.75" />
</a>
<a href="StructureDefinition-BreastBodyLocationExtension-definitions.html#Extension.extension:depth" target="_top">
<title />
<text x="5.62" y="18.75" text-anchor="left" class="element">Depth</text>
</a>
</g>
<line class="connector" marker-end="url(#arrowEnd)" x1="579.48" y1="50.62" x2="639.48" y2="50.62" />
<text x="583.23" y="46.88" text-anchor="right" class="lhsText">bind</text>
<line class="connector" marker-start="url(#arrowStart)" x1="549.48" y1="50.62" x2="579.48" y2="50.62" />
<line class="connector" x1="579.48" y1="50.62" x2="579.48" y2="50.62" />
</g>
<g>
<g transform="translate(639.48 37.5)">
<a href="ValueSet-rde1559-depth.html" target="_top">
<rect class="valueSet" x="0" y="0" width="137.41" height="26.25" rx="3.75" ry="3.75" />
</a>
<a href="ValueSet-rde1559-depth.html" target="_top">
<title />
<text x="5.62" y="18.75" text-anchor="left" class="valueSet">RDE1559_Depth</text>
</a>
</g>
</g>
<g>
<g transform="translate(492.67 71.25)">
<a href="StructureDefinition-BreastBodyLocationExtension-definitions.html#Extension.extension:distanceFromLandmark" target="_top">
<rect class="element" x="0" y="0" width="188.67" height="26.25" rx="3.75" ry="3.75" />
</a>
<a href="StructureDefinition-BreastBodyLocationExtension-definitions.html#Extension.extension:distanceFromLandmark" target="_top">
<title />
<text x="5.62" y="18.75" text-anchor="left" class="element">DistanceFromLandmark</text>
</a>
</g>
</g>
<g>
<g transform="translate(492.67 105)">
<a href="StructureDefinition-BreastBodyLocationExtension-definitions.html#Extension.extension:landmark" target="_top">
<rect class="element" x="0" y="0" width="86.11" height="26.25" rx="3.75" ry="3.75" />
</a>
<a href="StructureDefinition-BreastBodyLocationExtension-definitions.html#Extension.extension:landmark" target="_top">
<title />
<text x="5.62" y="18.75" text-anchor="left" class="element">Landmark</text>
</a>
</g>
<line class="connector" marker-end="url(#arrowEnd)" x1="608.78" y1="118.12" x2="668.78" y2="118.12" />
<text x="612.53" y="114.38" text-anchor="right" class="lhsText">bind</text>
<line class="connector" marker-start="url(#arrowStart)" x1="578.78" y1="118.12" x2="608.78" y2="118.12" />
<line class="connector" x1="608.78" y1="118.12" x2="608.78" y2="118.12" />
</g>
<g>
<g transform="translate(668.78 105)">
<a href="ValueSet-rde1560-breast-body-landmark.html" target="_top">
<rect class="valueSet" x="0" y="0" width="251.9" height="26.25" rx="3.75" ry="3.75" />
</a>
<a href="ValueSet-rde1560-breast-body-landmark.html" target="_top">
<title />
<text x="5.62" y="18.75" text-anchor="left" class="valueSet">RDE1560_BreastBodyLandmark</text>
</a>
</g>
</g>
<g>
<g transform="translate(492.67 138.75)">
<a href="StructureDefinition-BreastBodyLocationExtension-definitions.html#Extension.extension:laterality" target="_top">
<rect class="element" x="0" y="0" width="79.7" height="26.25" rx="3.75" ry="3.75" />
</a>
<a href="StructureDefinition-BreastBodyLocationExtension-definitions.html#Extension.extension:laterality" target="_top">
<title />
<text x="5.62" y="18.75" text-anchor="left" class="element">Laterality</text>
</a>
</g>
<line class="connector" marker-end="url(#arrowEnd)" x1="602.37" y1="151.88" x2="662.37" y2="151.88" />
<text x="606.12" y="148.12" text-anchor="right" class="lhsText">bind</text>
<line class="connector" marker-start="url(#arrowStart)" x1="572.37" y1="151.88" x2="602.37" y2="151.88" />
<line class="connector" x1="602.37" y1="151.88" x2="602.37" y2="151.88" />
</g>
<g>
<g transform="translate(662.37 138.75)">
<a href="ValueSet-rde1557-side.html" target="_top">
<rect class="valueSet" x="0" y="0" width="126.43" height="26.25" rx="3.75" ry="3.75" />
</a>
<a href="ValueSet-rde1557-side.html" target="_top">
<title />
<text x="5.62" y="18.75" text-anchor="left" class="valueSet">RDE1557_Side</text>
</a>
</g>
</g>
<g>
<g transform="translate(492.67 172.5)">
<a href="StructureDefinition-BreastBodyLocationExtension-definitions.html#Extension.extension:quadrant" target="_top">
<rect class="element" x="0" y="0" width="81.54" height="26.25" rx="3.75" ry="3.75" />
</a>
<a href="StructureDefinition-BreastBodyLocationExtension-definitions.html#Extension.extension:quadrant" target="_top">
<title />
<text x="5.62" y="18.75" text-anchor="left" class="element">Quadrant</text>
</a>
</g>
<line class="connector" marker-end="url(#arrowEnd)" x1="604.21" y1="185.62" x2="664.21" y2="185.62" />
<text x="607.96" y="181.88" text-anchor="right" class="lhsText">bind</text>
<line class="connector" marker-start="url(#arrowStart)" x1="574.21" y1="185.62" x2="604.21" y2="185.62" />
<line class="connector" x1="604.21" y1="185.62" x2="604.21" y2="185.62" />
</g>
<g>
<g transform="translate(664.21 172.5)">
<a href="ValueSet-rde1563-quadrant.html" target="_top">
<rect class="valueSet" x="0" y="0" width="162.15" height="26.25" rx="3.75" ry="3.75" />
</a>
<a href="ValueSet-rde1563-quadrant.html" target="_top">
<title />
<text x="5.62" y="18.75" text-anchor="left" class="valueSet">RDE1563_Quadrant</text>
</a>
</g>
</g>
<g>
<g transform="translate(492.67 206.25)">
<a href="StructureDefinition-BreastBodyLocationExtension-definitions.html#Extension.extension:region" target="_top">
<rect class="element" x="0" y="0" width="65.05" height="26.25" rx="3.75" ry="3.75" />
</a>
<a href="StructureDefinition-BreastBodyLocationExtension-definitions.html#Extension.extension:region" target="_top">
<title />
<text x="5.62" y="18.75" text-anchor="left" class="element">Region</text>
</a>
</g>
<line class="connector" marker-end="url(#arrowEnd)" x1="587.73" y1="219.38" x2="647.73" y2="219.38" />
<text x="591.48" y="215.62" text-anchor="right" class="lhsText">bind</text>
<line class="connector" marker-start="url(#arrowStart)" x1="557.73" y1="219.38" x2="587.73" y2="219.38" />
<line class="connector" x1="587.73" y1="219.38" x2="587.73" y2="219.38" />
</g>
<g>
<g transform="translate(647.73 206.25)">
<a href="ValueSet-rde1564-region.html" target="_top">
<rect class="valueSet" x="0" y="0" width="145.66" height="26.25" rx="3.75" ry="3.75" />
</a>
<a href="ValueSet-rde1564-region.html" target="_top">
<title />
<text x="5.62" y="18.75" text-anchor="left" class="valueSet">RDE1564_Region</text>
</a>
</g>
</g>
<g>
<g transform="translate(3.75 517.5)">
<a target="_top">
<rect class="focus" x="0" y="0" width="57.72" height="26.25" rx="3.75" ry="3.75" />
</a>
<a target="_top">
<title />
<text x="5.62" y="18.75" text-anchor="left" class="focus">Focus</text>
</a>
</g>
<g transform="translate(68.97 517.5)">
<a target="_top">
<rect class="profile" x="0" y="0" width="143.81" height="26.25" rx="3.75" ry="3.75" />
</a>
<a target="_top">
<title />
<text x="5.62" y="18.75" text-anchor="left" class="profile">Profiled Resource</text>
</a>
</g>
<g transform="translate(220.28 517.5)">
<a target="_top">
<rect class="element" x="0" y="0" width="148.39" height="26.25" rx="3.75" ry="3.75" />
</a>
<a target="_top">
<title />
<text x="5.62" y="18.75" text-anchor="left" class="element">Resource Element</text>
</a>
</g>
<g transform="translate(376.16 517.5)">
<a target="_top">
<rect class="valueSet" x="0" y="0" width="79.72" height="26.25" rx="3.75" ry="3.75" />
</a>
<a target="_top">
<title />
<text x="5.62" y="18.75" text-anchor="left" class="valueSet">ValueSet</text>
</a>
</g>
</g>
</svg>
