<?xml version="1.0"?>
<?xml-stylesheet type="text/css" href="FocusGraph.css" ?>
<!DOCTYPE svg PUBLIC "-//W3C//DTD SVG 1.1//EN" "http://www.w3.org/Graphics/SVG/1.1/DTD/svg11.dtd">
<svg xmlns="http://www.w3.org/2000/svg" version="1.1" width="1263.375" height="787.5">
<defs>
<marker id="arrowStart" markerWidth="3.75" markerHeight="3.75" markerUnits="px" refX="1.875" refY="1.875">
<circle fill="Black" stroke-width="0" cx="1.875" cy="1.875" r="1.875" />
</marker>
<marker id="arrowEnd" markerWidth="7.5" markerHeight="7.5" markerUnits="px" refX="7.5" refY="3.75">
<polygon fill="Black" stroke-width="0" points="0 0 7.5 3.75 0 7.5" />
</marker>
</defs>
<g>
<g transform="translate(7.5 7.5)">
<a href="StructureDefinition-MGFinding.html" target="_top">
<rect class="profile" fill="White" stroke="Black" stroke-width="1.875" x="0" y="0" width="120" height="33.75" rx="3.75" ry="3.75" />
</a>
<a href="StructureDefinition-MGFinding.html" target="_top">
<text x="60" y="22.5" text-anchor="middle" class="profile">Mg Finding</text>
</a>
</g>
<line stroke="Black" stroke-width="1.875" marker-end="url(#arrowEnd)" x1="157.5" y1="24.375" x2="187.5" y2="24.375" />
<line stroke="Black" stroke-width="1.875" marker-start="url(#arrowStart)" x1="127.5" y1="24.375" x2="157.5" y2="24.375" />
<line stroke="Black" stroke-width="1.875" x1="157.5" y1="24.375" x2="157.5" y2="24.375" />
</g>
<g>
<g transform="translate(187.5 7.5)">
<a href="StructureDefinition-AbnormalityAsymmetry.html" target="_top">
<rect class="focus" fill="White" stroke="Black" stroke-width="1.875" x="0" y="0" width="109.49999" height="33.75" rx="3.75" ry="3.75" />
</a>
<a href="StructureDefinition-AbnormalityAsymmetry.html" target="_top">
<text x="54.749996" y="22.5" text-anchor="middle" class="focus">Asymmetry</text>
</a>
</g>
<line stroke="Black" stroke-width="1.875" marker-end="url(#arrowEnd)" x1="327" y1="24.375" x2="387" y2="24.375" />
<text x="330.75" y="20.625" text-anchor="right" class="lhsText">1..*</text>
<line stroke="Black" stroke-width="1.875" marker-end="url(#arrowEnd)" x1="327" y1="665.625" x2="387" y2="665.625" />
<text x="330.75" y="661.875" text-anchor="right" class="lhsText">1..1</text>
<line stroke="Black" stroke-width="1.875" marker-end="url(#arrowEnd)" x1="327" y1="706.875" x2="387" y2="706.875" />
<text x="330.75" y="703.125" text-anchor="right" class="lhsText">0..*</text>
<line stroke="Black" stroke-width="1.875" marker-start="url(#arrowStart)" x1="297" y1="24.375" x2="327" y2="24.375" />
<line stroke="Black" stroke-width="1.875" x1="327" y1="24.375" x2="327" y2="706.875" />
</g>
<g>
<g transform="translate(387 7.5)">
<a href="StructureDefinition-AbnormalityAsymmetry-definitions.html#Observation.component" target="_top">
<rect class="element" fill="White" stroke="Black" stroke-width="1.875" x="0" y="0" width="120" height="33.75" rx="3.75" ry="3.75" />
</a>
<a href="StructureDefinition-AbnormalityAsymmetry-definitions.html#Observation.component" target="_top">
<text x="60" y="22.5" text-anchor="middle" class="element">Components</text>
</a>
</g>
<line stroke="Black" stroke-width="1.875" marker-end="url(#arrowEnd)" x1="537" y1="24.375" x2="597" y2="24.375" />
<text x="540.75" y="20.625" text-anchor="right" class="lhsText">1..1</text>
<line stroke="Black" stroke-width="1.875" marker-end="url(#arrowEnd)" x1="537" y1="84.375" x2="597" y2="84.375" />
<text x="540.75" y="80.625" text-anchor="right" class="lhsText">0..*</text>
<line stroke="Black" stroke-width="1.875" marker-end="url(#arrowEnd)" x1="537" y1="144.375" x2="597" y2="144.375" />
<text x="540.75" y="140.625" text-anchor="right" class="lhsText">0..1</text>
<line stroke="Black" stroke-width="1.875" marker-end="url(#arrowEnd)" x1="537" y1="204.375" x2="597" y2="204.375" />
<text x="540.75" y="200.625" text-anchor="right" class="lhsText">0..1</text>
<line stroke="Black" stroke-width="1.875" marker-end="url(#arrowEnd)" x1="537" y1="264.375" x2="597" y2="264.375" />
<text x="540.75" y="260.625" text-anchor="right" class="lhsText">0..1</text>
<line stroke="Black" stroke-width="1.875" marker-end="url(#arrowEnd)" x1="537" y1="324.375" x2="597" y2="324.375" />
<text x="540.75" y="320.625" text-anchor="right" class="lhsText">0..1</text>
<line stroke="Black" stroke-width="1.875" marker-end="url(#arrowEnd)" x1="537" y1="384.375" x2="597" y2="384.375" />
<text x="540.75" y="380.625" text-anchor="right" class="lhsText">0..1</text>
<line stroke="Black" stroke-width="1.875" marker-end="url(#arrowEnd)" x1="537" y1="444.375" x2="597" y2="444.375" />
<text x="540.75" y="440.625" text-anchor="right" class="lhsText">0..*</text>
<line stroke="Black" stroke-width="1.875" marker-end="url(#arrowEnd)" x1="537" y1="504.375" x2="597" y2="504.375" />
<text x="540.75" y="500.625" text-anchor="right" class="lhsText">0..1</text>
<line stroke="Black" stroke-width="1.875" marker-end="url(#arrowEnd)" x1="537" y1="545.625" x2="597" y2="545.625" />
<text x="540.75" y="541.875" text-anchor="right" class="lhsText">0..*</text>
<line stroke="Black" stroke-width="1.875" marker-end="url(#arrowEnd)" x1="537" y1="615" x2="597" y2="615" />
<text x="540.75" y="611.25" text-anchor="right" class="lhsText">0..*</text>
<line stroke="Black" stroke-width="1.875" marker-start="url(#arrowStart)" x1="507" y1="24.375" x2="537" y2="24.375" />
<line stroke="Black" stroke-width="1.875" x1="537" y1="24.375" x2="537" y2="615" />
</g>
<g>
<g transform="translate(597 7.5)">
<a href="StructureDefinition-AbnormalityAsymmetry-definitions.html#Observation.component:asymmetryType" target="_top">
<rect class="element" fill="White" stroke="Black" stroke-width="1.875" x="0" y="0" width="162" height="33.75" rx="3.75" ry="3.75" />
</a>
<a href="StructureDefinition-AbnormalityAsymmetry-definitions.html#Observation.component:asymmetryType" target="_top">
<text x="81" y="22.5" text-anchor="middle" class="element">Asymmetry Type</text>
</a>
</g>
<line stroke="Black" stroke-width="1.875" marker-end="url(#arrowEnd)" x1="789" y1="33.75" x2="849" y2="33.75" />
<text x="792.75" y="30" text-anchor="right" class="lhsText">bind</text>
<line stroke="Black" stroke-width="1.875" marker-start="url(#arrowStart)" x1="759" y1="24.375" x2="789" y2="24.375" />
<line stroke="Black" stroke-width="1.875" x1="789" y1="24.375" x2="789" y2="33.75" />
</g>
<g>
<g transform="translate(849 7.5)">
<a href="ValueSet-AbnormalityAsymmetryTypeVS.html" target="_top">
<rect class="valueSet" fill="White" stroke="Black" stroke-width="1.875" x="0" y="0" width="287.99997" height="52.5" rx="3.75" ry="3.75" />
</a>
<a href="ValueSet-AbnormalityAsymmetryTypeVS.html" target="_top">
<text x="143.99998" y="22.5" text-anchor="middle" class="valueSet">AbnormalityAsymmetryTypeVS</text>
</a>
<a href="ValueSet-AbnormalityAsymmetryTypeVS.html" target="_top">
<text x="143.99998" y="41.25" text-anchor="middle" class="valueSet">ValueSet</text>
</a>
</g>
</g>
<g>
<g transform="translate(597 67.5)">
<a href="StructureDefinition-AbnormalityAsymmetry-definitions.html#Observation.component:obsChanges" target="_top">
<rect class="element" fill="White" stroke="Black" stroke-width="1.875" x="0" y="0" width="183" height="33.75" rx="3.75" ry="3.75" />
</a>
<a href="StructureDefinition-AbnormalityAsymmetry-definitions.html#Observation.component:obsChanges" target="_top">
<text x="91.5" y="22.5" text-anchor="middle" class="element">Observed Changes</text>
</a>
</g>
<line stroke="Black" stroke-width="1.875" marker-end="url(#arrowEnd)" x1="810" y1="93.75" x2="870" y2="93.75" />
<text x="813.75" y="90" text-anchor="right" class="lhsText">bind</text>
<line stroke="Black" stroke-width="1.875" marker-start="url(#arrowStart)" x1="780" y1="84.375" x2="810" y2="84.375" />
<line stroke="Black" stroke-width="1.875" x1="810" y1="84.375" x2="810" y2="93.75" />
</g>
<g>
<g transform="translate(870 67.5)">
<a href="ValueSet-ObservedChangesVS.html" target="_top">
<rect class="valueSet" fill="White" stroke="Black" stroke-width="1.875" x="0" y="0" width="193.5" height="52.5" rx="3.75" ry="3.75" />
</a>
<a href="ValueSet-ObservedChangesVS.html" target="_top">
<text x="96.75" y="22.5" text-anchor="middle" class="valueSet">ObservedChangesVS</text>
</a>
<a href="ValueSet-ObservedChangesVS.html" target="_top">
<text x="96.75" y="41.25" text-anchor="middle" class="valueSet">ValueSet</text>
</a>
</g>
</g>
<g>
<g transform="translate(597 127.5)">
<a href="StructureDefinition-AbnormalityAsymmetry-definitions.html#Observation.component:biRadsAssessmentCategory" target="_top">
<rect class="element" fill="White" stroke="Black" stroke-width="1.875" x="0" y="0" width="130.5" height="33.75" rx="3.75" ry="3.75" />
</a>
<a href="StructureDefinition-AbnormalityAsymmetry-definitions.html#Observation.component:biRadsAssessmentCategory" target="_top">
<text x="65.25" y="22.5" text-anchor="middle" class="element">BiRads Code</text>
</a>
</g>
<line stroke="Black" stroke-width="1.875" marker-end="url(#arrowEnd)" x1="757.5" y1="153.75" x2="817.5" y2="153.75" />
<text x="761.25" y="150" text-anchor="right" class="lhsText">bind</text>
<line stroke="Black" stroke-width="1.875" marker-start="url(#arrowStart)" x1="727.5" y1="144.375" x2="757.5" y2="144.375" />
<line stroke="Black" stroke-width="1.875" x1="757.5" y1="144.375" x2="757.5" y2="153.75" />
</g>
<g>
<g transform="translate(817.5 127.5)">
<a href="ValueSet-BiRadsAssessmentCategoryVS.html" target="_top">
<rect class="valueSet" fill="White" stroke="Black" stroke-width="1.875" x="0" y="0" width="287.99997" height="52.5" rx="3.75" ry="3.75" />
</a>
<a href="ValueSet-BiRadsAssessmentCategoryVS.html" target="_top">
<text x="143.99998" y="22.5" text-anchor="middle" class="valueSet">BiRadsAssessmentCategoryVS</text>
</a>
<a href="ValueSet-BiRadsAssessmentCategoryVS.html" target="_top">
<text x="143.99998" y="41.25" text-anchor="middle" class="valueSet">ValueSet</text>
</a>
</g>
</g>
<g>
<g transform="translate(597 187.5)">
<a href="StructureDefinition-AbnormalityAsymmetry-definitions.html#Observation.component:orientation" target="_top">
<rect class="element" fill="White" stroke="Black" stroke-width="1.875" x="0" y="0" width="130.5" height="33.75" rx="3.75" ry="3.75" />
</a>
<a href="StructureDefinition-AbnormalityAsymmetry-definitions.html#Observation.component:orientation" target="_top">
<text x="65.25" y="22.5" text-anchor="middle" class="element">Orientation</text>
</a>
</g>
<line stroke="Black" stroke-width="1.875" marker-end="url(#arrowEnd)" x1="757.5" y1="213.75" x2="817.5" y2="213.75" />
<text x="761.25" y="210" text-anchor="right" class="lhsText">bind</text>
<line stroke="Black" stroke-width="1.875" marker-start="url(#arrowStart)" x1="727.5" y1="204.375" x2="757.5" y2="204.375" />
<line stroke="Black" stroke-width="1.875" x1="757.5" y1="204.375" x2="757.5" y2="213.75" />
</g>
<g>
<g transform="translate(817.5 187.5)">
<a href="ValueSet-OrientationVS.html" target="_top">
<rect class="valueSet" fill="White" stroke="Black" stroke-width="1.875" x="0" y="0" width="151.49998" height="52.5" rx="3.75" ry="3.75" />
</a>
<a href="ValueSet-OrientationVS.html" target="_top">
<text x="75.74999" y="22.5" text-anchor="middle" class="valueSet">OrientationVS</text>
</a>
<a href="ValueSet-OrientationVS.html" target="_top">
<text x="75.74999" y="41.25" text-anchor="middle" class="valueSet">ValueSet</text>
</a>
</g>
</g>
<g>
<g transform="translate(597 247.5)">
<a href="StructureDefinition-AbnormalityAsymmetry-definitions.html#Observation.component:shape" target="_top">
<rect class="element" fill="White" stroke="Black" stroke-width="1.875" x="0" y="0" width="67.5" height="33.75" rx="3.75" ry="3.75" />
</a>
<a href="StructureDefinition-AbnormalityAsymmetry-definitions.html#Observation.component:shape" target="_top">
<text x="33.75" y="22.5" text-anchor="middle" class="element">Shape</text>
</a>
</g>
<line stroke="Black" stroke-width="1.875" marker-end="url(#arrowEnd)" x1="694.5" y1="273.75" x2="754.5" y2="273.75" />
<text x="698.25" y="270" text-anchor="right" class="lhsText">bind</text>
<line stroke="Black" stroke-width="1.875" marker-start="url(#arrowStart)" x1="664.5" y1="264.375" x2="694.5" y2="264.375" />
<line stroke="Black" stroke-width="1.875" x1="694.5" y1="264.375" x2="694.5" y2="273.75" />
</g>
<g>
<g transform="translate(754.5 247.5)">
<a href="ValueSet-ShapeVS.html" target="_top">
<rect class="valueSet" fill="White" stroke="Black" stroke-width="1.875" x="0" y="0" width="99" height="52.5" rx="3.75" ry="3.75" />
</a>
<a href="ValueSet-ShapeVS.html" target="_top">
<text x="49.5" y="22.5" text-anchor="middle" class="valueSet">ShapeVS</text>
</a>
<a href="ValueSet-ShapeVS.html" target="_top">
<text x="49.5" y="41.25" text-anchor="middle" class="valueSet">ValueSet</text>
</a>
</g>
</g>
<g>
<g transform="translate(597 307.5)">
<a href="StructureDefinition-AbnormalityAsymmetry-definitions.html#Observation.component:margin" target="_top">
<rect class="element" fill="White" stroke="Black" stroke-width="1.875" x="0" y="0" width="78" height="33.75" rx="3.75" ry="3.75" />
</a>
<a href="StructureDefinition-AbnormalityAsymmetry-definitions.html#Observation.component:margin" target="_top">
<text x="39" y="22.5" text-anchor="middle" class="element">Margin</text>
</a>
</g>
<line stroke="Black" stroke-width="1.875" marker-end="url(#arrowEnd)" x1="705" y1="333.75" x2="765" y2="333.75" />
<text x="708.75" y="330" text-anchor="right" class="lhsText">bind</text>
<line stroke="Black" stroke-width="1.875" marker-start="url(#arrowStart)" x1="675" y1="324.375" x2="705" y2="324.375" />
<line stroke="Black" stroke-width="1.875" x1="705" y1="324.375" x2="705" y2="333.75" />
</g>
<g>
<g transform="translate(765 307.5)">
<a href="ValueSet-ShapeVS.html" target="_top">
<rect class="valueSet" fill="White" stroke="Black" stroke-width="1.875" x="0" y="0" width="99" height="52.5" rx="3.75" ry="3.75" />
</a>
<a href="ValueSet-ShapeVS.html" target="_top">
<text x="49.5" y="22.5" text-anchor="middle" class="valueSet">ShapeVS</text>
</a>
<a href="ValueSet-ShapeVS.html" target="_top">
<text x="49.5" y="41.25" text-anchor="middle" class="valueSet">ValueSet</text>
</a>
</g>
</g>
<g>
<g transform="translate(597 367.5)">
<a href="StructureDefinition-AbnormalityAsymmetry-definitions.html#Observation.component:mgBreastDensity" target="_top">
<rect class="element" fill="White" stroke="Black" stroke-width="1.875" x="0" y="0" width="88.5" height="33.75" rx="3.75" ry="3.75" />
</a>
<a href="StructureDefinition-AbnormalityAsymmetry-definitions.html#Observation.component:mgBreastDensity" target="_top">
<text x="44.25" y="22.5" text-anchor="middle" class="element">Density</text>
</a>
</g>
<line stroke="Black" stroke-width="1.875" marker-end="url(#arrowEnd)" x1="715.5" y1="393.75" x2="775.5" y2="393.75" />
<text x="719.25" y="390" text-anchor="right" class="lhsText">bind</text>
<line stroke="Black" stroke-width="1.875" marker-start="url(#arrowStart)" x1="685.5" y1="384.375" x2="715.5" y2="384.375" />
<line stroke="Black" stroke-width="1.875" x1="715.5" y1="384.375" x2="715.5" y2="393.75" />
</g>
<g>
<g transform="translate(775.5 367.5)">
<a href="ValueSet-MGBreastDensityVS.html" target="_top">
<rect class="valueSet" fill="White" stroke="Black" stroke-width="1.875" x="0" y="0" width="193.5" height="52.5" rx="3.75" ry="3.75" />
</a>
<a href="ValueSet-MGBreastDensityVS.html" target="_top">
<text x="96.75" y="22.5" text-anchor="middle" class="valueSet">MGBreastDensityVS</text>
</a>
<a href="ValueSet-MGBreastDensityVS.html" target="_top">
<text x="96.75" y="41.25" text-anchor="middle" class="valueSet">ValueSet</text>
</a>
</g>
</g>
<g>
<g transform="translate(597 427.5)">
<a href="StructureDefinition-AbnormalityAsymmetry-definitions.html#Observation.component:notPreviouslySeen" target="_top">
<rect class="element" fill="White" stroke="Black" stroke-width="1.875" x="0" y="0" width="214.5" height="33.75" rx="3.75" ry="3.75" />
</a>
<a href="StructureDefinition-AbnormalityAsymmetry-definitions.html#Observation.component:notPreviouslySeen" target="_top">
<text x="107.25" y="22.5" text-anchor="middle" class="element">Not Previously Seen</text>
</a>
</g>
<line stroke="Black" stroke-width="1.875" marker-end="url(#arrowEnd)" x1="841.5" y1="453.75" x2="901.5" y2="453.75" />
<text x="845.25" y="450" text-anchor="right" class="lhsText">bind</text>
<line stroke="Black" stroke-width="1.875" marker-start="url(#arrowStart)" x1="811.5" y1="444.375" x2="841.5" y2="444.375" />
<line stroke="Black" stroke-width="1.875" x1="841.5" y1="444.375" x2="841.5" y2="453.75" />
</g>
<g>
<g transform="translate(901.5 427.5)">
<a href="ValueSet-NotPreviouslySeenVS.html" target="_top">
<rect class="valueSet" fill="White" stroke="Black" stroke-width="1.875" x="0" y="0" width="214.5" height="52.5" rx="3.75" ry="3.75" />
</a>
<a href="ValueSet-NotPreviouslySeenVS.html" target="_top">
<text x="107.25" y="22.5" text-anchor="middle" class="valueSet">NotPreviouslySeenVS</text>
</a>
<a href="ValueSet-NotPreviouslySeenVS.html" target="_top">
<text x="107.25" y="41.25" text-anchor="middle" class="valueSet">ValueSet</text>
</a>
</g>
</g>
<g>
<g transform="translate(597 487.5)">
<a href="StructureDefinition-AbnormalityAsymmetry-definitions.html#Observation.component:observedCount" target="_top">
<rect class="element" fill="White" stroke="Black" stroke-width="1.875" x="0" y="0" width="162" height="33.75" rx="3.75" ry="3.75" />
</a>
<a href="StructureDefinition-AbnormalityAsymmetry-definitions.html#Observation.component:observedCount" target="_top">
<text x="81" y="22.5" text-anchor="middle" class="element">Observed Count</text>
</a>
</g>
</g>
<g>
<g transform="translate(597 528.75)">
<a href="StructureDefinition-AbnormalityAsymmetry-definitions.html#Observation.component:correspondsWith" target="_top">
<rect class="element" fill="White" stroke="Black" stroke-width="1.875" x="0" y="0" width="183" height="33.75" rx="3.75" ry="3.75" />
</a>
<a href="StructureDefinition-AbnormalityAsymmetry-definitions.html#Observation.component:correspondsWith" target="_top">
<text x="91.5" y="22.5" text-anchor="middle" class="element">Corresponds With</text>
</a>
</g>
<line stroke="Black" stroke-width="1.875" marker-end="url(#arrowEnd)" x1="810" y1="555" x2="870" y2="555" />
<text x="813.75" y="551.25" text-anchor="right" class="lhsText">bind</text>
<line stroke="Black" stroke-width="1.875" marker-start="url(#arrowStart)" x1="780" y1="545.625" x2="810" y2="545.625" />
<line stroke="Black" stroke-width="1.875" x1="810" y1="545.625" x2="810" y2="555" />
</g>
<g>
<g transform="translate(870 528.75)">
<a href="ValueSet-CorrespondsWithVS.html" target="_top">
<rect class="valueSet" fill="White" stroke="Black" stroke-width="1.875" x="0" y="0" width="193.5" height="52.5" rx="3.75" ry="3.75" />
</a>
<a href="ValueSet-CorrespondsWithVS.html" target="_top">
<text x="96.75" y="22.5" text-anchor="middle" class="valueSet">CorrespondsWithVS</text>
</a>
<a href="ValueSet-CorrespondsWithVS.html" target="_top">
<text x="96.75" y="41.25" text-anchor="middle" class="valueSet">ValueSet</text>
</a>
</g>
</g>
<g>
<g transform="translate(597 588.75)">
<a href="StructureDefinition-AbnormalityAsymmetry-definitions.html#Observation.component:prevDemBy" target="_top">
<rect class="element" fill="White" stroke="Black" stroke-width="1.875" x="0" y="0" width="256.5" height="52.5" rx="3.75" ry="3.75" />
</a>
<a href="StructureDefinition-AbnormalityAsymmetry-definitions.html#Observation.component:prevDemBy" target="_top">
<text x="128.25" y="22.5" text-anchor="middle" class="element">Previously</text>
</a>
<a href="StructureDefinition-AbnormalityAsymmetry-definitions.html#Observation.component:prevDemBy" target="_top">
<text x="128.25" y="41.25" text-anchor="middle" class="element">Demonstrated by Changes</text>
</a>
</g>
<line stroke="Black" stroke-width="1.875" marker-end="url(#arrowEnd)" x1="883.5" y1="615" x2="943.5" y2="615" />
<text x="887.25" y="611.25" text-anchor="right" class="lhsText">bind</text>
<line stroke="Black" stroke-width="1.875" marker-start="url(#arrowStart)" x1="853.5" y1="615" x2="883.5" y2="615" />
<line stroke="Black" stroke-width="1.875" x1="883.5" y1="615" x2="883.5" y2="615" />
</g>
<g>
<g transform="translate(943.5 588.75)">
<a href="ValueSet-PreviouslyDemonstratedByVS.html" target="_top">
<rect class="valueSet" fill="White" stroke="Black" stroke-width="1.875" x="0" y="0" width="287.99997" height="52.5" rx="3.75" ry="3.75" />
</a>
<a href="ValueSet-PreviouslyDemonstratedByVS.html" target="_top">
<text x="143.99998" y="22.5" text-anchor="middle" class="valueSet">PreviouslyDemonstratedByVS</text>
</a>
<a href="ValueSet-PreviouslyDemonstratedByVS.html" target="_top">
<text x="143.99998" y="41.25" text-anchor="middle" class="valueSet">ValueSet</text>
</a>
</g>
</g>
<g>
<g transform="translate(387 648.75)">
<a href="StructureDefinition-AbnormalityAsymmetry-definitions.html#Observation.bodySite" target="_top">
<rect class="element" fill="White" stroke="Black" stroke-width="1.875" x="0" y="0" width="99" height="33.75" rx="3.75" ry="3.75" />
</a>
<a href="StructureDefinition-AbnormalityAsymmetry-definitions.html#Observation.bodySite" target="_top">
<text x="49.5" y="22.5" text-anchor="middle" class="element">BodySite</text>
</a>
</g>
<line stroke="Black" stroke-width="1.875" marker-end="url(#arrowEnd)" x1="515.99994" y1="665.625" x2="575.99994" y2="665.625" />
<text x="519.74994" y="661.875" text-anchor="right" class="lhsText">1..*</text>
<line stroke="Black" stroke-width="1.875" marker-start="url(#arrowStart)" x1="485.99997" y1="665.625" x2="515.99994" y2="665.625" />
<line stroke="Black" stroke-width="1.875" x1="515.99994" y1="665.625" x2="515.99994" y2="665.625" />
</g>
<g>
<g transform="translate(575.99994 648.75)">
<a href="StructureDefinition-AbnormalityAsymmetry-definitions.html#Observation.bodySite.extension" target="_top">
<rect class="element" fill="White" stroke="Black" stroke-width="1.875" x="0" y="0" width="109.49999" height="33.75" rx="3.75" ry="3.75" />
</a>
<a href="StructureDefinition-AbnormalityAsymmetry-definitions.html#Observation.bodySite.extension" target="_top">
<text x="54.749996" y="22.5" text-anchor="middle" class="element">extension</text>
</a>
</g>
<line stroke="Black" stroke-width="1.875" marker-end="url(#arrowEnd)" x1="715.49994" y1="665.625" x2="745.49994" y2="665.625" />
<line stroke="Black" stroke-width="1.875" marker-start="url(#arrowStart)" x1="685.49994" y1="665.625" x2="715.49994" y2="665.625" />
<line stroke="Black" stroke-width="1.875" x1="715.49994" y1="665.625" x2="715.49994" y2="665.625" />
</g>
<g>
<g transform="translate(745.49994 648.75)">
<a href="StructureDefinition-BreastBodyLocationExtension.html" target="_top">
<rect class="extension" fill="White" stroke="Black" stroke-width="1.875" x="0" y="0" width="203.99998" height="33.75" rx="3.75" ry="3.75" />
</a>
<a href="StructureDefinition-BreastBodyLocationExtension.html" target="_top">
<text x="101.99999" y="22.5" text-anchor="middle" class="extension">BreastBodyLocation</text>
</a>
</g>
</g>
<g>
<g transform="translate(387 690)">
<a href="StructureDefinition-AbnormalityAsymmetry-definitions.html#Observation.hasMember" target="_top">
<rect class="element" fill="White" stroke="Black" stroke-width="1.875" x="0" y="0" width="109.49999" height="33.75" rx="3.75" ry="3.75" />
</a>
<a href="StructureDefinition-AbnormalityAsymmetry-definitions.html#Observation.hasMember" target="_top">
<text x="54.749996" y="22.5" text-anchor="middle" class="element">HasMember</text>
</a>
</g>
<line stroke="Black" stroke-width="1.875" marker-end="url(#arrowEnd)" x1="556.5" y1="706.875" x2="586.5" y2="706.875" />
<line stroke="Black" stroke-width="1.875" marker-end="url(#arrowEnd)" x1="556.5" y1="748.125" x2="586.5" y2="748.125" />
<line stroke="Black" stroke-width="1.875" marker-start="url(#arrowStart)" x1="496.49997" y1="706.875" x2="556.5" y2="706.875" />
<text x="500.24997" y="703.125" text-anchor="left" class="rhsText">0..*</text>
<line stroke="Black" stroke-width="1.875" x1="556.5" y1="706.875" x2="556.5" y2="748.125" />
</g>
<g>
<g transform="translate(586.5 690)">
<a href="StructureDefinition-AssociatedFeature.html" target="_top">
<rect class="profile" fill="White" stroke="Black" stroke-width="1.875" x="0" y="0" width="203.99998" height="33.75" rx="3.75" ry="3.75" />
</a>
<a href="StructureDefinition-AssociatedFeature.html" target="_top">
<text x="101.99999" y="22.5" text-anchor="middle" class="profile">Associated Feature</text>
</a>
</g>
</g>
<g>
<g transform="translate(586.5 731.25)">
<a href="StructureDefinition-ConsistentWith.html" target="_top">
<rect class="profile" fill="White" stroke="Black" stroke-width="1.875" x="0" y="0" width="172.5" height="33.75" rx="3.75" ry="3.75" />
</a>
<a href="StructureDefinition-ConsistentWith.html" target="_top">
<text x="86.25" y="22.5" text-anchor="middle" class="profile">Consistent With</text>
</a>
</g>
</g>
</svg>
