<?xml version="1.0"?>
<!DOCTYPE svg PUBLIC "-//W3C//DTD SVG 1.1//EN" "http://www.w3.org/Graphics/SVG/1.1/DTD/svg11.dtd">
<svg xmlns="http://www.w3.org/2000/svg" version="1.1" width="631.5" height="780">
<defs>
<marker id="arrowStart" markerWidth="3.75" markerHeight="3.75" markerUnits="px" refX="1.875" refY="1.875">
<circle fill="Black" stroke-width="0" cx="1.875" cy="1.875" r="1.875" />
</marker>
<marker id="arrowEnd" markerWidth="7.5" markerHeight="7.5" markerUnits="px" refX="7.5" refY="3.75">
<polygon fill="Black" stroke-width="0" points="0 0 7.5 3.75 0 7.5" />
</marker>
</defs>
<g>
<g transform="translate(7.5 7.5)">
<rect fill="LightBlue" stroke="Black" stroke-width="1.875" x="0" y="0" width="151.49998" height="52.5" rx="3.75" ry="3.75" />
<a href="./StructureDefinition-MGAssociatedFeatures.html" target="_blank">
<title>'MGAssociatedFeatures'</title>
<text x="75.74999" y="22.5" text-anchor="middle">MG Associated</text>
</a>
<a href="./StructureDefinition-MGAssociatedFeatures.html" target="_blank">
<title>'MGAssociatedFeatures'</title>
<text x="75.74999" y="41.25" text-anchor="middle">Features</text>
</a>
</g>
<g transform="translate(7.5 67.5)">
<rect fill="LightBlue" stroke="Black" stroke-width="1.875" x="0" y="0" width="120" height="33.75" rx="3.75" ry="3.75" />
<a href="./StructureDefinition-MGFinding.html" target="_blank">
<title>'MGFinding'</title>
<text x="60" y="22.5" text-anchor="middle">MG Finding</text>
</a>
</g>
<line stroke="Black" stroke-width="1.875" marker-end="url(#arrowEnd)" x1="188.99998" y1="24.375" x2="218.99998" y2="24.375" />
<line stroke="Black" stroke-width="1.875" marker-start="url(#arrowStart)" x1="158.99998" y1="33.75" x2="188.99998" y2="33.75" />
<line stroke="Black" stroke-width="1.875" marker-start="url(#arrowStart)" x1="127.5" y1="84.375" x2="188.99998" y2="84.375" />
<line stroke="Black" stroke-width="1.875" x1="188.99998" y1="24.375" x2="188.99998" y2="84.375" />
</g>
<g>
<g transform="translate(218.99998 7.5)">
<rect fill="LightGreen" stroke="Black" stroke-width="1.875" x="0" y="0" width="99" height="33.75" rx="3.75" ry="3.75" />
<text x="49.5" y="22.5" text-anchor="middle">MG Calc.</text>
</g>
<line stroke="Black" stroke-width="1.875" marker-end="url(#arrowEnd)" x1="347.99997" y1="24.375" x2="377.99997" y2="24.375" />
<line stroke="Black" stroke-width="1.875" marker-end="url(#arrowEnd)" x1="347.99997" y1="65.625" x2="377.99997" y2="65.625" />
<line stroke="Black" stroke-width="1.875" marker-end="url(#arrowEnd)" x1="347.99997" y1="116.25" x2="377.99997" y2="116.25" />
<line stroke="Black" stroke-width="1.875" marker-end="url(#arrowEnd)" x1="347.99997" y1="176.25" x2="377.99997" y2="176.25" />
<line stroke="Black" stroke-width="1.875" marker-end="url(#arrowEnd)" x1="347.99997" y1="236.25" x2="377.99997" y2="236.25" />
<line stroke="Black" stroke-width="1.875" marker-end="url(#arrowEnd)" x1="347.99997" y1="286.875" x2="377.99997" y2="286.875" />
<line stroke="Black" stroke-width="1.875" marker-end="url(#arrowEnd)" x1="347.99997" y1="328.125" x2="377.99997" y2="328.125" />
<line stroke="Black" stroke-width="1.875" marker-end="url(#arrowEnd)" x1="347.99997" y1="369.375" x2="377.99997" y2="369.375" />
<line stroke="Black" stroke-width="1.875" marker-end="url(#arrowEnd)" x1="347.99997" y1="410.625" x2="377.99997" y2="410.625" />
<line stroke="Black" stroke-width="1.875" marker-end="url(#arrowEnd)" x1="347.99997" y1="451.875" x2="377.99997" y2="451.875" />
<line stroke="Black" stroke-width="1.875" marker-end="url(#arrowEnd)" x1="347.99997" y1="493.125" x2="377.99997" y2="493.125" />
<line stroke="Black" stroke-width="1.875" marker-end="url(#arrowEnd)" x1="347.99997" y1="534.375" x2="377.99997" y2="534.375" />
<line stroke="Black" stroke-width="1.875" marker-end="url(#arrowEnd)" x1="347.99997" y1="575.625" x2="377.99997" y2="575.625" />
<line stroke="Black" stroke-width="1.875" marker-end="url(#arrowEnd)" x1="347.99997" y1="616.875" x2="377.99997" y2="616.875" />
<line stroke="Black" stroke-width="1.875" marker-end="url(#arrowEnd)" x1="347.99997" y1="658.125" x2="377.99997" y2="658.125" />
<line stroke="Black" stroke-width="1.875" marker-end="url(#arrowEnd)" x1="347.99997" y1="699.375" x2="377.99997" y2="699.375" />
<line stroke="Black" stroke-width="1.875" marker-end="url(#arrowEnd)" x1="347.99997" y1="740.625" x2="377.99997" y2="740.625" />
<line stroke="Black" stroke-width="1.875" marker-start="url(#arrowStart)" x1="317.99997" y1="24.375" x2="347.99997" y2="24.375" />
<line stroke="Black" stroke-width="1.875" x1="347.99997" y1="24.375" x2="347.99997" y2="740.625" />
</g>
<g>
<g transform="translate(377.99997 7.5)">
<rect fill="LightSalmon" stroke="Black" stroke-width="1.875" x="0" y="0" width="67.5" height="33.75" rx="3.75" ry="3.75" />
<a href="./StructureDefinition-ObservedCount.html" target="_blank">
<title>'ObservedCount'</title>
<text x="33.75" y="22.5" text-anchor="middle">Count</text>
</a>
</g>
<g transform="translate(377.99997 48.75)">
<rect fill="LightSalmon" stroke="Black" stroke-width="1.875" x="0" y="0" width="151.49998" height="33.75" rx="3.75" ry="3.75" />
<a href="./StructureDefinition-MGCalcificationType.html" target="_blank">
<title>'MGCalcificationType'</title>
<text x="75.74999" y="22.5" text-anchor="middle">MG Calc. Type</text>
</a>
</g>
<g transform="translate(377.99997 90)">
<rect fill="LightSalmon" stroke="Black" stroke-width="1.875" x="0" y="0" width="141" height="52.5" rx="3.75" ry="3.75" />
<a href="./StructureDefinition-MGCalcificationDistribution.html" target="_blank">
<title>'MGCalcificationDistribution'</title>
<text x="70.5" y="22.5" text-anchor="middle">MG Calc.</text>
</a>
<a href="./StructureDefinition-MGCalcificationDistribution.html" target="_blank">
<title>'MGCalcificationDistribution'</title>
<text x="70.5" y="41.25" text-anchor="middle">Distribution</text>
</a>
</g>
<g transform="translate(377.99997 150)">
<rect fill="LightSalmon" stroke="Black" stroke-width="1.875" x="0" y="0" width="151.49998" height="52.5" rx="3.75" ry="3.75" />
<a href="./StructureDefinition-MGAssociatedFeatures.html" target="_blank">
<title>'MGAssociatedFeatures'</title>
<text x="75.74999" y="22.5" text-anchor="middle">MG Associated</text>
</a>
<a href="./StructureDefinition-MGAssociatedFeatures.html" target="_blank">
<title>'MGAssociatedFeatures'</title>
<text x="75.74999" y="41.25" text-anchor="middle">Features</text>
</a>
</g>
<g transform="translate(377.99997 210)">
<rect fill="LightSalmon" stroke="Black" stroke-width="1.875" x="0" y="0" width="120" height="52.5" rx="3.75" ry="3.75" />
<a href="./StructureDefinition-ConsistentWith.html" target="_blank">
<title>'ConsistentWith'</title>
<text x="60" y="22.5" text-anchor="middle">Consistent</text>
</a>
<a href="./StructureDefinition-ConsistentWith.html" target="_blank">
<title>'ConsistentWith'</title>
<text x="60" y="41.25" text-anchor="middle">With</text>
</a>
</g>
<g transform="translate(377.99997 270)">
<rect fill="LightSalmon" stroke="Black" stroke-width="1.875" x="0" y="0" width="130.5" height="33.75" rx="3.75" ry="3.75" />
<a href="./StructureDefinition-BiRadsAssessmentCategory.html" target="_blank">
<title>'BiRadsAssessmentCategory'</title>
<text x="65.25" y="22.5" text-anchor="middle">BiRads Code</text>
</a>
</g>
<g transform="translate(377.99997 311.25)">
<rect fill="LightSalmon" stroke="Black" stroke-width="1.875" x="0" y="0" width="193.5" height="33.75" rx="3.75" ry="3.75" />
<a href="./StructureDefinition-ObservedChangeInDefinition.html" target="_blank">
<title>'ObservedChangeInDefinition'</title>
<text x="96.75" y="22.5" text-anchor="middle">Definition Change</text>
</a>
</g>
<g transform="translate(377.99997 352.5)">
<rect fill="LightSalmon" stroke="Black" stroke-width="1.875" x="0" y="0" width="151.49998" height="33.75" rx="3.75" ry="3.75" />
<a href="./StructureDefinition-ObservedChangeInNumber.html" target="_blank">
<title>'ObservedChangeInNumber'</title>
<text x="75.74999" y="22.5" text-anchor="middle">Number Change</text>
</a>
</g>
<g transform="translate(377.99997 393.75)">
<rect fill="LightSalmon" stroke="Black" stroke-width="1.875" x="0" y="0" width="193.5" height="33.75" rx="3.75" ry="3.75" />
<a href="./StructureDefinition-ObservedChangeInProminance.html" target="_blank">
<title>'ObservedChangeInProminance'</title>
<text x="96.75" y="22.5" text-anchor="middle">Prominance Change</text>
</a>
</g>
<g transform="translate(377.99997 435)">
<rect fill="LightSalmon" stroke="Black" stroke-width="1.875" x="0" y="0" width="130.5" height="33.75" rx="3.75" ry="3.75" />
<a href="./StructureDefinition-ObservedChangeInSize.html" target="_blank">
<title>'ObservedChangeInSize'</title>
<text x="65.25" y="22.5" text-anchor="middle">Size Change</text>
</a>
</g>
<g transform="translate(377.99997 476.25)">
<rect fill="LightSalmon" stroke="Black" stroke-width="1.875" x="0" y="0" width="141" height="33.75" rx="3.75" ry="3.75" />
<a href="./StructureDefinition-ObservedChangeInState.html" target="_blank">
<title>'ObservedChangeInState'</title>
<text x="70.5" y="22.5" text-anchor="middle">State Change</text>
</a>
</g>
<g transform="translate(377.99997 517.5)">
<rect fill="LightSalmon" stroke="Black" stroke-width="1.875" x="0" y="0" width="57" height="33.75" rx="3.75" ry="3.75" />
<a href="./StructureDefinition-ObservedSize.html" target="_blank">
<title>'ObservedSize'</title>
<text x="28.5" y="22.5" text-anchor="middle">Size</text>
</a>
</g>
<g transform="translate(377.99997 558.75)">
<rect fill="LightSalmon" stroke="Black" stroke-width="1.875" x="0" y="0" width="130.5" height="33.75" rx="3.75" ry="3.75" />
<a href="./StructureDefinition-Orientation.html" target="_blank">
<title>'Orientation'</title>
<text x="65.25" y="22.5" text-anchor="middle">Orientation</text>
</a>
</g>
<g transform="translate(377.99997 600)">
<rect fill="LightSalmon" stroke="Black" stroke-width="1.875" x="0" y="0" width="67.5" height="33.75" rx="3.75" ry="3.75" />
<a href="./StructureDefinition-MammoShape.html" target="_blank">
<title>'MammoShape'</title>
<text x="33.75" y="22.5" text-anchor="middle">Shape</text>
</a>
</g>
<g transform="translate(377.99997 641.25)">
<rect fill="LightSalmon" stroke="Black" stroke-width="1.875" x="0" y="0" width="109.49999" height="33.75" rx="3.75" ry="3.75" />
<a href="./StructureDefinition-MGMargin.html" target="_blank">
<title>'MGMargin'</title>
<text x="54.749996" y="22.5" text-anchor="middle">MG Margin</text>
</a>
</g>
<g transform="translate(377.99997 682.5)">
<rect fill="LightSalmon" stroke="Black" stroke-width="1.875" x="0" y="0" width="120" height="33.75" rx="3.75" ry="3.75" />
<a href="./StructureDefinition-MGDensity.html" target="_blank">
<title>'MGDensity'</title>
<text x="60" y="22.5" text-anchor="middle">MG Density</text>
</a>
</g>
<g transform="translate(377.99997 723.75)">
<rect fill="LightSalmon" stroke="Black" stroke-width="1.875" x="0" y="0" width="183" height="33.75" rx="3.75" ry="3.75" />
<a href="./StructureDefinition-BreastBodyLocationExtension.html" target="_blank">
<title>'BreastBodyLocationExtension'</title>
<text x="91.5" y="22.5" text-anchor="middle">Breast Body Loc.</text>
</a>
</g>
</g>
</svg>
