<?xml version="1.0"?>
<!DOCTYPE svg PUBLIC "-//W3C//DTD SVG 1.1//EN" "http://www.w3.org/Graphics/SVG/1.1/DTD/svg11.dtd">
<svg xmlns="http://www.w3.org/2000/svg" version="1.1" width="1236" height="393.75">
<defs>
<marker id="arrowStart" markerWidth="3.75" markerHeight="3.75" markerUnits="px" refX="1.875" refY="1.875">
<circle fill="Black" stroke-width="0" cx="1.875" cy="1.875" r="1.875" />
</marker>
<marker id="arrowEnd" markerWidth="7.5" markerHeight="7.5" markerUnits="px" refX="7.5" refY="3.75">
<polygon fill="Black" stroke-width="0" points="0 0 7.5 3.75 0 7.5" />
</marker>
</defs>
<g>
<g transform="translate(7.5 7.5)">
<a href="./StructureDefinition-AbnormalityCyst.html" target="_top">
<rect fill="LightCyan" stroke="Black" stroke-width="1.875" x="0" y="0" width="57" height="33.75" rx="3.75" ry="3.75" />
</a>
<a href="./StructureDefinition-AbnormalityCyst.html" target="_top">
<text x="28.5" y="22.5" text-anchor="middle">Cyst</text>
</a>
</g>
<g transform="translate(7.5 48.75)">
<a href="./StructureDefinition-AbnormalityDuct.html" target="_top">
<rect fill="LightCyan" stroke="Black" stroke-width="1.875" x="0" y="0" width="57" height="33.75" rx="3.75" ry="3.75" />
</a>
<a href="./StructureDefinition-AbnormalityDuct.html" target="_top">
<text x="28.5" y="22.5" text-anchor="middle">Duct</text>
</a>
</g>
<g transform="translate(7.5 90)">
<a href="./StructureDefinition-AbnormalityForeignObject.html" target="_top">
<rect fill="LightCyan" stroke="Black" stroke-width="1.875" x="0" y="0" width="162" height="33.75" rx="3.75" ry="3.75" />
</a>
<a href="./StructureDefinition-AbnormalityForeignObject.html" target="_top">
<text x="81" y="22.5" text-anchor="middle">Foreign Object</text>
</a>
</g>
<g transform="translate(7.5 131.25)">
<a href="./StructureDefinition-AbnormalityMass.html" target="_top">
<rect fill="LightCyan" stroke="Black" stroke-width="1.875" x="0" y="0" width="57" height="33.75" rx="3.75" ry="3.75" />
</a>
<a href="./StructureDefinition-AbnormalityMass.html" target="_top">
<text x="28.5" y="22.5" text-anchor="middle">Mass</text>
</a>
</g>
<g transform="translate(7.5 172.5)">
<a href="./StructureDefinition-MGAbnormalityArchitecturalDistortion.html" target="_top">
<rect fill="LightCyan" stroke="Black" stroke-width="1.875" x="0" y="0" width="214.5" height="33.75" rx="3.75" ry="3.75" />
</a>
<a href="./StructureDefinition-MGAbnormalityArchitecturalDistortion.html" target="_top">
<text x="107.25" y="22.5" text-anchor="middle">MG Arch. Distortion</text>
</a>
</g>
<g transform="translate(7.5 213.75)">
<a href="./StructureDefinition-MGAbnormalityAsymmetry.html" target="_top">
<rect fill="LightCyan" stroke="Black" stroke-width="1.875" x="0" y="0" width="141" height="33.75" rx="3.75" ry="3.75" />
</a>
<a href="./StructureDefinition-MGAbnormalityAsymmetry.html" target="_top">
<text x="70.5" y="22.5" text-anchor="middle">MG Asymmetry</text>
</a>
</g>
<g transform="translate(7.5 255)">
<a href="./StructureDefinition-MGAbnormalityCalcification.html" target="_top">
<rect fill="LightCyan" stroke="Black" stroke-width="1.875" x="0" y="0" width="99" height="33.75" rx="3.75" ry="3.75" />
</a>
<a href="./StructureDefinition-MGAbnormalityCalcification.html" target="_top">
<text x="49.5" y="22.5" text-anchor="middle">MG Calc.</text>
</a>
</g>
<g transform="translate(7.5 296.25)">
<a href="./StructureDefinition-MGAbnormalityDensity.html" target="_top">
<rect fill="LightCyan" stroke="Black" stroke-width="1.875" x="0" y="0" width="120" height="33.75" rx="3.75" ry="3.75" />
</a>
<a href="./StructureDefinition-MGAbnormalityDensity.html" target="_top">
<text x="60" y="22.5" text-anchor="middle">MG Density</text>
</a>
</g>
<g transform="translate(7.5 337.5)">
<a href="./StructureDefinition-MGAbnormalityFatNecrosis.html" target="_top">
<rect fill="LightCyan" stroke="Black" stroke-width="1.875" x="0" y="0" width="172.5" height="33.75" rx="3.75" ry="3.75" />
</a>
<a href="./StructureDefinition-MGAbnormalityFatNecrosis.html" target="_top">
<text x="86.25" y="22.5" text-anchor="middle">MG Fat Necrosis</text>
</a>
</g>
<line stroke="Black" stroke-width="1.875" marker-end="url(#arrowEnd)" x1="267" y1="33.75" x2="312" y2="33.75" />
<text x="270.75" y="30" text-anchor="left"></text>
<line stroke="Black" stroke-width="1.875" marker-start="url(#arrowStart)" x1="64.5" y1="24.375" x2="267" y2="24.375" />
<text x="68.25" y="20.625" text-anchor="left"></text>
<line stroke="Black" stroke-width="1.875" marker-start="url(#arrowStart)" x1="64.5" y1="65.625" x2="267" y2="65.625" />
<text x="68.25" y="61.875" text-anchor="left"></text>
<line stroke="Black" stroke-width="1.875" marker-start="url(#arrowStart)" x1="169.5" y1="106.875" x2="267" y2="106.875" />
<text x="173.25" y="103.125" text-anchor="left"></text>
<line stroke="Black" stroke-width="1.875" marker-start="url(#arrowStart)" x1="64.5" y1="148.125" x2="267" y2="148.125" />
<text x="68.25" y="144.375" text-anchor="left"></text>
<line stroke="Black" stroke-width="1.875" marker-start="url(#arrowStart)" x1="222" y1="189.375" x2="267" y2="189.375" />
<text x="225.75" y="185.625" text-anchor="left"></text>
<line stroke="Black" stroke-width="1.875" marker-start="url(#arrowStart)" x1="148.5" y1="230.625" x2="267" y2="230.625" />
<text x="152.25" y="226.875" text-anchor="left"></text>
<line stroke="Black" stroke-width="1.875" marker-start="url(#arrowStart)" x1="106.5" y1="271.875" x2="267" y2="271.875" />
<text x="110.25" y="268.125" text-anchor="left"></text>
<line stroke="Black" stroke-width="1.875" marker-start="url(#arrowStart)" x1="127.5" y1="313.125" x2="267" y2="313.125" />
<text x="131.25" y="309.375" text-anchor="left"></text>
<line stroke="Black" stroke-width="1.875" marker-start="url(#arrowStart)" x1="180" y1="354.375" x2="267" y2="354.375" />
<text x="183.75" y="350.625" text-anchor="left"></text>
<line stroke="Black" stroke-width="1.875" x1="267" y1="24.375" x2="267" y2="354.375" />
</g>
<g>
<g transform="translate(312 7.5)">
<rect fill="White" stroke="Black" stroke-width="1.875" x="0" y="0" width="120" height="52.5" rx="3.75" ry="3.75" />
<text x="60" y="22.5" text-anchor="middle">Consistent</text>
<text x="60" y="41.25" text-anchor="middle">With</text>
</g>
<line stroke="Black" stroke-width="1.875" marker-end="url(#arrowEnd)" x1="477" y1="33.75" x2="522" y2="33.75" />
<text x="480.75" y="30" text-anchor="left">1..1</text>
<line stroke="Black" stroke-width="1.875" marker-end="url(#arrowEnd)" x1="477" y1="93.75" x2="522" y2="93.75" />
<text x="480.75" y="90" text-anchor="left">0..*</text>
<line stroke="Black" stroke-width="1.875" marker-start="url(#arrowStart)" x1="432" y1="33.75" x2="477" y2="33.75" />
<text x="435.75" y="30" text-anchor="left"></text>
<line stroke="Black" stroke-width="1.875" x1="477" y1="33.75" x2="477" y2="93.75" />
</g>
<g>
<g transform="translate(522 7.5)">
<a href="StructureDefinition-ConsistentWith-definitions.html#Observation.component:value" target="_top">
<rect fill="LightYellow" stroke="Black" stroke-width="1.875" x="0" y="0" width="235.5" height="52.5" rx="3.75" ry="3.75" />
</a>
<a href="StructureDefinition-ConsistentWith-definitions.html#Observation.component:value" target="_top">
<text x="117.75" y="22.5" text-anchor="middle">Consistent With Value</text>
</a>
<a href="StructureDefinition-ConsistentWith-definitions.html#Observation.component:value" target="_top">
<text x="117.75" y="41.25" text-anchor="middle">CodeableConcept</text>
</a>
</g>
<line stroke="Black" stroke-width="1.875" marker-end="url(#arrowEnd)" x1="802.5" y1="33.75" x2="847.5" y2="33.75" />
<line stroke="Black" stroke-width="1.875" marker-start="url(#arrowStart)" x1="757.5" y1="33.75" x2="802.5" y2="33.75" />
<text x="761.25" y="30" text-anchor="left"></text>
<line stroke="Black" stroke-width="1.875" x1="802.5" y1="33.75" x2="802.5" y2="33.75" />
</g>
<g>
<g transform="translate(847.5 7.5)">
<a href="./ValueSet-ConsistentWithVS.html" target="_top">
<rect fill="LightGreen" stroke="Black" stroke-width="1.875" x="0" y="0" width="162" height="52.5" rx="3.75" ry="3.75" />
</a>
<a href="./ValueSet-ConsistentWithVS.html" target="_top">
<text x="81" y="22.5" text-anchor="middle">ConsistentWith</text>
</a>
<a href="./ValueSet-ConsistentWithVS.html" target="_top">
<text x="81" y="41.25" text-anchor="middle">ValueSet</text>
</a>
</g>
</g>
<g>
<g transform="translate(522 67.5)">
<a href="StructureDefinition-ConsistentWith-definitions.html#Observation.component:qualifier" target="_top">
<rect fill="LightYellow" stroke="Black" stroke-width="1.875" x="0" y="0" width="277.5" height="52.5" rx="3.75" ry="3.75" />
</a>
<a href="StructureDefinition-ConsistentWith-definitions.html#Observation.component:qualifier" target="_top">
<text x="138.75" y="22.5" text-anchor="middle">Consistent With Qualifier</text>
</a>
<a href="StructureDefinition-ConsistentWith-definitions.html#Observation.component:qualifier" target="_top">
<text x="138.75" y="41.25" text-anchor="middle">CodeableConcept</text>
</a>
</g>
<line stroke="Black" stroke-width="1.875" marker-end="url(#arrowEnd)" x1="844.5" y1="93.75" x2="889.5" y2="93.75" />
<line stroke="Black" stroke-width="1.875" marker-start="url(#arrowStart)" x1="799.5" y1="93.75" x2="844.5" y2="93.75" />
<text x="803.25" y="90" text-anchor="left"></text>
<line stroke="Black" stroke-width="1.875" x1="844.5" y1="93.75" x2="844.5" y2="93.75" />
</g>
<g>
<g transform="translate(889.5 67.5)">
<a href="./ValueSet-ConsistentWithQualifierVS.html" target="_top">
<rect fill="LightGreen" stroke="Black" stroke-width="1.875" x="0" y="0" width="256.5" height="52.5" rx="3.75" ry="3.75" />
</a>
<a href="./ValueSet-ConsistentWithQualifierVS.html" target="_top">
<text x="128.25" y="22.5" text-anchor="middle">ConsistentWithQualifier</text>
</a>
<a href="./ValueSet-ConsistentWithQualifierVS.html" target="_top">
<text x="128.25" y="41.25" text-anchor="middle">ValueSet</text>
</a>
</g>
</g>
</svg>
