<?xml version="1.0"?>
<!DOCTYPE svg PUBLIC "-//W3C//DTD SVG 1.1//EN" "http://www.w3.org/Graphics/SVG/1.1/DTD/svg11.dtd">
<svg xmlns="http://www.w3.org/2000/svg" version="1.1" width="726" height="288.75">
<defs>
<marker id="arrowStart" markerWidth="3.75" markerHeight="3.75" markerUnits="px" refX="1.875" refY="1.875">
<circle fill="Black" stroke-width="0" cx="1.875" cy="1.875" r="1.875" />
</marker>
<marker id="arrowEnd" markerWidth="7.5" markerHeight="7.5" markerUnits="px" refX="7.5" refY="3.75">
<polygon fill="Black" stroke-width="0" points="0 0 7.5 3.75 0 7.5" />
</marker>
</defs>
<g>
<g transform="translate(7.5 7.5)">
<rect fill="LightCyan" stroke="Black" stroke-width="1.875" x="0" y="0" width="162" height="33.75" rx="3.75" ry="3.75" />
<a href="./StructureDefinition-MGAbnormalityForeignObject.html" target="_top">
<title>'MGAbnormalityForeignObject'</title>
<text x="81" y="22.5" text-anchor="middle">Foreign Object</text>
</a>
</g>
<line stroke="Black" stroke-width="1.875" marker-end="url(#arrowEnd)" x1="199.5" y1="33.75" x2="229.5" y2="33.75" />
<line stroke="Black" stroke-width="1.875" marker-start="url(#arrowStart)" x1="169.5" y1="24.375" x2="199.5" y2="24.375" />
<line stroke="Black" stroke-width="1.875" x1="199.5" y1="24.375" x2="199.5" y2="33.75" />
</g>
<g>
<g transform="translate(229.5 7.5)">
<rect fill="White" stroke="Black" stroke-width="1.875" x="0" y="0" width="151.49998" height="52.5" rx="3.75" ry="3.75" />
<text x="75.74999" y="22.5" text-anchor="middle">MG Associated</text>
<text x="75.74999" y="41.25" text-anchor="middle">Features</text>
</g>
<line stroke="Black" stroke-width="1.875" marker-end="url(#arrowEnd)" x1="411" y1="24.375" x2="441" y2="24.375" />
<line stroke="Black" stroke-width="1.875" marker-end="url(#arrowEnd)" x1="411" y1="65.625" x2="441" y2="65.625" />
<line stroke="Black" stroke-width="1.875" marker-end="url(#arrowEnd)" x1="411" y1="116.25" x2="441" y2="116.25" />
<line stroke="Black" stroke-width="1.875" marker-end="url(#arrowEnd)" x1="411" y1="166.875" x2="441" y2="166.875" />
<line stroke="Black" stroke-width="1.875" marker-end="url(#arrowEnd)" x1="411" y1="208.125" x2="441" y2="208.125" />
<line stroke="Black" stroke-width="1.875" marker-end="url(#arrowEnd)" x1="411" y1="249.375" x2="441" y2="249.375" />
<line stroke="Black" stroke-width="1.875" marker-start="url(#arrowStart)" x1="381" y1="33.75" x2="411" y2="33.75" />
<line stroke="Black" stroke-width="1.875" x1="411" y1="24.375" x2="411" y2="249.375" />
</g>
<g>
<g transform="translate(441 7.5)">
<rect fill="LightCyan" stroke="Black" stroke-width="1.875" x="0" y="0" width="214.5" height="33.75" rx="3.75" ry="3.75" />
<a href="./StructureDefinition-MGAbnormalityArchitecturalDistortion.html" target="_top">
<title>'MGAbnormalityArchitecturalDistortion'</title>
<text x="107.25" y="22.5" text-anchor="middle">MG Arch. Distortion</text>
</a>
</g>
</g>
<g>
<g transform="translate(441 48.75)">
<rect fill="LightCyan" stroke="Black" stroke-width="1.875" x="0" y="0" width="99" height="33.75" rx="3.75" ry="3.75" />
<a href="./StructureDefinition-MGAbnormalityCalcification.html" target="_top">
<title>'MGAbnormalityCalcification'</title>
<text x="49.5" y="22.5" text-anchor="middle">MG Calc.</text>
</a>
</g>
</g>
<g>
<g transform="translate(441 90)">
<rect fill="LightCyan" stroke="Black" stroke-width="1.875" x="0" y="0" width="130.5" height="52.5" rx="3.75" ry="3.75" />
<a href="./StructureDefinition-MGAxillaryAdenopathy.html" target="_top">
<title>'MGAxillaryAdenopathy'</title>
<text x="65.25" y="22.5" text-anchor="middle">MG Axillary</text>
</a>
<a href="./StructureDefinition-MGAxillaryAdenopathy.html" target="_top">
<title>'MGAxillaryAdenopathy'</title>
<text x="65.25" y="41.25" text-anchor="middle">Adenopathy</text>
</a>
</g>
</g>
<g>
<g transform="translate(441 150)">
<rect fill="LightCyan" stroke="Black" stroke-width="1.875" x="0" y="0" width="225" height="33.75" rx="3.75" ry="3.75" />
<a href="./StructureDefinition-MGNippleRetraction.html" target="_top">
<title>'MGNippleRetraction'</title>
<text x="112.5" y="22.5" text-anchor="middle">MG Nipple Retraction</text>
</a>
</g>
</g>
<g>
<g transform="translate(441 191.25)">
<rect fill="LightCyan" stroke="Black" stroke-width="1.875" x="0" y="0" width="203.99998" height="33.75" rx="3.75" ry="3.75" />
<a href="./StructureDefinition-MGSkinRetraction.html" target="_top">
<title>'MGSkinRetraction'</title>
<text x="101.99999" y="22.5" text-anchor="middle">MG Skin Retraction</text>
</a>
</g>
</g>
<g>
<g transform="translate(441 232.5)">
<rect fill="LightCyan" stroke="Black" stroke-width="1.875" x="0" y="0" width="203.99998" height="33.75" rx="3.75" ry="3.75" />
<a href="./StructureDefinition-MGSkinThickening.html" target="_top">
<title>'MGSkinThickening'</title>
<text x="101.99999" y="22.5" text-anchor="middle">MG Skin Thickening</text>
</a>
</g>
</g>
</svg>
