<?xml version="1.0"?>
<?xml-stylesheet type="text/css" href="FocusGraph.css" ?>
<!DOCTYPE svg PUBLIC "-//W3C//DTD SVG 1.1//EN" "http://www.w3.org/Graphics/SVG/1.1/DTD/svg11.dtd">
<svg xmlns="http://www.w3.org/2000/svg" version="1.1" width="1356.38" height="603.75">
<defs>
<marker id="arrowStart" markerWidth="3.75" markerHeight="3.75" markerUnits="px" refX="1.88" refY="1.88">
<circle class="connector" cx="1.88" cy="1.88" r="1.88" />
</marker>
<marker id="arrowEnd" markerWidth="7.5" markerHeight="7.5" markerUnits="px" refX="7.5" refY="3.75">
<polygon class="connector" points="0 0 7.5 3.75 0 7.5" />
</marker>
</defs>
<g>
<g transform="translate(7.5 7.5)">
<a href="StructureDefinition-MGFinding.html" target="_top">
<rect class="profile" x="0" y="0" width="130.5" height="33.75" rx="3.75" ry="3.75" />
</a>
<a href="StructureDefinition-MGFinding.html" target="_top">
<text x="65.25" y="22.5" text-anchor="middle" class="profile">Mg Findings</text>
</a>
</g>
<line class="connector" marker-end="url(#arrowEnd)" x1="168" y1="24.38" x2="228" y2="24.38" />
<text x="171.75" y="20.62" text-anchor="right" class="lhsText">0..*</text>
<line class="connector" marker-start="url(#arrowStart)" x1="138" y1="24.38" x2="168" y2="24.38" />
<line class="connector" x1="168" y1="24.38" x2="168" y2="24.38" />
</g>
<g>
<g transform="translate(228 7.5)">
<a href="StructureDefinition-AbnormalityForeignObject.html" target="_top">
<rect class="focus" x="0" y="0" width="162" height="33.75" rx="3.75" ry="3.75" />
</a>
<a href="StructureDefinition-AbnormalityForeignObject.html" target="_top">
<text x="81" y="22.5" text-anchor="middle" class="focus">Foreign Object</text>
</a>
</g>
<line class="connector" marker-end="url(#arrowEnd)" x1="420" y1="24.38" x2="480" y2="24.38" />
<text x="423.75" y="20.62" text-anchor="right" class="lhsText">1..1</text>
<line class="connector" marker-end="url(#arrowEnd)" x1="420" y1="65.62" x2="480" y2="65.62" />
<text x="423.75" y="61.88" text-anchor="right" class="lhsText">1..1</text>
<line class="connector" marker-end="url(#arrowEnd)" x1="420" y1="106.88" x2="480" y2="106.88" />
<text x="423.75" y="103.12" text-anchor="right" class="lhsText">1..*</text>
<line class="connector" marker-end="url(#arrowEnd)" x1="420" y1="414.38" x2="480" y2="414.38" />
<text x="423.75" y="410.62" text-anchor="right" class="lhsText">0..*</text>
<line class="connector" marker-start="url(#arrowStart)" x1="390" y1="24.38" x2="420" y2="24.38" />
<line class="connector" x1="420" y1="24.38" x2="420" y2="414.38" />
</g>
<g>
<g transform="translate(480 7.5)">
<a href="StructureDefinition-AbnormalityForeignObject-definitions.html#Observation.code" target="_top">
<rect class="element" x="0" y="0" width="57" height="33.75" rx="3.75" ry="3.75" />
</a>
<a href="StructureDefinition-AbnormalityForeignObject-definitions.html#Observation.code" target="_top">
<text x="28.5" y="22.5" text-anchor="middle" class="element">Code</text>
</a>
</g>
<line class="connector" marker-end="url(#arrowEnd)" x1="567" y1="24.38" x2="687" y2="24.38" />
<text x="570.75" y="20.62" text-anchor="right" class="lhsText">pattern </text>
<line class="connector" marker-start="url(#arrowStart)" x1="537" y1="24.38" x2="567" y2="24.38" />
<line class="connector" x1="567" y1="24.38" x2="567" y2="24.38" />
</g>
<g>
<g transform="translate(687 7.5)">
<a href="http://hl7.org/fhir/us/breast-radiology/CodeSystem/ObservationCodesCS" target="_top">
<rect class="value" x="0" y="0" width="582" height="33.75" rx="3.75" ry="3.75" />
</a>
<a href="http://hl7.org/fhir/us/breast-radiology/CodeSystem/ObservationCodesCS" target="_top">
<text x="291" y="22.5" text-anchor="middle" class="value">ObservationCodesCS#abnormalityForeignObjectObservation</text>
</a>
</g>
</g>
<g>
<g transform="translate(480 48.75)">
<a href="StructureDefinition-AbnormalityForeignObject-definitions.html#Observation.bodySite" target="_top">
<rect class="element" x="0" y="0" width="99" height="33.75" rx="3.75" ry="3.75" />
</a>
<a href="StructureDefinition-AbnormalityForeignObject-definitions.html#Observation.bodySite" target="_top">
<text x="49.5" y="22.5" text-anchor="middle" class="element">BodySite</text>
</a>
</g>
<line class="connector" marker-end="url(#arrowEnd)" x1="609" y1="65.62" x2="669" y2="65.62" />
<text x="612.75" y="61.88" text-anchor="right" class="lhsText">1..*</text>
<line class="connector" marker-start="url(#arrowStart)" x1="579" y1="65.62" x2="609" y2="65.62" />
<line class="connector" x1="609" y1="65.62" x2="609" y2="65.62" />
</g>
<g>
<g transform="translate(669 48.75)">
<a href="StructureDefinition-AbnormalityForeignObject-definitions.html#Observation.bodySite.extension" target="_top">
<rect class="element" x="0" y="0" width="109.5" height="33.75" rx="3.75" ry="3.75" />
</a>
<a href="StructureDefinition-AbnormalityForeignObject-definitions.html#Observation.bodySite.extension" target="_top">
<text x="54.75" y="22.5" text-anchor="middle" class="element">extension</text>
</a>
</g>
<line class="connector" marker-end="url(#arrowEnd)" x1="808.5" y1="65.62" x2="838.5" y2="65.62" />
<line class="connector" marker-start="url(#arrowStart)" x1="778.5" y1="65.62" x2="808.5" y2="65.62" />
<line class="connector" x1="808.5" y1="65.62" x2="808.5" y2="65.62" />
</g>
<g>
<g transform="translate(838.5 48.75)">
<a href="StructureDefinition-BreastBodyLocationExtension.html" target="_top">
<rect class="extension" x="0" y="0" width="204" height="33.75" rx="3.75" ry="3.75" />
</a>
<a href="StructureDefinition-BreastBodyLocationExtension.html" target="_top">
<text x="102" y="22.5" text-anchor="middle" class="extension">BreastBodyLocation</text>
</a>
</g>
</g>
<g>
<g transform="translate(480 90)">
<a href="StructureDefinition-AbnormalityForeignObject-definitions.html#Observation.component" target="_top">
<rect class="element" x="0" y="0" width="120" height="33.75" rx="3.75" ry="3.75" />
</a>
<a href="StructureDefinition-AbnormalityForeignObject-definitions.html#Observation.component" target="_top">
<text x="60" y="22.5" text-anchor="middle" class="element">Components</text>
</a>
</g>
<line class="connector" marker-end="url(#arrowEnd)" x1="630" y1="106.88" x2="690" y2="106.88" />
<text x="633.75" y="103.12" text-anchor="right" class="lhsText">0..1</text>
<line class="connector" marker-end="url(#arrowEnd)" x1="630" y1="148.12" x2="690" y2="148.12" />
<text x="633.75" y="144.38" text-anchor="right" class="lhsText">0..*</text>
<line class="connector" marker-end="url(#arrowEnd)" x1="630" y1="189.38" x2="690" y2="189.38" />
<text x="633.75" y="185.62" text-anchor="right" class="lhsText">1..1</text>
<line class="connector" marker-end="url(#arrowEnd)" x1="630" y1="230.62" x2="690" y2="230.62" />
<text x="633.75" y="226.88" text-anchor="right" class="lhsText">0..*</text>
<line class="connector" marker-end="url(#arrowEnd)" x1="630" y1="271.88" x2="690" y2="271.88" />
<text x="633.75" y="268.12" text-anchor="right" class="lhsText">0..*</text>
<line class="connector" marker-end="url(#arrowEnd)" x1="630" y1="313.12" x2="690" y2="313.12" />
<text x="633.75" y="309.38" text-anchor="right" class="lhsText">0..3</text>
<line class="connector" marker-end="url(#arrowEnd)" x1="630" y1="363.75" x2="690" y2="363.75" />
<text x="633.75" y="360" text-anchor="right" class="lhsText">0..*</text>
<line class="connector" marker-start="url(#arrowStart)" x1="600" y1="106.88" x2="630" y2="106.88" />
<line class="connector" x1="630" y1="106.88" x2="630" y2="363.75" />
</g>
<g>
<g transform="translate(690 90)">
<a href="StructureDefinition-AbnormalityForeignObject-definitions.html#Observation.component:biRadsAssessmentCategory" target="_top">
<rect class="element" x="0" y="0" width="130.5" height="33.75" rx="3.75" ry="3.75" />
</a>
<a href="StructureDefinition-AbnormalityForeignObject-definitions.html#Observation.component:biRadsAssessmentCategory" target="_top">
<text x="65.25" y="22.5" text-anchor="middle" class="element">BiRads Code</text>
</a>
</g>
<line class="connector" marker-end="url(#arrowEnd)" x1="850.5" y1="106.88" x2="910.5" y2="106.88" />
<text x="854.25" y="103.12" text-anchor="right" class="lhsText">bind</text>
<line class="connector" marker-start="url(#arrowStart)" x1="820.5" y1="106.88" x2="850.5" y2="106.88" />
<line class="connector" x1="850.5" y1="106.88" x2="850.5" y2="106.88" />
</g>
<g>
<g transform="translate(910.5 90)">
<a href="ValueSet-BiRadsAssessmentCategoryVS.html" target="_top">
<rect class="valueSet" x="0" y="0" width="288" height="33.75" rx="3.75" ry="3.75" />
</a>
<a href="ValueSet-BiRadsAssessmentCategoryVS.html" target="_top">
<text x="144" y="22.5" text-anchor="middle" class="valueSet">BiRadsAssessmentCategoryVS</text>
</a>
</g>
</g>
<g>
<g transform="translate(690 131.25)">
<a href="StructureDefinition-AbnormalityForeignObject-definitions.html#Observation.component:correspondsWith" target="_top">
<rect class="element" x="0" y="0" width="183" height="33.75" rx="3.75" ry="3.75" />
</a>
<a href="StructureDefinition-AbnormalityForeignObject-definitions.html#Observation.component:correspondsWith" target="_top">
<text x="91.5" y="22.5" text-anchor="middle" class="element">Corresponds With</text>
</a>
</g>
<line class="connector" marker-end="url(#arrowEnd)" x1="903" y1="148.12" x2="963" y2="148.12" />
<text x="906.75" y="144.38" text-anchor="right" class="lhsText">bind</text>
<line class="connector" marker-start="url(#arrowStart)" x1="873" y1="148.12" x2="903" y2="148.12" />
<line class="connector" x1="903" y1="148.12" x2="903" y2="148.12" />
</g>
<g>
<g transform="translate(963 131.25)">
<a href="ValueSet-CorrespondsWithVS.html" target="_top">
<rect class="valueSet" x="0" y="0" width="193.5" height="33.75" rx="3.75" ry="3.75" />
</a>
<a href="ValueSet-CorrespondsWithVS.html" target="_top">
<text x="96.75" y="22.5" text-anchor="middle" class="valueSet">CorrespondsWithVS</text>
</a>
</g>
</g>
<g>
<g transform="translate(690 172.5)">
<a href="StructureDefinition-AbnormalityForeignObject-definitions.html#Observation.component:abnormalityForeignObjectType" target="_top">
<rect class="element" x="0" y="0" width="214.5" height="33.75" rx="3.75" ry="3.75" />
</a>
<a href="StructureDefinition-AbnormalityForeignObject-definitions.html#Observation.component:abnormalityForeignObjectType" target="_top">
<text x="107.25" y="22.5" text-anchor="middle" class="element">Foreign Object Type</text>
</a>
</g>
<line class="connector" marker-end="url(#arrowEnd)" x1="934.5" y1="189.38" x2="994.5" y2="189.38" />
<text x="938.25" y="185.62" text-anchor="right" class="lhsText">bind</text>
<line class="connector" marker-start="url(#arrowStart)" x1="904.5" y1="189.38" x2="934.5" y2="189.38" />
<line class="connector" x1="934.5" y1="189.38" x2="934.5" y2="189.38" />
</g>
<g>
<g transform="translate(994.5 172.5)">
<a href="ValueSet-AbnormalityForeignObjectTypeVS.html" target="_top">
<rect class="valueSet" x="0" y="0" width="330" height="33.75" rx="3.75" ry="3.75" />
</a>
<a href="ValueSet-AbnormalityForeignObjectTypeVS.html" target="_top">
<text x="165" y="22.5" text-anchor="middle" class="valueSet">AbnormalityForeignObjectTypeVS</text>
</a>
</g>
</g>
<g>
<g transform="translate(690 213.75)">
<a href="StructureDefinition-AbnormalityForeignObject-definitions.html#Observation.component:notPreviouslySeen" target="_top">
<rect class="element" x="0" y="0" width="214.5" height="33.75" rx="3.75" ry="3.75" />
</a>
<a href="StructureDefinition-AbnormalityForeignObject-definitions.html#Observation.component:notPreviouslySeen" target="_top">
<text x="107.25" y="22.5" text-anchor="middle" class="element">Not Previously Seen</text>
</a>
</g>
<line class="connector" marker-end="url(#arrowEnd)" x1="934.5" y1="230.62" x2="994.5" y2="230.62" />
<text x="938.25" y="226.88" text-anchor="right" class="lhsText">bind</text>
<line class="connector" marker-start="url(#arrowStart)" x1="904.5" y1="230.62" x2="934.5" y2="230.62" />
<line class="connector" x1="934.5" y1="230.62" x2="934.5" y2="230.62" />
</g>
<g>
<g transform="translate(994.5 213.75)">
<a href="ValueSet-NotPreviouslySeenVS.html" target="_top">
<rect class="valueSet" x="0" y="0" width="214.5" height="33.75" rx="3.75" ry="3.75" />
</a>
<a href="ValueSet-NotPreviouslySeenVS.html" target="_top">
<text x="107.25" y="22.5" text-anchor="middle" class="valueSet">NotPreviouslySeenVS</text>
</a>
</g>
</g>
<g>
<g transform="translate(690 255)">
<a href="StructureDefinition-AbnormalityForeignObject-definitions.html#Observation.component:obsChanges" target="_top">
<rect class="element" x="0" y="0" width="183" height="33.75" rx="3.75" ry="3.75" />
</a>
<a href="StructureDefinition-AbnormalityForeignObject-definitions.html#Observation.component:obsChanges" target="_top">
<text x="91.5" y="22.5" text-anchor="middle" class="element">Observed Changes</text>
</a>
</g>
<line class="connector" marker-end="url(#arrowEnd)" x1="903" y1="271.88" x2="963" y2="271.88" />
<text x="906.75" y="268.12" text-anchor="right" class="lhsText">bind</text>
<line class="connector" marker-start="url(#arrowStart)" x1="873" y1="271.88" x2="903" y2="271.88" />
<line class="connector" x1="903" y1="271.88" x2="903" y2="271.88" />
</g>
<g>
<g transform="translate(963 255)">
<a href="ValueSet-ObservedChangesVS.html" target="_top">
<rect class="valueSet" x="0" y="0" width="193.5" height="33.75" rx="3.75" ry="3.75" />
</a>
<a href="ValueSet-ObservedChangesVS.html" target="_top">
<text x="96.75" y="22.5" text-anchor="middle" class="valueSet">ObservedChangesVS</text>
</a>
</g>
</g>
<g>
<g transform="translate(690 296.25)">
<a href="StructureDefinition-AbnormalityForeignObject-definitions.html#Observation.component:obsSize" target="_top">
<rect class="element" x="0" y="0" width="151.5" height="33.75" rx="3.75" ry="3.75" />
</a>
<a href="StructureDefinition-AbnormalityForeignObject-definitions.html#Observation.component:obsSize" target="_top">
<text x="75.75" y="22.5" text-anchor="middle" class="element">Observed Size</text>
</a>
</g>
</g>
<g>
<g transform="translate(690 337.5)">
<a href="StructureDefinition-AbnormalityForeignObject-definitions.html#Observation.component:prevDemBy" target="_top">
<rect class="element" x="0" y="0" width="256.5" height="52.5" rx="3.75" ry="3.75" />
</a>
<a href="StructureDefinition-AbnormalityForeignObject-definitions.html#Observation.component:prevDemBy" target="_top">
<text x="128.25" y="22.5" text-anchor="middle" class="element">Previously</text>
</a>
<a href="StructureDefinition-AbnormalityForeignObject-definitions.html#Observation.component:prevDemBy" target="_top">
<text x="128.25" y="41.25" text-anchor="middle" class="element">Demonstrated by Changes</text>
</a>
</g>
<line class="connector" marker-end="url(#arrowEnd)" x1="976.5" y1="354.38" x2="1036.5" y2="354.38" />
<text x="980.25" y="350.62" text-anchor="right" class="lhsText">bind</text>
<line class="connector" marker-start="url(#arrowStart)" x1="946.5" y1="363.75" x2="976.5" y2="363.75" />
<line class="connector" x1="976.5" y1="354.38" x2="976.5" y2="363.75" />
</g>
<g>
<g transform="translate(1036.5 337.5)">
<a href="ValueSet-PreviouslyDemonstratedByVS.html" target="_top">
<rect class="valueSet" x="0" y="0" width="288" height="33.75" rx="3.75" ry="3.75" />
</a>
<a href="ValueSet-PreviouslyDemonstratedByVS.html" target="_top">
<text x="144" y="22.5" text-anchor="middle" class="valueSet">PreviouslyDemonstratedByVS</text>
</a>
</g>
</g>
<g>
<g transform="translate(480 397.5)">
<a href="StructureDefinition-AbnormalityForeignObject-definitions.html#Observation.hasMember" target="_top">
<rect class="element" x="0" y="0" width="109.5" height="33.75" rx="3.75" ry="3.75" />
</a>
<a href="StructureDefinition-AbnormalityForeignObject-definitions.html#Observation.hasMember" target="_top">
<text x="54.75" y="22.5" text-anchor="middle" class="element">HasMember</text>
</a>
</g>
<line class="connector" marker-end="url(#arrowEnd)" x1="619.5" y1="414.38" x2="679.5" y2="414.38" />
<text x="623.25" y="410.62" text-anchor="right" class="lhsText">0..*</text>
<line class="connector" marker-end="url(#arrowEnd)" x1="619.5" y1="455.62" x2="679.5" y2="455.62" />
<text x="623.25" y="451.88" text-anchor="right" class="lhsText">0..*</text>
<line class="connector" marker-start="url(#arrowStart)" x1="589.5" y1="414.38" x2="619.5" y2="414.38" />
<line class="connector" x1="619.5" y1="414.38" x2="619.5" y2="455.62" />
</g>
<g>
<g transform="translate(679.5 397.5)">
<a href="StructureDefinition-AssociatedFeature.html" target="_top">
<rect class="profile" x="0" y="0" width="204" height="33.75" rx="3.75" ry="3.75" />
</a>
<a href="StructureDefinition-AssociatedFeature.html" target="_top">
<text x="102" y="22.5" text-anchor="middle" class="profile">Associated Feature</text>
</a>
</g>
</g>
<g>
<g transform="translate(679.5 438.75)">
<a href="StructureDefinition-ConsistentWith.html" target="_top">
<rect class="profile" x="0" y="0" width="172.5" height="33.75" rx="3.75" ry="3.75" />
</a>
<a href="StructureDefinition-ConsistentWith.html" target="_top">
<text x="86.25" y="22.5" text-anchor="middle" class="profile">Consistent With</text>
</a>
</g>
</g>
<g>
<g transform="translate(7.5 555)">
<rect class="focus" x="0" y="0" width="67.5" height="33.75" rx="3.75" ry="3.75" />
<text x="33.75" y="22.5" text-anchor="middle" class="focus">Focus</text>
</g>
<g transform="translate(82.5 555)">
<rect class="profile" x="0" y="0" width="193.5" height="33.75" rx="3.75" ry="3.75" />
<text x="96.75" y="22.5" text-anchor="middle" class="profile">Profiled Resource</text>
</g>
<g transform="translate(283.5 555)">
<rect class="extension" x="0" y="0" width="109.5" height="33.75" rx="3.75" ry="3.75" />
<text x="54.75" y="22.5" text-anchor="middle" class="extension">Extension</text>
</g>
<g transform="translate(400.5 555)">
<rect class="element" x="0" y="0" width="183" height="33.75" rx="3.75" ry="3.75" />
<text x="91.5" y="22.5" text-anchor="middle" class="element">Resource Element</text>
</g>
<g transform="translate(591 555)">
<rect class="valueSet" x="0" y="0" width="99" height="33.75" rx="3.75" ry="3.75" />
<text x="49.5" y="22.5" text-anchor="middle" class="valueSet">ValueSet</text>
</g>
<g transform="translate(697.5 555)">
<rect class="value" x="0" y="0" width="67.5" height="33.75" rx="3.75" ry="3.75" />
<text x="33.75" y="22.5" text-anchor="middle" class="value">Value</text>
</g>
</g>
</svg>
