<?xml version="1.0"?>
<!DOCTYPE svg PUBLIC "-//W3C//DTD SVG 1.1//EN" "http://www.w3.org/Graphics/SVG/1.1/DTD/svg11.dtd">
<svg xmlns="http://www.w3.org/2000/svg" version="1.1" width="778.5" height="82.5">
<defs>
<marker id="arrowStart" markerWidth="3.75" markerHeight="3.75" markerUnits="px" refX="1.875" refY="1.875">
<circle fill="Black" stroke-width="0" cx="1.875" cy="1.875" r="1.875" />
</marker>
<marker id="arrowEnd" markerWidth="7.5" markerHeight="7.5" markerUnits="px" refX="7.5" refY="3.75">
<polygon fill="Black" stroke-width="0" points="0 0 7.5 3.75 0 7.5" />
</marker>
</defs>
<g>
<g>
<rect fill="LightBlue" stroke="Black" stroke-width="1.875" x="7.5" y="7.5" width="225" height="33.75" rx="3.75" ry="3.75" />
<a href="./StructureDefinition-BreastRadMammoAbnormalityCalcification.html" target="_blank">
<title>'BreastRadMammoAbnormalityCalcification'</title>
<text x="15" y="30">Mg Calc. Abnormality</text>
</a>
</g>
<line stroke="Black" stroke-width="1.875" marker-end="url(#arrowEnd)" x1="262.5" y1="33.75" x2="292.5" y2="33.75" />
<line stroke="Black" stroke-width="1.875" marker-start="url(#arrowStart)" x1="232.5" y1="24.375" x2="262.5" y2="24.375" />
<line stroke="Black" stroke-width="1.875" x1="262.5" y1="24.375" x2="262.5" y2="33.75" />
</g>
<g>
<g>
<rect fill="LightGreen" stroke="Black" stroke-width="1.875" x="292.5" y="7.5" width="141" height="52.5" rx="3.75" ry="3.75" />
<text x="300" y="30">Mg Calc.</text>
<text x="300" y="48.75">Distribution</text>
</g>
<line stroke="Black" stroke-width="1.875" marker-end="url(#arrowEnd)" x1="463.5" y1="33.75" x2="493.50003" y2="33.75" />
<line stroke="Black" stroke-width="1.875" marker-start="url(#arrowStart)" x1="433.5" y1="33.75" x2="463.5" y2="33.75" />
<line stroke="Black" stroke-width="1.875" x1="463.5" y1="33.75" x2="463.5" y2="33.75" />
</g>
<g>
<g>
<rect fill="LightSalmon" stroke="Black" stroke-width="1.875" x="493.50003" y="7.5" width="225" height="52.5" rx="3.75" ry="3.75" />
<a href="./ValueSet-MammoCalcificationDistributionVS.html" target="_blank">
<title>'MammoCalcificationDistributionVS'</title>
<text x="501.00003" y="30">Mg Calc.</text>
</a>
<a href="./ValueSet-MammoCalcificationDistributionVS.html" target="_blank">
<title>'MammoCalcificationDistributionVS'</title>
<text x="501.00003" y="48.75">DistributionValueSet</text>
</a>
</g>
</g>
</svg>
