<?xml version="1.0"?>
<!DOCTYPE svg PUBLIC "-//W3C//DTD SVG 1.1//EN" "http://www.w3.org/Graphics/SVG/1.1/DTD/svg11.dtd">
<svg xmlns="http://www.w3.org/2000/svg" version="1.1" width="511.49997" height="105">
<defs>
<marker id="arrowStart" markerWidth="3.75" markerHeight="3.75" markerUnits="px" refX="1.875" refY="1.875">
<circle fill="Black" stroke-width="0" cx="1.875" cy="1.875" r="1.875" />
</marker>
<marker id="arrowEnd" markerWidth="7.5" markerHeight="7.5" markerUnits="px" refX="7.5" refY="3.75">
<polygon fill="Black" stroke-width="0" points="0 0 7.5 3.75 0 7.5" />
</marker>
</defs>
<g>
<g transform="translate(7.5 7.5)">
<rect fill="LightCyan" stroke="Black" stroke-width="1.875" x="0" y="0" width="172.5" height="33.75" rx="3.75" ry="3.75" />
<a href="./StructureDefinition-BodyDistanceFromExtension.html" target="_top">
<text x="86.25" y="22.5" text-anchor="middle">Body Dist. From</text>
</a>
</g>
<g transform="translate(7.5 48.75)">
<rect fill="LightCyan" stroke="Black" stroke-width="1.875" x="0" y="0" width="172.5" height="33.75" rx="3.75" ry="3.75" />
<a href="./StructureDefinition-TumorSatelliteExtension.html" target="_top">
<text x="86.25" y="22.5" text-anchor="middle">Tumor Satellite</text>
</a>
</g>
<line stroke="Black" stroke-width="1.875" marker-end="url(#arrowEnd)" x1="195" y1="33.75" x2="240" y2="33.75" />
<text x="198.75" y="30" text-anchor="left"></text>
<line stroke="Black" stroke-width="1.875" marker-start="url(#arrowStart)" x1="180" y1="24.375" x2="195" y2="24.375" />
<line stroke="Black" stroke-width="1.875" marker-start="url(#arrowStart)" x1="180" y1="65.625" x2="195" y2="65.625" />
<line stroke="Black" stroke-width="1.875" x1="195" y1="24.375" x2="195" y2="65.625" />
</g>
<g>
<g transform="translate(240 7.5)">
<rect fill="White" stroke="Black" stroke-width="1.875" x="0" y="0" width="151.49998" height="52.5" rx="3.75" ry="3.75" />
<text x="75.74999" y="22.5" text-anchor="middle">UnitsOfLength</text>
<text x="75.74999" y="41.25" text-anchor="middle">ValueSet</text>
</g>
</g>
</svg>
