<?xml version="1.0"?>
<?xml-stylesheet type="text/css" href="FocusGraph.css" ?>
<!DOCTYPE svg PUBLIC "-//W3C//DTD SVG 1.1//EN" "http://www.w3.org/Graphics/SVG/1.1/DTD/svg11.dtd">
<svg xmlns="http://www.w3.org/2000/svg" version="1.1" width="1016.93" height="442.5">
<defs>
<marker id="arrowStart" markerWidth="3.75" markerHeight="3.75" markerUnits="px" refX="1.88" refY="1.88">
<circle class="connector" cx="1.88" cy="1.88" r="1.88" />
</marker>
<marker id="arrowEnd" markerWidth="7.5" markerHeight="7.5" markerUnits="px" refX="7.5" refY="3.75">
<polygon class="connector" points="0 0 7.5 3.75 0 7.5" />
</marker>
</defs>
<g>
<g transform="translate(3.75 3.75)">
<a href="StructureDefinition-BreastImagingComposition.html" target="_top">
<rect class="profile" x="0" y="0" width="104.43" height="63.75" rx="3.75" ry="3.75" />
</a>
<a href="StructureDefinition-BreastImagingComposition.html" target="_top">
<text x="5.62" y="18.75" text-anchor="left" class="profile">Breast</text>
</a>
<a href="StructureDefinition-BreastImagingComposition.html" target="_top">
<text x="5.62" y="37.5" text-anchor="left" class="profile">Imaging</text>
</a>
<a href="StructureDefinition-BreastImagingComposition.html" target="_top">
<text x="5.62" y="56.25" text-anchor="left" class="profile">Composition</text>
</a>
</g>
<line class="connector" marker-end="url(#arrowEnd)" x1="138.18" y1="26.25" x2="198.18" y2="26.25" />
<text x="141.93" y="22.5" text-anchor="right" class="lhsText">1..1</text>
<line class="connector" marker-start="url(#arrowStart)" x1="108.18" y1="35.62" x2="138.18" y2="35.62" />
<line class="connector" x1="138.18" y1="26.25" x2="138.18" y2="35.62" />
</g>
<g>
<g transform="translate(198.18 3.75)">
<a href="StructureDefinition-FindingsLeftBreast.html" target="_top">
<rect class="focus" x="0" y="0" width="92.52" height="45" rx="3.75" ry="3.75" />
</a>
<a href="StructureDefinition-FindingsLeftBreast.html" target="_top">
<text x="5.62" y="18.75" text-anchor="left" class="focus">Findings</text>
</a>
<a href="StructureDefinition-FindingsLeftBreast.html" target="_top">
<text x="5.62" y="37.5" text-anchor="left" class="focus">Left Breast</text>
</a>
</g>
<line class="connector" marker-end="url(#arrowEnd)" x1="320.7" y1="16.88" x2="380.7" y2="16.88" />
<text x="324.45" y="13.12" text-anchor="right" class="lhsText">1..1</text>
<line class="connector" marker-end="url(#arrowEnd)" x1="320.7" y1="50.62" x2="380.7" y2="50.62" />
<text x="324.45" y="46.88" text-anchor="right" class="lhsText">1..1</text>
<line class="connector" marker-end="url(#arrowEnd)" x1="320.7" y1="84.38" x2="380.7" y2="84.38" />
<text x="324.45" y="80.62" text-anchor="right" class="lhsText">0..*</text>
<line class="connector" marker-start="url(#arrowStart)" x1="290.7" y1="26.25" x2="320.7" y2="26.25" />
<line class="connector" x1="320.7" y1="16.88" x2="320.7" y2="84.38" />
</g>
<g>
<g transform="translate(380.7 3.75)">
<a href="StructureDefinition-FindingsLeftBreast-definitions.html#Observation.code" target="_top">
<rect class="element" x="0" y="0" width="52.22" height="26.25" rx="3.75" ry="3.75" />
</a>
<a href="StructureDefinition-FindingsLeftBreast-definitions.html#Observation.code" target="_top">
<text x="5.62" y="18.75" text-anchor="left" class="element">Code</text>
</a>
</g>
<line class="connector" marker-end="url(#arrowEnd)" x1="462.92" y1="16.88" x2="582.92" y2="16.88" />
<text x="466.67" y="13.12" text-anchor="right" class="lhsText">pattern </text>
<line class="connector" marker-start="url(#arrowStart)" x1="432.92" y1="16.88" x2="462.92" y2="16.88" />
<line class="connector" x1="462.92" y1="16.88" x2="462.92" y2="16.88" />
</g>
<g>
<g transform="translate(582.92 3.75)">
<a href="CodeSystem-ObservationCodesCS.html" target="_top">
<rect class="value" x="0" y="0" width="402.14" height="26.25" rx="3.75" ry="3.75" />
</a>
<a href="CodeSystem-ObservationCodesCS.html" target="_top">
<text x="5.62" y="18.75" text-anchor="left" class="value">ObservationCodesCS#findingsLeftBreastObservation</text>
</a>
</g>
</g>
<g>
<g transform="translate(380.7 37.5)">
<a href="StructureDefinition-FindingsLeftBreast-definitions.html#Observation.bodySite" target="_top">
<rect class="element" x="0" y="0" width="83.37" height="26.25" rx="3.75" ry="3.75" />
</a>
<a href="StructureDefinition-FindingsLeftBreast-definitions.html#Observation.bodySite" target="_top">
<text x="5.62" y="18.75" text-anchor="left" class="element">Body Site</text>
</a>
</g>
<line class="connector" marker-end="url(#arrowEnd)" x1="494.07" y1="50.62" x2="614.07" y2="50.62" />
<text x="497.82" y="46.88" text-anchor="right" class="lhsText">pattern </text>
<line class="connector" marker-start="url(#arrowStart)" x1="464.07" y1="50.62" x2="494.07" y2="50.62" />
<line class="connector" x1="494.07" y1="50.62" x2="494.07" y2="50.62" />
</g>
<g>
<g transform="translate(614.07 37.5)">
<a target="_top">
<rect class="value" x="0" y="0" width="116.37" height="26.25" rx="3.75" ry="3.75" />
</a>
<a target="_top">
<text x="5.62" y="18.75" text-anchor="left" class="value">sct#80248007</text>
</a>
</g>
</g>
<g>
<g transform="translate(380.7 71.25)">
<a href="StructureDefinition-FindingsLeftBreast-definitions.html#Observation.hasMember" target="_top">
<rect class="element" x="0" y="0" width="102.57" height="26.25" rx="3.75" ry="3.75" />
</a>
<a href="StructureDefinition-FindingsLeftBreast-definitions.html#Observation.hasMember" target="_top">
<text x="5.62" y="18.75" text-anchor="left" class="element">HasMember</text>
</a>
</g>
<line class="connector" marker-end="url(#arrowEnd)" x1="513.27" y1="84.38" x2="573.27" y2="84.38" />
<text x="517.02" y="80.62" text-anchor="right" class="lhsText">0..1</text>
<line class="connector" marker-end="url(#arrowEnd)" x1="513.27" y1="118.12" x2="573.27" y2="118.12" />
<text x="517.02" y="114.38" text-anchor="right" class="lhsText">0..1</text>
<line class="connector" marker-end="url(#arrowEnd)" x1="513.27" y1="151.88" x2="573.27" y2="151.88" />
<text x="517.02" y="148.12" text-anchor="right" class="lhsText">0..1</text>
<line class="connector" marker-end="url(#arrowEnd)" x1="513.27" y1="185.62" x2="573.27" y2="185.62" />
<text x="517.02" y="181.88" text-anchor="right" class="lhsText">0..1</text>
<line class="connector" marker-end="url(#arrowEnd)" x1="513.27" y1="228.75" x2="573.27" y2="228.75" />
<text x="517.02" y="225" text-anchor="right" class="lhsText">0..1</text>
<line class="connector" marker-end="url(#arrowEnd)" x1="513.27" y1="271.88" x2="573.27" y2="271.88" />
<text x="517.02" y="268.12" text-anchor="right" class="lhsText">0..1</text>
<line class="connector" marker-end="url(#arrowEnd)" x1="513.27" y1="305.62" x2="573.27" y2="305.62" />
<text x="517.02" y="301.88" text-anchor="right" class="lhsText">0..1</text>
<line class="connector" marker-start="url(#arrowStart)" x1="483.27" y1="84.38" x2="513.27" y2="84.38" />
<line class="connector" x1="513.27" y1="84.38" x2="513.27" y2="305.62" />
</g>
<g>
<g transform="translate(573.27 71.25)">
<a href="StructureDefinition-BreastAssessmentCategory.html" target="_top">
<rect class="profile" x="0" y="0" width="226.23" height="26.25" rx="3.75" ry="3.75" />
</a>
<a href="StructureDefinition-BreastAssessmentCategory.html" target="_top">
<text x="5.62" y="18.75" text-anchor="left" class="profile">Breast Assessment Category</text>
</a>
</g>
</g>
<g>
<g transform="translate(573.27 105)">
<a href="StructureDefinition-BreastComposition.html" target="_top">
<rect class="profile" x="0" y="0" width="156.63" height="26.25" rx="3.75" ry="3.75" />
</a>
<a href="StructureDefinition-BreastComposition.html" target="_top">
<text x="5.62" y="18.75" text-anchor="left" class="profile">Breast Composition</text>
</a>
</g>
</g>
<g>
<g transform="translate(573.27 138.75)">
<a href="StructureDefinition-MGFinding.html" target="_top">
<rect class="profile" x="0" y="0" width="102.6" height="26.25" rx="3.75" ry="3.75" />
</a>
<a href="StructureDefinition-MGFinding.html" target="_top">
<text x="5.62" y="18.75" text-anchor="left" class="profile">Mg Findings</text>
</a>
</g>
</g>
<g>
<g transform="translate(573.27 172.5)">
<a href="StructureDefinition-MRIFinding.html" target="_top">
<rect class="profile" x="0" y="0" width="109.91" height="26.25" rx="3.75" ry="3.75" />
</a>
<a href="StructureDefinition-MRIFinding.html" target="_top">
<text x="5.62" y="18.75" text-anchor="left" class="profile">MRI Findings</text>
</a>
</g>
</g>
<g>
<g transform="translate(573.27 206.25)">
<a href="StructureDefinition-NMFinding.html" target="_top">
<rect class="profile" x="0" y="0" width="140.15" height="45" rx="3.75" ry="3.75" />
</a>
<a href="StructureDefinition-NMFinding.html" target="_top">
<text x="5.62" y="18.75" text-anchor="left" class="profile">Nuclear Medicine</text>
</a>
<a href="StructureDefinition-NMFinding.html" target="_top">
<text x="5.62" y="37.5" text-anchor="left" class="profile">Findings</text>
</a>
</g>
</g>
<g>
<g transform="translate(573.27 258.75)">
<a href="StructureDefinition-USFinding.html" target="_top">
<rect class="profile" x="0" y="0" width="159.4" height="26.25" rx="3.75" ry="3.75" />
</a>
<a href="StructureDefinition-USFinding.html" target="_top">
<text x="5.62" y="18.75" text-anchor="left" class="profile">Ultrasound Findings</text>
</a>
</g>
</g>
<g>
<g transform="translate(573.27 292.5)">
<a href="StructureDefinition-OtherModalityFinding.html" target="_top">
<rect class="profile" x="0" y="0" width="186.86" height="26.25" rx="3.75" ry="3.75" />
</a>
<a href="StructureDefinition-OtherModalityFinding.html" target="_top">
<text x="5.62" y="18.75" text-anchor="left" class="profile">Other Modality Findings</text>
</a>
</g>
</g>
<g>
<g transform="translate(3.75 401.25)">
<rect class="focus" x="0" y="0" width="57.72" height="26.25" rx="3.75" ry="3.75" />
<text x="5.62" y="18.75" text-anchor="left" class="focus">Focus</text>
</g>
<g transform="translate(68.97 401.25)">
<rect class="profile" x="0" y="0" width="143.81" height="26.25" rx="3.75" ry="3.75" />
<text x="5.62" y="18.75" text-anchor="left" class="profile">Profiled Resource</text>
</g>
<g transform="translate(220.28 401.25)">
<rect class="element" x="0" y="0" width="148.39" height="26.25" rx="3.75" ry="3.75" />
<text x="5.62" y="18.75" text-anchor="left" class="element">Resource Element</text>
</g>
<g transform="translate(376.16 401.25)">
<rect class="value" x="0" y="0" width="54.98" height="26.25" rx="3.75" ry="3.75" />
<text x="5.62" y="18.75" text-anchor="left" class="value">Value</text>
</g>
</g>
</svg>
