<?xml version="1.0"?>
<!DOCTYPE svg PUBLIC "-//W3C//DTD SVG 1.1//EN" "http://www.w3.org/Graphics/SVG/1.1/DTD/svg11.dtd">
<svg xmlns="http://www.w3.org/2000/svg" version="1.1" width="589.5" height="63.75">
<defs>
<marker id="arrowStart" markerWidth="3.75" markerHeight="3.75" markerUnits="px" refX="1.875" refY="1.875">
<circle fill="Black" stroke-width="0" cx="1.875" cy="1.875" r="1.875" />
</marker>
<marker id="arrowEnd" markerWidth="7.5" markerHeight="7.5" markerUnits="px" refX="7.5" refY="3.75">
<polygon fill="Black" stroke-width="0" points="0 0 7.5 3.75 0 7.5" />
</marker>
</defs>
<g>
<g transform="translate(7.5 7.5)">
<rect fill="LightBlue" stroke="Black" stroke-width="1.875" x="0" y="0" width="88.5" height="33.75" rx="3.75" ry="3.75" />
<a href="./StructureDefinition-BreastRadUSMass.html" target="_blank">
<title>'BreastRadUSMass'</title>
<text x="44.25" y="22.5" text-anchor="middle">US Mass</text>
</a>
</g>
<line stroke="Black" stroke-width="1.875" marker-end="url(#arrowEnd)" x1="125.99999" y1="24.375" x2="156" y2="24.375" />
<line stroke="Black" stroke-width="1.875" marker-start="url(#arrowStart)" x1="96" y1="24.375" x2="125.99999" y2="24.375" />
<line stroke="Black" stroke-width="1.875" x1="125.99999" y1="24.375" x2="125.99999" y2="24.375" />
</g>
<g>
<g transform="translate(156 7.5)">
<rect fill="LightGreen" stroke="Black" stroke-width="1.875" x="0" y="0" width="109.49999" height="33.75" rx="3.75" ry="3.75" />
<text x="54.749996" y="22.5" text-anchor="middle">US Margin</text>
</g>
<line stroke="Black" stroke-width="1.875" marker-end="url(#arrowEnd)" x1="295.49997" y1="24.375" x2="325.49997" y2="24.375" />
<line stroke="Black" stroke-width="1.875" marker-start="url(#arrowStart)" x1="265.49997" y1="24.375" x2="295.49997" y2="24.375" />
<line stroke="Black" stroke-width="1.875" x1="295.49997" y1="24.375" x2="295.49997" y2="24.375" />
</g>
<g>
<g transform="translate(325.49997 7.5)">
<rect fill="LightSalmon" stroke="Black" stroke-width="1.875" x="0" y="0" width="203.99998" height="33.75" rx="3.75" ry="3.75" />
<a href="./ValueSet-BreastRadUSMarginVS.html" target="_blank">
<title>'BreastRadUSMarginVS'</title>
<text x="101.99999" y="22.5" text-anchor="middle">US Margin ValueSet</text>
</a>
</g>
</g>
</svg>
