<?xml version="1.0"?>
<!DOCTYPE svg PUBLIC "-//W3C//DTD SVG 1.1//EN" "http://www.w3.org/Graphics/SVG/1.1/DTD/svg11.dtd">
<svg xmlns="http://www.w3.org/2000/svg" version="1.1" width="789.00006" height="618.75">
<defs>
<marker id="arrowStart" markerWidth="3.75" markerHeight="3.75" markerUnits="px" refX="1.875" refY="1.875">
<circle fill="Black" stroke-width="0" cx="1.875" cy="1.875" r="1.875" />
</marker>
<marker id="arrowEnd" markerWidth="7.5" markerHeight="7.5" markerUnits="px" refX="7.5" refY="3.75">
<polygon fill="Black" stroke-width="0" points="0 0 7.5 3.75 0 7.5" />
</marker>
</defs>
<g>
<g>
<rect fill="LightBlue" stroke="Black" stroke-width="1.875" x="7.5" y="7.5" width="120" height="33.75" rx="3.75" ry="3.75" />
<a href="./StructureDefinition-BreastRadMammoFinding.html" target="_blank">
<title>'BreastRadMammoFinding'</title>
<text x="15" y="30">Mg Finding</text>
</a>
</g>
<line stroke="Black" stroke-width="1.875" marker-end="url(#arrowEnd)" x1="157.5" y1="24.375" x2="187.5" y2="24.375" />
<line stroke="Black" stroke-width="1.875" marker-start="url(#arrowStart)" x1="127.5" y1="24.375" x2="157.5" y2="24.375" />
<line stroke="Black" stroke-width="1.875" x1="157.5" y1="24.375" x2="157.5" y2="24.375" />
</g>
<g>
<g>
<rect fill="LightGreen" stroke="Black" stroke-width="1.875" x="187.5" y="7.5" width="298.5" height="33.75" rx="3.75" ry="3.75" />
<text x="195" y="30">Mg Fat Necrosis Abnormality</text>
</g>
<line stroke="Black" stroke-width="1.875" marker-end="url(#arrowEnd)" x1="516" y1="24.375" x2="546" y2="24.375" />
<line stroke="Black" stroke-width="1.875" marker-end="url(#arrowEnd)" x1="516" y1="75" x2="546" y2="75" />
<line stroke="Black" stroke-width="1.875" marker-end="url(#arrowEnd)" x1="516" y1="125.625" x2="546" y2="125.625" />
<line stroke="Black" stroke-width="1.875" marker-end="url(#arrowEnd)" x1="516" y1="166.875" x2="546" y2="166.875" />
<line stroke="Black" stroke-width="1.875" marker-end="url(#arrowEnd)" x1="516" y1="208.125" x2="546" y2="208.125" />
<line stroke="Black" stroke-width="1.875" marker-end="url(#arrowEnd)" x1="516" y1="249.375" x2="546" y2="249.375" />
<line stroke="Black" stroke-width="1.875" marker-end="url(#arrowEnd)" x1="516" y1="290.625" x2="546" y2="290.625" />
<line stroke="Black" stroke-width="1.875" marker-end="url(#arrowEnd)" x1="516" y1="331.875" x2="546" y2="331.875" />
<line stroke="Black" stroke-width="1.875" marker-end="url(#arrowEnd)" x1="516" y1="373.125" x2="546" y2="373.125" />
<line stroke="Black" stroke-width="1.875" marker-end="url(#arrowEnd)" x1="516" y1="414.375" x2="546" y2="414.375" />
<line stroke="Black" stroke-width="1.875" marker-end="url(#arrowEnd)" x1="516" y1="455.625" x2="546" y2="455.625" />
<line stroke="Black" stroke-width="1.875" marker-end="url(#arrowEnd)" x1="516" y1="496.875" x2="546" y2="496.875" />
<line stroke="Black" stroke-width="1.875" marker-end="url(#arrowEnd)" x1="516" y1="538.125" x2="546" y2="538.125" />
<line stroke="Black" stroke-width="1.875" marker-end="url(#arrowEnd)" x1="516" y1="579.375" x2="546" y2="579.375" />
<line stroke="Black" stroke-width="1.875" marker-start="url(#arrowStart)" x1="486.00003" y1="24.375" x2="516" y2="24.375" />
<line stroke="Black" stroke-width="1.875" x1="516" y1="24.375" x2="516" y2="579.375" />
</g>
<g>
<g>
<rect fill="LightSalmon" stroke="Black" stroke-width="1.875" x="546" y="7.5" width="67.5" height="33.75" rx="3.75" ry="3.75" />
<a href="./StructureDefinition-CommonCount.html" target="_blank">
<title>'CommonCount'</title>
<text x="553.5" y="30">Count</text>
</a>
</g>
<g>
<rect fill="LightSalmon" stroke="Black" stroke-width="1.875" x="546" y="48.75" width="151.49998" height="52.5" rx="3.75" ry="3.75" />
<a href="./StructureDefinition-AimAnnotatedImagingStudy.html" target="_blank">
<title>'AimAnnotatedImagingStudy'</title>
<text x="553.5" y="71.25">Annotated</text>
</a>
<a href="./StructureDefinition-AimAnnotatedImagingStudy.html" target="_blank">
<title>'AimAnnotatedImagingStudy'</title>
<text x="553.5" y="90">Imaging Study</text>
</a>
</g>
<g>
<rect fill="LightSalmon" stroke="Black" stroke-width="1.875" x="546" y="108.75" width="130.5" height="33.75" rx="3.75" ry="3.75" />
<a href="./StructureDefinition-BiRadsAssessmentCategory.html" target="_blank">
<title>'BiRadsAssessmentCategory'</title>
<text x="553.5" y="131.25">BiRads Code</text>
</a>
</g>
<g>
<rect fill="LightSalmon" stroke="Black" stroke-width="1.875" x="546" y="150" width="88.5" height="33.75" rx="3.75" ry="3.75" />
<a href="./StructureDefinition-CommonObservedChangeInDefinition.html" target="_blank">
<title>'CommonObservedChangeInDefinition'</title>
<text x="553.5" y="172.5">Changes</text>
</a>
</g>
<g>
<rect fill="LightSalmon" stroke="Black" stroke-width="1.875" x="546" y="191.25" width="88.5" height="33.75" rx="3.75" ry="3.75" />
<a href="./StructureDefinition-CommonObservedChangeInNumber.html" target="_blank">
<title>'CommonObservedChangeInNumber'</title>
<text x="553.5" y="213.75">Changes</text>
</a>
</g>
<g>
<rect fill="LightSalmon" stroke="Black" stroke-width="1.875" x="546" y="232.5" width="88.5" height="33.75" rx="3.75" ry="3.75" />
<a href="./StructureDefinition-CommonObservedChangeInProminance.html" target="_blank">
<title>'CommonObservedChangeInProminance'</title>
<text x="553.5" y="255">Changes</text>
</a>
</g>
<g>
<rect fill="LightSalmon" stroke="Black" stroke-width="1.875" x="546" y="273.75" width="88.5" height="33.75" rx="3.75" ry="3.75" />
<a href="./StructureDefinition-CommonObservedChangeInSize.html" target="_blank">
<title>'CommonObservedChangeInSize'</title>
<text x="553.5" y="296.25">Changes</text>
</a>
</g>
<g>
<rect fill="LightSalmon" stroke="Black" stroke-width="1.875" x="546" y="315" width="88.5" height="33.75" rx="3.75" ry="3.75" />
<a href="./StructureDefinition-CommonObservedChangeInState.html" target="_blank">
<title>'CommonObservedChangeInState'</title>
<text x="553.5" y="337.5">Changes</text>
</a>
</g>
<g>
<rect fill="LightSalmon" stroke="Black" stroke-width="1.875" x="546" y="356.25" width="57" height="33.75" rx="3.75" ry="3.75" />
<a href="./StructureDefinition-CommonSize.html" target="_blank">
<title>'CommonSize'</title>
<text x="553.5" y="378.75">Size</text>
</a>
</g>
<g>
<rect fill="LightSalmon" stroke="Black" stroke-width="1.875" x="546" y="397.5" width="130.5" height="33.75" rx="3.75" ry="3.75" />
<a href="./StructureDefinition-CommonOrientation.html" target="_blank">
<title>'CommonOrientation'</title>
<text x="553.5" y="420">Orientation</text>
</a>
</g>
<g>
<rect fill="LightSalmon" stroke="Black" stroke-width="1.875" x="546" y="438.75" width="67.5" height="33.75" rx="3.75" ry="3.75" />
<a href="./StructureDefinition-MammoShape.html" target="_blank">
<title>'MammoShape'</title>
<text x="553.5" y="461.25">Shape</text>
</a>
</g>
<g>
<rect fill="LightSalmon" stroke="Black" stroke-width="1.875" x="546" y="480" width="162" height="33.75" rx="3.75" ry="3.75" />
<a href="./StructureDefinition-BreastRadMammoMassMargin.html" target="_blank">
<title>'BreastRadMammoMassMargin'</title>
<text x="553.5" y="502.5">Mg Mass Margin</text>
</a>
</g>
<g>
<rect fill="LightSalmon" stroke="Black" stroke-width="1.875" x="546" y="521.25" width="120" height="33.75" rx="3.75" ry="3.75" />
<a href="./StructureDefinition-BreastRadMammoDensity.html" target="_blank">
<title>'BreastRadMammoDensity'</title>
<text x="553.5" y="543.75">Mg Density</text>
</a>
</g>
<g>
<rect fill="LightSalmon" stroke="Black" stroke-width="1.875" x="546" y="562.5" width="183" height="33.75" rx="3.75" ry="3.75" />
<a href="./StructureDefinition-BreastBodyLocationExtension.html" target="_blank">
<title>'BreastBodyLocationExtension'</title>
<text x="553.5" y="585">Breast Body Loc.</text>
</a>
</g>
</g>
</svg>
