<?xml version="1.0"?>
<?xml-stylesheet type="text/css" href="FocusGraph.css" ?>
<!DOCTYPE svg PUBLIC "-//W3C//DTD SVG 1.1//EN" "http://www.w3.org/Graphics/SVG/1.1/DTD/svg11.dtd">
<svg xmlns="http://www.w3.org/2000/svg" version="1.1" width="1200.81" height="645">
<defs>
<marker id="arrowStart" markerWidth="3.75" markerHeight="3.75" markerUnits="px" refX="1.88" refY="1.88">
<circle class="connector" cx="1.88" cy="1.88" r="1.88" />
</marker>
<marker id="arrowEnd" markerWidth="7.5" markerHeight="7.5" markerUnits="px" refX="7.5" refY="3.75">
<polygon class="connector" points="0 0 7.5 3.75 0 7.5" />
</marker>
</defs>
<g>
<g transform="translate(3.75 3.75)">
<a href="StructureDefinition-MGFinding.html" target="_top">
<rect class="profile" x="0" y="0" width="102.6" height="26.25" rx="3.75" ry="3.75" />
</a>
<a href="StructureDefinition-MGFinding.html" target="_top">
<title />
<text x="5.62" y="18.75" text-anchor="left" class="profile">Mg Findings</text>
</a>
</g>
<line class="connector" marker-end="url(#arrowEnd)" x1="136.35" y1="16.88" x2="196.35" y2="16.88" />
<text x="140.1" y="13.12" text-anchor="right" class="lhsText">0..*</text>
<line class="connector" marker-start="url(#arrowStart)" x1="106.35" y1="16.88" x2="136.35" y2="16.88" />
<line class="connector" x1="136.35" y1="16.88" x2="136.35" y2="16.88" />
</g>
<g>
<g transform="translate(196.35 3.75)">
<a href="StructureDefinition-FibroadenomaAbnormality.html" target="_top">
<rect class="focus" x="0" y="0" width="119.09" height="26.25" rx="3.75" ry="3.75" />
</a>
<a href="StructureDefinition-FibroadenomaAbnormality.html" target="_top">
<title />
<text x="5.62" y="18.75" text-anchor="left" class="focus">Fibroadenoma</text>
</a>
</g>
<line class="connector" marker-end="url(#arrowEnd)" x1="345.44" y1="16.88" x2="405.44" y2="16.88" />
<text x="349.19" y="13.12" text-anchor="right" class="lhsText">1..1</text>
<line class="connector" marker-end="url(#arrowEnd)" x1="345.44" y1="50.62" x2="405.44" y2="50.62" />
<text x="349.19" y="46.88" text-anchor="right" class="lhsText">1..1</text>
<line class="connector" marker-end="url(#arrowEnd)" x1="345.44" y1="84.38" x2="405.44" y2="84.38" />
<text x="349.19" y="80.62" text-anchor="right" class="lhsText">0..*</text>
<line class="connector" marker-end="url(#arrowEnd)" x1="345.44" y1="508.12" x2="405.44" y2="508.12" />
<text x="349.19" y="504.38" text-anchor="right" class="lhsText">0..*</text>
<line class="connector" marker-start="url(#arrowStart)" x1="315.44" y1="16.88" x2="345.44" y2="16.88" />
<line class="connector" x1="345.44" y1="16.88" x2="345.44" y2="508.12" />
</g>
<g>
<g transform="translate(405.44 3.75)">
<a href="StructureDefinition-FibroadenomaAbnormality-definitions.html#Observation.code" target="_top">
<rect class="element" x="0" y="0" width="52.22" height="26.25" rx="3.75" ry="3.75" />
</a>
<a href="StructureDefinition-FibroadenomaAbnormality-definitions.html#Observation.code" target="_top">
<title />
<text x="5.62" y="18.75" text-anchor="left" class="element">Code</text>
</a>
</g>
<line class="connector" marker-end="url(#arrowEnd)" x1="487.66" y1="16.88" x2="607.66" y2="16.88" />
<text x="491.41" y="13.12" text-anchor="right" class="lhsText">pattern </text>
<line class="connector" marker-start="url(#arrowStart)" x1="457.66" y1="16.88" x2="487.66" y2="16.88" />
<line class="connector" x1="487.66" y1="16.88" x2="487.66" y2="16.88" />
</g>
<g>
<g transform="translate(607.66 3.75)">
<a href="CodeSystem-ObservationCodesCS.html" target="_top">
<rect class="value" x="0" y="0" width="461.66" height="26.25" rx="3.75" ry="3.75" />
</a>
<a href="CodeSystem-ObservationCodesCS.html" target="_top">
<title />
<text x="5.62" y="18.75" text-anchor="left" class="value">ObservationCodesCS#abnormalityFibroadenomaObservation</text>
</a>
</g>
</g>
<g>
<g transform="translate(405.44 37.5)">
<a href="StructureDefinition-FibroadenomaAbnormality-definitions.html#Observation.bodySite" target="_top">
<rect class="element" x="0" y="0" width="78.79" height="26.25" rx="3.75" ry="3.75" />
</a>
<a href="StructureDefinition-FibroadenomaAbnormality-definitions.html#Observation.bodySite" target="_top">
<title />
<text x="5.62" y="18.75" text-anchor="left" class="element">BodySite</text>
</a>
</g>
<line class="connector" marker-end="url(#arrowEnd)" x1="514.23" y1="50.62" x2="574.23" y2="50.62" />
<text x="517.98" y="46.88" text-anchor="right" class="lhsText">1..*</text>
<line class="connector" marker-start="url(#arrowStart)" x1="484.23" y1="50.62" x2="514.23" y2="50.62" />
<line class="connector" x1="514.23" y1="50.62" x2="514.23" y2="50.62" />
</g>
<g>
<g transform="translate(574.23 37.5)">
<a href="StructureDefinition-FibroadenomaAbnormality-definitions.html#Observation.bodySite.extension" target="_top">
<rect class="element" x="0" y="0" width="83.38" height="26.25" rx="3.75" ry="3.75" />
</a>
<a href="StructureDefinition-FibroadenomaAbnormality-definitions.html#Observation.bodySite.extension" target="_top">
<title />
<text x="5.62" y="18.75" text-anchor="left" class="element">extension</text>
</a>
</g>
<line class="connector" marker-end="url(#arrowEnd)" x1="687.61" y1="50.62" x2="717.61" y2="50.62" />
<line class="connector" marker-start="url(#arrowStart)" x1="657.61" y1="50.62" x2="687.61" y2="50.62" />
<line class="connector" x1="687.61" y1="50.62" x2="687.61" y2="50.62" />
</g>
<g>
<g transform="translate(717.61 37.5)">
<a href="StructureDefinition-BreastBodyLocationExtension.html" target="_top">
<rect class="extension" x="0" y="0" width="160.33" height="26.25" rx="3.75" ry="3.75" />
</a>
<a href="StructureDefinition-BreastBodyLocationExtension.html" target="_top">
<title />
<text x="5.62" y="18.75" text-anchor="left" class="extension">BreastBodyLocation</text>
</a>
</g>
</g>
<g>
<g transform="translate(405.44 71.25)">
<a href="StructureDefinition-FibroadenomaAbnormality-definitions.html#Observation.component" target="_top">
<rect class="element" x="0" y="0" width="106.26" height="26.25" rx="3.75" ry="3.75" />
</a>
<a href="StructureDefinition-FibroadenomaAbnormality-definitions.html#Observation.component" target="_top">
<title />
<text x="5.62" y="18.75" text-anchor="left" class="element">Components</text>
</a>
</g>
<line class="connector" marker-end="url(#arrowEnd)" x1="541.7" y1="84.38" x2="601.7" y2="84.38" />
<text x="545.45" y="80.62" text-anchor="right" class="lhsText">0..*</text>
<line class="connector" marker-end="url(#arrowEnd)" x1="541.7" y1="118.12" x2="601.7" y2="118.12" />
<text x="545.45" y="114.38" text-anchor="right" class="lhsText">0..1</text>
<line class="connector" marker-end="url(#arrowEnd)" x1="541.7" y1="151.88" x2="601.7" y2="151.88" />
<text x="545.45" y="148.12" text-anchor="right" class="lhsText">0..1</text>
<line class="connector" marker-end="url(#arrowEnd)" x1="541.7" y1="185.62" x2="601.7" y2="185.62" />
<text x="545.45" y="181.88" text-anchor="right" class="lhsText">0..1</text>
<line class="connector" marker-end="url(#arrowEnd)" x1="541.7" y1="219.38" x2="601.7" y2="219.38" />
<text x="545.45" y="215.62" text-anchor="right" class="lhsText">0..*</text>
<line class="connector" marker-end="url(#arrowEnd)" x1="541.7" y1="253.12" x2="601.7" y2="253.12" />
<text x="545.45" y="249.38" text-anchor="right" class="lhsText">0..1</text>
<line class="connector" marker-end="url(#arrowEnd)" x1="541.7" y1="286.88" x2="601.7" y2="286.88" />
<text x="545.45" y="283.12" text-anchor="right" class="lhsText">0..*</text>
<line class="connector" marker-end="url(#arrowEnd)" x1="541.7" y1="320.62" x2="601.7" y2="320.62" />
<text x="545.45" y="316.88" text-anchor="right" class="lhsText">0..1</text>
<line class="connector" marker-end="url(#arrowEnd)" x1="541.7" y1="354.38" x2="601.7" y2="354.38" />
<text x="545.45" y="350.62" text-anchor="right" class="lhsText">0..3</text>
<line class="connector" marker-end="url(#arrowEnd)" x1="541.7" y1="388.12" x2="601.7" y2="388.12" />
<text x="545.45" y="384.38" text-anchor="right" class="lhsText">0..1</text>
<line class="connector" marker-end="url(#arrowEnd)" x1="541.7" y1="431.25" x2="601.7" y2="431.25" />
<text x="545.45" y="427.5" text-anchor="right" class="lhsText">0..*</text>
<line class="connector" marker-end="url(#arrowEnd)" x1="541.7" y1="474.38" x2="601.7" y2="474.38" />
<text x="545.45" y="470.62" text-anchor="right" class="lhsText">0..1</text>
<line class="connector" marker-start="url(#arrowStart)" x1="511.7" y1="84.38" x2="541.7" y2="84.38" />
<line class="connector" x1="541.7" y1="84.38" x2="541.7" y2="474.38" />
</g>
<g>
<g transform="translate(601.7 71.25)">
<a href="StructureDefinition-FibroadenomaAbnormality-definitions.html#Observation.component:breastAssessmentCategory" target="_top">
<rect class="element" x="0" y="0" width="226.23" height="26.25" rx="3.75" ry="3.75" />
</a>
<a href="StructureDefinition-FibroadenomaAbnormality-definitions.html#Observation.component:breastAssessmentCategory" target="_top">
<title />
<text x="5.62" y="18.75" text-anchor="left" class="element">Breast Assessment Category</text>
</a>
</g>
<line class="connector" marker-end="url(#arrowEnd)" x1="857.93" y1="84.38" x2="917.93" y2="84.38" />
<text x="861.68" y="80.62" text-anchor="right" class="lhsText">bind</text>
<line class="connector" marker-start="url(#arrowStart)" x1="827.93" y1="84.38" x2="857.93" y2="84.38" />
<line class="connector" x1="857.93" y1="84.38" x2="857.93" y2="84.38" />
</g>
<g>
<g transform="translate(917.93 71.25)">
<a href="ValueSet-BreastAssessmentCategoryVS.html" target="_top">
<rect class="valueSet" x="0" y="0" width="239.06" height="26.25" rx="3.75" ry="3.75" />
</a>
<a href="ValueSet-BreastAssessmentCategoryVS.html" target="_top">
<title />
<text x="5.62" y="18.75" text-anchor="left" class="valueSet">BreastAssessmentCategoryVS</text>
</a>
</g>
</g>
<g>
<g transform="translate(601.7 105)">
<a href="StructureDefinition-FibroadenomaAbnormality-definitions.html#Observation.component:density" target="_top">
<rect class="element" x="0" y="0" width="67.79" height="26.25" rx="3.75" ry="3.75" />
</a>
<a href="StructureDefinition-FibroadenomaAbnormality-definitions.html#Observation.component:density" target="_top">
<title />
<text x="5.62" y="18.75" text-anchor="left" class="element">Density</text>
</a>
</g>
<line class="connector" marker-end="url(#arrowEnd)" x1="699.49" y1="118.12" x2="759.49" y2="118.12" />
<text x="703.24" y="114.38" text-anchor="right" class="lhsText">bind</text>
<line class="connector" marker-start="url(#arrowStart)" x1="669.49" y1="118.12" x2="699.49" y2="118.12" />
<line class="connector" x1="699.49" y1="118.12" x2="699.49" y2="118.12" />
</g>
<g>
<g transform="translate(759.49 105)">
<a href="ValueSet-rde1578-density.html" target="_top">
<rect class="valueSet" x="0" y="0" width="148.4" height="26.25" rx="3.75" ry="3.75" />
</a>
<a href="ValueSet-rde1578-density.html" target="_top">
<title />
<text x="5.62" y="18.75" text-anchor="left" class="valueSet">RDE1578_Density</text>
</a>
</g>
</g>
<g>
<g transform="translate(601.7 138.75)">
<a href="StructureDefinition-FibroadenomaAbnormality-definitions.html#Observation.component:fibroAdenomaType" target="_top">
<rect class="element" x="0" y="0" width="210.68" height="26.25" rx="3.75" ry="3.75" />
</a>
<a href="StructureDefinition-FibroadenomaAbnormality-definitions.html#Observation.component:fibroAdenomaType" target="_top">
<title />
<text x="5.62" y="18.75" text-anchor="left" class="element">Fibroadenoma Abnormality</text>
</a>
</g>
<line class="connector" marker-end="url(#arrowEnd)" x1="842.38" y1="151.88" x2="902.38" y2="151.88" />
<text x="846.13" y="148.12" text-anchor="right" class="lhsText">bind</text>
<line class="connector" marker-start="url(#arrowStart)" x1="812.38" y1="151.88" x2="842.38" y2="151.88" />
<line class="connector" x1="842.38" y1="151.88" x2="842.38" y2="151.88" />
</g>
<g>
<g transform="translate(902.38 138.75)">
<a href="ValueSet-FibroAdenomaAbnormalityTypeVS.html" target="_top">
<rect class="valueSet" x="0" y="0" width="266.55" height="26.25" rx="3.75" ry="3.75" />
</a>
<a href="ValueSet-FibroAdenomaAbnormalityTypeVS.html" target="_top">
<title />
<text x="5.62" y="18.75" text-anchor="left" class="valueSet">FibroAdenomaAbnormalityTypeVS</text>
</a>
</g>
</g>
<g>
<g transform="translate(601.7 172.5)">
<a href="StructureDefinition-FibroadenomaAbnormality-definitions.html#Observation.component:margin" target="_top">
<rect class="element" x="0" y="0" width="63.2" height="26.25" rx="3.75" ry="3.75" />
</a>
<a href="StructureDefinition-FibroadenomaAbnormality-definitions.html#Observation.component:margin" target="_top">
<title />
<text x="5.62" y="18.75" text-anchor="left" class="element">Margin</text>
</a>
</g>
<line class="connector" marker-end="url(#arrowEnd)" x1="694.9" y1="185.62" x2="754.9" y2="185.62" />
<text x="698.65" y="181.88" text-anchor="right" class="lhsText">bind</text>
<line class="connector" marker-start="url(#arrowStart)" x1="664.9" y1="185.62" x2="694.9" y2="185.62" />
<line class="connector" x1="694.9" y1="185.62" x2="694.9" y2="185.62" />
</g>
<g>
<g transform="translate(754.9 172.5)">
<a href="ValueSet-rde1579-margin.html" target="_top">
<rect class="valueSet" x="0" y="0" width="143.81" height="26.25" rx="3.75" ry="3.75" />
</a>
<a href="ValueSet-rde1579-margin.html" target="_top">
<title />
<text x="5.62" y="18.75" text-anchor="left" class="valueSet">RDE1579_Margin</text>
</a>
</g>
</g>
<g>
<g transform="translate(601.7 206.25)">
<a href="StructureDefinition-FibroadenomaAbnormality-definitions.html#Observation.component:obsChanges" target="_top">
<rect class="element" x="0" y="0" width="154.82" height="26.25" rx="3.75" ry="3.75" />
</a>
<a href="StructureDefinition-FibroadenomaAbnormality-definitions.html#Observation.component:obsChanges" target="_top">
<title />
<text x="5.62" y="18.75" text-anchor="left" class="element">Observed Changes</text>
</a>
</g>
<line class="connector" marker-end="url(#arrowEnd)" x1="786.52" y1="219.38" x2="846.52" y2="219.38" />
<text x="790.27" y="215.62" text-anchor="right" class="lhsText">bind</text>
<line class="connector" marker-start="url(#arrowStart)" x1="756.52" y1="219.38" x2="786.52" y2="219.38" />
<line class="connector" x1="786.52" y1="219.38" x2="786.52" y2="219.38" />
</g>
<g>
<g transform="translate(846.52 206.25)">
<a href="ValueSet-rde1566-observed-changes.html" target="_top">
<rect class="valueSet" x="0" y="0" width="230.85" height="26.25" rx="3.75" ry="3.75" />
</a>
<a href="ValueSet-rde1566-observed-changes.html" target="_top">
<title />
<text x="5.62" y="18.75" text-anchor="left" class="valueSet">RDE1566_ObservedChanges</text>
</a>
</g>
</g>
<g>
<g transform="translate(601.7 240)">
<a href="StructureDefinition-FibroadenomaAbnormality-definitions.html#Observation.component:observedCount" target="_top">
<rect class="element" x="0" y="0" width="132.83" height="26.25" rx="3.75" ry="3.75" />
</a>
<a href="StructureDefinition-FibroadenomaAbnormality-definitions.html#Observation.component:observedCount" target="_top">
<title />
<text x="5.62" y="18.75" text-anchor="left" class="element">Observed Count</text>
</a>
</g>
</g>
<g>
<g transform="translate(601.7 273.75)">
<a href="StructureDefinition-FibroadenomaAbnormality-definitions.html#Observation.component:obsDistribution" target="_top">
<rect class="element" x="0" y="0" width="171.29" height="26.25" rx="3.75" ry="3.75" />
</a>
<a href="StructureDefinition-FibroadenomaAbnormality-definitions.html#Observation.component:obsDistribution" target="_top">
<title />
<text x="5.62" y="18.75" text-anchor="left" class="element">Observed Distribution</text>
</a>
</g>
<line class="connector" marker-end="url(#arrowEnd)" x1="802.99" y1="286.88" x2="862.99" y2="286.88" />
<text x="806.74" y="283.12" text-anchor="right" class="lhsText">bind</text>
<line class="connector" marker-start="url(#arrowStart)" x1="772.99" y1="286.88" x2="802.99" y2="286.88" />
<line class="connector" x1="802.99" y1="286.88" x2="802.99" y2="286.88" />
</g>
<g>
<g transform="translate(862.99 273.75)">
<a href="ValueSet-rde1568-observed-distribution.html" target="_top">
<rect class="valueSet" x="0" y="0" width="247.32" height="26.25" rx="3.75" ry="3.75" />
</a>
<a href="ValueSet-rde1568-observed-distribution.html" target="_top">
<title />
<text x="5.62" y="18.75" text-anchor="left" class="valueSet">RDE1568_ObservedDistribution</text>
</a>
</g>
</g>
<g>
<g transform="translate(601.7 307.5)">
<a href="StructureDefinition-FibroadenomaAbnormality-definitions.html#Observation.component:obsDistRegionSize" target="_top">
<rect class="element" x="0" y="0" width="264.72" height="26.25" rx="3.75" ry="3.75" />
</a>
<a href="StructureDefinition-FibroadenomaAbnormality-definitions.html#Observation.component:obsDistRegionSize" target="_top">
<title />
<text x="5.62" y="18.75" text-anchor="left" class="element">Observed Distribution Region Size</text>
</a>
</g>
</g>
<g>
<g transform="translate(601.7 341.25)">
<a href="StructureDefinition-FibroadenomaAbnormality-definitions.html#Observation.component:obsSize" target="_top">
<rect class="element" x="0" y="0" width="120.92" height="26.25" rx="3.75" ry="3.75" />
</a>
<a href="StructureDefinition-FibroadenomaAbnormality-definitions.html#Observation.component:obsSize" target="_top">
<title />
<text x="5.62" y="18.75" text-anchor="left" class="element">Observed Size</text>
</a>
</g>
</g>
<g>
<g transform="translate(601.7 375)">
<a href="StructureDefinition-FibroadenomaAbnormality-definitions.html#Observation.component:orientation" target="_top">
<rect class="element" x="0" y="0" width="93.44" height="26.25" rx="3.75" ry="3.75" />
</a>
<a href="StructureDefinition-FibroadenomaAbnormality-definitions.html#Observation.component:orientation" target="_top">
<title />
<text x="5.62" y="18.75" text-anchor="left" class="element">Orientation</text>
</a>
</g>
<line class="connector" marker-end="url(#arrowEnd)" x1="725.15" y1="388.12" x2="785.15" y2="388.12" />
<text x="728.9" y="384.38" text-anchor="right" class="lhsText">bind</text>
<line class="connector" marker-start="url(#arrowStart)" x1="695.15" y1="388.12" x2="725.15" y2="388.12" />
<line class="connector" x1="725.15" y1="388.12" x2="725.15" y2="388.12" />
</g>
<g>
<g transform="translate(785.15 375)">
<a href="ValueSet-rde1580-orientation.html" target="_top">
<rect class="valueSet" x="0" y="0" width="174.05" height="26.25" rx="3.75" ry="3.75" />
</a>
<a href="ValueSet-rde1580-orientation.html" target="_top">
<title />
<text x="5.62" y="18.75" text-anchor="left" class="valueSet">RDE1580_Orientation</text>
</a>
</g>
</g>
<g>
<g transform="translate(601.7 408.75)">
<a href="StructureDefinition-FibroadenomaAbnormality-definitions.html#Observation.component:prevDemBy" target="_top">
<rect class="element" x="0" y="0" width="138.31" height="45" rx="3.75" ry="3.75" />
</a>
<a href="StructureDefinition-FibroadenomaAbnormality-definitions.html#Observation.component:prevDemBy" target="_top">
<title />
<text x="5.62" y="18.75" text-anchor="left" class="element">Previously</text>
</a>
<a href="StructureDefinition-FibroadenomaAbnormality-definitions.html#Observation.component:prevDemBy" target="_top">
<title />
<text x="5.62" y="37.5" text-anchor="left" class="element">Demonstrated by</text>
</a>
</g>
<line class="connector" marker-end="url(#arrowEnd)" x1="770.01" y1="421.88" x2="830.01" y2="421.88" />
<text x="773.76" y="418.12" text-anchor="right" class="lhsText">bind</text>
<line class="connector" marker-start="url(#arrowStart)" x1="740.01" y1="431.25" x2="770.01" y2="431.25" />
<line class="connector" x1="770.01" y1="421.88" x2="770.01" y2="431.25" />
</g>
<g>
<g transform="translate(830.01 408.75)">
<a href="ValueSet-PreviouslyDemonstratedByVS.html" target="_top">
<rect class="valueSet" x="0" y="0" width="233.57" height="26.25" rx="3.75" ry="3.75" />
</a>
<a href="ValueSet-PreviouslyDemonstratedByVS.html" target="_top">
<title />
<text x="5.62" y="18.75" text-anchor="left" class="valueSet">PreviouslyDemonstratedByVS</text>
</a>
</g>
</g>
<g>
<g transform="translate(601.7 461.25)">
<a href="StructureDefinition-FibroadenomaAbnormality-definitions.html#Observation.component:shape" target="_top">
<rect class="element" x="0" y="0" width="60.48" height="26.25" rx="3.75" ry="3.75" />
</a>
<a href="StructureDefinition-FibroadenomaAbnormality-definitions.html#Observation.component:shape" target="_top">
<title />
<text x="5.62" y="18.75" text-anchor="left" class="element">Shape</text>
</a>
</g>
<line class="connector" marker-end="url(#arrowEnd)" x1="692.18" y1="474.38" x2="752.18" y2="474.38" />
<text x="695.93" y="470.62" text-anchor="right" class="lhsText">bind</text>
<line class="connector" marker-start="url(#arrowStart)" x1="662.18" y1="474.38" x2="692.18" y2="474.38" />
<line class="connector" x1="692.18" y1="474.38" x2="692.18" y2="474.38" />
</g>
<g>
<g transform="translate(752.18 461.25)">
<a href="ValueSet-rde1576-shape.html" target="_top">
<rect class="valueSet" x="0" y="0" width="141.09" height="26.25" rx="3.75" ry="3.75" />
</a>
<a href="ValueSet-rde1576-shape.html" target="_top">
<title />
<text x="5.62" y="18.75" text-anchor="left" class="valueSet">RDE1576_Shape</text>
</a>
</g>
</g>
<g>
<g transform="translate(405.44 495)">
<a href="StructureDefinition-FibroadenomaAbnormality-definitions.html#Observation.hasMember" target="_top">
<rect class="element" x="0" y="0" width="102.57" height="26.25" rx="3.75" ry="3.75" />
</a>
<a href="StructureDefinition-FibroadenomaAbnormality-definitions.html#Observation.hasMember" target="_top">
<title />
<text x="5.62" y="18.75" text-anchor="left" class="element">HasMember</text>
</a>
</g>
<line class="connector" marker-end="url(#arrowEnd)" x1="538.01" y1="508.12" x2="598.01" y2="508.12" />
<text x="541.76" y="504.38" text-anchor="right" class="lhsText">0..*</text>
<line class="connector" marker-start="url(#arrowStart)" x1="508.01" y1="508.12" x2="538.01" y2="508.12" />
<line class="connector" x1="538.01" y1="508.12" x2="538.01" y2="508.12" />
</g>
<g>
<g transform="translate(598.01 495)">
<a href="StructureDefinition-AssociatedFeature.html" target="_top">
<rect class="profile" x="0" y="0" width="154.82" height="26.25" rx="3.75" ry="3.75" />
</a>
<a href="StructureDefinition-AssociatedFeature.html" target="_top">
<title />
<text x="5.62" y="18.75" text-anchor="left" class="profile">Associated Feature</text>
</a>
</g>
</g>
<g>
<g transform="translate(3.75 603.75)">
<a target="_top">
<rect class="focus" x="0" y="0" width="57.72" height="26.25" rx="3.75" ry="3.75" />
</a>
<a target="_top">
<title />
<text x="5.62" y="18.75" text-anchor="left" class="focus">Focus</text>
</a>
</g>
<g transform="translate(68.97 603.75)">
<a target="_top">
<rect class="profile" x="0" y="0" width="143.81" height="26.25" rx="3.75" ry="3.75" />
</a>
<a target="_top">
<title />
<text x="5.62" y="18.75" text-anchor="left" class="profile">Profiled Resource</text>
</a>
</g>
<g transform="translate(220.28 603.75)">
<a target="_top">
<rect class="extension" x="0" y="0" width="85.21" height="26.25" rx="3.75" ry="3.75" />
</a>
<a target="_top">
<title />
<text x="5.62" y="18.75" text-anchor="left" class="extension">Extension</text>
</a>
</g>
<g transform="translate(312.98 603.75)">
<a target="_top">
<rect class="element" x="0" y="0" width="148.39" height="26.25" rx="3.75" ry="3.75" />
</a>
<a target="_top">
<title />
<text x="5.62" y="18.75" text-anchor="left" class="element">Resource Element</text>
</a>
</g>
<g transform="translate(468.87 603.75)">
<a target="_top">
<rect class="valueSet" x="0" y="0" width="79.72" height="26.25" rx="3.75" ry="3.75" />
</a>
<a target="_top">
<title />
<text x="5.62" y="18.75" text-anchor="left" class="valueSet">ValueSet</text>
</a>
</g>
<g transform="translate(556.09 603.75)">
<a target="_top">
<rect class="value" x="0" y="0" width="54.98" height="26.25" rx="3.75" ry="3.75" />
</a>
<a target="_top">
<title />
<text x="5.62" y="18.75" text-anchor="left" class="value">Value</text>
</a>
</g>
</g>
</svg>
