<?xml version="1.0"?>
<!DOCTYPE svg PUBLIC "-//W3C//DTD SVG 1.1//EN" "http://www.w3.org/Graphics/SVG/1.1/DTD/svg11.dtd">
<svg xmlns="http://www.w3.org/2000/svg" version="1.1" width="663" height="577.5">
<defs>
<marker id="arrowStart" markerWidth="3.75" markerHeight="3.75" markerUnits="px" refX="1.875" refY="1.875">
<circle fill="Black" stroke-width="0" cx="1.875" cy="1.875" r="1.875" />
</marker>
<marker id="arrowEnd" markerWidth="7.5" markerHeight="7.5" markerUnits="px" refX="7.5" refY="3.75">
<polygon fill="Black" stroke-width="0" points="0 0 7.5 3.75 0 7.5" />
</marker>
</defs>
<g>
<g transform="translate(7.5 7.5)">
<a href="./StructureDefinition-SectionFindingsLeftBreast.html" target="_top">
<rect fill="LightCyan" stroke="Black" stroke-width="1.875" x="0" y="0" width="130.5" height="52.5" rx="3.75" ry="3.75" />
</a>
<a href="./StructureDefinition-SectionFindingsLeftBreast.html" target="_top">
<text x="65.25" y="22.5" text-anchor="middle">Findings</text>
</a>
<a href="./StructureDefinition-SectionFindingsLeftBreast.html" target="_top">
<text x="65.25" y="41.25" text-anchor="middle">Left Breast</text>
</a>
</g>
<g transform="translate(7.5 67.5)">
<a href="./StructureDefinition-SectionFindingsRightBreast.html" target="_top">
<rect fill="LightCyan" stroke="Black" stroke-width="1.875" x="0" y="0" width="141" height="52.5" rx="3.75" ry="3.75" />
</a>
<a href="./StructureDefinition-SectionFindingsRightBreast.html" target="_top">
<text x="70.5" y="22.5" text-anchor="middle">Findings</text>
</a>
<a href="./StructureDefinition-SectionFindingsRightBreast.html" target="_top">
<text x="70.5" y="41.25" text-anchor="middle">Right Breast</text>
</a>
</g>
<line stroke="Black" stroke-width="1.875" marker-end="url(#arrowEnd)" x1="163.5" y1="24.375" x2="208.5" y2="24.375" />
<text x="167.25" y="20.625" text-anchor="left"></text>
<line stroke="Black" stroke-width="1.875" marker-start="url(#arrowStart)" x1="138" y1="33.75" x2="163.5" y2="33.75" />
<line stroke="Black" stroke-width="1.875" marker-start="url(#arrowStart)" x1="148.5" y1="93.75" x2="163.5" y2="93.75" />
<line stroke="Black" stroke-width="1.875" x1="163.5" y1="24.375" x2="163.5" y2="93.75" />
</g>
<g>
<g transform="translate(208.5 7.5)">
<rect fill="White" stroke="Black" stroke-width="1.875" x="0" y="0" width="120" height="33.75" rx="3.75" ry="3.75" />
<text x="60" y="22.5" text-anchor="middle">MG Finding</text>
</g>
<line stroke="Black" stroke-width="1.875" marker-end="url(#arrowEnd)" x1="343.5" y1="24.375" x2="388.5" y2="24.375" />
<text x="347.25" y="20.625" text-anchor="left">0..*</text>
<line stroke="Black" stroke-width="1.875" marker-end="url(#arrowEnd)" x1="343.5" y1="65.625" x2="388.5" y2="65.625" />
<text x="347.25" y="61.875" text-anchor="left">0..*</text>
<line stroke="Black" stroke-width="1.875" marker-end="url(#arrowEnd)" x1="343.5" y1="106.875" x2="388.5" y2="106.875" />
<text x="347.25" y="103.125" text-anchor="left">0..*</text>
<line stroke="Black" stroke-width="1.875" marker-end="url(#arrowEnd)" x1="343.5" y1="148.125" x2="388.5" y2="148.125" />
<text x="347.25" y="144.375" text-anchor="left">0..*</text>
<line stroke="Black" stroke-width="1.875" marker-end="url(#arrowEnd)" x1="343.5" y1="189.375" x2="388.5" y2="189.375" />
<text x="347.25" y="185.625" text-anchor="left">0..*</text>
<line stroke="Black" stroke-width="1.875" marker-end="url(#arrowEnd)" x1="343.5" y1="240" x2="388.5" y2="240" />
<text x="347.25" y="236.25" text-anchor="left">0..*</text>
<line stroke="Black" stroke-width="1.875" marker-end="url(#arrowEnd)" x1="343.5" y1="290.625" x2="388.5" y2="290.625" />
<text x="347.25" y="286.875" text-anchor="left">0..*</text>
<line stroke="Black" stroke-width="1.875" marker-end="url(#arrowEnd)" x1="343.5" y1="331.875" x2="388.5" y2="331.875" />
<text x="347.25" y="328.125" text-anchor="left">0..*</text>
<line stroke="Black" stroke-width="1.875" marker-end="url(#arrowEnd)" x1="343.5" y1="373.125" x2="388.5" y2="373.125" />
<text x="347.25" y="369.375" text-anchor="left">0..*</text>
<line stroke="Black" stroke-width="1.875" marker-end="url(#arrowEnd)" x1="343.5" y1="414.375" x2="388.5" y2="414.375" />
<text x="347.25" y="410.625" text-anchor="left">0..*</text>
<line stroke="Black" stroke-width="1.875" marker-end="url(#arrowEnd)" x1="343.5" y1="455.625" x2="388.5" y2="455.625" />
<text x="347.25" y="451.875" text-anchor="left">0..*</text>
<line stroke="Black" stroke-width="1.875" marker-end="url(#arrowEnd)" x1="343.5" y1="496.875" x2="388.5" y2="496.875" />
<text x="347.25" y="493.125" text-anchor="left">0..*</text>
<line stroke="Black" stroke-width="1.875" marker-end="url(#arrowEnd)" x1="343.5" y1="538.125" x2="388.5" y2="538.125" />
<text x="347.25" y="534.375" text-anchor="left">1..1</text>
<line stroke="Black" stroke-width="1.875" marker-start="url(#arrowStart)" x1="328.5" y1="24.375" x2="343.5" y2="24.375" />
<line stroke="Black" stroke-width="1.875" x1="343.5" y1="24.375" x2="343.5" y2="538.125" />
</g>
<g>
<g transform="translate(388.5 7.5)">
<a href="./StructureDefinition-AbnormalityCyst.html" target="_top">
<rect fill="LightCyan" stroke="Black" stroke-width="1.875" x="0" y="0" width="57" height="33.75" rx="3.75" ry="3.75" />
</a>
<a href="./StructureDefinition-AbnormalityCyst.html" target="_top">
<text x="28.5" y="22.5" text-anchor="middle">Cyst</text>
</a>
</g>
</g>
<g>
<g transform="translate(388.5 48.75)">
<a href="./StructureDefinition-AbnormalityDuct.html" target="_top">
<rect fill="LightCyan" stroke="Black" stroke-width="1.875" x="0" y="0" width="57" height="33.75" rx="3.75" ry="3.75" />
</a>
<a href="./StructureDefinition-AbnormalityDuct.html" target="_top">
<text x="28.5" y="22.5" text-anchor="middle">Duct</text>
</a>
</g>
</g>
<g>
<g transform="translate(388.5 90)">
<a href="./StructureDefinition-AbnormalityForeignObject.html" target="_top">
<rect fill="LightCyan" stroke="Black" stroke-width="1.875" x="0" y="0" width="162" height="33.75" rx="3.75" ry="3.75" />
</a>
<a href="./StructureDefinition-AbnormalityForeignObject.html" target="_top">
<text x="81" y="22.5" text-anchor="middle">Foreign Object</text>
</a>
</g>
</g>
<g>
<g transform="translate(388.5 131.25)">
<a href="./StructureDefinition-AbnormalityLymphNode.html" target="_top">
<rect fill="LightCyan" stroke="Black" stroke-width="1.875" x="0" y="0" width="120" height="33.75" rx="3.75" ry="3.75" />
</a>
<a href="./StructureDefinition-AbnormalityLymphNode.html" target="_top">
<text x="60" y="22.5" text-anchor="middle">Lymph Node</text>
</a>
</g>
</g>
<g>
<g transform="translate(388.5 172.5)">
<a href="./StructureDefinition-AbnormalityMass.html" target="_top">
<rect fill="LightCyan" stroke="Black" stroke-width="1.875" x="0" y="0" width="57" height="33.75" rx="3.75" ry="3.75" />
</a>
<a href="./StructureDefinition-AbnormalityMass.html" target="_top">
<text x="28.5" y="22.5" text-anchor="middle">Mass</text>
</a>
</g>
</g>
<g>
<g transform="translate(388.5 213.75)">
<a href="./StructureDefinition-AssociatedFeatures.html" target="_top">
<rect fill="LightCyan" stroke="Black" stroke-width="1.875" x="0" y="0" width="120" height="52.5" rx="3.75" ry="3.75" />
</a>
<a href="./StructureDefinition-AssociatedFeatures.html" target="_top">
<text x="60" y="22.5" text-anchor="middle">Associated</text>
</a>
<a href="./StructureDefinition-AssociatedFeatures.html" target="_top">
<text x="60" y="41.25" text-anchor="middle">Features</text>
</a>
</g>
</g>
<g>
<g transform="translate(388.5 273.75)">
<a href="./StructureDefinition-AbnormalityFibroadenoma.html" target="_top">
<rect fill="LightCyan" stroke="Black" stroke-width="1.875" x="0" y="0" width="141" height="33.75" rx="3.75" ry="3.75" />
</a>
<a href="./StructureDefinition-AbnormalityFibroadenoma.html" target="_top">
<text x="70.5" y="22.5" text-anchor="middle">Fibroadenoma</text>
</a>
</g>
</g>
<g>
<g transform="translate(388.5 315)">
<a href="./StructureDefinition-MGAbnormalityArchitecturalDistortion.html" target="_top">
<rect fill="LightCyan" stroke="Black" stroke-width="1.875" x="0" y="0" width="214.5" height="33.75" rx="3.75" ry="3.75" />
</a>
<a href="./StructureDefinition-MGAbnormalityArchitecturalDistortion.html" target="_top">
<text x="107.25" y="22.5" text-anchor="middle">MG Arch. Distortion</text>
</a>
</g>
</g>
<g>
<g transform="translate(388.5 356.25)">
<a href="./StructureDefinition-MGAbnormalityAsymmetry.html" target="_top">
<rect fill="LightCyan" stroke="Black" stroke-width="1.875" x="0" y="0" width="141" height="33.75" rx="3.75" ry="3.75" />
</a>
<a href="./StructureDefinition-MGAbnormalityAsymmetry.html" target="_top">
<text x="70.5" y="22.5" text-anchor="middle">MG Asymmetry</text>
</a>
</g>
</g>
<g>
<g transform="translate(388.5 397.5)">
<a href="./StructureDefinition-MGAbnormalityCalcification.html" target="_top">
<rect fill="LightCyan" stroke="Black" stroke-width="1.875" x="0" y="0" width="99" height="33.75" rx="3.75" ry="3.75" />
</a>
<a href="./StructureDefinition-MGAbnormalityCalcification.html" target="_top">
<text x="49.5" y="22.5" text-anchor="middle">MG Calc.</text>
</a>
</g>
</g>
<g>
<g transform="translate(388.5 438.75)">
<a href="./StructureDefinition-MGAbnormalityDensity.html" target="_top">
<rect fill="LightCyan" stroke="Black" stroke-width="1.875" x="0" y="0" width="120" height="33.75" rx="3.75" ry="3.75" />
</a>
<a href="./StructureDefinition-MGAbnormalityDensity.html" target="_top">
<text x="60" y="22.5" text-anchor="middle">MG Density</text>
</a>
</g>
</g>
<g>
<g transform="translate(388.5 480)">
<a href="./StructureDefinition-MGAbnormalityFatNecrosis.html" target="_top">
<rect fill="LightCyan" stroke="Black" stroke-width="1.875" x="0" y="0" width="172.5" height="33.75" rx="3.75" ry="3.75" />
</a>
<a href="./StructureDefinition-MGAbnormalityFatNecrosis.html" target="_top">
<text x="86.25" y="22.5" text-anchor="middle">MG Fat Necrosis</text>
</a>
</g>
</g>
<g>
<g transform="translate(388.5 521.25)">
<a href="./StructureDefinition-MGBreastDensity.html" target="_top">
<rect fill="LightCyan" stroke="Black" stroke-width="1.875" x="0" y="0" width="193.5" height="33.75" rx="3.75" ry="3.75" />
</a>
<a href="./StructureDefinition-MGBreastDensity.html" target="_top">
<text x="96.75" y="22.5" text-anchor="middle">MG Breast Density</text>
</a>
</g>
</g>
</svg>
