<?xml version="1.0"?>
<!DOCTYPE svg PUBLIC "-//W3C//DTD SVG 1.1//EN" "http://www.w3.org/Graphics/SVG/1.1/DTD/svg11.dtd">
<svg xmlns="http://www.w3.org/2000/svg" version="1.1" width="652.5" height="82.5">
<defs>
<marker id="arrowStart" markerWidth="3.75" markerHeight="3.75" markerUnits="px" refX="1.875" refY="1.875">
<circle fill="Black" stroke-width="0" cx="1.875" cy="1.875" r="1.875" />
</marker>
<marker id="arrowEnd" markerWidth="7.5" markerHeight="7.5" markerUnits="px" refX="7.5" refY="3.75">
<polygon fill="Black" stroke-width="0" points="0 0 7.5 3.75 0 7.5" />
</marker>
</defs>
<g>
<g>
<rect fill="LightBlue" stroke="Black" stroke-width="1.875" x="7.5" y="7.5" width="120" height="33.75" rx="3.75" ry="3.75" />
<a href="./StructureDefinition-BreastRadUltraSoundFinding.html" target="_blank">
<title>'BreastRadUltraSoundFinding'</title>
<text x="15" y="30">US Finding</text>
</a>
</g>
<line stroke="Black" stroke-width="1.875" marker-end="url(#arrowEnd)" x1="157.5" y1="33.75" x2="187.5" y2="33.75" />
<line stroke="Black" stroke-width="1.875" marker-start="url(#arrowStart)" x1="127.5" y1="24.375" x2="157.5" y2="24.375" />
<line stroke="Black" stroke-width="1.875" x1="157.5" y1="24.375" x2="157.5" y2="33.75" />
</g>
<g>
<g>
<rect fill="LightGreen" stroke="Black" stroke-width="1.875" x="187.5" y="7.5" width="130.5" height="52.5" rx="3.75" ry="3.75" />
<text x="195" y="30">US Tissue</text>
<text x="195" y="48.75">Composition</text>
</g>
<line stroke="Black" stroke-width="1.875" marker-end="url(#arrowEnd)" x1="348" y1="33.75" x2="378" y2="33.75" />
<line stroke="Black" stroke-width="1.875" marker-start="url(#arrowStart)" x1="318" y1="33.75" x2="348" y2="33.75" />
<line stroke="Black" stroke-width="1.875" x1="348" y1="33.75" x2="348" y2="33.75" />
</g>
<g>
<g>
<rect fill="LightSalmon" stroke="Black" stroke-width="1.875" x="378" y="7.5" width="214.5" height="52.5" rx="3.75" ry="3.75" />
<a href="./ValueSet-BreastRadUSTissueCompositionVS.html" target="_blank">
<title>'BreastRadUSTissueCompositionVS'</title>
<text x="385.5" y="30">US Tissue</text>
</a>
<a href="./ValueSet-BreastRadUSTissueCompositionVS.html" target="_blank">
<title>'BreastRadUSTissueCompositionVS'</title>
<text x="385.5" y="48.75">CompositionValueSet</text>
</a>
</g>
</g>
</svg>
