<?xml version="1.0"?>
<!DOCTYPE svg PUBLIC "-//W3C//DTD SVG 1.1//EN" "http://www.w3.org/Graphics/SVG/1.1/DTD/svg11.dtd">
<svg xmlns="http://www.w3.org/2000/svg" version="1.1" width="1011" height="101.25">
<defs>
<marker id="arrowStart" markerWidth="3.75" markerHeight="3.75" markerUnits="px" refX="1.875" refY="1.875">
<circle fill="Black" stroke-width="0" cx="1.875" cy="1.875" r="1.875" />
</marker>
<marker id="arrowEnd" markerWidth="7.5" markerHeight="7.5" markerUnits="px" refX="7.5" refY="3.75">
<polygon fill="Black" stroke-width="0" points="0 0 7.5 3.75 0 7.5" />
</marker>
</defs>
<g>
<g transform="translate(7.5 7.5)">
<rect fill="LightYellow" stroke="Black" stroke-width="1.875" x="0" y="0" width="130.5" height="71.25" rx="3.75" ry="3.75" />
<a href="./StructureDefinition-BreastRadComposition.html" target="_top">
<text x="65.25" y="22.5" text-anchor="middle">Breast</text>
</a>
<a href="./StructureDefinition-BreastRadComposition.html" target="_top">
<text x="65.25" y="41.25" text-anchor="middle">Radiology</text>
</a>
<a href="./StructureDefinition-BreastRadComposition.html" target="_top">
<text x="65.25" y="60" text-anchor="middle">Composition</text>
</a>
</g>
<line stroke="Black" stroke-width="1.875" marker-end="url(#arrowEnd)" x1="153" y1="33.75" x2="198" y2="33.75" />
<text x="156.75" y="30" text-anchor="left"></text>
<line stroke="Black" stroke-width="1.875" marker-start="url(#arrowStart)" x1="138" y1="43.125" x2="153" y2="43.125" />
<line stroke="Black" stroke-width="1.875" x1="153" y1="33.75" x2="153" y2="43.125" />
</g>
<g>
<g transform="translate(198 7.5)">
<rect fill="White" stroke="Black" stroke-width="1.875" x="0" y="0" width="162" height="52.5" rx="3.75" ry="3.75" />
<text x="81" y="22.5" text-anchor="middle">Service</text>
<text x="81" y="41.25" text-anchor="middle">Recommendation</text>
</g>
<line stroke="Black" stroke-width="1.875" marker-end="url(#arrowEnd)" x1="375" y1="33.75" x2="420" y2="33.75" />
<text x="378.75" y="30" text-anchor="left">0..1</text>
<line stroke="Black" stroke-width="1.875" marker-start="url(#arrowStart)" x1="360" y1="33.75" x2="375" y2="33.75" />
<line stroke="Black" stroke-width="1.875" x1="375" y1="33.75" x2="375" y2="33.75" />
</g>
<g>
<g transform="translate(420 7.5)">
<a href="StructureDefinition-ServiceRecommendation-definitions.html#ServiceRequest.code" target="_top">
<rect fill="LightYellow" stroke="Black" stroke-width="1.875" x="0" y="0" width="298.5" height="52.5" rx="3.75" ry="3.75" />
</a>
<a href="StructureDefinition-ServiceRecommendation-definitions.html#ServiceRequest.code" target="_top">
<text x="149.25" y="22.5" text-anchor="middle">Service Recommendation Code</text>
</a>
<a href="StructureDefinition-ServiceRecommendation-definitions.html#ServiceRequest.code" target="_top">
<text x="149.25" y="41.25" text-anchor="middle">CodeableConcept</text>
</a>
</g>
<line stroke="Black" stroke-width="1.875" marker-end="url(#arrowEnd)" x1="733.5" y1="33.75" x2="778.5" y2="33.75" />
<line stroke="Black" stroke-width="1.875" marker-start="url(#arrowStart)" x1="718.5" y1="33.75" x2="733.5" y2="33.75" />
<line stroke="Black" stroke-width="1.875" x1="733.5" y1="33.75" x2="733.5" y2="33.75" />
</g>
<g>
<g transform="translate(778.5 7.5)">
<rect fill="LightYellow" stroke="Black" stroke-width="1.875" x="0" y="0" width="172.5" height="52.5" rx="3.75" ry="3.75" />
<a href="./ValueSet-RecommendationsVS.html" target="_top">
<text x="86.25" y="22.5" text-anchor="middle">Recommendations</text>
</a>
<a href="./ValueSet-RecommendationsVS.html" target="_top">
<text x="86.25" y="41.25" text-anchor="middle">ValueSet</text>
</a>
</g>
</g>
</svg>
