<?xml version="1.0"?>
<!DOCTYPE svg PUBLIC "-//W3C//DTD SVG 1.1//EN" "http://www.w3.org/Graphics/SVG/1.1/DTD/svg11.dtd">
<svg xmlns="http://www.w3.org/2000/svg" version="1.1" width="579" height="123.75">
<defs>
<marker id="arrowStart" markerWidth="3.75" markerHeight="3.75" markerUnits="px" refX="1.875" refY="1.875">
<circle fill="Black" stroke-width="0" cx="1.875" cy="1.875" r="1.875" />
</marker>
<marker id="arrowEnd" markerWidth="7.5" markerHeight="7.5" markerUnits="px" refX="7.5" refY="3.75">
<polygon fill="Black" stroke-width="0" points="0 0 7.5 3.75 0 7.5" />
</marker>
</defs>
<g>
<g transform="translate(7.5 7.5)">
<rect fill="LightBlue" stroke="Black" stroke-width="1.875" x="0" y="0" width="130.5" height="33.75" rx="3.75" ry="3.75" />
<a href="./StructureDefinition-BreastRadSectionFindingsLeftBreast.html" target="_blank">
<title>'BreastRadSectionFindingsLeftBreast'</title>
<text x="65.25" y="22.5" text-anchor="middle">Left Breast</text>
</a>
</g>
<g transform="translate(7.5 48.75)">
<rect fill="LightBlue" stroke="Black" stroke-width="1.875" x="0" y="0" width="141" height="33.75" rx="3.75" ry="3.75" />
<a href="./StructureDefinition-BreastRadSectionFindingsRightBreast.html" target="_blank">
<title>'BreastRadSectionFindingsRightBreast'</title>
<text x="70.5" y="22.5" text-anchor="middle">Right Breast</text>
</a>
</g>
<line stroke="Black" stroke-width="1.875" marker-end="url(#arrowEnd)" x1="178.5" y1="24.375" x2="208.5" y2="24.375" />
<line stroke="Black" stroke-width="1.875" marker-start="url(#arrowStart)" x1="138" y1="24.375" x2="178.5" y2="24.375" />
<line stroke="Black" stroke-width="1.875" marker-start="url(#arrowStart)" x1="148.5" y1="65.625" x2="178.5" y2="65.625" />
<line stroke="Black" stroke-width="1.875" x1="178.5" y1="24.375" x2="178.5" y2="65.625" />
</g>
<g>
<g transform="translate(208.5 7.5)">
<rect fill="LightGreen" stroke="Black" stroke-width="1.875" x="0" y="0" width="120" height="33.75" rx="3.75" ry="3.75" />
<text x="60" y="22.5" text-anchor="middle">US Finding</text>
</g>
<line stroke="Black" stroke-width="1.875" marker-end="url(#arrowEnd)" x1="358.5" y1="24.375" x2="388.5" y2="24.375" />
<line stroke="Black" stroke-width="1.875" marker-end="url(#arrowEnd)" x1="358.5" y1="75" x2="388.5" y2="75" />
<line stroke="Black" stroke-width="1.875" marker-start="url(#arrowStart)" x1="328.5" y1="24.375" x2="358.5" y2="24.375" />
<line stroke="Black" stroke-width="1.875" x1="358.5" y1="24.375" x2="358.5" y2="75" />
</g>
<g>
<g transform="translate(388.5 7.5)">
<rect fill="LightSalmon" stroke="Black" stroke-width="1.875" x="0" y="0" width="88.5" height="33.75" rx="3.75" ry="3.75" />
<a href="./StructureDefinition-BreastRadUSMass.html" target="_blank">
<title>'BreastRadUSMass'</title>
<text x="44.25" y="22.5" text-anchor="middle">US Mass</text>
</a>
</g>
<g transform="translate(388.5 48.75)">
<rect fill="LightSalmon" stroke="Black" stroke-width="1.875" x="0" y="0" width="130.5" height="52.5" rx="3.75" ry="3.75" />
<a href="./StructureDefinition-BreastRadUSTissueComposition.html" target="_blank">
<title>'BreastRadUSTissueComposition'</title>
<text x="65.25" y="22.5" text-anchor="middle">US Tissue</text>
</a>
<a href="./StructureDefinition-BreastRadUSTissueComposition.html" target="_blank">
<title>'BreastRadUSTissueComposition'</title>
<text x="65.25" y="41.25" text-anchor="middle">Composition</text>
</a>
</g>
</g>
</svg>
