<?xml version="1.0"?>
<?xml-stylesheet type="text/css" href="FocusGraph.css" ?>
<!DOCTYPE svg PUBLIC "-//W3C//DTD SVG 1.1//EN" "http://www.w3.org/Graphics/SVG/1.1/DTD/svg11.dtd">
<svg xmlns="http://www.w3.org/2000/svg" version="1.1" width="1102.07" height="457.5">
<defs>
<marker id="arrowStart" markerWidth="3.75" markerHeight="3.75" markerUnits="px" refX="1.88" refY="1.88">
<circle class="connector" cx="1.88" cy="1.88" r="1.88" />
</marker>
<marker id="arrowEnd" markerWidth="7.5" markerHeight="7.5" markerUnits="px" refX="7.5" refY="3.75">
<polygon class="connector" points="0 0 7.5 3.75 0 7.5" />
</marker>
</defs>
<g>
<g transform="translate(3.75 3.75)">
<a href="StructureDefinition-AbnormalityArchitecturalDistortion.html" target="_top">
<rect class="profile" x="0" y="0" width="178.6" height="26.25" rx="3.75" ry="3.75" />
</a>
<a href="StructureDefinition-AbnormalityArchitecturalDistortion.html" target="_top">
<text x="5.62" y="18.75" text-anchor="left" class="profile">Architectural Distortion</text>
</a>
</g>
<g transform="translate(3.75 37.5)">
<a href="StructureDefinition-AbnormalityAsymmetry.html" target="_top">
<rect class="profile" x="0" y="0" width="95.23" height="26.25" rx="3.75" ry="3.75" />
</a>
<a href="StructureDefinition-AbnormalityAsymmetry.html" target="_top">
<text x="5.62" y="18.75" text-anchor="left" class="profile">Asymmetry</text>
</a>
</g>
<g transform="translate(3.75 71.25)">
<a href="StructureDefinition-AbnormalityCalcification.html" target="_top">
<rect class="profile" x="0" y="0" width="101.68" height="26.25" rx="3.75" ry="3.75" />
</a>
<a href="StructureDefinition-AbnormalityCalcification.html" target="_top">
<text x="5.62" y="18.75" text-anchor="left" class="profile">Calcification</text>
</a>
</g>
<g transform="translate(3.75 105)">
<a href="StructureDefinition-AbnormalityCyst.html" target="_top">
<rect class="profile" x="0" y="0" width="45.79" height="26.25" rx="3.75" ry="3.75" />
</a>
<a href="StructureDefinition-AbnormalityCyst.html" target="_top">
<text x="5.62" y="18.75" text-anchor="left" class="profile">Cyst</text>
</a>
</g>
<g transform="translate(3.75 138.75)">
<a href="StructureDefinition-AbnormalityDensity.html" target="_top">
<rect class="profile" x="0" y="0" width="67.79" height="26.25" rx="3.75" ry="3.75" />
</a>
<a href="StructureDefinition-AbnormalityDensity.html" target="_top">
<text x="5.62" y="18.75" text-anchor="left" class="profile">Density</text>
</a>
</g>
<g transform="translate(3.75 172.5)">
<a href="StructureDefinition-AbnormalityDuct.html" target="_top">
<rect class="profile" x="0" y="0" width="46.72" height="26.25" rx="3.75" ry="3.75" />
</a>
<a href="StructureDefinition-AbnormalityDuct.html" target="_top">
<text x="5.62" y="18.75" text-anchor="left" class="profile">Duct</text>
</a>
</g>
<g transform="translate(3.75 206.25)">
<a href="StructureDefinition-AbnormalityFatNecrosis.html" target="_top">
<rect class="profile" x="0" y="0" width="105.33" height="26.25" rx="3.75" ry="3.75" />
</a>
<a href="StructureDefinition-AbnormalityFatNecrosis.html" target="_top">
<text x="5.62" y="18.75" text-anchor="left" class="profile">Fat Necrosis</text>
</a>
</g>
<g transform="translate(3.75 240)">
<a href="StructureDefinition-AbnormalityForeignObject.html" target="_top">
<rect class="profile" x="0" y="0" width="120.92" height="26.25" rx="3.75" ry="3.75" />
</a>
<a href="StructureDefinition-AbnormalityForeignObject.html" target="_top">
<text x="5.62" y="18.75" text-anchor="left" class="profile">Foreign Object</text>
</a>
</g>
<g transform="translate(3.75 273.75)">
<a href="StructureDefinition-AbnormalityMass.html" target="_top">
<rect class="profile" x="0" y="0" width="52.21" height="26.25" rx="3.75" ry="3.75" />
</a>
<a href="StructureDefinition-AbnormalityMass.html" target="_top">
<text x="5.62" y="18.75" text-anchor="left" class="profile">Mass</text>
</a>
</g>
<g transform="translate(3.75 307.5)">
<a href="StructureDefinition-AbnormalitySkinLesion.html" target="_top">
<rect class="profile" x="0" y="0" width="98.04" height="26.25" rx="3.75" ry="3.75" />
</a>
<a href="StructureDefinition-AbnormalitySkinLesion.html" target="_top">
<text x="5.62" y="18.75" text-anchor="left" class="profile">Skin Lesion</text>
</a>
</g>
<line class="connector" marker-end="url(#arrowEnd)" x1="212.35" y1="16.88" x2="272.35" y2="16.88" />
<text x="216.1" y="13.12" text-anchor="right" class="lhsText">0..*</text>
<line class="connector" marker-start="url(#arrowStart)" x1="182.35" y1="16.88" x2="212.35" y2="16.88" />
<line class="connector" marker-start="url(#arrowStart)" x1="98.98" y1="50.62" x2="212.35" y2="50.62" />
<line class="connector" marker-start="url(#arrowStart)" x1="105.43" y1="84.38" x2="212.35" y2="84.38" />
<line class="connector" marker-start="url(#arrowStart)" x1="49.54" y1="118.12" x2="212.35" y2="118.12" />
<line class="connector" marker-start="url(#arrowStart)" x1="71.54" y1="151.88" x2="212.35" y2="151.88" />
<line class="connector" marker-start="url(#arrowStart)" x1="50.47" y1="185.62" x2="212.35" y2="185.62" />
<line class="connector" marker-start="url(#arrowStart)" x1="109.08" y1="219.38" x2="212.35" y2="219.38" />
<line class="connector" marker-start="url(#arrowStart)" x1="124.67" y1="253.12" x2="212.35" y2="253.12" />
<line class="connector" marker-start="url(#arrowStart)" x1="55.96" y1="286.88" x2="212.35" y2="286.88" />
<line class="connector" marker-start="url(#arrowStart)" x1="101.79" y1="320.62" x2="212.35" y2="320.62" />
<line class="connector" x1="212.35" y1="16.88" x2="212.35" y2="320.62" />
</g>
<g>
<g transform="translate(272.35 3.75)">
<a href="StructureDefinition-ConsistentWith.html" target="_top">
<rect class="focus" x="0" y="0" width="128.23" height="26.25" rx="3.75" ry="3.75" />
</a>
<a href="StructureDefinition-ConsistentWith.html" target="_top">
<text x="5.62" y="18.75" text-anchor="left" class="focus">Consistent With</text>
</a>
</g>
<line class="connector" marker-end="url(#arrowEnd)" x1="430.58" y1="16.88" x2="490.58" y2="16.88" />
<text x="434.33" y="13.12" text-anchor="right" class="lhsText">1..1</text>
<line class="connector" marker-end="url(#arrowEnd)" x1="430.58" y1="50.62" x2="490.58" y2="50.62" />
<text x="434.33" y="46.88" text-anchor="right" class="lhsText">1..*</text>
<line class="connector" marker-start="url(#arrowStart)" x1="400.58" y1="16.88" x2="430.58" y2="16.88" />
<line class="connector" x1="430.58" y1="16.88" x2="430.58" y2="50.62" />
</g>
<g>
<g transform="translate(490.58 3.75)">
<a href="StructureDefinition-ConsistentWith-definitions.html#Observation.code" target="_top">
<rect class="element" x="0" y="0" width="52.22" height="26.25" rx="3.75" ry="3.75" />
</a>
<a href="StructureDefinition-ConsistentWith-definitions.html#Observation.code" target="_top">
<text x="5.62" y="18.75" text-anchor="left" class="element">Code</text>
</a>
</g>
<line class="connector" marker-end="url(#arrowEnd)" x1="572.8" y1="16.88" x2="692.8" y2="16.88" />
<text x="576.55" y="13.12" text-anchor="right" class="lhsText">pattern </text>
<line class="connector" marker-start="url(#arrowStart)" x1="542.8" y1="16.88" x2="572.8" y2="16.88" />
<line class="connector" x1="572.8" y1="16.88" x2="572.8" y2="16.88" />
</g>
<g>
<g transform="translate(692.8 3.75)">
<a href="CodeSystem-ObservationCodesCS.html" target="_top">
<rect class="value" x="0" y="0" width="377.39" height="26.25" rx="3.75" ry="3.75" />
</a>
<a href="CodeSystem-ObservationCodesCS.html" target="_top">
<text x="5.62" y="18.75" text-anchor="left" class="value">ObservationCodesCS#consistentWithObservation</text>
</a>
</g>
</g>
<g>
<g transform="translate(490.58 37.5)">
<a href="StructureDefinition-ConsistentWith-definitions.html#Observation.component" target="_top">
<rect class="element" x="0" y="0" width="106.26" height="26.25" rx="3.75" ry="3.75" />
</a>
<a href="StructureDefinition-ConsistentWith-definitions.html#Observation.component" target="_top">
<text x="5.62" y="18.75" text-anchor="left" class="element">Components</text>
</a>
</g>
<line class="connector" marker-end="url(#arrowEnd)" x1="626.84" y1="50.62" x2="686.84" y2="50.62" />
<text x="630.59" y="46.88" text-anchor="right" class="lhsText">1..1</text>
<line class="connector" marker-end="url(#arrowEnd)" x1="626.84" y1="84.38" x2="686.84" y2="84.38" />
<text x="630.59" y="80.62" text-anchor="right" class="lhsText">0..*</text>
<line class="connector" marker-start="url(#arrowStart)" x1="596.84" y1="50.62" x2="626.84" y2="50.62" />
<line class="connector" x1="626.84" y1="50.62" x2="626.84" y2="84.38" />
</g>
<g>
<g transform="translate(686.84 37.5)">
<a href="StructureDefinition-ConsistentWith-definitions.html#Observation.component:consistentWith" target="_top">
<rect class="element" x="0" y="0" width="128.23" height="26.25" rx="3.75" ry="3.75" />
</a>
<a href="StructureDefinition-ConsistentWith-definitions.html#Observation.component:consistentWith" target="_top">
<text x="5.62" y="18.75" text-anchor="left" class="element">Consistent With</text>
</a>
</g>
<line class="connector" marker-end="url(#arrowEnd)" x1="845.08" y1="50.62" x2="905.08" y2="50.62" />
<text x="848.83" y="46.88" text-anchor="right" class="lhsText">bind</text>
<line class="connector" marker-start="url(#arrowStart)" x1="815.08" y1="50.62" x2="845.08" y2="50.62" />
<line class="connector" x1="845.08" y1="50.62" x2="845.08" y2="50.62" />
</g>
<g>
<g transform="translate(905.08 37.5)">
<a href="ValueSet-ConsistentWithVS.html" target="_top">
<rect class="valueSet" x="0" y="0" width="145.64" height="26.25" rx="3.75" ry="3.75" />
</a>
<a href="ValueSet-ConsistentWithVS.html" target="_top">
<text x="5.62" y="18.75" text-anchor="left" class="valueSet">ConsistentWithVS</text>
</a>
</g>
</g>
<g>
<g transform="translate(686.84 71.25)">
<a href="StructureDefinition-ConsistentWith-definitions.html#Observation.component:qualifier" target="_top">
<rect class="element" x="0" y="0" width="74.2" height="26.25" rx="3.75" ry="3.75" />
</a>
<a href="StructureDefinition-ConsistentWith-definitions.html#Observation.component:qualifier" target="_top">
<text x="5.62" y="18.75" text-anchor="left" class="element">Qualifier</text>
</a>
</g>
<line class="connector" marker-end="url(#arrowEnd)" x1="791.04" y1="84.38" x2="851.04" y2="84.38" />
<text x="794.79" y="80.62" text-anchor="right" class="lhsText">bind</text>
<line class="connector" marker-start="url(#arrowStart)" x1="761.04" y1="84.38" x2="791.04" y2="84.38" />
<line class="connector" x1="791.04" y1="84.38" x2="791.04" y2="84.38" />
</g>
<g>
<g transform="translate(851.04 71.25)">
<a href="ValueSet-ConsistentWithQualifierVS.html" target="_top">
<rect class="valueSet" x="0" y="0" width="207.01" height="26.25" rx="3.75" ry="3.75" />
</a>
<a href="ValueSet-ConsistentWithQualifierVS.html" target="_top">
<text x="5.62" y="18.75" text-anchor="left" class="valueSet">ConsistentWithQualifierVS</text>
</a>
</g>
</g>
<g>
<g transform="translate(3.75 416.25)">
<rect class="focus" x="0" y="0" width="57.72" height="26.25" rx="3.75" ry="3.75" />
<text x="5.62" y="18.75" text-anchor="left" class="focus">Focus</text>
</g>
<g transform="translate(68.97 416.25)">
<rect class="profile" x="0" y="0" width="143.81" height="26.25" rx="3.75" ry="3.75" />
<text x="5.62" y="18.75" text-anchor="left" class="profile">Profiled Resource</text>
</g>
<g transform="translate(220.28 416.25)">
<rect class="element" x="0" y="0" width="148.39" height="26.25" rx="3.75" ry="3.75" />
<text x="5.62" y="18.75" text-anchor="left" class="element">Resource Element</text>
</g>
<g transform="translate(376.16 416.25)">
<rect class="valueSet" x="0" y="0" width="79.72" height="26.25" rx="3.75" ry="3.75" />
<text x="5.62" y="18.75" text-anchor="left" class="valueSet">ValueSet</text>
</g>
<g transform="translate(463.38 416.25)">
<rect class="value" x="0" y="0" width="54.98" height="26.25" rx="3.75" ry="3.75" />
<text x="5.62" y="18.75" text-anchor="left" class="value">Value</text>
</g>
</g>
</svg>
