<?xml version="1.0"?>
<!DOCTYPE svg PUBLIC "-//W3C//DTD SVG 1.1//EN" "http://www.w3.org/Graphics/SVG/1.1/DTD/svg11.dtd">
<svg xmlns="http://www.w3.org/2000/svg" version="1.1" width="1179" height="423.75">
<defs>
<marker id="arrowStart" markerWidth="3.75" markerHeight="3.75" markerUnits="px" refX="1.875" refY="1.875">
<circle fill="Black" stroke-width="0" cx="1.875" cy="1.875" r="1.875" />
</marker>
<marker id="arrowEnd" markerWidth="7.5" markerHeight="7.5" markerUnits="px" refX="7.5" refY="3.75">
<polygon fill="Black" stroke-width="0" points="0 0 7.5 3.75 0 7.5" />
</marker>
</defs>
<g>
<g transform="translate(7.5 7.5)">
<rect fill="LightCyan" stroke="Black" stroke-width="1.875" x="0" y="0" width="120" height="52.5" rx="3.75" ry="3.75" />
<a href="./StructureDefinition-AssociatedFeatures.html" target="_top">
<title>'AssociatedFeatures'</title>
<text x="60" y="22.5" text-anchor="middle">Associated</text>
</a>
<a href="./StructureDefinition-AssociatedFeatures.html" target="_top">
<title>'AssociatedFeatures'</title>
<text x="60" y="41.25" text-anchor="middle">Features</text>
</a>
</g>
<g transform="translate(7.5 67.5)">
<rect fill="LightCyan" stroke="Black" stroke-width="1.875" x="0" y="0" width="120" height="33.75" rx="3.75" ry="3.75" />
<a href="./StructureDefinition-MGFinding.html" target="_top">
<title>'MGFinding'</title>
<text x="60" y="22.5" text-anchor="middle">MG Finding</text>
</a>
</g>
<line stroke="Black" stroke-width="1.875" marker-end="url(#arrowEnd)" x1="157.5" y1="24.375" x2="187.5" y2="24.375" />
<line stroke="Black" stroke-width="1.875" marker-start="url(#arrowStart)" x1="127.5" y1="33.75" x2="157.5" y2="33.75" />
<line stroke="Black" stroke-width="1.875" marker-start="url(#arrowStart)" x1="127.5" y1="84.375" x2="157.5" y2="84.375" />
<line stroke="Black" stroke-width="1.875" x1="157.5" y1="24.375" x2="157.5" y2="84.375" />
</g>
<g>
<g transform="translate(187.5 7.5)">
<rect fill="White" stroke="Black" stroke-width="1.875" x="0" y="0" width="214.5" height="33.75" rx="3.75" ry="3.75" />
<text x="107.25" y="22.5" text-anchor="middle">MG Arch. Distortion</text>
</g>
<line stroke="Black" stroke-width="1.875" marker-end="url(#arrowEnd)" x1="432" y1="33.75" x2="462" y2="33.75" />
<line stroke="Black" stroke-width="1.875" marker-end="url(#arrowEnd)" x1="432" y1="93.75" x2="462" y2="93.75" />
<line stroke="Black" stroke-width="1.875" marker-end="url(#arrowEnd)" x1="432" y1="153.75" x2="462" y2="153.75" />
<line stroke="Black" stroke-width="1.875" marker-end="url(#arrowEnd)" x1="432" y1="213.75" x2="462" y2="213.75" />
<line stroke="Black" stroke-width="1.875" marker-end="url(#arrowEnd)" x1="432" y1="273.75" x2="462" y2="273.75" />
<line stroke="Black" stroke-width="1.875" marker-end="url(#arrowEnd)" x1="432" y1="333.75" x2="462" y2="333.75" />
<line stroke="Black" stroke-width="1.875" marker-end="url(#arrowEnd)" x1="432" y1="384.375" x2="462" y2="384.375" />
<line stroke="Black" stroke-width="1.875" marker-start="url(#arrowStart)" x1="402" y1="24.375" x2="432" y2="24.375" />
<line stroke="Black" stroke-width="1.875" x1="432" y1="24.375" x2="432" y2="384.375" />
</g>
<g>
<g transform="translate(462 7.5)">
<rect fill="LightCyan" stroke="Black" stroke-width="1.875" x="0" y="0" width="120" height="52.5" rx="3.75" ry="3.75" />
<a href="./StructureDefinition-AssociatedFeatures.html" target="_top">
<title>'AssociatedFeatures'</title>
<text x="60" y="22.5" text-anchor="middle">Associated</text>
</a>
<a href="./StructureDefinition-AssociatedFeatures.html" target="_top">
<title>'AssociatedFeatures'</title>
<text x="60" y="41.25" text-anchor="middle">Features</text>
</a>
</g>
</g>
<g>
<g transform="translate(462 67.5)">
<rect fill="LightCyan" stroke="Black" stroke-width="1.875" x="0" y="0" width="120" height="52.5" rx="3.75" ry="3.75" />
<a href="./StructureDefinition-ConsistentWith.html" target="_top">
<title>'ConsistentWith'</title>
<text x="60" y="22.5" text-anchor="middle">Consistent</text>
</a>
<a href="./StructureDefinition-ConsistentWith.html" target="_top">
<title>'ConsistentWith'</title>
<text x="60" y="41.25" text-anchor="middle">With</text>
</a>
</g>
</g>
<g>
<g transform="translate(462 127.5)">
<rect fill="LightYellow" stroke="Black" stroke-width="1.875" x="0" y="0" width="287.99997" height="52.5" rx="3.75" ry="3.75" />
<text x="143.99998" y="22.5" text-anchor="middle">BiRads Assessment Category</text>
<text x="143.99998" y="41.25" text-anchor="middle">CodeableConcept</text>
</g>
<line stroke="Black" stroke-width="1.875" marker-end="url(#arrowEnd)" x1="780" y1="144.375" x2="810" y2="144.375" />
<line stroke="Black" stroke-width="1.875" marker-start="url(#arrowStart)" x1="750" y1="153.75" x2="780" y2="153.75" />
<line stroke="Black" stroke-width="1.875" x1="780" y1="144.375" x2="780" y2="153.75" />
</g>
<g>
<g transform="translate(810 127.5)">
<rect fill="LightGreen" stroke="Black" stroke-width="1.875" x="0" y="0" width="309" height="33.75" rx="3.75" ry="3.75" />
<a href="./ValueSet-BiRadsAssessmentCategoriesVS.html" target="_top">
<title>'BiRadsAssessmentCategoriesVS'</title>
<text x="154.5" y="22.5" text-anchor="middle">BiRadsAssessmentCategoriesVS</text>
</a>
</g>
</g>
<g>
<g transform="translate(462 187.5)">
<rect fill="LightYellow" stroke="Black" stroke-width="1.875" x="0" y="0" width="330" height="52.5" rx="3.75" ry="3.75" />
<text x="165" y="22.5" text-anchor="middle">Observed Change In Abnormality</text>
<text x="165" y="41.25" text-anchor="middle">CodeableConcept</text>
</g>
<line stroke="Black" stroke-width="1.875" marker-end="url(#arrowEnd)" x1="822" y1="204.375" x2="852" y2="204.375" />
<line stroke="Black" stroke-width="1.875" marker-start="url(#arrowStart)" x1="792" y1="213.75" x2="822" y2="213.75" />
<line stroke="Black" stroke-width="1.875" x1="822" y1="204.375" x2="822" y2="213.75" />
</g>
<g>
<g transform="translate(852 187.5)">
<rect fill="LightGreen" stroke="Black" stroke-width="1.875" x="0" y="0" width="193.5" height="33.75" rx="3.75" ry="3.75" />
<a href="./ValueSet-ObservedChangesVS.html" target="_top">
<title>'ObservedChangesVS'</title>
<text x="96.75" y="22.5" text-anchor="middle">ObservedChangesVS</text>
</a>
</g>
</g>
<g>
<g transform="translate(462 247.5)">
<rect fill="LightYellow" stroke="Black" stroke-width="1.875" x="0" y="0" width="246" height="52.5" rx="3.75" ry="3.75" />
<text x="123" y="22.5" text-anchor="middle">Size of an abnormality</text>
<text x="123" y="41.25" text-anchor="middle">Quantity</text>
</g>
</g>
<g>
<g transform="translate(462 307.5)">
<rect fill="LightYellow" stroke="Black" stroke-width="1.875" x="0" y="0" width="319.5" height="52.5" rx="3.75" ry="3.75" />
<text x="159.75" y="22.5" text-anchor="middle">Orientation of an abnormality</text>
<text x="159.75" y="41.25" text-anchor="middle">CodeableConcept</text>
</g>
<line stroke="Black" stroke-width="1.875" marker-end="url(#arrowEnd)" x1="811.5" y1="324.375" x2="841.5" y2="324.375" />
<line stroke="Black" stroke-width="1.875" marker-start="url(#arrowStart)" x1="781.5" y1="333.75" x2="811.5" y2="333.75" />
<line stroke="Black" stroke-width="1.875" x1="811.5" y1="324.375" x2="811.5" y2="333.75" />
</g>
<g>
<g transform="translate(841.5 307.5)">
<rect fill="LightGreen" stroke="Black" stroke-width="1.875" x="0" y="0" width="151.49998" height="33.75" rx="3.75" ry="3.75" />
<a href="./ValueSet-OrientationVS.html" target="_top">
<title>'OrientationVS'</title>
<text x="75.74999" y="22.5" text-anchor="middle">OrientationVS</text>
</a>
</g>
</g>
<g>
<g transform="translate(462 367.5)">
<rect fill="LightBlue" stroke="Black" stroke-width="1.875" x="0" y="0" width="183" height="33.75" rx="3.75" ry="3.75" />
<a href="./StructureDefinition-BreastBodyLocationExtension.html" target="_top">
<title>'BreastBodyLocationExtension'</title>
<text x="91.5" y="22.5" text-anchor="middle">Breast Body Loc.</text>
</a>
</g>
</g>
</svg>
