<?xml version="1.0"?>
<!DOCTYPE svg PUBLIC "-//W3C//DTD SVG 1.1//EN" "http://www.w3.org/Graphics/SVG/1.1/DTD/svg11.dtd">
<svg xmlns="http://www.w3.org/2000/svg" version="1.1" width="1115.9999" height="723.75">
<defs>
<marker id="arrowStart" markerWidth="3.75" markerHeight="3.75" markerUnits="px" refX="1.875" refY="1.875">
<circle fill="Black" stroke-width="0" cx="1.875" cy="1.875" r="1.875" />
</marker>
<marker id="arrowEnd" markerWidth="7.5" markerHeight="7.5" markerUnits="px" refX="7.5" refY="3.75">
<polygon fill="Black" stroke-width="0" points="0 0 7.5 3.75 0 7.5" />
</marker>
</defs>
<g>
<g transform="translate(7.5 7.5)">
<rect fill="LightCyan" stroke="Black" stroke-width="1.875" x="0" y="0" width="120" height="33.75" rx="3.75" ry="3.75" />
<a href="./StructureDefinition-MGFinding.html" target="_top">
<title>'MGFinding'</title>
<text x="60" y="22.5" text-anchor="middle">MG Finding</text>
</a>
</g>
<line stroke="Black" stroke-width="1.875" marker-end="url(#arrowEnd)" x1="157.5" y1="24.375" x2="187.5" y2="24.375" />
<line stroke="Black" stroke-width="1.875" marker-start="url(#arrowStart)" x1="127.5" y1="24.375" x2="157.5" y2="24.375" />
<line stroke="Black" stroke-width="1.875" x1="157.5" y1="24.375" x2="157.5" y2="24.375" />
</g>
<g>
<g transform="translate(187.5 7.5)">
<rect fill="White" stroke="Black" stroke-width="1.875" x="0" y="0" width="151.49998" height="33.75" rx="3.75" ry="3.75" />
<text x="75.74999" y="22.5" text-anchor="middle">MG Lymph Node</text>
</g>
<line stroke="Black" stroke-width="1.875" marker-end="url(#arrowEnd)" x1="368.99997" y1="33.75" x2="398.99997" y2="33.75" />
<line stroke="Black" stroke-width="1.875" marker-end="url(#arrowEnd)" x1="368.99997" y1="93.75" x2="398.99997" y2="93.75" />
<line stroke="Black" stroke-width="1.875" marker-end="url(#arrowEnd)" x1="368.99997" y1="153.75" x2="398.99997" y2="153.75" />
<line stroke="Black" stroke-width="1.875" marker-end="url(#arrowEnd)" x1="368.99997" y1="213.75" x2="398.99997" y2="213.75" />
<line stroke="Black" stroke-width="1.875" marker-end="url(#arrowEnd)" x1="368.99997" y1="273.75" x2="398.99997" y2="273.75" />
<line stroke="Black" stroke-width="1.875" marker-end="url(#arrowEnd)" x1="368.99997" y1="333.75" x2="398.99997" y2="333.75" />
<line stroke="Black" stroke-width="1.875" marker-end="url(#arrowEnd)" x1="368.99997" y1="393.75" x2="398.99997" y2="393.75" />
<line stroke="Black" stroke-width="1.875" marker-end="url(#arrowEnd)" x1="368.99997" y1="453.75" x2="398.99997" y2="453.75" />
<line stroke="Black" stroke-width="1.875" marker-end="url(#arrowEnd)" x1="368.99997" y1="513.75" x2="398.99997" y2="513.75" />
<line stroke="Black" stroke-width="1.875" marker-end="url(#arrowEnd)" x1="368.99997" y1="573.75" x2="398.99997" y2="573.75" />
<line stroke="Black" stroke-width="1.875" marker-end="url(#arrowEnd)" x1="368.99997" y1="633.75" x2="398.99997" y2="633.75" />
<line stroke="Black" stroke-width="1.875" marker-end="url(#arrowEnd)" x1="368.99997" y1="684.375" x2="398.99997" y2="684.375" />
<line stroke="Black" stroke-width="1.875" marker-start="url(#arrowStart)" x1="338.99997" y1="24.375" x2="368.99997" y2="24.375" />
<line stroke="Black" stroke-width="1.875" x1="368.99997" y1="24.375" x2="368.99997" y2="684.375" />
</g>
<g>
<g transform="translate(398.99997 7.5)">
<rect fill="LightCyan" stroke="Black" stroke-width="1.875" x="0" y="0" width="151.49998" height="52.5" rx="3.75" ry="3.75" />
<a href="./StructureDefinition-MGAssociatedFeatures.html" target="_top">
<title>'MGAssociatedFeatures'</title>
<text x="75.74999" y="22.5" text-anchor="middle">MG Associated</text>
</a>
<a href="./StructureDefinition-MGAssociatedFeatures.html" target="_top">
<title>'MGAssociatedFeatures'</title>
<text x="75.74999" y="41.25" text-anchor="middle">Features</text>
</a>
</g>
</g>
<g>
<g transform="translate(398.99997 67.5)">
<rect fill="LightYellow" stroke="Black" stroke-width="1.875" x="0" y="0" width="309" height="52.5" rx="3.75" ry="3.75" />
<text x="154.5" y="22.5" text-anchor="middle">MG AbnormalityAsymmetry Type</text>
<text x="154.5" y="41.25" text-anchor="middle">CodeableConcept</text>
</g>
<line stroke="Black" stroke-width="1.875" marker-end="url(#arrowEnd)" x1="737.99994" y1="84.375" x2="767.99994" y2="84.375" />
<line stroke="Black" stroke-width="1.875" marker-start="url(#arrowStart)" x1="707.99994" y1="93.75" x2="737.99994" y2="93.75" />
<line stroke="Black" stroke-width="1.875" x1="737.99994" y1="84.375" x2="737.99994" y2="93.75" />
</g>
<g>
<g transform="translate(767.99994 67.5)">
<rect fill="LightGreen" stroke="Black" stroke-width="1.875" x="0" y="0" width="267" height="33.75" rx="3.75" ry="3.75" />
<a href="./ValueSet-MGAbnormalityLymphNodeVS.html" target="_top">
<title>'MGAbnormalityLymphNodeVS'</title>
<text x="133.5" y="22.5" text-anchor="middle">MGAbnormalityLymphNodeVS</text>
</a>
</g>
</g>
<g>
<g transform="translate(398.99997 127.5)">
<rect fill="LightYellow" stroke="Black" stroke-width="1.875" x="0" y="0" width="162" height="52.5" rx="3.75" ry="3.75" />
<text x="81" y="22.5" text-anchor="middle">Observed Count</text>
<text x="81" y="41.25" text-anchor="middle">Quantity</text>
</g>
</g>
<g>
<g transform="translate(398.99997 187.5)">
<rect fill="LightYellow" stroke="Black" stroke-width="1.875" x="0" y="0" width="287.99997" height="52.5" rx="3.75" ry="3.75" />
<text x="143.99998" y="22.5" text-anchor="middle">BiRads Assessment Category</text>
<text x="143.99998" y="41.25" text-anchor="middle">CodeableConcept</text>
</g>
<line stroke="Black" stroke-width="1.875" marker-end="url(#arrowEnd)" x1="716.99994" y1="204.375" x2="746.99994" y2="204.375" />
<line stroke="Black" stroke-width="1.875" marker-start="url(#arrowStart)" x1="686.99994" y1="213.75" x2="716.99994" y2="213.75" />
<line stroke="Black" stroke-width="1.875" x1="716.99994" y1="204.375" x2="716.99994" y2="213.75" />
</g>
<g>
<g transform="translate(746.99994 187.5)">
<rect fill="LightGreen" stroke="Black" stroke-width="1.875" x="0" y="0" width="309" height="33.75" rx="3.75" ry="3.75" />
<a href="./ValueSet-BiRadsAssessmentCategoriesVS.html" target="_top">
<title>'BiRadsAssessmentCategoriesVS'</title>
<text x="154.5" y="22.5" text-anchor="middle">BiRadsAssessmentCategoriesVS</text>
</a>
</g>
</g>
<g>
<g transform="translate(398.99997 247.5)">
<rect fill="LightYellow" stroke="Black" stroke-width="1.875" x="0" y="0" width="330" height="52.5" rx="3.75" ry="3.75" />
<text x="165" y="22.5" text-anchor="middle">Observed Change In Abnormality</text>
<text x="165" y="41.25" text-anchor="middle">CodeableConcept</text>
</g>
<line stroke="Black" stroke-width="1.875" marker-end="url(#arrowEnd)" x1="759" y1="264.375" x2="789" y2="264.375" />
<line stroke="Black" stroke-width="1.875" marker-start="url(#arrowStart)" x1="729" y1="273.75" x2="759" y2="273.75" />
<line stroke="Black" stroke-width="1.875" x1="759" y1="264.375" x2="759" y2="273.75" />
</g>
<g>
<g transform="translate(789 247.5)">
<rect fill="LightGreen" stroke="Black" stroke-width="1.875" x="0" y="0" width="193.5" height="33.75" rx="3.75" ry="3.75" />
<a href="./ValueSet-ObservedChangesVS.html" target="_top">
<title>'ObservedChangesVS'</title>
<text x="96.75" y="22.5" text-anchor="middle">ObservedChangesVS</text>
</a>
</g>
</g>
<g>
<g transform="translate(398.99997 307.5)">
<rect fill="LightYellow" stroke="Black" stroke-width="1.875" x="0" y="0" width="246" height="52.5" rx="3.75" ry="3.75" />
<text x="123" y="22.5" text-anchor="middle">Size of an abnormality</text>
<text x="123" y="41.25" text-anchor="middle">Quantity</text>
</g>
</g>
<g>
<g transform="translate(398.99997 367.5)">
<rect fill="LightYellow" stroke="Black" stroke-width="1.875" x="0" y="0" width="319.5" height="52.5" rx="3.75" ry="3.75" />
<text x="159.75" y="22.5" text-anchor="middle">Orientation of an abnormality</text>
<text x="159.75" y="41.25" text-anchor="middle">CodeableConcept</text>
</g>
<line stroke="Black" stroke-width="1.875" marker-end="url(#arrowEnd)" x1="748.49994" y1="384.375" x2="778.49994" y2="384.375" />
<line stroke="Black" stroke-width="1.875" marker-start="url(#arrowStart)" x1="718.49994" y1="393.75" x2="748.49994" y2="393.75" />
<line stroke="Black" stroke-width="1.875" x1="748.49994" y1="384.375" x2="748.49994" y2="393.75" />
</g>
<g>
<g transform="translate(778.49994 367.5)">
<rect fill="LightGreen" stroke="Black" stroke-width="1.875" x="0" y="0" width="151.49998" height="33.75" rx="3.75" ry="3.75" />
<a href="./ValueSet-OrientationVS.html" target="_top">
<title>'OrientationVS'</title>
<text x="75.74999" y="22.5" text-anchor="middle">OrientationVS</text>
</a>
</g>
</g>
<g>
<g transform="translate(398.99997 427.5)">
<rect fill="LightYellow" stroke="Black" stroke-width="1.875" x="0" y="0" width="172.5" height="52.5" rx="3.75" ry="3.75" />
<text x="86.25" y="22.5" text-anchor="middle">Orientation</text>
<text x="86.25" y="41.25" text-anchor="middle">CodeableConcept</text>
</g>
<line stroke="Black" stroke-width="1.875" marker-end="url(#arrowEnd)" x1="601.5" y1="444.375" x2="631.5" y2="444.375" />
<line stroke="Black" stroke-width="1.875" marker-start="url(#arrowStart)" x1="571.5" y1="453.75" x2="601.5" y2="453.75" />
<line stroke="Black" stroke-width="1.875" x1="601.5" y1="444.375" x2="601.5" y2="453.75" />
</g>
<g>
<g transform="translate(631.5 427.5)">
<rect fill="LightGreen" stroke="Black" stroke-width="1.875" x="0" y="0" width="151.49998" height="33.75" rx="3.75" ry="3.75" />
<a href="./ValueSet-OrientationVS.html" target="_top">
<title>'OrientationVS'</title>
<text x="75.74999" y="22.5" text-anchor="middle">OrientationVS</text>
</a>
</g>
</g>
<g>
<g transform="translate(398.99997 487.5)">
<rect fill="LightYellow" stroke="Black" stroke-width="1.875" x="0" y="0" width="172.5" height="52.5" rx="3.75" ry="3.75" />
<text x="86.25" y="22.5" text-anchor="middle">Shape</text>
<text x="86.25" y="41.25" text-anchor="middle">CodeableConcept</text>
</g>
<line stroke="Black" stroke-width="1.875" marker-end="url(#arrowEnd)" x1="601.5" y1="504.375" x2="631.5" y2="504.375" />
<line stroke="Black" stroke-width="1.875" marker-start="url(#arrowStart)" x1="571.5" y1="513.75" x2="601.5" y2="513.75" />
<line stroke="Black" stroke-width="1.875" x1="601.5" y1="504.375" x2="601.5" y2="513.75" />
</g>
<g>
<g transform="translate(631.5 487.5)">
<rect fill="LightGreen" stroke="Black" stroke-width="1.875" x="0" y="0" width="88.5" height="33.75" rx="3.75" ry="3.75" />
<a href="./ValueSet-ShapeVS.html" target="_top">
<title>'ShapeVS'</title>
<text x="44.25" y="22.5" text-anchor="middle">ShapeVS</text>
</a>
</g>
</g>
<g>
<g transform="translate(398.99997 547.5)">
<rect fill="LightYellow" stroke="Black" stroke-width="1.875" x="0" y="0" width="172.5" height="52.5" rx="3.75" ry="3.75" />
<text x="86.25" y="22.5" text-anchor="middle">Margin</text>
<text x="86.25" y="41.25" text-anchor="middle">CodeableConcept</text>
</g>
<line stroke="Black" stroke-width="1.875" marker-end="url(#arrowEnd)" x1="601.5" y1="564.375" x2="631.5" y2="564.375" />
<line stroke="Black" stroke-width="1.875" marker-start="url(#arrowStart)" x1="571.5" y1="573.75" x2="601.5" y2="573.75" />
<line stroke="Black" stroke-width="1.875" x1="601.5" y1="564.375" x2="601.5" y2="573.75" />
</g>
<g>
<g transform="translate(631.5 547.5)">
<rect fill="LightGreen" stroke="Black" stroke-width="1.875" x="0" y="0" width="99" height="33.75" rx="3.75" ry="3.75" />
<a href="./ValueSet-MarginVS.html" target="_top">
<title>'MarginVS'</title>
<text x="49.5" y="22.5" text-anchor="middle">MarginVS</text>
</a>
</g>
</g>
<g>
<g transform="translate(398.99997 607.5)">
<rect fill="LightYellow" stroke="Black" stroke-width="1.875" x="0" y="0" width="172.5" height="52.5" rx="3.75" ry="3.75" />
<text x="86.25" y="22.5" text-anchor="middle">Density</text>
<text x="86.25" y="41.25" text-anchor="middle">CodeableConcept</text>
</g>
<line stroke="Black" stroke-width="1.875" marker-end="url(#arrowEnd)" x1="601.5" y1="624.375" x2="631.5" y2="624.375" />
<line stroke="Black" stroke-width="1.875" marker-start="url(#arrowStart)" x1="571.5" y1="633.75" x2="601.5" y2="633.75" />
<line stroke="Black" stroke-width="1.875" x1="601.5" y1="624.375" x2="601.5" y2="633.75" />
</g>
<g>
<g transform="translate(631.5 607.5)">
<rect fill="LightGreen" stroke="Black" stroke-width="1.875" x="0" y="0" width="130.5" height="33.75" rx="3.75" ry="3.75" />
<a href="./ValueSet-MGDensityVS.html" target="_top">
<title>'MGDensityVS'</title>
<text x="65.25" y="22.5" text-anchor="middle">MGDensityVS</text>
</a>
</g>
</g>
<g>
<g transform="translate(398.99997 667.5)">
<rect fill="LightBlue" stroke="Black" stroke-width="1.875" x="0" y="0" width="183" height="33.75" rx="3.75" ry="3.75" />
<a href="./StructureDefinition-BreastBodyLocationExtension.html" target="_top">
<title>'BreastBodyLocationExtension'</title>
<text x="91.5" y="22.5" text-anchor="middle">Breast Body Loc.</text>
</a>
</g>
</g>
</svg>
