<?xml version="1.0"?>
<!DOCTYPE svg PUBLIC "-//W3C//DTD SVG 1.1//EN" "http://www.w3.org/Graphics/SVG/1.1/DTD/svg11.dtd">
<svg xmlns="http://www.w3.org/2000/svg" version="1.1" width="767.99994" height="1050">
<defs>
<marker id="arrowStart" markerWidth="3.75" markerHeight="3.75" markerUnits="px" refX="1.875" refY="1.875">
<circle fill="Black" stroke-width="0" cx="1.875" cy="1.875" r="1.875" />
</marker>
<marker id="arrowEnd" markerWidth="7.5" markerHeight="7.5" markerUnits="px" refX="7.5" refY="3.75">
<polygon fill="Black" stroke-width="0" points="0 0 7.5 3.75 0 7.5" />
</marker>
</defs>
<g>
<g transform="translate(7.5 7.5)">
<rect fill="LightCyan" stroke="Black" stroke-width="1.875" x="0" y="0" width="120" height="33.75" rx="3.75" ry="3.75" />
<a href="./StructureDefinition-MGFinding.html" target="_blank">
<title>'MGFinding'</title>
<text x="60" y="22.5" text-anchor="middle">MG Finding</text>
</a>
</g>
<line stroke="Black" stroke-width="1.875" marker-end="url(#arrowEnd)" x1="157.5" y1="24.375" x2="187.5" y2="24.375" />
<line stroke="Black" stroke-width="1.875" marker-start="url(#arrowStart)" x1="127.5" y1="24.375" x2="157.5" y2="24.375" />
<line stroke="Black" stroke-width="1.875" x1="157.5" y1="24.375" x2="157.5" y2="24.375" />
</g>
<g>
<g transform="translate(187.5 7.5)">
<rect fill="White" stroke="Black" stroke-width="1.875" x="0" y="0" width="151.49998" height="33.75" rx="3.75" ry="3.75" />
<text x="75.74999" y="22.5" text-anchor="middle">MG Lymph Node</text>
</g>
<line stroke="Black" stroke-width="1.875" marker-end="url(#arrowEnd)" x1="368.99997" y1="43.125" x2="398.99997" y2="43.125" />
<line stroke="Black" stroke-width="1.875" marker-end="url(#arrowEnd)" x1="368.99997" y1="112.5" x2="398.99997" y2="112.5" />
<line stroke="Black" stroke-width="1.875" marker-end="url(#arrowEnd)" x1="368.99997" y1="181.875" x2="398.99997" y2="181.875" />
<line stroke="Black" stroke-width="1.875" marker-end="url(#arrowEnd)" x1="368.99997" y1="260.625" x2="398.99997" y2="260.625" />
<line stroke="Black" stroke-width="1.875" marker-end="url(#arrowEnd)" x1="368.99997" y1="339.375" x2="398.99997" y2="339.375" />
<line stroke="Black" stroke-width="1.875" marker-end="url(#arrowEnd)" x1="368.99997" y1="418.125" x2="398.99997" y2="418.125" />
<line stroke="Black" stroke-width="1.875" marker-end="url(#arrowEnd)" x1="368.99997" y1="496.875" x2="398.99997" y2="496.875" />
<line stroke="Black" stroke-width="1.875" marker-end="url(#arrowEnd)" x1="368.99997" y1="575.625" x2="398.99997" y2="575.625" />
<line stroke="Black" stroke-width="1.875" marker-end="url(#arrowEnd)" x1="368.99997" y1="645" x2="398.99997" y2="645" />
<line stroke="Black" stroke-width="1.875" marker-end="url(#arrowEnd)" x1="368.99997" y1="714.375" x2="398.99997" y2="714.375" />
<line stroke="Black" stroke-width="1.875" marker-end="url(#arrowEnd)" x1="368.99997" y1="774.375" x2="398.99997" y2="774.375" />
<line stroke="Black" stroke-width="1.875" marker-end="url(#arrowEnd)" x1="368.99997" y1="834.375" x2="398.99997" y2="834.375" />
<line stroke="Black" stroke-width="1.875" marker-end="url(#arrowEnd)" x1="368.99997" y1="913.125" x2="398.99997" y2="913.125" />
<line stroke="Black" stroke-width="1.875" marker-end="url(#arrowEnd)" x1="368.99997" y1="991.875" x2="398.99997" y2="991.875" />
<line stroke="Black" stroke-width="1.875" marker-start="url(#arrowStart)" x1="338.99997" y1="24.375" x2="368.99997" y2="24.375" />
<line stroke="Black" stroke-width="1.875" x1="368.99997" y1="24.375" x2="368.99997" y2="991.875" />
</g>
<g>
<g transform="translate(398.99997 7.5)">
<rect fill="LightYellow" stroke="Black" stroke-width="1.875" x="0" y="0" width="309" height="71.25" rx="3.75" ry="3.75" />
<text x="154.5" y="22.5" text-anchor="middle">MG AbnormalityAsymmetry Type</text>
<text x="154.5" y="41.25" text-anchor="middle">CodeableConcept</text>
<a href="./ValueSet-MGAbnormalityLymphNodeVS.html" target="_blank">
<title>'MGAbnormalityLymphNodeVS'</title>
<text x="154.5" y="60" text-anchor="middle">MGAbnormalityLymphNodeVS</text>
</a>
</g>
<g transform="translate(398.99997 86.25)">
<rect fill="LightYellow" stroke="Black" stroke-width="1.875" x="0" y="0" width="162" height="52.5" rx="3.75" ry="3.75" />
<text x="81" y="22.5" text-anchor="middle">Observed Count</text>
<text x="81" y="41.25" text-anchor="middle">Quantity</text>
</g>
<g transform="translate(398.99997 146.25)">
<rect fill="LightYellow" stroke="Black" stroke-width="1.875" x="0" y="0" width="309" height="71.25" rx="3.75" ry="3.75" />
<text x="154.5" y="22.5" text-anchor="middle">BiRads Assessment Category</text>
<text x="154.5" y="41.25" text-anchor="middle">CodeableConcept</text>
<a href="./ValueSet-BiRadsAssessmentCategoriesVS.html" target="_blank">
<title>'BiRadsAssessmentCategoriesVS'</title>
<text x="154.5" y="60" text-anchor="middle">BiRadsAssessmentCategoriesVS</text>
</a>
</g>
<g transform="translate(398.99997 225)">
<rect fill="LightYellow" stroke="Black" stroke-width="1.875" x="0" y="0" width="309" height="71.25" rx="3.75" ry="3.75" />
<text x="154.5" y="22.5" text-anchor="middle">Change In Definition</text>
<text x="154.5" y="41.25" text-anchor="middle">CodeableConcept</text>
<a href="./ValueSet-ObservedChangeInDefinitionVS.html" target="_blank">
<title>'ObservedChangeInDefinitionVS'</title>
<text x="154.5" y="60" text-anchor="middle">ObservedChangeInDefinitionVS</text>
</a>
</g>
<g transform="translate(398.99997 303.75)">
<rect fill="LightYellow" stroke="Black" stroke-width="1.875" x="0" y="0" width="267" height="71.25" rx="3.75" ry="3.75" />
<text x="133.5" y="22.5" text-anchor="middle">Change In Number</text>
<text x="133.5" y="41.25" text-anchor="middle">CodeableConcept</text>
<a href="./ValueSet-ObservedChangeInNumberVS.html" target="_blank">
<title>'ObservedChangeInNumberVS'</title>
<text x="133.5" y="60" text-anchor="middle">ObservedChangeInNumberVS</text>
</a>
</g>
<g transform="translate(398.99997 382.5)">
<rect fill="LightYellow" stroke="Black" stroke-width="1.875" x="0" y="0" width="309" height="71.25" rx="3.75" ry="3.75" />
<text x="154.5" y="22.5" text-anchor="middle">Change In Prominance</text>
<text x="154.5" y="41.25" text-anchor="middle">CodeableConcept</text>
<a href="./ValueSet-ObservedChangeInProminanceVS.html" target="_blank">
<title>'ObservedChangeInProminanceVS'</title>
<text x="154.5" y="60" text-anchor="middle">ObservedChangeInProminanceVS</text>
</a>
</g>
<g transform="translate(398.99997 461.25)">
<rect fill="LightYellow" stroke="Black" stroke-width="1.875" x="0" y="0" width="246" height="71.25" rx="3.75" ry="3.75" />
<text x="123" y="22.5" text-anchor="middle">Change In Size</text>
<text x="123" y="41.25" text-anchor="middle">CodeableConcept</text>
<a href="./ValueSet-ObservedChangeInSizeVS.html" target="_blank">
<title>'ObservedChangeInSizeVS'</title>
<text x="123" y="60" text-anchor="middle">ObservedChangeInSizeVS</text>
</a>
</g>
<g transform="translate(398.99997 540)">
<rect fill="LightYellow" stroke="Black" stroke-width="1.875" x="0" y="0" width="256.5" height="71.25" rx="3.75" ry="3.75" />
<text x="128.25" y="22.5" text-anchor="middle">Change In State</text>
<text x="128.25" y="41.25" text-anchor="middle">CodeableConcept</text>
<a href="./ValueSet-ObservedChangeInStateVS.html" target="_blank">
<title>'ObservedChangeInStateVS'</title>
<text x="128.25" y="60" text-anchor="middle">ObservedChangeInStateVS</text>
</a>
</g>
<g transform="translate(398.99997 618.75)">
<rect fill="LightYellow" stroke="Black" stroke-width="1.875" x="0" y="0" width="99" height="52.5" rx="3.75" ry="3.75" />
<text x="49.5" y="22.5" text-anchor="middle">Size</text>
<text x="49.5" y="41.25" text-anchor="middle">Quantity</text>
</g>
<g transform="translate(398.99997 678.75)">
<rect fill="LightYellow" stroke="Black" stroke-width="1.875" x="0" y="0" width="172.5" height="71.25" rx="3.75" ry="3.75" />
<text x="86.25" y="22.5" text-anchor="middle">Orientation</text>
<text x="86.25" y="41.25" text-anchor="middle">CodeableConcept</text>
<a href="./ValueSet-OrientationVS.html" target="_blank">
<title>'OrientationVS'</title>
<text x="86.25" y="60" text-anchor="middle">OrientationVS</text>
</a>
</g>
<g transform="translate(398.99997 757.5)">
<rect fill="LightBlue" stroke="Black" stroke-width="1.875" x="0" y="0" width="183" height="33.75" rx="3.75" ry="3.75" />
<a href="./StructureDefinition-BreastBodyLocationExtension.html" target="_blank">
<title>'BreastBodyLocationExtension'</title>
<text x="91.5" y="22.5" text-anchor="middle">Breast Body Loc.</text>
</a>
</g>
<g transform="translate(398.99997 798.75)">
<rect fill="LightYellow" stroke="Black" stroke-width="1.875" x="0" y="0" width="172.5" height="71.25" rx="3.75" ry="3.75" />
<text x="86.25" y="22.5" text-anchor="middle">Shape</text>
<text x="86.25" y="41.25" text-anchor="middle">CodeableConcept</text>
<a href="./ValueSet-ShapeVS.html" target="_blank">
<title>'ShapeVS'</title>
<text x="86.25" y="60" text-anchor="middle">ShapeVS</text>
</a>
</g>
<g transform="translate(398.99997 877.5)">
<rect fill="LightYellow" stroke="Black" stroke-width="1.875" x="0" y="0" width="172.5" height="71.25" rx="3.75" ry="3.75" />
<text x="86.25" y="22.5" text-anchor="middle">Margin</text>
<text x="86.25" y="41.25" text-anchor="middle">CodeableConcept</text>
<a href="./ValueSet-MarginVS.html" target="_blank">
<title>'MarginVS'</title>
<text x="86.25" y="60" text-anchor="middle">MarginVS</text>
</a>
</g>
<g transform="translate(398.99997 956.25)">
<rect fill="LightYellow" stroke="Black" stroke-width="1.875" x="0" y="0" width="172.5" height="71.25" rx="3.75" ry="3.75" />
<text x="86.25" y="22.5" text-anchor="middle">Density</text>
<text x="86.25" y="41.25" text-anchor="middle">CodeableConcept</text>
<a href="./ValueSet-MGDensityVS.html" target="_blank">
<title>'MGDensityVS'</title>
<text x="86.25" y="60" text-anchor="middle">MGDensityVS</text>
</a>
</g>
</g>
</svg>
