<?xml version="1.0"?>
<!DOCTYPE svg PUBLIC "-//W3C//DTD SVG 1.1//EN" "http://www.w3.org/Graphics/SVG/1.1/DTD/svg11.dtd">
<svg xmlns="http://www.w3.org/2000/svg" version="1.1" width="505.49994" height="468.75">
<defs>
<marker id="arrowStart" markerWidth="3.75" markerHeight="3.75" markerUnits="px" refX="1.875" refY="1.875">
<circle fill="Black" stroke-width="0" cx="1.875" cy="1.875" r="1.875" />
</marker>
<marker id="arrowEnd" markerWidth="7.5" markerHeight="7.5" markerUnits="px" refX="7.5" refY="3.75">
<polygon fill="Black" stroke-width="0" points="0 0 7.5 3.75 0 7.5" />
</marker>
</defs>
<g>
<g>
<rect fill="LightBlue" stroke="Black" stroke-width="1.875" x="7.5" y="7.5" width="120" height="52.5" rx="3.75" ry="3.75" />
<a href="./StructureDefinition-BreastRadUltraSoundFinding.html" target="_blank">
<title>'BreastRadUltraSoundFinding'</title>
<text x="15" y="30">UltraSound</text>
</a>
<a href="./StructureDefinition-BreastRadUltraSoundFinding.html" target="_blank">
<title>'BreastRadUltraSoundFinding'</title>
<text x="15" y="48.75">Finding</text>
</a>
</g>
<line stroke="Black" stroke-width="1.875" marker-end="url(#arrowEnd)" x1="157.5" y1="24.375" x2="187.5" y2="24.375" />
<line stroke="Black" stroke-width="1.875" marker-start="url(#arrowStart)" x1="127.5" y1="33.75" x2="157.5" y2="33.75" />
<line stroke="Black" stroke-width="1.875" x1="157.5" y1="24.375" x2="157.5" y2="33.75" />
</g>
<g>
<g>
<rect fill="LightGreen" stroke="Black" stroke-width="1.875" x="187.5" y="7.5" width="57" height="33.75" rx="3.75" ry="3.75" />
<text x="195" y="30">Mass</text>
</g>
<line stroke="Black" stroke-width="1.875" marker-end="url(#arrowEnd)" x1="274.5" y1="43.125" x2="304.5" y2="43.125" />
<line stroke="Black" stroke-width="1.875" marker-end="url(#arrowEnd)" x1="274.5" y1="103.125" x2="304.5" y2="103.125" />
<line stroke="Black" stroke-width="1.875" marker-end="url(#arrowEnd)" x1="274.5" y1="144.375" x2="304.5" y2="144.375" />
<line stroke="Black" stroke-width="1.875" marker-end="url(#arrowEnd)" x1="274.5" y1="185.625" x2="304.5" y2="185.625" />
<line stroke="Black" stroke-width="1.875" marker-end="url(#arrowEnd)" x1="274.5" y1="226.875" x2="304.5" y2="226.875" />
<line stroke="Black" stroke-width="1.875" marker-end="url(#arrowEnd)" x1="274.5" y1="268.125" x2="304.5" y2="268.125" />
<line stroke="Black" stroke-width="1.875" marker-end="url(#arrowEnd)" x1="274.5" y1="328.125" x2="304.5" y2="328.125" />
<line stroke="Black" stroke-width="1.875" marker-end="url(#arrowEnd)" x1="274.5" y1="388.125" x2="304.5" y2="388.125" />
<line stroke="Black" stroke-width="1.875" marker-end="url(#arrowEnd)" x1="274.5" y1="429.375" x2="304.5" y2="429.375" />
<line stroke="Black" stroke-width="1.875" marker-start="url(#arrowStart)" x1="244.49998" y1="24.375" x2="274.5" y2="24.375" />
<line stroke="Black" stroke-width="1.875" x1="274.5" y1="24.375" x2="274.5" y2="429.375" />
</g>
<g>
<g>
<rect fill="LightSalmon" stroke="Black" stroke-width="1.875" x="304.5" y="7.5" width="99" height="71.25" rx="3.75" ry="3.75" />
<a href="./StructureDefinition-BreastBodyLocation.html" target="_blank">
<title>'BreastBodyLocation'</title>
<text x="312" y="30">Breast</text>
</a>
<a href="./StructureDefinition-BreastBodyLocation.html" target="_blank">
<title>'BreastBodyLocation'</title>
<text x="312" y="48.75">Body</text>
</a>
<a href="./StructureDefinition-BreastBodyLocation.html" target="_blank">
<title>'BreastBodyLocation'</title>
<text x="312" y="67.5">Location</text>
</a>
</g>
<g>
<rect fill="LightSalmon" stroke="Black" stroke-width="1.875" x="304.5" y="86.25" width="57" height="33.75" rx="3.75" ry="3.75" />
<a href="./StructureDefinition-BreastRadMassSize.html" target="_blank">
<title>'BreastRadMassSize'</title>
<text x="312" y="108.75">Size</text>
</a>
</g>
<g>
<rect fill="LightSalmon" stroke="Black" stroke-width="1.875" x="304.5" y="127.5" width="67.5" height="33.75" rx="3.75" ry="3.75" />
<a href="./StructureDefinition-BreastRadMassShape.html" target="_blank">
<title>'BreastRadMassShape'</title>
<text x="312" y="150">Shape</text>
</a>
</g>
<g>
<rect fill="LightSalmon" stroke="Black" stroke-width="1.875" x="304.5" y="168.75" width="130.5" height="33.75" rx="3.75" ry="3.75" />
<a href="./StructureDefinition-BreastRadUSMassOrientation.html" target="_blank">
<title>'BreastRadUSMassOrientation'</title>
<text x="312" y="191.25">Orientation</text>
</a>
</g>
<g>
<rect fill="LightSalmon" stroke="Black" stroke-width="1.875" x="304.5" y="210" width="78" height="33.75" rx="3.75" ry="3.75" />
<a href="./StructureDefinition-BreastRadUSMassMargin.html" target="_blank">
<title>'BreastRadUSMassMargin'</title>
<text x="312" y="232.5">Margin</text>
</a>
</g>
<g>
<rect fill="LightSalmon" stroke="Black" stroke-width="1.875" x="304.5" y="251.25" width="141" height="33.75" rx="3.75" ry="3.75" />
<a href="./StructureDefinition-BreastRadUSMassEchoPattern.html" target="_blank">
<title>'BreastRadUSMassEchoPattern'</title>
<text x="312" y="273.75">Echo Pattern</text>
</a>
</g>
<g>
<rect fill="LightSalmon" stroke="Black" stroke-width="1.875" x="304.5" y="292.5" width="109.49999" height="71.25" rx="3.75" ry="3.75" />
<a href="./StructureDefinition-BreastRadUSMassPosteriorAcousticFeatures.html" target="_blank">
<title>'BreastRadUSMassPosteriorAcousticFeatures'</title>
<text x="312" y="315">Posterior</text>
</a>
<a href="./StructureDefinition-BreastRadUSMassPosteriorAcousticFeatures.html" target="_blank">
<title>'BreastRadUSMassPosteriorAcousticFeatures'</title>
<text x="312" y="333.75">Acoustic</text>
</a>
<a href="./StructureDefinition-BreastRadUSMassPosteriorAcousticFeatures.html" target="_blank">
<title>'BreastRadUSMassPosteriorAcousticFeatures'</title>
<text x="312" y="352.5">Features</text>
</a>
</g>
<g>
<rect fill="LightSalmon" stroke="Black" stroke-width="1.875" x="304.5" y="371.25" width="88.5" height="33.75" rx="3.75" ry="3.75" />
<a href="./StructureDefinition-BreastRadObservedChanges.html" target="_blank">
<title>'BreastRadObservedChanges'</title>
<text x="312" y="393.75">Changes</text>
</a>
</g>
<g>
<rect fill="LightSalmon" stroke="Black" stroke-width="1.875" x="304.5" y="412.5" width="67.5" height="33.75" rx="3.75" ry="3.75" />
<a href="./StructureDefinition-BreastRadObservedState.html" target="_blank">
<title>'BreastRadObservedState'</title>
<text x="312" y="435">State</text>
</a>
</g>
</g>
</svg>
