<?xml version="1.0"?>
<!DOCTYPE svg PUBLIC "-//W3C//DTD SVG 1.1//EN" "http://www.w3.org/Graphics/SVG/1.1/DTD/svg11.dtd">
<svg xmlns="http://www.w3.org/2000/svg" version="1.1" width="673.5" height="63.75">
<defs>
<marker id="arrowStart" markerWidth="3.75" markerHeight="3.75" markerUnits="px" refX="1.875" refY="1.875">
<circle fill="Black" stroke-width="0" cx="1.875" cy="1.875" r="1.875" />
</marker>
<marker id="arrowEnd" markerWidth="7.5" markerHeight="7.5" markerUnits="px" refX="7.5" refY="3.75">
<polygon fill="Black" stroke-width="0" points="0 0 7.5 3.75 0 7.5" />
</marker>
</defs>
<g>
<g transform="translate(7.5 7.5)">
<rect fill="LightBlue" stroke="Black" stroke-width="1.875" x="0" y="0" width="99" height="33.75" rx="3.75" ry="3.75" />
<a href="./StructureDefinition-BreastRadMammoAbnormalityCalcification.html" target="_blank">
<title>'BreastRadMammoAbnormalityCalcification'</title>
<text x="49.5" y="22.5" text-anchor="middle">Mg Calc.</text>
</a>
</g>
<line stroke="Black" stroke-width="1.875" marker-end="url(#arrowEnd)" x1="136.5" y1="24.375" x2="166.5" y2="24.375" />
<line stroke="Black" stroke-width="1.875" marker-start="url(#arrowStart)" x1="106.5" y1="24.375" x2="136.5" y2="24.375" />
<line stroke="Black" stroke-width="1.875" x1="136.5" y1="24.375" x2="136.5" y2="24.375" />
</g>
<g>
<g transform="translate(166.5 7.5)">
<rect fill="LightGreen" stroke="Black" stroke-width="1.875" x="0" y="0" width="151.49998" height="33.75" rx="3.75" ry="3.75" />
<text x="75.74999" y="22.5" text-anchor="middle">Mg Calc. Type</text>
</g>
<line stroke="Black" stroke-width="1.875" marker-end="url(#arrowEnd)" x1="348" y1="24.375" x2="378" y2="24.375" />
<line stroke="Black" stroke-width="1.875" marker-start="url(#arrowStart)" x1="318" y1="24.375" x2="348" y2="24.375" />
<line stroke="Black" stroke-width="1.875" x1="348" y1="24.375" x2="348" y2="24.375" />
</g>
<g>
<g transform="translate(378 7.5)">
<rect fill="LightSalmon" stroke="Black" stroke-width="1.875" x="0" y="0" width="235.5" height="33.75" rx="3.75" ry="3.75" />
<a href="./ValueSet-MammoCalcificationTypeVS.html" target="_blank">
<title>'MammoCalcificationTypeVS'</title>
<text x="117.75" y="22.5" text-anchor="middle">MG Calc. TypeValueSet</text>
</a>
</g>
</g>
</svg>
