<?xml version="1.0"?>
<!DOCTYPE svg PUBLIC "-//W3C//DTD SVG 1.1//EN" "http://www.w3.org/Graphics/SVG/1.1/DTD/svg11.dtd">
<svg xmlns="http://www.w3.org/2000/svg" version="1.1" width="705" height="453.75">
<defs>
<marker id="arrowStart" markerWidth="3.75" markerHeight="3.75" markerUnits="px" refX="1.875" refY="1.875">
<circle fill="Black" stroke-width="0" cx="1.875" cy="1.875" r="1.875" />
</marker>
<marker id="arrowEnd" markerWidth="7.5" markerHeight="7.5" markerUnits="px" refX="7.5" refY="3.75">
<polygon fill="Black" stroke-width="0" points="0 0 7.5 3.75 0 7.5" />
</marker>
</defs>
<g>
<g>
<rect fill="LightBlue" stroke="Black" stroke-width="1.875" x="7.5" y="7.5" width="120" height="33.75" rx="3.75" ry="3.75" />
<a href="./StructureDefinition-BreastRadMammoFinding.html" target="_blank">
<title>'BreastRadMammoFinding'</title>
<text x="15" y="30">Mg Finding</text>
</a>
</g>
<line stroke="Black" stroke-width="1.875" marker-end="url(#arrowEnd)" x1="157.5" y1="24.375" x2="187.5" y2="24.375" />
<line stroke="Black" stroke-width="1.875" marker-start="url(#arrowStart)" x1="127.5" y1="24.375" x2="157.5" y2="24.375" />
<line stroke="Black" stroke-width="1.875" x1="157.5" y1="24.375" x2="157.5" y2="24.375" />
</g>
<g>
<g>
<rect fill="LightGreen" stroke="Black" stroke-width="1.875" x="187.5" y="7.5" width="214.5" height="33.75" rx="3.75" ry="3.75" />
<text x="195" y="30">Mg Duct Abnormality</text>
</g>
<line stroke="Black" stroke-width="1.875" marker-end="url(#arrowEnd)" x1="432" y1="33.75" x2="462" y2="33.75" />
<line stroke="Black" stroke-width="1.875" marker-end="url(#arrowEnd)" x1="432" y1="84.375" x2="462" y2="84.375" />
<line stroke="Black" stroke-width="1.875" marker-end="url(#arrowEnd)" x1="432" y1="125.625" x2="462" y2="125.625" />
<line stroke="Black" stroke-width="1.875" marker-end="url(#arrowEnd)" x1="432" y1="166.875" x2="462" y2="166.875" />
<line stroke="Black" stroke-width="1.875" marker-end="url(#arrowEnd)" x1="432" y1="208.125" x2="462" y2="208.125" />
<line stroke="Black" stroke-width="1.875" marker-end="url(#arrowEnd)" x1="432" y1="249.375" x2="462" y2="249.375" />
<line stroke="Black" stroke-width="1.875" marker-end="url(#arrowEnd)" x1="432" y1="290.625" x2="462" y2="290.625" />
<line stroke="Black" stroke-width="1.875" marker-end="url(#arrowEnd)" x1="432" y1="331.875" x2="462" y2="331.875" />
<line stroke="Black" stroke-width="1.875" marker-end="url(#arrowEnd)" x1="432" y1="373.125" x2="462" y2="373.125" />
<line stroke="Black" stroke-width="1.875" marker-end="url(#arrowEnd)" x1="432" y1="414.375" x2="462" y2="414.375" />
<line stroke="Black" stroke-width="1.875" marker-start="url(#arrowStart)" x1="402" y1="24.375" x2="432" y2="24.375" />
<line stroke="Black" stroke-width="1.875" x1="432" y1="24.375" x2="432" y2="414.375" />
</g>
<g>
<g>
<rect fill="LightSalmon" stroke="Black" stroke-width="1.875" x="462" y="7.5" width="99" height="52.5" rx="3.75" ry="3.75" />
<a href="./ValueSet-BreastRadMammoAbnormalityDuctVS.html" target="_blank">
<title>'BreastRadMammoAbnormalityDuctVS'</title>
<text x="469.5" y="30">Mg Duct</text>
</a>
<a href="./ValueSet-BreastRadMammoAbnormalityDuctVS.html" target="_blank">
<title>'BreastRadMammoAbnormalityDuctVS'</title>
<text x="469.5" y="48.75">ValueSet</text>
</a>
</g>
<g>
<rect fill="LightSalmon" stroke="Black" stroke-width="1.875" x="462" y="67.5" width="67.5" height="33.75" rx="3.75" ry="3.75" />
<a href="./StructureDefinition-CommonCount.html" target="_blank">
<title>'CommonCount'</title>
<text x="469.5" y="90">Count</text>
</a>
</g>
<g>
<rect fill="LightSalmon" stroke="Black" stroke-width="1.875" x="462" y="108.75" width="130.5" height="33.75" rx="3.75" ry="3.75" />
<a href="./StructureDefinition-BiRadsAssessmentCategory.html" target="_blank">
<title>'BiRadsAssessmentCategory'</title>
<text x="469.5" y="131.25">BiRads Code</text>
</a>
</g>
<g>
<rect fill="LightSalmon" stroke="Black" stroke-width="1.875" x="462" y="150" width="88.5" height="33.75" rx="3.75" ry="3.75" />
<a href="./StructureDefinition-CommonObservedChanges.html" target="_blank">
<title>'CommonObservedChanges'</title>
<text x="469.5" y="172.5">Changes</text>
</a>
</g>
<g>
<rect fill="LightSalmon" stroke="Black" stroke-width="1.875" x="462" y="191.25" width="57" height="33.75" rx="3.75" ry="3.75" />
<a href="./StructureDefinition-CommonSize.html" target="_blank">
<title>'CommonSize'</title>
<text x="469.5" y="213.75">Size</text>
</a>
</g>
<g>
<rect fill="LightSalmon" stroke="Black" stroke-width="1.875" x="462" y="232.5" width="130.5" height="33.75" rx="3.75" ry="3.75" />
<a href="./StructureDefinition-CommonOrientation.html" target="_blank">
<title>'CommonOrientation'</title>
<text x="469.5" y="255">Orientation</text>
</a>
</g>
<g>
<rect fill="LightSalmon" stroke="Black" stroke-width="1.875" x="462" y="273.75" width="67.5" height="33.75" rx="3.75" ry="3.75" />
<a href="./StructureDefinition-MammoShape.html" target="_blank">
<title>'MammoShape'</title>
<text x="469.5" y="296.25">Shape</text>
</a>
</g>
<g>
<rect fill="LightSalmon" stroke="Black" stroke-width="1.875" x="462" y="315" width="162" height="33.75" rx="3.75" ry="3.75" />
<a href="./StructureDefinition-BreastRadMammoMassMargin.html" target="_blank">
<title>'BreastRadMammoMassMargin'</title>
<text x="469.5" y="337.5">Mg Mass Margin</text>
</a>
</g>
<g>
<rect fill="LightSalmon" stroke="Black" stroke-width="1.875" x="462" y="356.25" width="120" height="33.75" rx="3.75" ry="3.75" />
<a href="./StructureDefinition-BreastRadMammoDensity.html" target="_blank">
<title>'BreastRadMammoDensity'</title>
<text x="469.5" y="378.75">Mg Density</text>
</a>
</g>
<g>
<rect fill="LightSalmon" stroke="Black" stroke-width="1.875" x="462" y="397.5" width="183" height="33.75" rx="3.75" ry="3.75" />
<a href="./StructureDefinition-BreastBodyLocationExtension.html" target="_blank">
<title>'BreastBodyLocationExtension'</title>
<text x="469.5" y="420">Breast Body Loc.</text>
</a>
</g>
</g>
</svg>
