<?xml version="1.0"?>
<?xml-stylesheet type="text/css" href="FocusGraph.css" ?>
<!DOCTYPE svg PUBLIC "-//W3C//DTD SVG 1.1//EN" "http://www.w3.org/Graphics/SVG/1.1/DTD/svg11.dtd">
<svg xmlns="http://www.w3.org/2000/svg" version="1.1" width="1018.74" height="255">
<defs>
<marker id="arrowStart" markerWidth="3.75" markerHeight="3.75" markerUnits="px" refX="1.88" refY="1.88">
<circle class="connector" cx="1.88" cy="1.88" r="1.88" />
</marker>
<marker id="arrowEnd" markerWidth="7.5" markerHeight="7.5" markerUnits="px" refX="7.5" refY="3.75">
<polygon class="connector" points="0 0 7.5 3.75 0 7.5" />
</marker>
</defs>
<g>
<g transform="translate(3.75 3.75)">
<a href="StructureDefinition-AbnormalityCyst.html" target="_top">
<rect class="profile" x="0" y="0" width="45.79" height="26.25" rx="3.75" ry="3.75" />
</a>
<a href="StructureDefinition-AbnormalityCyst.html" target="_top">
<text x="5.62" y="18.75" text-anchor="left" class="profile">Cyst</text>
</a>
</g>
<g transform="translate(3.75 37.5)">
<a href="StructureDefinition-AbnormalityLymphNode.html" target="_top">
<rect class="profile" x="0" y="0" width="106.26" height="26.25" rx="3.75" ry="3.75" />
</a>
<a href="StructureDefinition-AbnormalityLymphNode.html" target="_top">
<text x="5.62" y="18.75" text-anchor="left" class="profile">Lymph Node</text>
</a>
</g>
<g transform="translate(3.75 71.25)">
<a href="StructureDefinition-AbnormalityMass.html" target="_top">
<rect class="profile" x="0" y="0" width="52.21" height="26.25" rx="3.75" ry="3.75" />
</a>
<a href="StructureDefinition-AbnormalityMass.html" target="_top">
<text x="5.62" y="18.75" text-anchor="left" class="profile">Mass</text>
</a>
</g>
<g transform="translate(3.75 105)">
<a href="StructureDefinition-AbnormalitySkinLesion.html" target="_top">
<rect class="profile" x="0" y="0" width="98.04" height="26.25" rx="3.75" ry="3.75" />
</a>
<a href="StructureDefinition-AbnormalitySkinLesion.html" target="_top">
<text x="5.62" y="18.75" text-anchor="left" class="profile">Skin Lesion</text>
</a>
</g>
<line class="connector" marker-end="url(#arrowEnd)" x1="140.01" y1="16.88" x2="200.01" y2="16.88" />
<text x="143.76" y="13.12" text-anchor="right" class="lhsText">0..1</text>
<line class="connector" marker-start="url(#arrowStart)" x1="49.54" y1="16.88" x2="140.01" y2="16.88" />
<line class="connector" marker-start="url(#arrowStart)" x1="110.01" y1="50.62" x2="140.01" y2="50.62" />
<line class="connector" marker-start="url(#arrowStart)" x1="55.96" y1="84.38" x2="140.01" y2="84.38" />
<line class="connector" marker-start="url(#arrowStart)" x1="101.79" y1="118.12" x2="140.01" y2="118.12" />
<line class="connector" x1="140.01" y1="16.88" x2="140.01" y2="118.12" />
</g>
<g>
<g transform="translate(200.01 3.75)">
<a href="StructureDefinition-TumorSatellite.html" target="_top">
<rect class="focus" x="0" y="0" width="123.65" height="26.25" rx="3.75" ry="3.75" />
</a>
<a href="StructureDefinition-TumorSatellite.html" target="_top">
<text x="5.62" y="18.75" text-anchor="left" class="focus">Tumor Satellite</text>
</a>
</g>
<line class="connector" marker-end="url(#arrowEnd)" x1="353.67" y1="16.88" x2="413.67" y2="16.88" />
<text x="357.42" y="13.12" text-anchor="right" class="lhsText">1..1</text>
<line class="connector" marker-end="url(#arrowEnd)" x1="353.67" y1="50.62" x2="413.67" y2="50.62" />
<text x="357.42" y="46.88" text-anchor="right" class="lhsText">0..1</text>
<line class="connector" marker-end="url(#arrowEnd)" x1="353.67" y1="84.38" x2="413.67" y2="84.38" />
<text x="357.42" y="80.62" text-anchor="right" class="lhsText">0..1</text>
<line class="connector" marker-start="url(#arrowStart)" x1="323.67" y1="16.88" x2="353.67" y2="16.88" />
<line class="connector" x1="353.67" y1="16.88" x2="353.67" y2="84.38" />
</g>
<g>
<g transform="translate(413.67 3.75)">
<a href="StructureDefinition-TumorSatellite-definitions.html#Observation.code" target="_top">
<rect class="element" x="0" y="0" width="52.22" height="26.25" rx="3.75" ry="3.75" />
</a>
<a href="StructureDefinition-TumorSatellite-definitions.html#Observation.code" target="_top">
<text x="5.62" y="18.75" text-anchor="left" class="element">Code</text>
</a>
</g>
<line class="connector" marker-end="url(#arrowEnd)" x1="495.89" y1="16.88" x2="615.89" y2="16.88" />
<text x="499.64" y="13.12" text-anchor="right" class="lhsText">pattern </text>
<line class="connector" marker-start="url(#arrowStart)" x1="465.89" y1="16.88" x2="495.89" y2="16.88" />
<line class="connector" x1="495.89" y1="16.88" x2="495.89" y2="16.88" />
</g>
<g>
<g transform="translate(615.89 3.75)">
<a href="http://hl7.org/fhir/us/breast-radiology/CodeSystem/ObservationCodesCS" target="_top">
<rect class="value" x="0" y="0" width="370.97" height="26.25" rx="3.75" ry="3.75" />
</a>
<a href="http://hl7.org/fhir/us/breast-radiology/CodeSystem/ObservationCodesCS" target="_top">
<text x="5.62" y="18.75" text-anchor="left" class="value">ObservationCodesCS#tumorSatelliteObservation</text>
</a>
</g>
</g>
<g>
<g transform="translate(413.67 37.5)">
<a href="StructureDefinition-TumorSatellite-definitions.html#Observation.derivedFrom" target="_top">
<rect class="element" x="0" y="0" width="108.06" height="26.25" rx="3.75" ry="3.75" />
</a>
<a href="StructureDefinition-TumorSatellite-definitions.html#Observation.derivedFrom" target="_top">
<text x="5.62" y="18.75" text-anchor="left" class="element">DerivedFrom</text>
</a>
</g>
<line class="connector" marker-end="url(#arrowEnd)" x1="551.73" y1="50.62" x2="611.73" y2="50.62" />
<text x="555.48" y="46.88" text-anchor="right" class="lhsText">0..1</text>
<line class="connector" marker-start="url(#arrowStart)" x1="521.73" y1="50.62" x2="551.73" y2="50.62" />
<line class="connector" x1="551.73" y1="50.62" x2="551.73" y2="50.62" />
</g>
<g>
<g transform="translate(611.73 37.5)">
<a href="http://hl7.org/fhir/StructureDefinition/Observation" target="_top">
<rect class="fhir" x="0" y="0" width="101.68" height="26.25" rx="3.75" ry="3.75" />
</a>
<a href="http://hl7.org/fhir/StructureDefinition/Observation" target="_top">
<text x="5.62" y="18.75" text-anchor="left" class="fhir">Observation</text>
</a>
</g>
</g>
<g>
<g transform="translate(413.67 71.25)">
<a href="StructureDefinition-TumorSatellite-definitions.html#Observation.value[x]" target="_top">
<rect class="element" x="0" y="0" width="54.98" height="26.25" rx="3.75" ry="3.75" />
</a>
<a href="StructureDefinition-TumorSatellite-definitions.html#Observation.value[x]" target="_top">
<text x="5.62" y="18.75" text-anchor="left" class="element">Value</text>
</a>
</g>
</g>
<g>
<g transform="translate(3.75 213.75)">
<rect class="focus" x="0" y="0" width="57.72" height="26.25" rx="3.75" ry="3.75" />
<text x="5.62" y="18.75" text-anchor="left" class="focus">Focus</text>
</g>
<g transform="translate(68.97 213.75)">
<rect class="profile" x="0" y="0" width="143.81" height="26.25" rx="3.75" ry="3.75" />
<text x="5.62" y="18.75" text-anchor="left" class="profile">Profiled Resource</text>
</g>
<g transform="translate(220.28 213.75)">
<rect class="fhir" x="0" y="0" width="125.5" height="26.25" rx="3.75" ry="3.75" />
<text x="5.62" y="18.75" text-anchor="left" class="fhir">Base Resource</text>
</g>
<g transform="translate(353.27 213.75)">
<rect class="element" x="0" y="0" width="148.39" height="26.25" rx="3.75" ry="3.75" />
<text x="5.62" y="18.75" text-anchor="left" class="element">Resource Element</text>
</g>
<g transform="translate(509.16 213.75)">
<rect class="value" x="0" y="0" width="54.98" height="26.25" rx="3.75" ry="3.75" />
<text x="5.62" y="18.75" text-anchor="left" class="value">Value</text>
</g>
</g>
</svg>
