<?xml version="1.0"?>
<?xml-stylesheet type="text/css" href="FocusGraph.css" ?>
<!DOCTYPE svg PUBLIC "-//W3C//DTD SVG 1.1//EN" "http://www.w3.org/Graphics/SVG/1.1/DTD/svg11.dtd">
<svg xmlns="http://www.w3.org/2000/svg" version="1.1" width="894.38" height="356.25">
<defs>
<marker id="arrowStart" markerWidth="3.75" markerHeight="3.75" markerUnits="px" refX="1.88" refY="1.88">
<circle class="connector" cx="1.88" cy="1.88" r="1.88" />
</marker>
<marker id="arrowEnd" markerWidth="7.5" markerHeight="7.5" markerUnits="px" refX="7.5" refY="3.75">
<polygon class="connector" points="0 0 7.5 3.75 0 7.5" />
</marker>
</defs>
<g>
<g transform="translate(7.5 7.5)">
<a href="StructureDefinition-BreastRadiologyComposition.html" target="_top">
<rect class="profile" x="0" y="0" width="130.5" height="71.25" rx="3.75" ry="3.75" />
</a>
<a href="StructureDefinition-BreastRadiologyComposition.html" target="_top">
<text x="65.25" y="22.5" text-anchor="middle" class="profile">Breast</text>
</a>
<a href="StructureDefinition-BreastRadiologyComposition.html" target="_top">
<text x="65.25" y="41.25" text-anchor="middle" class="profile">Radiology</text>
</a>
<a href="StructureDefinition-BreastRadiologyComposition.html" target="_top">
<text x="65.25" y="60" text-anchor="middle" class="profile">Composition</text>
</a>
</g>
<line class="connector" marker-end="url(#arrowEnd)" x1="168" y1="33.75" x2="228" y2="33.75" />
<text x="171.75" y="30" text-anchor="right" class="lhsText">0..*</text>
<line class="connector" marker-start="url(#arrowStart)" x1="138" y1="43.12" x2="168" y2="43.12" />
<line class="connector" x1="168" y1="33.75" x2="168" y2="43.12" />
</g>
<g>
<g transform="translate(228 7.5)">
<a href="StructureDefinition-FindingsLeftBreast.html" target="_top">
<rect class="focus" x="0" y="0" width="130.5" height="52.5" rx="3.75" ry="3.75" />
</a>
<a href="StructureDefinition-FindingsLeftBreast.html" target="_top">
<text x="65.25" y="22.5" text-anchor="middle" class="focus">Findings</text>
</a>
<a href="StructureDefinition-FindingsLeftBreast.html" target="_top">
<text x="65.25" y="41.25" text-anchor="middle" class="focus">Left Breast</text>
</a>
</g>
<line class="connector" marker-end="url(#arrowEnd)" x1="388.5" y1="24.38" x2="448.5" y2="24.38" />
<text x="392.25" y="20.62" text-anchor="right" class="lhsText">0..*</text>
<line class="connector" marker-start="url(#arrowStart)" x1="358.5" y1="33.75" x2="388.5" y2="33.75" />
<line class="connector" x1="388.5" y1="24.38" x2="388.5" y2="33.75" />
</g>
<g>
<g transform="translate(448.5 7.5)">
<a href="StructureDefinition-FindingsLeftBreast-definitions.html#Observation.hasMember" target="_top">
<rect class="element" x="0" y="0" width="109.5" height="33.75" rx="3.75" ry="3.75" />
</a>
<a href="StructureDefinition-FindingsLeftBreast-definitions.html#Observation.hasMember" target="_top">
<text x="54.75" y="22.5" text-anchor="middle" class="element">HasMember</text>
</a>
</g>
<line class="connector" marker-end="url(#arrowEnd)" x1="588" y1="24.38" x2="648" y2="24.38" />
<text x="591.75" y="20.62" text-anchor="right" class="lhsText">0..1</text>
<line class="connector" marker-end="url(#arrowEnd)" x1="588" y1="65.62" x2="648" y2="65.62" />
<text x="591.75" y="61.88" text-anchor="right" class="lhsText">0..1</text>
<line class="connector" marker-end="url(#arrowEnd)" x1="588" y1="106.88" x2="648" y2="106.88" />
<text x="591.75" y="103.12" text-anchor="right" class="lhsText">0..1</text>
<line class="connector" marker-end="url(#arrowEnd)" x1="588" y1="157.5" x2="648" y2="157.5" />
<text x="591.75" y="153.75" text-anchor="right" class="lhsText">0..1</text>
<line class="connector" marker-end="url(#arrowEnd)" x1="588" y1="208.12" x2="648" y2="208.12" />
<text x="591.75" y="204.38" text-anchor="right" class="lhsText">0..*</text>
<line class="connector" marker-start="url(#arrowStart)" x1="558" y1="24.38" x2="588" y2="24.38" />
<line class="connector" x1="588" y1="24.38" x2="588" y2="208.12" />
</g>
<g>
<g transform="translate(648 7.5)">
<a href="StructureDefinition-MGFinding.html" target="_top">
<rect class="profile" x="0" y="0" width="130.5" height="33.75" rx="3.75" ry="3.75" />
</a>
<a href="StructureDefinition-MGFinding.html" target="_top">
<text x="65.25" y="22.5" text-anchor="middle" class="profile">Mg Findings</text>
</a>
</g>
</g>
<g>
<g transform="translate(648 48.75)">
<a href="StructureDefinition-MRIFinding.html" target="_top">
<rect class="profile" x="0" y="0" width="141" height="33.75" rx="3.75" ry="3.75" />
</a>
<a href="StructureDefinition-MRIFinding.html" target="_top">
<text x="70.5" y="22.5" text-anchor="middle" class="profile">MRI Findings</text>
</a>
</g>
</g>
<g>
<g transform="translate(648 90)">
<a href="StructureDefinition-USFinding.html" target="_top">
<rect class="profile" x="0" y="0" width="214.5" height="33.75" rx="3.75" ry="3.75" />
</a>
<a href="StructureDefinition-USFinding.html" target="_top">
<text x="107.25" y="22.5" text-anchor="middle" class="profile">Ultrasound Findings</text>
</a>
</g>
</g>
<g>
<g transform="translate(648 131.25)">
<a href="StructureDefinition-NMFinding.html" target="_top">
<rect class="profile" x="0" y="0" width="183" height="52.5" rx="3.75" ry="3.75" />
</a>
<a href="StructureDefinition-NMFinding.html" target="_top">
<text x="91.5" y="22.5" text-anchor="middle" class="profile">Nuclear Medicine</text>
</a>
<a href="StructureDefinition-NMFinding.html" target="_top">
<text x="91.5" y="41.25" text-anchor="middle" class="profile">Findings</text>
</a>
</g>
</g>
<g>
<g transform="translate(648 191.25)">
<a href="StructureDefinition-OtherFinding.html" target="_top">
<rect class="profile" x="0" y="0" width="162" height="33.75" rx="3.75" ry="3.75" />
</a>
<a href="StructureDefinition-OtherFinding.html" target="_top">
<text x="81" y="22.5" text-anchor="middle" class="profile">Other Findings</text>
</a>
</g>
</g>
<g>
<g transform="translate(7.5 307.5)">
<rect class="focus" x="0" y="0" width="67.5" height="33.75" rx="3.75" ry="3.75" />
<text x="33.75" y="22.5" text-anchor="middle" class="focus">Focus</text>
</g>
<g transform="translate(82.5 307.5)">
<rect class="profile" x="0" y="0" width="193.5" height="33.75" rx="3.75" ry="3.75" />
<text x="96.75" y="22.5" text-anchor="middle" class="profile">Profiled Resource</text>
</g>
<g transform="translate(283.5 307.5)">
<rect class="element" x="0" y="0" width="183" height="33.75" rx="3.75" ry="3.75" />
<text x="91.5" y="22.5" text-anchor="middle" class="element">Resource Element</text>
</g>
</g>
</svg>
