<?xml version="1.0"?>
<!DOCTYPE svg PUBLIC "-//W3C//DTD SVG 1.1//EN" "http://www.w3.org/Graphics/SVG/1.1/DTD/svg11.dtd">
<svg xmlns="http://www.w3.org/2000/svg" version="1.1" width="778.5" height="693.75">
<defs>
<marker id="arrowStart" markerWidth="3.75" markerHeight="3.75" markerUnits="px" refX="1.875" refY="1.875">
<circle fill="Black" stroke-width="0" cx="1.875" cy="1.875" r="1.875" />
</marker>
<marker id="arrowEnd" markerWidth="7.5" markerHeight="7.5" markerUnits="px" refX="7.5" refY="3.75">
<polygon fill="Black" stroke-width="0" points="0 0 7.5 3.75 0 7.5" />
</marker>
</defs>
<g>
<g transform="translate(7.5 7.5)">
<rect fill="LightBlue" stroke="Black" stroke-width="1.875" x="0" y="0" width="214.5" height="33.75" rx="3.75" ry="3.75" />
<a href="./StructureDefinition-MGAbnormalityArchitecturalDistortion.html" target="_top">
<title>'MGAbnormalityArchitecturalDistortion'</title>
<text x="107.25" y="22.5" text-anchor="middle">MG Arch. Distortion</text>
</a>
</g>
<g transform="translate(7.5 48.75)">
<rect fill="LightBlue" stroke="Black" stroke-width="1.875" x="0" y="0" width="141" height="33.75" rx="3.75" ry="3.75" />
<a href="./StructureDefinition-MGAbnormalityAsymmetry.html" target="_top">
<title>'MGAbnormalityAsymmetry'</title>
<text x="70.5" y="22.5" text-anchor="middle">MG Asymmetry</text>
</a>
</g>
<g transform="translate(7.5 90)">
<rect fill="LightBlue" stroke="Black" stroke-width="1.875" x="0" y="0" width="99" height="33.75" rx="3.75" ry="3.75" />
<a href="./StructureDefinition-MGAbnormalityCalcification.html" target="_top">
<title>'MGAbnormalityCalcification'</title>
<text x="49.5" y="22.5" text-anchor="middle">MG Calc.</text>
</a>
</g>
<g transform="translate(7.5 131.25)">
<rect fill="LightBlue" stroke="Black" stroke-width="1.875" x="0" y="0" width="88.5" height="33.75" rx="3.75" ry="3.75" />
<a href="./StructureDefinition-MGAbnormalityCyst.html" target="_top">
<title>'MGAbnormalityCyst'</title>
<text x="44.25" y="22.5" text-anchor="middle">MG Cyst</text>
</a>
</g>
<g transform="translate(7.5 172.5)">
<rect fill="LightBlue" stroke="Black" stroke-width="1.875" x="0" y="0" width="120" height="33.75" rx="3.75" ry="3.75" />
<a href="./StructureDefinition-MGAbnormalityDensity.html" target="_top">
<title>'MGAbnormalityDensity'</title>
<text x="60" y="22.5" text-anchor="middle">MG Density</text>
</a>
</g>
<g transform="translate(7.5 213.75)">
<rect fill="LightBlue" stroke="Black" stroke-width="1.875" x="0" y="0" width="88.5" height="33.75" rx="3.75" ry="3.75" />
<a href="./StructureDefinition-MGAbnormalityDuct.html" target="_top">
<title>'MGAbnormalityDuct'</title>
<text x="44.25" y="22.5" text-anchor="middle">MG Duct</text>
</a>
</g>
<g transform="translate(7.5 255)">
<rect fill="LightBlue" stroke="Black" stroke-width="1.875" x="0" y="0" width="172.5" height="33.75" rx="3.75" ry="3.75" />
<a href="./StructureDefinition-MGAbnormalityFatNecrosis.html" target="_top">
<title>'MGAbnormalityFatNecrosis'</title>
<text x="86.25" y="22.5" text-anchor="middle">MG Fat Necrosis</text>
</a>
</g>
<g transform="translate(7.5 296.25)">
<rect fill="LightBlue" stroke="Black" stroke-width="1.875" x="0" y="0" width="172.5" height="33.75" rx="3.75" ry="3.75" />
<a href="./StructureDefinition-MGAbnormalityFibroadenoma.html" target="_top">
<title>'MGAbnormalityFibroadenoma'</title>
<text x="86.25" y="22.5" text-anchor="middle">MG Fibroadenoma</text>
</a>
</g>
<g transform="translate(7.5 337.5)">
<rect fill="LightBlue" stroke="Black" stroke-width="1.875" x="0" y="0" width="162" height="33.75" rx="3.75" ry="3.75" />
<a href="./StructureDefinition-MGAbnormalityForeignObject.html" target="_top">
<title>'MGAbnormalityForeignObject'</title>
<text x="81" y="22.5" text-anchor="middle">Foreign Object</text>
</a>
</g>
<g transform="translate(7.5 378.75)">
<rect fill="LightBlue" stroke="Black" stroke-width="1.875" x="0" y="0" width="151.49998" height="33.75" rx="3.75" ry="3.75" />
<a href="./StructureDefinition-MGAbnormalityLymphNode.html" target="_top">
<title>'MGAbnormalityLymphNode'</title>
<text x="75.74999" y="22.5" text-anchor="middle">MG Lymph Node</text>
</a>
</g>
<g transform="translate(7.5 420)">
<rect fill="LightBlue" stroke="Black" stroke-width="1.875" x="0" y="0" width="130.5" height="52.5" rx="3.75" ry="3.75" />
<a href="./StructureDefinition-MGAxillaryAdenopathy.html" target="_top">
<title>'MGAxillaryAdenopathy'</title>
<text x="65.25" y="22.5" text-anchor="middle">MG Axillary</text>
</a>
<a href="./StructureDefinition-MGAxillaryAdenopathy.html" target="_top">
<title>'MGAxillaryAdenopathy'</title>
<text x="65.25" y="41.25" text-anchor="middle">Adenopathy</text>
</a>
</g>
<g transform="translate(7.5 480)">
<rect fill="LightBlue" stroke="Black" stroke-width="1.875" x="0" y="0" width="88.5" height="33.75" rx="3.75" ry="3.75" />
<a href="./StructureDefinition-MGMass.html" target="_top">
<title>'MGMass'</title>
<text x="44.25" y="22.5" text-anchor="middle">MG Mass</text>
</a>
</g>
<g transform="translate(7.5 521.25)">
<rect fill="LightBlue" stroke="Black" stroke-width="1.875" x="0" y="0" width="225" height="33.75" rx="3.75" ry="3.75" />
<a href="./StructureDefinition-MGNippleRetraction.html" target="_top">
<title>'MGNippleRetraction'</title>
<text x="112.5" y="22.5" text-anchor="middle">MG Nipple Retraction</text>
</a>
</g>
<g transform="translate(7.5 562.5)">
<rect fill="LightBlue" stroke="Black" stroke-width="1.875" x="0" y="0" width="162" height="33.75" rx="3.75" ry="3.75" />
<a href="./StructureDefinition-MGSkinLesion.html" target="_top">
<title>'MGSkinLesion'</title>
<text x="81" y="22.5" text-anchor="middle">MG Skin Lesion</text>
</a>
</g>
<g transform="translate(7.5 603.75)">
<rect fill="LightBlue" stroke="Black" stroke-width="1.875" x="0" y="0" width="203.99998" height="33.75" rx="3.75" ry="3.75" />
<a href="./StructureDefinition-MGSkinRetraction.html" target="_top">
<title>'MGSkinRetraction'</title>
<text x="101.99999" y="22.5" text-anchor="middle">MG Skin Retraction</text>
</a>
</g>
<g transform="translate(7.5 645)">
<rect fill="LightBlue" stroke="Black" stroke-width="1.875" x="0" y="0" width="203.99998" height="33.75" rx="3.75" ry="3.75" />
<a href="./StructureDefinition-MGSkinThickening.html" target="_top">
<title>'MGSkinThickening'</title>
<text x="101.99999" y="22.5" text-anchor="middle">MG Skin Thickening</text>
</a>
</g>
<line stroke="Black" stroke-width="1.875" marker-end="url(#arrowEnd)" x1="262.5" y1="24.375" x2="292.5" y2="24.375" />
<line stroke="Black" stroke-width="1.875" marker-start="url(#arrowStart)" x1="222" y1="24.375" x2="262.5" y2="24.375" />
<line stroke="Black" stroke-width="1.875" marker-start="url(#arrowStart)" x1="148.5" y1="65.625" x2="262.5" y2="65.625" />
<line stroke="Black" stroke-width="1.875" marker-start="url(#arrowStart)" x1="106.5" y1="106.875" x2="262.5" y2="106.875" />
<line stroke="Black" stroke-width="1.875" marker-start="url(#arrowStart)" x1="96" y1="148.125" x2="262.5" y2="148.125" />
<line stroke="Black" stroke-width="1.875" marker-start="url(#arrowStart)" x1="127.5" y1="189.375" x2="262.5" y2="189.375" />
<line stroke="Black" stroke-width="1.875" marker-start="url(#arrowStart)" x1="96" y1="230.625" x2="262.5" y2="230.625" />
<line stroke="Black" stroke-width="1.875" marker-start="url(#arrowStart)" x1="180" y1="271.875" x2="262.5" y2="271.875" />
<line stroke="Black" stroke-width="1.875" marker-start="url(#arrowStart)" x1="180" y1="313.125" x2="262.5" y2="313.125" />
<line stroke="Black" stroke-width="1.875" marker-start="url(#arrowStart)" x1="169.5" y1="354.375" x2="262.5" y2="354.375" />
<line stroke="Black" stroke-width="1.875" marker-start="url(#arrowStart)" x1="158.99998" y1="395.625" x2="262.5" y2="395.625" />
<line stroke="Black" stroke-width="1.875" marker-start="url(#arrowStart)" x1="138" y1="446.25" x2="262.5" y2="446.25" />
<line stroke="Black" stroke-width="1.875" marker-start="url(#arrowStart)" x1="96" y1="496.875" x2="262.5" y2="496.875" />
<line stroke="Black" stroke-width="1.875" marker-start="url(#arrowStart)" x1="232.5" y1="538.125" x2="262.5" y2="538.125" />
<line stroke="Black" stroke-width="1.875" marker-start="url(#arrowStart)" x1="169.5" y1="579.375" x2="262.5" y2="579.375" />
<line stroke="Black" stroke-width="1.875" marker-start="url(#arrowStart)" x1="211.49998" y1="620.625" x2="262.5" y2="620.625" />
<line stroke="Black" stroke-width="1.875" marker-start="url(#arrowStart)" x1="211.49998" y1="661.875" x2="262.5" y2="661.875" />
<line stroke="Black" stroke-width="1.875" x1="262.5" y1="24.375" x2="262.5" y2="661.875" />
</g>
<g>
<g transform="translate(292.5 7.5)">
<rect fill="White" stroke="Black" stroke-width="1.875" x="0" y="0" width="183" height="33.75" rx="3.75" ry="3.75" />
<text x="91.5" y="22.5" text-anchor="middle">Breast Body Loc.</text>
</g>
<line stroke="Black" stroke-width="1.875" marker-end="url(#arrowEnd)" x1="505.5" y1="43.125" x2="535.5" y2="43.125" />
<line stroke="Black" stroke-width="1.875" marker-end="url(#arrowEnd)" x1="505.5" y1="121.875" x2="535.5" y2="121.875" />
<line stroke="Black" stroke-width="1.875" marker-end="url(#arrowEnd)" x1="505.5" y1="200.625" x2="535.5" y2="200.625" />
<line stroke="Black" stroke-width="1.875" marker-end="url(#arrowEnd)" x1="505.5" y1="279.375" x2="535.5" y2="279.375" />
<line stroke="Black" stroke-width="1.875" marker-end="url(#arrowEnd)" x1="505.5" y1="339.375" x2="535.5" y2="339.375" />
<line stroke="Black" stroke-width="1.875" marker-start="url(#arrowStart)" x1="475.5" y1="24.375" x2="505.5" y2="24.375" />
<line stroke="Black" stroke-width="1.875" x1="505.5" y1="24.375" x2="505.5" y2="339.375" />
</g>
<g>
<g transform="translate(535.5 7.5)">
<rect fill="LightGreen" stroke="Black" stroke-width="1.875" x="0" y="0" width="183" height="71.25" rx="3.75" ry="3.75" />
<a href="./ValueSet-BreastLocationQuadrantVS.html" target="_top">
<title>'BreastLocationQuadrantVS'</title>
<text x="91.5" y="22.5" text-anchor="middle">Breast</text>
</a>
<a href="./ValueSet-BreastLocationQuadrantVS.html" target="_top">
<title>'BreastLocationQuadrantVS'</title>
<text x="91.5" y="41.25" text-anchor="middle">Location</text>
</a>
<a href="./ValueSet-BreastLocationQuadrantVS.html" target="_top">
<title>'BreastLocationQuadrantVS'</title>
<text x="91.5" y="60" text-anchor="middle">QuadrantValueSet</text>
</a>
</g>
</g>
<g>
<g transform="translate(535.5 86.25)">
<rect fill="LightGreen" stroke="Black" stroke-width="1.875" x="0" y="0" width="162" height="71.25" rx="3.75" ry="3.75" />
<a href="./ValueSet-BreastLocationRegionVS.html" target="_top">
<title>'BreastLocationRegionVS'</title>
<text x="81" y="22.5" text-anchor="middle">Breast</text>
</a>
<a href="./ValueSet-BreastLocationRegionVS.html" target="_top">
<title>'BreastLocationRegionVS'</title>
<text x="81" y="41.25" text-anchor="middle">Location</text>
</a>
<a href="./ValueSet-BreastLocationRegionVS.html" target="_top">
<title>'BreastLocationRegionVS'</title>
<text x="81" y="60" text-anchor="middle">RegionValueSet</text>
</a>
</g>
</g>
<g>
<g transform="translate(535.5 165)">
<rect fill="LightGreen" stroke="Black" stroke-width="1.875" x="0" y="0" width="151.49998" height="71.25" rx="3.75" ry="3.75" />
<a href="./ValueSet-BreastLocationClockVS.html" target="_top">
<title>'BreastLocationClockVS'</title>
<text x="75.74999" y="22.5" text-anchor="middle">Breast</text>
</a>
<a href="./ValueSet-BreastLocationClockVS.html" target="_top">
<title>'BreastLocationClockVS'</title>
<text x="75.74999" y="41.25" text-anchor="middle">Location</text>
</a>
<a href="./ValueSet-BreastLocationClockVS.html" target="_top">
<title>'BreastLocationClockVS'</title>
<text x="75.74999" y="60" text-anchor="middle">ClockValueSet</text>
</a>
</g>
</g>
<g>
<g transform="translate(535.5 243.75)">
<rect fill="LightGreen" stroke="Black" stroke-width="1.875" x="0" y="0" width="151.49998" height="71.25" rx="3.75" ry="3.75" />
<a href="./ValueSet-BreastLocationDepthVS.html" target="_top">
<title>'BreastLocationDepthVS'</title>
<text x="75.74999" y="22.5" text-anchor="middle">Breast</text>
</a>
<a href="./ValueSet-BreastLocationDepthVS.html" target="_top">
<title>'BreastLocationDepthVS'</title>
<text x="75.74999" y="41.25" text-anchor="middle">Location</text>
</a>
<a href="./ValueSet-BreastLocationDepthVS.html" target="_top">
<title>'BreastLocationDepthVS'</title>
<text x="75.74999" y="60" text-anchor="middle">DepthValueSet</text>
</a>
</g>
</g>
<g>
<g transform="translate(535.5 322.5)">
<rect fill="LightBlue" stroke="Black" stroke-width="1.875" x="0" y="0" width="172.5" height="33.75" rx="3.75" ry="3.75" />
<a href="./StructureDefinition-BodyDistanceFromExtension.html" target="_top">
<title>'BodyDistanceFromExtension'</title>
<text x="86.25" y="22.5" text-anchor="middle">Body Dist. From</text>
</a>
</g>
</g>
</svg>
