<?xml version="1.0"?>
<!DOCTYPE svg PUBLIC "-//W3C//DTD SVG 1.1//EN" "http://www.w3.org/Graphics/SVG/1.1/DTD/svg11.dtd">
<svg xmlns="http://www.w3.org/2000/svg" version="1.1" width="705" height="1170">
<defs>
<marker id="arrowStart" markerWidth="3.75" markerHeight="3.75" markerUnits="px" refX="1.875" refY="1.875">
<circle fill="Black" stroke-width="0" cx="1.875" cy="1.875" r="1.875" />
</marker>
<marker id="arrowEnd" markerWidth="7.5" markerHeight="7.5" markerUnits="px" refX="7.5" refY="3.75">
<polygon fill="Black" stroke-width="0" points="0 0 7.5 3.75 0 7.5" />
</marker>
</defs>
<g>
<g transform="translate(7.5 7.5)">
<rect fill="LightCyan" stroke="Black" stroke-width="1.875" x="0" y="0" width="120" height="33.75" rx="3.75" ry="3.75" />
<a href="./StructureDefinition-MGFinding.html" target="_blank">
<title>'MGFinding'</title>
<text x="60" y="22.5" text-anchor="middle">MG Finding</text>
</a>
</g>
<line stroke="Black" stroke-width="1.875" marker-end="url(#arrowEnd)" x1="157.5" y1="24.375" x2="187.5" y2="24.375" />
<line stroke="Black" stroke-width="1.875" marker-start="url(#arrowStart)" x1="127.5" y1="24.375" x2="157.5" y2="24.375" />
<line stroke="Black" stroke-width="1.875" x1="157.5" y1="24.375" x2="157.5" y2="24.375" />
</g>
<g>
<g transform="translate(187.5 7.5)">
<rect fill="White" stroke="Black" stroke-width="1.875" x="0" y="0" width="88.5" height="33.75" rx="3.75" ry="3.75" />
<text x="44.25" y="22.5" text-anchor="middle">MG Cyst</text>
</g>
<line stroke="Black" stroke-width="1.875" marker-end="url(#arrowEnd)" x1="306" y1="33.75" x2="336" y2="33.75" />
<line stroke="Black" stroke-width="1.875" marker-end="url(#arrowEnd)" x1="306" y1="93.75" x2="336" y2="93.75" />
<line stroke="Black" stroke-width="1.875" marker-end="url(#arrowEnd)" x1="306" y1="153.75" x2="336" y2="153.75" />
<line stroke="Black" stroke-width="1.875" marker-end="url(#arrowEnd)" x1="306" y1="223.125" x2="336" y2="223.125" />
<line stroke="Black" stroke-width="1.875" marker-end="url(#arrowEnd)" x1="306" y1="301.875" x2="336" y2="301.875" />
<line stroke="Black" stroke-width="1.875" marker-end="url(#arrowEnd)" x1="306" y1="380.625" x2="336" y2="380.625" />
<line stroke="Black" stroke-width="1.875" marker-end="url(#arrowEnd)" x1="306" y1="459.375" x2="336" y2="459.375" />
<line stroke="Black" stroke-width="1.875" marker-end="url(#arrowEnd)" x1="306" y1="538.125" x2="336" y2="538.125" />
<line stroke="Black" stroke-width="1.875" marker-end="url(#arrowEnd)" x1="306" y1="616.875" x2="336" y2="616.875" />
<line stroke="Black" stroke-width="1.875" marker-end="url(#arrowEnd)" x1="306" y1="695.625" x2="336" y2="695.625" />
<line stroke="Black" stroke-width="1.875" marker-end="url(#arrowEnd)" x1="306" y1="765" x2="336" y2="765" />
<line stroke="Black" stroke-width="1.875" marker-end="url(#arrowEnd)" x1="306" y1="834.375" x2="336" y2="834.375" />
<line stroke="Black" stroke-width="1.875" marker-end="url(#arrowEnd)" x1="306" y1="894.375" x2="336" y2="894.375" />
<line stroke="Black" stroke-width="1.875" marker-end="url(#arrowEnd)" x1="306" y1="954.375" x2="336" y2="954.375" />
<line stroke="Black" stroke-width="1.875" marker-end="url(#arrowEnd)" x1="306" y1="1033.125" x2="336" y2="1033.125" />
<line stroke="Black" stroke-width="1.875" marker-end="url(#arrowEnd)" x1="306" y1="1111.875" x2="336" y2="1111.875" />
<line stroke="Black" stroke-width="1.875" marker-start="url(#arrowStart)" x1="276" y1="24.375" x2="306" y2="24.375" />
<line stroke="Black" stroke-width="1.875" x1="306" y1="24.375" x2="306" y2="1111.875" />
</g>
<g>
<g transform="translate(336 7.5)">
<rect fill="LightCyan" stroke="Black" stroke-width="1.875" x="0" y="0" width="151.49998" height="52.5" rx="3.75" ry="3.75" />
<a href="./StructureDefinition-AimAnnotatedImagingStudy.html" target="_blank">
<title>'AimAnnotatedImagingStudy'</title>
<text x="75.74999" y="22.5" text-anchor="middle">Annotated</text>
</a>
<a href="./StructureDefinition-AimAnnotatedImagingStudy.html" target="_blank">
<title>'AimAnnotatedImagingStudy'</title>
<text x="75.74999" y="41.25" text-anchor="middle">Imaging Study</text>
</a>
</g>
<g transform="translate(336 67.5)">
<rect fill="LightGreen" stroke="Black" stroke-width="1.875" x="0" y="0" width="99" height="52.5" rx="3.75" ry="3.75" />
<a href="./ValueSet-MGAbnormalityCystVS.html" target="_blank">
<title>'MGAbnormalityCystVS'</title>
<text x="49.5" y="22.5" text-anchor="middle">MG Cyst</text>
</a>
<a href="./ValueSet-MGAbnormalityCystVS.html" target="_blank">
<title>'MGAbnormalityCystVS'</title>
<text x="49.5" y="41.25" text-anchor="middle">ValueSet</text>
</a>
</g>
<g transform="translate(336 127.5)">
<rect fill="LightYellow" stroke="Black" stroke-width="1.875" x="0" y="0" width="183" height="52.5" rx="3.75" ry="3.75" />
<text x="91.5" y="22.5" text-anchor="middle">Observed Count</text>
<text x="91.5" y="41.25" text-anchor="middle">Integer or Range</text>
</g>
<g transform="translate(336 187.5)">
<rect fill="LightYellow" stroke="Black" stroke-width="1.875" x="0" y="0" width="183" height="71.25" rx="3.75" ry="3.75" />
<text x="91.5" y="22.5" text-anchor="middle">Consistent With</text>
<text x="91.5" y="41.25" text-anchor="middle">CodeableConcept</text>
<a href="./ValueSet-ConsistentWithVS.html" target="_blank">
<title>'ConsistentWithVS'</title>
<text x="91.5" y="60" text-anchor="middle">ConsistentWithVS</text>
</a>
</g>
<g transform="translate(336 266.25)">
<rect fill="LightYellow" stroke="Black" stroke-width="1.875" x="0" y="0" width="309" height="71.25" rx="3.75" ry="3.75" />
<text x="154.5" y="22.5" text-anchor="middle">BiRads Assessment Category</text>
<text x="154.5" y="41.25" text-anchor="middle">CodeableConcept</text>
<a href="./ValueSet-BiRadsAssessmentCategoriesVS.html" target="_blank">
<title>'BiRadsAssessmentCategoriesVS'</title>
<text x="154.5" y="60" text-anchor="middle">BiRadsAssessmentCategoriesVS</text>
</a>
</g>
<g transform="translate(336 345)">
<rect fill="LightYellow" stroke="Black" stroke-width="1.875" x="0" y="0" width="309" height="71.25" rx="3.75" ry="3.75" />
<text x="154.5" y="22.5" text-anchor="middle">Change In Definition</text>
<text x="154.5" y="41.25" text-anchor="middle">CodeableConcept</text>
<a href="./ValueSet-ObservedChangeInDefinitionVS.html" target="_blank">
<title>'ObservedChangeInDefinitionVS'</title>
<text x="154.5" y="60" text-anchor="middle">ObservedChangeInDefinitionVS</text>
</a>
</g>
<g transform="translate(336 423.75)">
<rect fill="LightYellow" stroke="Black" stroke-width="1.875" x="0" y="0" width="267" height="71.25" rx="3.75" ry="3.75" />
<text x="133.5" y="22.5" text-anchor="middle">Change In Number</text>
<text x="133.5" y="41.25" text-anchor="middle">CodeableConcept</text>
<a href="./ValueSet-ObservedChangeInNumberVS.html" target="_blank">
<title>'ObservedChangeInNumberVS'</title>
<text x="133.5" y="60" text-anchor="middle">ObservedChangeInNumberVS</text>
</a>
</g>
<g transform="translate(336 502.5)">
<rect fill="LightYellow" stroke="Black" stroke-width="1.875" x="0" y="0" width="309" height="71.25" rx="3.75" ry="3.75" />
<text x="154.5" y="22.5" text-anchor="middle">Change In Prominance</text>
<text x="154.5" y="41.25" text-anchor="middle">CodeableConcept</text>
<a href="./ValueSet-ObservedChangeInProminanceVS.html" target="_blank">
<title>'ObservedChangeInProminanceVS'</title>
<text x="154.5" y="60" text-anchor="middle">ObservedChangeInProminanceVS</text>
</a>
</g>
<g transform="translate(336 581.25)">
<rect fill="LightYellow" stroke="Black" stroke-width="1.875" x="0" y="0" width="246" height="71.25" rx="3.75" ry="3.75" />
<text x="123" y="22.5" text-anchor="middle">Change In Size</text>
<text x="123" y="41.25" text-anchor="middle">CodeableConcept</text>
<a href="./ValueSet-ObservedChangeInSizeVS.html" target="_blank">
<title>'ObservedChangeInSizeVS'</title>
<text x="123" y="60" text-anchor="middle">ObservedChangeInSizeVS</text>
</a>
</g>
<g transform="translate(336 660)">
<rect fill="LightYellow" stroke="Black" stroke-width="1.875" x="0" y="0" width="256.5" height="71.25" rx="3.75" ry="3.75" />
<text x="128.25" y="22.5" text-anchor="middle">Change In State</text>
<text x="128.25" y="41.25" text-anchor="middle">CodeableConcept</text>
<a href="./ValueSet-ObservedChangeInStateVS.html" target="_blank">
<title>'ObservedChangeInStateVS'</title>
<text x="128.25" y="60" text-anchor="middle">ObservedChangeInStateVS</text>
</a>
</g>
<g transform="translate(336 738.75)">
<rect fill="LightYellow" stroke="Black" stroke-width="1.875" x="0" y="0" width="99" height="52.5" rx="3.75" ry="3.75" />
<text x="49.5" y="22.5" text-anchor="middle">Size</text>
<text x="49.5" y="41.25" text-anchor="middle">Quantity</text>
</g>
<g transform="translate(336 798.75)">
<rect fill="LightYellow" stroke="Black" stroke-width="1.875" x="0" y="0" width="172.5" height="71.25" rx="3.75" ry="3.75" />
<text x="86.25" y="22.5" text-anchor="middle">Orientation</text>
<text x="86.25" y="41.25" text-anchor="middle">CodeableConcept</text>
<a href="./ValueSet-OrientationVS.html" target="_blank">
<title>'OrientationVS'</title>
<text x="86.25" y="60" text-anchor="middle">OrientationVS</text>
</a>
</g>
<g transform="translate(336 877.5)">
<rect fill="LightBlue" stroke="Black" stroke-width="1.875" x="0" y="0" width="183" height="33.75" rx="3.75" ry="3.75" />
<a href="./StructureDefinition-BreastBodyLocationExtension.html" target="_blank">
<title>'BreastBodyLocationExtension'</title>
<text x="91.5" y="22.5" text-anchor="middle">Breast Body Loc.</text>
</a>
</g>
<g transform="translate(336 918.75)">
<rect fill="LightYellow" stroke="Black" stroke-width="1.875" x="0" y="0" width="172.5" height="71.25" rx="3.75" ry="3.75" />
<text x="86.25" y="22.5" text-anchor="middle">Shape</text>
<text x="86.25" y="41.25" text-anchor="middle">CodeableConcept</text>
<a href="./ValueSet-ShapeVS.html" target="_blank">
<title>'ShapeVS'</title>
<text x="86.25" y="60" text-anchor="middle">ShapeVS</text>
</a>
</g>
<g transform="translate(336 997.5)">
<rect fill="LightYellow" stroke="Black" stroke-width="1.875" x="0" y="0" width="172.5" height="71.25" rx="3.75" ry="3.75" />
<text x="86.25" y="22.5" text-anchor="middle">Margin</text>
<text x="86.25" y="41.25" text-anchor="middle">CodeableConcept</text>
<a href="./ValueSet-MarginVS.html" target="_blank">
<title>'MarginVS'</title>
<text x="86.25" y="60" text-anchor="middle">MarginVS</text>
</a>
</g>
<g transform="translate(336 1076.25)">
<rect fill="LightYellow" stroke="Black" stroke-width="1.875" x="0" y="0" width="172.5" height="71.25" rx="3.75" ry="3.75" />
<text x="86.25" y="22.5" text-anchor="middle">Density</text>
<text x="86.25" y="41.25" text-anchor="middle">CodeableConcept</text>
<a href="./ValueSet-MGDensityVS.html" target="_blank">
<title>'MGDensityVS'</title>
<text x="86.25" y="60" text-anchor="middle">MGDensityVS</text>
</a>
</g>
</g>
</svg>
