<?xml version="1.0"?>
<?xml-stylesheet type="text/css" href="FocusGraph.css" ?>
<!DOCTYPE svg PUBLIC "-//W3C//DTD SVG 1.1//EN" "http://www.w3.org/Graphics/SVG/1.1/DTD/svg11.dtd">
<svg xmlns="http://www.w3.org/2000/svg" version="1.1" width="1389.375" height="787.5">
<defs>
<marker id="arrowStart" markerWidth="3.75" markerHeight="3.75" markerUnits="px" refX="1.875" refY="1.875">
<circle fill="Black" stroke-width="0" cx="1.875" cy="1.875" r="1.875" />
</marker>
<marker id="arrowEnd" markerWidth="7.5" markerHeight="7.5" markerUnits="px" refX="7.5" refY="3.75">
<polygon fill="Black" stroke-width="0" points="0 0 7.5 3.75 0 7.5" />
</marker>
</defs>
<g>
<g transform="translate(7.5 7.5)">
<a href="StructureDefinition-MGFinding.html" target="_top">
<rect class="profile" fill="White" stroke="Black" stroke-width="1.875" x="0" y="0" width="120" height="33.75" rx="3.75" ry="3.75" />
</a>
<a href="StructureDefinition-MGFinding.html" target="_top">
<text x="60" y="22.5" text-anchor="middle" class="profile">Mg Finding</text>
</a>
</g>
<line stroke="Black" stroke-width="1.875" marker-end="url(#arrowEnd)" x1="157.5" y1="24.375" x2="187.5" y2="24.375" />
<line stroke="Black" stroke-width="1.875" marker-start="url(#arrowStart)" x1="127.5" y1="24.375" x2="157.5" y2="24.375" />
<line stroke="Black" stroke-width="1.875" x1="157.5" y1="24.375" x2="157.5" y2="24.375" />
</g>
<g>
<g transform="translate(187.5 7.5)">
<a href="StructureDefinition-AbnormalityAsymmetry.html" target="_top">
<rect class="focus" fill="White" stroke="Black" stroke-width="1.875" x="0" y="0" width="235.5" height="33.75" rx="3.75" ry="3.75" />
</a>
<a href="StructureDefinition-AbnormalityAsymmetry.html" target="_top">
<text x="117.75" y="22.5" text-anchor="middle" class="focus">Asymmetry Abnormality</text>
</a>
</g>
<line stroke="Black" stroke-width="1.875" marker-end="url(#arrowEnd)" x1="453" y1="24.375" x2="513" y2="24.375" />
<text x="456.75" y="20.625" text-anchor="right" class="lhsText">1..*</text>
<line stroke="Black" stroke-width="1.875" marker-end="url(#arrowEnd)" x1="453" y1="665.625" x2="513" y2="665.625" />
<text x="456.75" y="661.875" text-anchor="right" class="lhsText">1..1</text>
<line stroke="Black" stroke-width="1.875" marker-end="url(#arrowEnd)" x1="453" y1="706.875" x2="513" y2="706.875" />
<text x="456.75" y="703.125" text-anchor="right" class="lhsText">0..*</text>
<line stroke="Black" stroke-width="1.875" marker-start="url(#arrowStart)" x1="423" y1="24.375" x2="453" y2="24.375" />
<line stroke="Black" stroke-width="1.875" x1="453" y1="24.375" x2="453" y2="706.875" />
</g>
<g>
<g transform="translate(513 7.5)">
<a href="StructureDefinition-AbnormalityAsymmetry-definitions.html#Observation.component" target="_top">
<rect class="element" fill="White" stroke="Black" stroke-width="1.875" x="0" y="0" width="120" height="33.75" rx="3.75" ry="3.75" />
</a>
<a href="StructureDefinition-AbnormalityAsymmetry-definitions.html#Observation.component" target="_top">
<text x="60" y="22.5" text-anchor="middle" class="element">Components</text>
</a>
</g>
<line stroke="Black" stroke-width="1.875" marker-end="url(#arrowEnd)" x1="663" y1="24.375" x2="723" y2="24.375" />
<text x="666.75" y="20.625" text-anchor="right" class="lhsText">1..1</text>
<line stroke="Black" stroke-width="1.875" marker-end="url(#arrowEnd)" x1="663" y1="84.375" x2="723" y2="84.375" />
<text x="666.75" y="80.625" text-anchor="right" class="lhsText">0..*</text>
<line stroke="Black" stroke-width="1.875" marker-end="url(#arrowEnd)" x1="663" y1="144.375" x2="723" y2="144.375" />
<text x="666.75" y="140.625" text-anchor="right" class="lhsText">0..1</text>
<line stroke="Black" stroke-width="1.875" marker-end="url(#arrowEnd)" x1="663" y1="204.375" x2="723" y2="204.375" />
<text x="666.75" y="200.625" text-anchor="right" class="lhsText">0..1</text>
<line stroke="Black" stroke-width="1.875" marker-end="url(#arrowEnd)" x1="663" y1="264.375" x2="723" y2="264.375" />
<text x="666.75" y="260.625" text-anchor="right" class="lhsText">0..1</text>
<line stroke="Black" stroke-width="1.875" marker-end="url(#arrowEnd)" x1="663" y1="324.375" x2="723" y2="324.375" />
<text x="666.75" y="320.625" text-anchor="right" class="lhsText">0..1</text>
<line stroke="Black" stroke-width="1.875" marker-end="url(#arrowEnd)" x1="663" y1="384.375" x2="723" y2="384.375" />
<text x="666.75" y="380.625" text-anchor="right" class="lhsText">0..1</text>
<line stroke="Black" stroke-width="1.875" marker-end="url(#arrowEnd)" x1="663" y1="444.375" x2="723" y2="444.375" />
<text x="666.75" y="440.625" text-anchor="right" class="lhsText">0..*</text>
<line stroke="Black" stroke-width="1.875" marker-end="url(#arrowEnd)" x1="663" y1="504.375" x2="723" y2="504.375" />
<text x="666.75" y="500.625" text-anchor="right" class="lhsText">0..1</text>
<line stroke="Black" stroke-width="1.875" marker-end="url(#arrowEnd)" x1="663" y1="545.625" x2="723" y2="545.625" />
<text x="666.75" y="541.875" text-anchor="right" class="lhsText">0..*</text>
<line stroke="Black" stroke-width="1.875" marker-end="url(#arrowEnd)" x1="663" y1="615" x2="723" y2="615" />
<text x="666.75" y="611.25" text-anchor="right" class="lhsText">0..*</text>
<line stroke="Black" stroke-width="1.875" marker-start="url(#arrowStart)" x1="633" y1="24.375" x2="663" y2="24.375" />
<line stroke="Black" stroke-width="1.875" x1="663" y1="24.375" x2="663" y2="615" />
</g>
<g>
<g transform="translate(723 7.5)">
<a href="StructureDefinition-AbnormalityAsymmetry-definitions.html#Observation.component:asymmetryType" target="_top">
<rect class="element" fill="White" stroke="Black" stroke-width="1.875" x="0" y="0" width="162" height="33.75" rx="3.75" ry="3.75" />
</a>
<a href="StructureDefinition-AbnormalityAsymmetry-definitions.html#Observation.component:asymmetryType" target="_top">
<text x="81" y="22.5" text-anchor="middle" class="element">Asymmetry Type</text>
</a>
</g>
<line stroke="Black" stroke-width="1.875" marker-end="url(#arrowEnd)" x1="915" y1="33.75" x2="975" y2="33.75" />
<text x="918.75" y="30" text-anchor="right" class="lhsText">bind</text>
<line stroke="Black" stroke-width="1.875" marker-start="url(#arrowStart)" x1="885" y1="24.375" x2="915" y2="24.375" />
<line stroke="Black" stroke-width="1.875" x1="915" y1="24.375" x2="915" y2="33.75" />
</g>
<g>
<g transform="translate(975 7.5)">
<a href="ValueSet-AbnormalityAsymmetryTypeVS.html" target="_top">
<rect class="valueSet" fill="White" stroke="Black" stroke-width="1.875" x="0" y="0" width="287.99997" height="52.5" rx="3.75" ry="3.75" />
</a>
<a href="ValueSet-AbnormalityAsymmetryTypeVS.html" target="_top">
<text x="143.99998" y="22.5" text-anchor="middle" class="valueSet">AbnormalityAsymmetryTypeVS</text>
</a>
<a href="ValueSet-AbnormalityAsymmetryTypeVS.html" target="_top">
<text x="143.99998" y="41.25" text-anchor="middle" class="valueSet">ValueSet</text>
</a>
</g>
</g>
<g>
<g transform="translate(723 67.5)">
<a href="StructureDefinition-AbnormalityAsymmetry-definitions.html#Observation.component:obsChanges" target="_top">
<rect class="element" fill="White" stroke="Black" stroke-width="1.875" x="0" y="0" width="183" height="33.75" rx="3.75" ry="3.75" />
</a>
<a href="StructureDefinition-AbnormalityAsymmetry-definitions.html#Observation.component:obsChanges" target="_top">
<text x="91.5" y="22.5" text-anchor="middle" class="element">Observed Changes</text>
</a>
</g>
<line stroke="Black" stroke-width="1.875" marker-end="url(#arrowEnd)" x1="936" y1="93.75" x2="996" y2="93.75" />
<text x="939.75" y="90" text-anchor="right" class="lhsText">bind</text>
<line stroke="Black" stroke-width="1.875" marker-start="url(#arrowStart)" x1="906" y1="84.375" x2="936" y2="84.375" />
<line stroke="Black" stroke-width="1.875" x1="936" y1="84.375" x2="936" y2="93.75" />
</g>
<g>
<g transform="translate(996 67.5)">
<a href="ValueSet-ObservedChangesVS.html" target="_top">
<rect class="valueSet" fill="White" stroke="Black" stroke-width="1.875" x="0" y="0" width="193.5" height="52.5" rx="3.75" ry="3.75" />
</a>
<a href="ValueSet-ObservedChangesVS.html" target="_top">
<text x="96.75" y="22.5" text-anchor="middle" class="valueSet">ObservedChangesVS</text>
</a>
<a href="ValueSet-ObservedChangesVS.html" target="_top">
<text x="96.75" y="41.25" text-anchor="middle" class="valueSet">ValueSet</text>
</a>
</g>
</g>
<g>
<g transform="translate(723 127.5)">
<a href="StructureDefinition-AbnormalityAsymmetry-definitions.html#Observation.component:biRadsAssessmentCategory" target="_top">
<rect class="element" fill="White" stroke="Black" stroke-width="1.875" x="0" y="0" width="130.5" height="33.75" rx="3.75" ry="3.75" />
</a>
<a href="StructureDefinition-AbnormalityAsymmetry-definitions.html#Observation.component:biRadsAssessmentCategory" target="_top">
<text x="65.25" y="22.5" text-anchor="middle" class="element">BiRads Code</text>
</a>
</g>
<line stroke="Black" stroke-width="1.875" marker-end="url(#arrowEnd)" x1="883.5" y1="153.75" x2="943.5" y2="153.75" />
<text x="887.25" y="150" text-anchor="right" class="lhsText">bind</text>
<line stroke="Black" stroke-width="1.875" marker-start="url(#arrowStart)" x1="853.5" y1="144.375" x2="883.5" y2="144.375" />
<line stroke="Black" stroke-width="1.875" x1="883.5" y1="144.375" x2="883.5" y2="153.75" />
</g>
<g>
<g transform="translate(943.5 127.5)">
<a href="ValueSet-BiRadsAssessmentCategoryVS.html" target="_top">
<rect class="valueSet" fill="White" stroke="Black" stroke-width="1.875" x="0" y="0" width="287.99997" height="52.5" rx="3.75" ry="3.75" />
</a>
<a href="ValueSet-BiRadsAssessmentCategoryVS.html" target="_top">
<text x="143.99998" y="22.5" text-anchor="middle" class="valueSet">BiRadsAssessmentCategoryVS</text>
</a>
<a href="ValueSet-BiRadsAssessmentCategoryVS.html" target="_top">
<text x="143.99998" y="41.25" text-anchor="middle" class="valueSet">ValueSet</text>
</a>
</g>
</g>
<g>
<g transform="translate(723 187.5)">
<a href="StructureDefinition-AbnormalityAsymmetry-definitions.html#Observation.component:orientation" target="_top">
<rect class="element" fill="White" stroke="Black" stroke-width="1.875" x="0" y="0" width="130.5" height="33.75" rx="3.75" ry="3.75" />
</a>
<a href="StructureDefinition-AbnormalityAsymmetry-definitions.html#Observation.component:orientation" target="_top">
<text x="65.25" y="22.5" text-anchor="middle" class="element">Orientation</text>
</a>
</g>
<line stroke="Black" stroke-width="1.875" marker-end="url(#arrowEnd)" x1="883.5" y1="213.75" x2="943.5" y2="213.75" />
<text x="887.25" y="210" text-anchor="right" class="lhsText">bind</text>
<line stroke="Black" stroke-width="1.875" marker-start="url(#arrowStart)" x1="853.5" y1="204.375" x2="883.5" y2="204.375" />
<line stroke="Black" stroke-width="1.875" x1="883.5" y1="204.375" x2="883.5" y2="213.75" />
</g>
<g>
<g transform="translate(943.5 187.5)">
<a href="ValueSet-OrientationVS.html" target="_top">
<rect class="valueSet" fill="White" stroke="Black" stroke-width="1.875" x="0" y="0" width="151.49998" height="52.5" rx="3.75" ry="3.75" />
</a>
<a href="ValueSet-OrientationVS.html" target="_top">
<text x="75.74999" y="22.5" text-anchor="middle" class="valueSet">OrientationVS</text>
</a>
<a href="ValueSet-OrientationVS.html" target="_top">
<text x="75.74999" y="41.25" text-anchor="middle" class="valueSet">ValueSet</text>
</a>
</g>
</g>
<g>
<g transform="translate(723 247.5)">
<a href="StructureDefinition-AbnormalityAsymmetry-definitions.html#Observation.component:shape" target="_top">
<rect class="element" fill="White" stroke="Black" stroke-width="1.875" x="0" y="0" width="67.5" height="33.75" rx="3.75" ry="3.75" />
</a>
<a href="StructureDefinition-AbnormalityAsymmetry-definitions.html#Observation.component:shape" target="_top">
<text x="33.75" y="22.5" text-anchor="middle" class="element">Shape</text>
</a>
</g>
<line stroke="Black" stroke-width="1.875" marker-end="url(#arrowEnd)" x1="820.5" y1="273.75" x2="880.5" y2="273.75" />
<text x="824.25" y="270" text-anchor="right" class="lhsText">bind</text>
<line stroke="Black" stroke-width="1.875" marker-start="url(#arrowStart)" x1="790.5" y1="264.375" x2="820.5" y2="264.375" />
<line stroke="Black" stroke-width="1.875" x1="820.5" y1="264.375" x2="820.5" y2="273.75" />
</g>
<g>
<g transform="translate(880.5 247.5)">
<a href="ValueSet-ShapeVS.html" target="_top">
<rect class="valueSet" fill="White" stroke="Black" stroke-width="1.875" x="0" y="0" width="99" height="52.5" rx="3.75" ry="3.75" />
</a>
<a href="ValueSet-ShapeVS.html" target="_top">
<text x="49.5" y="22.5" text-anchor="middle" class="valueSet">ShapeVS</text>
</a>
<a href="ValueSet-ShapeVS.html" target="_top">
<text x="49.5" y="41.25" text-anchor="middle" class="valueSet">ValueSet</text>
</a>
</g>
</g>
<g>
<g transform="translate(723 307.5)">
<a href="StructureDefinition-AbnormalityAsymmetry-definitions.html#Observation.component:margin" target="_top">
<rect class="element" fill="White" stroke="Black" stroke-width="1.875" x="0" y="0" width="78" height="33.75" rx="3.75" ry="3.75" />
</a>
<a href="StructureDefinition-AbnormalityAsymmetry-definitions.html#Observation.component:margin" target="_top">
<text x="39" y="22.5" text-anchor="middle" class="element">Margin</text>
</a>
</g>
<line stroke="Black" stroke-width="1.875" marker-end="url(#arrowEnd)" x1="831" y1="333.75" x2="891" y2="333.75" />
<text x="834.75" y="330" text-anchor="right" class="lhsText">bind</text>
<line stroke="Black" stroke-width="1.875" marker-start="url(#arrowStart)" x1="801" y1="324.375" x2="831" y2="324.375" />
<line stroke="Black" stroke-width="1.875" x1="831" y1="324.375" x2="831" y2="333.75" />
</g>
<g>
<g transform="translate(891 307.5)">
<a href="ValueSet-ShapeVS.html" target="_top">
<rect class="valueSet" fill="White" stroke="Black" stroke-width="1.875" x="0" y="0" width="99" height="52.5" rx="3.75" ry="3.75" />
</a>
<a href="ValueSet-ShapeVS.html" target="_top">
<text x="49.5" y="22.5" text-anchor="middle" class="valueSet">ShapeVS</text>
</a>
<a href="ValueSet-ShapeVS.html" target="_top">
<text x="49.5" y="41.25" text-anchor="middle" class="valueSet">ValueSet</text>
</a>
</g>
</g>
<g>
<g transform="translate(723 367.5)">
<a href="StructureDefinition-AbnormalityAsymmetry-definitions.html#Observation.component:mgBreastDensity" target="_top">
<rect class="element" fill="White" stroke="Black" stroke-width="1.875" x="0" y="0" width="88.5" height="33.75" rx="3.75" ry="3.75" />
</a>
<a href="StructureDefinition-AbnormalityAsymmetry-definitions.html#Observation.component:mgBreastDensity" target="_top">
<text x="44.25" y="22.5" text-anchor="middle" class="element">Density</text>
</a>
</g>
<line stroke="Black" stroke-width="1.875" marker-end="url(#arrowEnd)" x1="841.50006" y1="393.75" x2="901.50006" y2="393.75" />
<text x="845.25006" y="390" text-anchor="right" class="lhsText">bind</text>
<line stroke="Black" stroke-width="1.875" marker-start="url(#arrowStart)" x1="811.50006" y1="384.375" x2="841.50006" y2="384.375" />
<line stroke="Black" stroke-width="1.875" x1="841.50006" y1="384.375" x2="841.50006" y2="393.75" />
</g>
<g>
<g transform="translate(901.50006 367.5)">
<a href="ValueSet-MGBreastDensityVS.html" target="_top">
<rect class="valueSet" fill="White" stroke="Black" stroke-width="1.875" x="0" y="0" width="193.5" height="52.5" rx="3.75" ry="3.75" />
</a>
<a href="ValueSet-MGBreastDensityVS.html" target="_top">
<text x="96.75" y="22.5" text-anchor="middle" class="valueSet">MGBreastDensityVS</text>
</a>
<a href="ValueSet-MGBreastDensityVS.html" target="_top">
<text x="96.75" y="41.25" text-anchor="middle" class="valueSet">ValueSet</text>
</a>
</g>
</g>
<g>
<g transform="translate(723 427.5)">
<a href="StructureDefinition-AbnormalityAsymmetry-definitions.html#Observation.component:notPreviouslySeen" target="_top">
<rect class="element" fill="White" stroke="Black" stroke-width="1.875" x="0" y="0" width="214.5" height="33.75" rx="3.75" ry="3.75" />
</a>
<a href="StructureDefinition-AbnormalityAsymmetry-definitions.html#Observation.component:notPreviouslySeen" target="_top">
<text x="107.25" y="22.5" text-anchor="middle" class="element">Not Previously Seen</text>
</a>
</g>
<line stroke="Black" stroke-width="1.875" marker-end="url(#arrowEnd)" x1="967.5" y1="453.75" x2="1027.5" y2="453.75" />
<text x="971.25" y="450" text-anchor="right" class="lhsText">bind</text>
<line stroke="Black" stroke-width="1.875" marker-start="url(#arrowStart)" x1="937.5" y1="444.375" x2="967.5" y2="444.375" />
<line stroke="Black" stroke-width="1.875" x1="967.5" y1="444.375" x2="967.5" y2="453.75" />
</g>
<g>
<g transform="translate(1027.5 427.5)">
<a href="ValueSet-NotPreviouslySeenVS.html" target="_top">
<rect class="valueSet" fill="White" stroke="Black" stroke-width="1.875" x="0" y="0" width="214.5" height="52.5" rx="3.75" ry="3.75" />
</a>
<a href="ValueSet-NotPreviouslySeenVS.html" target="_top">
<text x="107.25" y="22.5" text-anchor="middle" class="valueSet">NotPreviouslySeenVS</text>
</a>
<a href="ValueSet-NotPreviouslySeenVS.html" target="_top">
<text x="107.25" y="41.25" text-anchor="middle" class="valueSet">ValueSet</text>
</a>
</g>
</g>
<g>
<g transform="translate(723 487.5)">
<a href="StructureDefinition-AbnormalityAsymmetry-definitions.html#Observation.component:observedCount" target="_top">
<rect class="element" fill="White" stroke="Black" stroke-width="1.875" x="0" y="0" width="162" height="33.75" rx="3.75" ry="3.75" />
</a>
<a href="StructureDefinition-AbnormalityAsymmetry-definitions.html#Observation.component:observedCount" target="_top">
<text x="81" y="22.5" text-anchor="middle" class="element">Observed Count</text>
</a>
</g>
</g>
<g>
<g transform="translate(723 528.75)">
<a href="StructureDefinition-AbnormalityAsymmetry-definitions.html#Observation.component:correspondsWith" target="_top">
<rect class="element" fill="White" stroke="Black" stroke-width="1.875" x="0" y="0" width="183" height="33.75" rx="3.75" ry="3.75" />
</a>
<a href="StructureDefinition-AbnormalityAsymmetry-definitions.html#Observation.component:correspondsWith" target="_top">
<text x="91.5" y="22.5" text-anchor="middle" class="element">Corresponds With</text>
</a>
</g>
<line stroke="Black" stroke-width="1.875" marker-end="url(#arrowEnd)" x1="936" y1="555" x2="996" y2="555" />
<text x="939.75" y="551.25" text-anchor="right" class="lhsText">bind</text>
<line stroke="Black" stroke-width="1.875" marker-start="url(#arrowStart)" x1="906" y1="545.625" x2="936" y2="545.625" />
<line stroke="Black" stroke-width="1.875" x1="936" y1="545.625" x2="936" y2="555" />
</g>
<g>
<g transform="translate(996 528.75)">
<a href="ValueSet-CorrespondsWithVS.html" target="_top">
<rect class="valueSet" fill="White" stroke="Black" stroke-width="1.875" x="0" y="0" width="193.5" height="52.5" rx="3.75" ry="3.75" />
</a>
<a href="ValueSet-CorrespondsWithVS.html" target="_top">
<text x="96.75" y="22.5" text-anchor="middle" class="valueSet">CorrespondsWithVS</text>
</a>
<a href="ValueSet-CorrespondsWithVS.html" target="_top">
<text x="96.75" y="41.25" text-anchor="middle" class="valueSet">ValueSet</text>
</a>
</g>
</g>
<g>
<g transform="translate(723 588.75)">
<a href="StructureDefinition-AbnormalityAsymmetry-definitions.html#Observation.component:prevDemBy" target="_top">
<rect class="element" fill="White" stroke="Black" stroke-width="1.875" x="0" y="0" width="256.5" height="52.5" rx="3.75" ry="3.75" />
</a>
<a href="StructureDefinition-AbnormalityAsymmetry-definitions.html#Observation.component:prevDemBy" target="_top">
<text x="128.25" y="22.5" text-anchor="middle" class="element">Previously</text>
</a>
<a href="StructureDefinition-AbnormalityAsymmetry-definitions.html#Observation.component:prevDemBy" target="_top">
<text x="128.25" y="41.25" text-anchor="middle" class="element">Demonstrated by Changes</text>
</a>
</g>
<line stroke="Black" stroke-width="1.875" marker-end="url(#arrowEnd)" x1="1009.50006" y1="615" x2="1069.5" y2="615" />
<text x="1013.25006" y="611.25" text-anchor="right" class="lhsText">bind</text>
<line stroke="Black" stroke-width="1.875" marker-start="url(#arrowStart)" x1="979.50006" y1="615" x2="1009.50006" y2="615" />
<line stroke="Black" stroke-width="1.875" x1="1009.50006" y1="615" x2="1009.50006" y2="615" />
</g>
<g>
<g transform="translate(1069.5 588.75)">
<a href="ValueSet-PreviouslyDemonstratedByVS.html" target="_top">
<rect class="valueSet" fill="White" stroke="Black" stroke-width="1.875" x="0" y="0" width="287.99997" height="52.5" rx="3.75" ry="3.75" />
</a>
<a href="ValueSet-PreviouslyDemonstratedByVS.html" target="_top">
<text x="143.99998" y="22.5" text-anchor="middle" class="valueSet">PreviouslyDemonstratedByVS</text>
</a>
<a href="ValueSet-PreviouslyDemonstratedByVS.html" target="_top">
<text x="143.99998" y="41.25" text-anchor="middle" class="valueSet">ValueSet</text>
</a>
</g>
</g>
<g>
<g transform="translate(513 648.75)">
<a href="StructureDefinition-AbnormalityAsymmetry-definitions.html#Observation.bodySite" target="_top">
<rect class="element" fill="White" stroke="Black" stroke-width="1.875" x="0" y="0" width="99" height="33.75" rx="3.75" ry="3.75" />
</a>
<a href="StructureDefinition-AbnormalityAsymmetry-definitions.html#Observation.bodySite" target="_top">
<text x="49.5" y="22.5" text-anchor="middle" class="element">BodySite</text>
</a>
</g>
<line stroke="Black" stroke-width="1.875" marker-end="url(#arrowEnd)" x1="642" y1="665.625" x2="702" y2="665.625" />
<text x="645.75" y="661.875" text-anchor="right" class="lhsText">1..*</text>
<line stroke="Black" stroke-width="1.875" marker-start="url(#arrowStart)" x1="612" y1="665.625" x2="642" y2="665.625" />
<line stroke="Black" stroke-width="1.875" x1="642" y1="665.625" x2="642" y2="665.625" />
</g>
<g>
<g transform="translate(702 648.75)">
<a href="StructureDefinition-AbnormalityAsymmetry-definitions.html#Observation.bodySite.extension" target="_top">
<rect class="element" fill="White" stroke="Black" stroke-width="1.875" x="0" y="0" width="109.49999" height="33.75" rx="3.75" ry="3.75" />
</a>
<a href="StructureDefinition-AbnormalityAsymmetry-definitions.html#Observation.bodySite.extension" target="_top">
<text x="54.749996" y="22.5" text-anchor="middle" class="element">extension</text>
</a>
</g>
<line stroke="Black" stroke-width="1.875" marker-end="url(#arrowEnd)" x1="841.5" y1="665.625" x2="871.5" y2="665.625" />
<line stroke="Black" stroke-width="1.875" marker-start="url(#arrowStart)" x1="811.5" y1="665.625" x2="841.5" y2="665.625" />
<line stroke="Black" stroke-width="1.875" x1="841.5" y1="665.625" x2="841.5" y2="665.625" />
</g>
<g>
<g transform="translate(871.5 648.75)">
<a href="StructureDefinition-BreastBodyLocationExtension.html" target="_top">
<rect class="extension" fill="White" stroke="Black" stroke-width="1.875" x="0" y="0" width="203.99998" height="33.75" rx="3.75" ry="3.75" />
</a>
<a href="StructureDefinition-BreastBodyLocationExtension.html" target="_top">
<text x="101.99999" y="22.5" text-anchor="middle" class="extension">BreastBodyLocation</text>
</a>
</g>
</g>
<g>
<g transform="translate(513 690)">
<a href="StructureDefinition-AbnormalityAsymmetry-definitions.html#Observation.hasMember" target="_top">
<rect class="element" fill="White" stroke="Black" stroke-width="1.875" x="0" y="0" width="109.49999" height="33.75" rx="3.75" ry="3.75" />
</a>
<a href="StructureDefinition-AbnormalityAsymmetry-definitions.html#Observation.hasMember" target="_top">
<text x="54.749996" y="22.5" text-anchor="middle" class="element">HasMember</text>
</a>
</g>
<line stroke="Black" stroke-width="1.875" marker-end="url(#arrowEnd)" x1="682.5" y1="706.875" x2="712.5" y2="706.875" />
<line stroke="Black" stroke-width="1.875" marker-end="url(#arrowEnd)" x1="682.5" y1="748.125" x2="712.5" y2="748.125" />
<line stroke="Black" stroke-width="1.875" marker-start="url(#arrowStart)" x1="622.5" y1="706.875" x2="682.5" y2="706.875" />
<text x="626.25" y="703.125" text-anchor="left" class="rhsText">0..*</text>
<line stroke="Black" stroke-width="1.875" x1="682.5" y1="706.875" x2="682.5" y2="748.125" />
</g>
<g>
<g transform="translate(712.5 690)">
<a href="StructureDefinition-AssociatedFeature.html" target="_top">
<rect class="profile" fill="White" stroke="Black" stroke-width="1.875" x="0" y="0" width="193.5" height="33.75" rx="3.75" ry="3.75" />
</a>
<a href="StructureDefinition-AssociatedFeature.html" target="_top">
<text x="96.75" y="22.5" text-anchor="middle" class="profile">AssociatedFeature</text>
</a>
</g>
</g>
<g>
<g transform="translate(712.5 731.25)">
<a href="StructureDefinition-ConsistentWith.html" target="_top">
<rect class="profile" fill="White" stroke="Black" stroke-width="1.875" x="0" y="0" width="162" height="33.75" rx="3.75" ry="3.75" />
</a>
<a href="StructureDefinition-ConsistentWith.html" target="_top">
<text x="81" y="22.5" text-anchor="middle" class="profile">ConsistentWith</text>
</a>
</g>
</g>
</svg>
