<?xml version="1.0"?>
<?xml-stylesheet type="text/css" href="FocusGraph.css" ?>
<!DOCTYPE svg PUBLIC "-//W3C//DTD SVG 1.1//EN" "http://www.w3.org/Graphics/SVG/1.1/DTD/svg11.dtd">
<svg xmlns="http://www.w3.org/2000/svg" version="1.1" width="554.81" height="153.75">
<defs>
<marker id="arrowStart" markerWidth="3.75" markerHeight="3.75" markerUnits="px" refX="1.88" refY="1.88">
<circle class="connector" cx="1.88" cy="1.88" r="1.88" />
</marker>
<marker id="arrowEnd" markerWidth="7.5" markerHeight="7.5" markerUnits="px" refX="7.5" refY="3.75">
<polygon class="connector" points="0 0 7.5 3.75 0 7.5" />
</marker>
</defs>
<g>
<g transform="translate(3.75 3.75)">
<a href="StructureDefinition-BreastMedicationRequest.html" target="_top">
<rect class="focus" x="0" y="0" width="158.48" height="26.25" rx="3.75" ry="3.75" />
</a>
<a href="StructureDefinition-BreastMedicationRequest.html" target="_top">
<text x="5.62" y="18.75" text-anchor="left" class="focus">Medication Request</text>
</a>
</g>
<line class="connector" marker-end="url(#arrowEnd)" x1="192.23" y1="16.88" x2="252.23" y2="16.88" />
<text x="195.98" y="13.12" text-anchor="right" class="lhsText">1..*</text>
<line class="connector" marker-start="url(#arrowStart)" x1="162.23" y1="16.88" x2="192.23" y2="16.88" />
<line class="connector" x1="192.23" y1="16.88" x2="192.23" y2="16.88" />
</g>
<g>
<g transform="translate(252.23 3.75)">
<a href="StructureDefinition-BreastMedicationRequest-definitions.html#MedicationRequest.extension" target="_top">
<rect class="element" x="0" y="0" width="83.38" height="26.25" rx="3.75" ry="3.75" />
</a>
<a href="StructureDefinition-BreastMedicationRequest-definitions.html#MedicationRequest.extension" target="_top">
<text x="5.62" y="18.75" text-anchor="left" class="element">extension</text>
</a>
</g>
<line class="connector" marker-end="url(#arrowEnd)" x1="365.61" y1="16.88" x2="395.61" y2="16.88" />
<line class="connector" marker-start="url(#arrowStart)" x1="335.61" y1="16.88" x2="365.61" y2="16.88" />
<line class="connector" x1="365.61" y1="16.88" x2="365.61" y2="16.88" />
</g>
<g>
<g transform="translate(395.61 3.75)">
<a href="StructureDefinition-BreastLateralityExtension.html" target="_top">
<rect class="extension" x="0" y="0" width="127.33" height="26.25" rx="3.75" ry="3.75" />
</a>
<a href="StructureDefinition-BreastLateralityExtension.html" target="_top">
<text x="5.62" y="18.75" text-anchor="left" class="extension">BreastLaterality</text>
</a>
</g>
</g>
<g>
<g transform="translate(3.75 112.5)">
<rect class="focus" x="0" y="0" width="57.72" height="26.25" rx="3.75" ry="3.75" />
<text x="5.62" y="18.75" text-anchor="left" class="focus">Focus</text>
</g>
<g transform="translate(68.97 112.5)">
<rect class="extension" x="0" y="0" width="85.21" height="26.25" rx="3.75" ry="3.75" />
<text x="5.62" y="18.75" text-anchor="left" class="extension">Extension</text>
</g>
<g transform="translate(161.67 112.5)">
<rect class="element" x="0" y="0" width="148.39" height="26.25" rx="3.75" ry="3.75" />
<text x="5.62" y="18.75" text-anchor="left" class="element">Resource Element</text>
</g>
</g>
</svg>
