<?xml version="1.0"?>
<!DOCTYPE svg PUBLIC "-//W3C//DTD SVG 1.1//EN" "http://www.w3.org/Graphics/SVG/1.1/DTD/svg11.dtd">
<svg xmlns="http://www.w3.org/2000/svg" version="1.1" width="589.5" height="798.75">
<defs>
<marker id="arrowStart" markerWidth="3.75" markerHeight="3.75" markerUnits="px" refX="1.875" refY="1.875">
<circle fill="Black" stroke-width="0" cx="1.875" cy="1.875" r="1.875" />
</marker>
<marker id="arrowEnd" markerWidth="7.5" markerHeight="7.5" markerUnits="px" refX="7.5" refY="3.75">
<polygon fill="Black" stroke-width="0" points="0 0 7.5 3.75 0 7.5" />
</marker>
</defs>
<g>
<g transform="translate(7.5 7.5)">
<rect fill="LightBlue" stroke="Black" stroke-width="1.875" x="0" y="0" width="120" height="33.75" rx="3.75" ry="3.75" />
<a href="./StructureDefinition-MGFinding.html" target="_blank">
<title>'MGFinding'</title>
<text x="60" y="22.5" text-anchor="middle">MG Finding</text>
</a>
</g>
<line stroke="Black" stroke-width="1.875" marker-end="url(#arrowEnd)" x1="157.5" y1="24.375" x2="187.5" y2="24.375" />
<line stroke="Black" stroke-width="1.875" marker-start="url(#arrowStart)" x1="127.5" y1="24.375" x2="157.5" y2="24.375" />
<line stroke="Black" stroke-width="1.875" x1="157.5" y1="24.375" x2="157.5" y2="24.375" />
</g>
<g>
<g transform="translate(187.5 7.5)">
<rect fill="LightGreen" stroke="Black" stroke-width="1.875" x="0" y="0" width="88.5" height="33.75" rx="3.75" ry="3.75" />
<text x="44.25" y="22.5" text-anchor="middle">MG Mass</text>
</g>
<line stroke="Black" stroke-width="1.875" marker-end="url(#arrowEnd)" x1="306" y1="33.75" x2="336" y2="33.75" />
<line stroke="Black" stroke-width="1.875" marker-end="url(#arrowEnd)" x1="306" y1="84.375" x2="336" y2="84.375" />
<line stroke="Black" stroke-width="1.875" marker-end="url(#arrowEnd)" x1="306" y1="135" x2="336" y2="135" />
<line stroke="Black" stroke-width="1.875" marker-end="url(#arrowEnd)" x1="306" y1="195" x2="336" y2="195" />
<line stroke="Black" stroke-width="1.875" marker-end="url(#arrowEnd)" x1="306" y1="255" x2="336" y2="255" />
<line stroke="Black" stroke-width="1.875" marker-end="url(#arrowEnd)" x1="306" y1="305.625" x2="336" y2="305.625" />
<line stroke="Black" stroke-width="1.875" marker-end="url(#arrowEnd)" x1="306" y1="346.875" x2="336" y2="346.875" />
<line stroke="Black" stroke-width="1.875" marker-end="url(#arrowEnd)" x1="306" y1="388.125" x2="336" y2="388.125" />
<line stroke="Black" stroke-width="1.875" marker-end="url(#arrowEnd)" x1="306" y1="429.375" x2="336" y2="429.375" />
<line stroke="Black" stroke-width="1.875" marker-end="url(#arrowEnd)" x1="306" y1="470.625" x2="336" y2="470.625" />
<line stroke="Black" stroke-width="1.875" marker-end="url(#arrowEnd)" x1="306" y1="511.875" x2="336" y2="511.875" />
<line stroke="Black" stroke-width="1.875" marker-end="url(#arrowEnd)" x1="306" y1="553.125" x2="336" y2="553.125" />
<line stroke="Black" stroke-width="1.875" marker-end="url(#arrowEnd)" x1="306" y1="594.375" x2="336" y2="594.375" />
<line stroke="Black" stroke-width="1.875" marker-end="url(#arrowEnd)" x1="306" y1="635.625" x2="336" y2="635.625" />
<line stroke="Black" stroke-width="1.875" marker-end="url(#arrowEnd)" x1="306" y1="676.875" x2="336" y2="676.875" />
<line stroke="Black" stroke-width="1.875" marker-end="url(#arrowEnd)" x1="306" y1="718.125" x2="336" y2="718.125" />
<line stroke="Black" stroke-width="1.875" marker-end="url(#arrowEnd)" x1="306" y1="759.375" x2="336" y2="759.375" />
<line stroke="Black" stroke-width="1.875" marker-start="url(#arrowStart)" x1="276" y1="24.375" x2="306" y2="24.375" />
<line stroke="Black" stroke-width="1.875" x1="306" y1="24.375" x2="306" y2="759.375" />
</g>
<g>
<g transform="translate(336 7.5)">
<rect fill="LightSalmon" stroke="Black" stroke-width="1.875" x="0" y="0" width="172.5" height="52.5" rx="3.75" ry="3.75" />
<a href="./ValueSet-MassRefinementValueSetVS.html" target="_blank">
<title>'MassRefinementValueSetVS'</title>
<text x="86.25" y="22.5" text-anchor="middle">Mass Refinement</text>
</a>
<a href="./ValueSet-MassRefinementValueSetVS.html" target="_blank">
<title>'MassRefinementValueSetVS'</title>
<text x="86.25" y="41.25" text-anchor="middle">ValueSet</text>
</a>
</g>
<g transform="translate(336 67.5)">
<rect fill="LightSalmon" stroke="Black" stroke-width="1.875" x="0" y="0" width="67.5" height="33.75" rx="3.75" ry="3.75" />
<a href="./StructureDefinition-ObservedCount.html" target="_blank">
<title>'ObservedCount'</title>
<text x="33.75" y="22.5" text-anchor="middle">Count</text>
</a>
</g>
<g transform="translate(336 108.75)">
<rect fill="LightSalmon" stroke="Black" stroke-width="1.875" x="0" y="0" width="151.49998" height="52.5" rx="3.75" ry="3.75" />
<a href="./StructureDefinition-MGAssociatedFeatures.html" target="_blank">
<title>'MGAssociatedFeatures'</title>
<text x="75.74999" y="22.5" text-anchor="middle">MG Associated</text>
</a>
<a href="./StructureDefinition-MGAssociatedFeatures.html" target="_blank">
<title>'MGAssociatedFeatures'</title>
<text x="75.74999" y="41.25" text-anchor="middle">Features</text>
</a>
</g>
<g transform="translate(336 168.75)">
<rect fill="LightSalmon" stroke="Black" stroke-width="1.875" x="0" y="0" width="120" height="52.5" rx="3.75" ry="3.75" />
<a href="./StructureDefinition-ConsistentWith.html" target="_blank">
<title>'ConsistentWith'</title>
<text x="60" y="22.5" text-anchor="middle">Consistent</text>
</a>
<a href="./StructureDefinition-ConsistentWith.html" target="_blank">
<title>'ConsistentWith'</title>
<text x="60" y="41.25" text-anchor="middle">With</text>
</a>
</g>
<g transform="translate(336 228.75)">
<rect fill="LightSalmon" stroke="Black" stroke-width="1.875" x="0" y="0" width="151.49998" height="52.5" rx="3.75" ry="3.75" />
<a href="./StructureDefinition-AimAnnotatedImagingStudy.html" target="_blank">
<title>'AimAnnotatedImagingStudy'</title>
<text x="75.74999" y="22.5" text-anchor="middle">Annotated</text>
</a>
<a href="./StructureDefinition-AimAnnotatedImagingStudy.html" target="_blank">
<title>'AimAnnotatedImagingStudy'</title>
<text x="75.74999" y="41.25" text-anchor="middle">Imaging Study</text>
</a>
</g>
<g transform="translate(336 288.75)">
<rect fill="LightSalmon" stroke="Black" stroke-width="1.875" x="0" y="0" width="130.5" height="33.75" rx="3.75" ry="3.75" />
<a href="./StructureDefinition-BiRadsAssessmentCategory.html" target="_blank">
<title>'BiRadsAssessmentCategory'</title>
<text x="65.25" y="22.5" text-anchor="middle">BiRads Code</text>
</a>
</g>
<g transform="translate(336 330)">
<rect fill="LightSalmon" stroke="Black" stroke-width="1.875" x="0" y="0" width="193.5" height="33.75" rx="3.75" ry="3.75" />
<a href="./StructureDefinition-ObservedChangeInDefinition.html" target="_blank">
<title>'ObservedChangeInDefinition'</title>
<text x="96.75" y="22.5" text-anchor="middle">Definition Change</text>
</a>
</g>
<g transform="translate(336 371.25)">
<rect fill="LightSalmon" stroke="Black" stroke-width="1.875" x="0" y="0" width="151.49998" height="33.75" rx="3.75" ry="3.75" />
<a href="./StructureDefinition-ObservedChangeInNumber.html" target="_blank">
<title>'ObservedChangeInNumber'</title>
<text x="75.74999" y="22.5" text-anchor="middle">Number Change</text>
</a>
</g>
<g transform="translate(336 412.5)">
<rect fill="LightSalmon" stroke="Black" stroke-width="1.875" x="0" y="0" width="193.5" height="33.75" rx="3.75" ry="3.75" />
<a href="./StructureDefinition-ObservedChangeInProminance.html" target="_blank">
<title>'ObservedChangeInProminance'</title>
<text x="96.75" y="22.5" text-anchor="middle">Prominance Change</text>
</a>
</g>
<g transform="translate(336 453.75)">
<rect fill="LightSalmon" stroke="Black" stroke-width="1.875" x="0" y="0" width="130.5" height="33.75" rx="3.75" ry="3.75" />
<a href="./StructureDefinition-ObservedChangeInSize.html" target="_blank">
<title>'ObservedChangeInSize'</title>
<text x="65.25" y="22.5" text-anchor="middle">Size Change</text>
</a>
</g>
<g transform="translate(336 495)">
<rect fill="LightSalmon" stroke="Black" stroke-width="1.875" x="0" y="0" width="141" height="33.75" rx="3.75" ry="3.75" />
<a href="./StructureDefinition-ObservedChangeInState.html" target="_blank">
<title>'ObservedChangeInState'</title>
<text x="70.5" y="22.5" text-anchor="middle">State Change</text>
</a>
</g>
<g transform="translate(336 536.25)">
<rect fill="LightSalmon" stroke="Black" stroke-width="1.875" x="0" y="0" width="57" height="33.75" rx="3.75" ry="3.75" />
<a href="./StructureDefinition-ObservedSize.html" target="_blank">
<title>'ObservedSize'</title>
<text x="28.5" y="22.5" text-anchor="middle">Size</text>
</a>
</g>
<g transform="translate(336 577.5)">
<rect fill="LightSalmon" stroke="Black" stroke-width="1.875" x="0" y="0" width="130.5" height="33.75" rx="3.75" ry="3.75" />
<a href="./StructureDefinition-Orientation.html" target="_blank">
<title>'Orientation'</title>
<text x="65.25" y="22.5" text-anchor="middle">Orientation</text>
</a>
</g>
<g transform="translate(336 618.75)">
<rect fill="LightSalmon" stroke="Black" stroke-width="1.875" x="0" y="0" width="67.5" height="33.75" rx="3.75" ry="3.75" />
<a href="./StructureDefinition-MammoShape.html" target="_blank">
<title>'MammoShape'</title>
<text x="33.75" y="22.5" text-anchor="middle">Shape</text>
</a>
</g>
<g transform="translate(336 660)">
<rect fill="LightSalmon" stroke="Black" stroke-width="1.875" x="0" y="0" width="109.49999" height="33.75" rx="3.75" ry="3.75" />
<a href="./StructureDefinition-MGMargin.html" target="_blank">
<title>'MGMargin'</title>
<text x="54.749996" y="22.5" text-anchor="middle">MG Margin</text>
</a>
</g>
<g transform="translate(336 701.25)">
<rect fill="LightSalmon" stroke="Black" stroke-width="1.875" x="0" y="0" width="120" height="33.75" rx="3.75" ry="3.75" />
<a href="./StructureDefinition-MGDensity.html" target="_blank">
<title>'MGDensity'</title>
<text x="60" y="22.5" text-anchor="middle">MG Density</text>
</a>
</g>
<g transform="translate(336 742.5)">
<rect fill="LightSalmon" stroke="Black" stroke-width="1.875" x="0" y="0" width="183" height="33.75" rx="3.75" ry="3.75" />
<a href="./StructureDefinition-BreastBodyLocationExtension.html" target="_blank">
<title>'BreastBodyLocationExtension'</title>
<text x="91.5" y="22.5" text-anchor="middle">Breast Body Loc.</text>
</a>
</g>
</g>
</svg>
