<?xml version="1.0"?>
<!DOCTYPE svg PUBLIC "-//W3C//DTD SVG 1.1//EN" "http://www.w3.org/Graphics/SVG/1.1/DTD/svg11.dtd">
<svg xmlns="http://www.w3.org/2000/svg" version="1.1" width="585" height="1042.5">
<defs>
<marker id="arrowStart" markerWidth="3.75" markerHeight="3.75" markerUnits="px" refX="1.875" refY="1.875">
<circle fill="Black" stroke-width="0" cx="1.875" cy="1.875" r="1.875" />
</marker>
<marker id="arrowEnd" markerWidth="7.5" markerHeight="7.5" markerUnits="px" refX="7.5" refY="3.75">
<polygon fill="Black" stroke-width="0" points="0 0 7.5 3.75 0 7.5" />
</marker>
</defs>
<g>
<g>
<rect fill="LightBlue" stroke="Black" stroke-width="1.875" x="7.5" y="7.5" width="340.49997" height="33.75" rx="3.75" ry="3.75" />
<a href="./StructureDefinition-BreastRadMammoAbnormalityArchitecturalDistortion.html" target="_blank">
<title>'BreastRadMammoAbnormalityArchitecturalDistortion'</title>
<text x="15" y="30">Mg Arch. Distortion Abnormality</text>
</a>
</g>
<g>
<rect fill="LightBlue" stroke="Black" stroke-width="1.875" x="7.5" y="48.75" width="267" height="33.75" rx="3.75" ry="3.75" />
<a href="./StructureDefinition-BreastRadMammoAbnormalityAsymmetry.html" target="_blank">
<title>'BreastRadMammoAbnormalityAsymmetry'</title>
<text x="15" y="71.25">Mg Asymmetry Abnormality</text>
</a>
</g>
<g>
<rect fill="LightBlue" stroke="Black" stroke-width="1.875" x="7.5" y="90" width="225" height="33.75" rx="3.75" ry="3.75" />
<a href="./StructureDefinition-BreastRadMammoAbnormalityCalcification.html" target="_blank">
<title>'BreastRadMammoAbnormalityCalcification'</title>
<text x="15" y="112.5">Mg Calc. Abnormality</text>
</a>
</g>
<g>
<rect fill="LightBlue" stroke="Black" stroke-width="1.875" x="7.5" y="131.25" width="214.5" height="33.75" rx="3.75" ry="3.75" />
<a href="./StructureDefinition-BreastRadMammoAbnormalityCyst.html" target="_blank">
<title>'BreastRadMammoAbnormalityCyst'</title>
<text x="15" y="153.75">Mg Cyst Abnormality</text>
</a>
</g>
<g>
<rect fill="LightBlue" stroke="Black" stroke-width="1.875" x="7.5" y="172.5" width="246" height="33.75" rx="3.75" ry="3.75" />
<a href="./StructureDefinition-BreastRadMammoAbnormalityDensity.html" target="_blank">
<title>'BreastRadMammoAbnormalityDensity'</title>
<text x="15" y="195">Mg Density Abnormality</text>
</a>
</g>
<g>
<rect fill="LightBlue" stroke="Black" stroke-width="1.875" x="7.5" y="213.75" width="214.5" height="33.75" rx="3.75" ry="3.75" />
<a href="./StructureDefinition-BreastRadMammoAbnormalityDuct.html" target="_blank">
<title>'BreastRadMammoAbnormalityDuct'</title>
<text x="15" y="236.25">Mg Duct Abnormality</text>
</a>
</g>
<g>
<rect fill="LightBlue" stroke="Black" stroke-width="1.875" x="7.5" y="255" width="298.5" height="33.75" rx="3.75" ry="3.75" />
<a href="./StructureDefinition-BreastRadMammoAbnormalityFatNecrosis.html" target="_blank">
<title>'BreastRadMammoAbnormalityFatNecrosis'</title>
<text x="15" y="277.5">Mg Fat Necrosis Abnormality</text>
</a>
</g>
<g>
<rect fill="LightBlue" stroke="Black" stroke-width="1.875" x="7.5" y="296.25" width="298.5" height="33.75" rx="3.75" ry="3.75" />
<a href="./StructureDefinition-BreastRadMammoAbnormalityFibroadenoma.html" target="_blank">
<title>'BreastRadMammoAbnormalityFibroadenoma'</title>
<text x="15" y="318.75">Mg Fibroadenoma Abnormality</text>
</a>
</g>
<g>
<rect fill="LightBlue" stroke="Black" stroke-width="1.875" x="7.5" y="337.5" width="277.5" height="33.75" rx="3.75" ry="3.75" />
<a href="./StructureDefinition-BreastRadMammoAbnormalityLymphNode.html" target="_blank">
<title>'BreastRadMammoAbnormalityLymphNode'</title>
<text x="15" y="360">Mg Lymph Node Abnormality</text>
</a>
</g>
<g>
<rect fill="LightBlue" stroke="Black" stroke-width="1.875" x="7.5" y="378.75" width="214.5" height="33.75" rx="3.75" ry="3.75" />
<a href="./StructureDefinition-BreastRadMammoArchitecturalDistortion.html" target="_blank">
<title>'BreastRadMammoArchitecturalDistortion'</title>
<text x="15" y="401.25">Mg Arch. Distortion</text>
</a>
</g>
<g>
<rect fill="LightBlue" stroke="Black" stroke-width="1.875" x="7.5" y="420" width="141" height="33.75" rx="3.75" ry="3.75" />
<a href="./StructureDefinition-BreastRadMammoAsymmetry.html" target="_blank">
<title>'BreastRadMammoAsymmetry'</title>
<text x="15" y="442.5">Mg Asymmetry</text>
</a>
</g>
<g>
<rect fill="LightBlue" stroke="Black" stroke-width="1.875" x="7.5" y="461.25" width="99" height="33.75" rx="3.75" ry="3.75" />
<a href="./StructureDefinition-BreastRadMammoCalcification.html" target="_blank">
<title>'BreastRadMammoCalcification'</title>
<text x="15" y="483.75">Mg Calc.</text>
</a>
</g>
<g>
<rect fill="LightBlue" stroke="Black" stroke-width="1.875" x="7.5" y="502.5" width="88.5" height="33.75" rx="3.75" ry="3.75" />
<a href="./StructureDefinition-BreastRadMammoCyst.html" target="_blank">
<title>'BreastRadMammoCyst'</title>
<text x="15" y="525">Mg Cyst</text>
</a>
</g>
<g>
<rect fill="LightBlue" stroke="Black" stroke-width="1.875" x="7.5" y="543.75" width="172.5" height="33.75" rx="3.75" ry="3.75" />
<a href="./StructureDefinition-BreastRadMammoFatNecrosis.html" target="_blank">
<title>'BreastRadMammoFatNecrosis'</title>
<text x="15" y="566.25">Mg Fat Necrosis</text>
</a>
</g>
<g>
<rect fill="LightBlue" stroke="Black" stroke-width="1.875" x="7.5" y="585" width="172.5" height="33.75" rx="3.75" ry="3.75" />
<a href="./StructureDefinition-BreastRadMammoFibroadenoma.html" target="_blank">
<title>'BreastRadMammoFibroadenoma'</title>
<text x="15" y="607.5">Mg Fibroadenoma</text>
</a>
</g>
<g>
<rect fill="LightBlue" stroke="Black" stroke-width="1.875" x="7.5" y="626.25" width="151.49998" height="33.75" rx="3.75" ry="3.75" />
<a href="./StructureDefinition-BreastRadMammoLymphNode.html" target="_blank">
<title>'BreastRadMammoLymphNode'</title>
<text x="15" y="648.75">Mg Lymph Node</text>
</a>
</g>
<g>
<rect fill="LightBlue" stroke="Black" stroke-width="1.875" x="7.5" y="667.5" width="214.5" height="33.75" rx="3.75" ry="3.75" />
<a href="./StructureDefinition-BreastRadMammoMass.html" target="_blank">
<title>'BreastRadMammoMass'</title>
<text x="15" y="690">Mg Mass Abnormality</text>
</a>
</g>
<g>
<rect fill="LightBlue" stroke="Black" stroke-width="1.875" x="7.5" y="708.75" width="162" height="33.75" rx="3.75" ry="3.75" />
<a href="./StructureDefinition-BreastRadMammoSkinLesion.html" target="_blank">
<title>'BreastRadMammoSkinLesion'</title>
<text x="15" y="731.25">Mg Skin Lesion</text>
</a>
</g>
<g>
<rect fill="LightBlue" stroke="Black" stroke-width="1.875" x="7.5" y="750" width="151.49998" height="52.5" rx="3.75" ry="3.75" />
<a href="./StructureDefinition-BreastRadMammoSolitaryDilatedDuct.html" target="_blank">
<title>'BreastRadMammoSolitaryDilatedDuct'</title>
<text x="15" y="772.5">Mg Solitary</text>
</a>
<a href="./StructureDefinition-BreastRadMammoSolitaryDilatedDuct.html" target="_blank">
<title>'BreastRadMammoSolitaryDilatedDuct'</title>
<text x="15" y="791.25">Dialated Duct</text>
</a>
</g>
<g>
<rect fill="LightBlue" stroke="Black" stroke-width="1.875" x="7.5" y="810" width="99" height="33.75" rx="3.75" ry="3.75" />
<a href="./StructureDefinition-BreastRadMRIMass.html" target="_blank">
<title>'BreastRadMRIMass'</title>
<text x="15" y="832.5">MRI Mass</text>
</a>
</g>
<g>
<rect fill="LightBlue" stroke="Black" stroke-width="1.875" x="7.5" y="851.25" width="57" height="52.5" rx="3.75" ry="3.75" />
<a href="./StructureDefinition-BreastRadNMMass.html" target="_blank">
<title>'BreastRadNMMass'</title>
<text x="15" y="873.75">NM</text>
</a>
<a href="./StructureDefinition-BreastRadNMMass.html" target="_blank">
<title>'BreastRadNMMass'</title>
<text x="15" y="892.5">Mass</text>
</a>
</g>
<g>
<rect fill="LightBlue" stroke="Black" stroke-width="1.875" x="7.5" y="911.25" width="88.5" height="33.75" rx="3.75" ry="3.75" />
<a href="./StructureDefinition-BreastRadUSMass.html" target="_blank">
<title>'BreastRadUSMass'</title>
<text x="15" y="933.75">US Mass</text>
</a>
</g>
<g>
<rect fill="LightBlue" stroke="Black" stroke-width="1.875" x="7.5" y="952.5" width="287.99997" height="33.75" rx="3.75" ry="3.75" />
<a href="./StructureDefinition-CommonAbnormalityForeignObject.html" target="_blank">
<title>'CommonAbnormalityForeignObject'</title>
<text x="15" y="975">Foreign Object Abnormality</text>
</a>
</g>
<g>
<rect fill="LightBlue" stroke="Black" stroke-width="1.875" x="7.5" y="993.75" width="162" height="33.75" rx="3.75" ry="3.75" />
<a href="./StructureDefinition-CommonForeignObject.html" target="_blank">
<title>'CommonForeignObject'</title>
<text x="15" y="1016.25">Foreign Object</text>
</a>
</g>
<line stroke="Black" stroke-width="1.875" marker-end="url(#arrowEnd)" x1="377.99997" y1="24.375" x2="407.99997" y2="24.375" />
<line stroke="Black" stroke-width="1.875" marker-start="url(#arrowStart)" x1="347.99997" y1="24.375" x2="377.99997" y2="24.375" />
<line stroke="Black" stroke-width="1.875" marker-start="url(#arrowStart)" x1="274.5" y1="65.625" x2="377.99997" y2="65.625" />
<line stroke="Black" stroke-width="1.875" marker-start="url(#arrowStart)" x1="232.5" y1="106.875" x2="377.99997" y2="106.875" />
<line stroke="Black" stroke-width="1.875" marker-start="url(#arrowStart)" x1="222" y1="148.125" x2="377.99997" y2="148.125" />
<line stroke="Black" stroke-width="1.875" marker-start="url(#arrowStart)" x1="253.5" y1="189.375" x2="377.99997" y2="189.375" />
<line stroke="Black" stroke-width="1.875" marker-start="url(#arrowStart)" x1="222" y1="230.625" x2="377.99997" y2="230.625" />
<line stroke="Black" stroke-width="1.875" marker-start="url(#arrowStart)" x1="306" y1="271.875" x2="377.99997" y2="271.875" />
<line stroke="Black" stroke-width="1.875" marker-start="url(#arrowStart)" x1="306" y1="313.125" x2="377.99997" y2="313.125" />
<line stroke="Black" stroke-width="1.875" marker-start="url(#arrowStart)" x1="285" y1="354.375" x2="377.99997" y2="354.375" />
<line stroke="Black" stroke-width="1.875" marker-start="url(#arrowStart)" x1="222" y1="395.625" x2="377.99997" y2="395.625" />
<line stroke="Black" stroke-width="1.875" marker-start="url(#arrowStart)" x1="148.5" y1="436.875" x2="377.99997" y2="436.875" />
<line stroke="Black" stroke-width="1.875" marker-start="url(#arrowStart)" x1="106.5" y1="478.125" x2="377.99997" y2="478.125" />
<line stroke="Black" stroke-width="1.875" marker-start="url(#arrowStart)" x1="96" y1="519.375" x2="377.99997" y2="519.375" />
<line stroke="Black" stroke-width="1.875" marker-start="url(#arrowStart)" x1="180" y1="560.625" x2="377.99997" y2="560.625" />
<line stroke="Black" stroke-width="1.875" marker-start="url(#arrowStart)" x1="180" y1="601.875" x2="377.99997" y2="601.875" />
<line stroke="Black" stroke-width="1.875" marker-start="url(#arrowStart)" x1="158.99998" y1="643.125" x2="377.99997" y2="643.125" />
<line stroke="Black" stroke-width="1.875" marker-start="url(#arrowStart)" x1="222" y1="684.375" x2="377.99997" y2="684.375" />
<line stroke="Black" stroke-width="1.875" marker-start="url(#arrowStart)" x1="169.5" y1="725.625" x2="377.99997" y2="725.625" />
<line stroke="Black" stroke-width="1.875" marker-start="url(#arrowStart)" x1="158.99998" y1="776.25" x2="377.99997" y2="776.25" />
<line stroke="Black" stroke-width="1.875" marker-start="url(#arrowStart)" x1="106.5" y1="826.875" x2="377.99997" y2="826.875" />
<line stroke="Black" stroke-width="1.875" marker-start="url(#arrowStart)" x1="64.5" y1="877.5" x2="377.99997" y2="877.5" />
<line stroke="Black" stroke-width="1.875" marker-start="url(#arrowStart)" x1="96" y1="928.125" x2="377.99997" y2="928.125" />
<line stroke="Black" stroke-width="1.875" marker-start="url(#arrowStart)" x1="295.49997" y1="969.375" x2="377.99997" y2="969.375" />
<line stroke="Black" stroke-width="1.875" marker-start="url(#arrowStart)" x1="169.5" y1="1010.625" x2="377.99997" y2="1010.625" />
<line stroke="Black" stroke-width="1.875" x1="377.99997" y1="24.375" x2="377.99997" y2="1010.625" />
</g>
<g>
<g>
<rect fill="LightGreen" stroke="Black" stroke-width="1.875" x="407.99997" y="7.5" width="57" height="33.75" rx="3.75" ry="3.75" />
<text x="415.49997" y="30">Size</text>
</g>
</g>
<g />
</svg>
