<?xml version="1.0"?>
<?xml-stylesheet type="text/css" href="FocusGraph.css" ?>
<!DOCTYPE svg PUBLIC "-//W3C//DTD SVG 1.1//EN" "http://www.w3.org/Graphics/SVG/1.1/DTD/svg11.dtd">
<svg xmlns="http://www.w3.org/2000/svg" version="1.1" width="1085.6" height="277.5">
<defs>
<marker id="arrowStart" markerWidth="3.75" markerHeight="3.75" markerUnits="px" refX="1.88" refY="1.88">
<circle class="connector" cx="1.88" cy="1.88" r="1.88" />
</marker>
<marker id="arrowEnd" markerWidth="7.5" markerHeight="7.5" markerUnits="px" refX="7.5" refY="3.75">
<polygon class="connector" points="0 0 7.5 3.75 0 7.5" />
</marker>
</defs>
<g>
<g transform="translate(3.75 3.75)">
<a href="StructureDefinition-FindingsBiLateralBreast.html" target="_top">
<rect class="profile" x="0" y="0" width="77.87" height="45" rx="3.75" ry="3.75" />
</a>
<a href="StructureDefinition-FindingsBiLateralBreast.html" target="_top">
<text x="5.62" y="18.75" text-anchor="left" class="profile">Findings</text>
</a>
<a href="StructureDefinition-FindingsBiLateralBreast.html" target="_top">
<text x="5.62" y="37.5" text-anchor="left" class="profile">BiLateral</text>
</a>
</g>
<g transform="translate(3.75 56.25)">
<a href="StructureDefinition-FindingsLeftBreast.html" target="_top">
<rect class="profile" x="0" y="0" width="92.52" height="45" rx="3.75" ry="3.75" />
</a>
<a href="StructureDefinition-FindingsLeftBreast.html" target="_top">
<text x="5.62" y="18.75" text-anchor="left" class="profile">Findings</text>
</a>
<a href="StructureDefinition-FindingsLeftBreast.html" target="_top">
<text x="5.62" y="37.5" text-anchor="left" class="profile">Left Breast</text>
</a>
</g>
<g transform="translate(3.75 108.75)">
<a href="StructureDefinition-FindingsRightBreast.html" target="_top">
<rect class="profile" x="0" y="0" width="103.51" height="45" rx="3.75" ry="3.75" />
</a>
<a href="StructureDefinition-FindingsRightBreast.html" target="_top">
<text x="5.62" y="18.75" text-anchor="left" class="profile">Findings</text>
</a>
<a href="StructureDefinition-FindingsRightBreast.html" target="_top">
<text x="5.62" y="37.5" text-anchor="left" class="profile">Right Breast</text>
</a>
</g>
<line class="connector" marker-end="url(#arrowEnd)" x1="137.26" y1="16.88" x2="197.26" y2="16.88" />
<text x="141.01" y="13.12" text-anchor="right" class="lhsText">0..1</text>
<line class="connector" marker-start="url(#arrowStart)" x1="81.62" y1="26.25" x2="137.26" y2="26.25" />
<line class="connector" marker-start="url(#arrowStart)" x1="96.27" y1="78.75" x2="137.26" y2="78.75" />
<line class="connector" marker-start="url(#arrowStart)" x1="107.26" y1="131.25" x2="137.26" y2="131.25" />
<line class="connector" x1="137.26" y1="16.88" x2="137.26" y2="131.25" />
</g>
<g>
<g transform="translate(197.26 3.75)">
<a href="StructureDefinition-BreastComposition.html" target="_top">
<rect class="focus" x="0" y="0" width="156.63" height="26.25" rx="3.75" ry="3.75" />
</a>
<a href="StructureDefinition-BreastComposition.html" target="_top">
<text x="5.62" y="18.75" text-anchor="left" class="focus">Breast Composition</text>
</a>
</g>
<line class="connector" marker-end="url(#arrowEnd)" x1="383.89" y1="16.88" x2="443.89" y2="16.88" />
<text x="387.64" y="13.12" text-anchor="right" class="lhsText">1..1</text>
<line class="connector" marker-end="url(#arrowEnd)" x1="383.89" y1="50.62" x2="443.89" y2="50.62" />
<text x="387.64" y="46.88" text-anchor="right" class="lhsText">1..1</text>
<line class="connector" marker-start="url(#arrowStart)" x1="353.89" y1="16.88" x2="383.89" y2="16.88" />
<line class="connector" x1="383.89" y1="16.88" x2="383.89" y2="50.62" />
</g>
<g>
<g transform="translate(443.89 3.75)">
<a href="StructureDefinition-BreastComposition-definitions.html#Observation.code" target="_top">
<rect class="element" x="0" y="0" width="52.22" height="26.25" rx="3.75" ry="3.75" />
</a>
<a href="StructureDefinition-BreastComposition-definitions.html#Observation.code" target="_top">
<text x="5.62" y="18.75" text-anchor="left" class="element">Code</text>
</a>
</g>
<line class="connector" marker-end="url(#arrowEnd)" x1="526.11" y1="16.88" x2="646.11" y2="16.88" />
<text x="529.86" y="13.12" text-anchor="right" class="lhsText">pattern </text>
<line class="connector" marker-start="url(#arrowStart)" x1="496.11" y1="16.88" x2="526.11" y2="16.88" />
<line class="connector" x1="526.11" y1="16.88" x2="526.11" y2="16.88" />
</g>
<g>
<g transform="translate(646.11 3.75)">
<a href="CodeSystem-ObservationCodesCS.html" target="_top">
<rect class="value" x="0" y="0" width="407.61" height="26.25" rx="3.75" ry="3.75" />
</a>
<a href="CodeSystem-ObservationCodesCS.html" target="_top">
<text x="5.62" y="18.75" text-anchor="left" class="value">ObservationCodesCS#breastCompositionObservation</text>
</a>
</g>
</g>
<g>
<g transform="translate(443.89 37.5)">
<a href="StructureDefinition-BreastComposition-definitions.html#Observation.value[x]" target="_top">
<rect class="element" x="0" y="0" width="54.98" height="26.25" rx="3.75" ry="3.75" />
</a>
<a href="StructureDefinition-BreastComposition-definitions.html#Observation.value[x]" target="_top">
<text x="5.62" y="18.75" text-anchor="left" class="element">Value</text>
</a>
</g>
<line class="connector" marker-end="url(#arrowEnd)" x1="528.87" y1="50.62" x2="588.87" y2="50.62" />
<text x="532.62" y="46.88" text-anchor="right" class="lhsText">bind</text>
<line class="connector" marker-start="url(#arrowStart)" x1="498.87" y1="50.62" x2="528.87" y2="50.62" />
<line class="connector" x1="528.87" y1="50.62" x2="528.87" y2="50.62" />
</g>
<g>
<g transform="translate(588.87 37.5)">
<a href="ValueSet-BiRadsBreastCompositionVS.html" target="_top">
<rect class="valueSet" x="0" y="0" width="227.16" height="26.25" rx="3.75" ry="3.75" />
</a>
<a href="ValueSet-BiRadsBreastCompositionVS.html" target="_top">
<text x="5.62" y="18.75" text-anchor="left" class="valueSet">BiRadsBreastCompositionVS</text>
</a>
</g>
</g>
<g>
<g transform="translate(3.75 236.25)">
<rect class="focus" x="0" y="0" width="57.72" height="26.25" rx="3.75" ry="3.75" />
<text x="5.62" y="18.75" text-anchor="left" class="focus">Focus</text>
</g>
<g transform="translate(68.97 236.25)">
<rect class="profile" x="0" y="0" width="143.81" height="26.25" rx="3.75" ry="3.75" />
<text x="5.62" y="18.75" text-anchor="left" class="profile">Profiled Resource</text>
</g>
<g transform="translate(220.28 236.25)">
<rect class="element" x="0" y="0" width="148.39" height="26.25" rx="3.75" ry="3.75" />
<text x="5.62" y="18.75" text-anchor="left" class="element">Resource Element</text>
</g>
<g transform="translate(376.16 236.25)">
<rect class="valueSet" x="0" y="0" width="79.72" height="26.25" rx="3.75" ry="3.75" />
<text x="5.62" y="18.75" text-anchor="left" class="valueSet">ValueSet</text>
</g>
<g transform="translate(463.38 236.25)">
<rect class="value" x="0" y="0" width="54.98" height="26.25" rx="3.75" ry="3.75" />
<text x="5.62" y="18.75" text-anchor="left" class="value">Value</text>
</g>
</g>
</svg>
