<?xml version="1.0"?>
<?xml-stylesheet type="text/css" href="FocusGraph.css" ?>
<!DOCTYPE svg PUBLIC "-//W3C//DTD SVG 1.1//EN" "http://www.w3.org/Graphics/SVG/1.1/DTD/svg11.dtd">
<svg xmlns="http://www.w3.org/2000/svg" version="1.1" width="811.25" height="221.25">
<defs>
<marker id="arrowStart" markerWidth="3.75" markerHeight="3.75" markerUnits="px" refX="1.88" refY="1.88">
<circle class="connector" cx="1.88" cy="1.88" r="1.88" />
</marker>
<marker id="arrowEnd" markerWidth="7.5" markerHeight="7.5" markerUnits="px" refX="7.5" refY="3.75">
<polygon class="connector" points="0 0 7.5 3.75 0 7.5" />
</marker>
</defs>
<g>
<g transform="translate(3.75 3.75)">
<a href="StructureDefinition-BreastImagingComposition.html" target="_top">
<rect class="profile" x="0" y="0" width="104.43" height="63.75" rx="3.75" ry="3.75" />
</a>
<a href="StructureDefinition-BreastImagingComposition.html" target="_top">
<title />
<text x="5.62" y="18.75" text-anchor="left" class="profile">Breast</text>
</a>
<a href="StructureDefinition-BreastImagingComposition.html" target="_top">
<title />
<text x="5.62" y="37.5" text-anchor="left" class="profile">Imaging</text>
</a>
<a href="StructureDefinition-BreastImagingComposition.html" target="_top">
<title />
<text x="5.62" y="56.25" text-anchor="left" class="profile">Composition</text>
</a>
</g>
<line class="connector" marker-end="url(#arrowEnd)" x1="138.18" y1="16.88" x2="198.18" y2="16.88" />
<text x="141.93" y="13.12" text-anchor="right" class="lhsText">1..1</text>
<line class="connector" marker-start="url(#arrowStart)" x1="108.18" y1="35.62" x2="138.18" y2="35.62" />
<line class="connector" x1="138.18" y1="16.88" x2="138.18" y2="35.62" />
</g>
<g>
<g transform="translate(198.18 3.75)">
<a href="StructureDefinition-BreastImagingReport.html" target="_top">
<rect class="focus" x="0" y="0" width="62.29" height="26.25" rx="3.75" ry="3.75" />
</a>
<a href="StructureDefinition-BreastImagingReport.html" target="_top">
<title />
<text x="5.62" y="18.75" text-anchor="left" class="focus">Report</text>
</a>
</g>
<line class="connector" marker-end="url(#arrowEnd)" x1="290.46" y1="16.88" x2="350.46" y2="16.88" />
<text x="294.21" y="13.12" text-anchor="right" class="lhsText">0..1</text>
<line class="connector" marker-end="url(#arrowEnd)" x1="290.46" y1="50.62" x2="350.46" y2="50.62" />
<text x="294.21" y="46.88" text-anchor="right" class="lhsText">0..*</text>
<line class="connector" marker-end="url(#arrowEnd)" x1="290.46" y1="84.38" x2="350.46" y2="84.38" />
<text x="294.21" y="80.62" text-anchor="right" class="lhsText">1..1</text>
<line class="connector" marker-start="url(#arrowStart)" x1="260.46" y1="16.88" x2="290.46" y2="16.88" />
<line class="connector" x1="290.46" y1="16.88" x2="290.46" y2="84.38" />
</g>
<g>
<g transform="translate(350.46 3.75)">
<a href="StructureDefinition-BreastImagingReport-definitions.html#DiagnosticReport.conclusionCode:BiRads" target="_top">
<rect class="element" x="0" y="0" width="65.96" height="26.25" rx="3.75" ry="3.75" />
</a>
<a href="StructureDefinition-BreastImagingReport-definitions.html#DiagnosticReport.conclusionCode:BiRads" target="_top">
<title />
<text x="5.62" y="18.75" text-anchor="left" class="element">BiRads</text>
</a>
</g>
</g>
<g>
<g transform="translate(350.46 37.5)">
<a href="StructureDefinition-BreastImagingReport-definitions.html#DiagnosticReport.conclusionCode" target="_top">
<rect class="element" x="0" y="0" width="133.76" height="26.25" rx="3.75" ry="3.75" />
</a>
<a href="StructureDefinition-BreastImagingReport-definitions.html#DiagnosticReport.conclusionCode" target="_top">
<title />
<text x="5.62" y="18.75" text-anchor="left" class="element">ConclusionCode</text>
</a>
</g>
<line class="connector" marker-end="url(#arrowEnd)" x1="514.22" y1="50.62" x2="574.22" y2="50.62" />
<text x="517.97" y="46.88" text-anchor="right" class="lhsText">0..1</text>
<line class="connector" marker-start="url(#arrowStart)" x1="484.22" y1="50.62" x2="514.22" y2="50.62" />
<line class="connector" x1="514.22" y1="50.62" x2="514.22" y2="50.62" />
</g>
<g>
<g transform="translate(574.22 37.5)">
<a href="StructureDefinition-BreastImagingReport-definitions.html#DiagnosticReport.conclusionCode:BiRads" target="_top">
<rect class="element" x="0" y="0" width="65.96" height="26.25" rx="3.75" ry="3.75" />
</a>
<a href="StructureDefinition-BreastImagingReport-definitions.html#DiagnosticReport.conclusionCode:BiRads" target="_top">
<title />
<text x="5.62" y="18.75" text-anchor="left" class="element">BiRads</text>
</a>
</g>
</g>
<g>
<g transform="translate(350.46 71.25)">
<a href="StructureDefinition-BreastImagingReport-definitions.html#DiagnosticReport.code" target="_top">
<rect class="element" x="0" y="0" width="103.51" height="26.25" rx="3.75" ry="3.75" />
</a>
<a href="StructureDefinition-BreastImagingReport-definitions.html#DiagnosticReport.code" target="_top">
<title />
<text x="5.62" y="18.75" text-anchor="left" class="element">Report Type</text>
</a>
</g>
<line class="connector" marker-end="url(#arrowEnd)" x1="483.97" y1="84.38" x2="543.97" y2="84.38" />
<text x="487.72" y="80.62" text-anchor="right" class="lhsText">bind</text>
<line class="connector" marker-start="url(#arrowStart)" x1="453.97" y1="84.38" x2="483.97" y2="84.38" />
<line class="connector" x1="483.97" y1="84.38" x2="483.97" y2="84.38" />
</g>
<g>
<g transform="translate(543.97 71.25)">
<a href="ValueSet-BreastImagingReportTypesVS.html" target="_top">
<rect class="valueSet" x="0" y="0" width="235.4" height="26.25" rx="3.75" ry="3.75" />
</a>
<a href="ValueSet-BreastImagingReportTypesVS.html" target="_top">
<title />
<text x="5.62" y="18.75" text-anchor="left" class="valueSet">BreastImagingReportTypesVS</text>
</a>
</g>
</g>
<g>
<g transform="translate(3.75 180)">
<a target="_top">
<rect class="focus" x="0" y="0" width="57.72" height="26.25" rx="3.75" ry="3.75" />
</a>
<a target="_top">
<title />
<text x="5.62" y="18.75" text-anchor="left" class="focus">Focus</text>
</a>
</g>
<g transform="translate(68.97 180)">
<a target="_top">
<rect class="profile" x="0" y="0" width="143.81" height="26.25" rx="3.75" ry="3.75" />
</a>
<a target="_top">
<title />
<text x="5.62" y="18.75" text-anchor="left" class="profile">Profiled Resource</text>
</a>
</g>
<g transform="translate(220.28 180)">
<a target="_top">
<rect class="element" x="0" y="0" width="148.39" height="26.25" rx="3.75" ry="3.75" />
</a>
<a target="_top">
<title />
<text x="5.62" y="18.75" text-anchor="left" class="element">Resource Element</text>
</a>
</g>
<g transform="translate(376.16 180)">
<a target="_top">
<rect class="valueSet" x="0" y="0" width="79.72" height="26.25" rx="3.75" ry="3.75" />
</a>
<a target="_top">
<title />
<text x="5.62" y="18.75" text-anchor="left" class="valueSet">ValueSet</text>
</a>
</g>
</g>
</svg>
