<?xml version="1.0"?>
<?xml-stylesheet type="text/css" href="FocusGraph.css" ?>
<!DOCTYPE svg PUBLIC "-//W3C//DTD SVG 1.1//EN" "http://www.w3.org/Graphics/SVG/1.1/DTD/svg11.dtd">
<svg xmlns="http://www.w3.org/2000/svg" version="1.1" width="1209.375" height="787.5">
<defs>
<marker id="arrowStart" markerWidth="3.75" markerHeight="3.75" markerUnits="px" refX="1.875" refY="1.875">
<circle fill="Black" stroke-width="0" cx="1.875" cy="1.875" r="1.875" />
</marker>
<marker id="arrowEnd" markerWidth="7.5" markerHeight="7.5" markerUnits="px" refX="7.5" refY="3.75">
<polygon fill="Black" stroke-width="0" points="0 0 7.5 3.75 0 7.5" />
</marker>
</defs>
<g>
<g transform="translate(7.5 7.5)">
<a href="StructureDefinition-MGAbnormalityAsymmetry.html" target="_top">
<rect class="focus" fill="White" stroke="Black" stroke-width="1.875" x="0" y="0" width="235.5" height="33.75" rx="3.75" ry="3.75" />
</a>
<a href="StructureDefinition-MGAbnormalityAsymmetry.html" target="_top">
<text x="117.75" y="22.5" text-anchor="middle" class="focus">Asymmetry Abnormality</text>
</a>
</g>
<line stroke="Black" stroke-width="1.875" marker-end="url(#arrowEnd)" x1="273" y1="24.375" x2="333" y2="24.375" />
<text x="276.75" y="20.625" text-anchor="right" class="lhsText">1..*</text>
<line stroke="Black" stroke-width="1.875" marker-end="url(#arrowEnd)" x1="273" y1="665.625" x2="333" y2="665.625" />
<text x="276.75" y="661.875" text-anchor="right" class="lhsText">1..1</text>
<line stroke="Black" stroke-width="1.875" marker-end="url(#arrowEnd)" x1="273" y1="706.875" x2="333" y2="706.875" />
<text x="276.75" y="703.125" text-anchor="right" class="lhsText">0..*</text>
<line stroke="Black" stroke-width="1.875" marker-start="url(#arrowStart)" x1="243.00002" y1="24.375" x2="273" y2="24.375" />
<line stroke="Black" stroke-width="1.875" x1="273" y1="24.375" x2="273" y2="706.875" />
</g>
<g>
<g transform="translate(333 7.5)">
<a href="StructureDefinition-MGAbnormalityAsymmetry-definitions.html#Observation.component" target="_top">
<rect class="element" fill="White" stroke="Black" stroke-width="1.875" x="0" y="0" width="120" height="33.75" rx="3.75" ry="3.75" />
</a>
<a href="StructureDefinition-MGAbnormalityAsymmetry-definitions.html#Observation.component" target="_top">
<text x="60" y="22.5" text-anchor="middle" class="element">Components</text>
</a>
</g>
<line stroke="Black" stroke-width="1.875" marker-end="url(#arrowEnd)" x1="483" y1="24.375" x2="543" y2="24.375" />
<text x="486.75" y="20.625" text-anchor="right" class="lhsText">1..1</text>
<line stroke="Black" stroke-width="1.875" marker-end="url(#arrowEnd)" x1="483" y1="84.375" x2="543" y2="84.375" />
<text x="486.75" y="80.625" text-anchor="right" class="lhsText">0..*</text>
<line stroke="Black" stroke-width="1.875" marker-end="url(#arrowEnd)" x1="483" y1="144.375" x2="543" y2="144.375" />
<text x="486.75" y="140.625" text-anchor="right" class="lhsText">0..1</text>
<line stroke="Black" stroke-width="1.875" marker-end="url(#arrowEnd)" x1="483" y1="204.375" x2="543" y2="204.375" />
<text x="486.75" y="200.625" text-anchor="right" class="lhsText">0..1</text>
<line stroke="Black" stroke-width="1.875" marker-end="url(#arrowEnd)" x1="483" y1="264.375" x2="543" y2="264.375" />
<text x="486.75" y="260.625" text-anchor="right" class="lhsText">0..1</text>
<line stroke="Black" stroke-width="1.875" marker-end="url(#arrowEnd)" x1="483" y1="324.375" x2="543" y2="324.375" />
<text x="486.75" y="320.625" text-anchor="right" class="lhsText">0..1</text>
<line stroke="Black" stroke-width="1.875" marker-end="url(#arrowEnd)" x1="483" y1="384.375" x2="543" y2="384.375" />
<text x="486.75" y="380.625" text-anchor="right" class="lhsText">0..1</text>
<line stroke="Black" stroke-width="1.875" marker-end="url(#arrowEnd)" x1="483" y1="444.375" x2="543" y2="444.375" />
<text x="486.75" y="440.625" text-anchor="right" class="lhsText">0..*</text>
<line stroke="Black" stroke-width="1.875" marker-end="url(#arrowEnd)" x1="483" y1="504.375" x2="543" y2="504.375" />
<text x="486.75" y="500.625" text-anchor="right" class="lhsText">0..1</text>
<line stroke="Black" stroke-width="1.875" marker-end="url(#arrowEnd)" x1="483" y1="545.625" x2="543" y2="545.625" />
<text x="486.75" y="541.875" text-anchor="right" class="lhsText">0..*</text>
<line stroke="Black" stroke-width="1.875" marker-end="url(#arrowEnd)" x1="483" y1="615" x2="543" y2="615" />
<text x="486.75" y="611.25" text-anchor="right" class="lhsText">0..*</text>
<line stroke="Black" stroke-width="1.875" marker-start="url(#arrowStart)" x1="453" y1="24.375" x2="483" y2="24.375" />
<line stroke="Black" stroke-width="1.875" x1="483" y1="24.375" x2="483" y2="615" />
</g>
<g>
<g transform="translate(543 7.5)">
<a href="StructureDefinition-MGAbnormalityAsymmetry-definitions.html#Observation.component:asymmetryType" target="_top">
<rect class="element" fill="White" stroke="Black" stroke-width="1.875" x="0" y="0" width="162" height="33.75" rx="3.75" ry="3.75" />
</a>
<a href="StructureDefinition-MGAbnormalityAsymmetry-definitions.html#Observation.component:asymmetryType" target="_top">
<text x="81" y="22.5" text-anchor="middle" class="element">Asymmetry Type</text>
</a>
</g>
<line stroke="Black" stroke-width="1.875" marker-end="url(#arrowEnd)" x1="735" y1="33.75" x2="795" y2="33.75" />
<text x="738.75" y="30" text-anchor="right" class="lhsText">bind</text>
<line stroke="Black" stroke-width="1.875" marker-start="url(#arrowStart)" x1="705" y1="24.375" x2="735" y2="24.375" />
<line stroke="Black" stroke-width="1.875" x1="735" y1="24.375" x2="735" y2="33.75" />
</g>
<g>
<g transform="translate(795 7.5)">
<a href="ValueSet-MGAbnormalityAsymmetryTypeVS.html" target="_top">
<rect class="valueSet" fill="White" stroke="Black" stroke-width="1.875" x="0" y="0" width="309" height="52.5" rx="3.75" ry="3.75" />
</a>
<a href="ValueSet-MGAbnormalityAsymmetryTypeVS.html" target="_top">
<text x="154.5" y="22.5" text-anchor="middle" class="valueSet">MGAbnormalityAsymmetryTypeVS</text>
</a>
<a href="ValueSet-MGAbnormalityAsymmetryTypeVS.html" target="_top">
<text x="154.5" y="41.25" text-anchor="middle" class="valueSet">ValueSet</text>
</a>
</g>
</g>
<g>
<g transform="translate(543 67.5)">
<a href="StructureDefinition-MGAbnormalityAsymmetry-definitions.html#Observation.component:obsChanges" target="_top">
<rect class="element" fill="White" stroke="Black" stroke-width="1.875" x="0" y="0" width="183" height="33.75" rx="3.75" ry="3.75" />
</a>
<a href="StructureDefinition-MGAbnormalityAsymmetry-definitions.html#Observation.component:obsChanges" target="_top">
<text x="91.5" y="22.5" text-anchor="middle" class="element">Observed Changes</text>
</a>
</g>
<line stroke="Black" stroke-width="1.875" marker-end="url(#arrowEnd)" x1="756" y1="93.75" x2="816" y2="93.75" />
<text x="759.75" y="90" text-anchor="right" class="lhsText">bind</text>
<line stroke="Black" stroke-width="1.875" marker-start="url(#arrowStart)" x1="726" y1="84.375" x2="756" y2="84.375" />
<line stroke="Black" stroke-width="1.875" x1="756" y1="84.375" x2="756" y2="93.75" />
</g>
<g>
<g transform="translate(816 67.5)">
<a href="ValueSet-ObservedChangesVS.html" target="_top">
<rect class="valueSet" fill="White" stroke="Black" stroke-width="1.875" x="0" y="0" width="193.5" height="52.5" rx="3.75" ry="3.75" />
</a>
<a href="ValueSet-ObservedChangesVS.html" target="_top">
<text x="96.75" y="22.5" text-anchor="middle" class="valueSet">ObservedChangesVS</text>
</a>
<a href="ValueSet-ObservedChangesVS.html" target="_top">
<text x="96.75" y="41.25" text-anchor="middle" class="valueSet">ValueSet</text>
</a>
</g>
</g>
<g>
<g transform="translate(543 127.5)">
<a href="StructureDefinition-MGAbnormalityAsymmetry-definitions.html#Observation.component:biRadsAssessmentCategory" target="_top">
<rect class="element" fill="White" stroke="Black" stroke-width="1.875" x="0" y="0" width="78" height="33.75" rx="3.75" ry="3.75" />
</a>
<a href="StructureDefinition-MGAbnormalityAsymmetry-definitions.html#Observation.component:biRadsAssessmentCategory" target="_top">
<text x="39" y="22.5" text-anchor="middle" class="element">BiRads</text>
</a>
</g>
<line stroke="Black" stroke-width="1.875" marker-end="url(#arrowEnd)" x1="651" y1="153.75" x2="711" y2="153.75" />
<text x="654.75" y="150" text-anchor="right" class="lhsText">bind</text>
<line stroke="Black" stroke-width="1.875" marker-start="url(#arrowStart)" x1="621" y1="144.375" x2="651" y2="144.375" />
<line stroke="Black" stroke-width="1.875" x1="651" y1="144.375" x2="651" y2="153.75" />
</g>
<g>
<g transform="translate(711 127.5)">
<a href="ValueSet-BiRadsAssessmentCategoryVS.html" target="_top">
<rect class="valueSet" fill="White" stroke="Black" stroke-width="1.875" x="0" y="0" width="287.99997" height="52.5" rx="3.75" ry="3.75" />
</a>
<a href="ValueSet-BiRadsAssessmentCategoryVS.html" target="_top">
<text x="143.99998" y="22.5" text-anchor="middle" class="valueSet">BiRadsAssessmentCategoryVS</text>
</a>
<a href="ValueSet-BiRadsAssessmentCategoryVS.html" target="_top">
<text x="143.99998" y="41.25" text-anchor="middle" class="valueSet">ValueSet</text>
</a>
</g>
</g>
<g>
<g transform="translate(543 187.5)">
<a href="StructureDefinition-MGAbnormalityAsymmetry-definitions.html#Observation.component:orientation" target="_top">
<rect class="element" fill="White" stroke="Black" stroke-width="1.875" x="0" y="0" width="130.5" height="33.75" rx="3.75" ry="3.75" />
</a>
<a href="StructureDefinition-MGAbnormalityAsymmetry-definitions.html#Observation.component:orientation" target="_top">
<text x="65.25" y="22.5" text-anchor="middle" class="element">Orientation</text>
</a>
</g>
<line stroke="Black" stroke-width="1.875" marker-end="url(#arrowEnd)" x1="703.5" y1="213.75" x2="763.5" y2="213.75" />
<text x="707.25" y="210" text-anchor="right" class="lhsText">bind</text>
<line stroke="Black" stroke-width="1.875" marker-start="url(#arrowStart)" x1="673.5" y1="204.375" x2="703.5" y2="204.375" />
<line stroke="Black" stroke-width="1.875" x1="703.5" y1="204.375" x2="703.5" y2="213.75" />
</g>
<g>
<g transform="translate(763.5 187.5)">
<a href="ValueSet-OrientationVS.html" target="_top">
<rect class="valueSet" fill="White" stroke="Black" stroke-width="1.875" x="0" y="0" width="151.49998" height="52.5" rx="3.75" ry="3.75" />
</a>
<a href="ValueSet-OrientationVS.html" target="_top">
<text x="75.74999" y="22.5" text-anchor="middle" class="valueSet">OrientationVS</text>
</a>
<a href="ValueSet-OrientationVS.html" target="_top">
<text x="75.74999" y="41.25" text-anchor="middle" class="valueSet">ValueSet</text>
</a>
</g>
</g>
<g>
<g transform="translate(543 247.5)">
<a href="StructureDefinition-MGAbnormalityAsymmetry-definitions.html#Observation.component:shape" target="_top">
<rect class="element" fill="White" stroke="Black" stroke-width="1.875" x="0" y="0" width="67.5" height="33.75" rx="3.75" ry="3.75" />
</a>
<a href="StructureDefinition-MGAbnormalityAsymmetry-definitions.html#Observation.component:shape" target="_top">
<text x="33.75" y="22.5" text-anchor="middle" class="element">Shape</text>
</a>
</g>
<line stroke="Black" stroke-width="1.875" marker-end="url(#arrowEnd)" x1="640.5" y1="273.75" x2="700.5" y2="273.75" />
<text x="644.25" y="270" text-anchor="right" class="lhsText">bind</text>
<line stroke="Black" stroke-width="1.875" marker-start="url(#arrowStart)" x1="610.5" y1="264.375" x2="640.5" y2="264.375" />
<line stroke="Black" stroke-width="1.875" x1="640.5" y1="264.375" x2="640.5" y2="273.75" />
</g>
<g>
<g transform="translate(700.5 247.5)">
<a href="ValueSet-ShapeVS.html" target="_top">
<rect class="valueSet" fill="White" stroke="Black" stroke-width="1.875" x="0" y="0" width="99" height="52.5" rx="3.75" ry="3.75" />
</a>
<a href="ValueSet-ShapeVS.html" target="_top">
<text x="49.5" y="22.5" text-anchor="middle" class="valueSet">ShapeVS</text>
</a>
<a href="ValueSet-ShapeVS.html" target="_top">
<text x="49.5" y="41.25" text-anchor="middle" class="valueSet">ValueSet</text>
</a>
</g>
</g>
<g>
<g transform="translate(543 307.5)">
<a href="StructureDefinition-MGAbnormalityAsymmetry-definitions.html#Observation.component:margin" target="_top">
<rect class="element" fill="White" stroke="Black" stroke-width="1.875" x="0" y="0" width="78" height="33.75" rx="3.75" ry="3.75" />
</a>
<a href="StructureDefinition-MGAbnormalityAsymmetry-definitions.html#Observation.component:margin" target="_top">
<text x="39" y="22.5" text-anchor="middle" class="element">Margin</text>
</a>
</g>
<line stroke="Black" stroke-width="1.875" marker-end="url(#arrowEnd)" x1="651" y1="333.75" x2="711" y2="333.75" />
<text x="654.75" y="330" text-anchor="right" class="lhsText">bind</text>
<line stroke="Black" stroke-width="1.875" marker-start="url(#arrowStart)" x1="621" y1="324.375" x2="651" y2="324.375" />
<line stroke="Black" stroke-width="1.875" x1="651" y1="324.375" x2="651" y2="333.75" />
</g>
<g>
<g transform="translate(711 307.5)">
<a href="ValueSet-ShapeVS.html" target="_top">
<rect class="valueSet" fill="White" stroke="Black" stroke-width="1.875" x="0" y="0" width="99" height="52.5" rx="3.75" ry="3.75" />
</a>
<a href="ValueSet-ShapeVS.html" target="_top">
<text x="49.5" y="22.5" text-anchor="middle" class="valueSet">ShapeVS</text>
</a>
<a href="ValueSet-ShapeVS.html" target="_top">
<text x="49.5" y="41.25" text-anchor="middle" class="valueSet">ValueSet</text>
</a>
</g>
</g>
<g>
<g transform="translate(543 367.5)">
<a href="StructureDefinition-MGAbnormalityAsymmetry-definitions.html#Observation.component:mgBreastDensity" target="_top">
<rect class="element" fill="White" stroke="Black" stroke-width="1.875" x="0" y="0" width="88.5" height="33.75" rx="3.75" ry="3.75" />
</a>
<a href="StructureDefinition-MGAbnormalityAsymmetry-definitions.html#Observation.component:mgBreastDensity" target="_top">
<text x="44.25" y="22.5" text-anchor="middle" class="element">Density</text>
</a>
</g>
<line stroke="Black" stroke-width="1.875" marker-end="url(#arrowEnd)" x1="661.50006" y1="393.75" x2="721.50006" y2="393.75" />
<text x="665.25006" y="390" text-anchor="right" class="lhsText">bind</text>
<line stroke="Black" stroke-width="1.875" marker-start="url(#arrowStart)" x1="631.50006" y1="384.375" x2="661.50006" y2="384.375" />
<line stroke="Black" stroke-width="1.875" x1="661.50006" y1="384.375" x2="661.50006" y2="393.75" />
</g>
<g>
<g transform="translate(721.50006 367.5)">
<a href="ValueSet-MGBreastDensityVS.html" target="_top">
<rect class="valueSet" fill="White" stroke="Black" stroke-width="1.875" x="0" y="0" width="193.5" height="52.5" rx="3.75" ry="3.75" />
</a>
<a href="ValueSet-MGBreastDensityVS.html" target="_top">
<text x="96.75" y="22.5" text-anchor="middle" class="valueSet">MGBreastDensityVS</text>
</a>
<a href="ValueSet-MGBreastDensityVS.html" target="_top">
<text x="96.75" y="41.25" text-anchor="middle" class="valueSet">ValueSet</text>
</a>
</g>
</g>
<g>
<g transform="translate(543 427.5)">
<a href="StructureDefinition-MGAbnormalityAsymmetry-definitions.html#Observation.component:notPreviouslySeen" target="_top">
<rect class="element" fill="White" stroke="Black" stroke-width="1.875" x="0" y="0" width="214.5" height="33.75" rx="3.75" ry="3.75" />
</a>
<a href="StructureDefinition-MGAbnormalityAsymmetry-definitions.html#Observation.component:notPreviouslySeen" target="_top">
<text x="107.25" y="22.5" text-anchor="middle" class="element">Not Previously Seen</text>
</a>
</g>
<line stroke="Black" stroke-width="1.875" marker-end="url(#arrowEnd)" x1="787.5" y1="453.75" x2="847.5" y2="453.75" />
<text x="791.25" y="450" text-anchor="right" class="lhsText">bind</text>
<line stroke="Black" stroke-width="1.875" marker-start="url(#arrowStart)" x1="757.5" y1="444.375" x2="787.5" y2="444.375" />
<line stroke="Black" stroke-width="1.875" x1="787.5" y1="444.375" x2="787.5" y2="453.75" />
</g>
<g>
<g transform="translate(847.5 427.5)">
<a href="ValueSet-NotPreviouslySeenVS.html" target="_top">
<rect class="valueSet" fill="White" stroke="Black" stroke-width="1.875" x="0" y="0" width="214.5" height="52.5" rx="3.75" ry="3.75" />
</a>
<a href="ValueSet-NotPreviouslySeenVS.html" target="_top">
<text x="107.25" y="22.5" text-anchor="middle" class="valueSet">NotPreviouslySeenVS</text>
</a>
<a href="ValueSet-NotPreviouslySeenVS.html" target="_top">
<text x="107.25" y="41.25" text-anchor="middle" class="valueSet">ValueSet</text>
</a>
</g>
</g>
<g>
<g transform="translate(543 487.5)">
<a href="StructureDefinition-MGAbnormalityAsymmetry-definitions.html#Observation.component:observedCount" target="_top">
<rect class="element" fill="White" stroke="Black" stroke-width="1.875" x="0" y="0" width="162" height="33.75" rx="3.75" ry="3.75" />
</a>
<a href="StructureDefinition-MGAbnormalityAsymmetry-definitions.html#Observation.component:observedCount" target="_top">
<text x="81" y="22.5" text-anchor="middle" class="element">Observed Count</text>
</a>
</g>
</g>
<g>
<g transform="translate(543 528.75)">
<a href="StructureDefinition-MGAbnormalityAsymmetry-definitions.html#Observation.component:correspondsWith" target="_top">
<rect class="element" fill="White" stroke="Black" stroke-width="1.875" x="0" y="0" width="183" height="33.75" rx="3.75" ry="3.75" />
</a>
<a href="StructureDefinition-MGAbnormalityAsymmetry-definitions.html#Observation.component:correspondsWith" target="_top">
<text x="91.5" y="22.5" text-anchor="middle" class="element">Corresponds With</text>
</a>
</g>
<line stroke="Black" stroke-width="1.875" marker-end="url(#arrowEnd)" x1="756" y1="555" x2="816" y2="555" />
<text x="759.75" y="551.25" text-anchor="right" class="lhsText">bind</text>
<line stroke="Black" stroke-width="1.875" marker-start="url(#arrowStart)" x1="726" y1="545.625" x2="756" y2="545.625" />
<line stroke="Black" stroke-width="1.875" x1="756" y1="545.625" x2="756" y2="555" />
</g>
<g>
<g transform="translate(816 528.75)">
<a href="ValueSet-CorrespondsWithVS.html" target="_top">
<rect class="valueSet" fill="White" stroke="Black" stroke-width="1.875" x="0" y="0" width="193.5" height="52.5" rx="3.75" ry="3.75" />
</a>
<a href="ValueSet-CorrespondsWithVS.html" target="_top">
<text x="96.75" y="22.5" text-anchor="middle" class="valueSet">CorrespondsWithVS</text>
</a>
<a href="ValueSet-CorrespondsWithVS.html" target="_top">
<text x="96.75" y="41.25" text-anchor="middle" class="valueSet">ValueSet</text>
</a>
</g>
</g>
<g>
<g transform="translate(543 588.75)">
<a href="StructureDefinition-MGAbnormalityAsymmetry-definitions.html#Observation.component:prevDemBy" target="_top">
<rect class="element" fill="White" stroke="Black" stroke-width="1.875" x="0" y="0" width="256.5" height="52.5" rx="3.75" ry="3.75" />
</a>
<a href="StructureDefinition-MGAbnormalityAsymmetry-definitions.html#Observation.component:prevDemBy" target="_top">
<text x="128.25" y="22.5" text-anchor="middle" class="element">Previously</text>
</a>
<a href="StructureDefinition-MGAbnormalityAsymmetry-definitions.html#Observation.component:prevDemBy" target="_top">
<text x="128.25" y="41.25" text-anchor="middle" class="element">Demonstrated by Changes</text>
</a>
</g>
<line stroke="Black" stroke-width="1.875" marker-end="url(#arrowEnd)" x1="829.50006" y1="615" x2="889.50006" y2="615" />
<text x="833.25006" y="611.25" text-anchor="right" class="lhsText">bind</text>
<line stroke="Black" stroke-width="1.875" marker-start="url(#arrowStart)" x1="799.50006" y1="615" x2="829.50006" y2="615" />
<line stroke="Black" stroke-width="1.875" x1="829.50006" y1="615" x2="829.50006" y2="615" />
</g>
<g>
<g transform="translate(889.50006 588.75)">
<a href="ValueSet-PreviouslyDemonstratedByVS.html" target="_top">
<rect class="valueSet" fill="White" stroke="Black" stroke-width="1.875" x="0" y="0" width="287.99997" height="52.5" rx="3.75" ry="3.75" />
</a>
<a href="ValueSet-PreviouslyDemonstratedByVS.html" target="_top">
<text x="143.99998" y="22.5" text-anchor="middle" class="valueSet">PreviouslyDemonstratedByVS</text>
</a>
<a href="ValueSet-PreviouslyDemonstratedByVS.html" target="_top">
<text x="143.99998" y="41.25" text-anchor="middle" class="valueSet">ValueSet</text>
</a>
</g>
</g>
<g>
<g transform="translate(333 648.75)">
<a href="StructureDefinition-MGAbnormalityAsymmetry-definitions.html#Observation.bodySite" target="_top">
<rect class="element" fill="White" stroke="Black" stroke-width="1.875" x="0" y="0" width="99" height="33.75" rx="3.75" ry="3.75" />
</a>
<a href="StructureDefinition-MGAbnormalityAsymmetry-definitions.html#Observation.bodySite" target="_top">
<text x="49.5" y="22.5" text-anchor="middle" class="element">BodySite</text>
</a>
</g>
<line stroke="Black" stroke-width="1.875" marker-end="url(#arrowEnd)" x1="462.00003" y1="665.625" x2="522.00006" y2="665.625" />
<text x="465.75003" y="661.875" text-anchor="right" class="lhsText">1..*</text>
<line stroke="Black" stroke-width="1.875" marker-start="url(#arrowStart)" x1="432.00003" y1="665.625" x2="462.00003" y2="665.625" />
<line stroke="Black" stroke-width="1.875" x1="462.00003" y1="665.625" x2="462.00003" y2="665.625" />
</g>
<g>
<g transform="translate(522.00006 648.75)">
<a href="StructureDefinition-MGAbnormalityAsymmetry-definitions.html#Observation.bodySite.extension" target="_top">
<rect class="element" fill="White" stroke="Black" stroke-width="1.875" x="0" y="0" width="109.49999" height="33.75" rx="3.75" ry="3.75" />
</a>
<a href="StructureDefinition-MGAbnormalityAsymmetry-definitions.html#Observation.bodySite.extension" target="_top">
<text x="54.749996" y="22.5" text-anchor="middle" class="element">extension</text>
</a>
</g>
<line stroke="Black" stroke-width="1.875" marker-end="url(#arrowEnd)" x1="661.50006" y1="665.625" x2="691.50006" y2="665.625" />
<line stroke="Black" stroke-width="1.875" marker-start="url(#arrowStart)" x1="631.50006" y1="665.625" x2="661.50006" y2="665.625" />
<line stroke="Black" stroke-width="1.875" x1="661.50006" y1="665.625" x2="661.50006" y2="665.625" />
</g>
<g>
<g transform="translate(691.50006 648.75)">
<a href="StructureDefinition-BreastBodyLocationExtension.html" target="_top">
<rect class="extension" fill="White" stroke="Black" stroke-width="1.875" x="0" y="0" width="203.99998" height="33.75" rx="3.75" ry="3.75" />
</a>
<a href="StructureDefinition-BreastBodyLocationExtension.html" target="_top">
<text x="101.99999" y="22.5" text-anchor="middle" class="extension">BreastBodyLocation</text>
</a>
</g>
</g>
<g>
<g transform="translate(333 690)">
<a href="StructureDefinition-MGAbnormalityAsymmetry-definitions.html#Observation.hasMember" target="_top">
<rect class="element" fill="White" stroke="Black" stroke-width="1.875" x="0" y="0" width="109.49999" height="33.75" rx="3.75" ry="3.75" />
</a>
<a href="StructureDefinition-MGAbnormalityAsymmetry-definitions.html#Observation.hasMember" target="_top">
<text x="54.749996" y="22.5" text-anchor="middle" class="element">HasMember</text>
</a>
</g>
<line stroke="Black" stroke-width="1.875" marker-end="url(#arrowEnd)" x1="502.5" y1="706.875" x2="532.5" y2="706.875" />
<line stroke="Black" stroke-width="1.875" marker-end="url(#arrowEnd)" x1="502.5" y1="748.125" x2="532.5" y2="748.125" />
<line stroke="Black" stroke-width="1.875" marker-start="url(#arrowStart)" x1="442.5" y1="706.875" x2="502.5" y2="706.875" />
<text x="446.25" y="703.125" text-anchor="left" class="rhsText">0..*</text>
<line stroke="Black" stroke-width="1.875" x1="502.5" y1="706.875" x2="502.5" y2="748.125" />
</g>
<g>
<g transform="translate(532.5 690)">
<a href="StructureDefinition-AssociatedFeature.html" target="_top">
<rect class="profile" fill="White" stroke="Black" stroke-width="1.875" x="0" y="0" width="193.5" height="33.75" rx="3.75" ry="3.75" />
</a>
<a href="StructureDefinition-AssociatedFeature.html" target="_top">
<text x="96.75" y="22.5" text-anchor="middle" class="profile">AssociatedFeature</text>
</a>
</g>
</g>
<g>
<g transform="translate(532.5 731.25)">
<a href="StructureDefinition-ConsistentWith.html" target="_top">
<rect class="profile" fill="White" stroke="Black" stroke-width="1.875" x="0" y="0" width="162" height="33.75" rx="3.75" ry="3.75" />
</a>
<a href="StructureDefinition-ConsistentWith.html" target="_top">
<text x="81" y="22.5" text-anchor="middle" class="profile">ConsistentWith</text>
</a>
</g>
</g>
</svg>
