<?xml version="1.0"?>
<?xml-stylesheet type="text/css" href="FocusGraph.css" ?>
<!DOCTYPE svg PUBLIC "-//W3C//DTD SVG 1.1//EN" "http://www.w3.org/Graphics/SVG/1.1/DTD/svg11.dtd">
<svg xmlns="http://www.w3.org/2000/svg" version="1.1" width="616.82" height="221.25">
<defs>
<marker id="arrowStart" markerWidth="3.75" markerHeight="3.75" markerUnits="px" refX="1.88" refY="1.88">
<circle class="connector" cx="1.88" cy="1.88" r="1.88" />
</marker>
<marker id="arrowEnd" markerWidth="7.5" markerHeight="7.5" markerUnits="px" refX="7.5" refY="3.75">
<polygon class="connector" points="0 0 7.5 3.75 0 7.5" />
</marker>
</defs>
<g>
<g transform="translate(3.75 3.75)">
<a href="StructureDefinition-BreastImagingReport.html" target="_top">
<rect class="focus" x="0" y="0" width="62.29" height="26.25" rx="3.75" ry="3.75" />
</a>
<a href="StructureDefinition-BreastImagingReport.html" target="_top">
<text x="5.62" y="18.75" text-anchor="left" class="focus">Report</text>
</a>
</g>
<line class="connector" marker-end="url(#arrowEnd)" x1="96.04" y1="16.88" x2="156.04" y2="16.88" />
<text x="99.79" y="13.12" text-anchor="right" class="lhsText">0..1</text>
<line class="connector" marker-end="url(#arrowEnd)" x1="96.04" y1="50.62" x2="156.04" y2="50.62" />
<text x="99.79" y="46.88" text-anchor="right" class="lhsText">0..*</text>
<line class="connector" marker-end="url(#arrowEnd)" x1="96.04" y1="84.38" x2="156.04" y2="84.38" />
<text x="99.79" y="80.62" text-anchor="right" class="lhsText">1..1</text>
<line class="connector" marker-start="url(#arrowStart)" x1="66.04" y1="16.88" x2="96.04" y2="16.88" />
<line class="connector" x1="96.04" y1="16.88" x2="96.04" y2="84.38" />
</g>
<g>
<g transform="translate(156.04 3.75)">
<a href="StructureDefinition-BreastImagingReport-definitions.html#DiagnosticReport.conclusionCode:BiRads" target="_top">
<rect class="element" x="0" y="0" width="65.96" height="26.25" rx="3.75" ry="3.75" />
</a>
<a href="StructureDefinition-BreastImagingReport-definitions.html#DiagnosticReport.conclusionCode:BiRads" target="_top">
<text x="5.62" y="18.75" text-anchor="left" class="element">BiRads</text>
</a>
</g>
</g>
<g>
<g transform="translate(156.04 37.5)">
<a href="StructureDefinition-BreastImagingReport-definitions.html#DiagnosticReport.conclusionCode" target="_top">
<rect class="element" x="0" y="0" width="133.76" height="26.25" rx="3.75" ry="3.75" />
</a>
<a href="StructureDefinition-BreastImagingReport-definitions.html#DiagnosticReport.conclusionCode" target="_top">
<text x="5.62" y="18.75" text-anchor="left" class="element">ConclusionCode</text>
</a>
</g>
<line class="connector" marker-end="url(#arrowEnd)" x1="319.79" y1="50.62" x2="379.79" y2="50.62" />
<text x="323.54" y="46.88" text-anchor="right" class="lhsText">0..1</text>
<line class="connector" marker-start="url(#arrowStart)" x1="289.79" y1="50.62" x2="319.79" y2="50.62" />
<line class="connector" x1="319.79" y1="50.62" x2="319.79" y2="50.62" />
</g>
<g>
<g transform="translate(379.79 37.5)">
<a href="StructureDefinition-BreastImagingReport-definitions.html#DiagnosticReport.conclusionCode:BiRads" target="_top">
<rect class="element" x="0" y="0" width="65.96" height="26.25" rx="3.75" ry="3.75" />
</a>
<a href="StructureDefinition-BreastImagingReport-definitions.html#DiagnosticReport.conclusionCode:BiRads" target="_top">
<text x="5.62" y="18.75" text-anchor="left" class="element">BiRads</text>
</a>
</g>
</g>
<g>
<g transform="translate(156.04 71.25)">
<a href="StructureDefinition-BreastImagingReport-definitions.html#DiagnosticReport.code" target="_top">
<rect class="element" x="0" y="0" width="103.51" height="26.25" rx="3.75" ry="3.75" />
</a>
<a href="StructureDefinition-BreastImagingReport-definitions.html#DiagnosticReport.code" target="_top">
<text x="5.62" y="18.75" text-anchor="left" class="element">Report Type</text>
</a>
</g>
<line class="connector" marker-end="url(#arrowEnd)" x1="289.54" y1="84.38" x2="349.54" y2="84.38" />
<text x="293.29" y="80.62" text-anchor="right" class="lhsText">bind</text>
<line class="connector" marker-start="url(#arrowStart)" x1="259.54" y1="84.38" x2="289.54" y2="84.38" />
<line class="connector" x1="289.54" y1="84.38" x2="289.54" y2="84.38" />
</g>
<g>
<g transform="translate(349.54 71.25)">
<a href="ValueSet-BreastImagingReportTypesVS.html" target="_top">
<rect class="valueSet" x="0" y="0" width="235.4" height="26.25" rx="3.75" ry="3.75" />
</a>
<a href="ValueSet-BreastImagingReportTypesVS.html" target="_top">
<text x="5.62" y="18.75" text-anchor="left" class="valueSet">BreastImagingReportTypesVS</text>
</a>
</g>
</g>
<g>
<g transform="translate(3.75 180)">
<rect class="focus" x="0" y="0" width="57.72" height="26.25" rx="3.75" ry="3.75" />
<text x="5.62" y="18.75" text-anchor="left" class="focus">Focus</text>
</g>
<g transform="translate(68.97 180)">
<rect class="element" x="0" y="0" width="148.39" height="26.25" rx="3.75" ry="3.75" />
<text x="5.62" y="18.75" text-anchor="left" class="element">Resource Element</text>
</g>
<g transform="translate(224.85 180)">
<rect class="valueSet" x="0" y="0" width="79.72" height="26.25" rx="3.75" ry="3.75" />
<text x="5.62" y="18.75" text-anchor="left" class="valueSet">ValueSet</text>
</g>
</g>
</svg>
