<?xml version="1.0"?>
<?xml-stylesheet type="text/css" href="FocusGraph.css" ?>
<!DOCTYPE svg PUBLIC "-//W3C//DTD SVG 1.1//EN" "http://www.w3.org/Graphics/SVG/1.1/DTD/svg11.dtd">
<svg xmlns="http://www.w3.org/2000/svg" version="1.1" width="1069.81" height="678.75">
<defs>
<marker id="arrowStart" markerWidth="3.75" markerHeight="3.75" markerUnits="px" refX="1.88" refY="1.88">
<circle class="connector" cx="1.88" cy="1.88" r="1.88" />
</marker>
<marker id="arrowEnd" markerWidth="7.5" markerHeight="7.5" markerUnits="px" refX="7.5" refY="3.75">
<polygon class="connector" points="0 0 7.5 3.75 0 7.5" />
</marker>
</defs>
<g>
<g transform="translate(3.75 3.75)">
<a href="StructureDefinition-MGFinding.html" target="_top">
<rect class="profile" x="0" y="0" width="102.6" height="26.25" rx="3.75" ry="3.75" />
</a>
<a href="StructureDefinition-MGFinding.html" target="_top">
<title />
<text x="5.62" y="18.75" text-anchor="left" class="profile">Mg Findings</text>
</a>
</g>
<line class="connector" marker-end="url(#arrowEnd)" x1="136.35" y1="16.88" x2="196.35" y2="16.88" />
<text x="140.1" y="13.12" text-anchor="right" class="lhsText">0..*</text>
<line class="connector" marker-start="url(#arrowStart)" x1="106.35" y1="16.88" x2="136.35" y2="16.88" />
<line class="connector" x1="136.35" y1="16.88" x2="136.35" y2="16.88" />
</g>
<g>
<g transform="translate(196.35 3.75)">
<a href="StructureDefinition-DuctAbnormality.html" target="_top">
<rect class="focus" x="0" y="0" width="46.72" height="26.25" rx="3.75" ry="3.75" />
</a>
<a href="StructureDefinition-DuctAbnormality.html" target="_top">
<title />
<text x="5.62" y="18.75" text-anchor="left" class="focus">Duct</text>
</a>
</g>
<line class="connector" marker-end="url(#arrowEnd)" x1="273.07" y1="16.88" x2="333.07" y2="16.88" />
<text x="276.82" y="13.12" text-anchor="right" class="lhsText">1..1</text>
<line class="connector" marker-end="url(#arrowEnd)" x1="273.07" y1="50.62" x2="333.07" y2="50.62" />
<text x="276.82" y="46.88" text-anchor="right" class="lhsText">0..*</text>
<line class="connector" marker-end="url(#arrowEnd)" x1="273.07" y1="508.12" x2="333.07" y2="508.12" />
<text x="276.82" y="504.38" text-anchor="right" class="lhsText">0..*</text>
<line class="connector" marker-start="url(#arrowStart)" x1="243.07" y1="16.88" x2="273.07" y2="16.88" />
<line class="connector" x1="273.07" y1="16.88" x2="273.07" y2="508.12" />
</g>
<g>
<g transform="translate(333.07 3.75)">
<a href="StructureDefinition-DuctAbnormality-definitions.html#Observation.code" target="_top">
<rect class="element" x="0" y="0" width="52.22" height="26.25" rx="3.75" ry="3.75" />
</a>
<a href="StructureDefinition-DuctAbnormality-definitions.html#Observation.code" target="_top">
<title />
<text x="5.62" y="18.75" text-anchor="left" class="element">Code</text>
</a>
</g>
<line class="connector" marker-end="url(#arrowEnd)" x1="415.29" y1="16.88" x2="535.29" y2="16.88" />
<text x="419.04" y="13.12" text-anchor="right" class="lhsText">pattern </text>
<line class="connector" marker-start="url(#arrowStart)" x1="385.29" y1="16.88" x2="415.29" y2="16.88" />
<line class="connector" x1="415.29" y1="16.88" x2="415.29" y2="16.88" />
</g>
<g>
<g transform="translate(535.29 3.75)">
<a href="CodeSystem-ObservationCodesCS.html" target="_top">
<rect class="value" x="0" y="0" width="389.29" height="26.25" rx="3.75" ry="3.75" />
</a>
<a href="CodeSystem-ObservationCodesCS.html" target="_top">
<title />
<text x="5.62" y="18.75" text-anchor="left" class="value">ObservationCodesCS#abnormalityDuctObservation</text>
</a>
</g>
</g>
<g>
<g transform="translate(333.07 37.5)">
<a href="StructureDefinition-DuctAbnormality-definitions.html#Observation.component" target="_top">
<rect class="element" x="0" y="0" width="106.26" height="26.25" rx="3.75" ry="3.75" />
</a>
<a href="StructureDefinition-DuctAbnormality-definitions.html#Observation.component" target="_top">
<title />
<text x="5.62" y="18.75" text-anchor="left" class="element">Components</text>
</a>
</g>
<line class="connector" marker-end="url(#arrowEnd)" x1="469.33" y1="50.62" x2="529.33" y2="50.62" />
<text x="473.08" y="46.88" text-anchor="right" class="lhsText">0..*</text>
<line class="connector" marker-end="url(#arrowEnd)" x1="469.33" y1="84.38" x2="529.33" y2="84.38" />
<text x="473.08" y="80.62" text-anchor="right" class="lhsText">0..1</text>
<line class="connector" marker-end="url(#arrowEnd)" x1="469.33" y1="118.12" x2="529.33" y2="118.12" />
<text x="473.08" y="114.38" text-anchor="right" class="lhsText">0..1</text>
<line class="connector" marker-end="url(#arrowEnd)" x1="469.33" y1="151.88" x2="529.33" y2="151.88" />
<text x="473.08" y="148.12" text-anchor="right" class="lhsText">0..1</text>
<line class="connector" marker-end="url(#arrowEnd)" x1="469.33" y1="185.62" x2="529.33" y2="185.62" />
<text x="473.08" y="181.88" text-anchor="right" class="lhsText">0..*</text>
<line class="connector" marker-end="url(#arrowEnd)" x1="469.33" y1="219.38" x2="529.33" y2="219.38" />
<text x="473.08" y="215.62" text-anchor="right" class="lhsText">0..*</text>
<line class="connector" marker-end="url(#arrowEnd)" x1="469.33" y1="253.12" x2="529.33" y2="253.12" />
<text x="473.08" y="249.38" text-anchor="right" class="lhsText">0..1</text>
<line class="connector" marker-end="url(#arrowEnd)" x1="469.33" y1="286.88" x2="529.33" y2="286.88" />
<text x="473.08" y="283.12" text-anchor="right" class="lhsText">0..*</text>
<line class="connector" marker-end="url(#arrowEnd)" x1="469.33" y1="320.62" x2="529.33" y2="320.62" />
<text x="473.08" y="316.88" text-anchor="right" class="lhsText">0..1</text>
<line class="connector" marker-end="url(#arrowEnd)" x1="469.33" y1="354.38" x2="529.33" y2="354.38" />
<text x="473.08" y="350.62" text-anchor="right" class="lhsText">0..3</text>
<line class="connector" marker-end="url(#arrowEnd)" x1="469.33" y1="388.12" x2="529.33" y2="388.12" />
<text x="473.08" y="384.38" text-anchor="right" class="lhsText">0..1</text>
<line class="connector" marker-end="url(#arrowEnd)" x1="469.33" y1="431.25" x2="529.33" y2="431.25" />
<text x="473.08" y="427.5" text-anchor="right" class="lhsText">0..*</text>
<line class="connector" marker-end="url(#arrowEnd)" x1="469.33" y1="474.38" x2="529.33" y2="474.38" />
<text x="473.08" y="470.62" text-anchor="right" class="lhsText">0..1</text>
<line class="connector" marker-start="url(#arrowStart)" x1="439.33" y1="50.62" x2="469.33" y2="50.62" />
<line class="connector" x1="469.33" y1="50.62" x2="469.33" y2="474.38" />
</g>
<g>
<g transform="translate(529.33 37.5)">
<a href="StructureDefinition-DuctAbnormality-definitions.html#Observation.component:correspondsWith" target="_top">
<rect class="element" x="0" y="0" width="144.71" height="26.25" rx="3.75" ry="3.75" />
</a>
<a href="StructureDefinition-DuctAbnormality-definitions.html#Observation.component:correspondsWith" target="_top">
<title />
<text x="5.62" y="18.75" text-anchor="left" class="element">Corresponds With</text>
</a>
</g>
<line class="connector" marker-end="url(#arrowEnd)" x1="704.04" y1="50.62" x2="764.04" y2="50.62" />
<text x="707.79" y="46.88" text-anchor="right" class="lhsText">bind</text>
<line class="connector" marker-start="url(#arrowStart)" x1="674.04" y1="50.62" x2="704.04" y2="50.62" />
<line class="connector" x1="704.04" y1="50.62" x2="704.04" y2="50.62" />
</g>
<g>
<g transform="translate(764.04 37.5)">
<a href="ValueSet-CorrespondsWithVS.html" target="_top">
<rect class="valueSet" x="0" y="0" width="162.11" height="26.25" rx="3.75" ry="3.75" />
</a>
<a href="ValueSet-CorrespondsWithVS.html" target="_top">
<title />
<text x="5.62" y="18.75" text-anchor="left" class="valueSet">CorrespondsWithVS</text>
</a>
</g>
</g>
<g>
<g transform="translate(529.33 71.25)">
<a href="StructureDefinition-DuctAbnormality-definitions.html#Observation.component:density" target="_top">
<rect class="element" x="0" y="0" width="67.79" height="26.25" rx="3.75" ry="3.75" />
</a>
<a href="StructureDefinition-DuctAbnormality-definitions.html#Observation.component:density" target="_top">
<title />
<text x="5.62" y="18.75" text-anchor="left" class="element">Density</text>
</a>
</g>
<line class="connector" marker-end="url(#arrowEnd)" x1="627.11" y1="84.38" x2="687.11" y2="84.38" />
<text x="630.86" y="80.62" text-anchor="right" class="lhsText">bind</text>
<line class="connector" marker-start="url(#arrowStart)" x1="597.11" y1="84.38" x2="627.11" y2="84.38" />
<line class="connector" x1="627.11" y1="84.38" x2="627.11" y2="84.38" />
</g>
<g>
<g transform="translate(687.11 71.25)">
<a href="ValueSet-rde1578-density.html" target="_top">
<rect class="valueSet" x="0" y="0" width="148.4" height="26.25" rx="3.75" ry="3.75" />
</a>
<a href="ValueSet-rde1578-density.html" target="_top">
<title />
<text x="5.62" y="18.75" text-anchor="left" class="valueSet">RDE1578_Density</text>
</a>
</g>
</g>
<g>
<g transform="translate(529.33 105)">
<a href="StructureDefinition-DuctAbnormality-definitions.html#Observation.component:ductType" target="_top">
<rect class="element" x="0" y="0" width="138.3" height="26.25" rx="3.75" ry="3.75" />
</a>
<a href="StructureDefinition-DuctAbnormality-definitions.html#Observation.component:ductType" target="_top">
<title />
<text x="5.62" y="18.75" text-anchor="left" class="element">Duct Abnormality</text>
</a>
</g>
<line class="connector" marker-end="url(#arrowEnd)" x1="697.63" y1="118.12" x2="757.63" y2="118.12" />
<text x="701.38" y="114.38" text-anchor="right" class="lhsText">bind</text>
<line class="connector" marker-start="url(#arrowStart)" x1="667.63" y1="118.12" x2="697.63" y2="118.12" />
<line class="connector" x1="697.63" y1="118.12" x2="697.63" y2="118.12" />
</g>
<g>
<g transform="translate(757.63 105)">
<a href="ValueSet-DuctAbnormalityTypeVS.html" target="_top">
<rect class="valueSet" x="0" y="0" width="192.35" height="26.25" rx="3.75" ry="3.75" />
</a>
<a href="ValueSet-DuctAbnormalityTypeVS.html" target="_top">
<title />
<text x="5.62" y="18.75" text-anchor="left" class="valueSet">DuctAbnormalityTypeVS</text>
</a>
</g>
</g>
<g>
<g transform="translate(529.33 138.75)">
<a href="StructureDefinition-DuctAbnormality-definitions.html#Observation.component:margin" target="_top">
<rect class="element" x="0" y="0" width="63.2" height="26.25" rx="3.75" ry="3.75" />
</a>
<a href="StructureDefinition-DuctAbnormality-definitions.html#Observation.component:margin" target="_top">
<title />
<text x="5.62" y="18.75" text-anchor="left" class="element">Margin</text>
</a>
</g>
<line class="connector" marker-end="url(#arrowEnd)" x1="622.53" y1="151.88" x2="682.53" y2="151.88" />
<text x="626.28" y="148.12" text-anchor="right" class="lhsText">bind</text>
<line class="connector" marker-start="url(#arrowStart)" x1="592.53" y1="151.88" x2="622.53" y2="151.88" />
<line class="connector" x1="622.53" y1="151.88" x2="622.53" y2="151.88" />
</g>
<g>
<g transform="translate(682.53 138.75)">
<a href="ValueSet-rde1579-margin.html" target="_top">
<rect class="valueSet" x="0" y="0" width="143.81" height="26.25" rx="3.75" ry="3.75" />
</a>
<a href="ValueSet-rde1579-margin.html" target="_top">
<title />
<text x="5.62" y="18.75" text-anchor="left" class="valueSet">RDE1579_Margin</text>
</a>
</g>
</g>
<g>
<g transform="translate(529.33 172.5)">
<a href="StructureDefinition-DuctAbnormality-definitions.html#Observation.component:notPreviouslySeen" target="_top">
<rect class="element" x="0" y="0" width="162.14" height="26.25" rx="3.75" ry="3.75" />
</a>
<a href="StructureDefinition-DuctAbnormality-definitions.html#Observation.component:notPreviouslySeen" target="_top">
<title />
<text x="5.62" y="18.75" text-anchor="left" class="element">Not Previously Seen</text>
</a>
</g>
<line class="connector" marker-end="url(#arrowEnd)" x1="721.47" y1="185.62" x2="781.47" y2="185.62" />
<text x="725.22" y="181.88" text-anchor="right" class="lhsText">bind</text>
<line class="connector" marker-start="url(#arrowStart)" x1="691.47" y1="185.62" x2="721.47" y2="185.62" />
<line class="connector" x1="721.47" y1="185.62" x2="721.47" y2="185.62" />
</g>
<g>
<g transform="translate(781.47 172.5)">
<a href="ValueSet-NotPreviouslySeenVS.html" target="_top">
<rect class="valueSet" x="0" y="0" width="174.97" height="26.25" rx="3.75" ry="3.75" />
</a>
<a href="ValueSet-NotPreviouslySeenVS.html" target="_top">
<title />
<text x="5.62" y="18.75" text-anchor="left" class="valueSet">NotPreviouslySeenVS</text>
</a>
</g>
</g>
<g>
<g transform="translate(529.33 206.25)">
<a href="StructureDefinition-DuctAbnormality-definitions.html#Observation.component:obsChanges" target="_top">
<rect class="element" x="0" y="0" width="154.82" height="26.25" rx="3.75" ry="3.75" />
</a>
<a href="StructureDefinition-DuctAbnormality-definitions.html#Observation.component:obsChanges" target="_top">
<title />
<text x="5.62" y="18.75" text-anchor="left" class="element">Observed Changes</text>
</a>
</g>
<line class="connector" marker-end="url(#arrowEnd)" x1="714.15" y1="219.38" x2="774.15" y2="219.38" />
<text x="717.9" y="215.62" text-anchor="right" class="lhsText">bind</text>
<line class="connector" marker-start="url(#arrowStart)" x1="684.15" y1="219.38" x2="714.15" y2="219.38" />
<line class="connector" x1="714.15" y1="219.38" x2="714.15" y2="219.38" />
</g>
<g>
<g transform="translate(774.15 206.25)">
<a href="ValueSet-ObservedChangesVS.html" target="_top">
<rect class="valueSet" x="0" y="0" width="172.22" height="26.25" rx="3.75" ry="3.75" />
</a>
<a href="ValueSet-ObservedChangesVS.html" target="_top">
<title />
<text x="5.62" y="18.75" text-anchor="left" class="valueSet">ObservedChangesVS</text>
</a>
</g>
</g>
<g>
<g transform="translate(529.33 240)">
<a href="StructureDefinition-DuctAbnormality-definitions.html#Observation.component:observedCount" target="_top">
<rect class="element" x="0" y="0" width="132.83" height="26.25" rx="3.75" ry="3.75" />
</a>
<a href="StructureDefinition-DuctAbnormality-definitions.html#Observation.component:observedCount" target="_top">
<title />
<text x="5.62" y="18.75" text-anchor="left" class="element">Observed Count</text>
</a>
</g>
</g>
<g>
<g transform="translate(529.33 273.75)">
<a href="StructureDefinition-DuctAbnormality-definitions.html#Observation.component:obsDistribution" target="_top">
<rect class="element" x="0" y="0" width="171.29" height="26.25" rx="3.75" ry="3.75" />
</a>
<a href="StructureDefinition-DuctAbnormality-definitions.html#Observation.component:obsDistribution" target="_top">
<title />
<text x="5.62" y="18.75" text-anchor="left" class="element">Observed Distribution</text>
</a>
</g>
<line class="connector" marker-end="url(#arrowEnd)" x1="730.61" y1="286.88" x2="790.61" y2="286.88" />
<text x="734.36" y="283.12" text-anchor="right" class="lhsText">bind</text>
<line class="connector" marker-start="url(#arrowStart)" x1="700.61" y1="286.88" x2="730.61" y2="286.88" />
<line class="connector" x1="730.61" y1="286.88" x2="730.61" y2="286.88" />
</g>
<g>
<g transform="translate(790.61 273.75)">
<a href="ValueSet-rde1568-observed-distribution.html" target="_top">
<rect class="valueSet" x="0" y="0" width="247.32" height="26.25" rx="3.75" ry="3.75" />
</a>
<a href="ValueSet-rde1568-observed-distribution.html" target="_top">
<title />
<text x="5.62" y="18.75" text-anchor="left" class="valueSet">RDE1568_ObservedDistribution</text>
</a>
</g>
</g>
<g>
<g transform="translate(529.33 307.5)">
<a href="StructureDefinition-DuctAbnormality-definitions.html#Observation.component:obsDistRegionSize" target="_top">
<rect class="element" x="0" y="0" width="264.72" height="26.25" rx="3.75" ry="3.75" />
</a>
<a href="StructureDefinition-DuctAbnormality-definitions.html#Observation.component:obsDistRegionSize" target="_top">
<title />
<text x="5.62" y="18.75" text-anchor="left" class="element">Observed Distribution Region Size</text>
</a>
</g>
</g>
<g>
<g transform="translate(529.33 341.25)">
<a href="StructureDefinition-DuctAbnormality-definitions.html#Observation.component:obsSize" target="_top">
<rect class="element" x="0" y="0" width="120.92" height="26.25" rx="3.75" ry="3.75" />
</a>
<a href="StructureDefinition-DuctAbnormality-definitions.html#Observation.component:obsSize" target="_top">
<title />
<text x="5.62" y="18.75" text-anchor="left" class="element">Observed Size</text>
</a>
</g>
</g>
<g>
<g transform="translate(529.33 375)">
<a href="StructureDefinition-DuctAbnormality-definitions.html#Observation.component:orientation" target="_top">
<rect class="element" x="0" y="0" width="93.44" height="26.25" rx="3.75" ry="3.75" />
</a>
<a href="StructureDefinition-DuctAbnormality-definitions.html#Observation.component:orientation" target="_top">
<title />
<text x="5.62" y="18.75" text-anchor="left" class="element">Orientation</text>
</a>
</g>
<line class="connector" marker-end="url(#arrowEnd)" x1="652.77" y1="388.12" x2="712.77" y2="388.12" />
<text x="656.52" y="384.38" text-anchor="right" class="lhsText">bind</text>
<line class="connector" marker-start="url(#arrowStart)" x1="622.77" y1="388.12" x2="652.77" y2="388.12" />
<line class="connector" x1="652.77" y1="388.12" x2="652.77" y2="388.12" />
</g>
<g>
<g transform="translate(712.77 375)">
<a href="ValueSet-rde1580-orientation.html" target="_top">
<rect class="valueSet" x="0" y="0" width="174.05" height="26.25" rx="3.75" ry="3.75" />
</a>
<a href="ValueSet-rde1580-orientation.html" target="_top">
<title />
<text x="5.62" y="18.75" text-anchor="left" class="valueSet">RDE1580_Orientation</text>
</a>
</g>
</g>
<g>
<g transform="translate(529.33 408.75)">
<a href="StructureDefinition-DuctAbnormality-definitions.html#Observation.component:prevDemBy" target="_top">
<rect class="element" x="0" y="0" width="138.31" height="45" rx="3.75" ry="3.75" />
</a>
<a href="StructureDefinition-DuctAbnormality-definitions.html#Observation.component:prevDemBy" target="_top">
<title />
<text x="5.62" y="18.75" text-anchor="left" class="element">Previously</text>
</a>
<a href="StructureDefinition-DuctAbnormality-definitions.html#Observation.component:prevDemBy" target="_top">
<title />
<text x="5.62" y="37.5" text-anchor="left" class="element">Demonstrated by</text>
</a>
</g>
<line class="connector" marker-end="url(#arrowEnd)" x1="697.64" y1="421.88" x2="757.64" y2="421.88" />
<text x="701.39" y="418.12" text-anchor="right" class="lhsText">bind</text>
<line class="connector" marker-start="url(#arrowStart)" x1="667.64" y1="431.25" x2="697.64" y2="431.25" />
<line class="connector" x1="697.64" y1="421.88" x2="697.64" y2="431.25" />
</g>
<g>
<g transform="translate(757.64 408.75)">
<a href="ValueSet-PreviouslyDemonstratedByVS.html" target="_top">
<rect class="valueSet" x="0" y="0" width="233.57" height="26.25" rx="3.75" ry="3.75" />
</a>
<a href="ValueSet-PreviouslyDemonstratedByVS.html" target="_top">
<title />
<text x="5.62" y="18.75" text-anchor="left" class="valueSet">PreviouslyDemonstratedByVS</text>
</a>
</g>
</g>
<g>
<g transform="translate(529.33 461.25)">
<a href="StructureDefinition-DuctAbnormality-definitions.html#Observation.component:shape" target="_top">
<rect class="element" x="0" y="0" width="60.48" height="26.25" rx="3.75" ry="3.75" />
</a>
<a href="StructureDefinition-DuctAbnormality-definitions.html#Observation.component:shape" target="_top">
<title />
<text x="5.62" y="18.75" text-anchor="left" class="element">Shape</text>
</a>
</g>
<line class="connector" marker-end="url(#arrowEnd)" x1="619.81" y1="474.38" x2="679.81" y2="474.38" />
<text x="623.56" y="470.62" text-anchor="right" class="lhsText">bind</text>
<line class="connector" marker-start="url(#arrowStart)" x1="589.81" y1="474.38" x2="619.81" y2="474.38" />
<line class="connector" x1="619.81" y1="474.38" x2="619.81" y2="474.38" />
</g>
<g>
<g transform="translate(679.81 461.25)">
<a href="ValueSet-rde1576-shape.html" target="_top">
<rect class="valueSet" x="0" y="0" width="141.09" height="26.25" rx="3.75" ry="3.75" />
</a>
<a href="ValueSet-rde1576-shape.html" target="_top">
<title />
<text x="5.62" y="18.75" text-anchor="left" class="valueSet">RDE1576_Shape</text>
</a>
</g>
</g>
<g>
<g transform="translate(333.07 495)">
<a href="StructureDefinition-DuctAbnormality-definitions.html#Observation.hasMember" target="_top">
<rect class="element" x="0" y="0" width="102.57" height="26.25" rx="3.75" ry="3.75" />
</a>
<a href="StructureDefinition-DuctAbnormality-definitions.html#Observation.hasMember" target="_top">
<title />
<text x="5.62" y="18.75" text-anchor="left" class="element">HasMember</text>
</a>
</g>
<line class="connector" marker-end="url(#arrowEnd)" x1="465.63" y1="508.12" x2="525.63" y2="508.12" />
<text x="469.38" y="504.38" text-anchor="right" class="lhsText">0..1</text>
<line class="connector" marker-end="url(#arrowEnd)" x1="465.63" y1="541.88" x2="525.63" y2="541.88" />
<text x="469.38" y="538.12" text-anchor="right" class="lhsText">0..*</text>
<line class="connector" marker-start="url(#arrowStart)" x1="435.63" y1="508.12" x2="465.63" y2="508.12" />
<line class="connector" x1="465.63" y1="508.12" x2="465.63" y2="541.88" />
</g>
<g>
<g transform="translate(525.63 495)">
<a href="StructureDefinition-BreastAssessmentCategory.html" target="_top">
<rect class="profile" x="0" y="0" width="226.23" height="26.25" rx="3.75" ry="3.75" />
</a>
<a href="StructureDefinition-BreastAssessmentCategory.html" target="_top">
<title />
<text x="5.62" y="18.75" text-anchor="left" class="profile">Breast Assessment Category</text>
</a>
</g>
</g>
<g>
<g transform="translate(525.63 528.75)">
<a href="StructureDefinition-ConsistentWith.html" target="_top">
<rect class="profile" x="0" y="0" width="128.23" height="26.25" rx="3.75" ry="3.75" />
</a>
<a href="StructureDefinition-ConsistentWith.html" target="_top">
<title />
<text x="5.62" y="18.75" text-anchor="left" class="profile">Consistent With</text>
</a>
</g>
</g>
<g>
<g transform="translate(3.75 637.5)">
<a target="_top">
<rect class="focus" x="0" y="0" width="57.72" height="26.25" rx="3.75" ry="3.75" />
</a>
<a target="_top">
<title />
<text x="5.62" y="18.75" text-anchor="left" class="focus">Focus</text>
</a>
</g>
<g transform="translate(68.97 637.5)">
<a target="_top">
<rect class="profile" x="0" y="0" width="143.81" height="26.25" rx="3.75" ry="3.75" />
</a>
<a target="_top">
<title />
<text x="5.62" y="18.75" text-anchor="left" class="profile">Profiled Resource</text>
</a>
</g>
<g transform="translate(220.28 637.5)">
<a target="_top">
<rect class="element" x="0" y="0" width="148.39" height="26.25" rx="3.75" ry="3.75" />
</a>
<a target="_top">
<title />
<text x="5.62" y="18.75" text-anchor="left" class="element">Resource Element</text>
</a>
</g>
<g transform="translate(376.16 637.5)">
<a target="_top">
<rect class="valueSet" x="0" y="0" width="79.72" height="26.25" rx="3.75" ry="3.75" />
</a>
<a target="_top">
<title />
<text x="5.62" y="18.75" text-anchor="left" class="valueSet">ValueSet</text>
</a>
</g>
<g transform="translate(463.38 637.5)">
<a target="_top">
<rect class="value" x="0" y="0" width="54.98" height="26.25" rx="3.75" ry="3.75" />
</a>
<a target="_top">
<title />
<text x="5.62" y="18.75" text-anchor="left" class="value">Value</text>
</a>
</g>
</g>
</svg>
