<?xml version="1.0"?>
<!DOCTYPE svg PUBLIC "-//W3C//DTD SVG 1.1//EN" "http://www.w3.org/Graphics/SVG/1.1/DTD/svg11.dtd">
<svg xmlns="http://www.w3.org/2000/svg" version="1.1" width="421.5" height="101.25">
<defs>
<marker id="arrowStart" markerWidth="3.75" markerHeight="3.75" markerUnits="px" refX="1.875" refY="1.875">
<circle fill="Black" stroke-width="0" cx="1.875" cy="1.875" r="1.875" />
</marker>
<marker id="arrowEnd" markerWidth="7.5" markerHeight="7.5" markerUnits="px" refX="7.5" refY="3.75">
<polygon fill="Black" stroke-width="0" points="0 0 7.5 3.75 0 7.5" />
</marker>
</defs>
<g>
<g transform="translate(7.5 7.5)">
<rect fill="LightBlue" stroke="Black" stroke-width="1.875" x="0" y="0" width="57" height="52.5" rx="3.75" ry="3.75" />
<a href="./StructureDefinition-NMMass.html" target="_blank">
<title>'NMMass'</title>
<text x="28.5" y="22.5" text-anchor="middle">NM</text>
</a>
<a href="./StructureDefinition-NMMass.html" target="_blank">
<title>'NMMass'</title>
<text x="28.5" y="41.25" text-anchor="middle">Mass</text>
</a>
</g>
<line stroke="Black" stroke-width="1.875" marker-end="url(#arrowEnd)" x1="94.5" y1="33.75" x2="124.5" y2="33.75" />
<line stroke="Black" stroke-width="1.875" marker-start="url(#arrowStart)" x1="64.5" y1="33.75" x2="94.5" y2="33.75" />
<line stroke="Black" stroke-width="1.875" x1="94.5" y1="33.75" x2="94.5" y2="33.75" />
</g>
<g>
<g transform="translate(124.5 7.5)">
<rect fill="LightGreen" stroke="Black" stroke-width="1.875" x="0" y="0" width="78" height="52.5" rx="3.75" ry="3.75" />
<text x="39" y="22.5" text-anchor="middle">NM</text>
<text x="39" y="41.25" text-anchor="middle">Margin</text>
</g>
<line stroke="Black" stroke-width="1.875" marker-end="url(#arrowEnd)" x1="232.5" y1="43.125" x2="262.5" y2="43.125" />
<line stroke="Black" stroke-width="1.875" marker-start="url(#arrowStart)" x1="202.5" y1="33.75" x2="232.5" y2="33.75" />
<line stroke="Black" stroke-width="1.875" x1="232.5" y1="33.75" x2="232.5" y2="43.125" />
</g>
<g>
<g transform="translate(262.5 7.5)">
<rect fill="LightSalmon" stroke="Black" stroke-width="1.875" x="0" y="0" width="99" height="71.25" rx="3.75" ry="3.75" />
<a href="./ValueSet-NMMarginVS.html" target="_blank">
<title>'NMMarginVS'</title>
<text x="49.5" y="22.5" text-anchor="middle">NM</text>
</a>
<a href="./ValueSet-NMMarginVS.html" target="_blank">
<title>'NMMarginVS'</title>
<text x="49.5" y="41.25" text-anchor="middle">Margin</text>
</a>
<a href="./ValueSet-NMMarginVS.html" target="_blank">
<title>'NMMarginVS'</title>
<text x="49.5" y="60" text-anchor="middle">ValueSet</text>
</a>
</g>
</g>
</svg>
