<?xml version="1.0"?>
<?xml-stylesheet type="text/css" href="FocusGraph.css" ?>
<!DOCTYPE svg PUBLIC "-//W3C//DTD SVG 1.1//EN" "http://www.w3.org/Graphics/SVG/1.1/DTD/svg11.dtd">
<svg xmlns="http://www.w3.org/2000/svg" version="1.1" width="726.76" height="187.5">
<defs>
<marker id="arrowStart" markerWidth="3.75" markerHeight="3.75" markerUnits="px" refX="1.88" refY="1.88">
<circle class="connector" cx="1.88" cy="1.88" r="1.88" />
</marker>
<marker id="arrowEnd" markerWidth="7.5" markerHeight="7.5" markerUnits="px" refX="7.5" refY="3.75">
<polygon class="connector" points="0 0 7.5 3.75 0 7.5" />
</marker>
</defs>
<g>
<g transform="translate(3.75 3.75)">
<a href="StructureDefinition-BreastComposition.html" target="_top">
<rect class="focus" x="0" y="0" width="156.63" height="26.25" rx="3.75" ry="3.75" />
</a>
<a href="StructureDefinition-BreastComposition.html" target="_top">
<title />
<text x="5.62" y="18.75" text-anchor="left" class="focus">Breast Composition</text>
</a>
</g>
<line class="connector" marker-end="url(#arrowEnd)" x1="190.38" y1="16.88" x2="250.38" y2="16.88" />
<text x="194.13" y="13.12" text-anchor="right" class="lhsText">1..1</text>
<line class="connector" marker-end="url(#arrowEnd)" x1="190.38" y1="50.62" x2="250.38" y2="50.62" />
<text x="194.13" y="46.88" text-anchor="right" class="lhsText">1..1</text>
<line class="connector" marker-start="url(#arrowStart)" x1="160.38" y1="16.88" x2="190.38" y2="16.88" />
<line class="connector" x1="190.38" y1="16.88" x2="190.38" y2="50.62" />
</g>
<g>
<g transform="translate(250.38 3.75)">
<a href="StructureDefinition-BreastComposition-definitions.html#Observation.code" target="_top">
<rect class="element" x="0" y="0" width="52.22" height="26.25" rx="3.75" ry="3.75" />
</a>
<a href="StructureDefinition-BreastComposition-definitions.html#Observation.code" target="_top">
<title />
<text x="5.62" y="18.75" text-anchor="left" class="element">Code</text>
</a>
</g>
<line class="connector" marker-end="url(#arrowEnd)" x1="332.6" y1="16.88" x2="452.6" y2="16.88" />
<text x="336.35" y="13.12" text-anchor="right" class="lhsText">pattern </text>
<line class="connector" marker-start="url(#arrowStart)" x1="302.6" y1="16.88" x2="332.6" y2="16.88" />
<line class="connector" x1="332.6" y1="16.88" x2="332.6" y2="16.88" />
</g>
<g>
<g transform="translate(452.6 3.75)">
<a href="CodeSystem-RadLexCDE.html" target="_top">
<rect class="value" x="0" y="0" width="185.03" height="26.25" rx="3.75" ry="3.75" />
</a>
<a href="CodeSystem-RadLexCDE.html" target="_top">
<title />
<text x="5.62" y="18.75" text-anchor="left" class="value">RadLexCDE#RDE1587</text>
</a>
</g>
</g>
<g>
<g transform="translate(250.38 37.5)">
<a href="StructureDefinition-BreastComposition-definitions.html#Observation.value[x]" target="_top">
<rect class="element" x="0" y="0" width="54.98" height="26.25" rx="3.75" ry="3.75" />
</a>
<a href="StructureDefinition-BreastComposition-definitions.html#Observation.value[x]" target="_top">
<title />
<text x="5.62" y="18.75" text-anchor="left" class="element">Value</text>
</a>
</g>
<line class="connector" marker-end="url(#arrowEnd)" x1="335.36" y1="50.62" x2="395.36" y2="50.62" />
<text x="339.11" y="46.88" text-anchor="right" class="lhsText">bind</text>
<line class="connector" marker-start="url(#arrowStart)" x1="305.36" y1="50.62" x2="335.36" y2="50.62" />
<line class="connector" x1="335.36" y1="50.62" x2="335.36" y2="50.62" />
</g>
<g>
<g transform="translate(395.36 37.5)">
<a href="ValueSet-rde1587-breast-composition-category.html" target="_top">
<rect class="valueSet" x="0" y="0" width="299.52" height="26.25" rx="3.75" ry="3.75" />
</a>
<a href="ValueSet-rde1587-breast-composition-category.html" target="_top">
<title />
<text x="5.62" y="18.75" text-anchor="left" class="valueSet">RDE1587_BreastCompositionCategory</text>
</a>
</g>
</g>
<g>
<g transform="translate(3.75 146.25)">
<a target="_top">
<rect class="focus" x="0" y="0" width="57.72" height="26.25" rx="3.75" ry="3.75" />
</a>
<a target="_top">
<title />
<text x="5.62" y="18.75" text-anchor="left" class="focus">Focus</text>
</a>
</g>
<g transform="translate(68.97 146.25)">
<a target="_top">
<rect class="element" x="0" y="0" width="148.39" height="26.25" rx="3.75" ry="3.75" />
</a>
<a target="_top">
<title />
<text x="5.62" y="18.75" text-anchor="left" class="element">Resource Element</text>
</a>
</g>
<g transform="translate(224.85 146.25)">
<a target="_top">
<rect class="valueSet" x="0" y="0" width="79.72" height="26.25" rx="3.75" ry="3.75" />
</a>
<a target="_top">
<title />
<text x="5.62" y="18.75" text-anchor="left" class="valueSet">ValueSet</text>
</a>
</g>
<g transform="translate(312.07 146.25)">
<a target="_top">
<rect class="value" x="0" y="0" width="54.98" height="26.25" rx="3.75" ry="3.75" />
</a>
<a target="_top">
<title />
<text x="5.62" y="18.75" text-anchor="left" class="value">Value</text>
</a>
</g>
</g>
</svg>
