<?xml version="1.0"?>
<?xml-stylesheet type="text/css" href="FocusGraph.css" ?>
<!DOCTYPE svg PUBLIC "-//W3C//DTD SVG 1.1//EN" "http://www.w3.org/Graphics/SVG/1.1/DTD/svg11.dtd">
<svg xmlns="http://www.w3.org/2000/svg" version="1.1" width="675.53" height="356.25">
<defs>
<marker id="arrowStart" markerWidth="3.75" markerHeight="3.75" markerUnits="px" refX="1.88" refY="1.88">
<circle class="connector" cx="1.88" cy="1.88" r="1.88" />
</marker>
<marker id="arrowEnd" markerWidth="7.5" markerHeight="7.5" markerUnits="px" refX="7.5" refY="3.75">
<polygon class="connector" points="0 0 7.5 3.75 0 7.5" />
</marker>
</defs>
<g>
<g transform="translate(3.75 3.75)">
<a href="StructureDefinition-BreastBodyLocationExtension.html" target="_top">
<rect class="focus" x="0" y="0" width="160.33" height="26.25" rx="3.75" ry="3.75" />
</a>
<a href="StructureDefinition-BreastBodyLocationExtension.html" target="_top">
<text x="5.62" y="18.75" text-anchor="left" class="focus">BreastBodyLocation</text>
</a>
</g>
<line class="connector" marker-end="url(#arrowEnd)" x1="194.08" y1="16.88" x2="254.08" y2="16.88" />
<text x="197.83" y="13.12" text-anchor="right" class="lhsText">0..1</text>
<line class="connector" marker-end="url(#arrowEnd)" x1="194.08" y1="50.62" x2="254.08" y2="50.62" />
<text x="197.83" y="46.88" text-anchor="right" class="lhsText">0..1</text>
<line class="connector" marker-end="url(#arrowEnd)" x1="194.08" y1="84.38" x2="254.08" y2="84.38" />
<text x="197.83" y="80.62" text-anchor="right" class="lhsText">0..*</text>
<line class="connector" marker-end="url(#arrowEnd)" x1="194.08" y1="118.12" x2="254.08" y2="118.12" />
<text x="197.83" y="114.38" text-anchor="right" class="lhsText">0..*</text>
<line class="connector" marker-end="url(#arrowEnd)" x1="194.08" y1="151.88" x2="254.08" y2="151.88" />
<text x="197.83" y="148.12" text-anchor="right" class="lhsText">0..1</text>
<line class="connector" marker-end="url(#arrowEnd)" x1="194.08" y1="185.62" x2="254.08" y2="185.62" />
<text x="197.83" y="181.88" text-anchor="right" class="lhsText">0..1</text>
<line class="connector" marker-end="url(#arrowEnd)" x1="194.08" y1="219.38" x2="254.08" y2="219.38" />
<text x="197.83" y="215.62" text-anchor="right" class="lhsText">0..1</text>
<line class="connector" marker-start="url(#arrowStart)" x1="164.08" y1="16.88" x2="194.08" y2="16.88" />
<line class="connector" x1="194.08" y1="16.88" x2="194.08" y2="219.38" />
</g>
<g>
<g transform="translate(254.08 3.75)">
<a href="StructureDefinition-BreastBodyLocationExtension-definitions.html#Extension.extension:clockDirection" target="_top">
<rect class="element" x="0" y="0" width="117.26" height="26.25" rx="3.75" ry="3.75" />
</a>
<a href="StructureDefinition-BreastBodyLocationExtension-definitions.html#Extension.extension:clockDirection" target="_top">
<text x="5.62" y="18.75" text-anchor="left" class="element">Clock Position</text>
</a>
</g>
<line class="connector" marker-end="url(#arrowEnd)" x1="401.33" y1="16.88" x2="461.33" y2="16.88" />
<text x="405.08" y="13.12" text-anchor="right" class="lhsText">bind</text>
<line class="connector" marker-start="url(#arrowStart)" x1="371.33" y1="16.88" x2="401.33" y2="16.88" />
<line class="connector" x1="401.33" y1="16.88" x2="401.33" y2="16.88" />
</g>
<g>
<g transform="translate(461.33 3.75)">
<a href="ValueSet-ClockPositionsVS.html" target="_top">
<rect class="valueSet" x="0" y="0" width="142.9" height="26.25" rx="3.75" ry="3.75" />
</a>
<a href="ValueSet-ClockPositionsVS.html" target="_top">
<text x="5.62" y="18.75" text-anchor="left" class="valueSet">ClockPositionsVS</text>
</a>
</g>
</g>
<g>
<g transform="translate(254.08 37.5)">
<a href="StructureDefinition-BreastBodyLocationExtension-definitions.html#Extension.extension:depth" target="_top">
<rect class="element" x="0" y="0" width="56.8" height="26.25" rx="3.75" ry="3.75" />
</a>
<a href="StructureDefinition-BreastBodyLocationExtension-definitions.html#Extension.extension:depth" target="_top">
<text x="5.62" y="18.75" text-anchor="left" class="element">Depth</text>
</a>
</g>
<line class="connector" marker-end="url(#arrowEnd)" x1="340.88" y1="50.62" x2="400.88" y2="50.62" />
<text x="344.63" y="46.88" text-anchor="right" class="lhsText">bind</text>
<line class="connector" marker-start="url(#arrowStart)" x1="310.88" y1="50.62" x2="340.88" y2="50.62" />
<line class="connector" x1="340.88" y1="50.62" x2="340.88" y2="50.62" />
</g>
<g>
<g transform="translate(400.88 37.5)">
<a href="ValueSet-BreastBodyLocationDepthVS.html" target="_top">
<rect class="valueSet" x="0" y="0" width="226.28" height="26.25" rx="3.75" ry="3.75" />
</a>
<a href="ValueSet-BreastBodyLocationDepthVS.html" target="_top">
<text x="5.62" y="18.75" text-anchor="left" class="valueSet">BreastBodyLocationDepthVS</text>
</a>
</g>
</g>
<g>
<g transform="translate(254.08 71.25)">
<a href="StructureDefinition-BreastBodyLocationExtension-definitions.html#Extension.extension:distanceFromLandmark" target="_top">
<rect class="element" x="0" y="0" width="188.67" height="26.25" rx="3.75" ry="3.75" />
</a>
<a href="StructureDefinition-BreastBodyLocationExtension-definitions.html#Extension.extension:distanceFromLandmark" target="_top">
<text x="5.62" y="18.75" text-anchor="left" class="element">DistanceFromLandmark</text>
</a>
</g>
</g>
<g>
<g transform="translate(254.08 105)">
<a href="StructureDefinition-BreastBodyLocationExtension-definitions.html#Extension.extension:landmark" target="_top">
<rect class="element" x="0" y="0" width="86.11" height="26.25" rx="3.75" ry="3.75" />
</a>
<a href="StructureDefinition-BreastBodyLocationExtension-definitions.html#Extension.extension:landmark" target="_top">
<text x="5.62" y="18.75" text-anchor="left" class="element">Landmark</text>
</a>
</g>
<line class="connector" marker-end="url(#arrowEnd)" x1="370.18" y1="118.12" x2="430.18" y2="118.12" />
<text x="373.93" y="114.38" text-anchor="right" class="lhsText">bind</text>
<line class="connector" marker-start="url(#arrowStart)" x1="340.18" y1="118.12" x2="370.18" y2="118.12" />
<line class="connector" x1="370.18" y1="118.12" x2="370.18" y2="118.12" />
</g>
<g>
<g transform="translate(430.18 105)">
<a href="ValueSet-BreastLandmarkVS.html" target="_top">
<rect class="valueSet" x="0" y="0" width="155.72" height="26.25" rx="3.75" ry="3.75" />
</a>
<a href="ValueSet-BreastLandmarkVS.html" target="_top">
<text x="5.62" y="18.75" text-anchor="left" class="valueSet">BreastLandmarkVS</text>
</a>
</g>
</g>
<g>
<g transform="translate(254.08 138.75)">
<a href="StructureDefinition-BreastBodyLocationExtension-definitions.html#Extension.extension:laterality" target="_top">
<rect class="element" x="0" y="0" width="79.7" height="26.25" rx="3.75" ry="3.75" />
</a>
<a href="StructureDefinition-BreastBodyLocationExtension-definitions.html#Extension.extension:laterality" target="_top">
<text x="5.62" y="18.75" text-anchor="left" class="element">Laterality</text>
</a>
</g>
<line class="connector" marker-end="url(#arrowEnd)" x1="363.78" y1="151.88" x2="423.78" y2="151.88" />
<text x="367.53" y="148.12" text-anchor="right" class="lhsText">bind</text>
<line class="connector" marker-start="url(#arrowStart)" x1="333.78" y1="151.88" x2="363.78" y2="151.88" />
<line class="connector" x1="363.78" y1="151.88" x2="363.78" y2="151.88" />
</g>
<g>
<g transform="translate(423.78 138.75)">
<a href="ValueSet-LateralityVS.html" target="_top">
<rect class="valueSet" x="0" y="0" width="101.68" height="26.25" rx="3.75" ry="3.75" />
</a>
<a href="ValueSet-LateralityVS.html" target="_top">
<text x="5.62" y="18.75" text-anchor="left" class="valueSet">LateralityVS</text>
</a>
</g>
</g>
<g>
<g transform="translate(254.08 172.5)">
<a href="StructureDefinition-BreastBodyLocationExtension-definitions.html#Extension.extension:quadrant" target="_top">
<rect class="element" x="0" y="0" width="81.54" height="26.25" rx="3.75" ry="3.75" />
</a>
<a href="StructureDefinition-BreastBodyLocationExtension-definitions.html#Extension.extension:quadrant" target="_top">
<text x="5.62" y="18.75" text-anchor="left" class="element">Quadrant</text>
</a>
</g>
<line class="connector" marker-end="url(#arrowEnd)" x1="365.61" y1="185.62" x2="425.61" y2="185.62" />
<text x="369.36" y="181.88" text-anchor="right" class="lhsText">bind</text>
<line class="connector" marker-start="url(#arrowStart)" x1="335.61" y1="185.62" x2="365.61" y2="185.62" />
<line class="connector" x1="365.61" y1="185.62" x2="365.61" y2="185.62" />
</g>
<g>
<g transform="translate(425.61 172.5)">
<a href="ValueSet-BreastQuadrantVS.html" target="_top">
<rect class="valueSet" x="0" y="0" width="151.15" height="26.25" rx="3.75" ry="3.75" />
</a>
<a href="ValueSet-BreastQuadrantVS.html" target="_top">
<text x="5.62" y="18.75" text-anchor="left" class="valueSet">BreastQuadrantVS</text>
</a>
</g>
</g>
<g>
<g transform="translate(254.08 206.25)">
<a href="StructureDefinition-BreastBodyLocationExtension-definitions.html#Extension.extension:region" target="_top">
<rect class="element" x="0" y="0" width="65.05" height="26.25" rx="3.75" ry="3.75" />
</a>
<a href="StructureDefinition-BreastBodyLocationExtension-definitions.html#Extension.extension:region" target="_top">
<text x="5.62" y="18.75" text-anchor="left" class="element">Region</text>
</a>
</g>
<line class="connector" marker-end="url(#arrowEnd)" x1="349.13" y1="219.38" x2="409.13" y2="219.38" />
<text x="352.88" y="215.62" text-anchor="right" class="lhsText">bind</text>
<line class="connector" marker-start="url(#arrowStart)" x1="319.13" y1="219.38" x2="349.13" y2="219.38" />
<line class="connector" x1="349.13" y1="219.38" x2="349.13" y2="219.38" />
</g>
<g>
<g transform="translate(409.13 206.25)">
<a href="ValueSet-BreastBodyLocationRegionVS.html" target="_top">
<rect class="valueSet" x="0" y="0" width="234.53" height="26.25" rx="3.75" ry="3.75" />
</a>
<a href="ValueSet-BreastBodyLocationRegionVS.html" target="_top">
<text x="5.62" y="18.75" text-anchor="left" class="valueSet">BreastBodyLocationRegionVS</text>
</a>
</g>
</g>
<g>
<g transform="translate(3.75 315)">
<rect class="focus" x="0" y="0" width="57.72" height="26.25" rx="3.75" ry="3.75" />
<text x="5.62" y="18.75" text-anchor="left" class="focus">Focus</text>
</g>
<g transform="translate(68.97 315)">
<rect class="element" x="0" y="0" width="148.39" height="26.25" rx="3.75" ry="3.75" />
<text x="5.62" y="18.75" text-anchor="left" class="element">Resource Element</text>
</g>
<g transform="translate(224.85 315)">
<rect class="valueSet" x="0" y="0" width="79.72" height="26.25" rx="3.75" ry="3.75" />
<text x="5.62" y="18.75" text-anchor="left" class="valueSet">ValueSet</text>
</g>
</g>
</svg>
