<?xml version="1.0"?>
<!DOCTYPE svg PUBLIC "-//W3C//DTD SVG 1.1//EN" "http://www.w3.org/Graphics/SVG/1.1/DTD/svg11.dtd">
<svg xmlns="http://www.w3.org/2000/svg" version="1.1" width="547.5" height="187.5">
<defs>
<marker id="arrowStart" markerWidth="3.75" markerHeight="3.75" markerUnits="px" refX="1.875" refY="1.875">
<circle fill="Black" stroke-width="0" cx="1.875" cy="1.875" r="1.875" />
</marker>
<marker id="arrowEnd" markerWidth="7.5" markerHeight="7.5" markerUnits="px" refX="7.5" refY="3.75">
<polygon fill="Black" stroke-width="0" points="0 0 7.5 3.75 0 7.5" />
</marker>
</defs>
<g>
<g transform="translate(7.5 7.5)">
<rect fill="LightCyan" stroke="Black" stroke-width="1.875" x="0" y="0" width="99" height="33.75" rx="3.75" ry="3.75" />
<a href="./StructureDefinition-SectionFindings.html" target="_top">
<title>'SectionFindings'</title>
<text x="49.5" y="22.5" text-anchor="middle">Findings</text>
</a>
</g>
<line stroke="Black" stroke-width="1.875" marker-end="url(#arrowEnd)" x1="136.5" y1="24.375" x2="166.5" y2="24.375" />
<line stroke="Black" stroke-width="1.875" marker-start="url(#arrowStart)" x1="106.5" y1="24.375" x2="136.5" y2="24.375" />
<line stroke="Black" stroke-width="1.875" x1="136.5" y1="24.375" x2="136.5" y2="24.375" />
</g>
<g>
<g transform="translate(166.5 7.5)">
<rect fill="White" stroke="Black" stroke-width="1.875" x="0" y="0" width="130.5" height="33.75" rx="3.75" ry="3.75" />
<text x="65.25" y="22.5" text-anchor="middle">Left Breast</text>
</g>
<line stroke="Black" stroke-width="1.875" marker-end="url(#arrowEnd)" x1="327" y1="24.375" x2="357" y2="24.375" />
<line stroke="Black" stroke-width="1.875" marker-end="url(#arrowEnd)" x1="327" y1="65.625" x2="357" y2="65.625" />
<line stroke="Black" stroke-width="1.875" marker-end="url(#arrowEnd)" x1="327" y1="106.875" x2="357" y2="106.875" />
<line stroke="Black" stroke-width="1.875" marker-end="url(#arrowEnd)" x1="327" y1="148.125" x2="357" y2="148.125" />
<line stroke="Black" stroke-width="1.875" marker-start="url(#arrowStart)" x1="297" y1="24.375" x2="327" y2="24.375" />
<line stroke="Black" stroke-width="1.875" x1="327" y1="24.375" x2="327" y2="148.125" />
</g>
<g>
<g transform="translate(357 7.5)">
<rect fill="LightCyan" stroke="Black" stroke-width="1.875" x="0" y="0" width="120" height="33.75" rx="3.75" ry="3.75" />
<a href="./StructureDefinition-MGFinding.html" target="_top">
<title>'MGFinding'</title>
<text x="60" y="22.5" text-anchor="middle">MG Finding</text>
</a>
</g>
</g>
<g>
<g transform="translate(357 48.75)">
<rect fill="LightCyan" stroke="Black" stroke-width="1.875" x="0" y="0" width="130.5" height="33.75" rx="3.75" ry="3.75" />
<a href="./StructureDefinition-MRIFinding.html" target="_top">
<title>'MRIFinding'</title>
<text x="65.25" y="22.5" text-anchor="middle">MRI Finding</text>
</a>
</g>
</g>
<g>
<g transform="translate(357 90)">
<rect fill="LightCyan" stroke="Black" stroke-width="1.875" x="0" y="0" width="120" height="33.75" rx="3.75" ry="3.75" />
<a href="./StructureDefinition-NMFinding.html" target="_top">
<title>'NMFinding'</title>
<text x="60" y="22.5" text-anchor="middle">NM Finding</text>
</a>
</g>
</g>
<g>
<g transform="translate(357 131.25)">
<rect fill="LightCyan" stroke="Black" stroke-width="1.875" x="0" y="0" width="120" height="33.75" rx="3.75" ry="3.75" />
<a href="./StructureDefinition-USFinding.html" target="_top">
<title>'USFinding'</title>
<text x="60" y="22.5" text-anchor="middle">US Finding</text>
</a>
</g>
</g>
</svg>
