<?xml version="1.0"?>
<!DOCTYPE svg PUBLIC "-//W3C//DTD SVG 1.1//EN" "http://www.w3.org/Graphics/SVG/1.1/DTD/svg11.dtd">
<svg xmlns="http://www.w3.org/2000/svg" version="1.1" width="757.5" height="933.75">
<defs>
<marker id="arrowStart" markerWidth="3.75" markerHeight="3.75" markerUnits="px" refX="1.875" refY="1.875">
<circle fill="Black" stroke-width="0" cx="1.875" cy="1.875" r="1.875" />
</marker>
<marker id="arrowEnd" markerWidth="7.5" markerHeight="7.5" markerUnits="px" refX="7.5" refY="3.75">
<polygon fill="Black" stroke-width="0" points="0 0 7.5 3.75 0 7.5" />
</marker>
</defs>
<g>
<g transform="translate(7.5 7.5)">
<rect fill="LightCyan" stroke="Black" stroke-width="1.875" x="0" y="0" width="120" height="33.75" rx="3.75" ry="3.75" />
<a href="./StructureDefinition-MGFinding.html" target="_top">
<title>'MGFinding'</title>
<text x="60" y="22.5" text-anchor="middle">MG Finding</text>
</a>
</g>
<line stroke="Black" stroke-width="1.875" marker-end="url(#arrowEnd)" x1="157.5" y1="24.375" x2="187.5" y2="24.375" />
<line stroke="Black" stroke-width="1.875" marker-start="url(#arrowStart)" x1="127.5" y1="24.375" x2="157.5" y2="24.375" />
<line stroke="Black" stroke-width="1.875" x1="157.5" y1="24.375" x2="157.5" y2="24.375" />
</g>
<g>
<g transform="translate(187.5 7.5)">
<rect fill="White" stroke="Black" stroke-width="1.875" x="0" y="0" width="120" height="33.75" rx="3.75" ry="3.75" />
<text x="60" y="22.5" text-anchor="middle">MG Density</text>
</g>
<line stroke="Black" stroke-width="1.875" marker-end="url(#arrowEnd)" x1="337.5" y1="33.75" x2="367.5" y2="33.75" />
<line stroke="Black" stroke-width="1.875" marker-end="url(#arrowEnd)" x1="337.5" y1="93.75" x2="367.5" y2="93.75" />
<line stroke="Black" stroke-width="1.875" marker-end="url(#arrowEnd)" x1="337.5" y1="163.125" x2="367.5" y2="163.125" />
<line stroke="Black" stroke-width="1.875" marker-end="url(#arrowEnd)" x1="337.5" y1="232.5" x2="367.5" y2="232.5" />
<line stroke="Black" stroke-width="1.875" marker-end="url(#arrowEnd)" x1="337.5" y1="301.875" x2="367.5" y2="301.875" />
<line stroke="Black" stroke-width="1.875" marker-end="url(#arrowEnd)" x1="337.5" y1="380.625" x2="367.5" y2="380.625" />
<line stroke="Black" stroke-width="1.875" marker-end="url(#arrowEnd)" x1="337.5" y1="450" x2="367.5" y2="450" />
<line stroke="Black" stroke-width="1.875" marker-end="url(#arrowEnd)" x1="337.5" y1="519.375" x2="367.5" y2="519.375" />
<line stroke="Black" stroke-width="1.875" marker-end="url(#arrowEnd)" x1="337.5" y1="598.125" x2="367.5" y2="598.125" />
<line stroke="Black" stroke-width="1.875" marker-end="url(#arrowEnd)" x1="337.5" y1="676.875" x2="367.5" y2="676.875" />
<line stroke="Black" stroke-width="1.875" marker-end="url(#arrowEnd)" x1="337.5" y1="755.625" x2="367.5" y2="755.625" />
<line stroke="Black" stroke-width="1.875" marker-end="url(#arrowEnd)" x1="337.5" y1="834.375" x2="367.5" y2="834.375" />
<line stroke="Black" stroke-width="1.875" marker-end="url(#arrowEnd)" x1="337.5" y1="894.375" x2="367.5" y2="894.375" />
<line stroke="Black" stroke-width="1.875" marker-start="url(#arrowStart)" x1="307.5" y1="24.375" x2="337.5" y2="24.375" />
<line stroke="Black" stroke-width="1.875" x1="337.5" y1="24.375" x2="337.5" y2="894.375" />
</g>
<g>
<g transform="translate(367.5 7.5)">
<rect fill="LightCyan" stroke="Black" stroke-width="1.875" x="0" y="0" width="151.49998" height="52.5" rx="3.75" ry="3.75" />
<a href="./StructureDefinition-MGAssociatedFeatures.html" target="_top">
<title>'MGAssociatedFeatures'</title>
<text x="75.74999" y="22.5" text-anchor="middle">MG Associated</text>
</a>
<a href="./StructureDefinition-MGAssociatedFeatures.html" target="_top">
<title>'MGAssociatedFeatures'</title>
<text x="75.74999" y="41.25" text-anchor="middle">Features</text>
</a>
</g>
<g transform="translate(367.5 67.5)">
<rect fill="LightCyan" stroke="Black" stroke-width="1.875" x="0" y="0" width="120" height="52.5" rx="3.75" ry="3.75" />
<a href="./StructureDefinition-ConsistentWith.html" target="_top">
<title>'ConsistentWith'</title>
<text x="60" y="22.5" text-anchor="middle">Consistent</text>
</a>
<a href="./StructureDefinition-ConsistentWith.html" target="_top">
<title>'ConsistentWith'</title>
<text x="60" y="41.25" text-anchor="middle">With</text>
</a>
</g>
<g transform="translate(367.5 127.5)">
<rect fill="LightYellow" stroke="Black" stroke-width="1.875" x="0" y="0" width="287.99997" height="71.25" rx="3.75" ry="3.75" />
<text x="143.99998" y="22.5" text-anchor="middle">MG AbnormalityDensity Type</text>
<text x="143.99998" y="41.25" text-anchor="middle">CodeableConcept</text>
<a href="./ValueSet-MGAbnormalityDensityTypeVS.html" target="_top">
<title>'MGAbnormalityDensityTypeVS'</title>
<text x="143.99998" y="60" text-anchor="middle">MGAbnormalityDensityTypeVS</text>
</a>
</g>
<g transform="translate(367.5 206.25)">
<rect fill="LightYellow" stroke="Black" stroke-width="1.875" x="0" y="0" width="162" height="52.5" rx="3.75" ry="3.75" />
<text x="81" y="22.5" text-anchor="middle">Observed Count</text>
<text x="81" y="41.25" text-anchor="middle">Quantity</text>
</g>
<g transform="translate(367.5 266.25)">
<rect fill="LightYellow" stroke="Black" stroke-width="1.875" x="0" y="0" width="309" height="71.25" rx="3.75" ry="3.75" />
<text x="154.5" y="22.5" text-anchor="middle">BiRads Assessment Category</text>
<text x="154.5" y="41.25" text-anchor="middle">CodeableConcept</text>
<a href="./ValueSet-BiRadsAssessmentCategoriesVS.html" target="_top">
<title>'BiRadsAssessmentCategoriesVS'</title>
<text x="154.5" y="60" text-anchor="middle">BiRadsAssessmentCategoriesVS</text>
</a>
</g>
<g transform="translate(367.5 345)">
<rect fill="LightYellow" stroke="Black" stroke-width="1.875" x="0" y="0" width="330" height="71.25" rx="3.75" ry="3.75" />
<text x="165" y="22.5" text-anchor="middle">Observed Change In Abnormality</text>
<text x="165" y="41.25" text-anchor="middle">CodeableConcept</text>
<a href="./ValueSet-ObservedChangesVS.html" target="_top">
<title>'ObservedChangesVS'</title>
<text x="165" y="60" text-anchor="middle">ObservedChangesVS</text>
</a>
</g>
<g transform="translate(367.5 423.75)">
<rect fill="LightYellow" stroke="Black" stroke-width="1.875" x="0" y="0" width="246" height="52.5" rx="3.75" ry="3.75" />
<text x="123" y="22.5" text-anchor="middle">Size of an abnormality</text>
<text x="123" y="41.25" text-anchor="middle">Quantity</text>
</g>
<g transform="translate(367.5 483.75)">
<rect fill="LightYellow" stroke="Black" stroke-width="1.875" x="0" y="0" width="319.5" height="71.25" rx="3.75" ry="3.75" />
<text x="159.75" y="22.5" text-anchor="middle">Orientation of an abnormality</text>
<text x="159.75" y="41.25" text-anchor="middle">CodeableConcept</text>
<a href="./ValueSet-OrientationVS.html" target="_top">
<title>'OrientationVS'</title>
<text x="159.75" y="60" text-anchor="middle">OrientationVS</text>
</a>
</g>
<g transform="translate(367.5 562.5)">
<rect fill="LightYellow" stroke="Black" stroke-width="1.875" x="0" y="0" width="172.5" height="71.25" rx="3.75" ry="3.75" />
<text x="86.25" y="22.5" text-anchor="middle">Orientation</text>
<text x="86.25" y="41.25" text-anchor="middle">CodeableConcept</text>
<a href="./ValueSet-OrientationVS.html" target="_top">
<title>'OrientationVS'</title>
<text x="86.25" y="60" text-anchor="middle">OrientationVS</text>
</a>
</g>
<g transform="translate(367.5 641.25)">
<rect fill="LightYellow" stroke="Black" stroke-width="1.875" x="0" y="0" width="172.5" height="71.25" rx="3.75" ry="3.75" />
<text x="86.25" y="22.5" text-anchor="middle">Shape</text>
<text x="86.25" y="41.25" text-anchor="middle">CodeableConcept</text>
<a href="./ValueSet-ShapeVS.html" target="_top">
<title>'ShapeVS'</title>
<text x="86.25" y="60" text-anchor="middle">ShapeVS</text>
</a>
</g>
<g transform="translate(367.5 720)">
<rect fill="LightYellow" stroke="Black" stroke-width="1.875" x="0" y="0" width="172.5" height="71.25" rx="3.75" ry="3.75" />
<text x="86.25" y="22.5" text-anchor="middle">Margin</text>
<text x="86.25" y="41.25" text-anchor="middle">CodeableConcept</text>
<a href="./ValueSet-MarginVS.html" target="_top">
<title>'MarginVS'</title>
<text x="86.25" y="60" text-anchor="middle">MarginVS</text>
</a>
</g>
<g transform="translate(367.5 798.75)">
<rect fill="LightYellow" stroke="Black" stroke-width="1.875" x="0" y="0" width="172.5" height="71.25" rx="3.75" ry="3.75" />
<text x="86.25" y="22.5" text-anchor="middle">Density</text>
<text x="86.25" y="41.25" text-anchor="middle">CodeableConcept</text>
<a href="./ValueSet-MGDensityVS.html" target="_top">
<title>'MGDensityVS'</title>
<text x="86.25" y="60" text-anchor="middle">MGDensityVS</text>
</a>
</g>
<g transform="translate(367.5 877.5)">
<rect fill="LightBlue" stroke="Black" stroke-width="1.875" x="0" y="0" width="183" height="33.75" rx="3.75" ry="3.75" />
<a href="./StructureDefinition-BreastBodyLocationExtension.html" target="_top">
<title>'BreastBodyLocationExtension'</title>
<text x="91.5" y="22.5" text-anchor="middle">Breast Body Loc.</text>
</a>
</g>
</g>
</svg>
