<?xml version="1.0"?>
<?xml-stylesheet type="text/css" href="FocusGraph.css" ?>
<!DOCTYPE svg PUBLIC "-//W3C//DTD SVG 1.1//EN" "http://www.w3.org/Graphics/SVG/1.1/DTD/svg11.dtd">
<svg xmlns="http://www.w3.org/2000/svg" version="1.1" width="1215.64" height="577.5">
<defs>
<marker id="arrowStart" markerWidth="3.75" markerHeight="3.75" markerUnits="px" refX="1.88" refY="1.88">
<circle class="connector" cx="1.88" cy="1.88" r="1.88" />
</marker>
<marker id="arrowEnd" markerWidth="7.5" markerHeight="7.5" markerUnits="px" refX="7.5" refY="3.75">
<polygon class="connector" points="0 0 7.5 3.75 0 7.5" />
</marker>
</defs>
<g>
<g transform="translate(3.75 3.75)">
<a href="StructureDefinition-MGFinding.html" target="_top">
<rect class="profile" x="0" y="0" width="102.6" height="26.25" rx="3.75" ry="3.75" />
</a>
<a href="StructureDefinition-MGFinding.html" target="_top">
<text x="5.62" y="18.75" text-anchor="left" class="profile">Mg Findings</text>
</a>
</g>
<line class="connector" marker-end="url(#arrowEnd)" x1="136.35" y1="16.88" x2="196.35" y2="16.88" />
<text x="140.1" y="13.12" text-anchor="right" class="lhsText">0..*</text>
<line class="connector" marker-start="url(#arrowStart)" x1="106.35" y1="16.88" x2="136.35" y2="16.88" />
<line class="connector" x1="136.35" y1="16.88" x2="136.35" y2="16.88" />
</g>
<g>
<g transform="translate(196.35 3.75)">
<a href="StructureDefinition-AbnormalityArchitecturalDistortion.html" target="_top">
<rect class="focus" x="0" y="0" width="178.6" height="26.25" rx="3.75" ry="3.75" />
</a>
<a href="StructureDefinition-AbnormalityArchitecturalDistortion.html" target="_top">
<text x="5.62" y="18.75" text-anchor="left" class="focus">Architectural Distortion</text>
</a>
</g>
<line class="connector" marker-end="url(#arrowEnd)" x1="404.95" y1="16.88" x2="464.95" y2="16.88" />
<text x="408.7" y="13.12" text-anchor="right" class="lhsText">1..1</text>
<line class="connector" marker-end="url(#arrowEnd)" x1="404.95" y1="50.62" x2="464.95" y2="50.62" />
<text x="408.7" y="46.88" text-anchor="right" class="lhsText">1..1</text>
<line class="connector" marker-end="url(#arrowEnd)" x1="404.95" y1="84.38" x2="464.95" y2="84.38" />
<text x="408.7" y="80.62" text-anchor="right" class="lhsText">0..*</text>
<line class="connector" marker-end="url(#arrowEnd)" x1="404.95" y1="373.12" x2="464.95" y2="373.12" />
<text x="408.7" y="369.38" text-anchor="right" class="lhsText">0..*</text>
<line class="connector" marker-start="url(#arrowStart)" x1="374.95" y1="16.88" x2="404.95" y2="16.88" />
<line class="connector" x1="404.95" y1="16.88" x2="404.95" y2="373.12" />
</g>
<g>
<g transform="translate(464.95 3.75)">
<a href="StructureDefinition-AbnormalityArchitecturalDistortion-definitions.html#Observation.code" target="_top">
<rect class="element" x="0" y="0" width="52.22" height="26.25" rx="3.75" ry="3.75" />
</a>
<a href="StructureDefinition-AbnormalityArchitecturalDistortion-definitions.html#Observation.code" target="_top">
<text x="5.62" y="18.75" text-anchor="left" class="element">Code</text>
</a>
</g>
<line class="connector" marker-end="url(#arrowEnd)" x1="547.17" y1="16.88" x2="667.17" y2="16.88" />
<text x="550.92" y="13.12" text-anchor="right" class="lhsText">pattern </text>
<line class="connector" marker-start="url(#arrowStart)" x1="517.17" y1="16.88" x2="547.17" y2="16.88" />
<line class="connector" x1="547.17" y1="16.88" x2="547.17" y2="16.88" />
</g>
<g>
<g transform="translate(667.17 3.75)">
<a href="CodeSystem-ObservationCodesCS.html" target="_top">
<rect class="value" x="0" y="0" width="516.59" height="26.25" rx="3.75" ry="3.75" />
</a>
<a href="CodeSystem-ObservationCodesCS.html" target="_top">
<text x="5.62" y="18.75" text-anchor="left" class="value">ObservationCodesCS#abnormalityArchitecturalDistortionObservation</text>
</a>
</g>
</g>
<g>
<g transform="translate(464.95 37.5)">
<a href="StructureDefinition-AbnormalityArchitecturalDistortion-definitions.html#Observation.bodySite" target="_top">
<rect class="element" x="0" y="0" width="78.79" height="26.25" rx="3.75" ry="3.75" />
</a>
<a href="StructureDefinition-AbnormalityArchitecturalDistortion-definitions.html#Observation.bodySite" target="_top">
<text x="5.62" y="18.75" text-anchor="left" class="element">BodySite</text>
</a>
</g>
<line class="connector" marker-end="url(#arrowEnd)" x1="573.74" y1="50.62" x2="633.74" y2="50.62" />
<text x="577.49" y="46.88" text-anchor="right" class="lhsText">1..*</text>
<line class="connector" marker-start="url(#arrowStart)" x1="543.74" y1="50.62" x2="573.74" y2="50.62" />
<line class="connector" x1="573.74" y1="50.62" x2="573.74" y2="50.62" />
</g>
<g>
<g transform="translate(633.74 37.5)">
<a href="StructureDefinition-AbnormalityArchitecturalDistortion-definitions.html#Observation.bodySite.extension" target="_top">
<rect class="element" x="0" y="0" width="83.38" height="26.25" rx="3.75" ry="3.75" />
</a>
<a href="StructureDefinition-AbnormalityArchitecturalDistortion-definitions.html#Observation.bodySite.extension" target="_top">
<text x="5.62" y="18.75" text-anchor="left" class="element">extension</text>
</a>
</g>
<line class="connector" marker-end="url(#arrowEnd)" x1="747.12" y1="50.62" x2="777.12" y2="50.62" />
<line class="connector" marker-start="url(#arrowStart)" x1="717.12" y1="50.62" x2="747.12" y2="50.62" />
<line class="connector" x1="747.12" y1="50.62" x2="747.12" y2="50.62" />
</g>
<g>
<g transform="translate(777.12 37.5)">
<a href="StructureDefinition-BreastBodyLocationExtension.html" target="_top">
<rect class="extension" x="0" y="0" width="160.33" height="26.25" rx="3.75" ry="3.75" />
</a>
<a href="StructureDefinition-BreastBodyLocationExtension.html" target="_top">
<text x="5.62" y="18.75" text-anchor="left" class="extension">BreastBodyLocation</text>
</a>
</g>
</g>
<g>
<g transform="translate(464.95 71.25)">
<a href="StructureDefinition-AbnormalityArchitecturalDistortion-definitions.html#Observation.component" target="_top">
<rect class="element" x="0" y="0" width="106.26" height="26.25" rx="3.75" ry="3.75" />
</a>
<a href="StructureDefinition-AbnormalityArchitecturalDistortion-definitions.html#Observation.component" target="_top">
<text x="5.62" y="18.75" text-anchor="left" class="element">Components</text>
</a>
</g>
<line class="connector" marker-end="url(#arrowEnd)" x1="601.21" y1="84.38" x2="661.21" y2="84.38" />
<text x="604.96" y="80.62" text-anchor="right" class="lhsText">0..*</text>
<line class="connector" marker-end="url(#arrowEnd)" x1="601.21" y1="118.12" x2="661.21" y2="118.12" />
<text x="604.96" y="114.38" text-anchor="right" class="lhsText">0..1</text>
<line class="connector" marker-end="url(#arrowEnd)" x1="601.21" y1="151.88" x2="661.21" y2="151.88" />
<text x="604.96" y="148.12" text-anchor="right" class="lhsText">0..1</text>
<line class="connector" marker-end="url(#arrowEnd)" x1="601.21" y1="185.62" x2="661.21" y2="185.62" />
<text x="604.96" y="181.88" text-anchor="right" class="lhsText">0..*</text>
<line class="connector" marker-end="url(#arrowEnd)" x1="601.21" y1="219.38" x2="661.21" y2="219.38" />
<text x="604.96" y="215.62" text-anchor="right" class="lhsText">0..*</text>
<line class="connector" marker-end="url(#arrowEnd)" x1="601.21" y1="253.12" x2="661.21" y2="253.12" />
<text x="604.96" y="249.38" text-anchor="right" class="lhsText">0..1</text>
<line class="connector" marker-end="url(#arrowEnd)" x1="601.21" y1="296.25" x2="661.21" y2="296.25" />
<text x="604.96" y="292.5" text-anchor="right" class="lhsText">0..*</text>
<line class="connector" marker-end="url(#arrowEnd)" x1="601.21" y1="339.38" x2="661.21" y2="339.38" />
<text x="604.96" y="335.62" text-anchor="right" class="lhsText">0..1</text>
<line class="connector" marker-start="url(#arrowStart)" x1="571.21" y1="84.38" x2="601.21" y2="84.38" />
<line class="connector" x1="601.21" y1="84.38" x2="601.21" y2="339.38" />
</g>
<g>
<g transform="translate(661.21 71.25)">
<a href="StructureDefinition-AbnormalityArchitecturalDistortion-definitions.html#Observation.component:correspondsWith" target="_top">
<rect class="element" x="0" y="0" width="144.71" height="26.25" rx="3.75" ry="3.75" />
</a>
<a href="StructureDefinition-AbnormalityArchitecturalDistortion-definitions.html#Observation.component:correspondsWith" target="_top">
<text x="5.62" y="18.75" text-anchor="left" class="element">Corresponds With</text>
</a>
</g>
<line class="connector" marker-end="url(#arrowEnd)" x1="835.92" y1="84.38" x2="895.92" y2="84.38" />
<text x="839.67" y="80.62" text-anchor="right" class="lhsText">bind</text>
<line class="connector" marker-start="url(#arrowStart)" x1="805.92" y1="84.38" x2="835.92" y2="84.38" />
<line class="connector" x1="835.92" y1="84.38" x2="835.92" y2="84.38" />
</g>
<g>
<g transform="translate(895.92 71.25)">
<a href="ValueSet-CorrespondsWithVS.html" target="_top">
<rect class="valueSet" x="0" y="0" width="162.11" height="26.25" rx="3.75" ry="3.75" />
</a>
<a href="ValueSet-CorrespondsWithVS.html" target="_top">
<text x="5.62" y="18.75" text-anchor="left" class="valueSet">CorrespondsWithVS</text>
</a>
</g>
</g>
<g>
<g transform="translate(661.21 105)">
<a href="StructureDefinition-AbnormalityArchitecturalDistortion-definitions.html#Observation.component:density" target="_top">
<rect class="element" x="0" y="0" width="67.79" height="26.25" rx="3.75" ry="3.75" />
</a>
<a href="StructureDefinition-AbnormalityArchitecturalDistortion-definitions.html#Observation.component:density" target="_top">
<text x="5.62" y="18.75" text-anchor="left" class="element">Density</text>
</a>
</g>
<line class="connector" marker-end="url(#arrowEnd)" x1="759" y1="118.12" x2="819" y2="118.12" />
<text x="762.75" y="114.38" text-anchor="right" class="lhsText">bind</text>
<line class="connector" marker-start="url(#arrowStart)" x1="729" y1="118.12" x2="759" y2="118.12" />
<line class="connector" x1="759" y1="118.12" x2="759" y2="118.12" />
</g>
<g>
<g transform="translate(819 105)">
<a href="ValueSet-LesionDensityVS.html" target="_top">
<rect class="valueSet" x="0" y="0" width="138.33" height="26.25" rx="3.75" ry="3.75" />
</a>
<a href="ValueSet-LesionDensityVS.html" target="_top">
<text x="5.62" y="18.75" text-anchor="left" class="valueSet">LesionDensityVS</text>
</a>
</g>
</g>
<g>
<g transform="translate(661.21 138.75)">
<a href="StructureDefinition-AbnormalityArchitecturalDistortion-definitions.html#Observation.component:margin" target="_top">
<rect class="element" x="0" y="0" width="63.2" height="26.25" rx="3.75" ry="3.75" />
</a>
<a href="StructureDefinition-AbnormalityArchitecturalDistortion-definitions.html#Observation.component:margin" target="_top">
<text x="5.62" y="18.75" text-anchor="left" class="element">Margin</text>
</a>
</g>
<line class="connector" marker-end="url(#arrowEnd)" x1="754.41" y1="151.88" x2="814.41" y2="151.88" />
<text x="758.16" y="148.12" text-anchor="right" class="lhsText">bind</text>
<line class="connector" marker-start="url(#arrowStart)" x1="724.41" y1="151.88" x2="754.41" y2="151.88" />
<line class="connector" x1="754.41" y1="151.88" x2="754.41" y2="151.88" />
</g>
<g>
<g transform="translate(814.41 138.75)">
<a href="ValueSet-MarginVS.html" target="_top">
<rect class="valueSet" x="0" y="0" width="85.18" height="26.25" rx="3.75" ry="3.75" />
</a>
<a href="ValueSet-MarginVS.html" target="_top">
<text x="5.62" y="18.75" text-anchor="left" class="valueSet">MarginVS</text>
</a>
</g>
</g>
<g>
<g transform="translate(661.21 172.5)">
<a href="StructureDefinition-AbnormalityArchitecturalDistortion-definitions.html#Observation.component:notPreviouslySeen" target="_top">
<rect class="element" x="0" y="0" width="162.14" height="26.25" rx="3.75" ry="3.75" />
</a>
<a href="StructureDefinition-AbnormalityArchitecturalDistortion-definitions.html#Observation.component:notPreviouslySeen" target="_top">
<text x="5.62" y="18.75" text-anchor="left" class="element">Not Previously Seen</text>
</a>
</g>
<line class="connector" marker-end="url(#arrowEnd)" x1="853.35" y1="185.62" x2="913.35" y2="185.62" />
<text x="857.1" y="181.88" text-anchor="right" class="lhsText">bind</text>
<line class="connector" marker-start="url(#arrowStart)" x1="823.35" y1="185.62" x2="853.35" y2="185.62" />
<line class="connector" x1="853.35" y1="185.62" x2="853.35" y2="185.62" />
</g>
<g>
<g transform="translate(913.35 172.5)">
<a href="ValueSet-NotPreviouslySeenVS.html" target="_top">
<rect class="valueSet" x="0" y="0" width="174.97" height="26.25" rx="3.75" ry="3.75" />
</a>
<a href="ValueSet-NotPreviouslySeenVS.html" target="_top">
<text x="5.62" y="18.75" text-anchor="left" class="valueSet">NotPreviouslySeenVS</text>
</a>
</g>
</g>
<g>
<g transform="translate(661.21 206.25)">
<a href="StructureDefinition-AbnormalityArchitecturalDistortion-definitions.html#Observation.component:obsChanges" target="_top">
<rect class="element" x="0" y="0" width="154.82" height="26.25" rx="3.75" ry="3.75" />
</a>
<a href="StructureDefinition-AbnormalityArchitecturalDistortion-definitions.html#Observation.component:obsChanges" target="_top">
<text x="5.62" y="18.75" text-anchor="left" class="element">Observed Changes</text>
</a>
</g>
<line class="connector" marker-end="url(#arrowEnd)" x1="846.03" y1="219.38" x2="906.03" y2="219.38" />
<text x="849.78" y="215.62" text-anchor="right" class="lhsText">bind</text>
<line class="connector" marker-start="url(#arrowStart)" x1="816.03" y1="219.38" x2="846.03" y2="219.38" />
<line class="connector" x1="846.03" y1="219.38" x2="846.03" y2="219.38" />
</g>
<g>
<g transform="translate(906.03 206.25)">
<a href="ValueSet-ObservedChangesVS.html" target="_top">
<rect class="valueSet" x="0" y="0" width="172.22" height="26.25" rx="3.75" ry="3.75" />
</a>
<a href="ValueSet-ObservedChangesVS.html" target="_top">
<text x="5.62" y="18.75" text-anchor="left" class="valueSet">ObservedChangesVS</text>
</a>
</g>
</g>
<g>
<g transform="translate(661.21 240)">
<a href="StructureDefinition-AbnormalityArchitecturalDistortion-definitions.html#Observation.component:orientation" target="_top">
<rect class="element" x="0" y="0" width="93.44" height="26.25" rx="3.75" ry="3.75" />
</a>
<a href="StructureDefinition-AbnormalityArchitecturalDistortion-definitions.html#Observation.component:orientation" target="_top">
<text x="5.62" y="18.75" text-anchor="left" class="element">Orientation</text>
</a>
</g>
<line class="connector" marker-end="url(#arrowEnd)" x1="784.65" y1="253.12" x2="844.65" y2="253.12" />
<text x="788.4" y="249.38" text-anchor="right" class="lhsText">bind</text>
<line class="connector" marker-start="url(#arrowStart)" x1="754.65" y1="253.12" x2="784.65" y2="253.12" />
<line class="connector" x1="784.65" y1="253.12" x2="784.65" y2="253.12" />
</g>
<g>
<g transform="translate(844.65 240)">
<a href="ValueSet-OrientationVS.html" target="_top">
<rect class="valueSet" x="0" y="0" width="115.43" height="26.25" rx="3.75" ry="3.75" />
</a>
<a href="ValueSet-OrientationVS.html" target="_top">
<text x="5.62" y="18.75" text-anchor="left" class="valueSet">OrientationVS</text>
</a>
</g>
</g>
<g>
<g transform="translate(661.21 273.75)">
<a href="StructureDefinition-AbnormalityArchitecturalDistortion-definitions.html#Observation.component:prevDemBy" target="_top">
<rect class="element" x="0" y="0" width="138.31" height="45" rx="3.75" ry="3.75" />
</a>
<a href="StructureDefinition-AbnormalityArchitecturalDistortion-definitions.html#Observation.component:prevDemBy" target="_top">
<text x="5.62" y="18.75" text-anchor="left" class="element">Previously</text>
</a>
<a href="StructureDefinition-AbnormalityArchitecturalDistortion-definitions.html#Observation.component:prevDemBy" target="_top">
<text x="5.62" y="37.5" text-anchor="left" class="element">Demonstrated by</text>
</a>
</g>
<line class="connector" marker-end="url(#arrowEnd)" x1="829.52" y1="286.88" x2="889.52" y2="286.88" />
<text x="833.27" y="283.12" text-anchor="right" class="lhsText">bind</text>
<line class="connector" marker-start="url(#arrowStart)" x1="799.52" y1="296.25" x2="829.52" y2="296.25" />
<line class="connector" x1="829.52" y1="286.88" x2="829.52" y2="296.25" />
</g>
<g>
<g transform="translate(889.52 273.75)">
<a href="ValueSet-PreviouslyDemonstratedByVS.html" target="_top">
<rect class="valueSet" x="0" y="0" width="233.57" height="26.25" rx="3.75" ry="3.75" />
</a>
<a href="ValueSet-PreviouslyDemonstratedByVS.html" target="_top">
<text x="5.62" y="18.75" text-anchor="left" class="valueSet">PreviouslyDemonstratedByVS</text>
</a>
</g>
</g>
<g>
<g transform="translate(661.21 326.25)">
<a href="StructureDefinition-AbnormalityArchitecturalDistortion-definitions.html#Observation.component:shape" target="_top">
<rect class="element" x="0" y="0" width="60.48" height="26.25" rx="3.75" ry="3.75" />
</a>
<a href="StructureDefinition-AbnormalityArchitecturalDistortion-definitions.html#Observation.component:shape" target="_top">
<text x="5.62" y="18.75" text-anchor="left" class="element">Shape</text>
</a>
</g>
<line class="connector" marker-end="url(#arrowEnd)" x1="751.69" y1="339.38" x2="811.69" y2="339.38" />
<text x="755.44" y="335.62" text-anchor="right" class="lhsText">bind</text>
<line class="connector" marker-start="url(#arrowStart)" x1="721.69" y1="339.38" x2="751.69" y2="339.38" />
<line class="connector" x1="751.69" y1="339.38" x2="751.69" y2="339.38" />
</g>
<g>
<g transform="translate(811.69 326.25)">
<a href="ValueSet-ShapeVS.html" target="_top">
<rect class="valueSet" x="0" y="0" width="82.47" height="26.25" rx="3.75" ry="3.75" />
</a>
<a href="ValueSet-ShapeVS.html" target="_top">
<text x="5.62" y="18.75" text-anchor="left" class="valueSet">ShapeVS</text>
</a>
</g>
</g>
<g>
<g transform="translate(464.95 360)">
<a href="StructureDefinition-AbnormalityArchitecturalDistortion-definitions.html#Observation.hasMember" target="_top">
<rect class="element" x="0" y="0" width="102.57" height="26.25" rx="3.75" ry="3.75" />
</a>
<a href="StructureDefinition-AbnormalityArchitecturalDistortion-definitions.html#Observation.hasMember" target="_top">
<text x="5.62" y="18.75" text-anchor="left" class="element">HasMember</text>
</a>
</g>
<line class="connector" marker-end="url(#arrowEnd)" x1="597.52" y1="373.12" x2="657.52" y2="373.12" />
<text x="601.27" y="369.38" text-anchor="right" class="lhsText">0..1</text>
<line class="connector" marker-end="url(#arrowEnd)" x1="597.52" y1="406.88" x2="657.52" y2="406.88" />
<text x="601.27" y="403.12" text-anchor="right" class="lhsText">0..*</text>
<line class="connector" marker-end="url(#arrowEnd)" x1="597.52" y1="440.62" x2="657.52" y2="440.62" />
<text x="601.27" y="436.88" text-anchor="right" class="lhsText">0..*</text>
<line class="connector" marker-start="url(#arrowStart)" x1="567.52" y1="373.12" x2="597.52" y2="373.12" />
<line class="connector" x1="597.52" y1="373.12" x2="597.52" y2="440.62" />
</g>
<g>
<g transform="translate(657.52 360)">
<a href="StructureDefinition-BreastAssessmentCategory.html" target="_top">
<rect class="profile" x="0" y="0" width="226.23" height="26.25" rx="3.75" ry="3.75" />
</a>
<a href="StructureDefinition-BreastAssessmentCategory.html" target="_top">
<text x="5.62" y="18.75" text-anchor="left" class="profile">Breast Assessment Category</text>
</a>
</g>
</g>
<g>
<g transform="translate(657.52 393.75)">
<a href="StructureDefinition-AssociatedFeature.html" target="_top">
<rect class="profile" x="0" y="0" width="154.82" height="26.25" rx="3.75" ry="3.75" />
</a>
<a href="StructureDefinition-AssociatedFeature.html" target="_top">
<text x="5.62" y="18.75" text-anchor="left" class="profile">Associated Feature</text>
</a>
</g>
</g>
<g>
<g transform="translate(657.52 427.5)">
<a href="StructureDefinition-ConsistentWith.html" target="_top">
<rect class="profile" x="0" y="0" width="128.23" height="26.25" rx="3.75" ry="3.75" />
</a>
<a href="StructureDefinition-ConsistentWith.html" target="_top">
<text x="5.62" y="18.75" text-anchor="left" class="profile">Consistent With</text>
</a>
</g>
</g>
<g>
<g transform="translate(3.75 536.25)">
<rect class="focus" x="0" y="0" width="57.72" height="26.25" rx="3.75" ry="3.75" />
<text x="5.62" y="18.75" text-anchor="left" class="focus">Focus</text>
</g>
<g transform="translate(68.97 536.25)">
<rect class="profile" x="0" y="0" width="143.81" height="26.25" rx="3.75" ry="3.75" />
<text x="5.62" y="18.75" text-anchor="left" class="profile">Profiled Resource</text>
</g>
<g transform="translate(220.28 536.25)">
<rect class="extension" x="0" y="0" width="85.21" height="26.25" rx="3.75" ry="3.75" />
<text x="5.62" y="18.75" text-anchor="left" class="extension">Extension</text>
</g>
<g transform="translate(312.98 536.25)">
<rect class="element" x="0" y="0" width="148.39" height="26.25" rx="3.75" ry="3.75" />
<text x="5.62" y="18.75" text-anchor="left" class="element">Resource Element</text>
</g>
<g transform="translate(468.87 536.25)">
<rect class="valueSet" x="0" y="0" width="79.72" height="26.25" rx="3.75" ry="3.75" />
<text x="5.62" y="18.75" text-anchor="left" class="valueSet">ValueSet</text>
</g>
<g transform="translate(556.09 536.25)">
<rect class="value" x="0" y="0" width="54.98" height="26.25" rx="3.75" ry="3.75" />
<text x="5.62" y="18.75" text-anchor="left" class="value">Value</text>
</g>
</g>
</svg>
