<?xml version="1.0"?>
<?xml-stylesheet type="text/css" href="FocusGraph.css" ?>
<!DOCTYPE svg PUBLIC "-//W3C//DTD SVG 1.1//EN" "http://www.w3.org/Graphics/SVG/1.1/DTD/svg11.dtd">
<svg xmlns="http://www.w3.org/2000/svg" version="1.1" width="1049.66" height="746.25">
<defs>
<marker id="arrowStart" markerWidth="3.75" markerHeight="3.75" markerUnits="px" refX="1.88" refY="1.88">
<circle class="connector" cx="1.88" cy="1.88" r="1.88" />
</marker>
<marker id="arrowEnd" markerWidth="7.5" markerHeight="7.5" markerUnits="px" refX="7.5" refY="3.75">
<polygon class="connector" points="0 0 7.5 3.75 0 7.5" />
</marker>
</defs>
<g>
<g transform="translate(3.75 3.75)">
<a href="StructureDefinition-MGFinding.html" target="_top">
<rect class="profile" x="0" y="0" width="102.6" height="26.25" rx="3.75" ry="3.75" />
</a>
<a href="StructureDefinition-MGFinding.html" target="_top">
<text x="5.62" y="18.75" text-anchor="left" class="profile">Mg Findings</text>
</a>
</g>
<line class="connector" marker-end="url(#arrowEnd)" x1="136.35" y1="16.88" x2="196.35" y2="16.88" />
<text x="140.1" y="13.12" text-anchor="right" class="lhsText">0..*</text>
<line class="connector" marker-start="url(#arrowStart)" x1="106.35" y1="16.88" x2="136.35" y2="16.88" />
<line class="connector" x1="136.35" y1="16.88" x2="136.35" y2="16.88" />
</g>
<g>
<g transform="translate(196.35 3.75)">
<a href="StructureDefinition-AbnormalityDensity.html" target="_top">
<rect class="focus" x="0" y="0" width="67.79" height="26.25" rx="3.75" ry="3.75" />
</a>
<a href="StructureDefinition-AbnormalityDensity.html" target="_top">
<text x="5.62" y="18.75" text-anchor="left" class="focus">Density</text>
</a>
</g>
<line class="connector" marker-end="url(#arrowEnd)" x1="294.14" y1="16.88" x2="354.14" y2="16.88" />
<text x="297.89" y="13.12" text-anchor="right" class="lhsText">1..1</text>
<line class="connector" marker-end="url(#arrowEnd)" x1="294.14" y1="50.62" x2="354.14" y2="50.62" />
<text x="297.89" y="46.88" text-anchor="right" class="lhsText">1..1</text>
<line class="connector" marker-end="url(#arrowEnd)" x1="294.14" y1="84.38" x2="354.14" y2="84.38" />
<text x="297.89" y="80.62" text-anchor="right" class="lhsText">1..*</text>
<line class="connector" marker-end="url(#arrowEnd)" x1="294.14" y1="541.88" x2="354.14" y2="541.88" />
<text x="297.89" y="538.12" text-anchor="right" class="lhsText">0..*</text>
<line class="connector" marker-start="url(#arrowStart)" x1="264.14" y1="16.88" x2="294.14" y2="16.88" />
<line class="connector" x1="294.14" y1="16.88" x2="294.14" y2="541.88" />
</g>
<g>
<g transform="translate(354.14 3.75)">
<a href="StructureDefinition-AbnormalityDensity-definitions.html#Observation.code" target="_top">
<rect class="element" x="0" y="0" width="52.22" height="26.25" rx="3.75" ry="3.75" />
</a>
<a href="StructureDefinition-AbnormalityDensity-definitions.html#Observation.code" target="_top">
<text x="5.62" y="18.75" text-anchor="left" class="element">Code</text>
</a>
</g>
<line class="connector" marker-end="url(#arrowEnd)" x1="436.36" y1="16.88" x2="556.36" y2="16.88" />
<text x="440.11" y="13.12" text-anchor="right" class="lhsText">pattern </text>
<line class="connector" marker-start="url(#arrowStart)" x1="406.36" y1="16.88" x2="436.36" y2="16.88" />
<line class="connector" x1="436.36" y1="16.88" x2="436.36" y2="16.88" />
</g>
<g>
<g transform="translate(556.36 3.75)">
<a href="CodeSystem-ObservationCodesCS.html" target="_top">
<rect class="value" x="0" y="0" width="410.36" height="26.25" rx="3.75" ry="3.75" />
</a>
<a href="CodeSystem-ObservationCodesCS.html" target="_top">
<text x="5.62" y="18.75" text-anchor="left" class="value">ObservationCodesCS#abnormalityDensityObservation</text>
</a>
</g>
</g>
<g>
<g transform="translate(354.14 37.5)">
<a href="StructureDefinition-AbnormalityDensity-definitions.html#Observation.bodySite" target="_top">
<rect class="element" x="0" y="0" width="78.79" height="26.25" rx="3.75" ry="3.75" />
</a>
<a href="StructureDefinition-AbnormalityDensity-definitions.html#Observation.bodySite" target="_top">
<text x="5.62" y="18.75" text-anchor="left" class="element">BodySite</text>
</a>
</g>
<line class="connector" marker-end="url(#arrowEnd)" x1="462.93" y1="50.62" x2="522.93" y2="50.62" />
<text x="466.68" y="46.88" text-anchor="right" class="lhsText">1..*</text>
<line class="connector" marker-start="url(#arrowStart)" x1="432.93" y1="50.62" x2="462.93" y2="50.62" />
<line class="connector" x1="462.93" y1="50.62" x2="462.93" y2="50.62" />
</g>
<g>
<g transform="translate(522.93 37.5)">
<a href="StructureDefinition-AbnormalityDensity-definitions.html#Observation.bodySite.extension" target="_top">
<rect class="element" x="0" y="0" width="83.38" height="26.25" rx="3.75" ry="3.75" />
</a>
<a href="StructureDefinition-AbnormalityDensity-definitions.html#Observation.bodySite.extension" target="_top">
<text x="5.62" y="18.75" text-anchor="left" class="element">extension</text>
</a>
</g>
<line class="connector" marker-end="url(#arrowEnd)" x1="636.31" y1="50.62" x2="666.31" y2="50.62" />
<line class="connector" marker-start="url(#arrowStart)" x1="606.31" y1="50.62" x2="636.31" y2="50.62" />
<line class="connector" x1="636.31" y1="50.62" x2="636.31" y2="50.62" />
</g>
<g>
<g transform="translate(666.31 37.5)">
<a href="StructureDefinition-BreastBodyLocationExtension.html" target="_top">
<rect class="extension" x="0" y="0" width="160.33" height="26.25" rx="3.75" ry="3.75" />
</a>
<a href="StructureDefinition-BreastBodyLocationExtension.html" target="_top">
<text x="5.62" y="18.75" text-anchor="left" class="extension">BreastBodyLocation</text>
</a>
</g>
</g>
<g>
<g transform="translate(354.14 71.25)">
<a href="StructureDefinition-AbnormalityDensity-definitions.html#Observation.component" target="_top">
<rect class="element" x="0" y="0" width="106.26" height="26.25" rx="3.75" ry="3.75" />
</a>
<a href="StructureDefinition-AbnormalityDensity-definitions.html#Observation.component" target="_top">
<text x="5.62" y="18.75" text-anchor="left" class="element">Components</text>
</a>
</g>
<line class="connector" marker-end="url(#arrowEnd)" x1="490.4" y1="84.38" x2="550.4" y2="84.38" />
<text x="494.15" y="80.62" text-anchor="right" class="lhsText">0..*</text>
<line class="connector" marker-end="url(#arrowEnd)" x1="490.4" y1="118.12" x2="550.4" y2="118.12" />
<text x="494.15" y="114.38" text-anchor="right" class="lhsText">0..1</text>
<line class="connector" marker-end="url(#arrowEnd)" x1="490.4" y1="151.88" x2="550.4" y2="151.88" />
<text x="494.15" y="148.12" text-anchor="right" class="lhsText">1..1</text>
<line class="connector" marker-end="url(#arrowEnd)" x1="490.4" y1="185.62" x2="550.4" y2="185.62" />
<text x="494.15" y="181.88" text-anchor="right" class="lhsText">0..1</text>
<line class="connector" marker-end="url(#arrowEnd)" x1="490.4" y1="219.38" x2="550.4" y2="219.38" />
<text x="494.15" y="215.62" text-anchor="right" class="lhsText">0..*</text>
<line class="connector" marker-end="url(#arrowEnd)" x1="490.4" y1="253.12" x2="550.4" y2="253.12" />
<text x="494.15" y="249.38" text-anchor="right" class="lhsText">0..*</text>
<line class="connector" marker-end="url(#arrowEnd)" x1="490.4" y1="286.88" x2="550.4" y2="286.88" />
<text x="494.15" y="283.12" text-anchor="right" class="lhsText">0..1</text>
<line class="connector" marker-end="url(#arrowEnd)" x1="490.4" y1="320.62" x2="550.4" y2="320.62" />
<text x="494.15" y="316.88" text-anchor="right" class="lhsText">0..*</text>
<line class="connector" marker-end="url(#arrowEnd)" x1="490.4" y1="354.38" x2="550.4" y2="354.38" />
<text x="494.15" y="350.62" text-anchor="right" class="lhsText">0..1</text>
<line class="connector" marker-end="url(#arrowEnd)" x1="490.4" y1="388.12" x2="550.4" y2="388.12" />
<text x="494.15" y="384.38" text-anchor="right" class="lhsText">0..3</text>
<line class="connector" marker-end="url(#arrowEnd)" x1="490.4" y1="421.88" x2="550.4" y2="421.88" />
<text x="494.15" y="418.12" text-anchor="right" class="lhsText">0..1</text>
<line class="connector" marker-end="url(#arrowEnd)" x1="490.4" y1="465" x2="550.4" y2="465" />
<text x="494.15" y="461.25" text-anchor="right" class="lhsText">0..*</text>
<line class="connector" marker-end="url(#arrowEnd)" x1="490.4" y1="508.12" x2="550.4" y2="508.12" />
<text x="494.15" y="504.38" text-anchor="right" class="lhsText">0..1</text>
<line class="connector" marker-start="url(#arrowStart)" x1="460.4" y1="84.38" x2="490.4" y2="84.38" />
<line class="connector" x1="490.4" y1="84.38" x2="490.4" y2="508.12" />
</g>
<g>
<g transform="translate(550.4 71.25)">
<a href="StructureDefinition-AbnormalityDensity-definitions.html#Observation.component:correspondsWith" target="_top">
<rect class="element" x="0" y="0" width="144.71" height="26.25" rx="3.75" ry="3.75" />
</a>
<a href="StructureDefinition-AbnormalityDensity-definitions.html#Observation.component:correspondsWith" target="_top">
<text x="5.62" y="18.75" text-anchor="left" class="element">Corresponds With</text>
</a>
</g>
<line class="connector" marker-end="url(#arrowEnd)" x1="725.11" y1="84.38" x2="785.11" y2="84.38" />
<text x="728.86" y="80.62" text-anchor="right" class="lhsText">bind</text>
<line class="connector" marker-start="url(#arrowStart)" x1="695.11" y1="84.38" x2="725.11" y2="84.38" />
<line class="connector" x1="725.11" y1="84.38" x2="725.11" y2="84.38" />
</g>
<g>
<g transform="translate(785.11 71.25)">
<a href="ValueSet-CorrespondsWithVS.html" target="_top">
<rect class="valueSet" x="0" y="0" width="162.11" height="26.25" rx="3.75" ry="3.75" />
</a>
<a href="ValueSet-CorrespondsWithVS.html" target="_top">
<text x="5.62" y="18.75" text-anchor="left" class="valueSet">CorrespondsWithVS</text>
</a>
</g>
</g>
<g>
<g transform="translate(550.4 105)">
<a href="StructureDefinition-AbnormalityDensity-definitions.html#Observation.component:density" target="_top">
<rect class="element" x="0" y="0" width="67.79" height="26.25" rx="3.75" ry="3.75" />
</a>
<a href="StructureDefinition-AbnormalityDensity-definitions.html#Observation.component:density" target="_top">
<text x="5.62" y="18.75" text-anchor="left" class="element">Density</text>
</a>
</g>
<line class="connector" marker-end="url(#arrowEnd)" x1="648.18" y1="118.12" x2="708.18" y2="118.12" />
<text x="651.93" y="114.38" text-anchor="right" class="lhsText">bind</text>
<line class="connector" marker-start="url(#arrowStart)" x1="618.18" y1="118.12" x2="648.18" y2="118.12" />
<line class="connector" x1="648.18" y1="118.12" x2="648.18" y2="118.12" />
</g>
<g>
<g transform="translate(708.18 105)">
<a href="ValueSet-LesionRadiographicDensityVS.html" target="_top">
<rect class="valueSet" x="0" y="0" width="235.43" height="26.25" rx="3.75" ry="3.75" />
</a>
<a href="ValueSet-LesionRadiographicDensityVS.html" target="_top">
<text x="5.62" y="18.75" text-anchor="left" class="valueSet">LesionRadiographicDensityVS</text>
</a>
</g>
</g>
<g>
<g transform="translate(550.4 138.75)">
<a href="StructureDefinition-AbnormalityDensity-definitions.html#Observation.component:densityType" target="_top">
<rect class="element" x="0" y="0" width="109.01" height="26.25" rx="3.75" ry="3.75" />
</a>
<a href="StructureDefinition-AbnormalityDensity-definitions.html#Observation.component:densityType" target="_top">
<text x="5.62" y="18.75" text-anchor="left" class="element">Density Type</text>
</a>
</g>
<line class="connector" marker-end="url(#arrowEnd)" x1="689.4" y1="151.88" x2="749.4" y2="151.88" />
<text x="693.15" y="148.12" text-anchor="right" class="lhsText">bind</text>
<line class="connector" marker-start="url(#arrowStart)" x1="659.4" y1="151.88" x2="689.4" y2="151.88" />
<line class="connector" x1="689.4" y1="151.88" x2="689.4" y2="151.88" />
</g>
<g>
<g transform="translate(749.4 138.75)">
<a href="ValueSet-AbnormalityDensityTypeVS.html" target="_top">
<rect class="valueSet" x="0" y="0" width="213.42" height="26.25" rx="3.75" ry="3.75" />
</a>
<a href="ValueSet-AbnormalityDensityTypeVS.html" target="_top">
<text x="5.62" y="18.75" text-anchor="left" class="valueSet">AbnormalityDensityTypeVS</text>
</a>
</g>
</g>
<g>
<g transform="translate(550.4 172.5)">
<a href="StructureDefinition-AbnormalityDensity-definitions.html#Observation.component:margin" target="_top">
<rect class="element" x="0" y="0" width="63.2" height="26.25" rx="3.75" ry="3.75" />
</a>
<a href="StructureDefinition-AbnormalityDensity-definitions.html#Observation.component:margin" target="_top">
<text x="5.62" y="18.75" text-anchor="left" class="element">Margin</text>
</a>
</g>
<line class="connector" marker-end="url(#arrowEnd)" x1="643.6" y1="185.62" x2="703.6" y2="185.62" />
<text x="647.35" y="181.88" text-anchor="right" class="lhsText">bind</text>
<line class="connector" marker-start="url(#arrowStart)" x1="613.6" y1="185.62" x2="643.6" y2="185.62" />
<line class="connector" x1="643.6" y1="185.62" x2="643.6" y2="185.62" />
</g>
<g>
<g transform="translate(703.6 172.5)">
<a href="ValueSet-MarginVS.html" target="_top">
<rect class="valueSet" x="0" y="0" width="85.18" height="26.25" rx="3.75" ry="3.75" />
</a>
<a href="ValueSet-MarginVS.html" target="_top">
<text x="5.62" y="18.75" text-anchor="left" class="valueSet">MarginVS</text>
</a>
</g>
</g>
<g>
<g transform="translate(550.4 206.25)">
<a href="StructureDefinition-AbnormalityDensity-definitions.html#Observation.component:notPreviouslySeen" target="_top">
<rect class="element" x="0" y="0" width="162.14" height="26.25" rx="3.75" ry="3.75" />
</a>
<a href="StructureDefinition-AbnormalityDensity-definitions.html#Observation.component:notPreviouslySeen" target="_top">
<text x="5.62" y="18.75" text-anchor="left" class="element">Not Previously Seen</text>
</a>
</g>
<line class="connector" marker-end="url(#arrowEnd)" x1="742.54" y1="219.38" x2="802.54" y2="219.38" />
<text x="746.29" y="215.62" text-anchor="right" class="lhsText">bind</text>
<line class="connector" marker-start="url(#arrowStart)" x1="712.54" y1="219.38" x2="742.54" y2="219.38" />
<line class="connector" x1="742.54" y1="219.38" x2="742.54" y2="219.38" />
</g>
<g>
<g transform="translate(802.54 206.25)">
<a href="ValueSet-NotPreviouslySeenVS.html" target="_top">
<rect class="valueSet" x="0" y="0" width="174.97" height="26.25" rx="3.75" ry="3.75" />
</a>
<a href="ValueSet-NotPreviouslySeenVS.html" target="_top">
<text x="5.62" y="18.75" text-anchor="left" class="valueSet">NotPreviouslySeenVS</text>
</a>
</g>
</g>
<g>
<g transform="translate(550.4 240)">
<a href="StructureDefinition-AbnormalityDensity-definitions.html#Observation.component:obsChanges" target="_top">
<rect class="element" x="0" y="0" width="154.82" height="26.25" rx="3.75" ry="3.75" />
</a>
<a href="StructureDefinition-AbnormalityDensity-definitions.html#Observation.component:obsChanges" target="_top">
<text x="5.62" y="18.75" text-anchor="left" class="element">Observed Changes</text>
</a>
</g>
<line class="connector" marker-end="url(#arrowEnd)" x1="735.22" y1="253.12" x2="795.22" y2="253.12" />
<text x="738.97" y="249.38" text-anchor="right" class="lhsText">bind</text>
<line class="connector" marker-start="url(#arrowStart)" x1="705.22" y1="253.12" x2="735.22" y2="253.12" />
<line class="connector" x1="735.22" y1="253.12" x2="735.22" y2="253.12" />
</g>
<g>
<g transform="translate(795.22 240)">
<a href="ValueSet-ObservedChangesVS.html" target="_top">
<rect class="valueSet" x="0" y="0" width="172.22" height="26.25" rx="3.75" ry="3.75" />
</a>
<a href="ValueSet-ObservedChangesVS.html" target="_top">
<text x="5.62" y="18.75" text-anchor="left" class="valueSet">ObservedChangesVS</text>
</a>
</g>
</g>
<g>
<g transform="translate(550.4 273.75)">
<a href="StructureDefinition-AbnormalityDensity-definitions.html#Observation.component:observedCount" target="_top">
<rect class="element" x="0" y="0" width="132.83" height="26.25" rx="3.75" ry="3.75" />
</a>
<a href="StructureDefinition-AbnormalityDensity-definitions.html#Observation.component:observedCount" target="_top">
<text x="5.62" y="18.75" text-anchor="left" class="element">Observed Count</text>
</a>
</g>
</g>
<g>
<g transform="translate(550.4 307.5)">
<a href="StructureDefinition-AbnormalityDensity-definitions.html#Observation.component:obsDistribution" target="_top">
<rect class="element" x="0" y="0" width="171.29" height="26.25" rx="3.75" ry="3.75" />
</a>
<a href="StructureDefinition-AbnormalityDensity-definitions.html#Observation.component:obsDistribution" target="_top">
<text x="5.62" y="18.75" text-anchor="left" class="element">Observed Distribution</text>
</a>
</g>
<line class="connector" marker-end="url(#arrowEnd)" x1="751.68" y1="320.62" x2="811.68" y2="320.62" />
<text x="755.43" y="316.88" text-anchor="right" class="lhsText">bind</text>
<line class="connector" marker-start="url(#arrowStart)" x1="721.68" y1="320.62" x2="751.68" y2="320.62" />
<line class="connector" x1="751.68" y1="320.62" x2="751.68" y2="320.62" />
</g>
<g>
<g transform="translate(811.68 307.5)">
<a href="ValueSet-CalcificationDistributionVS.html" target="_top">
<rect class="valueSet" x="0" y="0" width="206.1" height="26.25" rx="3.75" ry="3.75" />
</a>
<a href="ValueSet-CalcificationDistributionVS.html" target="_top">
<text x="5.62" y="18.75" text-anchor="left" class="valueSet">CalcificationDistributionVS</text>
</a>
</g>
</g>
<g>
<g transform="translate(550.4 341.25)">
<a href="StructureDefinition-AbnormalityDensity-definitions.html#Observation.component:obsDistRegionSize" target="_top">
<rect class="element" x="0" y="0" width="264.72" height="26.25" rx="3.75" ry="3.75" />
</a>
<a href="StructureDefinition-AbnormalityDensity-definitions.html#Observation.component:obsDistRegionSize" target="_top">
<text x="5.62" y="18.75" text-anchor="left" class="element">Observed Distribution Region Size</text>
</a>
</g>
</g>
<g>
<g transform="translate(550.4 375)">
<a href="StructureDefinition-AbnormalityDensity-definitions.html#Observation.component:obsSize" target="_top">
<rect class="element" x="0" y="0" width="120.92" height="26.25" rx="3.75" ry="3.75" />
</a>
<a href="StructureDefinition-AbnormalityDensity-definitions.html#Observation.component:obsSize" target="_top">
<text x="5.62" y="18.75" text-anchor="left" class="element">Observed Size</text>
</a>
</g>
</g>
<g>
<g transform="translate(550.4 408.75)">
<a href="StructureDefinition-AbnormalityDensity-definitions.html#Observation.component:orientation" target="_top">
<rect class="element" x="0" y="0" width="93.44" height="26.25" rx="3.75" ry="3.75" />
</a>
<a href="StructureDefinition-AbnormalityDensity-definitions.html#Observation.component:orientation" target="_top">
<text x="5.62" y="18.75" text-anchor="left" class="element">Orientation</text>
</a>
</g>
<line class="connector" marker-end="url(#arrowEnd)" x1="673.84" y1="421.88" x2="733.84" y2="421.88" />
<text x="677.59" y="418.12" text-anchor="right" class="lhsText">bind</text>
<line class="connector" marker-start="url(#arrowStart)" x1="643.84" y1="421.88" x2="673.84" y2="421.88" />
<line class="connector" x1="673.84" y1="421.88" x2="673.84" y2="421.88" />
</g>
<g>
<g transform="translate(733.84 408.75)">
<a href="ValueSet-OrientationVS.html" target="_top">
<rect class="valueSet" x="0" y="0" width="115.43" height="26.25" rx="3.75" ry="3.75" />
</a>
<a href="ValueSet-OrientationVS.html" target="_top">
<text x="5.62" y="18.75" text-anchor="left" class="valueSet">OrientationVS</text>
</a>
</g>
</g>
<g>
<g transform="translate(550.4 442.5)">
<a href="StructureDefinition-AbnormalityDensity-definitions.html#Observation.component:prevDemBy" target="_top">
<rect class="element" x="0" y="0" width="138.31" height="45" rx="3.75" ry="3.75" />
</a>
<a href="StructureDefinition-AbnormalityDensity-definitions.html#Observation.component:prevDemBy" target="_top">
<text x="5.62" y="18.75" text-anchor="left" class="element">Previously</text>
</a>
<a href="StructureDefinition-AbnormalityDensity-definitions.html#Observation.component:prevDemBy" target="_top">
<text x="5.62" y="37.5" text-anchor="left" class="element">Demonstrated by</text>
</a>
</g>
<line class="connector" marker-end="url(#arrowEnd)" x1="718.71" y1="455.62" x2="778.71" y2="455.62" />
<text x="722.46" y="451.88" text-anchor="right" class="lhsText">bind</text>
<line class="connector" marker-start="url(#arrowStart)" x1="688.71" y1="465" x2="718.71" y2="465" />
<line class="connector" x1="718.71" y1="455.62" x2="718.71" y2="465" />
</g>
<g>
<g transform="translate(778.71 442.5)">
<a href="ValueSet-PreviouslyDemonstratedByVS.html" target="_top">
<rect class="valueSet" x="0" y="0" width="233.57" height="26.25" rx="3.75" ry="3.75" />
</a>
<a href="ValueSet-PreviouslyDemonstratedByVS.html" target="_top">
<text x="5.62" y="18.75" text-anchor="left" class="valueSet">PreviouslyDemonstratedByVS</text>
</a>
</g>
</g>
<g>
<g transform="translate(550.4 495)">
<a href="StructureDefinition-AbnormalityDensity-definitions.html#Observation.component:shape" target="_top">
<rect class="element" x="0" y="0" width="60.48" height="26.25" rx="3.75" ry="3.75" />
</a>
<a href="StructureDefinition-AbnormalityDensity-definitions.html#Observation.component:shape" target="_top">
<text x="5.62" y="18.75" text-anchor="left" class="element">Shape</text>
</a>
</g>
<line class="connector" marker-end="url(#arrowEnd)" x1="640.88" y1="508.12" x2="700.88" y2="508.12" />
<text x="644.63" y="504.38" text-anchor="right" class="lhsText">bind</text>
<line class="connector" marker-start="url(#arrowStart)" x1="610.88" y1="508.12" x2="640.88" y2="508.12" />
<line class="connector" x1="640.88" y1="508.12" x2="640.88" y2="508.12" />
</g>
<g>
<g transform="translate(700.88 495)">
<a href="ValueSet-ShapeVS.html" target="_top">
<rect class="valueSet" x="0" y="0" width="82.47" height="26.25" rx="3.75" ry="3.75" />
</a>
<a href="ValueSet-ShapeVS.html" target="_top">
<text x="5.62" y="18.75" text-anchor="left" class="valueSet">ShapeVS</text>
</a>
</g>
</g>
<g>
<g transform="translate(354.14 528.75)">
<a href="StructureDefinition-AbnormalityDensity-definitions.html#Observation.hasMember" target="_top">
<rect class="element" x="0" y="0" width="102.57" height="26.25" rx="3.75" ry="3.75" />
</a>
<a href="StructureDefinition-AbnormalityDensity-definitions.html#Observation.hasMember" target="_top">
<text x="5.62" y="18.75" text-anchor="left" class="element">HasMember</text>
</a>
</g>
<line class="connector" marker-end="url(#arrowEnd)" x1="486.7" y1="541.88" x2="546.7" y2="541.88" />
<text x="490.45" y="538.12" text-anchor="right" class="lhsText">0..1</text>
<line class="connector" marker-end="url(#arrowEnd)" x1="486.7" y1="575.62" x2="546.7" y2="575.62" />
<text x="490.45" y="571.88" text-anchor="right" class="lhsText">0..*</text>
<line class="connector" marker-end="url(#arrowEnd)" x1="486.7" y1="609.38" x2="546.7" y2="609.38" />
<text x="490.45" y="605.62" text-anchor="right" class="lhsText">0..*</text>
<line class="connector" marker-start="url(#arrowStart)" x1="456.7" y1="541.88" x2="486.7" y2="541.88" />
<line class="connector" x1="486.7" y1="541.88" x2="486.7" y2="609.38" />
</g>
<g>
<g transform="translate(546.7 528.75)">
<a href="StructureDefinition-BreastAssessmentCategory.html" target="_top">
<rect class="profile" x="0" y="0" width="226.23" height="26.25" rx="3.75" ry="3.75" />
</a>
<a href="StructureDefinition-BreastAssessmentCategory.html" target="_top">
<text x="5.62" y="18.75" text-anchor="left" class="profile">Breast Assessment Category</text>
</a>
</g>
</g>
<g>
<g transform="translate(546.7 562.5)">
<a href="StructureDefinition-AssociatedFeature.html" target="_top">
<rect class="profile" x="0" y="0" width="154.82" height="26.25" rx="3.75" ry="3.75" />
</a>
<a href="StructureDefinition-AssociatedFeature.html" target="_top">
<text x="5.62" y="18.75" text-anchor="left" class="profile">Associated Feature</text>
</a>
</g>
</g>
<g>
<g transform="translate(546.7 596.25)">
<a href="StructureDefinition-ConsistentWith.html" target="_top">
<rect class="profile" x="0" y="0" width="128.23" height="26.25" rx="3.75" ry="3.75" />
</a>
<a href="StructureDefinition-ConsistentWith.html" target="_top">
<text x="5.62" y="18.75" text-anchor="left" class="profile">Consistent With</text>
</a>
</g>
</g>
<g>
<g transform="translate(3.75 705)">
<rect class="focus" x="0" y="0" width="57.72" height="26.25" rx="3.75" ry="3.75" />
<text x="5.62" y="18.75" text-anchor="left" class="focus">Focus</text>
</g>
<g transform="translate(68.97 705)">
<rect class="profile" x="0" y="0" width="143.81" height="26.25" rx="3.75" ry="3.75" />
<text x="5.62" y="18.75" text-anchor="left" class="profile">Profiled Resource</text>
</g>
<g transform="translate(220.28 705)">
<rect class="extension" x="0" y="0" width="85.21" height="26.25" rx="3.75" ry="3.75" />
<text x="5.62" y="18.75" text-anchor="left" class="extension">Extension</text>
</g>
<g transform="translate(312.98 705)">
<rect class="element" x="0" y="0" width="148.39" height="26.25" rx="3.75" ry="3.75" />
<text x="5.62" y="18.75" text-anchor="left" class="element">Resource Element</text>
</g>
<g transform="translate(468.87 705)">
<rect class="valueSet" x="0" y="0" width="79.72" height="26.25" rx="3.75" ry="3.75" />
<text x="5.62" y="18.75" text-anchor="left" class="valueSet">ValueSet</text>
</g>
<g transform="translate(556.09 705)">
<rect class="value" x="0" y="0" width="54.98" height="26.25" rx="3.75" ry="3.75" />
<text x="5.62" y="18.75" text-anchor="left" class="value">Value</text>
</g>
</g>
</svg>
