<?xml version="1.0"?>
<!DOCTYPE svg PUBLIC "-//W3C//DTD SVG 1.1//EN" "http://www.w3.org/Graphics/SVG/1.1/DTD/svg11.dtd">
<svg xmlns="http://www.w3.org/2000/svg" version="1.1" width="526.5" height="138.75">
<defs>
<marker id="arrowStart" markerWidth="3.75" markerHeight="3.75" markerUnits="px" refX="1.875" refY="1.875">
<circle fill="Black" stroke-width="0" cx="1.875" cy="1.875" r="1.875" />
</marker>
<marker id="arrowEnd" markerWidth="7.5" markerHeight="7.5" markerUnits="px" refX="7.5" refY="3.75">
<polygon fill="Black" stroke-width="0" points="0 0 7.5 3.75 0 7.5" />
</marker>
</defs>
<g>
<g>
<rect fill="LightBlue" stroke="Black" stroke-width="1.875" x="7.5" y="7.5" width="88.5" height="33.75" rx="3.75" ry="3.75" />
<a href="./StructureDefinition-BreastRadMammoCyst.html" target="_blank">
<title>'BreastRadMammoCyst'</title>
<text x="15" y="30">Mg Cyst</text>
</a>
</g>
<g>
<rect fill="LightBlue" stroke="Black" stroke-width="1.875" x="7.5" y="48.75" width="172.5" height="33.75" rx="3.75" ry="3.75" />
<a href="./StructureDefinition-BreastRadMammoFatNecrosis.html" target="_blank">
<title>'BreastRadMammoFatNecrosis'</title>
<text x="15" y="71.25">Mg Fat Necrosis</text>
</a>
</g>
<g>
<rect fill="LightBlue" stroke="Black" stroke-width="1.875" x="7.5" y="90" width="88.5" height="33.75" rx="3.75" ry="3.75" />
<a href="./StructureDefinition-BreastRadMammoMass.html" target="_blank">
<title>'BreastRadMammoMass'</title>
<text x="15" y="112.5">Mg Mass</text>
</a>
</g>
<line stroke="Black" stroke-width="1.875" marker-end="url(#arrowEnd)" x1="210" y1="24.375" x2="240" y2="24.375" />
<line stroke="Black" stroke-width="1.875" marker-start="url(#arrowStart)" x1="96" y1="24.375" x2="210" y2="24.375" />
<line stroke="Black" stroke-width="1.875" marker-start="url(#arrowStart)" x1="180" y1="65.625" x2="210" y2="65.625" />
<line stroke="Black" stroke-width="1.875" marker-start="url(#arrowStart)" x1="96" y1="106.875" x2="210" y2="106.875" />
<line stroke="Black" stroke-width="1.875" x1="210" y1="24.375" x2="210" y2="106.875" />
</g>
<g>
<g>
<rect fill="LightGreen" stroke="Black" stroke-width="1.875" x="240" y="7.5" width="67.5" height="33.75" rx="3.75" ry="3.75" />
<text x="247.5" y="30">Shape</text>
</g>
<line stroke="Black" stroke-width="1.875" marker-end="url(#arrowEnd)" x1="337.5" y1="33.75" x2="367.5" y2="33.75" />
<line stroke="Black" stroke-width="1.875" marker-start="url(#arrowStart)" x1="307.5" y1="24.375" x2="337.5" y2="24.375" />
<line stroke="Black" stroke-width="1.875" x1="337.5" y1="24.375" x2="337.5" y2="33.75" />
</g>
<g>
<g>
<rect fill="LightSalmon" stroke="Black" stroke-width="1.875" x="367.5" y="7.5" width="99" height="52.5" rx="3.75" ry="3.75" />
<a href="./ValueSet-MammoShapeVS.html" target="_blank">
<title>'MammoShapeVS'</title>
<text x="375" y="30">Shape</text>
</a>
<a href="./ValueSet-MammoShapeVS.html" target="_blank">
<title>'MammoShapeVS'</title>
<text x="375" y="48.75">ValueSet</text>
</a>
</g>
</g>
</svg>
