<?xml version="1.0"?>
<?xml-stylesheet type="text/css" href="FocusGraph.css" ?>
<!DOCTYPE svg PUBLIC "-//W3C//DTD SVG 1.1//EN" "http://www.w3.org/Graphics/SVG/1.1/DTD/svg11.dtd">
<svg xmlns="http://www.w3.org/2000/svg" version="1.1" width="1357.8749" height="517.5">
<defs>
<marker id="arrowStart" markerWidth="3.75" markerHeight="3.75" markerUnits="px" refX="1.875" refY="1.875">
<circle fill="Black" stroke-width="0" cx="1.875" cy="1.875" r="1.875" />
</marker>
<marker id="arrowEnd" markerWidth="7.5" markerHeight="7.5" markerUnits="px" refX="7.5" refY="3.75">
<polygon fill="Black" stroke-width="0" points="0 0 7.5 3.75 0 7.5" />
</marker>
</defs>
<g>
<g transform="translate(7.5 7.5)">
<a href="StructureDefinition-AbnormalityArchitecturalDistortion.html" target="_top">
<rect class="profile" fill="White" stroke="Black" stroke-width="1.875" x="0" y="0" width="267" height="33.75" rx="3.75" ry="3.75" />
</a>
<a href="StructureDefinition-AbnormalityArchitecturalDistortion.html" target="_top">
<text x="133.5" y="22.5" text-anchor="middle" class="profile">Architectural Distortion</text>
</a>
</g>
<g transform="translate(7.5 48.75)">
<a href="StructureDefinition-AbnormalityAsymmetry.html" target="_top">
<rect class="profile" fill="White" stroke="Black" stroke-width="1.875" x="0" y="0" width="235.5" height="33.75" rx="3.75" ry="3.75" />
</a>
<a href="StructureDefinition-AbnormalityAsymmetry.html" target="_top">
<text x="117.75" y="22.5" text-anchor="middle" class="profile">Asymmetry Abnormality</text>
</a>
</g>
<g transform="translate(7.5 90)">
<a href="StructureDefinition-AbnormalityCalcification.html" target="_top">
<rect class="profile" fill="White" stroke="Black" stroke-width="1.875" x="0" y="0" width="151.49998" height="33.75" rx="3.75" ry="3.75" />
</a>
<a href="StructureDefinition-AbnormalityCalcification.html" target="_top">
<text x="75.74999" y="22.5" text-anchor="middle" class="profile">Calcification</text>
</a>
</g>
<g transform="translate(7.5 131.25)">
<a href="StructureDefinition-AbnormalityCyst.html" target="_top">
<rect class="profile" fill="White" stroke="Black" stroke-width="1.875" x="0" y="0" width="183" height="33.75" rx="3.75" ry="3.75" />
</a>
<a href="StructureDefinition-AbnormalityCyst.html" target="_top">
<text x="91.5" y="22.5" text-anchor="middle" class="profile">Cyst Abnormality</text>
</a>
</g>
<g transform="translate(7.5 172.5)">
<a href="StructureDefinition-AbnormalityDensity.html" target="_top">
<rect class="profile" fill="White" stroke="Black" stroke-width="1.875" x="0" y="0" width="88.5" height="33.75" rx="3.75" ry="3.75" />
</a>
<a href="StructureDefinition-AbnormalityDensity.html" target="_top">
<text x="44.25" y="22.5" text-anchor="middle" class="profile">Density</text>
</a>
</g>
<g transform="translate(7.5 213.75)">
<a href="StructureDefinition-AbnormalityDuct.html" target="_top">
<rect class="profile" fill="White" stroke="Black" stroke-width="1.875" x="0" y="0" width="183" height="33.75" rx="3.75" ry="3.75" />
</a>
<a href="StructureDefinition-AbnormalityDuct.html" target="_top">
<text x="91.5" y="22.5" text-anchor="middle" class="profile">Duct Abnormality</text>
</a>
</g>
<g transform="translate(7.5 255)">
<a href="StructureDefinition-AbnormalityFatNecrosis.html" target="_top">
<rect class="profile" fill="White" stroke="Black" stroke-width="1.875" x="0" y="0" width="141" height="33.75" rx="3.75" ry="3.75" />
</a>
<a href="StructureDefinition-AbnormalityFatNecrosis.html" target="_top">
<text x="70.5" y="22.5" text-anchor="middle" class="profile">Fat Necrosis</text>
</a>
</g>
<g transform="translate(7.5 296.25)">
<a href="StructureDefinition-AbnormalityFibroadenoma.html" target="_top">
<rect class="profile" fill="White" stroke="Black" stroke-width="1.875" x="0" y="0" width="267" height="33.75" rx="3.75" ry="3.75" />
</a>
<a href="StructureDefinition-AbnormalityFibroadenoma.html" target="_top">
<text x="133.5" y="22.5" text-anchor="middle" class="profile">Fibroadenoma Abnormality</text>
</a>
</g>
<g transform="translate(7.5 337.5)">
<a href="StructureDefinition-AbnormalityForeignObject.html" target="_top">
<rect class="profile" fill="White" stroke="Black" stroke-width="1.875" x="0" y="0" width="214.5" height="33.75" rx="3.75" ry="3.75" />
</a>
<a href="StructureDefinition-AbnormalityForeignObject.html" target="_top">
<text x="107.25" y="22.5" text-anchor="middle" class="profile">Foreign Abnormality</text>
</a>
</g>
<g transform="translate(7.5 378.75)">
<a href="StructureDefinition-AbnormalityLymphNode.html" target="_top">
<rect class="profile" fill="White" stroke="Black" stroke-width="1.875" x="0" y="0" width="183" height="33.75" rx="3.75" ry="3.75" />
</a>
<a href="StructureDefinition-AbnormalityLymphNode.html" target="_top">
<text x="91.5" y="22.5" text-anchor="middle" class="profile">Cyst Abnormality</text>
</a>
</g>
<g transform="translate(7.5 420)">
<a href="StructureDefinition-AbnormalityMass.html" target="_top">
<rect class="profile" fill="White" stroke="Black" stroke-width="1.875" x="0" y="0" width="183" height="33.75" rx="3.75" ry="3.75" />
</a>
<a href="StructureDefinition-AbnormalityMass.html" target="_top">
<text x="91.5" y="22.5" text-anchor="middle" class="profile">Mass Abnormality</text>
</a>
</g>
<g transform="translate(7.5 461.25)">
<a href="StructureDefinition-AssociatedFeature.html" target="_top">
<rect class="profile" fill="White" stroke="Black" stroke-width="1.875" x="0" y="0" width="193.5" height="33.75" rx="3.75" ry="3.75" />
</a>
<a href="StructureDefinition-AssociatedFeature.html" target="_top">
<text x="96.75" y="22.5" text-anchor="middle" class="profile">AssociatedFeature</text>
</a>
</g>
<line stroke="Black" stroke-width="1.875" marker-end="url(#arrowEnd)" x1="304.5" y1="24.375" x2="334.5" y2="24.375" />
<line stroke="Black" stroke-width="1.875" marker-start="url(#arrowStart)" x1="274.5" y1="24.375" x2="304.5" y2="24.375" />
<line stroke="Black" stroke-width="1.875" marker-start="url(#arrowStart)" x1="243.00002" y1="65.625" x2="304.5" y2="65.625" />
<line stroke="Black" stroke-width="1.875" marker-start="url(#arrowStart)" x1="158.99998" y1="106.875" x2="304.5" y2="106.875" />
<line stroke="Black" stroke-width="1.875" marker-start="url(#arrowStart)" x1="190.5" y1="148.125" x2="304.5" y2="148.125" />
<line stroke="Black" stroke-width="1.875" marker-start="url(#arrowStart)" x1="96" y1="189.375" x2="304.5" y2="189.375" />
<line stroke="Black" stroke-width="1.875" marker-start="url(#arrowStart)" x1="190.5" y1="230.625" x2="304.5" y2="230.625" />
<line stroke="Black" stroke-width="1.875" marker-start="url(#arrowStart)" x1="148.5" y1="271.875" x2="304.5" y2="271.875" />
<line stroke="Black" stroke-width="1.875" marker-start="url(#arrowStart)" x1="274.5" y1="313.125" x2="304.5" y2="313.125" />
<line stroke="Black" stroke-width="1.875" marker-start="url(#arrowStart)" x1="222" y1="354.375" x2="304.5" y2="354.375" />
<line stroke="Black" stroke-width="1.875" marker-start="url(#arrowStart)" x1="190.5" y1="395.625" x2="304.5" y2="395.625" />
<line stroke="Black" stroke-width="1.875" marker-start="url(#arrowStart)" x1="190.5" y1="436.875" x2="304.5" y2="436.875" />
<line stroke="Black" stroke-width="1.875" marker-start="url(#arrowStart)" x1="201" y1="478.125" x2="304.5" y2="478.125" />
<line stroke="Black" stroke-width="1.875" x1="304.5" y1="24.375" x2="304.5" y2="478.125" />
</g>
<g>
<g transform="translate(334.5 7.5)">
<a href="StructureDefinition-BreastBodyLocationExtension.html" target="_top">
<rect class="focus" fill="White" stroke="Black" stroke-width="1.875" x="0" y="0" width="203.99998" height="33.75" rx="3.75" ry="3.75" />
</a>
<a href="StructureDefinition-BreastBodyLocationExtension.html" target="_top">
<text x="101.99999" y="22.5" text-anchor="middle" class="focus">BreastBodyLocation</text>
</a>
</g>
<line stroke="Black" stroke-width="1.875" marker-end="url(#arrowEnd)" x1="568.49994" y1="24.375" x2="628.49994" y2="24.375" />
<text x="572.24994" y="20.625" text-anchor="right" class="lhsText">2..*</text>
<line stroke="Black" stroke-width="1.875" marker-start="url(#arrowStart)" x1="538.49994" y1="24.375" x2="568.49994" y2="24.375" />
<line stroke="Black" stroke-width="1.875" x1="568.49994" y1="24.375" x2="568.49994" y2="24.375" />
</g>
<g>
<g transform="translate(628.49994 7.5)">
<a href="StructureDefinition-BreastBodyLocationExtension-definitions.html#Extension.extension" target="_top">
<rect class="element" fill="White" stroke="Black" stroke-width="1.875" x="0" y="0" width="120" height="33.75" rx="3.75" ry="3.75" />
</a>
<a href="StructureDefinition-BreastBodyLocationExtension-definitions.html#Extension.extension" target="_top">
<text x="60" y="22.5" text-anchor="middle" class="element">Extensions</text>
</a>
</g>
<line stroke="Black" stroke-width="1.875" marker-end="url(#arrowEnd)" x1="778.49994" y1="24.375" x2="838.49994" y2="24.375" />
<text x="782.24994" y="20.625" text-anchor="right" class="lhsText">0..1</text>
<line stroke="Black" stroke-width="1.875" marker-end="url(#arrowEnd)" x1="778.49994" y1="84.375" x2="838.49994" y2="84.375" />
<text x="782.24994" y="80.625" text-anchor="right" class="lhsText">0..1</text>
<line stroke="Black" stroke-width="1.875" marker-end="url(#arrowEnd)" x1="778.49994" y1="144.375" x2="838.49994" y2="144.375" />
<text x="782.24994" y="140.625" text-anchor="right" class="lhsText">0..1</text>
<line stroke="Black" stroke-width="1.875" marker-end="url(#arrowEnd)" x1="778.49994" y1="204.375" x2="838.49994" y2="204.375" />
<text x="782.24994" y="200.625" text-anchor="right" class="lhsText">0..1</text>
<line stroke="Black" stroke-width="1.875" marker-end="url(#arrowEnd)" x1="778.49994" y1="264.375" x2="838.49994" y2="264.375" />
<text x="782.24994" y="260.625" text-anchor="right" class="lhsText">0..1</text>
<line stroke="Black" stroke-width="1.875" marker-end="url(#arrowEnd)" x1="778.49994" y1="324.375" x2="838.49994" y2="324.375" />
<text x="782.24994" y="320.625" text-anchor="right" class="lhsText">1..1</text>
<line stroke="Black" stroke-width="1.875" marker-end="url(#arrowEnd)" x1="778.49994" y1="384.375" x2="838.49994" y2="384.375" />
<text x="782.24994" y="380.625" text-anchor="right" class="lhsText">1..1</text>
<line stroke="Black" stroke-width="1.875" marker-start="url(#arrowStart)" x1="748.49994" y1="24.375" x2="778.49994" y2="24.375" />
<line stroke="Black" stroke-width="1.875" x1="778.49994" y1="24.375" x2="778.49994" y2="384.375" />
</g>
<g>
<g transform="translate(838.49994 7.5)">
<a href="StructureDefinition-BreastBodyLocationExtension-definitions.html#Extension.extension:laterality" target="_top">
<rect class="value" fill="White" stroke="Black" stroke-width="1.875" x="0" y="0" width="120" height="33.75" rx="3.75" ry="3.75" />
</a>
<a href="StructureDefinition-BreastBodyLocationExtension-definitions.html#Extension.extension:laterality" target="_top">
<text x="60" y="22.5" text-anchor="middle" class="value">laterality</text>
</a>
</g>
<line stroke="Black" stroke-width="1.875" marker-end="url(#arrowEnd)" x1="988.4999" y1="33.75" x2="1048.4999" y2="33.75" />
<text x="992.2499" y="30" text-anchor="right" class="lhsText">bind</text>
<line stroke="Black" stroke-width="1.875" marker-start="url(#arrowStart)" x1="958.49994" y1="24.375" x2="988.4999" y2="24.375" />
<line stroke="Black" stroke-width="1.875" x1="988.4999" y1="24.375" x2="988.4999" y2="33.75" />
</g>
<g>
<g transform="translate(1048.4999 7.5)">
<a href="ValueSet-LateralityVS.html" target="_top">
<rect class="valueSet" fill="White" stroke="Black" stroke-width="1.875" x="0" y="0" width="141" height="52.5" rx="3.75" ry="3.75" />
</a>
<a href="ValueSet-LateralityVS.html" target="_top">
<text x="70.5" y="22.5" text-anchor="middle" class="valueSet">LateralityVS</text>
</a>
<a href="ValueSet-LateralityVS.html" target="_top">
<text x="70.5" y="41.25" text-anchor="middle" class="valueSet">ValueSet</text>
</a>
</g>
</g>
<g>
<g transform="translate(838.49994 67.5)">
<a href="StructureDefinition-BreastBodyLocationExtension-definitions.html#Extension.extension:quadrant" target="_top">
<rect class="value" fill="White" stroke="Black" stroke-width="1.875" x="0" y="0" width="99" height="33.75" rx="3.75" ry="3.75" />
</a>
<a href="StructureDefinition-BreastBodyLocationExtension-definitions.html#Extension.extension:quadrant" target="_top">
<text x="49.5" y="22.5" text-anchor="middle" class="value">quadrant</text>
</a>
</g>
<line stroke="Black" stroke-width="1.875" marker-end="url(#arrowEnd)" x1="967.5" y1="93.75" x2="1027.5" y2="93.75" />
<text x="971.25" y="90" text-anchor="right" class="lhsText">bind</text>
<line stroke="Black" stroke-width="1.875" marker-start="url(#arrowStart)" x1="937.49994" y1="84.375" x2="967.5" y2="84.375" />
<line stroke="Black" stroke-width="1.875" x1="967.5" y1="84.375" x2="967.5" y2="93.75" />
</g>
<g>
<g transform="translate(1027.5 67.5)">
<a href="ValueSet-BreastLocationQuadrantVS.html" target="_top">
<rect class="valueSet" fill="White" stroke="Black" stroke-width="1.875" x="0" y="0" width="267" height="52.5" rx="3.75" ry="3.75" />
</a>
<a href="ValueSet-BreastLocationQuadrantVS.html" target="_top">
<text x="133.5" y="22.5" text-anchor="middle" class="valueSet">BreastLocationQuadrantVS</text>
</a>
<a href="ValueSet-BreastLocationQuadrantVS.html" target="_top">
<text x="133.5" y="41.25" text-anchor="middle" class="valueSet">ValueSet</text>
</a>
</g>
</g>
<g>
<g transform="translate(838.49994 127.5)">
<a href="StructureDefinition-BreastBodyLocationExtension-definitions.html#Extension.extension:region" target="_top">
<rect class="value" fill="White" stroke="Black" stroke-width="1.875" x="0" y="0" width="78" height="33.75" rx="3.75" ry="3.75" />
</a>
<a href="StructureDefinition-BreastBodyLocationExtension-definitions.html#Extension.extension:region" target="_top">
<text x="39" y="22.5" text-anchor="middle" class="value">region</text>
</a>
</g>
<line stroke="Black" stroke-width="1.875" marker-end="url(#arrowEnd)" x1="946.5" y1="153.75" x2="1006.5" y2="153.75" />
<text x="950.25" y="150" text-anchor="right" class="lhsText">bind</text>
<line stroke="Black" stroke-width="1.875" marker-start="url(#arrowStart)" x1="916.5" y1="144.375" x2="946.5" y2="144.375" />
<line stroke="Black" stroke-width="1.875" x1="946.5" y1="144.375" x2="946.5" y2="153.75" />
</g>
<g>
<g transform="translate(1006.5 127.5)">
<a href="ValueSet-BreastLocationRegionVS.html" target="_top">
<rect class="valueSet" fill="White" stroke="Black" stroke-width="1.875" x="0" y="0" width="246" height="52.5" rx="3.75" ry="3.75" />
</a>
<a href="ValueSet-BreastLocationRegionVS.html" target="_top">
<text x="123" y="22.5" text-anchor="middle" class="valueSet">BreastLocationRegionVS</text>
</a>
<a href="ValueSet-BreastLocationRegionVS.html" target="_top">
<text x="123" y="41.25" text-anchor="middle" class="valueSet">ValueSet</text>
</a>
</g>
</g>
<g>
<g transform="translate(838.49994 187.5)">
<a href="StructureDefinition-BreastBodyLocationExtension-definitions.html#Extension.extension:clockDirection" target="_top">
<rect class="value" fill="White" stroke="Black" stroke-width="1.875" x="0" y="0" width="162" height="33.75" rx="3.75" ry="3.75" />
</a>
<a href="StructureDefinition-BreastBodyLocationExtension-definitions.html#Extension.extension:clockDirection" target="_top">
<text x="81" y="22.5" text-anchor="middle" class="value">clockDirection</text>
</a>
</g>
<line stroke="Black" stroke-width="1.875" marker-end="url(#arrowEnd)" x1="1030.5" y1="213.75" x2="1090.5" y2="213.75" />
<text x="1034.25" y="210" text-anchor="right" class="lhsText">bind</text>
<line stroke="Black" stroke-width="1.875" marker-start="url(#arrowStart)" x1="1000.49994" y1="204.375" x2="1030.5" y2="204.375" />
<line stroke="Black" stroke-width="1.875" x1="1030.5" y1="204.375" x2="1030.5" y2="213.75" />
</g>
<g>
<g transform="translate(1090.5 187.5)">
<a href="ValueSet-BreastLocationClockVS.html" target="_top">
<rect class="valueSet" fill="White" stroke="Black" stroke-width="1.875" x="0" y="0" width="235.5" height="52.5" rx="3.75" ry="3.75" />
</a>
<a href="ValueSet-BreastLocationClockVS.html" target="_top">
<text x="117.75" y="22.5" text-anchor="middle" class="valueSet">BreastLocationClockVS</text>
</a>
<a href="ValueSet-BreastLocationClockVS.html" target="_top">
<text x="117.75" y="41.25" text-anchor="middle" class="valueSet">ValueSet</text>
</a>
</g>
</g>
<g>
<g transform="translate(838.49994 247.5)">
<a href="StructureDefinition-BreastBodyLocationExtension-definitions.html#Extension.extension:depth" target="_top">
<rect class="value" fill="White" stroke="Black" stroke-width="1.875" x="0" y="0" width="67.5" height="33.75" rx="3.75" ry="3.75" />
</a>
<a href="StructureDefinition-BreastBodyLocationExtension-definitions.html#Extension.extension:depth" target="_top">
<text x="33.75" y="22.5" text-anchor="middle" class="value">depth</text>
</a>
</g>
<line stroke="Black" stroke-width="1.875" marker-end="url(#arrowEnd)" x1="935.99994" y1="273.75" x2="995.9999" y2="273.75" />
<text x="939.74994" y="270" text-anchor="right" class="lhsText">bind</text>
<line stroke="Black" stroke-width="1.875" marker-start="url(#arrowStart)" x1="905.99994" y1="264.375" x2="935.99994" y2="264.375" />
<line stroke="Black" stroke-width="1.875" x1="935.99994" y1="264.375" x2="935.99994" y2="273.75" />
</g>
<g>
<g transform="translate(995.9999 247.5)">
<a href="ValueSet-BreastLocationDepthVS.html" target="_top">
<rect class="valueSet" fill="White" stroke="Black" stroke-width="1.875" x="0" y="0" width="235.5" height="52.5" rx="3.75" ry="3.75" />
</a>
<a href="ValueSet-BreastLocationDepthVS.html" target="_top">
<text x="117.75" y="22.5" text-anchor="middle" class="valueSet">BreastLocationDepthVS</text>
</a>
<a href="ValueSet-BreastLocationDepthVS.html" target="_top">
<text x="117.75" y="41.25" text-anchor="middle" class="valueSet">ValueSet</text>
</a>
</g>
</g>
<g>
<g transform="translate(838.49994 307.5)">
<a href="StructureDefinition-BreastBodyLocationExtension-definitions.html#Extension.extension:landMark" target="_top">
<rect class="value" fill="White" stroke="Black" stroke-width="1.875" x="0" y="0" width="99" height="33.75" rx="3.75" ry="3.75" />
</a>
<a href="StructureDefinition-BreastBodyLocationExtension-definitions.html#Extension.extension:landMark" target="_top">
<text x="49.5" y="22.5" text-anchor="middle" class="value">landMark</text>
</a>
</g>
<line stroke="Black" stroke-width="1.875" marker-end="url(#arrowEnd)" x1="967.5" y1="333.75" x2="1027.5" y2="333.75" />
<text x="971.25" y="330" text-anchor="right" class="lhsText">bind</text>
<line stroke="Black" stroke-width="1.875" marker-start="url(#arrowStart)" x1="937.49994" y1="324.375" x2="967.5" y2="324.375" />
<line stroke="Black" stroke-width="1.875" x1="967.5" y1="324.375" x2="967.5" y2="333.75" />
</g>
<g>
<g transform="translate(1027.5 307.5)">
<a href="ValueSet-BreastLandmarkVS.html" target="_top">
<rect class="valueSet" fill="White" stroke="Black" stroke-width="1.875" x="0" y="0" width="183" height="52.5" rx="3.75" ry="3.75" />
</a>
<a href="ValueSet-BreastLandmarkVS.html" target="_top">
<text x="91.5" y="22.5" text-anchor="middle" class="valueSet">BreastLandmarkVS</text>
</a>
<a href="ValueSet-BreastLandmarkVS.html" target="_top">
<text x="91.5" y="41.25" text-anchor="middle" class="valueSet">ValueSet</text>
</a>
</g>
</g>
<g>
<g transform="translate(838.49994 367.5)">
<a href="StructureDefinition-BreastBodyLocationExtension-definitions.html#Extension.extension:distanceFromLandMark" target="_top">
<rect class="value" fill="White" stroke="Black" stroke-width="1.875" x="0" y="0" width="225" height="33.75" rx="3.75" ry="3.75" />
</a>
<a href="StructureDefinition-BreastBodyLocationExtension-definitions.html#Extension.extension:distanceFromLandMark" target="_top">
<text x="112.5" y="22.5" text-anchor="middle" class="value">distanceFromLandMark</text>
</a>
</g>
</g>
</svg>
