<?xml version="1.0"?>
<!DOCTYPE svg PUBLIC "-//W3C//DTD SVG 1.1//EN" "http://www.w3.org/Graphics/SVG/1.1/DTD/svg11.dtd">
<svg xmlns="http://www.w3.org/2000/svg" version="1.1" width="1120.5" height="142.5">
<defs>
<marker id="arrowStart" markerWidth="3.75" markerHeight="3.75" markerUnits="px" refX="1.875" refY="1.875">
<circle fill="Black" stroke-width="0" cx="1.875" cy="1.875" r="1.875" />
</marker>
<marker id="arrowEnd" markerWidth="7.5" markerHeight="7.5" markerUnits="px" refX="7.5" refY="3.75">
<polygon fill="Black" stroke-width="0" points="0 0 7.5 3.75 0 7.5" />
</marker>
</defs>
<g>
<g transform="translate(7.5 7.5)">
<a href="./StructureDefinition-BreastBodyLocationExtension.html" target="_top">
<rect fill="LightCyan" stroke="Black" stroke-width="1.875" x="0" y="0" width="183" height="33.75" rx="3.75" ry="3.75" />
</a>
<a href="./StructureDefinition-BreastBodyLocationExtension.html" target="_top">
<text x="91.5" y="22.5" text-anchor="middle">Breast Body Loc.</text>
</a>
</g>
<line stroke="Black" stroke-width="1.875" marker-end="url(#arrowEnd)" x1="235.5" y1="24.375" x2="280.5" y2="24.375" />
<text x="239.25" y="20.625" text-anchor="left"></text>
<line stroke="Black" stroke-width="1.875" marker-start="url(#arrowStart)" x1="190.5" y1="24.375" x2="235.5" y2="24.375" />
<text x="194.25" y="20.625" text-anchor="left">0..1</text>
<line stroke="Black" stroke-width="1.875" x1="235.5" y1="24.375" x2="235.5" y2="24.375" />
</g>
<g>
<g transform="translate(280.5 7.5)">
<rect fill="White" stroke="Black" stroke-width="1.875" x="0" y="0" width="172.5" height="33.75" rx="3.75" ry="3.75" />
<text x="86.25" y="22.5" text-anchor="middle">Body Dist. From</text>
</g>
<line stroke="Black" stroke-width="1.875" marker-end="url(#arrowEnd)" x1="498" y1="33.75" x2="543" y2="33.75" />
<text x="501.75" y="30" text-anchor="left">0..1</text>
<line stroke="Black" stroke-width="1.875" marker-end="url(#arrowEnd)" x1="498" y1="93.75" x2="543" y2="93.75" />
<text x="501.75" y="90" text-anchor="left">0..1</text>
<line stroke="Black" stroke-width="1.875" marker-start="url(#arrowStart)" x1="453" y1="24.375" x2="498" y2="24.375" />
<text x="456.75" y="20.625" text-anchor="left"></text>
<line stroke="Black" stroke-width="1.875" x1="498" y1="24.375" x2="498" y2="93.75" />
</g>
<g>
<g transform="translate(543 7.5)">
<a href="StructureDefinition-BodyDistanceFromExtension-definitions.html#Extension.extension:landMark" target="_top">
<rect fill="LightYellow" stroke="Black" stroke-width="1.875" x="0" y="0" width="172.5" height="52.5" rx="3.75" ry="3.75" />
</a>
<a href="StructureDefinition-BodyDistanceFromExtension-definitions.html#Extension.extension:landMark" target="_top">
<text x="86.25" y="22.5" text-anchor="middle">Land Mark</text>
</a>
<a href="StructureDefinition-BodyDistanceFromExtension-definitions.html#Extension.extension:landMark" target="_top">
<text x="86.25" y="41.25" text-anchor="middle">CodeableConcept</text>
</a>
</g>
<line stroke="Black" stroke-width="1.875" marker-end="url(#arrowEnd)" x1="760.5" y1="24.375" x2="805.5" y2="24.375" />
<text x="764.25" y="20.625" text-anchor="left">0..1</text>
<line stroke="Black" stroke-width="1.875" marker-start="url(#arrowStart)" x1="715.5" y1="33.75" x2="760.5" y2="33.75" />
<text x="719.25" y="30" text-anchor="left"></text>
<line stroke="Black" stroke-width="1.875" x1="760.5" y1="24.375" x2="760.5" y2="33.75" />
</g>
<g>
<g transform="translate(805.5 7.5)">
<a href="http://hl7.org/fhir/ValueSet/body-site" target="_top">
<rect fill="LightGray" stroke="Black" stroke-width="1.875" x="0" y="0" width="109.49999" height="33.75" rx="3.75" ry="3.75" />
</a>
<a href="http://hl7.org/fhir/ValueSet/body-site" target="_top">
<text x="54.749996" y="22.5" text-anchor="middle">body-site</text>
</a>
</g>
</g>
<g>
<g transform="translate(543 67.5)">
<a href="StructureDefinition-BodyDistanceFromExtension-definitions.html#Extension.extension:distanceFromLandMark" target="_top">
<rect fill="LightYellow" stroke="Black" stroke-width="1.875" x="0" y="0" width="246" height="52.5" rx="3.75" ry="3.75" />
</a>
<a href="StructureDefinition-BodyDistanceFromExtension-definitions.html#Extension.extension:distanceFromLandMark" target="_top">
<text x="123" y="22.5" text-anchor="middle">Distance From LandMark</text>
</a>
<a href="StructureDefinition-BodyDistanceFromExtension-definitions.html#Extension.extension:distanceFromLandMark" target="_top">
<text x="123" y="41.25" text-anchor="middle">Quantity</text>
</a>
</g>
<line stroke="Black" stroke-width="1.875" marker-end="url(#arrowEnd)" x1="834" y1="93.75" x2="879" y2="93.75" />
<text x="837.75" y="90" text-anchor="left">0..1</text>
<line stroke="Black" stroke-width="1.875" marker-start="url(#arrowStart)" x1="789" y1="93.75" x2="834" y2="93.75" />
<text x="792.75" y="90" text-anchor="left"></text>
<line stroke="Black" stroke-width="1.875" x1="834" y1="93.75" x2="834" y2="93.75" />
</g>
<g>
<g transform="translate(879 67.5)">
<a href="./ValueSet-UnitsOfLengthVS.html" target="_top">
<rect fill="LightGreen" stroke="Black" stroke-width="1.875" x="0" y="0" width="151.49998" height="52.5" rx="3.75" ry="3.75" />
</a>
<a href="./ValueSet-UnitsOfLengthVS.html" target="_top">
<text x="75.74999" y="22.5" text-anchor="middle">UnitsOfLength</text>
</a>
<a href="./ValueSet-UnitsOfLengthVS.html" target="_top">
<text x="75.74999" y="41.25" text-anchor="middle">ValueSet</text>
</a>
</g>
</g>
</svg>
