<?xml version="1.0"?>
<!DOCTYPE svg PUBLIC "-//W3C//DTD SVG 1.1//EN" "http://www.w3.org/Graphics/SVG/1.1/DTD/svg11.dtd">
<svg xmlns="http://www.w3.org/2000/svg" version="1.1" width="1162.5" height="142.5">
<defs>
<marker id="arrowStart" markerWidth="3.75" markerHeight="3.75" markerUnits="px" refX="1.875" refY="1.875">
<circle fill="Black" stroke-width="0" cx="1.875" cy="1.875" r="1.875" />
</marker>
<marker id="arrowEnd" markerWidth="7.5" markerHeight="7.5" markerUnits="px" refX="7.5" refY="3.75">
<polygon fill="Black" stroke-width="0" points="0 0 7.5 3.75 0 7.5" />
</marker>
</defs>
<g>
<g transform="translate(7.5 7.5)">
<a href="./StructureDefinition-BreastBodyLocationExtension.html" target="_top">
<rect fill="LightCyan" stroke="Black" stroke-width="1.875" x="0" y="0" width="225" height="33.75" rx="3.75" ry="3.75" />
</a>
<a href="./StructureDefinition-BreastBodyLocationExtension.html" target="_top">
<text x="112.5" y="22.5" text-anchor="middle">Breast Body
Location</text>
</a>
</g>
<line stroke="Black" stroke-width="1.875" marker-end="url(#arrowEnd)" x1="277.5" y1="24.375" x2="322.5" y2="24.375" />
<text x="281.25" y="20.625" text-anchor="left"></text>
<line stroke="Black" stroke-width="1.875" marker-start="url(#arrowStart)" x1="232.5" y1="24.375" x2="277.5" y2="24.375" />
<text x="236.25" y="20.625" text-anchor="left">0..*</text>
<line stroke="Black" stroke-width="1.875" x1="277.5" y1="24.375" x2="277.5" y2="24.375" />
</g>
<g>
<g transform="translate(322.5 7.5)">
<rect fill="White" stroke="Black" stroke-width="1.875" x="0" y="0" width="172.5" height="33.75" rx="3.75" ry="3.75" />
<text x="86.25" y="22.5" text-anchor="middle">Body Dist. From</text>
</g>
<line stroke="Black" stroke-width="1.875" marker-end="url(#arrowEnd)" x1="540" y1="33.75" x2="585" y2="33.75" />
<text x="543.75" y="30" text-anchor="left">1..1</text>
<line stroke="Black" stroke-width="1.875" marker-end="url(#arrowEnd)" x1="540" y1="93.75" x2="585" y2="93.75" />
<text x="543.75" y="90" text-anchor="left">1..1</text>
<line stroke="Black" stroke-width="1.875" marker-start="url(#arrowStart)" x1="495" y1="24.375" x2="540" y2="24.375" />
<text x="498.75" y="20.625" text-anchor="left"></text>
<line stroke="Black" stroke-width="1.875" x1="540" y1="24.375" x2="540" y2="93.75" />
</g>
<g>
<g transform="translate(585 7.5)">
<a href="StructureDefinition-BodyDistanceFromExtension-definitions.html#Extension.extension:landMark" target="_top">
<rect fill="LightYellow" stroke="Black" stroke-width="1.875" x="0" y="0" width="172.5" height="52.5" rx="3.75" ry="3.75" />
</a>
<a href="StructureDefinition-BodyDistanceFromExtension-definitions.html#Extension.extension:landMark" target="_top">
<text x="86.25" y="22.5" text-anchor="middle">Landmark</text>
</a>
<a href="StructureDefinition-BodyDistanceFromExtension-definitions.html#Extension.extension:landMark" target="_top">
<text x="86.25" y="41.25" text-anchor="middle">CodeableConcept</text>
</a>
</g>
<line stroke="Black" stroke-width="1.875" marker-end="url(#arrowEnd)" x1="802.5" y1="33.75" x2="847.5" y2="33.75" />
<text x="806.25" y="30" text-anchor="left"></text>
<line stroke="Black" stroke-width="1.875" marker-start="url(#arrowStart)" x1="757.5" y1="33.75" x2="802.5" y2="33.75" />
<text x="761.25" y="30" text-anchor="left"></text>
<line stroke="Black" stroke-width="1.875" x1="802.5" y1="33.75" x2="802.5" y2="33.75" />
</g>
<g>
<g transform="translate(847.5 7.5)">
<a href="./ValueSet-BreastLocationQuadrantVS.html" target="_top">
<rect fill="LightGreen" stroke="Black" stroke-width="1.875" x="0" y="0" width="193.5" height="52.5" rx="3.75" ry="3.75" />
</a>
<a href="./ValueSet-BreastLocationQuadrantVS.html" target="_top">
<text x="96.75" y="22.5" text-anchor="middle">Breast Location</text>
</a>
<a href="./ValueSet-BreastLocationQuadrantVS.html" target="_top">
<text x="96.75" y="41.25" text-anchor="middle">Quadrant ValueSet</text>
</a>
</g>
</g>
<g>
<g transform="translate(585 67.5)">
<a href="StructureDefinition-BodyDistanceFromExtension-definitions.html#Extension.extension:distanceFromLandMark" target="_top">
<rect fill="LightYellow" stroke="Black" stroke-width="1.875" x="0" y="0" width="246" height="52.5" rx="3.75" ry="3.75" />
</a>
<a href="StructureDefinition-BodyDistanceFromExtension-definitions.html#Extension.extension:distanceFromLandMark" target="_top">
<text x="123" y="22.5" text-anchor="middle">Distance From LandMark</text>
</a>
<a href="StructureDefinition-BodyDistanceFromExtension-definitions.html#Extension.extension:distanceFromLandMark" target="_top">
<text x="123" y="41.25" text-anchor="middle">Quantity</text>
</a>
</g>
<line stroke="Black" stroke-width="1.875" marker-end="url(#arrowEnd)" x1="876" y1="93.75" x2="921" y2="93.75" />
<text x="879.75" y="90" text-anchor="left"></text>
<line stroke="Black" stroke-width="1.875" marker-start="url(#arrowStart)" x1="831" y1="93.75" x2="876" y2="93.75" />
<text x="834.75" y="90" text-anchor="left"></text>
<line stroke="Black" stroke-width="1.875" x1="876" y1="93.75" x2="876" y2="93.75" />
</g>
<g>
<g transform="translate(921 67.5)">
<a href="./ValueSet-UnitsOfLengthVS.html" target="_top">
<rect fill="LightGreen" stroke="Black" stroke-width="1.875" x="0" y="0" width="151.49998" height="52.5" rx="3.75" ry="3.75" />
</a>
<a href="./ValueSet-UnitsOfLengthVS.html" target="_top">
<text x="75.74999" y="22.5" text-anchor="middle">UnitsOfLength</text>
</a>
<a href="./ValueSet-UnitsOfLengthVS.html" target="_top">
<text x="75.74999" y="41.25" text-anchor="middle">ValueSet</text>
</a>
</g>
</g>
</svg>
