<?xml version="1.0"?>
<!DOCTYPE svg PUBLIC "-//W3C//DTD SVG 1.1//EN" "http://www.w3.org/Graphics/SVG/1.1/DTD/svg11.dtd">
<svg xmlns="http://www.w3.org/2000/svg" version="1.1" width="1183.4999" height="862.5">
<defs>
<marker id="arrowStart" markerWidth="3.75" markerHeight="3.75" markerUnits="px" refX="1.875" refY="1.875">
<circle fill="Black" stroke-width="0" cx="1.875" cy="1.875" r="1.875" />
</marker>
<marker id="arrowEnd" markerWidth="7.5" markerHeight="7.5" markerUnits="px" refX="7.5" refY="3.75">
<polygon fill="Black" stroke-width="0" points="0 0 7.5 3.75 0 7.5" />
</marker>
</defs>
<g>
<g transform="translate(7.5 7.5)">
<a href="./StructureDefinition-MGFinding.html" target="_top">
<rect fill="LightCyan" stroke="Black" stroke-width="1.875" x="0" y="0" width="120" height="33.75" rx="3.75" ry="3.75" />
</a>
<a href="./StructureDefinition-MGFinding.html" target="_top">
<text x="60" y="22.5" text-anchor="middle">MG Finding</text>
</a>
</g>
<line stroke="Black" stroke-width="1.875" marker-end="url(#arrowEnd)" x1="172.5" y1="24.375" x2="217.5" y2="24.375" />
<text x="176.25" y="20.625" text-anchor="left"></text>
<line stroke="Black" stroke-width="1.875" marker-start="url(#arrowStart)" x1="127.5" y1="24.375" x2="172.5" y2="24.375" />
<text x="131.25" y="20.625" text-anchor="left">0..*</text>
<line stroke="Black" stroke-width="1.875" x1="172.5" y1="24.375" x2="172.5" y2="24.375" />
</g>
<g>
<g transform="translate(217.5 7.5)">
<rect fill="White" stroke="Black" stroke-width="1.875" x="0" y="0" width="141" height="33.75" rx="3.75" ry="3.75" />
<text x="70.5" y="22.5" text-anchor="middle">MG Asymmetry</text>
</g>
<line stroke="Black" stroke-width="1.875" marker-end="url(#arrowEnd)" x1="403.5" y1="24.375" x2="448.5" y2="24.375" />
<text x="407.25" y="20.625" text-anchor="left">0..*</text>
<line stroke="Black" stroke-width="1.875" marker-end="url(#arrowEnd)" x1="403.5" y1="75" x2="448.5" y2="75" />
<text x="407.25" y="71.25" text-anchor="left">0..*</text>
<line stroke="Black" stroke-width="1.875" marker-end="url(#arrowEnd)" x1="403.5" y1="135" x2="448.5" y2="135" />
<text x="407.25" y="131.25" text-anchor="left">0..1</text>
<line stroke="Black" stroke-width="1.875" marker-end="url(#arrowEnd)" x1="403.5" y1="195" x2="448.5" y2="195" />
<text x="407.25" y="191.25" text-anchor="left">0..*</text>
<line stroke="Black" stroke-width="1.875" marker-end="url(#arrowEnd)" x1="403.5" y1="273.75" x2="448.5" y2="273.75" />
<text x="407.25" y="270" text-anchor="left">0..1</text>
<line stroke="Black" stroke-width="1.875" marker-end="url(#arrowEnd)" x1="403.5" y1="333.75" x2="448.5" y2="333.75" />
<text x="407.25" y="330" text-anchor="left">0..1</text>
<line stroke="Black" stroke-width="1.875" marker-end="url(#arrowEnd)" x1="403.5" y1="393.75" x2="448.5" y2="393.75" />
<text x="407.25" y="390" text-anchor="left">0..1</text>
<line stroke="Black" stroke-width="1.875" marker-end="url(#arrowEnd)" x1="403.5" y1="453.75" x2="448.5" y2="453.75" />
<text x="407.25" y="450" text-anchor="left">0..1</text>
<line stroke="Black" stroke-width="1.875" marker-end="url(#arrowEnd)" x1="403.5" y1="513.75" x2="448.5" y2="513.75" />
<text x="407.25" y="510" text-anchor="left">0..1</text>
<line stroke="Black" stroke-width="1.875" marker-end="url(#arrowEnd)" x1="403.5" y1="573.75" x2="448.5" y2="573.75" />
<text x="407.25" y="570" text-anchor="left">0..*</text>
<line stroke="Black" stroke-width="1.875" marker-end="url(#arrowEnd)" x1="403.5" y1="633.75" x2="448.5" y2="633.75" />
<text x="407.25" y="630" text-anchor="left">0..1</text>
<line stroke="Black" stroke-width="1.875" marker-end="url(#arrowEnd)" x1="403.5" y1="693.75" x2="448.5" y2="693.75" />
<text x="407.25" y="690" text-anchor="left">0..*</text>
<line stroke="Black" stroke-width="1.875" marker-end="url(#arrowEnd)" x1="403.5" y1="753.75" x2="448.5" y2="753.75" />
<text x="407.25" y="750" text-anchor="left">0..*</text>
<line stroke="Black" stroke-width="1.875" marker-end="url(#arrowEnd)" x1="403.5" y1="813.75" x2="448.5" y2="813.75" />
<text x="407.25" y="810" text-anchor="left">1..1</text>
<line stroke="Black" stroke-width="1.875" marker-start="url(#arrowStart)" x1="358.5" y1="24.375" x2="403.5" y2="24.375" />
<text x="362.25" y="20.625" text-anchor="left"></text>
<line stroke="Black" stroke-width="1.875" x1="403.5" y1="24.375" x2="403.5" y2="813.75" />
</g>
<g>
<g transform="translate(448.5 7.5)">
<a href="./StructureDefinition-AssociatedFeature.html" target="_top">
<rect fill="LightCyan" stroke="Black" stroke-width="1.875" x="0" y="0" width="203.99998" height="33.75" rx="3.75" ry="3.75" />
</a>
<a href="./StructureDefinition-AssociatedFeature.html" target="_top">
<text x="101.99999" y="22.5" text-anchor="middle">Associated Feature</text>
</a>
</g>
</g>
<g>
<g transform="translate(448.5 48.75)">
<a href="./StructureDefinition-ConsistentWith.html" target="_top">
<rect fill="LightCyan" stroke="Black" stroke-width="1.875" x="0" y="0" width="120" height="52.5" rx="3.75" ry="3.75" />
</a>
<a href="./StructureDefinition-ConsistentWith.html" target="_top">
<text x="60" y="22.5" text-anchor="middle">Consistent</text>
</a>
<a href="./StructureDefinition-ConsistentWith.html" target="_top">
<text x="60" y="41.25" text-anchor="middle">With</text>
</a>
</g>
</g>
<g>
<g transform="translate(448.5 108.75)">
<a href="StructureDefinition-MGAbnormalityAsymmetriesTypeVS-definitions.html#Observation.component:asymmetryType" target="_top">
<rect fill="LightYellow" stroke="Black" stroke-width="1.875" x="0" y="0" width="172.5" height="52.5" rx="3.75" ry="3.75" />
</a>
<a href="StructureDefinition-MGAbnormalityAsymmetriesTypeVS-definitions.html#Observation.component:asymmetryType" target="_top">
<text x="86.25" y="22.5" text-anchor="middle">Asymmetry Type</text>
</a>
<a href="StructureDefinition-MGAbnormalityAsymmetriesTypeVS-definitions.html#Observation.component:asymmetryType" target="_top">
<text x="86.25" y="41.25" text-anchor="middle">CodeableConcept</text>
</a>
</g>
<line stroke="Black" stroke-width="1.875" marker-end="url(#arrowEnd)" x1="666" y1="135" x2="711" y2="135" />
<text x="669.75" y="131.25" text-anchor="left"></text>
<line stroke="Black" stroke-width="1.875" marker-start="url(#arrowStart)" x1="621" y1="135" x2="666" y2="135" />
<text x="624.75" y="131.25" text-anchor="left"></text>
<line stroke="Black" stroke-width="1.875" x1="666" y1="135" x2="666" y2="135" />
</g>
<g>
<g transform="translate(711 108.75)">
<a href="./ValueSet-MGAbnormalityAsymmetriesTypeVS.html" target="_top">
<rect fill="LightGreen" stroke="Black" stroke-width="1.875" x="0" y="0" width="141" height="52.5" rx="3.75" ry="3.75" />
</a>
<a href="./ValueSet-MGAbnormalityAsymmetriesTypeVS.html" target="_top">
<text x="70.5" y="22.5" text-anchor="middle">MG Asymmetry</text>
</a>
<a href="./ValueSet-MGAbnormalityAsymmetriesTypeVS.html" target="_top">
<text x="70.5" y="41.25" text-anchor="middle">ValueSet</text>
</a>
</g>
</g>
<g>
<g transform="translate(448.5 168.75)">
<a href="StructureDefinition-ObservedChangesVS-definitions.html#Observation.component:obsChanges" target="_top">
<rect fill="LightYellow" stroke="Black" stroke-width="1.875" x="0" y="0" width="330" height="52.5" rx="3.75" ry="3.75" />
</a>
<a href="StructureDefinition-ObservedChangesVS-definitions.html#Observation.component:obsChanges" target="_top">
<text x="165" y="22.5" text-anchor="middle">Observed Change In Abnormality</text>
</a>
<a href="StructureDefinition-ObservedChangesVS-definitions.html#Observation.component:obsChanges" target="_top">
<text x="165" y="41.25" text-anchor="middle">CodeableConcept</text>
</a>
</g>
<line stroke="Black" stroke-width="1.875" marker-end="url(#arrowEnd)" x1="823.5" y1="204.375" x2="868.5" y2="204.375" />
<text x="827.25" y="200.625" text-anchor="left"></text>
<line stroke="Black" stroke-width="1.875" marker-start="url(#arrowStart)" x1="778.5" y1="195" x2="823.5" y2="195" />
<text x="782.25" y="191.25" text-anchor="left"></text>
<line stroke="Black" stroke-width="1.875" x1="823.5" y1="195" x2="823.5" y2="204.375" />
</g>
<g>
<g transform="translate(868.5 168.75)">
<a href="./ValueSet-ObservedChangesVS.html" target="_top">
<rect fill="LightGreen" stroke="Black" stroke-width="1.875" x="0" y="0" width="99" height="71.25" rx="3.75" ry="3.75" />
</a>
<a href="./ValueSet-ObservedChangesVS.html" target="_top">
<text x="49.5" y="22.5" text-anchor="middle">Observed</text>
</a>
<a href="./ValueSet-ObservedChangesVS.html" target="_top">
<text x="49.5" y="41.25" text-anchor="middle">Change</text>
</a>
<a href="./ValueSet-ObservedChangesVS.html" target="_top">
<text x="49.5" y="60" text-anchor="middle">ValueSet</text>
</a>
</g>
</g>
<g>
<g transform="translate(448.5 247.5)">
<a href="StructureDefinition-BiRadsAssessmentCategoriesVS-definitions.html#Observation.component:biRadsAssessmentCategory" target="_top">
<rect fill="LightYellow" stroke="Black" stroke-width="1.875" x="0" y="0" width="287.99997" height="52.5" rx="3.75" ry="3.75" />
</a>
<a href="StructureDefinition-BiRadsAssessmentCategoriesVS-definitions.html#Observation.component:biRadsAssessmentCategory" target="_top">
<text x="143.99998" y="22.5" text-anchor="middle">BiRads Assessment Category</text>
</a>
<a href="StructureDefinition-BiRadsAssessmentCategoriesVS-definitions.html#Observation.component:biRadsAssessmentCategory" target="_top">
<text x="143.99998" y="41.25" text-anchor="middle">CodeableConcept</text>
</a>
</g>
<line stroke="Black" stroke-width="1.875" marker-end="url(#arrowEnd)" x1="781.5" y1="273.75" x2="826.5" y2="273.75" />
<text x="785.25" y="270" text-anchor="left"></text>
<line stroke="Black" stroke-width="1.875" marker-start="url(#arrowStart)" x1="736.5" y1="273.75" x2="781.5" y2="273.75" />
<text x="740.25" y="270" text-anchor="left"></text>
<line stroke="Black" stroke-width="1.875" x1="781.5" y1="273.75" x2="781.5" y2="273.75" />
</g>
<g>
<g transform="translate(826.5 247.5)">
<a href="./ValueSet-BiRadsAssessmentCategoriesVS.html" target="_top">
<rect fill="LightGreen" stroke="Black" stroke-width="1.875" x="0" y="0" width="99" height="52.5" rx="3.75" ry="3.75" />
</a>
<a href="./ValueSet-BiRadsAssessmentCategoriesVS.html" target="_top">
<text x="49.5" y="22.5" text-anchor="middle">BiRads</text>
</a>
<a href="./ValueSet-BiRadsAssessmentCategoriesVS.html" target="_top">
<text x="49.5" y="41.25" text-anchor="middle">ValueSet</text>
</a>
</g>
</g>
<g>
<g transform="translate(448.5 307.5)">
<a href="StructureDefinition-OrientationVS-definitions.html#Observation.component:orientation" target="_top">
<rect fill="LightYellow" stroke="Black" stroke-width="1.875" x="0" y="0" width="172.5" height="52.5" rx="3.75" ry="3.75" />
</a>
<a href="StructureDefinition-OrientationVS-definitions.html#Observation.component:orientation" target="_top">
<text x="86.25" y="22.5" text-anchor="middle">Orientation</text>
</a>
<a href="StructureDefinition-OrientationVS-definitions.html#Observation.component:orientation" target="_top">
<text x="86.25" y="41.25" text-anchor="middle">CodeableConcept</text>
</a>
</g>
<line stroke="Black" stroke-width="1.875" marker-end="url(#arrowEnd)" x1="666" y1="324.375" x2="711" y2="324.375" />
<text x="669.75" y="320.625" text-anchor="left"></text>
<line stroke="Black" stroke-width="1.875" marker-start="url(#arrowStart)" x1="621" y1="333.75" x2="666" y2="333.75" />
<text x="624.75" y="330" text-anchor="left"></text>
<line stroke="Black" stroke-width="1.875" x1="666" y1="324.375" x2="666" y2="333.75" />
</g>
<g>
<g transform="translate(711 307.5)">
<a href="./ValueSet-OrientationVS.html" target="_top">
<rect fill="LightGreen" stroke="Black" stroke-width="1.875" x="0" y="0" width="225" height="33.75" rx="3.75" ry="3.75" />
</a>
<a href="./ValueSet-OrientationVS.html" target="_top">
<text x="112.5" y="22.5" text-anchor="middle">Orientation ValueSet</text>
</a>
</g>
</g>
<g>
<g transform="translate(448.5 367.5)">
<a href="StructureDefinition-ShapeVS-definitions.html#Observation.component:shape" target="_top">
<rect fill="LightYellow" stroke="Black" stroke-width="1.875" x="0" y="0" width="172.5" height="52.5" rx="3.75" ry="3.75" />
</a>
<a href="StructureDefinition-ShapeVS-definitions.html#Observation.component:shape" target="_top">
<text x="86.25" y="22.5" text-anchor="middle">Shape</text>
</a>
<a href="StructureDefinition-ShapeVS-definitions.html#Observation.component:shape" target="_top">
<text x="86.25" y="41.25" text-anchor="middle">CodeableConcept</text>
</a>
</g>
<line stroke="Black" stroke-width="1.875" marker-end="url(#arrowEnd)" x1="666" y1="393.75" x2="711" y2="393.75" />
<text x="669.75" y="390" text-anchor="left"></text>
<line stroke="Black" stroke-width="1.875" marker-start="url(#arrowStart)" x1="621" y1="393.75" x2="666" y2="393.75" />
<text x="624.75" y="390" text-anchor="left"></text>
<line stroke="Black" stroke-width="1.875" x1="666" y1="393.75" x2="666" y2="393.75" />
</g>
<g>
<g transform="translate(711 367.5)">
<a href="./ValueSet-ShapeVS.html" target="_top">
<rect fill="LightGreen" stroke="Black" stroke-width="1.875" x="0" y="0" width="99" height="52.5" rx="3.75" ry="3.75" />
</a>
<a href="./ValueSet-ShapeVS.html" target="_top">
<text x="49.5" y="22.5" text-anchor="middle">Shape</text>
</a>
<a href="./ValueSet-ShapeVS.html" target="_top">
<text x="49.5" y="41.25" text-anchor="middle">ValueSet</text>
</a>
</g>
</g>
<g>
<g transform="translate(448.5 427.5)">
<a href="StructureDefinition-MarginVS-definitions.html#Observation.component:margin" target="_top">
<rect fill="LightYellow" stroke="Black" stroke-width="1.875" x="0" y="0" width="172.5" height="52.5" rx="3.75" ry="3.75" />
</a>
<a href="StructureDefinition-MarginVS-definitions.html#Observation.component:margin" target="_top">
<text x="86.25" y="22.5" text-anchor="middle">Margin</text>
</a>
<a href="StructureDefinition-MarginVS-definitions.html#Observation.component:margin" target="_top">
<text x="86.25" y="41.25" text-anchor="middle">CodeableConcept</text>
</a>
</g>
<line stroke="Black" stroke-width="1.875" marker-end="url(#arrowEnd)" x1="666" y1="444.375" x2="711" y2="444.375" />
<text x="669.75" y="440.625" text-anchor="left"></text>
<line stroke="Black" stroke-width="1.875" marker-start="url(#arrowStart)" x1="621" y1="453.75" x2="666" y2="453.75" />
<text x="624.75" y="450" text-anchor="left"></text>
<line stroke="Black" stroke-width="1.875" x1="666" y1="444.375" x2="666" y2="453.75" />
</g>
<g>
<g transform="translate(711 427.5)">
<a href="./ValueSet-MarginVS.html" target="_top">
<rect fill="LightGreen" stroke="Black" stroke-width="1.875" x="0" y="0" width="162" height="33.75" rx="3.75" ry="3.75" />
</a>
<a href="./ValueSet-MarginVS.html" target="_top">
<text x="81" y="22.5" text-anchor="middle">MarginValueSet</text>
</a>
</g>
</g>
<g>
<g transform="translate(448.5 487.5)">
<a href="StructureDefinition-MGDensityVS-definitions.html#Observation.component:mgDensity" target="_top">
<rect fill="LightYellow" stroke="Black" stroke-width="1.875" x="0" y="0" width="172.5" height="52.5" rx="3.75" ry="3.75" />
</a>
<a href="StructureDefinition-MGDensityVS-definitions.html#Observation.component:mgDensity" target="_top">
<text x="86.25" y="22.5" text-anchor="middle">Density</text>
</a>
<a href="StructureDefinition-MGDensityVS-definitions.html#Observation.component:mgDensity" target="_top">
<text x="86.25" y="41.25" text-anchor="middle">CodeableConcept</text>
</a>
</g>
<line stroke="Black" stroke-width="1.875" marker-end="url(#arrowEnd)" x1="666" y1="504.375" x2="711" y2="504.375" />
<text x="669.75" y="500.625" text-anchor="left"></text>
<line stroke="Black" stroke-width="1.875" marker-start="url(#arrowStart)" x1="621" y1="513.75" x2="666" y2="513.75" />
<text x="624.75" y="510" text-anchor="left"></text>
<line stroke="Black" stroke-width="1.875" x1="666" y1="504.375" x2="666" y2="513.75" />
</g>
<g>
<g transform="translate(711 487.5)">
<a href="./ValueSet-MGDensityVS.html" target="_top">
<rect fill="LightGreen" stroke="Black" stroke-width="1.875" x="0" y="0" width="214.5" height="33.75" rx="3.75" ry="3.75" />
</a>
<a href="./ValueSet-MGDensityVS.html" target="_top">
<text x="107.25" y="22.5" text-anchor="middle">MG Density ValueSet</text>
</a>
</g>
</g>
<g>
<g transform="translate(448.5 547.5)">
<a href="StructureDefinition-NotPreviouslySeenVS-definitions.html#Observation.component:notPreviouslySeen" target="_top">
<rect fill="LightYellow" stroke="Black" stroke-width="1.875" x="0" y="0" width="214.5" height="52.5" rx="3.75" ry="3.75" />
</a>
<a href="StructureDefinition-NotPreviouslySeenVS-definitions.html#Observation.component:notPreviouslySeen" target="_top">
<text x="107.25" y="22.5" text-anchor="middle">Not Previously Seen</text>
</a>
<a href="StructureDefinition-NotPreviouslySeenVS-definitions.html#Observation.component:notPreviouslySeen" target="_top">
<text x="107.25" y="41.25" text-anchor="middle">CodeableConcept</text>
</a>
</g>
<line stroke="Black" stroke-width="1.875" marker-end="url(#arrowEnd)" x1="708" y1="573.75" x2="753" y2="573.75" />
<text x="711.75" y="570" text-anchor="left"></text>
<line stroke="Black" stroke-width="1.875" marker-start="url(#arrowStart)" x1="663" y1="573.75" x2="708" y2="573.75" />
<text x="666.75" y="570" text-anchor="left"></text>
<line stroke="Black" stroke-width="1.875" x1="708" y1="573.75" x2="708" y2="573.75" />
</g>
<g>
<g transform="translate(753 547.5)">
<a href="./ValueSet-NotPreviouslySeenVS.html" target="_top">
<rect fill="LightGreen" stroke="Black" stroke-width="1.875" x="0" y="0" width="193.5" height="52.5" rx="3.75" ry="3.75" />
</a>
<a href="./ValueSet-NotPreviouslySeenVS.html" target="_top">
<text x="96.75" y="22.5" text-anchor="middle">NotPreviouslySeen</text>
</a>
<a href="./ValueSet-NotPreviouslySeenVS.html" target="_top">
<text x="96.75" y="41.25" text-anchor="middle">ValueSet</text>
</a>
</g>
</g>
<g>
<g transform="translate(448.5 607.5)">
<a href="StructureDefinition-ObservedCountFragment-definitions.html#Observation.component:obsCount" target="_top">
<rect fill="LightYellow" stroke="Black" stroke-width="1.875" x="0" y="0" width="193.5" height="52.5" rx="3.75" ry="3.75" />
</a>
<a href="StructureDefinition-ObservedCountFragment-definitions.html#Observation.component:obsCount" target="_top">
<text x="96.75" y="22.5" text-anchor="middle">Observed Count</text>
</a>
<a href="StructureDefinition-ObservedCountFragment-definitions.html#Observation.component:obsCount" target="_top">
<text x="96.75" y="41.25" text-anchor="middle">Quantity or Range</text>
</a>
</g>
</g>
<g>
<g transform="translate(448.5 667.5)">
<a href="StructureDefinition-CorrespondsWithVS-definitions.html#Observation.component:correspondsWith" target="_top">
<rect fill="LightYellow" stroke="Black" stroke-width="1.875" x="0" y="0" width="183" height="52.5" rx="3.75" ry="3.75" />
</a>
<a href="StructureDefinition-CorrespondsWithVS-definitions.html#Observation.component:correspondsWith" target="_top">
<text x="91.5" y="22.5" text-anchor="middle">Corresponds With</text>
</a>
<a href="StructureDefinition-CorrespondsWithVS-definitions.html#Observation.component:correspondsWith" target="_top">
<text x="91.5" y="41.25" text-anchor="middle">CodeableConcept</text>
</a>
</g>
<line stroke="Black" stroke-width="1.875" marker-end="url(#arrowEnd)" x1="676.5" y1="693.75" x2="721.5" y2="693.75" />
<text x="680.25" y="690" text-anchor="left"></text>
<line stroke="Black" stroke-width="1.875" marker-start="url(#arrowStart)" x1="631.5" y1="693.75" x2="676.5" y2="693.75" />
<text x="635.25" y="690" text-anchor="left"></text>
<line stroke="Black" stroke-width="1.875" x1="676.5" y1="693.75" x2="676.5" y2="693.75" />
</g>
<g>
<g transform="translate(721.5 667.5)">
<a href="./ValueSet-CorrespondsWithVS.html" target="_top">
<rect fill="LightGreen" stroke="Black" stroke-width="1.875" x="0" y="0" width="172.5" height="52.5" rx="3.75" ry="3.75" />
</a>
<a href="./ValueSet-CorrespondsWithVS.html" target="_top">
<text x="86.25" y="22.5" text-anchor="middle">CorrespondsWith</text>
</a>
<a href="./ValueSet-CorrespondsWithVS.html" target="_top">
<text x="86.25" y="41.25" text-anchor="middle">ValueSet</text>
</a>
</g>
</g>
<g>
<g transform="translate(448.5 727.5)">
<a href="StructureDefinition-PreviouslyDemonstratedByVS-definitions.html#Observation.component:PreviouslyDemonstratedBy" target="_top">
<rect fill="LightYellow" stroke="Black" stroke-width="1.875" x="0" y="0" width="287.99997" height="52.5" rx="3.75" ry="3.75" />
</a>
<a href="StructureDefinition-PreviouslyDemonstratedByVS-definitions.html#Observation.component:PreviouslyDemonstratedBy" target="_top">
<text x="143.99998" y="22.5" text-anchor="middle">Previously Demonstrated By</text>
</a>
<a href="StructureDefinition-PreviouslyDemonstratedByVS-definitions.html#Observation.component:PreviouslyDemonstratedBy" target="_top">
<text x="143.99998" y="41.25" text-anchor="middle">CodeableConcept</text>
</a>
</g>
<line stroke="Black" stroke-width="1.875" marker-end="url(#arrowEnd)" x1="781.5" y1="753.75" x2="826.5" y2="753.75" />
<text x="785.25" y="750" text-anchor="left"></text>
<line stroke="Black" stroke-width="1.875" marker-start="url(#arrowStart)" x1="736.5" y1="753.75" x2="781.5" y2="753.75" />
<text x="740.25" y="750" text-anchor="left"></text>
<line stroke="Black" stroke-width="1.875" x1="781.5" y1="753.75" x2="781.5" y2="753.75" />
</g>
<g>
<g transform="translate(826.5 727.5)">
<a href="./ValueSet-PreviouslyDemonstratedByVS.html" target="_top">
<rect fill="LightGreen" stroke="Black" stroke-width="1.875" x="0" y="0" width="267" height="52.5" rx="3.75" ry="3.75" />
</a>
<a href="./ValueSet-PreviouslyDemonstratedByVS.html" target="_top">
<text x="133.5" y="22.5" text-anchor="middle">PreviouslyDemonstratedBy</text>
</a>
<a href="./ValueSet-PreviouslyDemonstratedByVS.html" target="_top">
<text x="133.5" y="41.25" text-anchor="middle">ValueSet</text>
</a>
</g>
</g>
<g>
<g transform="translate(448.5 787.5)">
<a href="StructureDefinition-BreastBodyLocationRequiredFragment-definitions.html#Observation.bodySite.extension:breastBodyLocation" target="_top">
<rect fill="LightSalmon" stroke="Black" stroke-width="1.875" x="0" y="0" width="225" height="52.5" rx="3.75" ry="3.75" />
</a>
<a href="StructureDefinition-BreastBodyLocationRequiredFragment-definitions.html#Observation.bodySite.extension:breastBodyLocation" target="_top">
<text x="112.5" y="22.5" text-anchor="middle">Breast Body Location</text>
</a>
<a href="StructureDefinition-BreastBodyLocationRequiredFragment-definitions.html#Observation.bodySite.extension:breastBodyLocation" target="_top">
<text x="112.5" y="41.25" text-anchor="middle">extension</text>
</a>
</g>
<line stroke="Black" stroke-width="1.875" marker-end="url(#arrowEnd)" x1="718.5" y1="804.375" x2="763.5" y2="804.375" />
<text x="722.25" y="800.625" text-anchor="left">1..1</text>
<line stroke="Black" stroke-width="1.875" marker-start="url(#arrowStart)" x1="673.5" y1="813.75" x2="718.5" y2="813.75" />
<text x="677.25" y="810" text-anchor="left"></text>
<line stroke="Black" stroke-width="1.875" x1="718.5" y1="804.375" x2="718.5" y2="813.75" />
</g>
<g>
<g transform="translate(763.5 787.5)">
<a href="./StructureDefinition-BreastBodyLocationExtension.html" target="_top">
<rect fill="LightCyan" stroke="Black" stroke-width="1.875" x="0" y="0" width="225" height="33.75" rx="3.75" ry="3.75" />
</a>
<a href="./StructureDefinition-BreastBodyLocationExtension.html" target="_top">
<text x="112.5" y="22.5" text-anchor="middle">Breast Body
Location</text>
</a>
</g>
</g>
</svg>
