<?xml version="1.0"?>
<?xml-stylesheet type="text/css" href="FocusGraph.css" ?>
<!DOCTYPE svg PUBLIC "-//W3C//DTD SVG 1.1//EN" "http://www.w3.org/Graphics/SVG/1.1/DTD/svg11.dtd">
<svg xmlns="http://www.w3.org/2000/svg" version="1.1" width="1378.8749" height="930">
<defs>
<marker id="arrowStart" markerWidth="3.75" markerHeight="3.75" markerUnits="px" refX="1.875" refY="1.875">
<circle fill="Black" stroke-width="0" cx="1.875" cy="1.875" r="1.875" />
</marker>
<marker id="arrowEnd" markerWidth="7.5" markerHeight="7.5" markerUnits="px" refX="7.5" refY="3.75">
<polygon fill="Black" stroke-width="0" points="0 0 7.5 3.75 0 7.5" />
</marker>
</defs>
<g>
<g transform="translate(7.5 7.5)">
<a href="StructureDefinition-MGFinding.html" target="_top">
<rect class="profile" fill="White" stroke="Black" stroke-width="1.875" x="0" y="0" width="120" height="33.75" rx="3.75" ry="3.75" />
</a>
<a href="StructureDefinition-MGFinding.html" target="_top">
<text x="60" y="22.5" text-anchor="middle" class="profile">Mg Finding</text>
</a>
</g>
<line stroke="Black" stroke-width="1.875" marker-end="url(#arrowEnd)" x1="157.5" y1="24.375" x2="187.5" y2="24.375" />
<line stroke="Black" stroke-width="1.875" marker-start="url(#arrowStart)" x1="127.5" y1="24.375" x2="157.5" y2="24.375" />
<line stroke="Black" stroke-width="1.875" x1="157.5" y1="24.375" x2="157.5" y2="24.375" />
</g>
<g>
<g transform="translate(187.5 7.5)">
<a href="StructureDefinition-AbnormalityLymphNode.html" target="_top">
<rect class="focus" fill="White" stroke="Black" stroke-width="1.875" x="0" y="0" width="183" height="33.75" rx="3.75" ry="3.75" />
</a>
<a href="StructureDefinition-AbnormalityLymphNode.html" target="_top">
<text x="91.5" y="22.5" text-anchor="middle" class="focus">Cyst Abnormality</text>
</a>
</g>
<line stroke="Black" stroke-width="1.875" marker-end="url(#arrowEnd)" x1="400.5" y1="24.375" x2="460.5" y2="24.375" />
<text x="404.25" y="20.625" text-anchor="right" class="lhsText">1..*</text>
<line stroke="Black" stroke-width="1.875" marker-end="url(#arrowEnd)" x1="400.5" y1="808.125" x2="460.5" y2="808.125" />
<text x="404.25" y="804.375" text-anchor="right" class="lhsText">1..1</text>
<line stroke="Black" stroke-width="1.875" marker-end="url(#arrowEnd)" x1="400.5" y1="849.375" x2="460.5" y2="849.375" />
<text x="404.25" y="845.625" text-anchor="right" class="lhsText">0..*</text>
<line stroke="Black" stroke-width="1.875" marker-start="url(#arrowStart)" x1="370.5" y1="24.375" x2="400.5" y2="24.375" />
<line stroke="Black" stroke-width="1.875" x1="400.5" y1="24.375" x2="400.5" y2="849.375" />
</g>
<g>
<g transform="translate(460.5 7.5)">
<a href="StructureDefinition-AbnormalityLymphNode-definitions.html#Observation.component" target="_top">
<rect class="element" fill="White" stroke="Black" stroke-width="1.875" x="0" y="0" width="120" height="33.75" rx="3.75" ry="3.75" />
</a>
<a href="StructureDefinition-AbnormalityLymphNode-definitions.html#Observation.component" target="_top">
<text x="60" y="22.5" text-anchor="middle" class="element">Components</text>
</a>
</g>
<line stroke="Black" stroke-width="1.875" marker-end="url(#arrowEnd)" x1="610.5" y1="24.375" x2="670.5" y2="24.375" />
<text x="614.25" y="20.625" text-anchor="right" class="lhsText">1..1</text>
<line stroke="Black" stroke-width="1.875" marker-end="url(#arrowEnd)" x1="610.5" y1="84.375" x2="670.5" y2="84.375" />
<text x="614.25" y="80.625" text-anchor="right" class="lhsText">0..*</text>
<line stroke="Black" stroke-width="1.875" marker-end="url(#arrowEnd)" x1="610.5" y1="144.375" x2="670.5" y2="144.375" />
<text x="614.25" y="140.625" text-anchor="right" class="lhsText">0..1</text>
<line stroke="Black" stroke-width="1.875" marker-end="url(#arrowEnd)" x1="610.5" y1="204.375" x2="670.5" y2="204.375" />
<text x="614.25" y="200.625" text-anchor="right" class="lhsText">0..1</text>
<line stroke="Black" stroke-width="1.875" marker-end="url(#arrowEnd)" x1="610.5" y1="264.375" x2="670.5" y2="264.375" />
<text x="614.25" y="260.625" text-anchor="right" class="lhsText">0..1</text>
<line stroke="Black" stroke-width="1.875" marker-end="url(#arrowEnd)" x1="610.5" y1="324.375" x2="670.5" y2="324.375" />
<text x="614.25" y="320.625" text-anchor="right" class="lhsText">0..1</text>
<line stroke="Black" stroke-width="1.875" marker-end="url(#arrowEnd)" x1="610.5" y1="384.375" x2="670.5" y2="384.375" />
<text x="614.25" y="380.625" text-anchor="right" class="lhsText">0..1</text>
<line stroke="Black" stroke-width="1.875" marker-end="url(#arrowEnd)" x1="610.5" y1="444.375" x2="670.5" y2="444.375" />
<text x="614.25" y="440.625" text-anchor="right" class="lhsText">0..1</text>
<line stroke="Black" stroke-width="1.875" marker-end="url(#arrowEnd)" x1="610.5" y1="485.625" x2="670.5" y2="485.625" />
<text x="614.25" y="481.875" text-anchor="right" class="lhsText">0..*</text>
<line stroke="Black" stroke-width="1.875" marker-end="url(#arrowEnd)" x1="610.5" y1="545.625" x2="670.5" y2="545.625" />
<text x="614.25" y="541.875" text-anchor="right" class="lhsText">0..1</text>
<line stroke="Black" stroke-width="1.875" marker-end="url(#arrowEnd)" x1="610.5" y1="586.875" x2="670.5" y2="586.875" />
<text x="614.25" y="583.125" text-anchor="right" class="lhsText">0..3</text>
<line stroke="Black" stroke-width="1.875" marker-end="url(#arrowEnd)" x1="610.5" y1="628.125" x2="670.5" y2="628.125" />
<text x="614.25" y="624.375" text-anchor="right" class="lhsText">0..*</text>
<line stroke="Black" stroke-width="1.875" marker-end="url(#arrowEnd)" x1="610.5" y1="688.125" x2="670.5" y2="688.125" />
<text x="614.25" y="684.375" text-anchor="right" class="lhsText">0..*</text>
<line stroke="Black" stroke-width="1.875" marker-end="url(#arrowEnd)" x1="610.5" y1="757.5" x2="670.5" y2="757.5" />
<text x="614.25" y="753.75" text-anchor="right" class="lhsText">0..*</text>
<line stroke="Black" stroke-width="1.875" marker-start="url(#arrowStart)" x1="580.5" y1="24.375" x2="610.5" y2="24.375" />
<line stroke="Black" stroke-width="1.875" x1="610.5" y1="24.375" x2="610.5" y2="757.5" />
</g>
<g>
<g transform="translate(670.5 7.5)">
<a href="StructureDefinition-AbnormalityLymphNode-definitions.html#Observation.component:lymphNodeType" target="_top">
<rect class="element" fill="White" stroke="Black" stroke-width="1.875" x="0" y="0" width="298.5" height="33.75" rx="3.75" ry="3.75" />
</a>
<a href="StructureDefinition-AbnormalityLymphNode-definitions.html#Observation.component:lymphNodeType" target="_top">
<text x="149.25" y="22.5" text-anchor="middle" class="element">Lymph Node Abnormality Type</text>
</a>
</g>
<line stroke="Black" stroke-width="1.875" marker-end="url(#arrowEnd)" x1="999" y1="33.75" x2="1059" y2="33.75" />
<text x="1002.75" y="30" text-anchor="right" class="lhsText">bind</text>
<line stroke="Black" stroke-width="1.875" marker-start="url(#arrowStart)" x1="969" y1="24.375" x2="999" y2="24.375" />
<line stroke="Black" stroke-width="1.875" x1="999" y1="24.375" x2="999" y2="33.75" />
</g>
<g>
<g transform="translate(1059 7.5)">
<a href="ValueSet-AbnormalityLymphNodeTypeVS.html" target="_top">
<rect class="valueSet" fill="White" stroke="Black" stroke-width="1.875" x="0" y="0" width="287.99997" height="52.5" rx="3.75" ry="3.75" />
</a>
<a href="ValueSet-AbnormalityLymphNodeTypeVS.html" target="_top">
<text x="143.99998" y="22.5" text-anchor="middle" class="valueSet">AbnormalityLymphNodeTypeVS</text>
</a>
<a href="ValueSet-AbnormalityLymphNodeTypeVS.html" target="_top">
<text x="143.99998" y="41.25" text-anchor="middle" class="valueSet">ValueSet</text>
</a>
</g>
</g>
<g>
<g transform="translate(670.5 67.5)">
<a href="StructureDefinition-AbnormalityLymphNode-definitions.html#Observation.component:obsChanges" target="_top">
<rect class="element" fill="White" stroke="Black" stroke-width="1.875" x="0" y="0" width="183" height="33.75" rx="3.75" ry="3.75" />
</a>
<a href="StructureDefinition-AbnormalityLymphNode-definitions.html#Observation.component:obsChanges" target="_top">
<text x="91.5" y="22.5" text-anchor="middle" class="element">Observed Changes</text>
</a>
</g>
<line stroke="Black" stroke-width="1.875" marker-end="url(#arrowEnd)" x1="883.5" y1="93.75" x2="943.5" y2="93.75" />
<text x="887.25" y="90" text-anchor="right" class="lhsText">bind</text>
<line stroke="Black" stroke-width="1.875" marker-start="url(#arrowStart)" x1="853.5" y1="84.375" x2="883.5" y2="84.375" />
<line stroke="Black" stroke-width="1.875" x1="883.5" y1="84.375" x2="883.5" y2="93.75" />
</g>
<g>
<g transform="translate(943.5 67.5)">
<a href="ValueSet-ObservedChangesVS.html" target="_top">
<rect class="valueSet" fill="White" stroke="Black" stroke-width="1.875" x="0" y="0" width="193.5" height="52.5" rx="3.75" ry="3.75" />
</a>
<a href="ValueSet-ObservedChangesVS.html" target="_top">
<text x="96.75" y="22.5" text-anchor="middle" class="valueSet">ObservedChangesVS</text>
</a>
<a href="ValueSet-ObservedChangesVS.html" target="_top">
<text x="96.75" y="41.25" text-anchor="middle" class="valueSet">ValueSet</text>
</a>
</g>
</g>
<g>
<g transform="translate(670.5 127.5)">
<a href="StructureDefinition-AbnormalityLymphNode-definitions.html#Observation.component:biRadsAssessmentCategory" target="_top">
<rect class="element" fill="White" stroke="Black" stroke-width="1.875" x="0" y="0" width="130.5" height="33.75" rx="3.75" ry="3.75" />
</a>
<a href="StructureDefinition-AbnormalityLymphNode-definitions.html#Observation.component:biRadsAssessmentCategory" target="_top">
<text x="65.25" y="22.5" text-anchor="middle" class="element">BiRads Code</text>
</a>
</g>
<line stroke="Black" stroke-width="1.875" marker-end="url(#arrowEnd)" x1="831" y1="153.75" x2="891" y2="153.75" />
<text x="834.75" y="150" text-anchor="right" class="lhsText">bind</text>
<line stroke="Black" stroke-width="1.875" marker-start="url(#arrowStart)" x1="801" y1="144.375" x2="831" y2="144.375" />
<line stroke="Black" stroke-width="1.875" x1="831" y1="144.375" x2="831" y2="153.75" />
</g>
<g>
<g transform="translate(891 127.5)">
<a href="ValueSet-BiRadsAssessmentCategoryVS.html" target="_top">
<rect class="valueSet" fill="White" stroke="Black" stroke-width="1.875" x="0" y="0" width="287.99997" height="52.5" rx="3.75" ry="3.75" />
</a>
<a href="ValueSet-BiRadsAssessmentCategoryVS.html" target="_top">
<text x="143.99998" y="22.5" text-anchor="middle" class="valueSet">BiRadsAssessmentCategoryVS</text>
</a>
<a href="ValueSet-BiRadsAssessmentCategoryVS.html" target="_top">
<text x="143.99998" y="41.25" text-anchor="middle" class="valueSet">ValueSet</text>
</a>
</g>
</g>
<g>
<g transform="translate(670.5 187.5)">
<a href="StructureDefinition-AbnormalityLymphNode-definitions.html#Observation.component:orientation" target="_top">
<rect class="element" fill="White" stroke="Black" stroke-width="1.875" x="0" y="0" width="130.5" height="33.75" rx="3.75" ry="3.75" />
</a>
<a href="StructureDefinition-AbnormalityLymphNode-definitions.html#Observation.component:orientation" target="_top">
<text x="65.25" y="22.5" text-anchor="middle" class="element">Orientation</text>
</a>
</g>
<line stroke="Black" stroke-width="1.875" marker-end="url(#arrowEnd)" x1="831" y1="213.75" x2="891" y2="213.75" />
<text x="834.75" y="210" text-anchor="right" class="lhsText">bind</text>
<line stroke="Black" stroke-width="1.875" marker-start="url(#arrowStart)" x1="801" y1="204.375" x2="831" y2="204.375" />
<line stroke="Black" stroke-width="1.875" x1="831" y1="204.375" x2="831" y2="213.75" />
</g>
<g>
<g transform="translate(891 187.5)">
<a href="ValueSet-OrientationVS.html" target="_top">
<rect class="valueSet" fill="White" stroke="Black" stroke-width="1.875" x="0" y="0" width="151.49998" height="52.5" rx="3.75" ry="3.75" />
</a>
<a href="ValueSet-OrientationVS.html" target="_top">
<text x="75.74999" y="22.5" text-anchor="middle" class="valueSet">OrientationVS</text>
</a>
<a href="ValueSet-OrientationVS.html" target="_top">
<text x="75.74999" y="41.25" text-anchor="middle" class="valueSet">ValueSet</text>
</a>
</g>
</g>
<g>
<g transform="translate(670.5 247.5)">
<a href="StructureDefinition-AbnormalityLymphNode-definitions.html#Observation.component:shape" target="_top">
<rect class="element" fill="White" stroke="Black" stroke-width="1.875" x="0" y="0" width="67.5" height="33.75" rx="3.75" ry="3.75" />
</a>
<a href="StructureDefinition-AbnormalityLymphNode-definitions.html#Observation.component:shape" target="_top">
<text x="33.75" y="22.5" text-anchor="middle" class="element">Shape</text>
</a>
</g>
<line stroke="Black" stroke-width="1.875" marker-end="url(#arrowEnd)" x1="768" y1="273.75" x2="828" y2="273.75" />
<text x="771.75" y="270" text-anchor="right" class="lhsText">bind</text>
<line stroke="Black" stroke-width="1.875" marker-start="url(#arrowStart)" x1="738" y1="264.375" x2="768" y2="264.375" />
<line stroke="Black" stroke-width="1.875" x1="768" y1="264.375" x2="768" y2="273.75" />
</g>
<g>
<g transform="translate(828 247.5)">
<a href="ValueSet-ShapeVS.html" target="_top">
<rect class="valueSet" fill="White" stroke="Black" stroke-width="1.875" x="0" y="0" width="99" height="52.5" rx="3.75" ry="3.75" />
</a>
<a href="ValueSet-ShapeVS.html" target="_top">
<text x="49.5" y="22.5" text-anchor="middle" class="valueSet">ShapeVS</text>
</a>
<a href="ValueSet-ShapeVS.html" target="_top">
<text x="49.5" y="41.25" text-anchor="middle" class="valueSet">ValueSet</text>
</a>
</g>
</g>
<g>
<g transform="translate(670.5 307.5)">
<a href="StructureDefinition-AbnormalityLymphNode-definitions.html#Observation.component:margin" target="_top">
<rect class="element" fill="White" stroke="Black" stroke-width="1.875" x="0" y="0" width="78" height="33.75" rx="3.75" ry="3.75" />
</a>
<a href="StructureDefinition-AbnormalityLymphNode-definitions.html#Observation.component:margin" target="_top">
<text x="39" y="22.5" text-anchor="middle" class="element">Margin</text>
</a>
</g>
<line stroke="Black" stroke-width="1.875" marker-end="url(#arrowEnd)" x1="778.5" y1="333.75" x2="838.5" y2="333.75" />
<text x="782.25" y="330" text-anchor="right" class="lhsText">bind</text>
<line stroke="Black" stroke-width="1.875" marker-start="url(#arrowStart)" x1="748.5" y1="324.375" x2="778.5" y2="324.375" />
<line stroke="Black" stroke-width="1.875" x1="778.5" y1="324.375" x2="778.5" y2="333.75" />
</g>
<g>
<g transform="translate(838.5 307.5)">
<a href="ValueSet-ShapeVS.html" target="_top">
<rect class="valueSet" fill="White" stroke="Black" stroke-width="1.875" x="0" y="0" width="99" height="52.5" rx="3.75" ry="3.75" />
</a>
<a href="ValueSet-ShapeVS.html" target="_top">
<text x="49.5" y="22.5" text-anchor="middle" class="valueSet">ShapeVS</text>
</a>
<a href="ValueSet-ShapeVS.html" target="_top">
<text x="49.5" y="41.25" text-anchor="middle" class="valueSet">ValueSet</text>
</a>
</g>
</g>
<g>
<g transform="translate(670.5 367.5)">
<a href="StructureDefinition-AbnormalityLymphNode-definitions.html#Observation.component:mgBreastDensity" target="_top">
<rect class="element" fill="White" stroke="Black" stroke-width="1.875" x="0" y="0" width="88.5" height="33.75" rx="3.75" ry="3.75" />
</a>
<a href="StructureDefinition-AbnormalityLymphNode-definitions.html#Observation.component:mgBreastDensity" target="_top">
<text x="44.25" y="22.5" text-anchor="middle" class="element">Density</text>
</a>
</g>
<line stroke="Black" stroke-width="1.875" marker-end="url(#arrowEnd)" x1="789.00006" y1="393.75" x2="849.00006" y2="393.75" />
<text x="792.75006" y="390" text-anchor="right" class="lhsText">bind</text>
<line stroke="Black" stroke-width="1.875" marker-start="url(#arrowStart)" x1="759.00006" y1="384.375" x2="789.00006" y2="384.375" />
<line stroke="Black" stroke-width="1.875" x1="789.00006" y1="384.375" x2="789.00006" y2="393.75" />
</g>
<g>
<g transform="translate(849.00006 367.5)">
<a href="ValueSet-MGBreastDensityVS.html" target="_top">
<rect class="valueSet" fill="White" stroke="Black" stroke-width="1.875" x="0" y="0" width="193.5" height="52.5" rx="3.75" ry="3.75" />
</a>
<a href="ValueSet-MGBreastDensityVS.html" target="_top">
<text x="96.75" y="22.5" text-anchor="middle" class="valueSet">MGBreastDensityVS</text>
</a>
<a href="ValueSet-MGBreastDensityVS.html" target="_top">
<text x="96.75" y="41.25" text-anchor="middle" class="valueSet">ValueSet</text>
</a>
</g>
</g>
<g>
<g transform="translate(670.5 427.5)">
<a href="StructureDefinition-AbnormalityLymphNode-definitions.html#Observation.component:observedCount" target="_top">
<rect class="element" fill="White" stroke="Black" stroke-width="1.875" x="0" y="0" width="162" height="33.75" rx="3.75" ry="3.75" />
</a>
<a href="StructureDefinition-AbnormalityLymphNode-definitions.html#Observation.component:observedCount" target="_top">
<text x="81" y="22.5" text-anchor="middle" class="element">Observed Count</text>
</a>
</g>
</g>
<g>
<g transform="translate(670.5 468.75)">
<a href="StructureDefinition-AbnormalityLymphNode-definitions.html#Observation.component:obsDistribution" target="_top">
<rect class="element" fill="White" stroke="Black" stroke-width="1.875" x="0" y="0" width="235.5" height="33.75" rx="3.75" ry="3.75" />
</a>
<a href="StructureDefinition-AbnormalityLymphNode-definitions.html#Observation.component:obsDistribution" target="_top">
<text x="117.75" y="22.5" text-anchor="middle" class="element">Observed Distribution</text>
</a>
</g>
<line stroke="Black" stroke-width="1.875" marker-end="url(#arrowEnd)" x1="936" y1="495" x2="996" y2="495" />
<text x="939.75" y="491.25" text-anchor="right" class="lhsText">bind</text>
<line stroke="Black" stroke-width="1.875" marker-start="url(#arrowStart)" x1="906" y1="485.625" x2="936" y2="485.625" />
<line stroke="Black" stroke-width="1.875" x1="936" y1="485.625" x2="936" y2="495" />
</g>
<g>
<g transform="translate(996 468.75)">
<a href="ValueSet-CalcificationDistributionVS.html" target="_top">
<rect class="valueSet" fill="White" stroke="Black" stroke-width="1.875" x="0" y="0" width="298.5" height="52.5" rx="3.75" ry="3.75" />
</a>
<a href="ValueSet-CalcificationDistributionVS.html" target="_top">
<text x="149.25" y="22.5" text-anchor="middle" class="valueSet">CalcificationDistributionVS</text>
</a>
<a href="ValueSet-CalcificationDistributionVS.html" target="_top">
<text x="149.25" y="41.25" text-anchor="middle" class="valueSet">ValueSet</text>
</a>
</g>
</g>
<g>
<g transform="translate(670.5 528.75)">
<a href="StructureDefinition-AbnormalityLymphNode-definitions.html#Observation.component:obsDistRegionSize" target="_top">
<rect class="element" fill="White" stroke="Black" stroke-width="1.875" x="0" y="0" width="361.5" height="33.75" rx="3.75" ry="3.75" />
</a>
<a href="StructureDefinition-AbnormalityLymphNode-definitions.html#Observation.component:obsDistRegionSize" target="_top">
<text x="180.75" y="22.5" text-anchor="middle" class="element">Observed Distribution Region Size</text>
</a>
</g>
</g>
<g>
<g transform="translate(670.5 570)">
<a href="StructureDefinition-AbnormalityLymphNode-definitions.html#Observation.component:obsSize" target="_top">
<rect class="element" fill="White" stroke="Black" stroke-width="1.875" x="0" y="0" width="151.49998" height="33.75" rx="3.75" ry="3.75" />
</a>
<a href="StructureDefinition-AbnormalityLymphNode-definitions.html#Observation.component:obsSize" target="_top">
<text x="75.74999" y="22.5" text-anchor="middle" class="element">Observed Size</text>
</a>
</g>
</g>
<g>
<g transform="translate(670.5 611.25)">
<a href="StructureDefinition-AbnormalityLymphNode-definitions.html#Observation.component:notPreviouslySeen" target="_top">
<rect class="element" fill="White" stroke="Black" stroke-width="1.875" x="0" y="0" width="214.5" height="33.75" rx="3.75" ry="3.75" />
</a>
<a href="StructureDefinition-AbnormalityLymphNode-definitions.html#Observation.component:notPreviouslySeen" target="_top">
<text x="107.25" y="22.5" text-anchor="middle" class="element">Not Previously Seen</text>
</a>
</g>
<line stroke="Black" stroke-width="1.875" marker-end="url(#arrowEnd)" x1="915" y1="637.5" x2="975" y2="637.5" />
<text x="918.75" y="633.75" text-anchor="right" class="lhsText">bind</text>
<line stroke="Black" stroke-width="1.875" marker-start="url(#arrowStart)" x1="885" y1="628.125" x2="915" y2="628.125" />
<line stroke="Black" stroke-width="1.875" x1="915" y1="628.125" x2="915" y2="637.5" />
</g>
<g>
<g transform="translate(975 611.25)">
<a href="ValueSet-NotPreviouslySeenVS.html" target="_top">
<rect class="valueSet" fill="White" stroke="Black" stroke-width="1.875" x="0" y="0" width="214.5" height="52.5" rx="3.75" ry="3.75" />
</a>
<a href="ValueSet-NotPreviouslySeenVS.html" target="_top">
<text x="107.25" y="22.5" text-anchor="middle" class="valueSet">NotPreviouslySeenVS</text>
</a>
<a href="ValueSet-NotPreviouslySeenVS.html" target="_top">
<text x="107.25" y="41.25" text-anchor="middle" class="valueSet">ValueSet</text>
</a>
</g>
</g>
<g>
<g transform="translate(670.5 671.25)">
<a href="StructureDefinition-AbnormalityLymphNode-definitions.html#Observation.component:correspondsWith" target="_top">
<rect class="element" fill="White" stroke="Black" stroke-width="1.875" x="0" y="0" width="183" height="33.75" rx="3.75" ry="3.75" />
</a>
<a href="StructureDefinition-AbnormalityLymphNode-definitions.html#Observation.component:correspondsWith" target="_top">
<text x="91.5" y="22.5" text-anchor="middle" class="element">Corresponds With</text>
</a>
</g>
<line stroke="Black" stroke-width="1.875" marker-end="url(#arrowEnd)" x1="883.5" y1="697.5" x2="943.5" y2="697.5" />
<text x="887.25" y="693.75" text-anchor="right" class="lhsText">bind</text>
<line stroke="Black" stroke-width="1.875" marker-start="url(#arrowStart)" x1="853.5" y1="688.125" x2="883.5" y2="688.125" />
<line stroke="Black" stroke-width="1.875" x1="883.5" y1="688.125" x2="883.5" y2="697.5" />
</g>
<g>
<g transform="translate(943.5 671.25)">
<a href="ValueSet-CorrespondsWithVS.html" target="_top">
<rect class="valueSet" fill="White" stroke="Black" stroke-width="1.875" x="0" y="0" width="193.5" height="52.5" rx="3.75" ry="3.75" />
</a>
<a href="ValueSet-CorrespondsWithVS.html" target="_top">
<text x="96.75" y="22.5" text-anchor="middle" class="valueSet">CorrespondsWithVS</text>
</a>
<a href="ValueSet-CorrespondsWithVS.html" target="_top">
<text x="96.75" y="41.25" text-anchor="middle" class="valueSet">ValueSet</text>
</a>
</g>
</g>
<g>
<g transform="translate(670.5 731.25)">
<a href="StructureDefinition-AbnormalityLymphNode-definitions.html#Observation.component:prevDemBy" target="_top">
<rect class="element" fill="White" stroke="Black" stroke-width="1.875" x="0" y="0" width="256.5" height="52.5" rx="3.75" ry="3.75" />
</a>
<a href="StructureDefinition-AbnormalityLymphNode-definitions.html#Observation.component:prevDemBy" target="_top">
<text x="128.25" y="22.5" text-anchor="middle" class="element">Previously</text>
</a>
<a href="StructureDefinition-AbnormalityLymphNode-definitions.html#Observation.component:prevDemBy" target="_top">
<text x="128.25" y="41.25" text-anchor="middle" class="element">Demonstrated by Changes</text>
</a>
</g>
<line stroke="Black" stroke-width="1.875" marker-end="url(#arrowEnd)" x1="957.00006" y1="757.5" x2="1017.00006" y2="757.5" />
<text x="960.75006" y="753.75" text-anchor="right" class="lhsText">bind</text>
<line stroke="Black" stroke-width="1.875" marker-start="url(#arrowStart)" x1="927.00006" y1="757.5" x2="957.00006" y2="757.5" />
<line stroke="Black" stroke-width="1.875" x1="957.00006" y1="757.5" x2="957.00006" y2="757.5" />
</g>
<g>
<g transform="translate(1017.00006 731.25)">
<a href="ValueSet-PreviouslyDemonstratedByVS.html" target="_top">
<rect class="valueSet" fill="White" stroke="Black" stroke-width="1.875" x="0" y="0" width="287.99997" height="52.5" rx="3.75" ry="3.75" />
</a>
<a href="ValueSet-PreviouslyDemonstratedByVS.html" target="_top">
<text x="143.99998" y="22.5" text-anchor="middle" class="valueSet">PreviouslyDemonstratedByVS</text>
</a>
<a href="ValueSet-PreviouslyDemonstratedByVS.html" target="_top">
<text x="143.99998" y="41.25" text-anchor="middle" class="valueSet">ValueSet</text>
</a>
</g>
</g>
<g>
<g transform="translate(460.5 791.25)">
<a href="StructureDefinition-AbnormalityLymphNode-definitions.html#Observation.bodySite" target="_top">
<rect class="element" fill="White" stroke="Black" stroke-width="1.875" x="0" y="0" width="99" height="33.75" rx="3.75" ry="3.75" />
</a>
<a href="StructureDefinition-AbnormalityLymphNode-definitions.html#Observation.bodySite" target="_top">
<text x="49.5" y="22.5" text-anchor="middle" class="element">BodySite</text>
</a>
</g>
<line stroke="Black" stroke-width="1.875" marker-end="url(#arrowEnd)" x1="589.5" y1="808.125" x2="649.5" y2="808.125" />
<text x="593.25" y="804.375" text-anchor="right" class="lhsText">1..*</text>
<line stroke="Black" stroke-width="1.875" marker-start="url(#arrowStart)" x1="559.5" y1="808.125" x2="589.5" y2="808.125" />
<line stroke="Black" stroke-width="1.875" x1="589.5" y1="808.125" x2="589.5" y2="808.125" />
</g>
<g>
<g transform="translate(649.5 791.25)">
<a href="StructureDefinition-AbnormalityLymphNode-definitions.html#Observation.bodySite.extension" target="_top">
<rect class="element" fill="White" stroke="Black" stroke-width="1.875" x="0" y="0" width="109.49999" height="33.75" rx="3.75" ry="3.75" />
</a>
<a href="StructureDefinition-AbnormalityLymphNode-definitions.html#Observation.bodySite.extension" target="_top">
<text x="54.749996" y="22.5" text-anchor="middle" class="element">extension</text>
</a>
</g>
<line stroke="Black" stroke-width="1.875" marker-end="url(#arrowEnd)" x1="789" y1="808.125" x2="819" y2="808.125" />
<line stroke="Black" stroke-width="1.875" marker-start="url(#arrowStart)" x1="759" y1="808.125" x2="789" y2="808.125" />
<line stroke="Black" stroke-width="1.875" x1="789" y1="808.125" x2="789" y2="808.125" />
</g>
<g>
<g transform="translate(819 791.25)">
<a href="StructureDefinition-BreastBodyLocationExtension.html" target="_top">
<rect class="extension" fill="White" stroke="Black" stroke-width="1.875" x="0" y="0" width="203.99998" height="33.75" rx="3.75" ry="3.75" />
</a>
<a href="StructureDefinition-BreastBodyLocationExtension.html" target="_top">
<text x="101.99999" y="22.5" text-anchor="middle" class="extension">BreastBodyLocation</text>
</a>
</g>
</g>
<g>
<g transform="translate(460.5 832.5)">
<a href="StructureDefinition-AbnormalityLymphNode-definitions.html#Observation.hasMember" target="_top">
<rect class="element" fill="White" stroke="Black" stroke-width="1.875" x="0" y="0" width="109.49999" height="33.75" rx="3.75" ry="3.75" />
</a>
<a href="StructureDefinition-AbnormalityLymphNode-definitions.html#Observation.hasMember" target="_top">
<text x="54.749996" y="22.5" text-anchor="middle" class="element">HasMember</text>
</a>
</g>
<line stroke="Black" stroke-width="1.875" marker-end="url(#arrowEnd)" x1="630" y1="849.375" x2="660" y2="849.375" />
<line stroke="Black" stroke-width="1.875" marker-end="url(#arrowEnd)" x1="630" y1="890.625" x2="660" y2="890.625" />
<line stroke="Black" stroke-width="1.875" marker-start="url(#arrowStart)" x1="570" y1="849.375" x2="630" y2="849.375" />
<text x="573.75" y="845.625" text-anchor="left" class="rhsText">0..*</text>
<line stroke="Black" stroke-width="1.875" x1="630" y1="849.375" x2="630" y2="890.625" />
</g>
<g>
<g transform="translate(660 832.5)">
<a href="StructureDefinition-AssociatedFeature.html" target="_top">
<rect class="profile" fill="White" stroke="Black" stroke-width="1.875" x="0" y="0" width="193.5" height="33.75" rx="3.75" ry="3.75" />
</a>
<a href="StructureDefinition-AssociatedFeature.html" target="_top">
<text x="96.75" y="22.5" text-anchor="middle" class="profile">AssociatedFeature</text>
</a>
</g>
</g>
<g>
<g transform="translate(660 873.75)">
<a href="StructureDefinition-TumorSatellite.html" target="_top">
<rect class="profile" fill="White" stroke="Black" stroke-width="1.875" x="0" y="0" width="162" height="33.75" rx="3.75" ry="3.75" />
</a>
<a href="StructureDefinition-TumorSatellite.html" target="_top">
<text x="81" y="22.5" text-anchor="middle" class="profile">TumorSatellite</text>
</a>
</g>
</g>
</svg>
