<?xml version="1.0"?>
<?xml-stylesheet type="text/css" href="FocusGraph.css" ?>
<!DOCTYPE svg PUBLIC "-//W3C//DTD SVG 1.1//EN" "http://www.w3.org/Graphics/SVG/1.1/DTD/svg11.dtd">
<svg xmlns="http://www.w3.org/2000/svg" version="1.1" width="1083.56" height="611.25">
<defs>
<marker id="arrowStart" markerWidth="3.75" markerHeight="3.75" markerUnits="px" refX="1.88" refY="1.88">
<circle class="connector" cx="1.88" cy="1.88" r="1.88" />
</marker>
<marker id="arrowEnd" markerWidth="7.5" markerHeight="7.5" markerUnits="px" refX="7.5" refY="3.75">
<polygon class="connector" points="0 0 7.5 3.75 0 7.5" />
</marker>
</defs>
<g>
<g transform="translate(3.75 3.75)">
<a href="StructureDefinition-MGFinding.html" target="_top">
<rect class="profile" x="0" y="0" width="102.6" height="26.25" rx="3.75" ry="3.75" />
</a>
<a href="StructureDefinition-MGFinding.html" target="_top">
<text x="5.62" y="18.75" text-anchor="left" class="profile">Mg Findings</text>
</a>
</g>
<line class="connector" marker-end="url(#arrowEnd)" x1="136.35" y1="16.88" x2="196.35" y2="16.88" />
<text x="140.1" y="13.12" text-anchor="right" class="lhsText">0..*</text>
<line class="connector" marker-start="url(#arrowStart)" x1="106.35" y1="16.88" x2="136.35" y2="16.88" />
<line class="connector" x1="136.35" y1="16.88" x2="136.35" y2="16.88" />
</g>
<g>
<g transform="translate(196.35 3.75)">
<a href="StructureDefinition-AbnormalityCalcification.html" target="_top">
<rect class="focus" x="0" y="0" width="101.68" height="26.25" rx="3.75" ry="3.75" />
</a>
<a href="StructureDefinition-AbnormalityCalcification.html" target="_top">
<text x="5.62" y="18.75" text-anchor="left" class="focus">Calcification</text>
</a>
</g>
<line class="connector" marker-end="url(#arrowEnd)" x1="328.03" y1="16.88" x2="388.03" y2="16.88" />
<text x="331.78" y="13.12" text-anchor="right" class="lhsText">1..1</text>
<line class="connector" marker-end="url(#arrowEnd)" x1="328.03" y1="50.62" x2="388.03" y2="50.62" />
<text x="331.78" y="46.88" text-anchor="right" class="lhsText">1..1</text>
<line class="connector" marker-end="url(#arrowEnd)" x1="328.03" y1="84.38" x2="388.03" y2="84.38" />
<text x="331.78" y="80.62" text-anchor="right" class="lhsText">1..*</text>
<line class="connector" marker-end="url(#arrowEnd)" x1="328.03" y1="406.88" x2="388.03" y2="406.88" />
<text x="331.78" y="403.12" text-anchor="right" class="lhsText">0..*</text>
<line class="connector" marker-start="url(#arrowStart)" x1="298.03" y1="16.88" x2="328.03" y2="16.88" />
<line class="connector" x1="328.03" y1="16.88" x2="328.03" y2="406.88" />
</g>
<g>
<g transform="translate(388.03 3.75)">
<a href="StructureDefinition-AbnormalityCalcification-definitions.html#Observation.code" target="_top">
<rect class="element" x="0" y="0" width="52.22" height="26.25" rx="3.75" ry="3.75" />
</a>
<a href="StructureDefinition-AbnormalityCalcification-definitions.html#Observation.code" target="_top">
<text x="5.62" y="18.75" text-anchor="left" class="element">Code</text>
</a>
</g>
<line class="connector" marker-end="url(#arrowEnd)" x1="470.26" y1="16.88" x2="590.26" y2="16.88" />
<text x="474.01" y="13.12" text-anchor="right" class="lhsText">pattern </text>
<line class="connector" marker-start="url(#arrowStart)" x1="440.26" y1="16.88" x2="470.26" y2="16.88" />
<line class="connector" x1="470.26" y1="16.88" x2="470.26" y2="16.88" />
</g>
<g>
<g transform="translate(590.26 3.75)">
<a href="CodeSystem-ObservationCodesCS.html" target="_top">
<rect class="value" x="0" y="0" width="444.26" height="26.25" rx="3.75" ry="3.75" />
</a>
<a href="CodeSystem-ObservationCodesCS.html" target="_top">
<text x="5.62" y="18.75" text-anchor="left" class="value">ObservationCodesCS#abnormalityCalcificationObservation</text>
</a>
</g>
</g>
<g>
<g transform="translate(388.03 37.5)">
<a href="StructureDefinition-AbnormalityCalcification-definitions.html#Observation.bodySite" target="_top">
<rect class="element" x="0" y="0" width="78.79" height="26.25" rx="3.75" ry="3.75" />
</a>
<a href="StructureDefinition-AbnormalityCalcification-definitions.html#Observation.bodySite" target="_top">
<text x="5.62" y="18.75" text-anchor="left" class="element">BodySite</text>
</a>
</g>
<line class="connector" marker-end="url(#arrowEnd)" x1="496.83" y1="50.62" x2="556.83" y2="50.62" />
<text x="500.58" y="46.88" text-anchor="right" class="lhsText">1..*</text>
<line class="connector" marker-start="url(#arrowStart)" x1="466.83" y1="50.62" x2="496.83" y2="50.62" />
<line class="connector" x1="496.83" y1="50.62" x2="496.83" y2="50.62" />
</g>
<g>
<g transform="translate(556.83 37.5)">
<a href="StructureDefinition-AbnormalityCalcification-definitions.html#Observation.bodySite.extension" target="_top">
<rect class="element" x="0" y="0" width="83.38" height="26.25" rx="3.75" ry="3.75" />
</a>
<a href="StructureDefinition-AbnormalityCalcification-definitions.html#Observation.bodySite.extension" target="_top">
<text x="5.62" y="18.75" text-anchor="left" class="element">extension</text>
</a>
</g>
<line class="connector" marker-end="url(#arrowEnd)" x1="670.21" y1="50.62" x2="700.21" y2="50.62" />
<line class="connector" marker-start="url(#arrowStart)" x1="640.21" y1="50.62" x2="670.21" y2="50.62" />
<line class="connector" x1="670.21" y1="50.62" x2="670.21" y2="50.62" />
</g>
<g>
<g transform="translate(700.21 37.5)">
<a href="StructureDefinition-BreastBodyLocationExtension.html" target="_top">
<rect class="extension" x="0" y="0" width="160.33" height="26.25" rx="3.75" ry="3.75" />
</a>
<a href="StructureDefinition-BreastBodyLocationExtension.html" target="_top">
<text x="5.62" y="18.75" text-anchor="left" class="extension">BreastBodyLocation</text>
</a>
</g>
</g>
<g>
<g transform="translate(388.03 71.25)">
<a href="StructureDefinition-AbnormalityCalcification-definitions.html#Observation.component" target="_top">
<rect class="element" x="0" y="0" width="106.26" height="26.25" rx="3.75" ry="3.75" />
</a>
<a href="StructureDefinition-AbnormalityCalcification-definitions.html#Observation.component" target="_top">
<text x="5.62" y="18.75" text-anchor="left" class="element">Components</text>
</a>
</g>
<line class="connector" marker-end="url(#arrowEnd)" x1="524.3" y1="84.38" x2="584.3" y2="84.38" />
<text x="528.05" y="80.62" text-anchor="right" class="lhsText">1..1</text>
<line class="connector" marker-end="url(#arrowEnd)" x1="524.3" y1="118.12" x2="584.3" y2="118.12" />
<text x="528.05" y="114.38" text-anchor="right" class="lhsText">0..*</text>
<line class="connector" marker-end="url(#arrowEnd)" x1="524.3" y1="151.88" x2="584.3" y2="151.88" />
<text x="528.05" y="148.12" text-anchor="right" class="lhsText">0..*</text>
<line class="connector" marker-end="url(#arrowEnd)" x1="524.3" y1="185.62" x2="584.3" y2="185.62" />
<text x="528.05" y="181.88" text-anchor="right" class="lhsText">0..*</text>
<line class="connector" marker-end="url(#arrowEnd)" x1="524.3" y1="219.38" x2="584.3" y2="219.38" />
<text x="528.05" y="215.62" text-anchor="right" class="lhsText">0..1</text>
<line class="connector" marker-end="url(#arrowEnd)" x1="524.3" y1="253.12" x2="584.3" y2="253.12" />
<text x="528.05" y="249.38" text-anchor="right" class="lhsText">0..*</text>
<line class="connector" marker-end="url(#arrowEnd)" x1="524.3" y1="286.88" x2="584.3" y2="286.88" />
<text x="528.05" y="283.12" text-anchor="right" class="lhsText">0..1</text>
<line class="connector" marker-end="url(#arrowEnd)" x1="524.3" y1="320.62" x2="584.3" y2="320.62" />
<text x="528.05" y="316.88" text-anchor="right" class="lhsText">0..3</text>
<line class="connector" marker-end="url(#arrowEnd)" x1="524.3" y1="363.75" x2="584.3" y2="363.75" />
<text x="528.05" y="360" text-anchor="right" class="lhsText">0..*</text>
<line class="connector" marker-start="url(#arrowStart)" x1="494.3" y1="84.38" x2="524.3" y2="84.38" />
<line class="connector" x1="524.3" y1="84.38" x2="524.3" y2="363.75" />
</g>
<g>
<g transform="translate(584.3 71.25)">
<a href="StructureDefinition-AbnormalityCalcification-definitions.html#Observation.component:calcificationType" target="_top">
<rect class="element" x="0" y="0" width="142.9" height="26.25" rx="3.75" ry="3.75" />
</a>
<a href="StructureDefinition-AbnormalityCalcification-definitions.html#Observation.component:calcificationType" target="_top">
<text x="5.62" y="18.75" text-anchor="left" class="element">Calcification Type</text>
</a>
</g>
<line class="connector" marker-end="url(#arrowEnd)" x1="757.2" y1="84.38" x2="817.2" y2="84.38" />
<text x="760.95" y="80.62" text-anchor="right" class="lhsText">bind</text>
<line class="connector" marker-start="url(#arrowStart)" x1="727.2" y1="84.38" x2="757.2" y2="84.38" />
<line class="connector" x1="757.2" y1="84.38" x2="757.2" y2="84.38" />
</g>
<g>
<g transform="translate(817.2 71.25)">
<a href="ValueSet-CalcificationTypeVS.html" target="_top">
<rect class="valueSet" x="0" y="0" width="160.31" height="26.25" rx="3.75" ry="3.75" />
</a>
<a href="ValueSet-CalcificationTypeVS.html" target="_top">
<text x="5.62" y="18.75" text-anchor="left" class="valueSet">CalcificationTypeVS</text>
</a>
</g>
</g>
<g>
<g transform="translate(584.3 105)">
<a href="StructureDefinition-AbnormalityCalcification-definitions.html#Observation.component:correspondsWith" target="_top">
<rect class="element" x="0" y="0" width="144.71" height="26.25" rx="3.75" ry="3.75" />
</a>
<a href="StructureDefinition-AbnormalityCalcification-definitions.html#Observation.component:correspondsWith" target="_top">
<text x="5.62" y="18.75" text-anchor="left" class="element">Corresponds With</text>
</a>
</g>
<line class="connector" marker-end="url(#arrowEnd)" x1="759.01" y1="118.12" x2="819.01" y2="118.12" />
<text x="762.76" y="114.38" text-anchor="right" class="lhsText">bind</text>
<line class="connector" marker-start="url(#arrowStart)" x1="729.01" y1="118.12" x2="759.01" y2="118.12" />
<line class="connector" x1="759.01" y1="118.12" x2="759.01" y2="118.12" />
</g>
<g>
<g transform="translate(819.01 105)">
<a href="ValueSet-CorrespondsWithVS.html" target="_top">
<rect class="valueSet" x="0" y="0" width="162.11" height="26.25" rx="3.75" ry="3.75" />
</a>
<a href="ValueSet-CorrespondsWithVS.html" target="_top">
<text x="5.62" y="18.75" text-anchor="left" class="valueSet">CorrespondsWithVS</text>
</a>
</g>
</g>
<g>
<g transform="translate(584.3 138.75)">
<a href="StructureDefinition-AbnormalityCalcification-definitions.html#Observation.component:notPreviouslySeen" target="_top">
<rect class="element" x="0" y="0" width="162.14" height="26.25" rx="3.75" ry="3.75" />
</a>
<a href="StructureDefinition-AbnormalityCalcification-definitions.html#Observation.component:notPreviouslySeen" target="_top">
<text x="5.62" y="18.75" text-anchor="left" class="element">Not Previously Seen</text>
</a>
</g>
<line class="connector" marker-end="url(#arrowEnd)" x1="776.43" y1="151.88" x2="836.43" y2="151.88" />
<text x="780.18" y="148.12" text-anchor="right" class="lhsText">bind</text>
<line class="connector" marker-start="url(#arrowStart)" x1="746.43" y1="151.88" x2="776.43" y2="151.88" />
<line class="connector" x1="776.43" y1="151.88" x2="776.43" y2="151.88" />
</g>
<g>
<g transform="translate(836.43 138.75)">
<a href="ValueSet-NotPreviouslySeenVS.html" target="_top">
<rect class="valueSet" x="0" y="0" width="174.97" height="26.25" rx="3.75" ry="3.75" />
</a>
<a href="ValueSet-NotPreviouslySeenVS.html" target="_top">
<text x="5.62" y="18.75" text-anchor="left" class="valueSet">NotPreviouslySeenVS</text>
</a>
</g>
</g>
<g>
<g transform="translate(584.3 172.5)">
<a href="StructureDefinition-AbnormalityCalcification-definitions.html#Observation.component:obsChanges" target="_top">
<rect class="element" x="0" y="0" width="154.82" height="26.25" rx="3.75" ry="3.75" />
</a>
<a href="StructureDefinition-AbnormalityCalcification-definitions.html#Observation.component:obsChanges" target="_top">
<text x="5.62" y="18.75" text-anchor="left" class="element">Observed Changes</text>
</a>
</g>
<line class="connector" marker-end="url(#arrowEnd)" x1="769.11" y1="185.62" x2="829.11" y2="185.62" />
<text x="772.86" y="181.88" text-anchor="right" class="lhsText">bind</text>
<line class="connector" marker-start="url(#arrowStart)" x1="739.11" y1="185.62" x2="769.11" y2="185.62" />
<line class="connector" x1="769.11" y1="185.62" x2="769.11" y2="185.62" />
</g>
<g>
<g transform="translate(829.11 172.5)">
<a href="ValueSet-ObservedChangesVS.html" target="_top">
<rect class="valueSet" x="0" y="0" width="172.22" height="26.25" rx="3.75" ry="3.75" />
</a>
<a href="ValueSet-ObservedChangesVS.html" target="_top">
<text x="5.62" y="18.75" text-anchor="left" class="valueSet">ObservedChangesVS</text>
</a>
</g>
</g>
<g>
<g transform="translate(584.3 206.25)">
<a href="StructureDefinition-AbnormalityCalcification-definitions.html#Observation.component:observedCount" target="_top">
<rect class="element" x="0" y="0" width="132.83" height="26.25" rx="3.75" ry="3.75" />
</a>
<a href="StructureDefinition-AbnormalityCalcification-definitions.html#Observation.component:observedCount" target="_top">
<text x="5.62" y="18.75" text-anchor="left" class="element">Observed Count</text>
</a>
</g>
</g>
<g>
<g transform="translate(584.3 240)">
<a href="StructureDefinition-AbnormalityCalcification-definitions.html#Observation.component:obsDistribution" target="_top">
<rect class="element" x="0" y="0" width="171.29" height="26.25" rx="3.75" ry="3.75" />
</a>
<a href="StructureDefinition-AbnormalityCalcification-definitions.html#Observation.component:obsDistribution" target="_top">
<text x="5.62" y="18.75" text-anchor="left" class="element">Observed Distribution</text>
</a>
</g>
<line class="connector" marker-end="url(#arrowEnd)" x1="785.58" y1="253.12" x2="845.58" y2="253.12" />
<text x="789.33" y="249.38" text-anchor="right" class="lhsText">bind</text>
<line class="connector" marker-start="url(#arrowStart)" x1="755.58" y1="253.12" x2="785.58" y2="253.12" />
<line class="connector" x1="785.58" y1="253.12" x2="785.58" y2="253.12" />
</g>
<g>
<g transform="translate(845.58 240)">
<a href="ValueSet-CalcificationDistributionVS.html" target="_top">
<rect class="valueSet" x="0" y="0" width="206.1" height="26.25" rx="3.75" ry="3.75" />
</a>
<a href="ValueSet-CalcificationDistributionVS.html" target="_top">
<text x="5.62" y="18.75" text-anchor="left" class="valueSet">CalcificationDistributionVS</text>
</a>
</g>
</g>
<g>
<g transform="translate(584.3 273.75)">
<a href="StructureDefinition-AbnormalityCalcification-definitions.html#Observation.component:obsDistRegionSize" target="_top">
<rect class="element" x="0" y="0" width="264.72" height="26.25" rx="3.75" ry="3.75" />
</a>
<a href="StructureDefinition-AbnormalityCalcification-definitions.html#Observation.component:obsDistRegionSize" target="_top">
<text x="5.62" y="18.75" text-anchor="left" class="element">Observed Distribution Region Size</text>
</a>
</g>
</g>
<g>
<g transform="translate(584.3 307.5)">
<a href="StructureDefinition-AbnormalityCalcification-definitions.html#Observation.component:obsSize" target="_top">
<rect class="element" x="0" y="0" width="120.92" height="26.25" rx="3.75" ry="3.75" />
</a>
<a href="StructureDefinition-AbnormalityCalcification-definitions.html#Observation.component:obsSize" target="_top">
<text x="5.62" y="18.75" text-anchor="left" class="element">Observed Size</text>
</a>
</g>
</g>
<g>
<g transform="translate(584.3 341.25)">
<a href="StructureDefinition-AbnormalityCalcification-definitions.html#Observation.component:prevDemBy" target="_top">
<rect class="element" x="0" y="0" width="138.31" height="45" rx="3.75" ry="3.75" />
</a>
<a href="StructureDefinition-AbnormalityCalcification-definitions.html#Observation.component:prevDemBy" target="_top">
<text x="5.62" y="18.75" text-anchor="left" class="element">Previously</text>
</a>
<a href="StructureDefinition-AbnormalityCalcification-definitions.html#Observation.component:prevDemBy" target="_top">
<text x="5.62" y="37.5" text-anchor="left" class="element">Demonstrated by</text>
</a>
</g>
<line class="connector" marker-end="url(#arrowEnd)" x1="752.61" y1="354.38" x2="812.61" y2="354.38" />
<text x="756.36" y="350.62" text-anchor="right" class="lhsText">bind</text>
<line class="connector" marker-start="url(#arrowStart)" x1="722.61" y1="363.75" x2="752.61" y2="363.75" />
<line class="connector" x1="752.61" y1="354.38" x2="752.61" y2="363.75" />
</g>
<g>
<g transform="translate(812.61 341.25)">
<a href="ValueSet-PreviouslyDemonstratedByVS.html" target="_top">
<rect class="valueSet" x="0" y="0" width="233.57" height="26.25" rx="3.75" ry="3.75" />
</a>
<a href="ValueSet-PreviouslyDemonstratedByVS.html" target="_top">
<text x="5.62" y="18.75" text-anchor="left" class="valueSet">PreviouslyDemonstratedByVS</text>
</a>
</g>
</g>
<g>
<g transform="translate(388.03 393.75)">
<a href="StructureDefinition-AbnormalityCalcification-definitions.html#Observation.hasMember" target="_top">
<rect class="element" x="0" y="0" width="102.57" height="26.25" rx="3.75" ry="3.75" />
</a>
<a href="StructureDefinition-AbnormalityCalcification-definitions.html#Observation.hasMember" target="_top">
<text x="5.62" y="18.75" text-anchor="left" class="element">HasMember</text>
</a>
</g>
<line class="connector" marker-end="url(#arrowEnd)" x1="520.6" y1="406.88" x2="580.6" y2="406.88" />
<text x="524.35" y="403.12" text-anchor="right" class="lhsText">0..1</text>
<line class="connector" marker-end="url(#arrowEnd)" x1="520.6" y1="440.62" x2="580.6" y2="440.62" />
<text x="524.35" y="436.88" text-anchor="right" class="lhsText">0..*</text>
<line class="connector" marker-end="url(#arrowEnd)" x1="520.6" y1="474.38" x2="580.6" y2="474.38" />
<text x="524.35" y="470.62" text-anchor="right" class="lhsText">0..*</text>
<line class="connector" marker-start="url(#arrowStart)" x1="490.6" y1="406.88" x2="520.6" y2="406.88" />
<line class="connector" x1="520.6" y1="406.88" x2="520.6" y2="474.38" />
</g>
<g>
<g transform="translate(580.6 393.75)">
<a href="StructureDefinition-BreastAssessmentCategory.html" target="_top">
<rect class="profile" x="0" y="0" width="226.23" height="26.25" rx="3.75" ry="3.75" />
</a>
<a href="StructureDefinition-BreastAssessmentCategory.html" target="_top">
<text x="5.62" y="18.75" text-anchor="left" class="profile">Breast Assessment Category</text>
</a>
</g>
</g>
<g>
<g transform="translate(580.6 427.5)">
<a href="StructureDefinition-AssociatedFeature.html" target="_top">
<rect class="profile" x="0" y="0" width="154.82" height="26.25" rx="3.75" ry="3.75" />
</a>
<a href="StructureDefinition-AssociatedFeature.html" target="_top">
<text x="5.62" y="18.75" text-anchor="left" class="profile">Associated Feature</text>
</a>
</g>
</g>
<g>
<g transform="translate(580.6 461.25)">
<a href="StructureDefinition-ConsistentWith.html" target="_top">
<rect class="profile" x="0" y="0" width="128.23" height="26.25" rx="3.75" ry="3.75" />
</a>
<a href="StructureDefinition-ConsistentWith.html" target="_top">
<text x="5.62" y="18.75" text-anchor="left" class="profile">Consistent With</text>
</a>
</g>
</g>
<g>
<g transform="translate(3.75 570)">
<rect class="focus" x="0" y="0" width="57.72" height="26.25" rx="3.75" ry="3.75" />
<text x="5.62" y="18.75" text-anchor="left" class="focus">Focus</text>
</g>
<g transform="translate(68.97 570)">
<rect class="profile" x="0" y="0" width="143.81" height="26.25" rx="3.75" ry="3.75" />
<text x="5.62" y="18.75" text-anchor="left" class="profile">Profiled Resource</text>
</g>
<g transform="translate(220.28 570)">
<rect class="extension" x="0" y="0" width="85.21" height="26.25" rx="3.75" ry="3.75" />
<text x="5.62" y="18.75" text-anchor="left" class="extension">Extension</text>
</g>
<g transform="translate(312.98 570)">
<rect class="element" x="0" y="0" width="148.39" height="26.25" rx="3.75" ry="3.75" />
<text x="5.62" y="18.75" text-anchor="left" class="element">Resource Element</text>
</g>
<g transform="translate(468.87 570)">
<rect class="valueSet" x="0" y="0" width="79.72" height="26.25" rx="3.75" ry="3.75" />
<text x="5.62" y="18.75" text-anchor="left" class="valueSet">ValueSet</text>
</g>
<g transform="translate(556.09 570)">
<rect class="value" x="0" y="0" width="54.98" height="26.25" rx="3.75" ry="3.75" />
<text x="5.62" y="18.75" text-anchor="left" class="value">Value</text>
</g>
</g>
</svg>
