<?xml version="1.0"?>
<?xml-stylesheet type="text/css" href="FocusGraph.css" ?>
<!DOCTYPE svg PUBLIC "-//W3C//DTD SVG 1.1//EN" "http://www.w3.org/Graphics/SVG/1.1/DTD/svg11.dtd">
<svg xmlns="http://www.w3.org/2000/svg" version="1.1" width="1087.2" height="678.75">
<defs>
<marker id="arrowStart" markerWidth="3.75" markerHeight="3.75" markerUnits="px" refX="1.88" refY="1.88">
<circle class="connector" cx="1.88" cy="1.88" r="1.88" />
</marker>
<marker id="arrowEnd" markerWidth="7.5" markerHeight="7.5" markerUnits="px" refX="7.5" refY="3.75">
<polygon class="connector" points="0 0 7.5 3.75 0 7.5" />
</marker>
</defs>
<g>
<g transform="translate(3.75 3.75)">
<a href="StructureDefinition-MGFinding.html" target="_top">
<rect class="profile" x="0" y="0" width="102.6" height="26.25" rx="3.75" ry="3.75" />
</a>
<a href="StructureDefinition-MGFinding.html" target="_top">
<text x="5.62" y="18.75" text-anchor="left" class="profile">Mg Findings</text>
</a>
</g>
<line class="connector" marker-end="url(#arrowEnd)" x1="136.35" y1="16.88" x2="196.35" y2="16.88" />
<text x="140.1" y="13.12" text-anchor="right" class="lhsText">0..*</text>
<line class="connector" marker-start="url(#arrowStart)" x1="106.35" y1="16.88" x2="136.35" y2="16.88" />
<line class="connector" x1="136.35" y1="16.88" x2="136.35" y2="16.88" />
</g>
<g>
<g transform="translate(196.35 3.75)">
<a href="StructureDefinition-AbnormalityFatNecrosis.html" target="_top">
<rect class="focus" x="0" y="0" width="105.33" height="26.25" rx="3.75" ry="3.75" />
</a>
<a href="StructureDefinition-AbnormalityFatNecrosis.html" target="_top">
<text x="5.62" y="18.75" text-anchor="left" class="focus">Fat Necrosis</text>
</a>
</g>
<line class="connector" marker-end="url(#arrowEnd)" x1="331.67" y1="16.88" x2="391.67" y2="16.88" />
<text x="335.42" y="13.12" text-anchor="right" class="lhsText">1..1</text>
<line class="connector" marker-end="url(#arrowEnd)" x1="331.67" y1="50.62" x2="391.67" y2="50.62" />
<text x="335.42" y="46.88" text-anchor="right" class="lhsText">0..*</text>
<line class="connector" marker-end="url(#arrowEnd)" x1="331.67" y1="474.38" x2="391.67" y2="474.38" />
<text x="335.42" y="470.62" text-anchor="right" class="lhsText">0..*</text>
<line class="connector" marker-start="url(#arrowStart)" x1="301.67" y1="16.88" x2="331.67" y2="16.88" />
<line class="connector" x1="331.67" y1="16.88" x2="331.67" y2="474.38" />
</g>
<g>
<g transform="translate(391.67 3.75)">
<a href="StructureDefinition-AbnormalityFatNecrosis-definitions.html#Observation.code" target="_top">
<rect class="element" x="0" y="0" width="52.22" height="26.25" rx="3.75" ry="3.75" />
</a>
<a href="StructureDefinition-AbnormalityFatNecrosis-definitions.html#Observation.code" target="_top">
<text x="5.62" y="18.75" text-anchor="left" class="element">Code</text>
</a>
</g>
<line class="connector" marker-end="url(#arrowEnd)" x1="473.9" y1="16.88" x2="593.9" y2="16.88" />
<text x="477.65" y="13.12" text-anchor="right" class="lhsText">pattern </text>
<line class="connector" marker-start="url(#arrowStart)" x1="443.9" y1="16.88" x2="473.9" y2="16.88" />
<line class="connector" x1="473.9" y1="16.88" x2="473.9" y2="16.88" />
</g>
<g>
<g transform="translate(593.9 3.75)">
<a href="CodeSystem-ObservationCodesCS.html" target="_top">
<rect class="value" x="0" y="0" width="443.32" height="26.25" rx="3.75" ry="3.75" />
</a>
<a href="CodeSystem-ObservationCodesCS.html" target="_top">
<text x="5.62" y="18.75" text-anchor="left" class="value">ObservationCodesCS#abnormalityFatNecrosisObservation</text>
</a>
</g>
</g>
<g>
<g transform="translate(391.67 37.5)">
<a href="StructureDefinition-AbnormalityFatNecrosis-definitions.html#Observation.component" target="_top">
<rect class="element" x="0" y="0" width="106.26" height="26.25" rx="3.75" ry="3.75" />
</a>
<a href="StructureDefinition-AbnormalityFatNecrosis-definitions.html#Observation.component" target="_top">
<text x="5.62" y="18.75" text-anchor="left" class="element">Components</text>
</a>
</g>
<line class="connector" marker-end="url(#arrowEnd)" x1="527.94" y1="50.62" x2="587.94" y2="50.62" />
<text x="531.69" y="46.88" text-anchor="right" class="lhsText">0..*</text>
<line class="connector" marker-end="url(#arrowEnd)" x1="527.94" y1="84.38" x2="587.94" y2="84.38" />
<text x="531.69" y="80.62" text-anchor="right" class="lhsText">0..1</text>
<line class="connector" marker-end="url(#arrowEnd)" x1="527.94" y1="118.12" x2="587.94" y2="118.12" />
<text x="531.69" y="114.38" text-anchor="right" class="lhsText">0..1</text>
<line class="connector" marker-end="url(#arrowEnd)" x1="527.94" y1="151.88" x2="587.94" y2="151.88" />
<text x="531.69" y="148.12" text-anchor="right" class="lhsText">0..*</text>
<line class="connector" marker-end="url(#arrowEnd)" x1="527.94" y1="185.62" x2="587.94" y2="185.62" />
<text x="531.69" y="181.88" text-anchor="right" class="lhsText">0..*</text>
<line class="connector" marker-end="url(#arrowEnd)" x1="527.94" y1="219.38" x2="587.94" y2="219.38" />
<text x="531.69" y="215.62" text-anchor="right" class="lhsText">0..1</text>
<line class="connector" marker-end="url(#arrowEnd)" x1="527.94" y1="253.12" x2="587.94" y2="253.12" />
<text x="531.69" y="249.38" text-anchor="right" class="lhsText">0..*</text>
<line class="connector" marker-end="url(#arrowEnd)" x1="527.94" y1="286.88" x2="587.94" y2="286.88" />
<text x="531.69" y="283.12" text-anchor="right" class="lhsText">0..1</text>
<line class="connector" marker-end="url(#arrowEnd)" x1="527.94" y1="320.62" x2="587.94" y2="320.62" />
<text x="531.69" y="316.88" text-anchor="right" class="lhsText">0..3</text>
<line class="connector" marker-end="url(#arrowEnd)" x1="527.94" y1="354.38" x2="587.94" y2="354.38" />
<text x="531.69" y="350.62" text-anchor="right" class="lhsText">0..1</text>
<line class="connector" marker-end="url(#arrowEnd)" x1="527.94" y1="397.5" x2="587.94" y2="397.5" />
<text x="531.69" y="393.75" text-anchor="right" class="lhsText">0..*</text>
<line class="connector" marker-end="url(#arrowEnd)" x1="527.94" y1="440.62" x2="587.94" y2="440.62" />
<text x="531.69" y="436.88" text-anchor="right" class="lhsText">0..1</text>
<line class="connector" marker-start="url(#arrowStart)" x1="497.94" y1="50.62" x2="527.94" y2="50.62" />
<line class="connector" x1="527.94" y1="50.62" x2="527.94" y2="440.62" />
</g>
<g>
<g transform="translate(587.94 37.5)">
<a href="StructureDefinition-AbnormalityFatNecrosis-definitions.html#Observation.component:correspondsWith" target="_top">
<rect class="element" x="0" y="0" width="144.71" height="26.25" rx="3.75" ry="3.75" />
</a>
<a href="StructureDefinition-AbnormalityFatNecrosis-definitions.html#Observation.component:correspondsWith" target="_top">
<text x="5.62" y="18.75" text-anchor="left" class="element">Corresponds With</text>
</a>
</g>
<line class="connector" marker-end="url(#arrowEnd)" x1="762.65" y1="50.62" x2="822.65" y2="50.62" />
<text x="766.4" y="46.88" text-anchor="right" class="lhsText">bind</text>
<line class="connector" marker-start="url(#arrowStart)" x1="732.65" y1="50.62" x2="762.65" y2="50.62" />
<line class="connector" x1="762.65" y1="50.62" x2="762.65" y2="50.62" />
</g>
<g>
<g transform="translate(822.65 37.5)">
<a href="ValueSet-CorrespondsWithVS.html" target="_top">
<rect class="valueSet" x="0" y="0" width="162.11" height="26.25" rx="3.75" ry="3.75" />
</a>
<a href="ValueSet-CorrespondsWithVS.html" target="_top">
<text x="5.62" y="18.75" text-anchor="left" class="valueSet">CorrespondsWithVS</text>
</a>
</g>
</g>
<g>
<g transform="translate(587.94 71.25)">
<a href="StructureDefinition-AbnormalityFatNecrosis-definitions.html#Observation.component:density" target="_top">
<rect class="element" x="0" y="0" width="67.79" height="26.25" rx="3.75" ry="3.75" />
</a>
<a href="StructureDefinition-AbnormalityFatNecrosis-definitions.html#Observation.component:density" target="_top">
<text x="5.62" y="18.75" text-anchor="left" class="element">Density</text>
</a>
</g>
<line class="connector" marker-end="url(#arrowEnd)" x1="685.72" y1="84.38" x2="745.72" y2="84.38" />
<text x="689.47" y="80.62" text-anchor="right" class="lhsText">bind</text>
<line class="connector" marker-start="url(#arrowStart)" x1="655.72" y1="84.38" x2="685.72" y2="84.38" />
<line class="connector" x1="685.72" y1="84.38" x2="685.72" y2="84.38" />
</g>
<g>
<g transform="translate(745.72 71.25)">
<a href="ValueSet-LesionDensityVS.html" target="_top">
<rect class="valueSet" x="0" y="0" width="138.33" height="26.25" rx="3.75" ry="3.75" />
</a>
<a href="ValueSet-LesionDensityVS.html" target="_top">
<text x="5.62" y="18.75" text-anchor="left" class="valueSet">LesionDensityVS</text>
</a>
</g>
</g>
<g>
<g transform="translate(587.94 105)">
<a href="StructureDefinition-AbnormalityFatNecrosis-definitions.html#Observation.component:margin" target="_top">
<rect class="element" x="0" y="0" width="63.2" height="26.25" rx="3.75" ry="3.75" />
</a>
<a href="StructureDefinition-AbnormalityFatNecrosis-definitions.html#Observation.component:margin" target="_top">
<text x="5.62" y="18.75" text-anchor="left" class="element">Margin</text>
</a>
</g>
<line class="connector" marker-end="url(#arrowEnd)" x1="681.14" y1="118.12" x2="741.14" y2="118.12" />
<text x="684.89" y="114.38" text-anchor="right" class="lhsText">bind</text>
<line class="connector" marker-start="url(#arrowStart)" x1="651.14" y1="118.12" x2="681.14" y2="118.12" />
<line class="connector" x1="681.14" y1="118.12" x2="681.14" y2="118.12" />
</g>
<g>
<g transform="translate(741.14 105)">
<a href="ValueSet-MarginVS.html" target="_top">
<rect class="valueSet" x="0" y="0" width="85.18" height="26.25" rx="3.75" ry="3.75" />
</a>
<a href="ValueSet-MarginVS.html" target="_top">
<text x="5.62" y="18.75" text-anchor="left" class="valueSet">MarginVS</text>
</a>
</g>
</g>
<g>
<g transform="translate(587.94 138.75)">
<a href="StructureDefinition-AbnormalityFatNecrosis-definitions.html#Observation.component:notPreviouslySeen" target="_top">
<rect class="element" x="0" y="0" width="162.14" height="26.25" rx="3.75" ry="3.75" />
</a>
<a href="StructureDefinition-AbnormalityFatNecrosis-definitions.html#Observation.component:notPreviouslySeen" target="_top">
<text x="5.62" y="18.75" text-anchor="left" class="element">Not Previously Seen</text>
</a>
</g>
<line class="connector" marker-end="url(#arrowEnd)" x1="780.08" y1="151.88" x2="840.08" y2="151.88" />
<text x="783.83" y="148.12" text-anchor="right" class="lhsText">bind</text>
<line class="connector" marker-start="url(#arrowStart)" x1="750.08" y1="151.88" x2="780.08" y2="151.88" />
<line class="connector" x1="780.08" y1="151.88" x2="780.08" y2="151.88" />
</g>
<g>
<g transform="translate(840.08 138.75)">
<a href="ValueSet-NotPreviouslySeenVS.html" target="_top">
<rect class="valueSet" x="0" y="0" width="174.97" height="26.25" rx="3.75" ry="3.75" />
</a>
<a href="ValueSet-NotPreviouslySeenVS.html" target="_top">
<text x="5.62" y="18.75" text-anchor="left" class="valueSet">NotPreviouslySeenVS</text>
</a>
</g>
</g>
<g>
<g transform="translate(587.94 172.5)">
<a href="StructureDefinition-AbnormalityFatNecrosis-definitions.html#Observation.component:obsChanges" target="_top">
<rect class="element" x="0" y="0" width="154.82" height="26.25" rx="3.75" ry="3.75" />
</a>
<a href="StructureDefinition-AbnormalityFatNecrosis-definitions.html#Observation.component:obsChanges" target="_top">
<text x="5.62" y="18.75" text-anchor="left" class="element">Observed Changes</text>
</a>
</g>
<line class="connector" marker-end="url(#arrowEnd)" x1="772.76" y1="185.62" x2="832.76" y2="185.62" />
<text x="776.51" y="181.88" text-anchor="right" class="lhsText">bind</text>
<line class="connector" marker-start="url(#arrowStart)" x1="742.76" y1="185.62" x2="772.76" y2="185.62" />
<line class="connector" x1="772.76" y1="185.62" x2="772.76" y2="185.62" />
</g>
<g>
<g transform="translate(832.76 172.5)">
<a href="ValueSet-ObservedChangesVS.html" target="_top">
<rect class="valueSet" x="0" y="0" width="172.22" height="26.25" rx="3.75" ry="3.75" />
</a>
<a href="ValueSet-ObservedChangesVS.html" target="_top">
<text x="5.62" y="18.75" text-anchor="left" class="valueSet">ObservedChangesVS</text>
</a>
</g>
</g>
<g>
<g transform="translate(587.94 206.25)">
<a href="StructureDefinition-AbnormalityFatNecrosis-definitions.html#Observation.component:observedCount" target="_top">
<rect class="element" x="0" y="0" width="132.83" height="26.25" rx="3.75" ry="3.75" />
</a>
<a href="StructureDefinition-AbnormalityFatNecrosis-definitions.html#Observation.component:observedCount" target="_top">
<text x="5.62" y="18.75" text-anchor="left" class="element">Observed Count</text>
</a>
</g>
</g>
<g>
<g transform="translate(587.94 240)">
<a href="StructureDefinition-AbnormalityFatNecrosis-definitions.html#Observation.component:obsDistribution" target="_top">
<rect class="element" x="0" y="0" width="171.29" height="26.25" rx="3.75" ry="3.75" />
</a>
<a href="StructureDefinition-AbnormalityFatNecrosis-definitions.html#Observation.component:obsDistribution" target="_top">
<text x="5.62" y="18.75" text-anchor="left" class="element">Observed Distribution</text>
</a>
</g>
<line class="connector" marker-end="url(#arrowEnd)" x1="789.22" y1="253.12" x2="849.22" y2="253.12" />
<text x="792.97" y="249.38" text-anchor="right" class="lhsText">bind</text>
<line class="connector" marker-start="url(#arrowStart)" x1="759.22" y1="253.12" x2="789.22" y2="253.12" />
<line class="connector" x1="789.22" y1="253.12" x2="789.22" y2="253.12" />
</g>
<g>
<g transform="translate(849.22 240)">
<a href="ValueSet-CalcificationDistributionVS.html" target="_top">
<rect class="valueSet" x="0" y="0" width="206.1" height="26.25" rx="3.75" ry="3.75" />
</a>
<a href="ValueSet-CalcificationDistributionVS.html" target="_top">
<text x="5.62" y="18.75" text-anchor="left" class="valueSet">CalcificationDistributionVS</text>
</a>
</g>
</g>
<g>
<g transform="translate(587.94 273.75)">
<a href="StructureDefinition-AbnormalityFatNecrosis-definitions.html#Observation.component:obsDistRegionSize" target="_top">
<rect class="element" x="0" y="0" width="264.72" height="26.25" rx="3.75" ry="3.75" />
</a>
<a href="StructureDefinition-AbnormalityFatNecrosis-definitions.html#Observation.component:obsDistRegionSize" target="_top">
<text x="5.62" y="18.75" text-anchor="left" class="element">Observed Distribution Region Size</text>
</a>
</g>
</g>
<g>
<g transform="translate(587.94 307.5)">
<a href="StructureDefinition-AbnormalityFatNecrosis-definitions.html#Observation.component:obsSize" target="_top">
<rect class="element" x="0" y="0" width="120.92" height="26.25" rx="3.75" ry="3.75" />
</a>
<a href="StructureDefinition-AbnormalityFatNecrosis-definitions.html#Observation.component:obsSize" target="_top">
<text x="5.62" y="18.75" text-anchor="left" class="element">Observed Size</text>
</a>
</g>
</g>
<g>
<g transform="translate(587.94 341.25)">
<a href="StructureDefinition-AbnormalityFatNecrosis-definitions.html#Observation.component:orientation" target="_top">
<rect class="element" x="0" y="0" width="93.44" height="26.25" rx="3.75" ry="3.75" />
</a>
<a href="StructureDefinition-AbnormalityFatNecrosis-definitions.html#Observation.component:orientation" target="_top">
<text x="5.62" y="18.75" text-anchor="left" class="element">Orientation</text>
</a>
</g>
<line class="connector" marker-end="url(#arrowEnd)" x1="711.38" y1="354.38" x2="771.38" y2="354.38" />
<text x="715.13" y="350.62" text-anchor="right" class="lhsText">bind</text>
<line class="connector" marker-start="url(#arrowStart)" x1="681.38" y1="354.38" x2="711.38" y2="354.38" />
<line class="connector" x1="711.38" y1="354.38" x2="711.38" y2="354.38" />
</g>
<g>
<g transform="translate(771.38 341.25)">
<a href="ValueSet-OrientationVS.html" target="_top">
<rect class="valueSet" x="0" y="0" width="115.43" height="26.25" rx="3.75" ry="3.75" />
</a>
<a href="ValueSet-OrientationVS.html" target="_top">
<text x="5.62" y="18.75" text-anchor="left" class="valueSet">OrientationVS</text>
</a>
</g>
</g>
<g>
<g transform="translate(587.94 375)">
<a href="StructureDefinition-AbnormalityFatNecrosis-definitions.html#Observation.component:prevDemBy" target="_top">
<rect class="element" x="0" y="0" width="138.31" height="45" rx="3.75" ry="3.75" />
</a>
<a href="StructureDefinition-AbnormalityFatNecrosis-definitions.html#Observation.component:prevDemBy" target="_top">
<text x="5.62" y="18.75" text-anchor="left" class="element">Previously</text>
</a>
<a href="StructureDefinition-AbnormalityFatNecrosis-definitions.html#Observation.component:prevDemBy" target="_top">
<text x="5.62" y="37.5" text-anchor="left" class="element">Demonstrated by</text>
</a>
</g>
<line class="connector" marker-end="url(#arrowEnd)" x1="756.25" y1="388.12" x2="816.25" y2="388.12" />
<text x="760" y="384.38" text-anchor="right" class="lhsText">bind</text>
<line class="connector" marker-start="url(#arrowStart)" x1="726.25" y1="397.5" x2="756.25" y2="397.5" />
<line class="connector" x1="756.25" y1="388.12" x2="756.25" y2="397.5" />
</g>
<g>
<g transform="translate(816.25 375)">
<a href="ValueSet-PreviouslyDemonstratedByVS.html" target="_top">
<rect class="valueSet" x="0" y="0" width="233.57" height="26.25" rx="3.75" ry="3.75" />
</a>
<a href="ValueSet-PreviouslyDemonstratedByVS.html" target="_top">
<text x="5.62" y="18.75" text-anchor="left" class="valueSet">PreviouslyDemonstratedByVS</text>
</a>
</g>
</g>
<g>
<g transform="translate(587.94 427.5)">
<a href="StructureDefinition-AbnormalityFatNecrosis-definitions.html#Observation.component:shape" target="_top">
<rect class="element" x="0" y="0" width="60.48" height="26.25" rx="3.75" ry="3.75" />
</a>
<a href="StructureDefinition-AbnormalityFatNecrosis-definitions.html#Observation.component:shape" target="_top">
<text x="5.62" y="18.75" text-anchor="left" class="element">Shape</text>
</a>
</g>
<line class="connector" marker-end="url(#arrowEnd)" x1="678.42" y1="440.62" x2="738.42" y2="440.62" />
<text x="682.17" y="436.88" text-anchor="right" class="lhsText">bind</text>
<line class="connector" marker-start="url(#arrowStart)" x1="648.42" y1="440.62" x2="678.42" y2="440.62" />
<line class="connector" x1="678.42" y1="440.62" x2="678.42" y2="440.62" />
</g>
<g>
<g transform="translate(738.42 427.5)">
<a href="ValueSet-ShapeVS.html" target="_top">
<rect class="valueSet" x="0" y="0" width="82.47" height="26.25" rx="3.75" ry="3.75" />
</a>
<a href="ValueSet-ShapeVS.html" target="_top">
<text x="5.62" y="18.75" text-anchor="left" class="valueSet">ShapeVS</text>
</a>
</g>
</g>
<g>
<g transform="translate(391.67 461.25)">
<a href="StructureDefinition-AbnormalityFatNecrosis-definitions.html#Observation.hasMember" target="_top">
<rect class="element" x="0" y="0" width="102.57" height="26.25" rx="3.75" ry="3.75" />
</a>
<a href="StructureDefinition-AbnormalityFatNecrosis-definitions.html#Observation.hasMember" target="_top">
<text x="5.62" y="18.75" text-anchor="left" class="element">HasMember</text>
</a>
</g>
<line class="connector" marker-end="url(#arrowEnd)" x1="524.24" y1="474.38" x2="584.24" y2="474.38" />
<text x="527.99" y="470.62" text-anchor="right" class="lhsText">0..1</text>
<line class="connector" marker-end="url(#arrowEnd)" x1="524.24" y1="508.12" x2="584.24" y2="508.12" />
<text x="527.99" y="504.38" text-anchor="right" class="lhsText">0..*</text>
<line class="connector" marker-end="url(#arrowEnd)" x1="524.24" y1="541.88" x2="584.24" y2="541.88" />
<text x="527.99" y="538.12" text-anchor="right" class="lhsText">0..*</text>
<line class="connector" marker-start="url(#arrowStart)" x1="494.24" y1="474.38" x2="524.24" y2="474.38" />
<line class="connector" x1="524.24" y1="474.38" x2="524.24" y2="541.88" />
</g>
<g>
<g transform="translate(584.24 461.25)">
<a href="StructureDefinition-BreastAssessmentCategory.html" target="_top">
<rect class="profile" x="0" y="0" width="226.23" height="26.25" rx="3.75" ry="3.75" />
</a>
<a href="StructureDefinition-BreastAssessmentCategory.html" target="_top">
<text x="5.62" y="18.75" text-anchor="left" class="profile">Breast Assessment Category</text>
</a>
</g>
</g>
<g>
<g transform="translate(584.24 495)">
<a href="StructureDefinition-AssociatedFeature.html" target="_top">
<rect class="profile" x="0" y="0" width="154.82" height="26.25" rx="3.75" ry="3.75" />
</a>
<a href="StructureDefinition-AssociatedFeature.html" target="_top">
<text x="5.62" y="18.75" text-anchor="left" class="profile">Associated Feature</text>
</a>
</g>
</g>
<g>
<g transform="translate(584.24 528.75)">
<a href="StructureDefinition-ConsistentWith.html" target="_top">
<rect class="profile" x="0" y="0" width="128.23" height="26.25" rx="3.75" ry="3.75" />
</a>
<a href="StructureDefinition-ConsistentWith.html" target="_top">
<text x="5.62" y="18.75" text-anchor="left" class="profile">Consistent With</text>
</a>
</g>
</g>
<g>
<g transform="translate(3.75 637.5)">
<rect class="focus" x="0" y="0" width="57.72" height="26.25" rx="3.75" ry="3.75" />
<text x="5.62" y="18.75" text-anchor="left" class="focus">Focus</text>
</g>
<g transform="translate(68.97 637.5)">
<rect class="profile" x="0" y="0" width="143.81" height="26.25" rx="3.75" ry="3.75" />
<text x="5.62" y="18.75" text-anchor="left" class="profile">Profiled Resource</text>
</g>
<g transform="translate(220.28 637.5)">
<rect class="element" x="0" y="0" width="148.39" height="26.25" rx="3.75" ry="3.75" />
<text x="5.62" y="18.75" text-anchor="left" class="element">Resource Element</text>
</g>
<g transform="translate(376.16 637.5)">
<rect class="valueSet" x="0" y="0" width="79.72" height="26.25" rx="3.75" ry="3.75" />
<text x="5.62" y="18.75" text-anchor="left" class="valueSet">ValueSet</text>
</g>
<g transform="translate(463.38 637.5)">
<rect class="value" x="0" y="0" width="54.98" height="26.25" rx="3.75" ry="3.75" />
<text x="5.62" y="18.75" text-anchor="left" class="value">Value</text>
</g>
</g>
</svg>
