<?xml version="1.0"?>
<!DOCTYPE svg PUBLIC "-//W3C//DTD SVG 1.1//EN" "http://www.w3.org/Graphics/SVG/1.1/DTD/svg11.dtd">
<svg xmlns="http://www.w3.org/2000/svg" version="1.1" width="1309.4999" height="1061.25">
<defs>
<marker id="arrowStart" markerWidth="3.75" markerHeight="3.75" markerUnits="px" refX="1.875" refY="1.875">
<circle fill="Black" stroke-width="0" cx="1.875" cy="1.875" r="1.875" />
</marker>
<marker id="arrowEnd" markerWidth="7.5" markerHeight="7.5" markerUnits="px" refX="7.5" refY="3.75">
<polygon fill="Black" stroke-width="0" points="0 0 7.5 3.75 0 7.5" />
</marker>
</defs>
<g>
<g transform="translate(7.5 7.5)">
<a href="./StructureDefinition-MGFinding.html" target="_top">
<rect fill="LightCyan" stroke="Black" stroke-width="1.875" x="0" y="0" width="120" height="33.75" rx="3.75" ry="3.75" />
</a>
<a href="./StructureDefinition-MGFinding.html" target="_top">
<text x="60" y="22.5" text-anchor="middle">MG Finding</text>
</a>
</g>
<line stroke="Black" stroke-width="1.875" marker-end="url(#arrowEnd)" x1="172.5" y1="24.375" x2="217.5" y2="24.375" />
<text x="176.25" y="20.625" text-anchor="left"></text>
<line stroke="Black" stroke-width="1.875" marker-start="url(#arrowStart)" x1="127.5" y1="24.375" x2="172.5" y2="24.375" />
<text x="131.25" y="20.625" text-anchor="left">0..*</text>
<line stroke="Black" stroke-width="1.875" x1="172.5" y1="24.375" x2="172.5" y2="24.375" />
</g>
<g>
<g transform="translate(217.5 7.5)">
<rect fill="White" stroke="Black" stroke-width="1.875" x="0" y="0" width="120" height="33.75" rx="3.75" ry="3.75" />
<text x="60" y="22.5" text-anchor="middle">MG Density</text>
</g>
<line stroke="Black" stroke-width="1.875" marker-end="url(#arrowEnd)" x1="382.5" y1="33.75" x2="427.5" y2="33.75" />
<text x="386.25" y="30" text-anchor="left">0..1</text>
<line stroke="Black" stroke-width="1.875" marker-end="url(#arrowEnd)" x1="382.5" y1="93.75" x2="427.5" y2="93.75" />
<text x="386.25" y="90" text-anchor="left">0..*</text>
<line stroke="Black" stroke-width="1.875" marker-end="url(#arrowEnd)" x1="382.5" y1="153.75" x2="427.5" y2="153.75" />
<text x="386.25" y="150" text-anchor="left">1..1</text>
<line stroke="Black" stroke-width="1.875" marker-end="url(#arrowEnd)" x1="382.5" y1="213.75" x2="427.5" y2="213.75" />
<text x="386.25" y="210" text-anchor="left">0..*</text>
<line stroke="Black" stroke-width="1.875" marker-end="url(#arrowEnd)" x1="382.5" y1="292.5" x2="427.5" y2="292.5" />
<text x="386.25" y="288.75" text-anchor="left">0..1</text>
<line stroke="Black" stroke-width="1.875" marker-end="url(#arrowEnd)" x1="382.5" y1="352.5" x2="427.5" y2="352.5" />
<text x="386.25" y="348.75" text-anchor="left">0..1</text>
<line stroke="Black" stroke-width="1.875" marker-end="url(#arrowEnd)" x1="382.5" y1="412.5" x2="427.5" y2="412.5" />
<text x="386.25" y="408.75" text-anchor="left">0..1</text>
<line stroke="Black" stroke-width="1.875" marker-end="url(#arrowEnd)" x1="382.5" y1="472.5" x2="427.5" y2="472.5" />
<text x="386.25" y="468.75" text-anchor="left">0..1</text>
<line stroke="Black" stroke-width="1.875" marker-end="url(#arrowEnd)" x1="382.5" y1="532.5" x2="427.5" y2="532.5" />
<text x="386.25" y="528.75" text-anchor="left">0..1</text>
<line stroke="Black" stroke-width="1.875" marker-end="url(#arrowEnd)" x1="382.5" y1="592.5" x2="427.5" y2="592.5" />
<text x="386.25" y="588.75" text-anchor="left">0..*</text>
<line stroke="Black" stroke-width="1.875" marker-end="url(#arrowEnd)" x1="382.5" y1="652.5" x2="427.5" y2="652.5" />
<text x="386.25" y="648.75" text-anchor="left">0..1</text>
<line stroke="Black" stroke-width="1.875" marker-end="url(#arrowEnd)" x1="382.5" y1="712.5" x2="427.5" y2="712.5" />
<text x="386.25" y="708.75" text-anchor="left">0..3</text>
<line stroke="Black" stroke-width="1.875" marker-end="url(#arrowEnd)" x1="382.5" y1="772.5" x2="427.5" y2="772.5" />
<text x="386.25" y="768.75" text-anchor="left">0..*</text>
<line stroke="Black" stroke-width="1.875" marker-end="url(#arrowEnd)" x1="382.5" y1="832.5" x2="427.5" y2="832.5" />
<text x="386.25" y="828.75" text-anchor="left">0..3</text>
<line stroke="Black" stroke-width="1.875" marker-end="url(#arrowEnd)" x1="382.5" y1="892.5" x2="427.5" y2="892.5" />
<text x="386.25" y="888.75" text-anchor="left">0..*</text>
<line stroke="Black" stroke-width="1.875" marker-end="url(#arrowEnd)" x1="382.5" y1="952.5" x2="427.5" y2="952.5" />
<text x="386.25" y="948.75" text-anchor="left">0..*</text>
<line stroke="Black" stroke-width="1.875" marker-end="url(#arrowEnd)" x1="382.5" y1="1012.5" x2="427.5" y2="1012.5" />
<text x="386.25" y="1008.75" text-anchor="left">1..1</text>
<line stroke="Black" stroke-width="1.875" marker-start="url(#arrowStart)" x1="337.5" y1="24.375" x2="382.5" y2="24.375" />
<text x="341.25" y="20.625" text-anchor="left"></text>
<line stroke="Black" stroke-width="1.875" x1="382.5" y1="24.375" x2="382.5" y2="1012.5" />
</g>
<g>
<g transform="translate(427.5 7.5)">
<a href="./StructureDefinition-AssociatedFeatures.html" target="_top">
<rect fill="LightCyan" stroke="Black" stroke-width="1.875" x="0" y="0" width="120" height="52.5" rx="3.75" ry="3.75" />
</a>
<a href="./StructureDefinition-AssociatedFeatures.html" target="_top">
<text x="60" y="22.5" text-anchor="middle">Associated</text>
</a>
<a href="./StructureDefinition-AssociatedFeatures.html" target="_top">
<text x="60" y="41.25" text-anchor="middle">Features</text>
</a>
</g>
</g>
<g>
<g transform="translate(427.5 67.5)">
<a href="./StructureDefinition-ConsistentWith.html" target="_top">
<rect fill="LightCyan" stroke="Black" stroke-width="1.875" x="0" y="0" width="120" height="52.5" rx="3.75" ry="3.75" />
</a>
<a href="./StructureDefinition-ConsistentWith.html" target="_top">
<text x="60" y="22.5" text-anchor="middle">Consistent</text>
</a>
<a href="./StructureDefinition-ConsistentWith.html" target="_top">
<text x="60" y="41.25" text-anchor="middle">With</text>
</a>
</g>
</g>
<g>
<g transform="translate(427.5 127.5)">
<a href="StructureDefinition-MGAbnormalityDensity-definitions.html#Observation.component:densityType" target="_top">
<rect fill="LightYellow" stroke="Black" stroke-width="1.875" x="0" y="0" width="172.5" height="52.5" rx="3.75" ry="3.75" />
</a>
<a href="StructureDefinition-MGAbnormalityDensity-definitions.html#Observation.component:densityType" target="_top">
<text x="86.25" y="22.5" text-anchor="middle">Density Type</text>
</a>
<a href="StructureDefinition-MGAbnormalityDensity-definitions.html#Observation.component:densityType" target="_top">
<text x="86.25" y="41.25" text-anchor="middle">CodeableConcept</text>
</a>
</g>
<line stroke="Black" stroke-width="1.875" marker-end="url(#arrowEnd)" x1="645" y1="153.75" x2="690" y2="153.75" />
<text x="648.75" y="150" text-anchor="left">1..1</text>
<line stroke="Black" stroke-width="1.875" marker-start="url(#arrowStart)" x1="600" y1="153.75" x2="645" y2="153.75" />
<text x="603.75" y="150" text-anchor="left"></text>
<line stroke="Black" stroke-width="1.875" x1="645" y1="153.75" x2="645" y2="153.75" />
</g>
<g>
<g transform="translate(690 127.5)">
<a href="./ValueSet-MGAbnormalityDensityTypeVS.html" target="_top">
<rect fill="LightGreen" stroke="Black" stroke-width="1.875" x="0" y="0" width="172.5" height="52.5" rx="3.75" ry="3.75" />
</a>
<a href="./ValueSet-MGAbnormalityDensityTypeVS.html" target="_top">
<text x="86.25" y="22.5" text-anchor="middle">MG Density Type</text>
</a>
<a href="./ValueSet-MGAbnormalityDensityTypeVS.html" target="_top">
<text x="86.25" y="41.25" text-anchor="middle">ValueSet</text>
</a>
</g>
</g>
<g>
<g transform="translate(427.5 187.5)">
<a href="StructureDefinition-MGAbnormalityDensity-definitions.html#Observation.component:obsChanges" target="_top">
<rect fill="LightYellow" stroke="Black" stroke-width="1.875" x="0" y="0" width="330" height="52.5" rx="3.75" ry="3.75" />
</a>
<a href="StructureDefinition-MGAbnormalityDensity-definitions.html#Observation.component:obsChanges" target="_top">
<text x="165" y="22.5" text-anchor="middle">Observed Change In Abnormality</text>
</a>
<a href="StructureDefinition-MGAbnormalityDensity-definitions.html#Observation.component:obsChanges" target="_top">
<text x="165" y="41.25" text-anchor="middle">CodeableConcept</text>
</a>
</g>
<line stroke="Black" stroke-width="1.875" marker-end="url(#arrowEnd)" x1="802.5" y1="223.125" x2="847.5" y2="223.125" />
<text x="806.25" y="219.375" text-anchor="left">0..*</text>
<line stroke="Black" stroke-width="1.875" marker-start="url(#arrowStart)" x1="757.5" y1="213.75" x2="802.5" y2="213.75" />
<text x="761.25" y="210" text-anchor="left"></text>
<line stroke="Black" stroke-width="1.875" x1="802.5" y1="213.75" x2="802.5" y2="223.125" />
</g>
<g>
<g transform="translate(847.5 187.5)">
<a href="./ValueSet-ObservedChangesVS.html" target="_top">
<rect fill="LightGreen" stroke="Black" stroke-width="1.875" x="0" y="0" width="99" height="71.25" rx="3.75" ry="3.75" />
</a>
<a href="./ValueSet-ObservedChangesVS.html" target="_top">
<text x="49.5" y="22.5" text-anchor="middle">Observed</text>
</a>
<a href="./ValueSet-ObservedChangesVS.html" target="_top">
<text x="49.5" y="41.25" text-anchor="middle">Change</text>
</a>
<a href="./ValueSet-ObservedChangesVS.html" target="_top">
<text x="49.5" y="60" text-anchor="middle">ValueSet</text>
</a>
</g>
</g>
<g>
<g transform="translate(427.5 266.25)">
<a href="StructureDefinition-MGAbnormalityDensity-definitions.html#Observation.component:biRadsAssessmentCategory" target="_top">
<rect fill="LightYellow" stroke="Black" stroke-width="1.875" x="0" y="0" width="287.99997" height="52.5" rx="3.75" ry="3.75" />
</a>
<a href="StructureDefinition-MGAbnormalityDensity-definitions.html#Observation.component:biRadsAssessmentCategory" target="_top">
<text x="143.99998" y="22.5" text-anchor="middle">BiRads Assessment Category</text>
</a>
<a href="StructureDefinition-MGAbnormalityDensity-definitions.html#Observation.component:biRadsAssessmentCategory" target="_top">
<text x="143.99998" y="41.25" text-anchor="middle">CodeableConcept</text>
</a>
</g>
<line stroke="Black" stroke-width="1.875" marker-end="url(#arrowEnd)" x1="760.49994" y1="292.5" x2="805.49994" y2="292.5" />
<text x="764.24994" y="288.75" text-anchor="left">0..1</text>
<line stroke="Black" stroke-width="1.875" marker-start="url(#arrowStart)" x1="715.49994" y1="292.5" x2="760.49994" y2="292.5" />
<text x="719.24994" y="288.75" text-anchor="left"></text>
<line stroke="Black" stroke-width="1.875" x1="760.49994" y1="292.5" x2="760.49994" y2="292.5" />
</g>
<g>
<g transform="translate(805.49994 266.25)">
<a href="./ValueSet-BiRadsAssessmentCategoriesVS.html" target="_top">
<rect fill="LightGreen" stroke="Black" stroke-width="1.875" x="0" y="0" width="99" height="52.5" rx="3.75" ry="3.75" />
</a>
<a href="./ValueSet-BiRadsAssessmentCategoriesVS.html" target="_top">
<text x="49.5" y="22.5" text-anchor="middle">BiRads</text>
</a>
<a href="./ValueSet-BiRadsAssessmentCategoriesVS.html" target="_top">
<text x="49.5" y="41.25" text-anchor="middle">ValueSet</text>
</a>
</g>
</g>
<g>
<g transform="translate(427.5 326.25)">
<a href="StructureDefinition-MGAbnormalityDensity-definitions.html#Observation.component:orientation" target="_top">
<rect fill="LightYellow" stroke="Black" stroke-width="1.875" x="0" y="0" width="172.5" height="52.5" rx="3.75" ry="3.75" />
</a>
<a href="StructureDefinition-MGAbnormalityDensity-definitions.html#Observation.component:orientation" target="_top">
<text x="86.25" y="22.5" text-anchor="middle">Orientation</text>
</a>
<a href="StructureDefinition-MGAbnormalityDensity-definitions.html#Observation.component:orientation" target="_top">
<text x="86.25" y="41.25" text-anchor="middle">CodeableConcept</text>
</a>
</g>
<line stroke="Black" stroke-width="1.875" marker-end="url(#arrowEnd)" x1="645" y1="343.125" x2="690" y2="343.125" />
<text x="648.75" y="339.375" text-anchor="left">0..1</text>
<line stroke="Black" stroke-width="1.875" marker-start="url(#arrowStart)" x1="600" y1="352.5" x2="645" y2="352.5" />
<text x="603.75" y="348.75" text-anchor="left"></text>
<line stroke="Black" stroke-width="1.875" x1="645" y1="343.125" x2="645" y2="352.5" />
</g>
<g>
<g transform="translate(690 326.25)">
<a href="./ValueSet-OrientationVS.html" target="_top">
<rect fill="LightGreen" stroke="Black" stroke-width="1.875" x="0" y="0" width="225" height="33.75" rx="3.75" ry="3.75" />
</a>
<a href="./ValueSet-OrientationVS.html" target="_top">
<text x="112.5" y="22.5" text-anchor="middle">Orientation ValueSet</text>
</a>
</g>
</g>
<g>
<g transform="translate(427.5 386.25)">
<a href="StructureDefinition-MGAbnormalityDensity-definitions.html#Observation.component:shape" target="_top">
<rect fill="LightYellow" stroke="Black" stroke-width="1.875" x="0" y="0" width="172.5" height="52.5" rx="3.75" ry="3.75" />
</a>
<a href="StructureDefinition-MGAbnormalityDensity-definitions.html#Observation.component:shape" target="_top">
<text x="86.25" y="22.5" text-anchor="middle">Shape</text>
</a>
<a href="StructureDefinition-MGAbnormalityDensity-definitions.html#Observation.component:shape" target="_top">
<text x="86.25" y="41.25" text-anchor="middle">CodeableConcept</text>
</a>
</g>
<line stroke="Black" stroke-width="1.875" marker-end="url(#arrowEnd)" x1="645" y1="412.5" x2="690" y2="412.5" />
<text x="648.75" y="408.75" text-anchor="left">0..1</text>
<line stroke="Black" stroke-width="1.875" marker-start="url(#arrowStart)" x1="600" y1="412.5" x2="645" y2="412.5" />
<text x="603.75" y="408.75" text-anchor="left"></text>
<line stroke="Black" stroke-width="1.875" x1="645" y1="412.5" x2="645" y2="412.5" />
</g>
<g>
<g transform="translate(690 386.25)">
<a href="./ValueSet-ShapeVS.html" target="_top">
<rect fill="LightGreen" stroke="Black" stroke-width="1.875" x="0" y="0" width="99" height="52.5" rx="3.75" ry="3.75" />
</a>
<a href="./ValueSet-ShapeVS.html" target="_top">
<text x="49.5" y="22.5" text-anchor="middle">Shape</text>
</a>
<a href="./ValueSet-ShapeVS.html" target="_top">
<text x="49.5" y="41.25" text-anchor="middle">ValueSet</text>
</a>
</g>
</g>
<g>
<g transform="translate(427.5 446.25)">
<a href="StructureDefinition-MGAbnormalityDensity-definitions.html#Observation.component:margin" target="_top">
<rect fill="LightYellow" stroke="Black" stroke-width="1.875" x="0" y="0" width="172.5" height="52.5" rx="3.75" ry="3.75" />
</a>
<a href="StructureDefinition-MGAbnormalityDensity-definitions.html#Observation.component:margin" target="_top">
<text x="86.25" y="22.5" text-anchor="middle">Margin</text>
</a>
<a href="StructureDefinition-MGAbnormalityDensity-definitions.html#Observation.component:margin" target="_top">
<text x="86.25" y="41.25" text-anchor="middle">CodeableConcept</text>
</a>
</g>
<line stroke="Black" stroke-width="1.875" marker-end="url(#arrowEnd)" x1="645" y1="463.125" x2="690" y2="463.125" />
<text x="648.75" y="459.375" text-anchor="left">0..1</text>
<line stroke="Black" stroke-width="1.875" marker-start="url(#arrowStart)" x1="600" y1="472.5" x2="645" y2="472.5" />
<text x="603.75" y="468.75" text-anchor="left"></text>
<line stroke="Black" stroke-width="1.875" x1="645" y1="463.125" x2="645" y2="472.5" />
</g>
<g>
<g transform="translate(690 446.25)">
<a href="./ValueSet-MarginVS.html" target="_top">
<rect fill="LightGreen" stroke="Black" stroke-width="1.875" x="0" y="0" width="162" height="33.75" rx="3.75" ry="3.75" />
</a>
<a href="./ValueSet-MarginVS.html" target="_top">
<text x="81" y="22.5" text-anchor="middle">MarginValueSet</text>
</a>
</g>
</g>
<g>
<g transform="translate(427.5 506.25)">
<a href="StructureDefinition-MGAbnormalityDensity-definitions.html#Observation.component:mgDensity" target="_top">
<rect fill="LightYellow" stroke="Black" stroke-width="1.875" x="0" y="0" width="172.5" height="52.5" rx="3.75" ry="3.75" />
</a>
<a href="StructureDefinition-MGAbnormalityDensity-definitions.html#Observation.component:mgDensity" target="_top">
<text x="86.25" y="22.5" text-anchor="middle">Density</text>
</a>
<a href="StructureDefinition-MGAbnormalityDensity-definitions.html#Observation.component:mgDensity" target="_top">
<text x="86.25" y="41.25" text-anchor="middle">CodeableConcept</text>
</a>
</g>
<line stroke="Black" stroke-width="1.875" marker-end="url(#arrowEnd)" x1="645" y1="523.125" x2="690" y2="523.125" />
<text x="648.75" y="519.375" text-anchor="left">0..1</text>
<line stroke="Black" stroke-width="1.875" marker-start="url(#arrowStart)" x1="600" y1="532.5" x2="645" y2="532.5" />
<text x="603.75" y="528.75" text-anchor="left"></text>
<line stroke="Black" stroke-width="1.875" x1="645" y1="523.125" x2="645" y2="532.5" />
</g>
<g>
<g transform="translate(690 506.25)">
<a href="./ValueSet-MGDensityVS.html" target="_top">
<rect fill="LightGreen" stroke="Black" stroke-width="1.875" x="0" y="0" width="214.5" height="33.75" rx="3.75" ry="3.75" />
</a>
<a href="./ValueSet-MGDensityVS.html" target="_top">
<text x="107.25" y="22.5" text-anchor="middle">MG Density ValueSet</text>
</a>
</g>
</g>
<g>
<g transform="translate(427.5 566.25)">
<a href="StructureDefinition-MGAbnormalityDensity-definitions.html#Observation.component:notPreviouslySeen" target="_top">
<rect fill="LightYellow" stroke="Black" stroke-width="1.875" x="0" y="0" width="214.5" height="52.5" rx="3.75" ry="3.75" />
</a>
<a href="StructureDefinition-MGAbnormalityDensity-definitions.html#Observation.component:notPreviouslySeen" target="_top">
<text x="107.25" y="22.5" text-anchor="middle">Not Previously Seen</text>
</a>
<a href="StructureDefinition-MGAbnormalityDensity-definitions.html#Observation.component:notPreviouslySeen" target="_top">
<text x="107.25" y="41.25" text-anchor="middle">CodeableConcept</text>
</a>
</g>
<line stroke="Black" stroke-width="1.875" marker-end="url(#arrowEnd)" x1="687" y1="592.5" x2="732" y2="592.5" />
<text x="690.75" y="588.75" text-anchor="left">0..*</text>
<line stroke="Black" stroke-width="1.875" marker-start="url(#arrowStart)" x1="642" y1="592.5" x2="687" y2="592.5" />
<text x="645.75" y="588.75" text-anchor="left"></text>
<line stroke="Black" stroke-width="1.875" x1="687" y1="592.5" x2="687" y2="592.5" />
</g>
<g>
<g transform="translate(732 566.25)">
<a href="./ValueSet-NotPreviouslySeenVS.html" target="_top">
<rect fill="LightGreen" stroke="Black" stroke-width="1.875" x="0" y="0" width="193.5" height="52.5" rx="3.75" ry="3.75" />
</a>
<a href="./ValueSet-NotPreviouslySeenVS.html" target="_top">
<text x="96.75" y="22.5" text-anchor="middle">NotPreviouslySeen</text>
</a>
<a href="./ValueSet-NotPreviouslySeenVS.html" target="_top">
<text x="96.75" y="41.25" text-anchor="middle">ValueSet</text>
</a>
</g>
</g>
<g>
<g transform="translate(427.5 626.25)">
<a href="StructureDefinition-MGAbnormalityDensity-definitions.html#Observation.component:obsCount" target="_top">
<rect fill="LightYellow" stroke="Black" stroke-width="1.875" x="0" y="0" width="193.5" height="52.5" rx="3.75" ry="3.75" />
</a>
<a href="StructureDefinition-MGAbnormalityDensity-definitions.html#Observation.component:obsCount" target="_top">
<text x="96.75" y="22.5" text-anchor="middle">Observed Count</text>
</a>
<a href="StructureDefinition-MGAbnormalityDensity-definitions.html#Observation.component:obsCount" target="_top">
<text x="96.75" y="41.25" text-anchor="middle">Quantity or Range</text>
</a>
</g>
</g>
<g>
<g transform="translate(427.5 686.25)">
<a href="StructureDefinition-MGAbnormalityDensity-definitions.html#Observation.component:obsSize" target="_top">
<rect fill="LightYellow" stroke="Black" stroke-width="1.875" x="0" y="0" width="193.5" height="52.5" rx="3.75" ry="3.75" />
</a>
<a href="StructureDefinition-MGAbnormalityDensity-definitions.html#Observation.component:obsSize" target="_top">
<text x="96.75" y="22.5" text-anchor="middle">Observed Size</text>
</a>
<a href="StructureDefinition-MGAbnormalityDensity-definitions.html#Observation.component:obsSize" target="_top">
<text x="96.75" y="41.25" text-anchor="middle">Quantity or Range</text>
</a>
</g>
<line stroke="Black" stroke-width="1.875" marker-end="url(#arrowEnd)" x1="666" y1="712.5" x2="711" y2="712.5" />
<text x="669.75" y="708.75" text-anchor="left">0..3</text>
<line stroke="Black" stroke-width="1.875" marker-start="url(#arrowStart)" x1="621" y1="712.5" x2="666" y2="712.5" />
<text x="624.75" y="708.75" text-anchor="left"></text>
<line stroke="Black" stroke-width="1.875" x1="666" y1="712.5" x2="666" y2="712.5" />
</g>
<g>
<g transform="translate(711 686.25)">
<a href="./ValueSet-UnitsOfLengthVS.html" target="_top">
<rect fill="LightGreen" stroke="Black" stroke-width="1.875" x="0" y="0" width="151.49998" height="52.5" rx="3.75" ry="3.75" />
</a>
<a href="./ValueSet-UnitsOfLengthVS.html" target="_top">
<text x="75.74999" y="22.5" text-anchor="middle">UnitsOfLength</text>
</a>
<a href="./ValueSet-UnitsOfLengthVS.html" target="_top">
<text x="75.74999" y="41.25" text-anchor="middle">ValueSet</text>
</a>
</g>
</g>
<g>
<g transform="translate(427.5 746.25)">
<a href="StructureDefinition-MGAbnormalityDensity-definitions.html#Observation.component:obsDistribution" target="_top">
<rect fill="LightYellow" stroke="Black" stroke-width="1.875" x="0" y="0" width="414" height="52.5" rx="3.75" ry="3.75" />
</a>
<a href="StructureDefinition-MGAbnormalityDensity-definitions.html#Observation.component:obsDistribution" target="_top">
<text x="207" y="22.5" text-anchor="middle">Observed distribution of abnormalities</text>
</a>
<a href="StructureDefinition-MGAbnormalityDensity-definitions.html#Observation.component:obsDistribution" target="_top">
<text x="207" y="41.25" text-anchor="middle">CodeableConcept</text>
</a>
</g>
<line stroke="Black" stroke-width="1.875" marker-end="url(#arrowEnd)" x1="886.5" y1="772.5" x2="931.5" y2="772.5" />
<text x="890.25" y="768.75" text-anchor="left">0..*</text>
<line stroke="Black" stroke-width="1.875" marker-start="url(#arrowStart)" x1="841.5" y1="772.5" x2="886.5" y2="772.5" />
<text x="845.25" y="768.75" text-anchor="left"></text>
<line stroke="Black" stroke-width="1.875" x1="886.5" y1="772.5" x2="886.5" y2="772.5" />
</g>
<g>
<g transform="translate(931.5 746.25)">
<a href="./ValueSet-CalcificationDistributionVS.html" target="_top">
<rect fill="LightGreen" stroke="Black" stroke-width="1.875" x="0" y="0" width="287.99997" height="52.5" rx="3.75" ry="3.75" />
</a>
<a href="./ValueSet-CalcificationDistributionVS.html" target="_top">
<text x="143.99998" y="22.5" text-anchor="middle">Calcification Distribution</text>
</a>
<a href="./ValueSet-CalcificationDistributionVS.html" target="_top">
<text x="143.99998" y="41.25" text-anchor="middle">ValueSet</text>
</a>
</g>
</g>
<g>
<g transform="translate(427.5 806.25)">
<a href="StructureDefinition-MGAbnormalityDensity-definitions.html#Observation.component:obsDistRegionSize" target="_top">
<rect fill="LightYellow" stroke="Black" stroke-width="1.875" x="0" y="0" width="361.5" height="52.5" rx="3.75" ry="3.75" />
</a>
<a href="StructureDefinition-MGAbnormalityDensity-definitions.html#Observation.component:obsDistRegionSize" target="_top">
<text x="180.75" y="22.5" text-anchor="middle">Observed Distribution Region Size</text>
</a>
<a href="StructureDefinition-MGAbnormalityDensity-definitions.html#Observation.component:obsDistRegionSize" target="_top">
<text x="180.75" y="41.25" text-anchor="middle">Quantity or Range</text>
</a>
</g>
<line stroke="Black" stroke-width="1.875" marker-end="url(#arrowEnd)" x1="834" y1="832.5" x2="879" y2="832.5" />
<text x="837.75" y="828.75" text-anchor="left">0..3</text>
<line stroke="Black" stroke-width="1.875" marker-start="url(#arrowStart)" x1="789" y1="832.5" x2="834" y2="832.5" />
<text x="792.75" y="828.75" text-anchor="left"></text>
<line stroke="Black" stroke-width="1.875" x1="834" y1="832.5" x2="834" y2="832.5" />
</g>
<g>
<g transform="translate(879 806.25)">
<a href="./ValueSet-UnitsOfLengthVS.html" target="_top">
<rect fill="LightGreen" stroke="Black" stroke-width="1.875" x="0" y="0" width="151.49998" height="52.5" rx="3.75" ry="3.75" />
</a>
<a href="./ValueSet-UnitsOfLengthVS.html" target="_top">
<text x="75.74999" y="22.5" text-anchor="middle">UnitsOfLength</text>
</a>
<a href="./ValueSet-UnitsOfLengthVS.html" target="_top">
<text x="75.74999" y="41.25" text-anchor="middle">ValueSet</text>
</a>
</g>
</g>
<g>
<g transform="translate(427.5 866.25)">
<a href="StructureDefinition-MGAbnormalityDensity-definitions.html#Observation.component:correspondsWith" target="_top">
<rect fill="LightYellow" stroke="Black" stroke-width="1.875" x="0" y="0" width="183" height="52.5" rx="3.75" ry="3.75" />
</a>
<a href="StructureDefinition-MGAbnormalityDensity-definitions.html#Observation.component:correspondsWith" target="_top">
<text x="91.5" y="22.5" text-anchor="middle">Corresponds With</text>
</a>
<a href="StructureDefinition-MGAbnormalityDensity-definitions.html#Observation.component:correspondsWith" target="_top">
<text x="91.5" y="41.25" text-anchor="middle">CodeableConcept</text>
</a>
</g>
<line stroke="Black" stroke-width="1.875" marker-end="url(#arrowEnd)" x1="655.5" y1="892.5" x2="700.5" y2="892.5" />
<text x="659.25" y="888.75" text-anchor="left">0..*</text>
<line stroke="Black" stroke-width="1.875" marker-start="url(#arrowStart)" x1="610.5" y1="892.5" x2="655.5" y2="892.5" />
<text x="614.25" y="888.75" text-anchor="left"></text>
<line stroke="Black" stroke-width="1.875" x1="655.5" y1="892.5" x2="655.5" y2="892.5" />
</g>
<g>
<g transform="translate(700.5 866.25)">
<a href="./ValueSet-CorrespondsWithVS.html" target="_top">
<rect fill="LightGreen" stroke="Black" stroke-width="1.875" x="0" y="0" width="172.5" height="52.5" rx="3.75" ry="3.75" />
</a>
<a href="./ValueSet-CorrespondsWithVS.html" target="_top">
<text x="86.25" y="22.5" text-anchor="middle">CorrespondsWith</text>
</a>
<a href="./ValueSet-CorrespondsWithVS.html" target="_top">
<text x="86.25" y="41.25" text-anchor="middle">ValueSet</text>
</a>
</g>
</g>
<g>
<g transform="translate(427.5 926.25)">
<a href="StructureDefinition-MGAbnormalityDensity-definitions.html#Observation.component:PreviouslyDemonstratedBy" target="_top">
<rect fill="LightYellow" stroke="Black" stroke-width="1.875" x="0" y="0" width="287.99997" height="52.5" rx="3.75" ry="3.75" />
</a>
<a href="StructureDefinition-MGAbnormalityDensity-definitions.html#Observation.component:PreviouslyDemonstratedBy" target="_top">
<text x="143.99998" y="22.5" text-anchor="middle">Previously Demonstrated By</text>
</a>
<a href="StructureDefinition-MGAbnormalityDensity-definitions.html#Observation.component:PreviouslyDemonstratedBy" target="_top">
<text x="143.99998" y="41.25" text-anchor="middle">CodeableConcept</text>
</a>
</g>
<line stroke="Black" stroke-width="1.875" marker-end="url(#arrowEnd)" x1="760.49994" y1="952.5" x2="805.49994" y2="952.5" />
<text x="764.24994" y="948.75" text-anchor="left">0..*</text>
<line stroke="Black" stroke-width="1.875" marker-start="url(#arrowStart)" x1="715.49994" y1="952.5" x2="760.49994" y2="952.5" />
<text x="719.24994" y="948.75" text-anchor="left"></text>
<line stroke="Black" stroke-width="1.875" x1="760.49994" y1="952.5" x2="760.49994" y2="952.5" />
</g>
<g>
<g transform="translate(805.49994 926.25)">
<a href="./ValueSet-PreviouslyDemonstratedByVS.html" target="_top">
<rect fill="LightGreen" stroke="Black" stroke-width="1.875" x="0" y="0" width="267" height="52.5" rx="3.75" ry="3.75" />
</a>
<a href="./ValueSet-PreviouslyDemonstratedByVS.html" target="_top">
<text x="133.5" y="22.5" text-anchor="middle">PreviouslyDemonstratedBy</text>
</a>
<a href="./ValueSet-PreviouslyDemonstratedByVS.html" target="_top">
<text x="133.5" y="41.25" text-anchor="middle">ValueSet</text>
</a>
</g>
</g>
<g>
<g transform="translate(427.5 986.25)">
<a href="StructureDefinition-MGAbnormalityDensity-definitions.html#Observation.bodySite.extension:breastBodyLocation" target="_top">
<rect fill="LightSalmon" stroke="Black" stroke-width="1.875" x="0" y="0" width="225" height="52.5" rx="3.75" ry="3.75" />
</a>
<a href="StructureDefinition-MGAbnormalityDensity-definitions.html#Observation.bodySite.extension:breastBodyLocation" target="_top">
<text x="112.5" y="22.5" text-anchor="middle">Breast Body Location</text>
</a>
<a href="StructureDefinition-MGAbnormalityDensity-definitions.html#Observation.bodySite.extension:breastBodyLocation" target="_top">
<text x="112.5" y="41.25" text-anchor="middle">extension</text>
</a>
</g>
<line stroke="Black" stroke-width="1.875" marker-end="url(#arrowEnd)" x1="697.5" y1="1003.125" x2="742.5" y2="1003.125" />
<text x="701.25" y="999.375" text-anchor="left">1..1</text>
<line stroke="Black" stroke-width="1.875" marker-start="url(#arrowStart)" x1="652.5" y1="1012.5" x2="697.5" y2="1012.5" />
<text x="656.25" y="1008.75" text-anchor="left"></text>
<line stroke="Black" stroke-width="1.875" x1="697.5" y1="1003.125" x2="697.5" y2="1012.5" />
</g>
<g>
<g transform="translate(742.5 986.25)">
<a href="./StructureDefinition-BreastBodyLocationExtension.html" target="_top">
<rect fill="LightCyan" stroke="Black" stroke-width="1.875" x="0" y="0" width="183" height="33.75" rx="3.75" ry="3.75" />
</a>
<a href="./StructureDefinition-BreastBodyLocationExtension.html" target="_top">
<text x="91.5" y="22.5" text-anchor="middle">Breast Body Loc.</text>
</a>
</g>
</g>
</svg>
