<?xml version="1.0"?>
<?xml-stylesheet type="text/css" href="FocusGraph.css" ?>
<!DOCTYPE svg PUBLIC "-//W3C//DTD SVG 1.1//EN" "http://www.w3.org/Graphics/SVG/1.1/DTD/svg11.dtd">
<svg xmlns="http://www.w3.org/2000/svg" version="1.1" width="724.5" height="191.25">
<defs>
<marker id="arrowStart" markerWidth="3.75" markerHeight="3.75" markerUnits="px" refX="1.88" refY="1.88">
<circle class="connector" cx="1.88" cy="1.88" r="1.88" />
</marker>
<marker id="arrowEnd" markerWidth="7.5" markerHeight="7.5" markerUnits="px" refX="7.5" refY="3.75">
<polygon class="connector" points="0 0 7.5 3.75 0 7.5" />
</marker>
</defs>
<g>
<g transform="translate(3.75 3.75)">
<a href="StructureDefinition-BreastRadiologyComposition.html" target="_top">
<rect class="profile" x="0" y="0" width="104.43" height="63.75" rx="3.75" ry="3.75" />
</a>
<a href="StructureDefinition-BreastRadiologyComposition.html" target="_top">
<text x="5.62" y="18.75" text-anchor="left" class="profile">Breast</text>
</a>
<a href="StructureDefinition-BreastRadiologyComposition.html" target="_top">
<text x="5.62" y="37.5" text-anchor="left" class="profile">Radiology</text>
</a>
<a href="StructureDefinition-BreastRadiologyComposition.html" target="_top">
<text x="5.62" y="56.25" text-anchor="left" class="profile">Composition</text>
</a>
</g>
<line class="connector" marker-end="url(#arrowEnd)" x1="138.18" y1="16.88" x2="198.18" y2="16.88" />
<text x="141.93" y="13.12" text-anchor="right" class="lhsText">0..*</text>
<line class="connector" marker-start="url(#arrowStart)" x1="108.18" y1="35.62" x2="138.18" y2="35.62" />
<line class="connector" x1="138.18" y1="16.88" x2="138.18" y2="35.62" />
</g>
<g>
<g transform="translate(198.18 3.75)">
<a href="StructureDefinition-BreastServiceRequest.html" target="_top">
<rect class="focus" x="0" y="0" width="133.74" height="26.25" rx="3.75" ry="3.75" />
</a>
<a href="StructureDefinition-BreastServiceRequest.html" target="_top">
<text x="5.62" y="18.75" text-anchor="left" class="focus">Service Request</text>
</a>
</g>
<line class="connector" marker-end="url(#arrowEnd)" x1="361.92" y1="16.88" x2="421.92" y2="16.88" />
<text x="365.67" y="13.12" text-anchor="right" class="lhsText">1..*</text>
<line class="connector" marker-start="url(#arrowStart)" x1="331.92" y1="16.88" x2="361.92" y2="16.88" />
<line class="connector" x1="361.92" y1="16.88" x2="361.92" y2="16.88" />
</g>
<g>
<g transform="translate(421.92 3.75)">
<a href="StructureDefinition-BreastServiceRequest-definitions.html#ServiceRequest.extension" target="_top">
<rect class="element" x="0" y="0" width="83.38" height="26.25" rx="3.75" ry="3.75" />
</a>
<a href="StructureDefinition-BreastServiceRequest-definitions.html#ServiceRequest.extension" target="_top">
<text x="5.62" y="18.75" text-anchor="left" class="element">extension</text>
</a>
</g>
<line class="connector" marker-end="url(#arrowEnd)" x1="535.3" y1="16.88" x2="565.3" y2="16.88" />
<line class="connector" marker-start="url(#arrowStart)" x1="505.3" y1="16.88" x2="535.3" y2="16.88" />
<line class="connector" x1="535.3" y1="16.88" x2="535.3" y2="16.88" />
</g>
<g>
<g transform="translate(565.3 3.75)">
<a href="StructureDefinition-BreastLateralityExtension.html" target="_top">
<rect class="extension" x="0" y="0" width="127.33" height="26.25" rx="3.75" ry="3.75" />
</a>
<a href="StructureDefinition-BreastLateralityExtension.html" target="_top">
<text x="5.62" y="18.75" text-anchor="left" class="extension">BreastLaterality</text>
</a>
</g>
</g>
<g>
<g transform="translate(3.75 150)">
<rect class="focus" x="0" y="0" width="57.72" height="26.25" rx="3.75" ry="3.75" />
<text x="5.62" y="18.75" text-anchor="left" class="focus">Focus</text>
</g>
<g transform="translate(68.97 150)">
<rect class="profile" x="0" y="0" width="143.81" height="26.25" rx="3.75" ry="3.75" />
<text x="5.62" y="18.75" text-anchor="left" class="profile">Profiled Resource</text>
</g>
<g transform="translate(220.28 150)">
<rect class="extension" x="0" y="0" width="85.21" height="26.25" rx="3.75" ry="3.75" />
<text x="5.62" y="18.75" text-anchor="left" class="extension">Extension</text>
</g>
<g transform="translate(312.98 150)">
<rect class="element" x="0" y="0" width="148.39" height="26.25" rx="3.75" ry="3.75" />
<text x="5.62" y="18.75" text-anchor="left" class="element">Resource Element</text>
</g>
</g>
</svg>
