<?xml version="1.0"?>
<!DOCTYPE svg PUBLIC "-//W3C//DTD SVG 1.1//EN" "http://www.w3.org/Graphics/SVG/1.1/DTD/svg11.dtd">
<svg xmlns="http://www.w3.org/2000/svg" version="1.1" width="469.5" height="247.5">
<defs>
<marker id="arrowStart" markerWidth="3.75" markerHeight="3.75" markerUnits="px" refX="1.875" refY="1.875">
<circle fill="Black" stroke-width="0" cx="1.875" cy="1.875" r="1.875" />
</marker>
<marker id="arrowEnd" markerWidth="7.5" markerHeight="7.5" markerUnits="px" refX="7.5" refY="3.75">
<polygon fill="Black" stroke-width="0" points="0 0 7.5 3.75 0 7.5" />
</marker>
</defs>
<g />
<g>
<g>
<rect fill="LightGreen" stroke="Black" stroke-width="1.875" x="67.5" y="7.5" width="109.49999" height="71.25" rx="3.75" ry="3.75" />
<text x="75" y="30">Breast</text>
<text x="75" y="48.75">Radiology</text>
<text x="75" y="67.5">Report</text>
</g>
<line stroke="Black" stroke-width="1.875" marker-end="url(#arrowEnd)" x1="206.99998" y1="24.375" x2="236.99998" y2="24.375" />
<line stroke="Black" stroke-width="1.875" marker-end="url(#arrowEnd)" x1="206.99998" y1="65.625" x2="236.99998" y2="65.625" />
<line stroke="Black" stroke-width="1.875" marker-end="url(#arrowEnd)" x1="206.99998" y1="106.875" x2="236.99998" y2="106.875" />
<line stroke="Black" stroke-width="1.875" marker-end="url(#arrowEnd)" x1="206.99998" y1="148.125" x2="236.99998" y2="148.125" />
<line stroke="Black" stroke-width="1.875" marker-end="url(#arrowEnd)" x1="206.99998" y1="198.75" x2="236.99998" y2="198.75" />
<line stroke="Black" stroke-width="1.875" marker-start="url(#arrowStart)" x1="176.99998" y1="43.125" x2="206.99998" y2="43.125" />
<line stroke="Black" stroke-width="1.875" x1="206.99998" y1="24.375" x2="206.99998" y2="198.75" />
</g>
<g>
<g>
<rect fill="LightSalmon" stroke="Black" stroke-width="1.875" x="236.99998" y="7.5" width="172.5" height="33.75" rx="3.75" ry="3.75" />
<a href="./StructureDefinition-BreastRadRecommendations.html" target="_blank">
<title>'BreastRadRecommendations'</title>
<text x="244.49998" y="30">Recommendations</text>
</a>
</g>
<g>
<rect fill="LightSalmon" stroke="Black" stroke-width="1.875" x="236.99998" y="48.75" width="151.49998" height="33.75" rx="3.75" ry="3.75" />
<a href="./StructureDefinition-BreastRadPriorReports.html" target="_blank">
<title>'BreastRadPriorReports'</title>
<text x="244.49998" y="71.25">Prior Reports</text>
</a>
</g>
<g>
<rect fill="LightSalmon" stroke="Black" stroke-width="1.875" x="236.99998" y="90" width="172.5" height="33.75" rx="3.75" ry="3.75" />
<a href="./StructureDefinition-BreastRadSectionPatientHistory.html" target="_blank">
<title>'BreastRadSectionPatientHistory'</title>
<text x="244.49998" y="112.5">Patient History</text>
</a>
</g>
<g>
<rect fill="LightSalmon" stroke="Black" stroke-width="1.875" x="236.99998" y="131.25" width="99" height="33.75" rx="3.75" ry="3.75" />
<a href="./StructureDefinition-BreastRadSectionFindings.html" target="_blank">
<title>'BreastRadSectionFindings'</title>
<text x="244.49998" y="153.75">Findings</text>
</a>
</g>
<g>
<rect fill="LightSalmon" stroke="Black" stroke-width="1.875" x="236.99998" y="172.5" width="88.5" height="52.5" rx="3.75" ry="3.75" />
<a href="./StructureDefinition-BreastRadSectionPatientRisk.html" target="_blank">
<title>'BreastRadSectionPatientRisk'</title>
<text x="244.49998" y="195">Patient</text>
</a>
<a href="./StructureDefinition-BreastRadSectionPatientRisk.html" target="_blank">
<title>'BreastRadSectionPatientRisk'</title>
<text x="244.49998" y="213.75">Risk</text>
</a>
</g>
</g>
</svg>
