<?xml version="1.0"?>
<?xml-stylesheet type="text/css" href="FocusGraph.css" ?>
<!DOCTYPE svg PUBLIC "-//W3C//DTD SVG 1.1//EN" "http://www.w3.org/Graphics/SVG/1.1/DTD/svg11.dtd">
<svg xmlns="http://www.w3.org/2000/svg" version="1.1" width="971.12" height="592.5">
<defs>
<marker id="arrowStart" markerWidth="3.75" markerHeight="3.75" markerUnits="px" refX="1.88" refY="1.88">
<circle class="connector" cx="1.88" cy="1.88" r="1.88" />
</marker>
<marker id="arrowEnd" markerWidth="7.5" markerHeight="7.5" markerUnits="px" refX="7.5" refY="3.75">
<polygon class="connector" points="0 0 7.5 3.75 0 7.5" />
</marker>
</defs>
<g>
<g transform="translate(3.75 3.75)">
<a href="StructureDefinition-FindingsBiLateralBreast.html" target="_top">
<rect class="profile" x="0" y="0" width="77.87" height="45" rx="3.75" ry="3.75" />
</a>
<a href="StructureDefinition-FindingsBiLateralBreast.html" target="_top">
<title />
<text x="5.62" y="18.75" text-anchor="left" class="profile">Findings</text>
</a>
<a href="StructureDefinition-FindingsBiLateralBreast.html" target="_top">
<title />
<text x="5.62" y="37.5" text-anchor="left" class="profile">BiLateral</text>
</a>
</g>
<g transform="translate(3.75 56.25)">
<a href="StructureDefinition-FindingsLeftBreast.html" target="_top">
<rect class="profile" x="0" y="0" width="92.52" height="45" rx="3.75" ry="3.75" />
</a>
<a href="StructureDefinition-FindingsLeftBreast.html" target="_top">
<title />
<text x="5.62" y="18.75" text-anchor="left" class="profile">Findings</text>
</a>
<a href="StructureDefinition-FindingsLeftBreast.html" target="_top">
<title />
<text x="5.62" y="37.5" text-anchor="left" class="profile">Left Breast</text>
</a>
</g>
<g transform="translate(3.75 108.75)">
<a href="StructureDefinition-FindingsRightBreast.html" target="_top">
<rect class="profile" x="0" y="0" width="103.51" height="45" rx="3.75" ry="3.75" />
</a>
<a href="StructureDefinition-FindingsRightBreast.html" target="_top">
<title />
<text x="5.62" y="18.75" text-anchor="left" class="profile">Findings</text>
</a>
<a href="StructureDefinition-FindingsRightBreast.html" target="_top">
<title />
<text x="5.62" y="37.5" text-anchor="left" class="profile">Right Breast</text>
</a>
</g>
<line class="connector" marker-end="url(#arrowEnd)" x1="137.26" y1="16.88" x2="197.26" y2="16.88" />
<text x="141.01" y="13.12" text-anchor="right" class="lhsText">0..1</text>
<line class="connector" marker-start="url(#arrowStart)" x1="81.62" y1="26.25" x2="137.26" y2="26.25" />
<line class="connector" marker-start="url(#arrowStart)" x1="96.27" y1="78.75" x2="137.26" y2="78.75" />
<line class="connector" marker-start="url(#arrowStart)" x1="107.26" y1="131.25" x2="137.26" y2="131.25" />
<line class="connector" x1="137.26" y1="16.88" x2="137.26" y2="131.25" />
</g>
<g>
<g transform="translate(197.26 3.75)">
<a href="StructureDefinition-MGFinding.html" target="_top">
<rect class="focus" x="0" y="0" width="102.6" height="26.25" rx="3.75" ry="3.75" />
</a>
<a href="StructureDefinition-MGFinding.html" target="_top">
<title />
<text x="5.62" y="18.75" text-anchor="left" class="focus">Mg Findings</text>
</a>
</g>
<line class="connector" marker-end="url(#arrowEnd)" x1="329.85" y1="16.88" x2="389.85" y2="16.88" />
<text x="333.6" y="13.12" text-anchor="right" class="lhsText">1..1</text>
<line class="connector" marker-end="url(#arrowEnd)" x1="329.85" y1="50.62" x2="389.85" y2="50.62" />
<text x="333.6" y="46.88" text-anchor="right" class="lhsText">0..*</text>
<line class="connector" marker-start="url(#arrowStart)" x1="299.85" y1="16.88" x2="329.85" y2="16.88" />
<line class="connector" x1="329.85" y1="16.88" x2="329.85" y2="50.62" />
</g>
<g>
<g transform="translate(389.85 3.75)">
<a href="StructureDefinition-MGFinding-definitions.html#Observation.code" target="_top">
<rect class="element" x="0" y="0" width="52.22" height="26.25" rx="3.75" ry="3.75" />
</a>
<a href="StructureDefinition-MGFinding-definitions.html#Observation.code" target="_top">
<title />
<text x="5.62" y="18.75" text-anchor="left" class="element">Code</text>
</a>
</g>
<line class="connector" marker-end="url(#arrowEnd)" x1="472.08" y1="16.88" x2="592.08" y2="16.88" />
<text x="475.83" y="13.12" text-anchor="right" class="lhsText">pattern </text>
<line class="connector" marker-start="url(#arrowStart)" x1="442.08" y1="16.88" x2="472.08" y2="16.88" />
<line class="connector" x1="472.08" y1="16.88" x2="472.08" y2="16.88" />
</g>
<g>
<g transform="translate(592.08 3.75)">
<a href="CodeSystem-ObservationCodesCS.html" target="_top">
<rect class="value" x="0" y="0" width="347.17" height="26.25" rx="3.75" ry="3.75" />
</a>
<a href="CodeSystem-ObservationCodesCS.html" target="_top">
<title />
<text x="5.62" y="18.75" text-anchor="left" class="value">ObservationCodesCS#mgFindingObservation</text>
</a>
</g>
</g>
<g>
<g transform="translate(389.85 37.5)">
<a href="StructureDefinition-MGFinding-definitions.html#Observation.hasMember" target="_top">
<rect class="element" x="0" y="0" width="102.57" height="26.25" rx="3.75" ry="3.75" />
</a>
<a href="StructureDefinition-MGFinding-definitions.html#Observation.hasMember" target="_top">
<title />
<text x="5.62" y="18.75" text-anchor="left" class="element">HasMember</text>
</a>
</g>
<line class="connector" marker-end="url(#arrowEnd)" x1="522.42" y1="50.62" x2="582.42" y2="50.62" />
<text x="526.17" y="46.88" text-anchor="right" class="lhsText">0..*</text>
<line class="connector" marker-end="url(#arrowEnd)" x1="522.42" y1="84.38" x2="582.42" y2="84.38" />
<text x="526.17" y="80.62" text-anchor="right" class="lhsText">0..*</text>
<line class="connector" marker-end="url(#arrowEnd)" x1="522.42" y1="118.12" x2="582.42" y2="118.12" />
<text x="526.17" y="114.38" text-anchor="right" class="lhsText">0..*</text>
<line class="connector" marker-end="url(#arrowEnd)" x1="522.42" y1="151.88" x2="582.42" y2="151.88" />
<text x="526.17" y="148.12" text-anchor="right" class="lhsText">0..*</text>
<line class="connector" marker-end="url(#arrowEnd)" x1="522.42" y1="185.62" x2="582.42" y2="185.62" />
<text x="526.17" y="181.88" text-anchor="right" class="lhsText">0..*</text>
<line class="connector" marker-end="url(#arrowEnd)" x1="522.42" y1="219.38" x2="582.42" y2="219.38" />
<text x="526.17" y="215.62" text-anchor="right" class="lhsText">0..*</text>
<line class="connector" marker-end="url(#arrowEnd)" x1="522.42" y1="253.12" x2="582.42" y2="253.12" />
<text x="526.17" y="249.38" text-anchor="right" class="lhsText">0..*</text>
<line class="connector" marker-end="url(#arrowEnd)" x1="522.42" y1="286.88" x2="582.42" y2="286.88" />
<text x="526.17" y="283.12" text-anchor="right" class="lhsText">0..*</text>
<line class="connector" marker-end="url(#arrowEnd)" x1="522.42" y1="320.62" x2="582.42" y2="320.62" />
<text x="526.17" y="316.88" text-anchor="right" class="lhsText">0..*</text>
<line class="connector" marker-end="url(#arrowEnd)" x1="522.42" y1="354.38" x2="582.42" y2="354.38" />
<text x="526.17" y="350.62" text-anchor="right" class="lhsText">0..*</text>
<line class="connector" marker-end="url(#arrowEnd)" x1="522.42" y1="388.12" x2="582.42" y2="388.12" />
<text x="526.17" y="384.38" text-anchor="right" class="lhsText">0..*</text>
<line class="connector" marker-end="url(#arrowEnd)" x1="522.42" y1="421.88" x2="582.42" y2="421.88" />
<text x="526.17" y="418.12" text-anchor="right" class="lhsText">0..*</text>
<line class="connector" marker-end="url(#arrowEnd)" x1="522.42" y1="455.62" x2="582.42" y2="455.62" />
<text x="526.17" y="451.88" text-anchor="right" class="lhsText">0..*</text>
<line class="connector" marker-start="url(#arrowStart)" x1="492.42" y1="50.62" x2="522.42" y2="50.62" />
<line class="connector" x1="522.42" y1="50.62" x2="522.42" y2="455.62" />
</g>
<g>
<g transform="translate(582.42 37.5)">
<a href="StructureDefinition-ArchitecturalDistortionAbnormality.html" target="_top">
<rect class="profile" x="0" y="0" width="178.6" height="26.25" rx="3.75" ry="3.75" />
</a>
<a href="StructureDefinition-ArchitecturalDistortionAbnormality.html" target="_top">
<title />
<text x="5.62" y="18.75" text-anchor="left" class="profile">Architectural Distortion</text>
</a>
</g>
</g>
<g>
<g transform="translate(582.42 71.25)">
<a href="StructureDefinition-AssociatedFeature.html" target="_top">
<rect class="profile" x="0" y="0" width="154.82" height="26.25" rx="3.75" ry="3.75" />
</a>
<a href="StructureDefinition-AssociatedFeature.html" target="_top">
<title />
<text x="5.62" y="18.75" text-anchor="left" class="profile">Associated Feature</text>
</a>
</g>
</g>
<g>
<g transform="translate(582.42 105)">
<a href="StructureDefinition-AsymmetryAbnormality.html" target="_top">
<rect class="profile" x="0" y="0" width="95.23" height="26.25" rx="3.75" ry="3.75" />
</a>
<a href="StructureDefinition-AsymmetryAbnormality.html" target="_top">
<title />
<text x="5.62" y="18.75" text-anchor="left" class="profile">Asymmetry</text>
</a>
</g>
</g>
<g>
<g transform="translate(582.42 138.75)">
<a href="StructureDefinition-CalcificationAbnormality.html" target="_top">
<rect class="profile" x="0" y="0" width="101.68" height="26.25" rx="3.75" ry="3.75" />
</a>
<a href="StructureDefinition-CalcificationAbnormality.html" target="_top">
<title />
<text x="5.62" y="18.75" text-anchor="left" class="profile">Calcification</text>
</a>
</g>
</g>
<g>
<g transform="translate(582.42 172.5)">
<a href="StructureDefinition-CystAbnormality.html" target="_top">
<rect class="profile" x="0" y="0" width="45.79" height="26.25" rx="3.75" ry="3.75" />
</a>
<a href="StructureDefinition-CystAbnormality.html" target="_top">
<title />
<text x="5.62" y="18.75" text-anchor="left" class="profile">Cyst</text>
</a>
</g>
</g>
<g>
<g transform="translate(582.42 206.25)">
<a href="StructureDefinition-DensityAbnormality.html" target="_top">
<rect class="profile" x="0" y="0" width="67.79" height="26.25" rx="3.75" ry="3.75" />
</a>
<a href="StructureDefinition-DensityAbnormality.html" target="_top">
<title />
<text x="5.62" y="18.75" text-anchor="left" class="profile">Density</text>
</a>
</g>
</g>
<g>
<g transform="translate(582.42 240)">
<a href="StructureDefinition-DuctAbnormality.html" target="_top">
<rect class="profile" x="0" y="0" width="46.72" height="26.25" rx="3.75" ry="3.75" />
</a>
<a href="StructureDefinition-DuctAbnormality.html" target="_top">
<title />
<text x="5.62" y="18.75" text-anchor="left" class="profile">Duct</text>
</a>
</g>
</g>
<g>
<g transform="translate(582.42 273.75)">
<a href="StructureDefinition-FatNecrosisAbnormality.html" target="_top">
<rect class="profile" x="0" y="0" width="105.33" height="26.25" rx="3.75" ry="3.75" />
</a>
<a href="StructureDefinition-FatNecrosisAbnormality.html" target="_top">
<title />
<text x="5.62" y="18.75" text-anchor="left" class="profile">Fat Necrosis</text>
</a>
</g>
</g>
<g>
<g transform="translate(582.42 307.5)">
<a href="StructureDefinition-FibroadenomaAbnormality.html" target="_top">
<rect class="profile" x="0" y="0" width="119.09" height="26.25" rx="3.75" ry="3.75" />
</a>
<a href="StructureDefinition-FibroadenomaAbnormality.html" target="_top">
<title />
<text x="5.62" y="18.75" text-anchor="left" class="profile">Fibroadenoma</text>
</a>
</g>
</g>
<g>
<g transform="translate(582.42 341.25)">
<a href="StructureDefinition-ForeignObjectAbnormality.html" target="_top">
<rect class="profile" x="0" y="0" width="120.92" height="26.25" rx="3.75" ry="3.75" />
</a>
<a href="StructureDefinition-ForeignObjectAbnormality.html" target="_top">
<title />
<text x="5.62" y="18.75" text-anchor="left" class="profile">Foreign Object</text>
</a>
</g>
</g>
<g>
<g transform="translate(582.42 375)">
<a href="StructureDefinition-LymphNodeAbnormality.html" target="_top">
<rect class="profile" x="0" y="0" width="106.26" height="26.25" rx="3.75" ry="3.75" />
</a>
<a href="StructureDefinition-LymphNodeAbnormality.html" target="_top">
<title />
<text x="5.62" y="18.75" text-anchor="left" class="profile">Lymph Node</text>
</a>
</g>
</g>
<g>
<g transform="translate(582.42 408.75)">
<a href="StructureDefinition-MassAbnormality.html" target="_top">
<rect class="profile" x="0" y="0" width="52.21" height="26.25" rx="3.75" ry="3.75" />
</a>
<a href="StructureDefinition-MassAbnormality.html" target="_top">
<title />
<text x="5.62" y="18.75" text-anchor="left" class="profile">Mass</text>
</a>
</g>
</g>
<g>
<g transform="translate(582.42 442.5)">
<a href="StructureDefinition-SkinLesionAbnormality.html" target="_top">
<rect class="profile" x="0" y="0" width="98.04" height="26.25" rx="3.75" ry="3.75" />
</a>
<a href="StructureDefinition-SkinLesionAbnormality.html" target="_top">
<title />
<text x="5.62" y="18.75" text-anchor="left" class="profile">Skin Lesion</text>
</a>
</g>
</g>
<g>
<g transform="translate(3.75 551.25)">
<a target="_top">
<rect class="focus" x="0" y="0" width="57.72" height="26.25" rx="3.75" ry="3.75" />
</a>
<a target="_top">
<title />
<text x="5.62" y="18.75" text-anchor="left" class="focus">Focus</text>
</a>
</g>
<g transform="translate(68.97 551.25)">
<a target="_top">
<rect class="profile" x="0" y="0" width="143.81" height="26.25" rx="3.75" ry="3.75" />
</a>
<a target="_top">
<title />
<text x="5.62" y="18.75" text-anchor="left" class="profile">Profiled Resource</text>
</a>
</g>
<g transform="translate(220.28 551.25)">
<a target="_top">
<rect class="element" x="0" y="0" width="148.39" height="26.25" rx="3.75" ry="3.75" />
</a>
<a target="_top">
<title />
<text x="5.62" y="18.75" text-anchor="left" class="element">Resource Element</text>
</a>
</g>
<g transform="translate(376.16 551.25)">
<a target="_top">
<rect class="value" x="0" y="0" width="54.98" height="26.25" rx="3.75" ry="3.75" />
</a>
<a target="_top">
<title />
<text x="5.62" y="18.75" text-anchor="left" class="value">Value</text>
</a>
</g>
</g>
</svg>
