<?xml version="1.0"?>
<?xml-stylesheet type="text/css" href="FocusGraph.css" ?>
<!DOCTYPE svg PUBLIC "-//W3C//DTD SVG 1.1//EN" "http://www.w3.org/Graphics/SVG/1.1/DTD/svg11.dtd">
<svg xmlns="http://www.w3.org/2000/svg" version="1.1" width="888.38" height="210">
<defs>
<marker id="arrowStart" markerWidth="3.75" markerHeight="3.75" markerUnits="px" refX="1.88" refY="1.88">
<circle class="connector" cx="1.88" cy="1.88" r="1.88" />
</marker>
<marker id="arrowEnd" markerWidth="7.5" markerHeight="7.5" markerUnits="px" refX="7.5" refY="3.75">
<polygon class="connector" points="0 0 7.5 3.75 0 7.5" />
</marker>
</defs>
<g>
<g transform="translate(7.5 7.5)">
<a href="StructureDefinition-BreastRadiologyComposition.html" target="_top">
<rect class="profile" x="0" y="0" width="130.5" height="71.25" rx="3.75" ry="3.75" />
</a>
<a href="StructureDefinition-BreastRadiologyComposition.html" target="_top">
<text x="65.25" y="22.5" text-anchor="middle" class="profile">Breast</text>
</a>
<a href="StructureDefinition-BreastRadiologyComposition.html" target="_top">
<text x="65.25" y="41.25" text-anchor="middle" class="profile">Radiology</text>
</a>
<a href="StructureDefinition-BreastRadiologyComposition.html" target="_top">
<text x="65.25" y="60" text-anchor="middle" class="profile">Composition</text>
</a>
</g>
<line class="connector" marker-end="url(#arrowEnd)" x1="168" y1="24.38" x2="228" y2="24.38" />
<text x="171.75" y="20.62" text-anchor="right" class="lhsText">0..*</text>
<line class="connector" marker-start="url(#arrowStart)" x1="138" y1="43.12" x2="168" y2="43.12" />
<line class="connector" x1="168" y1="24.38" x2="168" y2="43.12" />
</g>
<g>
<g transform="translate(228 7.5)">
<a href="StructureDefinition-ServiceRecommendation.html" target="_top">
<rect class="focus" x="0" y="0" width="246" height="33.75" rx="3.75" ry="3.75" />
</a>
<a href="StructureDefinition-ServiceRecommendation.html" target="_top">
<text x="123" y="22.5" text-anchor="middle" class="focus">Service Recommendation</text>
</a>
</g>
</g>
<g>
<g transform="translate(7.5 161.25)">
<rect class="focus" x="0" y="0" width="67.5" height="33.75" rx="3.75" ry="3.75" />
<text x="33.75" y="22.5" text-anchor="middle" class="focus">Focus</text>
</g>
<g transform="translate(82.5 161.25)">
<rect class="profile" x="0" y="0" width="193.5" height="33.75" rx="3.75" ry="3.75" />
<text x="96.75" y="22.5" text-anchor="middle" class="profile">Profiled Resource</text>
</g>
<g transform="translate(283.5 161.25)">
<rect class="extension" x="0" y="0" width="109.5" height="33.75" rx="3.75" ry="3.75" />
<text x="54.75" y="22.5" text-anchor="middle" class="extension">Extension</text>
</g>
<g transform="translate(400.5 161.25)">
<rect class="fhir" x="0" y="0" width="151.5" height="33.75" rx="3.75" ry="3.75" />
<text x="75.75" y="22.5" text-anchor="middle" class="fhir">Base Resource</text>
</g>
<g transform="translate(559.5 161.25)">
<rect class="element" x="0" y="0" width="183" height="33.75" rx="3.75" ry="3.75" />
<text x="91.5" y="22.5" text-anchor="middle" class="element">Resource Element</text>
</g>
<g transform="translate(750 161.25)">
<rect class="valueSet" x="0" y="0" width="99" height="33.75" rx="3.75" ry="3.75" />
<text x="49.5" y="22.5" text-anchor="middle" class="valueSet">ValueSet</text>
</g>
</g>
</svg>
