<?xml version="1.0"?>
<?xml-stylesheet type="text/css" href="FocusGraph.css" ?>
<!DOCTYPE svg PUBLIC "-//W3C//DTD SVG 1.1//EN" "http://www.w3.org/Graphics/SVG/1.1/DTD/svg11.dtd">
<svg xmlns="http://www.w3.org/2000/svg" version="1.1" width="1079.91" height="746.25">
<defs>
<marker id="arrowStart" markerWidth="3.75" markerHeight="3.75" markerUnits="px" refX="1.88" refY="1.88">
<circle class="connector" cx="1.88" cy="1.88" r="1.88" />
</marker>
<marker id="arrowEnd" markerWidth="7.5" markerHeight="7.5" markerUnits="px" refX="7.5" refY="3.75">
<polygon class="connector" points="0 0 7.5 3.75 0 7.5" />
</marker>
</defs>
<g>
<g transform="translate(3.75 3.75)">
<a href="StructureDefinition-MGFinding.html" target="_top">
<rect class="profile" x="0" y="0" width="102.6" height="26.25" rx="3.75" ry="3.75" />
</a>
<a href="StructureDefinition-MGFinding.html" target="_top">
<text x="5.62" y="18.75" text-anchor="left" class="profile">Mg Findings</text>
</a>
</g>
<line class="connector" marker-end="url(#arrowEnd)" x1="136.35" y1="16.88" x2="196.35" y2="16.88" />
<text x="140.1" y="13.12" text-anchor="right" class="lhsText">0..*</text>
<line class="connector" marker-start="url(#arrowStart)" x1="106.35" y1="16.88" x2="136.35" y2="16.88" />
<line class="connector" x1="136.35" y1="16.88" x2="136.35" y2="16.88" />
</g>
<g>
<g transform="translate(196.35 3.75)">
<a href="StructureDefinition-AbnormalitySkinLesion.html" target="_top">
<rect class="focus" x="0" y="0" width="98.04" height="26.25" rx="3.75" ry="3.75" />
</a>
<a href="StructureDefinition-AbnormalitySkinLesion.html" target="_top">
<text x="5.62" y="18.75" text-anchor="left" class="focus">Skin Lesion</text>
</a>
</g>
<line class="connector" marker-end="url(#arrowEnd)" x1="324.39" y1="16.88" x2="384.39" y2="16.88" />
<text x="328.14" y="13.12" text-anchor="right" class="lhsText">1..1</text>
<line class="connector" marker-end="url(#arrowEnd)" x1="324.39" y1="50.62" x2="384.39" y2="50.62" />
<text x="328.14" y="46.88" text-anchor="right" class="lhsText">1..1</text>
<line class="connector" marker-end="url(#arrowEnd)" x1="324.39" y1="84.38" x2="384.39" y2="84.38" />
<text x="328.14" y="80.62" text-anchor="right" class="lhsText">0..*</text>
<line class="connector" marker-end="url(#arrowEnd)" x1="324.39" y1="508.12" x2="384.39" y2="508.12" />
<text x="328.14" y="504.38" text-anchor="right" class="lhsText">0..*</text>
<line class="connector" marker-start="url(#arrowStart)" x1="294.39" y1="16.88" x2="324.39" y2="16.88" />
<line class="connector" x1="324.39" y1="16.88" x2="324.39" y2="508.12" />
</g>
<g>
<g transform="translate(384.39 3.75)">
<a href="StructureDefinition-AbnormalitySkinLesion-definitions.html#Observation.code" target="_top">
<rect class="element" x="0" y="0" width="52.22" height="26.25" rx="3.75" ry="3.75" />
</a>
<a href="StructureDefinition-AbnormalitySkinLesion-definitions.html#Observation.code" target="_top">
<text x="5.62" y="18.75" text-anchor="left" class="element">Code</text>
</a>
</g>
<line class="connector" marker-end="url(#arrowEnd)" x1="466.61" y1="16.88" x2="586.61" y2="16.88" />
<text x="470.36" y="13.12" text-anchor="right" class="lhsText">pattern </text>
<line class="connector" marker-start="url(#arrowStart)" x1="436.61" y1="16.88" x2="466.61" y2="16.88" />
<line class="connector" x1="466.61" y1="16.88" x2="466.61" y2="16.88" />
</g>
<g>
<g transform="translate(586.61 3.75)">
<a href="CodeSystem-ObservationCodesCS.html" target="_top">
<rect class="value" x="0" y="0" width="436.03" height="26.25" rx="3.75" ry="3.75" />
</a>
<a href="CodeSystem-ObservationCodesCS.html" target="_top">
<text x="5.62" y="18.75" text-anchor="left" class="value">ObservationCodesCS#abnormalitySkinLesionObservation</text>
</a>
</g>
</g>
<g>
<g transform="translate(384.39 37.5)">
<a href="StructureDefinition-AbnormalitySkinLesion-definitions.html#Observation.bodySite" target="_top">
<rect class="element" x="0" y="0" width="78.79" height="26.25" rx="3.75" ry="3.75" />
</a>
<a href="StructureDefinition-AbnormalitySkinLesion-definitions.html#Observation.bodySite" target="_top">
<text x="5.62" y="18.75" text-anchor="left" class="element">BodySite</text>
</a>
</g>
<line class="connector" marker-end="url(#arrowEnd)" x1="493.18" y1="50.62" x2="553.18" y2="50.62" />
<text x="496.93" y="46.88" text-anchor="right" class="lhsText">1..*</text>
<line class="connector" marker-start="url(#arrowStart)" x1="463.18" y1="50.62" x2="493.18" y2="50.62" />
<line class="connector" x1="493.18" y1="50.62" x2="493.18" y2="50.62" />
</g>
<g>
<g transform="translate(553.18 37.5)">
<a href="StructureDefinition-AbnormalitySkinLesion-definitions.html#Observation.bodySite.extension" target="_top">
<rect class="element" x="0" y="0" width="83.38" height="26.25" rx="3.75" ry="3.75" />
</a>
<a href="StructureDefinition-AbnormalitySkinLesion-definitions.html#Observation.bodySite.extension" target="_top">
<text x="5.62" y="18.75" text-anchor="left" class="element">extension</text>
</a>
</g>
<line class="connector" marker-end="url(#arrowEnd)" x1="666.56" y1="50.62" x2="696.56" y2="50.62" />
<line class="connector" marker-start="url(#arrowStart)" x1="636.56" y1="50.62" x2="666.56" y2="50.62" />
<line class="connector" x1="666.56" y1="50.62" x2="666.56" y2="50.62" />
</g>
<g>
<g transform="translate(696.56 37.5)">
<a href="StructureDefinition-BreastBodyLocationExtension.html" target="_top">
<rect class="extension" x="0" y="0" width="160.33" height="26.25" rx="3.75" ry="3.75" />
</a>
<a href="StructureDefinition-BreastBodyLocationExtension.html" target="_top">
<text x="5.62" y="18.75" text-anchor="left" class="extension">BreastBodyLocation</text>
</a>
</g>
</g>
<g>
<g transform="translate(384.39 71.25)">
<a href="StructureDefinition-AbnormalitySkinLesion-definitions.html#Observation.component" target="_top">
<rect class="element" x="0" y="0" width="106.26" height="26.25" rx="3.75" ry="3.75" />
</a>
<a href="StructureDefinition-AbnormalitySkinLesion-definitions.html#Observation.component" target="_top">
<text x="5.62" y="18.75" text-anchor="left" class="element">Components</text>
</a>
</g>
<line class="connector" marker-end="url(#arrowEnd)" x1="520.65" y1="84.38" x2="580.65" y2="84.38" />
<text x="524.4" y="80.62" text-anchor="right" class="lhsText">0..*</text>
<line class="connector" marker-end="url(#arrowEnd)" x1="520.65" y1="118.12" x2="580.65" y2="118.12" />
<text x="524.4" y="114.38" text-anchor="right" class="lhsText">0..1</text>
<line class="connector" marker-end="url(#arrowEnd)" x1="520.65" y1="151.88" x2="580.65" y2="151.88" />
<text x="524.4" y="148.12" text-anchor="right" class="lhsText">0..1</text>
<line class="connector" marker-end="url(#arrowEnd)" x1="520.65" y1="185.62" x2="580.65" y2="185.62" />
<text x="524.4" y="181.88" text-anchor="right" class="lhsText">0..*</text>
<line class="connector" marker-end="url(#arrowEnd)" x1="520.65" y1="219.38" x2="580.65" y2="219.38" />
<text x="524.4" y="215.62" text-anchor="right" class="lhsText">0..*</text>
<line class="connector" marker-end="url(#arrowEnd)" x1="520.65" y1="253.12" x2="580.65" y2="253.12" />
<text x="524.4" y="249.38" text-anchor="right" class="lhsText">0..1</text>
<line class="connector" marker-end="url(#arrowEnd)" x1="520.65" y1="286.88" x2="580.65" y2="286.88" />
<text x="524.4" y="283.12" text-anchor="right" class="lhsText">0..*</text>
<line class="connector" marker-end="url(#arrowEnd)" x1="520.65" y1="320.62" x2="580.65" y2="320.62" />
<text x="524.4" y="316.88" text-anchor="right" class="lhsText">0..1</text>
<line class="connector" marker-end="url(#arrowEnd)" x1="520.65" y1="354.38" x2="580.65" y2="354.38" />
<text x="524.4" y="350.62" text-anchor="right" class="lhsText">0..3</text>
<line class="connector" marker-end="url(#arrowEnd)" x1="520.65" y1="388.12" x2="580.65" y2="388.12" />
<text x="524.4" y="384.38" text-anchor="right" class="lhsText">0..1</text>
<line class="connector" marker-end="url(#arrowEnd)" x1="520.65" y1="431.25" x2="580.65" y2="431.25" />
<text x="524.4" y="427.5" text-anchor="right" class="lhsText">0..*</text>
<line class="connector" marker-end="url(#arrowEnd)" x1="520.65" y1="474.38" x2="580.65" y2="474.38" />
<text x="524.4" y="470.62" text-anchor="right" class="lhsText">0..1</text>
<line class="connector" marker-start="url(#arrowStart)" x1="490.65" y1="84.38" x2="520.65" y2="84.38" />
<line class="connector" x1="520.65" y1="84.38" x2="520.65" y2="474.38" />
</g>
<g>
<g transform="translate(580.65 71.25)">
<a href="StructureDefinition-AbnormalitySkinLesion-definitions.html#Observation.component:correspondsWith" target="_top">
<rect class="element" x="0" y="0" width="144.71" height="26.25" rx="3.75" ry="3.75" />
</a>
<a href="StructureDefinition-AbnormalitySkinLesion-definitions.html#Observation.component:correspondsWith" target="_top">
<text x="5.62" y="18.75" text-anchor="left" class="element">Corresponds With</text>
</a>
</g>
<line class="connector" marker-end="url(#arrowEnd)" x1="755.36" y1="84.38" x2="815.36" y2="84.38" />
<text x="759.11" y="80.62" text-anchor="right" class="lhsText">bind</text>
<line class="connector" marker-start="url(#arrowStart)" x1="725.36" y1="84.38" x2="755.36" y2="84.38" />
<line class="connector" x1="755.36" y1="84.38" x2="755.36" y2="84.38" />
</g>
<g>
<g transform="translate(815.36 71.25)">
<a href="ValueSet-CorrespondsWithVS.html" target="_top">
<rect class="valueSet" x="0" y="0" width="162.11" height="26.25" rx="3.75" ry="3.75" />
</a>
<a href="ValueSet-CorrespondsWithVS.html" target="_top">
<text x="5.62" y="18.75" text-anchor="left" class="valueSet">CorrespondsWithVS</text>
</a>
</g>
</g>
<g>
<g transform="translate(580.65 105)">
<a href="StructureDefinition-AbnormalitySkinLesion-definitions.html#Observation.component:density" target="_top">
<rect class="element" x="0" y="0" width="67.79" height="26.25" rx="3.75" ry="3.75" />
</a>
<a href="StructureDefinition-AbnormalitySkinLesion-definitions.html#Observation.component:density" target="_top">
<text x="5.62" y="18.75" text-anchor="left" class="element">Density</text>
</a>
</g>
<line class="connector" marker-end="url(#arrowEnd)" x1="678.43" y1="118.12" x2="738.43" y2="118.12" />
<text x="682.18" y="114.38" text-anchor="right" class="lhsText">bind</text>
<line class="connector" marker-start="url(#arrowStart)" x1="648.43" y1="118.12" x2="678.43" y2="118.12" />
<line class="connector" x1="678.43" y1="118.12" x2="678.43" y2="118.12" />
</g>
<g>
<g transform="translate(738.43 105)">
<a href="ValueSet-LesionDensityVS.html" target="_top">
<rect class="valueSet" x="0" y="0" width="138.33" height="26.25" rx="3.75" ry="3.75" />
</a>
<a href="ValueSet-LesionDensityVS.html" target="_top">
<text x="5.62" y="18.75" text-anchor="left" class="valueSet">LesionDensityVS</text>
</a>
</g>
</g>
<g>
<g transform="translate(580.65 138.75)">
<a href="StructureDefinition-AbnormalitySkinLesion-definitions.html#Observation.component:margin" target="_top">
<rect class="element" x="0" y="0" width="63.2" height="26.25" rx="3.75" ry="3.75" />
</a>
<a href="StructureDefinition-AbnormalitySkinLesion-definitions.html#Observation.component:margin" target="_top">
<text x="5.62" y="18.75" text-anchor="left" class="element">Margin</text>
</a>
</g>
<line class="connector" marker-end="url(#arrowEnd)" x1="673.85" y1="151.88" x2="733.85" y2="151.88" />
<text x="677.6" y="148.12" text-anchor="right" class="lhsText">bind</text>
<line class="connector" marker-start="url(#arrowStart)" x1="643.85" y1="151.88" x2="673.85" y2="151.88" />
<line class="connector" x1="673.85" y1="151.88" x2="673.85" y2="151.88" />
</g>
<g>
<g transform="translate(733.85 138.75)">
<a href="ValueSet-MarginVS.html" target="_top">
<rect class="valueSet" x="0" y="0" width="85.18" height="26.25" rx="3.75" ry="3.75" />
</a>
<a href="ValueSet-MarginVS.html" target="_top">
<text x="5.62" y="18.75" text-anchor="left" class="valueSet">MarginVS</text>
</a>
</g>
</g>
<g>
<g transform="translate(580.65 172.5)">
<a href="StructureDefinition-AbnormalitySkinLesion-definitions.html#Observation.component:notPreviouslySeen" target="_top">
<rect class="element" x="0" y="0" width="162.14" height="26.25" rx="3.75" ry="3.75" />
</a>
<a href="StructureDefinition-AbnormalitySkinLesion-definitions.html#Observation.component:notPreviouslySeen" target="_top">
<text x="5.62" y="18.75" text-anchor="left" class="element">Not Previously Seen</text>
</a>
</g>
<line class="connector" marker-end="url(#arrowEnd)" x1="772.79" y1="185.62" x2="832.79" y2="185.62" />
<text x="776.54" y="181.88" text-anchor="right" class="lhsText">bind</text>
<line class="connector" marker-start="url(#arrowStart)" x1="742.79" y1="185.62" x2="772.79" y2="185.62" />
<line class="connector" x1="772.79" y1="185.62" x2="772.79" y2="185.62" />
</g>
<g>
<g transform="translate(832.79 172.5)">
<a href="ValueSet-NotPreviouslySeenVS.html" target="_top">
<rect class="valueSet" x="0" y="0" width="174.97" height="26.25" rx="3.75" ry="3.75" />
</a>
<a href="ValueSet-NotPreviouslySeenVS.html" target="_top">
<text x="5.62" y="18.75" text-anchor="left" class="valueSet">NotPreviouslySeenVS</text>
</a>
</g>
</g>
<g>
<g transform="translate(580.65 206.25)">
<a href="StructureDefinition-AbnormalitySkinLesion-definitions.html#Observation.component:obsChanges" target="_top">
<rect class="element" x="0" y="0" width="154.82" height="26.25" rx="3.75" ry="3.75" />
</a>
<a href="StructureDefinition-AbnormalitySkinLesion-definitions.html#Observation.component:obsChanges" target="_top">
<text x="5.62" y="18.75" text-anchor="left" class="element">Observed Changes</text>
</a>
</g>
<line class="connector" marker-end="url(#arrowEnd)" x1="765.47" y1="219.38" x2="825.47" y2="219.38" />
<text x="769.22" y="215.62" text-anchor="right" class="lhsText">bind</text>
<line class="connector" marker-start="url(#arrowStart)" x1="735.47" y1="219.38" x2="765.47" y2="219.38" />
<line class="connector" x1="765.47" y1="219.38" x2="765.47" y2="219.38" />
</g>
<g>
<g transform="translate(825.47 206.25)">
<a href="ValueSet-ObservedChangesVS.html" target="_top">
<rect class="valueSet" x="0" y="0" width="172.22" height="26.25" rx="3.75" ry="3.75" />
</a>
<a href="ValueSet-ObservedChangesVS.html" target="_top">
<text x="5.62" y="18.75" text-anchor="left" class="valueSet">ObservedChangesVS</text>
</a>
</g>
</g>
<g>
<g transform="translate(580.65 240)">
<a href="StructureDefinition-AbnormalitySkinLesion-definitions.html#Observation.component:observedCount" target="_top">
<rect class="element" x="0" y="0" width="132.83" height="26.25" rx="3.75" ry="3.75" />
</a>
<a href="StructureDefinition-AbnormalitySkinLesion-definitions.html#Observation.component:observedCount" target="_top">
<text x="5.62" y="18.75" text-anchor="left" class="element">Observed Count</text>
</a>
</g>
</g>
<g>
<g transform="translate(580.65 273.75)">
<a href="StructureDefinition-AbnormalitySkinLesion-definitions.html#Observation.component:obsDistribution" target="_top">
<rect class="element" x="0" y="0" width="171.29" height="26.25" rx="3.75" ry="3.75" />
</a>
<a href="StructureDefinition-AbnormalitySkinLesion-definitions.html#Observation.component:obsDistribution" target="_top">
<text x="5.62" y="18.75" text-anchor="left" class="element">Observed Distribution</text>
</a>
</g>
<line class="connector" marker-end="url(#arrowEnd)" x1="781.93" y1="286.88" x2="841.93" y2="286.88" />
<text x="785.68" y="283.12" text-anchor="right" class="lhsText">bind</text>
<line class="connector" marker-start="url(#arrowStart)" x1="751.93" y1="286.88" x2="781.93" y2="286.88" />
<line class="connector" x1="781.93" y1="286.88" x2="781.93" y2="286.88" />
</g>
<g>
<g transform="translate(841.93 273.75)">
<a href="ValueSet-CalcificationDistributionVS.html" target="_top">
<rect class="valueSet" x="0" y="0" width="206.1" height="26.25" rx="3.75" ry="3.75" />
</a>
<a href="ValueSet-CalcificationDistributionVS.html" target="_top">
<text x="5.62" y="18.75" text-anchor="left" class="valueSet">CalcificationDistributionVS</text>
</a>
</g>
</g>
<g>
<g transform="translate(580.65 307.5)">
<a href="StructureDefinition-AbnormalitySkinLesion-definitions.html#Observation.component:obsDistRegionSize" target="_top">
<rect class="element" x="0" y="0" width="264.72" height="26.25" rx="3.75" ry="3.75" />
</a>
<a href="StructureDefinition-AbnormalitySkinLesion-definitions.html#Observation.component:obsDistRegionSize" target="_top">
<text x="5.62" y="18.75" text-anchor="left" class="element">Observed Distribution Region Size</text>
</a>
</g>
</g>
<g>
<g transform="translate(580.65 341.25)">
<a href="StructureDefinition-AbnormalitySkinLesion-definitions.html#Observation.component:obsSize" target="_top">
<rect class="element" x="0" y="0" width="120.92" height="26.25" rx="3.75" ry="3.75" />
</a>
<a href="StructureDefinition-AbnormalitySkinLesion-definitions.html#Observation.component:obsSize" target="_top">
<text x="5.62" y="18.75" text-anchor="left" class="element">Observed Size</text>
</a>
</g>
</g>
<g>
<g transform="translate(580.65 375)">
<a href="StructureDefinition-AbnormalitySkinLesion-definitions.html#Observation.component:orientation" target="_top">
<rect class="element" x="0" y="0" width="93.44" height="26.25" rx="3.75" ry="3.75" />
</a>
<a href="StructureDefinition-AbnormalitySkinLesion-definitions.html#Observation.component:orientation" target="_top">
<text x="5.62" y="18.75" text-anchor="left" class="element">Orientation</text>
</a>
</g>
<line class="connector" marker-end="url(#arrowEnd)" x1="704.09" y1="388.12" x2="764.09" y2="388.12" />
<text x="707.84" y="384.38" text-anchor="right" class="lhsText">bind</text>
<line class="connector" marker-start="url(#arrowStart)" x1="674.09" y1="388.12" x2="704.09" y2="388.12" />
<line class="connector" x1="704.09" y1="388.12" x2="704.09" y2="388.12" />
</g>
<g>
<g transform="translate(764.09 375)">
<a href="ValueSet-OrientationVS.html" target="_top">
<rect class="valueSet" x="0" y="0" width="115.43" height="26.25" rx="3.75" ry="3.75" />
</a>
<a href="ValueSet-OrientationVS.html" target="_top">
<text x="5.62" y="18.75" text-anchor="left" class="valueSet">OrientationVS</text>
</a>
</g>
</g>
<g>
<g transform="translate(580.65 408.75)">
<a href="StructureDefinition-AbnormalitySkinLesion-definitions.html#Observation.component:prevDemBy" target="_top">
<rect class="element" x="0" y="0" width="138.31" height="45" rx="3.75" ry="3.75" />
</a>
<a href="StructureDefinition-AbnormalitySkinLesion-definitions.html#Observation.component:prevDemBy" target="_top">
<text x="5.62" y="18.75" text-anchor="left" class="element">Previously</text>
</a>
<a href="StructureDefinition-AbnormalitySkinLesion-definitions.html#Observation.component:prevDemBy" target="_top">
<text x="5.62" y="37.5" text-anchor="left" class="element">Demonstrated by</text>
</a>
</g>
<line class="connector" marker-end="url(#arrowEnd)" x1="748.96" y1="421.88" x2="808.96" y2="421.88" />
<text x="752.71" y="418.12" text-anchor="right" class="lhsText">bind</text>
<line class="connector" marker-start="url(#arrowStart)" x1="718.96" y1="431.25" x2="748.96" y2="431.25" />
<line class="connector" x1="748.96" y1="421.88" x2="748.96" y2="431.25" />
</g>
<g>
<g transform="translate(808.96 408.75)">
<a href="ValueSet-PreviouslyDemonstratedByVS.html" target="_top">
<rect class="valueSet" x="0" y="0" width="233.57" height="26.25" rx="3.75" ry="3.75" />
</a>
<a href="ValueSet-PreviouslyDemonstratedByVS.html" target="_top">
<text x="5.62" y="18.75" text-anchor="left" class="valueSet">PreviouslyDemonstratedByVS</text>
</a>
</g>
</g>
<g>
<g transform="translate(580.65 461.25)">
<a href="StructureDefinition-AbnormalitySkinLesion-definitions.html#Observation.component:shape" target="_top">
<rect class="element" x="0" y="0" width="60.48" height="26.25" rx="3.75" ry="3.75" />
</a>
<a href="StructureDefinition-AbnormalitySkinLesion-definitions.html#Observation.component:shape" target="_top">
<text x="5.62" y="18.75" text-anchor="left" class="element">Shape</text>
</a>
</g>
<line class="connector" marker-end="url(#arrowEnd)" x1="671.13" y1="474.38" x2="731.13" y2="474.38" />
<text x="674.88" y="470.62" text-anchor="right" class="lhsText">bind</text>
<line class="connector" marker-start="url(#arrowStart)" x1="641.13" y1="474.38" x2="671.13" y2="474.38" />
<line class="connector" x1="671.13" y1="474.38" x2="671.13" y2="474.38" />
</g>
<g>
<g transform="translate(731.13 461.25)">
<a href="ValueSet-ShapeVS.html" target="_top">
<rect class="valueSet" x="0" y="0" width="82.47" height="26.25" rx="3.75" ry="3.75" />
</a>
<a href="ValueSet-ShapeVS.html" target="_top">
<text x="5.62" y="18.75" text-anchor="left" class="valueSet">ShapeVS</text>
</a>
</g>
</g>
<g>
<g transform="translate(384.39 495)">
<a href="StructureDefinition-AbnormalitySkinLesion-definitions.html#Observation.hasMember" target="_top">
<rect class="element" x="0" y="0" width="102.57" height="26.25" rx="3.75" ry="3.75" />
</a>
<a href="StructureDefinition-AbnormalitySkinLesion-definitions.html#Observation.hasMember" target="_top">
<text x="5.62" y="18.75" text-anchor="left" class="element">HasMember</text>
</a>
</g>
<line class="connector" marker-end="url(#arrowEnd)" x1="516.95" y1="508.12" x2="576.95" y2="508.12" />
<text x="520.7" y="504.38" text-anchor="right" class="lhsText">0..1</text>
<line class="connector" marker-end="url(#arrowEnd)" x1="516.95" y1="541.88" x2="576.95" y2="541.88" />
<text x="520.7" y="538.12" text-anchor="right" class="lhsText">0..*</text>
<line class="connector" marker-end="url(#arrowEnd)" x1="516.95" y1="575.62" x2="576.95" y2="575.62" />
<text x="520.7" y="571.88" text-anchor="right" class="lhsText">0..*</text>
<line class="connector" marker-end="url(#arrowEnd)" x1="516.95" y1="609.38" x2="576.95" y2="609.38" />
<text x="520.7" y="605.62" text-anchor="right" class="lhsText">0..1</text>
<line class="connector" marker-start="url(#arrowStart)" x1="486.95" y1="508.12" x2="516.95" y2="508.12" />
<line class="connector" x1="516.95" y1="508.12" x2="516.95" y2="609.38" />
</g>
<g>
<g transform="translate(576.95 495)">
<a href="StructureDefinition-BreastAssessmentCategory.html" target="_top">
<rect class="profile" x="0" y="0" width="226.23" height="26.25" rx="3.75" ry="3.75" />
</a>
<a href="StructureDefinition-BreastAssessmentCategory.html" target="_top">
<text x="5.62" y="18.75" text-anchor="left" class="profile">Breast Assessment Category</text>
</a>
</g>
</g>
<g>
<g transform="translate(576.95 528.75)">
<a href="StructureDefinition-AssociatedFeature.html" target="_top">
<rect class="profile" x="0" y="0" width="154.82" height="26.25" rx="3.75" ry="3.75" />
</a>
<a href="StructureDefinition-AssociatedFeature.html" target="_top">
<text x="5.62" y="18.75" text-anchor="left" class="profile">Associated Feature</text>
</a>
</g>
</g>
<g>
<g transform="translate(576.95 562.5)">
<a href="StructureDefinition-ConsistentWith.html" target="_top">
<rect class="profile" x="0" y="0" width="128.23" height="26.25" rx="3.75" ry="3.75" />
</a>
<a href="StructureDefinition-ConsistentWith.html" target="_top">
<text x="5.62" y="18.75" text-anchor="left" class="profile">Consistent With</text>
</a>
</g>
</g>
<g>
<g transform="translate(576.95 596.25)">
<a href="StructureDefinition-TumorSatellite.html" target="_top">
<rect class="profile" x="0" y="0" width="123.65" height="26.25" rx="3.75" ry="3.75" />
</a>
<a href="StructureDefinition-TumorSatellite.html" target="_top">
<text x="5.62" y="18.75" text-anchor="left" class="profile">Tumor Satellite</text>
</a>
</g>
</g>
<g>
<g transform="translate(3.75 705)">
<rect class="focus" x="0" y="0" width="57.72" height="26.25" rx="3.75" ry="3.75" />
<text x="5.62" y="18.75" text-anchor="left" class="focus">Focus</text>
</g>
<g transform="translate(68.97 705)">
<rect class="profile" x="0" y="0" width="143.81" height="26.25" rx="3.75" ry="3.75" />
<text x="5.62" y="18.75" text-anchor="left" class="profile">Profiled Resource</text>
</g>
<g transform="translate(220.28 705)">
<rect class="extension" x="0" y="0" width="85.21" height="26.25" rx="3.75" ry="3.75" />
<text x="5.62" y="18.75" text-anchor="left" class="extension">Extension</text>
</g>
<g transform="translate(312.98 705)">
<rect class="element" x="0" y="0" width="148.39" height="26.25" rx="3.75" ry="3.75" />
<text x="5.62" y="18.75" text-anchor="left" class="element">Resource Element</text>
</g>
<g transform="translate(468.87 705)">
<rect class="valueSet" x="0" y="0" width="79.72" height="26.25" rx="3.75" ry="3.75" />
<text x="5.62" y="18.75" text-anchor="left" class="valueSet">ValueSet</text>
</g>
<g transform="translate(556.09 705)">
<rect class="value" x="0" y="0" width="54.98" height="26.25" rx="3.75" ry="3.75" />
<text x="5.62" y="18.75" text-anchor="left" class="value">Value</text>
</g>
</g>
</svg>
