<?xml version="1.0"?>
<!DOCTYPE svg PUBLIC "-//W3C//DTD SVG 1.1//EN" "http://www.w3.org/Graphics/SVG/1.1/DTD/svg11.dtd">
<svg xmlns="http://www.w3.org/2000/svg" version="1.1" width="421.49997" height="82.5">
<defs>
<marker id="arrowStart" markerWidth="3.75" markerHeight="3.75" markerUnits="px" refX="1.875" refY="1.875">
<circle fill="Black" stroke-width="0" cx="1.875" cy="1.875" r="1.875" />
</marker>
<marker id="arrowEnd" markerWidth="7.5" markerHeight="7.5" markerUnits="px" refX="7.5" refY="3.75">
<polygon fill="Black" stroke-width="0" points="0 0 7.5 3.75 0 7.5" />
</marker>
</defs>
<g>
<g>
<rect fill="LightBlue" stroke="Black" stroke-width="1.875" x="7.5" y="7.5" width="88.5" height="33.75" rx="3.75" ry="3.75" />
<a href="./StructureDefinition-BreastRadUSMass.html" target="_blank">
<title>'BreastRadUSMass'</title>
<text x="15" y="30">US Mass</text>
</a>
</g>
<line stroke="Black" stroke-width="1.875" marker-end="url(#arrowEnd)" x1="125.99999" y1="24.375" x2="156" y2="24.375" />
<line stroke="Black" stroke-width="1.875" marker-start="url(#arrowStart)" x1="96" y1="24.375" x2="125.99999" y2="24.375" />
<line stroke="Black" stroke-width="1.875" x1="125.99999" y1="24.375" x2="125.99999" y2="24.375" />
</g>
<g>
<g>
<rect fill="LightGreen" stroke="Black" stroke-width="1.875" x="156" y="7.5" width="67.5" height="33.75" rx="3.75" ry="3.75" />
<text x="163.5" y="30">Shape</text>
</g>
<line stroke="Black" stroke-width="1.875" marker-end="url(#arrowEnd)" x1="253.5" y1="33.75" x2="283.5" y2="33.75" />
<line stroke="Black" stroke-width="1.875" marker-start="url(#arrowStart)" x1="223.5" y1="24.375" x2="253.5" y2="24.375" />
<line stroke="Black" stroke-width="1.875" x1="253.5" y1="24.375" x2="253.5" y2="33.75" />
</g>
<g>
<g>
<rect fill="LightSalmon" stroke="Black" stroke-width="1.875" x="283.5" y="7.5" width="78" height="52.5" rx="3.75" ry="3.75" />
<a href="./ValueSet-UltraSoundShapeVS.html" target="_blank">
<title>'UltraSoundShapeVS'</title>
<text x="291" y="30">Shape</text>
</a>
<a href="./ValueSet-UltraSoundShapeVS.html" target="_blank">
<title>'UltraSoundShapeVS'</title>
<text x="291" y="48.75">Values</text>
</a>
</g>
</g>
</svg>
