<?xml version="1.0"?>
<?xml-stylesheet type="text/css" href="FocusGraph.css" ?>
<!DOCTYPE svg PUBLIC "-//W3C//DTD SVG 1.1//EN" "http://www.w3.org/Graphics/SVG/1.1/DTD/svg11.dtd">
<svg xmlns="http://www.w3.org/2000/svg" version="1.1" width="1227.38" height="480">
<defs>
<marker id="arrowStart" markerWidth="3.75" markerHeight="3.75" markerUnits="px" refX="1.88" refY="1.88">
<circle class="connector" cx="1.88" cy="1.88" r="1.88" />
</marker>
<marker id="arrowEnd" markerWidth="7.5" markerHeight="7.5" markerUnits="px" refX="7.5" refY="3.75">
<polygon class="connector" points="0 0 7.5 3.75 0 7.5" />
</marker>
</defs>
<g>
<g transform="translate(7.5 7.5)">
<a href="StructureDefinition-BreastRadiologyComposition.html" target="_top">
<rect class="profile" x="0" y="0" width="130.5" height="71.25" rx="3.75" ry="3.75" />
</a>
<a href="StructureDefinition-BreastRadiologyComposition.html" target="_top">
<text x="65.25" y="22.5" text-anchor="middle" class="profile">Breast</text>
</a>
<a href="StructureDefinition-BreastRadiologyComposition.html" target="_top">
<text x="65.25" y="41.25" text-anchor="middle" class="profile">Radiology</text>
</a>
<a href="StructureDefinition-BreastRadiologyComposition.html" target="_top">
<text x="65.25" y="60" text-anchor="middle" class="profile">Composition</text>
</a>
</g>
<line class="connector" marker-end="url(#arrowEnd)" x1="168" y1="33.75" x2="228" y2="33.75" />
<text x="171.75" y="30" text-anchor="right" class="lhsText">0..*</text>
<line class="connector" marker-start="url(#arrowStart)" x1="138" y1="43.12" x2="168" y2="43.12" />
<line class="connector" x1="168" y1="33.75" x2="168" y2="43.12" />
</g>
<g>
<g transform="translate(228 7.5)">
<a href="StructureDefinition-FindingsRightBreast.html" target="_top">
<rect class="focus" x="0" y="0" width="141" height="52.5" rx="3.75" ry="3.75" />
</a>
<a href="StructureDefinition-FindingsRightBreast.html" target="_top">
<text x="70.5" y="22.5" text-anchor="middle" class="focus">Findings</text>
</a>
<a href="StructureDefinition-FindingsRightBreast.html" target="_top">
<text x="70.5" y="41.25" text-anchor="middle" class="focus">Right Breast</text>
</a>
</g>
<line class="connector" marker-end="url(#arrowEnd)" x1="399" y1="24.38" x2="459" y2="24.38" />
<text x="402.75" y="20.62" text-anchor="right" class="lhsText">1..1</text>
<line class="connector" marker-end="url(#arrowEnd)" x1="399" y1="65.62" x2="459" y2="65.62" />
<text x="402.75" y="61.88" text-anchor="right" class="lhsText">1..1</text>
<line class="connector" marker-end="url(#arrowEnd)" x1="399" y1="106.88" x2="459" y2="106.88" />
<text x="402.75" y="103.12" text-anchor="right" class="lhsText">0..1</text>
<line class="connector" marker-end="url(#arrowEnd)" x1="399" y1="148.12" x2="459" y2="148.12" />
<text x="402.75" y="144.38" text-anchor="right" class="lhsText">0..*</text>
<line class="connector" marker-start="url(#arrowStart)" x1="369" y1="33.75" x2="399" y2="33.75" />
<line class="connector" x1="399" y1="24.38" x2="399" y2="148.12" />
</g>
<g>
<g transform="translate(459 7.5)">
<a href="StructureDefinition-FindingsRightBreast-definitions.html#Observation.code" target="_top">
<rect class="element" x="0" y="0" width="57" height="33.75" rx="3.75" ry="3.75" />
</a>
<a href="StructureDefinition-FindingsRightBreast-definitions.html#Observation.code" target="_top">
<text x="28.5" y="22.5" text-anchor="middle" class="element">Code</text>
</a>
</g>
<line class="connector" marker-end="url(#arrowEnd)" x1="546" y1="24.38" x2="666" y2="24.38" />
<text x="549.75" y="20.62" text-anchor="right" class="lhsText">pattern </text>
<line class="connector" marker-start="url(#arrowStart)" x1="516" y1="24.38" x2="546" y2="24.38" />
<line class="connector" x1="546" y1="24.38" x2="546" y2="24.38" />
</g>
<g>
<g transform="translate(666 7.5)">
<a href="http://hl7.org/fhir/us/breast-radiology/CodeSystem/ObservationCodesCS" target="_top">
<rect class="value" x="0" y="0" width="529.5" height="33.75" rx="3.75" ry="3.75" />
</a>
<a href="http://hl7.org/fhir/us/breast-radiology/CodeSystem/ObservationCodesCS" target="_top">
<text x="264.75" y="22.5" text-anchor="middle" class="value">ObservationCodesCS#findingsRightBreastObservation</text>
</a>
</g>
</g>
<g>
<g transform="translate(459 48.75)">
<a href="StructureDefinition-FindingsRightBreast-definitions.html#Observation.bodySite" target="_top">
<rect class="element" x="0" y="0" width="109.5" height="33.75" rx="3.75" ry="3.75" />
</a>
<a href="StructureDefinition-FindingsRightBreast-definitions.html#Observation.bodySite" target="_top">
<text x="54.75" y="22.5" text-anchor="middle" class="element">Body Site</text>
</a>
</g>
<line class="connector" marker-end="url(#arrowEnd)" x1="598.5" y1="65.62" x2="718.5" y2="65.62" />
<text x="602.25" y="61.88" text-anchor="right" class="lhsText">pattern </text>
<line class="connector" marker-start="url(#arrowStart)" x1="568.5" y1="65.62" x2="598.5" y2="65.62" />
<line class="connector" x1="598.5" y1="65.62" x2="598.5" y2="65.62" />
</g>
<g>
<g transform="translate(718.5 48.75)">
<a href="http://snomed.info/sct" target="_top">
<rect class="value" x="0" y="0" width="141" height="33.75" rx="3.75" ry="3.75" />
</a>
<a href="http://snomed.info/sct" target="_top">
<text x="70.5" y="22.5" text-anchor="middle" class="value">sct#73056007</text>
</a>
</g>
</g>
<g>
<g transform="translate(459 90)">
<a href="StructureDefinition-FindingsRightBreast-definitions.html#Observation.value[x]" target="_top">
<rect class="element" x="0" y="0" width="67.5" height="33.75" rx="3.75" ry="3.75" />
</a>
<a href="StructureDefinition-FindingsRightBreast-definitions.html#Observation.value[x]" target="_top">
<text x="33.75" y="22.5" text-anchor="middle" class="element">Value</text>
</a>
</g>
<line class="connector" marker-end="url(#arrowEnd)" x1="556.5" y1="106.88" x2="616.5" y2="106.88" />
<text x="560.25" y="103.12" text-anchor="right" class="lhsText">bind</text>
<line class="connector" marker-start="url(#arrowStart)" x1="526.5" y1="106.88" x2="556.5" y2="106.88" />
<line class="connector" x1="556.5" y1="106.88" x2="556.5" y2="106.88" />
</g>
<g>
<g transform="translate(616.5 90)">
<a href="ValueSet-BiRadsAssessmentCategoryVS.html" target="_top">
<rect class="valueSet" x="0" y="0" width="288" height="33.75" rx="3.75" ry="3.75" />
</a>
<a href="ValueSet-BiRadsAssessmentCategoryVS.html" target="_top">
<text x="144" y="22.5" text-anchor="middle" class="valueSet">BiRadsAssessmentCategoryVS</text>
</a>
</g>
</g>
<g>
<g transform="translate(459 131.25)">
<a href="StructureDefinition-FindingsRightBreast-definitions.html#Observation.hasMember" target="_top">
<rect class="element" x="0" y="0" width="109.5" height="33.75" rx="3.75" ry="3.75" />
</a>
<a href="StructureDefinition-FindingsRightBreast-definitions.html#Observation.hasMember" target="_top">
<text x="54.75" y="22.5" text-anchor="middle" class="element">HasMember</text>
</a>
</g>
<line class="connector" marker-end="url(#arrowEnd)" x1="598.5" y1="148.12" x2="658.5" y2="148.12" />
<text x="602.25" y="144.38" text-anchor="right" class="lhsText">0..1</text>
<line class="connector" marker-end="url(#arrowEnd)" x1="598.5" y1="189.38" x2="658.5" y2="189.38" />
<text x="602.25" y="185.62" text-anchor="right" class="lhsText">0..1</text>
<line class="connector" marker-end="url(#arrowEnd)" x1="598.5" y1="230.62" x2="658.5" y2="230.62" />
<text x="602.25" y="226.88" text-anchor="right" class="lhsText">0..1</text>
<line class="connector" marker-end="url(#arrowEnd)" x1="598.5" y1="281.25" x2="658.5" y2="281.25" />
<text x="602.25" y="277.5" text-anchor="right" class="lhsText">0..1</text>
<line class="connector" marker-end="url(#arrowEnd)" x1="598.5" y1="331.88" x2="658.5" y2="331.88" />
<text x="602.25" y="328.12" text-anchor="right" class="lhsText">0..*</text>
<line class="connector" marker-start="url(#arrowStart)" x1="568.5" y1="148.12" x2="598.5" y2="148.12" />
<line class="connector" x1="598.5" y1="148.12" x2="598.5" y2="331.88" />
</g>
<g>
<g transform="translate(658.5 131.25)">
<a href="StructureDefinition-MGFinding.html" target="_top">
<rect class="profile" x="0" y="0" width="130.5" height="33.75" rx="3.75" ry="3.75" />
</a>
<a href="StructureDefinition-MGFinding.html" target="_top">
<text x="65.25" y="22.5" text-anchor="middle" class="profile">Mg Findings</text>
</a>
</g>
</g>
<g>
<g transform="translate(658.5 172.5)">
<a href="StructureDefinition-MRIFinding.html" target="_top">
<rect class="profile" x="0" y="0" width="141" height="33.75" rx="3.75" ry="3.75" />
</a>
<a href="StructureDefinition-MRIFinding.html" target="_top">
<text x="70.5" y="22.5" text-anchor="middle" class="profile">MRI Findings</text>
</a>
</g>
</g>
<g>
<g transform="translate(658.5 213.75)">
<a href="StructureDefinition-USFinding.html" target="_top">
<rect class="profile" x="0" y="0" width="214.5" height="33.75" rx="3.75" ry="3.75" />
</a>
<a href="StructureDefinition-USFinding.html" target="_top">
<text x="107.25" y="22.5" text-anchor="middle" class="profile">Ultrasound Findings</text>
</a>
</g>
</g>
<g>
<g transform="translate(658.5 255)">
<a href="StructureDefinition-NMFinding.html" target="_top">
<rect class="profile" x="0" y="0" width="183" height="52.5" rx="3.75" ry="3.75" />
</a>
<a href="StructureDefinition-NMFinding.html" target="_top">
<text x="91.5" y="22.5" text-anchor="middle" class="profile">Nuclear Medicine</text>
</a>
<a href="StructureDefinition-NMFinding.html" target="_top">
<text x="91.5" y="41.25" text-anchor="middle" class="profile">Findings</text>
</a>
</g>
</g>
<g>
<g transform="translate(658.5 315)">
<a href="StructureDefinition-OtherFinding.html" target="_top">
<rect class="profile" x="0" y="0" width="162" height="33.75" rx="3.75" ry="3.75" />
</a>
<a href="StructureDefinition-OtherFinding.html" target="_top">
<text x="81" y="22.5" text-anchor="middle" class="profile">Other Findings</text>
</a>
</g>
</g>
<g>
<g transform="translate(7.5 431.25)">
<rect class="focus" x="0" y="0" width="67.5" height="33.75" rx="3.75" ry="3.75" />
<text x="33.75" y="22.5" text-anchor="middle" class="focus">Focus</text>
</g>
<g transform="translate(82.5 431.25)">
<rect class="profile" x="0" y="0" width="193.5" height="33.75" rx="3.75" ry="3.75" />
<text x="96.75" y="22.5" text-anchor="middle" class="profile">Profiled Resource</text>
</g>
<g transform="translate(283.5 431.25)">
<rect class="element" x="0" y="0" width="183" height="33.75" rx="3.75" ry="3.75" />
<text x="91.5" y="22.5" text-anchor="middle" class="element">Resource Element</text>
</g>
<g transform="translate(474 431.25)">
<rect class="valueSet" x="0" y="0" width="99" height="33.75" rx="3.75" ry="3.75" />
<text x="49.5" y="22.5" text-anchor="middle" class="valueSet">ValueSet</text>
</g>
<g transform="translate(580.5 431.25)">
<rect class="value" x="0" y="0" width="67.5" height="33.75" rx="3.75" ry="3.75" />
<text x="33.75" y="22.5" text-anchor="middle" class="value">Value</text>
</g>
</g>
</svg>
