<?xml version="1.0"?>
<!DOCTYPE svg PUBLIC "-//W3C//DTD SVG 1.1//EN" "http://www.w3.org/Graphics/SVG/1.1/DTD/svg11.dtd">
<svg xmlns="http://www.w3.org/2000/svg" version="1.1" width="747.00006" height="393.75">
<defs>
<marker id="arrowStart" markerWidth="3.75" markerHeight="3.75" markerUnits="px" refX="1.875" refY="1.875">
<circle fill="Black" stroke-width="0" cx="1.875" cy="1.875" r="1.875" />
</marker>
<marker id="arrowEnd" markerWidth="7.5" markerHeight="7.5" markerUnits="px" refX="7.5" refY="3.75">
<polygon fill="Black" stroke-width="0" points="0 0 7.5 3.75 0 7.5" />
</marker>
</defs>
<g>
<g transform="translate(7.5 7.5)">
<rect fill="LightBlue" stroke="Black" stroke-width="1.875" x="0" y="0" width="151.49998" height="52.5" rx="3.75" ry="3.75" />
<a href="./StructureDefinition-BreastRadMammoAssociatedFeatures.html" target="_blank">
<title>'BreastRadMammoAssociatedFeatures'</title>
<text x="75.74999" y="22.5" text-anchor="middle">Mg Associated</text>
</a>
<a href="./StructureDefinition-BreastRadMammoAssociatedFeatures.html" target="_blank">
<title>'BreastRadMammoAssociatedFeatures'</title>
<text x="75.74999" y="41.25" text-anchor="middle">Features</text>
</a>
</g>
<g transform="translate(7.5 67.5)">
<rect fill="LightBlue" stroke="Black" stroke-width="1.875" x="0" y="0" width="120" height="33.75" rx="3.75" ry="3.75" />
<a href="./StructureDefinition-BreastRadMammoFinding.html" target="_blank">
<title>'BreastRadMammoFinding'</title>
<text x="60" y="22.5" text-anchor="middle">Mg Finding</text>
</a>
</g>
<line stroke="Black" stroke-width="1.875" marker-end="url(#arrowEnd)" x1="188.99998" y1="24.375" x2="218.99998" y2="24.375" />
<line stroke="Black" stroke-width="1.875" marker-start="url(#arrowStart)" x1="158.99998" y1="33.75" x2="188.99998" y2="33.75" />
<line stroke="Black" stroke-width="1.875" marker-start="url(#arrowStart)" x1="127.5" y1="84.375" x2="188.99998" y2="84.375" />
<line stroke="Black" stroke-width="1.875" x1="188.99998" y1="24.375" x2="188.99998" y2="84.375" />
</g>
<g>
<g transform="translate(218.99998 7.5)">
<rect fill="LightGreen" stroke="Black" stroke-width="1.875" x="0" y="0" width="214.5" height="33.75" rx="3.75" ry="3.75" />
<text x="107.25" y="22.5" text-anchor="middle">Mg Arch. Distortion</text>
</g>
<line stroke="Black" stroke-width="1.875" marker-end="url(#arrowEnd)" x1="463.5" y1="24.375" x2="493.50003" y2="24.375" />
<line stroke="Black" stroke-width="1.875" marker-end="url(#arrowEnd)" x1="463.5" y1="65.625" x2="493.50003" y2="65.625" />
<line stroke="Black" stroke-width="1.875" marker-end="url(#arrowEnd)" x1="463.5" y1="106.875" x2="493.50003" y2="106.875" />
<line stroke="Black" stroke-width="1.875" marker-end="url(#arrowEnd)" x1="463.5" y1="148.125" x2="493.50003" y2="148.125" />
<line stroke="Black" stroke-width="1.875" marker-end="url(#arrowEnd)" x1="463.5" y1="189.375" x2="493.50003" y2="189.375" />
<line stroke="Black" stroke-width="1.875" marker-end="url(#arrowEnd)" x1="463.5" y1="230.625" x2="493.50003" y2="230.625" />
<line stroke="Black" stroke-width="1.875" marker-end="url(#arrowEnd)" x1="463.5" y1="271.875" x2="493.50003" y2="271.875" />
<line stroke="Black" stroke-width="1.875" marker-end="url(#arrowEnd)" x1="463.5" y1="313.125" x2="493.50003" y2="313.125" />
<line stroke="Black" stroke-width="1.875" marker-end="url(#arrowEnd)" x1="463.5" y1="354.375" x2="493.50003" y2="354.375" />
<line stroke="Black" stroke-width="1.875" marker-start="url(#arrowStart)" x1="433.5" y1="24.375" x2="463.5" y2="24.375" />
<line stroke="Black" stroke-width="1.875" x1="463.5" y1="24.375" x2="463.5" y2="354.375" />
</g>
<g>
<g transform="translate(493.50003 7.5)">
<rect fill="LightSalmon" stroke="Black" stroke-width="1.875" x="0" y="0" width="130.5" height="33.75" rx="3.75" ry="3.75" />
<a href="./StructureDefinition-BiRadsAssessmentCategory.html" target="_blank">
<title>'BiRadsAssessmentCategory'</title>
<text x="65.25" y="22.5" text-anchor="middle">BiRads Code</text>
</a>
</g>
<g transform="translate(493.50003 48.75)">
<rect fill="LightSalmon" stroke="Black" stroke-width="1.875" x="0" y="0" width="193.5" height="33.75" rx="3.75" ry="3.75" />
<a href="./StructureDefinition-CommonObservedChangeInDefinition.html" target="_blank">
<title>'CommonObservedChangeInDefinition'</title>
<text x="96.75" y="22.5" text-anchor="middle">Definition Change</text>
</a>
</g>
<g transform="translate(493.50003 90)">
<rect fill="LightSalmon" stroke="Black" stroke-width="1.875" x="0" y="0" width="151.49998" height="33.75" rx="3.75" ry="3.75" />
<a href="./StructureDefinition-CommonObservedChangeInNumber.html" target="_blank">
<title>'CommonObservedChangeInNumber'</title>
<text x="75.74999" y="22.5" text-anchor="middle">Number Change</text>
</a>
</g>
<g transform="translate(493.50003 131.25)">
<rect fill="LightSalmon" stroke="Black" stroke-width="1.875" x="0" y="0" width="193.5" height="33.75" rx="3.75" ry="3.75" />
<a href="./StructureDefinition-CommonObservedChangeInProminance.html" target="_blank">
<title>'CommonObservedChangeInProminance'</title>
<text x="96.75" y="22.5" text-anchor="middle">Prominance Change</text>
</a>
</g>
<g transform="translate(493.50003 172.5)">
<rect fill="LightSalmon" stroke="Black" stroke-width="1.875" x="0" y="0" width="130.5" height="33.75" rx="3.75" ry="3.75" />
<a href="./StructureDefinition-CommonObservedChangeInSize.html" target="_blank">
<title>'CommonObservedChangeInSize'</title>
<text x="65.25" y="22.5" text-anchor="middle">Size Change</text>
</a>
</g>
<g transform="translate(493.50003 213.75)">
<rect fill="LightSalmon" stroke="Black" stroke-width="1.875" x="0" y="0" width="141" height="33.75" rx="3.75" ry="3.75" />
<a href="./StructureDefinition-CommonObservedChangeInState.html" target="_blank">
<title>'CommonObservedChangeInState'</title>
<text x="70.5" y="22.5" text-anchor="middle">State Change</text>
</a>
</g>
<g transform="translate(493.50003 255)">
<rect fill="LightSalmon" stroke="Black" stroke-width="1.875" x="0" y="0" width="57" height="33.75" rx="3.75" ry="3.75" />
<a href="./StructureDefinition-CommonSize.html" target="_blank">
<title>'CommonSize'</title>
<text x="28.5" y="22.5" text-anchor="middle">Size</text>
</a>
</g>
<g transform="translate(493.50003 296.25)">
<rect fill="LightSalmon" stroke="Black" stroke-width="1.875" x="0" y="0" width="130.5" height="33.75" rx="3.75" ry="3.75" />
<a href="./StructureDefinition-Orientation.html" target="_blank">
<title>'Orientation'</title>
<text x="65.25" y="22.5" text-anchor="middle">Orientation</text>
</a>
</g>
<g transform="translate(493.50003 337.5)">
<rect fill="LightSalmon" stroke="Black" stroke-width="1.875" x="0" y="0" width="183" height="33.75" rx="3.75" ry="3.75" />
<a href="./StructureDefinition-BreastBodyLocationExtension.html" target="_blank">
<title>'BreastBodyLocationExtension'</title>
<text x="91.5" y="22.5" text-anchor="middle">Breast Body Loc.</text>
</a>
</g>
</g>
</svg>
