<?xml version="1.0"?>
<!DOCTYPE svg PUBLIC "-//W3C//DTD SVG 1.1//EN" "http://www.w3.org/Graphics/SVG/1.1/DTD/svg11.dtd">
<svg xmlns="http://www.w3.org/2000/svg" version="1.1" width="621" height="345">
<defs>
<marker id="arrowStart" markerWidth="3.75" markerHeight="3.75" markerUnits="px" refX="1.875" refY="1.875">
<circle fill="Black" stroke-width="0" cx="1.875" cy="1.875" r="1.875" />
</marker>
<marker id="arrowEnd" markerWidth="7.5" markerHeight="7.5" markerUnits="px" refX="7.5" refY="3.75">
<polygon fill="Black" stroke-width="0" points="0 0 7.5 3.75 0 7.5" />
</marker>
</defs>
<g>
<g transform="translate(7.5 7.5)">
<rect fill="LightCyan" stroke="Black" stroke-width="1.875" x="0" y="0" width="151.49998" height="52.5" rx="3.75" ry="3.75" />
<a href="./StructureDefinition-PriorReportsExtension.html" target="_top">
<title>'PriorReportsExtension'</title>
<text x="75.74999" y="22.5" text-anchor="middle">Prior Reports</text>
</a>
<a href="./StructureDefinition-PriorReportsExtension.html" target="_top">
<title>'PriorReportsExtension'</title>
<text x="75.74999" y="41.25" text-anchor="middle">Extension</text>
</a>
</g>
<line stroke="Black" stroke-width="1.875" marker-end="url(#arrowEnd)" x1="188.99998" y1="43.125" x2="218.99998" y2="43.125" />
<line stroke="Black" stroke-width="1.875" marker-start="url(#arrowStart)" x1="158.99998" y1="33.75" x2="188.99998" y2="33.75" />
<line stroke="Black" stroke-width="1.875" x1="188.99998" y1="33.75" x2="188.99998" y2="43.125" />
</g>
<g>
<g transform="translate(218.99998 7.5)">
<rect fill="White" stroke="Black" stroke-width="1.875" x="0" y="0" width="109.49999" height="71.25" rx="3.75" ry="3.75" />
<text x="54.749996" y="22.5" text-anchor="middle">Breast</text>
<text x="54.749996" y="41.25" text-anchor="middle">Radiology</text>
<text x="54.749996" y="60" text-anchor="middle">Report</text>
</g>
<line stroke="Black" stroke-width="1.875" marker-end="url(#arrowEnd)" x1="358.5" y1="24.375" x2="388.5" y2="24.375" />
<line stroke="Black" stroke-width="1.875" marker-end="url(#arrowEnd)" x1="358.5" y1="65.625" x2="388.5" y2="65.625" />
<line stroke="Black" stroke-width="1.875" marker-end="url(#arrowEnd)" x1="358.5" y1="116.25" x2="388.5" y2="116.25" />
<line stroke="Black" stroke-width="1.875" marker-end="url(#arrowEnd)" x1="358.5" y1="176.25" x2="388.5" y2="176.25" />
<line stroke="Black" stroke-width="1.875" marker-end="url(#arrowEnd)" x1="358.5" y1="236.25" x2="388.5" y2="236.25" />
<line stroke="Black" stroke-width="1.875" marker-end="url(#arrowEnd)" x1="358.5" y1="296.25" x2="388.5" y2="296.25" />
<line stroke="Black" stroke-width="1.875" marker-start="url(#arrowStart)" x1="328.5" y1="43.125" x2="358.5" y2="43.125" />
<line stroke="Black" stroke-width="1.875" x1="358.5" y1="24.375" x2="358.5" y2="296.25" />
</g>
<g>
<g transform="translate(388.5 7.5)">
<rect fill="LightCyan" stroke="Black" stroke-width="1.875" x="0" y="0" width="172.5" height="33.75" rx="3.75" ry="3.75" />
<a href="./StructureDefinition-SectionPatientHistory.html" target="_top">
<title>'SectionPatientHistory'</title>
<text x="86.25" y="22.5" text-anchor="middle">Patient History</text>
</a>
</g>
<g transform="translate(388.5 48.75)">
<rect fill="LightCyan" stroke="Black" stroke-width="1.875" x="0" y="0" width="99" height="33.75" rx="3.75" ry="3.75" />
<a href="./StructureDefinition-SectionFindings.html" target="_top">
<title>'SectionFindings'</title>
<text x="49.5" y="22.5" text-anchor="middle">Findings</text>
</a>
</g>
<g transform="translate(388.5 90)">
<rect fill="LightBlue" stroke="Black" stroke-width="1.875" x="0" y="0" width="172.5" height="52.5" rx="3.75" ry="3.75" />
<a href="./StructureDefinition-RecommendationsExtension.html" target="_top">
<title>'RecommendationsExtension'</title>
<text x="86.25" y="22.5" text-anchor="middle">Recommendations</text>
</a>
<a href="./StructureDefinition-RecommendationsExtension.html" target="_top">
<title>'RecommendationsExtension'</title>
<text x="86.25" y="41.25" text-anchor="middle">Extension</text>
</a>
</g>
<g transform="translate(388.5 150)">
<rect fill="LightBlue" stroke="Black" stroke-width="1.875" x="0" y="0" width="151.49998" height="52.5" rx="3.75" ry="3.75" />
<a href="./StructureDefinition-PriorReportsExtension.html" target="_top">
<title>'PriorReportsExtension'</title>
<text x="75.74999" y="22.5" text-anchor="middle">Prior Reports</text>
</a>
<a href="./StructureDefinition-PriorReportsExtension.html" target="_top">
<title>'PriorReportsExtension'</title>
<text x="75.74999" y="41.25" text-anchor="middle">Extension</text>
</a>
</g>
<g transform="translate(388.5 210)">
<rect fill="LightBlue" stroke="Black" stroke-width="1.875" x="0" y="0" width="130.5" height="52.5" rx="3.75" ry="3.75" />
<a href="./StructureDefinition-ImpressionsExtension.html" target="_top">
<title>'ImpressionsExtension'</title>
<text x="65.25" y="22.5" text-anchor="middle">Impressions</text>
</a>
<a href="./StructureDefinition-ImpressionsExtension.html" target="_top">
<title>'ImpressionsExtension'</title>
<text x="65.25" y="41.25" text-anchor="middle">Extension</text>
</a>
</g>
<g transform="translate(388.5 270)">
<rect fill="LightBlue" stroke="Black" stroke-width="1.875" x="0" y="0" width="130.5" height="52.5" rx="3.75" ry="3.75" />
<a href="./StructureDefinition-PatientRiskExtension.html" target="_top">
<title>'PatientRiskExtension'</title>
<text x="65.25" y="22.5" text-anchor="middle">PatientRisk</text>
</a>
<a href="./StructureDefinition-PatientRiskExtension.html" target="_top">
<title>'PatientRiskExtension'</title>
<text x="65.25" y="41.25" text-anchor="middle">Extension</text>
</a>
</g>
</g>
</svg>
