<?xml version="1.0"?>
<!DOCTYPE svg PUBLIC "-//W3C//DTD SVG 1.1//EN" "http://www.w3.org/Graphics/SVG/1.1/DTD/svg11.dtd">
<svg xmlns="http://www.w3.org/2000/svg" version="1.1" width="663" height="615">
<defs>
<marker id="arrowStart" markerWidth="3.75" markerHeight="3.75" markerUnits="px" refX="1.875" refY="1.875">
<circle fill="Black" stroke-width="0" cx="1.875" cy="1.875" r="1.875" />
</marker>
<marker id="arrowEnd" markerWidth="7.5" markerHeight="7.5" markerUnits="px" refX="7.5" refY="3.75">
<polygon fill="Black" stroke-width="0" points="0 0 7.5 3.75 0 7.5" />
</marker>
</defs>
<g>
<g>
<rect fill="LightBlue" stroke="Black" stroke-width="1.875" x="7.5" y="7.5" width="130.5" height="33.75" rx="3.75" ry="3.75" />
<a href="./StructureDefinition-BreastRadSectionFindingsLeftBreast.html" target="_blank">
<title>'BreastRadSectionFindingsLeftBreast'</title>
<text x="15" y="30">Left Breast</text>
</a>
</g>
<g>
<rect fill="LightBlue" stroke="Black" stroke-width="1.875" x="7.5" y="48.75" width="141" height="33.75" rx="3.75" ry="3.75" />
<a href="./StructureDefinition-BreastRadSectionFindingsRightBreast.html" target="_blank">
<title>'BreastRadSectionFindingsRightBreast'</title>
<text x="15" y="71.25">Right Breast</text>
</a>
</g>
<line stroke="Black" stroke-width="1.875" marker-end="url(#arrowEnd)" x1="178.5" y1="24.375" x2="208.5" y2="24.375" />
<line stroke="Black" stroke-width="1.875" marker-start="url(#arrowStart)" x1="138" y1="24.375" x2="178.5" y2="24.375" />
<line stroke="Black" stroke-width="1.875" marker-start="url(#arrowStart)" x1="148.5" y1="65.625" x2="178.5" y2="65.625" />
<line stroke="Black" stroke-width="1.875" x1="178.5" y1="24.375" x2="178.5" y2="65.625" />
</g>
<g>
<g>
<rect fill="LightGreen" stroke="Black" stroke-width="1.875" x="208.5" y="7.5" width="120" height="33.75" rx="3.75" ry="3.75" />
<text x="216" y="30">Mg Finding</text>
</g>
<line stroke="Black" stroke-width="1.875" marker-end="url(#arrowEnd)" x1="358.5" y1="24.375" x2="388.5" y2="24.375" />
<line stroke="Black" stroke-width="1.875" marker-end="url(#arrowEnd)" x1="358.5" y1="65.625" x2="388.5" y2="65.625" />
<line stroke="Black" stroke-width="1.875" marker-end="url(#arrowEnd)" x1="358.5" y1="106.875" x2="388.5" y2="106.875" />
<line stroke="Black" stroke-width="1.875" marker-end="url(#arrowEnd)" x1="358.5" y1="148.125" x2="388.5" y2="148.125" />
<line stroke="Black" stroke-width="1.875" marker-end="url(#arrowEnd)" x1="358.5" y1="189.375" x2="388.5" y2="189.375" />
<line stroke="Black" stroke-width="1.875" marker-end="url(#arrowEnd)" x1="358.5" y1="230.625" x2="388.5" y2="230.625" />
<line stroke="Black" stroke-width="1.875" marker-end="url(#arrowEnd)" x1="358.5" y1="271.875" x2="388.5" y2="271.875" />
<line stroke="Black" stroke-width="1.875" marker-end="url(#arrowEnd)" x1="358.5" y1="313.125" x2="388.5" y2="313.125" />
<line stroke="Black" stroke-width="1.875" marker-end="url(#arrowEnd)" x1="358.5" y1="363.75" x2="388.5" y2="363.75" />
<line stroke="Black" stroke-width="1.875" marker-end="url(#arrowEnd)" x1="358.5" y1="414.375" x2="388.5" y2="414.375" />
<line stroke="Black" stroke-width="1.875" marker-end="url(#arrowEnd)" x1="358.5" y1="455.625" x2="388.5" y2="455.625" />
<line stroke="Black" stroke-width="1.875" marker-end="url(#arrowEnd)" x1="358.5" y1="506.25" x2="388.5" y2="506.25" />
<line stroke="Black" stroke-width="1.875" marker-end="url(#arrowEnd)" x1="358.5" y1="566.25" x2="388.5" y2="566.25" />
<line stroke="Black" stroke-width="1.875" marker-start="url(#arrowStart)" x1="328.5" y1="24.375" x2="358.5" y2="24.375" />
<line stroke="Black" stroke-width="1.875" x1="358.5" y1="24.375" x2="358.5" y2="566.25" />
</g>
<g>
<g>
<rect fill="LightSalmon" stroke="Black" stroke-width="1.875" x="388.5" y="7.5" width="162" height="33.75" rx="3.75" ry="3.75" />
<a href="./StructureDefinition-CommonForeignObject.html" target="_blank">
<title>'CommonForeignObject'</title>
<text x="396" y="30">Foreign Object</text>
</a>
</g>
<g>
<rect fill="LightSalmon" stroke="Black" stroke-width="1.875" x="388.5" y="48.75" width="214.5" height="33.75" rx="3.75" ry="3.75" />
<a href="./StructureDefinition-BreastRadMammoArchitecturalDistortion.html" target="_blank">
<title>'BreastRadMammoArchitecturalDistortion'</title>
<text x="396" y="71.25">Mg Arch. Distortion</text>
</a>
</g>
<g>
<rect fill="LightSalmon" stroke="Black" stroke-width="1.875" x="388.5" y="90" width="162" height="33.75" rx="3.75" ry="3.75" />
<a href="./StructureDefinition-BreastRadMammoAsymmetries.html" target="_blank">
<title>'BreastRadMammoAsymmetries'</title>
<text x="396" y="112.5">Mg Asymmetries</text>
</a>
</g>
<g>
<rect fill="LightSalmon" stroke="Black" stroke-width="1.875" x="388.5" y="131.25" width="193.5" height="33.75" rx="3.75" ry="3.75" />
<a href="./StructureDefinition-BreastRadMammoBreastDensity.html" target="_blank">
<title>'BreastRadMammoBreastDensity'</title>
<text x="396" y="153.75">Mg Breast Density</text>
</a>
</g>
<g>
<rect fill="LightSalmon" stroke="Black" stroke-width="1.875" x="388.5" y="172.5" width="99" height="33.75" rx="3.75" ry="3.75" />
<a href="./StructureDefinition-BreastRadMammoCalcification.html" target="_blank">
<title>'BreastRadMammoCalcification'</title>
<text x="396" y="195">Mg Calc.</text>
</a>
</g>
<g>
<rect fill="LightSalmon" stroke="Black" stroke-width="1.875" x="388.5" y="213.75" width="88.5" height="33.75" rx="3.75" ry="3.75" />
<a href="./StructureDefinition-BreastRadMammoCyst.html" target="_blank">
<title>'BreastRadMammoCyst'</title>
<text x="396" y="236.25">Mg Cyst</text>
</a>
</g>
<g>
<rect fill="LightSalmon" stroke="Black" stroke-width="1.875" x="388.5" y="255" width="172.5" height="33.75" rx="3.75" ry="3.75" />
<a href="./StructureDefinition-BreastRadMammoFatNecrosis.html" target="_blank">
<title>'BreastRadMammoFatNecrosis'</title>
<text x="396" y="277.5">Mg Fat Necrosis</text>
</a>
</g>
<g>
<rect fill="LightSalmon" stroke="Black" stroke-width="1.875" x="388.5" y="296.25" width="172.5" height="33.75" rx="3.75" ry="3.75" />
<a href="./StructureDefinition-BreastRadMammoFibroadenoma.html" target="_blank">
<title>'BreastRadMammoFibroadenoma'</title>
<text x="396" y="318.75">Mg Fibroadenoma</text>
</a>
</g>
<g>
<rect fill="LightSalmon" stroke="Black" stroke-width="1.875" x="388.5" y="337.5" width="172.5" height="52.5" rx="3.75" ry="3.75" />
<a href="./StructureDefinition-BreastRadMammoIntramammaryLymphNode.html" target="_blank">
<title>'BreastRadMammoIntramammaryLymphNode'</title>
<text x="396" y="360">Mg Intramammory</text>
</a>
<a href="./StructureDefinition-BreastRadMammoIntramammaryLymphNode.html" target="_blank">
<title>'BreastRadMammoIntramammaryLymphNode'</title>
<text x="396" y="378.75">Lymph Node</text>
</a>
</g>
<g>
<rect fill="LightSalmon" stroke="Black" stroke-width="1.875" x="388.5" y="397.5" width="88.5" height="33.75" rx="3.75" ry="3.75" />
<a href="./StructureDefinition-BreastRadMammoMass.html" target="_blank">
<title>'BreastRadMammoMass'</title>
<text x="396" y="420">Mg Mass</text>
</a>
</g>
<g>
<rect fill="LightSalmon" stroke="Black" stroke-width="1.875" x="388.5" y="438.75" width="162" height="33.75" rx="3.75" ry="3.75" />
<a href="./StructureDefinition-BreastRadMammoSkinLesion.html" target="_blank">
<title>'BreastRadMammoSkinLesion'</title>
<text x="396" y="461.25">Mg Skin Lesion</text>
</a>
</g>
<g>
<rect fill="LightSalmon" stroke="Black" stroke-width="1.875" x="388.5" y="480" width="151.49998" height="52.5" rx="3.75" ry="3.75" />
<a href="./StructureDefinition-BreastRadMammoSolitaryDilatedDuct.html" target="_blank">
<title>'BreastRadMammoSolitaryDilatedDuct'</title>
<text x="396" y="502.5">Mg Solitary</text>
</a>
<a href="./StructureDefinition-BreastRadMammoSolitaryDilatedDuct.html" target="_blank">
<title>'BreastRadMammoSolitaryDilatedDuct'</title>
<text x="396" y="521.25">Dialated Duct</text>
</a>
</g>
<g>
<rect fill="LightSalmon" stroke="Black" stroke-width="1.875" x="388.5" y="540" width="151.49998" height="52.5" rx="3.75" ry="3.75" />
<a href="./StructureDefinition-BreastRadMammoAssociatedFeatures.html" target="_blank">
<title>'BreastRadMammoAssociatedFeatures'</title>
<text x="396" y="562.5">Mg Associated</text>
</a>
<a href="./StructureDefinition-BreastRadMammoAssociatedFeatures.html" target="_blank">
<title>'BreastRadMammoAssociatedFeatures'</title>
<text x="396" y="581.25">Features</text>
</a>
</g>
</g>
</svg>
