<?xml version="1.0"?>
<?xml-stylesheet type="text/css" href="FocusGraph.css" ?>
<!DOCTYPE svg PUBLIC "-//W3C//DTD SVG 1.1//EN" "http://www.w3.org/Graphics/SVG/1.1/DTD/svg11.dtd">
<svg xmlns="http://www.w3.org/2000/svg" version="1.1" width="1237.41" height="510">
<defs>
<marker id="arrowStart" markerWidth="3.75" markerHeight="3.75" markerUnits="px" refX="1.88" refY="1.88">
<circle class="connector" cx="1.88" cy="1.88" r="1.88" />
</marker>
<marker id="arrowEnd" markerWidth="7.5" markerHeight="7.5" markerUnits="px" refX="7.5" refY="3.75">
<polygon class="connector" points="0 0 7.5 3.75 0 7.5" />
</marker>
</defs>
<g>
<g transform="translate(3.75 3.75)">
<a href="StructureDefinition-BreastImagingComposition.html" target="_top">
<rect class="profile" x="0" y="0" width="104.43" height="63.75" rx="3.75" ry="3.75" />
</a>
<a href="StructureDefinition-BreastImagingComposition.html" target="_top">
<title />
<text x="5.62" y="18.75" text-anchor="left" class="profile">Breast</text>
</a>
<a href="StructureDefinition-BreastImagingComposition.html" target="_top">
<title />
<text x="5.62" y="37.5" text-anchor="left" class="profile">Imaging</text>
</a>
<a href="StructureDefinition-BreastImagingComposition.html" target="_top">
<title />
<text x="5.62" y="56.25" text-anchor="left" class="profile">Composition</text>
</a>
</g>
<line class="connector" marker-end="url(#arrowEnd)" x1="138.18" y1="26.25" x2="198.18" y2="26.25" />
<text x="141.93" y="22.5" text-anchor="right" class="lhsText">1..1</text>
<line class="connector" marker-start="url(#arrowStart)" x1="108.18" y1="35.62" x2="138.18" y2="35.62" />
<line class="connector" x1="138.18" y1="26.25" x2="138.18" y2="35.62" />
</g>
<g>
<g transform="translate(198.18 3.75)">
<a href="StructureDefinition-FindingsRightBreast.html" target="_top">
<rect class="focus" x="0" y="0" width="103.51" height="45" rx="3.75" ry="3.75" />
</a>
<a href="StructureDefinition-FindingsRightBreast.html" target="_top">
<title />
<text x="5.62" y="18.75" text-anchor="left" class="focus">Findings</text>
</a>
<a href="StructureDefinition-FindingsRightBreast.html" target="_top">
<title />
<text x="5.62" y="37.5" text-anchor="left" class="focus">Right Breast</text>
</a>
</g>
<line class="connector" marker-end="url(#arrowEnd)" x1="331.68" y1="16.88" x2="391.68" y2="16.88" />
<text x="335.43" y="13.12" text-anchor="right" class="lhsText">1..1</text>
<line class="connector" marker-end="url(#arrowEnd)" x1="331.68" y1="50.62" x2="391.68" y2="50.62" />
<text x="335.43" y="46.88" text-anchor="right" class="lhsText">1..1</text>
<line class="connector" marker-end="url(#arrowEnd)" x1="331.68" y1="84.38" x2="391.68" y2="84.38" />
<text x="335.43" y="80.62" text-anchor="right" class="lhsText">0..*</text>
<line class="connector" marker-end="url(#arrowEnd)" x1="331.68" y1="118.12" x2="391.68" y2="118.12" />
<text x="335.43" y="114.38" text-anchor="right" class="lhsText">0..*</text>
<line class="connector" marker-end="url(#arrowEnd)" x1="331.68" y1="151.88" x2="391.68" y2="151.88" />
<text x="335.43" y="148.12" text-anchor="right" class="lhsText">0..*</text>
<line class="connector" marker-end="url(#arrowEnd)" x1="331.68" y1="219.38" x2="391.68" y2="219.38" />
<text x="335.43" y="215.62" text-anchor="right" class="lhsText">0..*</text>
<line class="connector" marker-start="url(#arrowStart)" x1="301.68" y1="26.25" x2="331.68" y2="26.25" />
<line class="connector" x1="331.68" y1="16.88" x2="331.68" y2="219.38" />
</g>
<g>
<g transform="translate(391.68 3.75)">
<a href="StructureDefinition-FindingsRightBreast-definitions.html#Observation.code" target="_top">
<rect class="element" x="0" y="0" width="52.22" height="26.25" rx="3.75" ry="3.75" />
</a>
<a href="StructureDefinition-FindingsRightBreast-definitions.html#Observation.code" target="_top">
<title />
<text x="5.62" y="18.75" text-anchor="left" class="element">Code</text>
</a>
</g>
<line class="connector" marker-end="url(#arrowEnd)" x1="473.91" y1="16.88" x2="593.91" y2="16.88" />
<text x="477.66" y="13.12" text-anchor="right" class="lhsText">pattern </text>
<line class="connector" marker-start="url(#arrowStart)" x1="443.91" y1="16.88" x2="473.91" y2="16.88" />
<line class="connector" x1="473.91" y1="16.88" x2="473.91" y2="16.88" />
</g>
<g>
<g transform="translate(593.91 3.75)">
<a href="CodeSystem-ObservationCodesCS.html" target="_top">
<rect class="value" x="0" y="0" width="413.12" height="26.25" rx="3.75" ry="3.75" />
</a>
<a href="CodeSystem-ObservationCodesCS.html" target="_top">
<title />
<text x="5.62" y="18.75" text-anchor="left" class="value">ObservationCodesCS#findingsRightBreastObservation</text>
</a>
</g>
</g>
<g>
<g transform="translate(391.68 37.5)">
<a href="StructureDefinition-FindingsRightBreast-definitions.html#Observation.bodySite" target="_top">
<rect class="element" x="0" y="0" width="83.37" height="26.25" rx="3.75" ry="3.75" />
</a>
<a href="StructureDefinition-FindingsRightBreast-definitions.html#Observation.bodySite" target="_top">
<title />
<text x="5.62" y="18.75" text-anchor="left" class="element">Body Site</text>
</a>
</g>
<line class="connector" marker-end="url(#arrowEnd)" x1="505.05" y1="50.62" x2="625.05" y2="50.62" />
<text x="508.8" y="46.88" text-anchor="right" class="lhsText">pattern </text>
<line class="connector" marker-start="url(#arrowStart)" x1="475.05" y1="50.62" x2="505.05" y2="50.62" />
<line class="connector" x1="505.05" y1="50.62" x2="505.05" y2="50.62" />
</g>
<g>
<g transform="translate(625.05 37.5)">
<a target="_top">
<rect class="value" x="0" y="0" width="116.37" height="26.25" rx="3.75" ry="3.75" />
</a>
<a target="_top">
<title />
<text x="5.62" y="18.75" text-anchor="left" class="value">sct#73056007</text>
</a>
</g>
</g>
<g>
<g transform="translate(391.68 71.25)">
<a href="StructureDefinition-FindingsRightBreast-definitions.html#Observation.component:breastAssessmentCategory" target="_top">
<rect class="element" x="0" y="0" width="226.23" height="26.25" rx="3.75" ry="3.75" />
</a>
<a href="StructureDefinition-FindingsRightBreast-definitions.html#Observation.component:breastAssessmentCategory" target="_top">
<title />
<text x="5.62" y="18.75" text-anchor="left" class="element">Breast Assessment Category</text>
</a>
</g>
<line class="connector" marker-end="url(#arrowEnd)" x1="647.91" y1="84.38" x2="707.91" y2="84.38" />
<text x="651.66" y="80.62" text-anchor="right" class="lhsText">bind</text>
<line class="connector" marker-start="url(#arrowStart)" x1="617.91" y1="84.38" x2="647.91" y2="84.38" />
<line class="connector" x1="647.91" y1="84.38" x2="647.91" y2="84.38" />
</g>
<g>
<g transform="translate(707.91 71.25)">
<a href="ValueSet-BreastAssessmentCategoryVS.html" target="_top">
<rect class="valueSet" x="0" y="0" width="239.06" height="26.25" rx="3.75" ry="3.75" />
</a>
<a href="ValueSet-BreastAssessmentCategoryVS.html" target="_top">
<title />
<text x="5.62" y="18.75" text-anchor="left" class="valueSet">BreastAssessmentCategoryVS</text>
</a>
</g>
</g>
<g>
<g transform="translate(391.68 105)">
<a href="StructureDefinition-FindingsRightBreast-definitions.html#Observation.component:breastComposition" target="_top">
<rect class="element" x="0" y="0" width="228.07" height="26.25" rx="3.75" ry="3.75" />
</a>
<a href="StructureDefinition-FindingsRightBreast-definitions.html#Observation.component:breastComposition" target="_top">
<title />
<text x="5.62" y="18.75" text-anchor="left" class="element">Breast Composition Category</text>
</a>
</g>
<line class="connector" marker-end="url(#arrowEnd)" x1="649.75" y1="118.12" x2="709.75" y2="118.12" />
<text x="653.5" y="114.38" text-anchor="right" class="lhsText">bind</text>
<line class="connector" marker-start="url(#arrowStart)" x1="619.75" y1="118.12" x2="649.75" y2="118.12" />
<line class="connector" x1="649.75" y1="118.12" x2="649.75" y2="118.12" />
</g>
<g>
<g transform="translate(709.75 105)">
<a href="ValueSet-rde1587-breast-composition-category.html" target="_top">
<rect class="valueSet" x="0" y="0" width="299.52" height="26.25" rx="3.75" ry="3.75" />
</a>
<a href="ValueSet-rde1587-breast-composition-category.html" target="_top">
<title />
<text x="5.62" y="18.75" text-anchor="left" class="valueSet">RDE1587_BreastCompositionCategory</text>
</a>
</g>
</g>
<g>
<g transform="translate(391.68 138.75)">
<a href="StructureDefinition-FindingsRightBreast-definitions.html#Observation.component" target="_top">
<rect class="element" x="0" y="0" width="106.26" height="26.25" rx="3.75" ry="3.75" />
</a>
<a href="StructureDefinition-FindingsRightBreast-definitions.html#Observation.component" target="_top">
<title />
<text x="5.62" y="18.75" text-anchor="left" class="element">Components</text>
</a>
</g>
<line class="connector" marker-end="url(#arrowEnd)" x1="527.95" y1="151.88" x2="587.95" y2="151.88" />
<text x="531.7" y="148.12" text-anchor="right" class="lhsText">0..*</text>
<line class="connector" marker-end="url(#arrowEnd)" x1="527.95" y1="185.62" x2="587.95" y2="185.62" />
<text x="531.7" y="181.88" text-anchor="right" class="lhsText">0..*</text>
<line class="connector" marker-start="url(#arrowStart)" x1="497.95" y1="151.88" x2="527.95" y2="151.88" />
<line class="connector" x1="527.95" y1="151.88" x2="527.95" y2="185.62" />
</g>
<g>
<g transform="translate(587.95 138.75)">
<a href="StructureDefinition-FindingsRightBreast-definitions.html#Observation.component:breastAssessmentCategory" target="_top">
<rect class="element" x="0" y="0" width="226.23" height="26.25" rx="3.75" ry="3.75" />
</a>
<a href="StructureDefinition-FindingsRightBreast-definitions.html#Observation.component:breastAssessmentCategory" target="_top">
<title />
<text x="5.62" y="18.75" text-anchor="left" class="element">Breast Assessment Category</text>
</a>
</g>
<line class="connector" marker-end="url(#arrowEnd)" x1="844.18" y1="151.88" x2="904.18" y2="151.88" />
<text x="847.93" y="148.12" text-anchor="right" class="lhsText">bind</text>
<line class="connector" marker-start="url(#arrowStart)" x1="814.18" y1="151.88" x2="844.18" y2="151.88" />
<line class="connector" x1="844.18" y1="151.88" x2="844.18" y2="151.88" />
</g>
<g>
<g transform="translate(904.18 138.75)">
<a href="ValueSet-BreastAssessmentCategoryVS.html" target="_top">
<rect class="valueSet" x="0" y="0" width="239.06" height="26.25" rx="3.75" ry="3.75" />
</a>
<a href="ValueSet-BreastAssessmentCategoryVS.html" target="_top">
<title />
<text x="5.62" y="18.75" text-anchor="left" class="valueSet">BreastAssessmentCategoryVS</text>
</a>
</g>
</g>
<g>
<g transform="translate(587.95 172.5)">
<a href="StructureDefinition-FindingsRightBreast-definitions.html#Observation.component:breastComposition" target="_top">
<rect class="element" x="0" y="0" width="228.07" height="26.25" rx="3.75" ry="3.75" />
</a>
<a href="StructureDefinition-FindingsRightBreast-definitions.html#Observation.component:breastComposition" target="_top">
<title />
<text x="5.62" y="18.75" text-anchor="left" class="element">Breast Composition Category</text>
</a>
</g>
<line class="connector" marker-end="url(#arrowEnd)" x1="846.01" y1="185.62" x2="906.01" y2="185.62" />
<text x="849.76" y="181.88" text-anchor="right" class="lhsText">bind</text>
<line class="connector" marker-start="url(#arrowStart)" x1="816.01" y1="185.62" x2="846.01" y2="185.62" />
<line class="connector" x1="846.01" y1="185.62" x2="846.01" y2="185.62" />
</g>
<g>
<g transform="translate(906.01 172.5)">
<a href="ValueSet-rde1587-breast-composition-category.html" target="_top">
<rect class="valueSet" x="0" y="0" width="299.52" height="26.25" rx="3.75" ry="3.75" />
</a>
<a href="ValueSet-rde1587-breast-composition-category.html" target="_top">
<title />
<text x="5.62" y="18.75" text-anchor="left" class="valueSet">RDE1587_BreastCompositionCategory</text>
</a>
</g>
</g>
<g>
<g transform="translate(391.68 206.25)">
<a href="StructureDefinition-FindingsRightBreast-definitions.html#Observation.hasMember" target="_top">
<rect class="element" x="0" y="0" width="102.57" height="26.25" rx="3.75" ry="3.75" />
</a>
<a href="StructureDefinition-FindingsRightBreast-definitions.html#Observation.hasMember" target="_top">
<title />
<text x="5.62" y="18.75" text-anchor="left" class="element">HasMember</text>
</a>
</g>
<line class="connector" marker-end="url(#arrowEnd)" x1="524.25" y1="219.38" x2="584.25" y2="219.38" />
<text x="528" y="215.62" text-anchor="right" class="lhsText">0..1</text>
<line class="connector" marker-end="url(#arrowEnd)" x1="524.25" y1="253.12" x2="584.25" y2="253.12" />
<text x="528" y="249.38" text-anchor="right" class="lhsText">0..1</text>
<line class="connector" marker-end="url(#arrowEnd)" x1="524.25" y1="296.25" x2="584.25" y2="296.25" />
<text x="528" y="292.5" text-anchor="right" class="lhsText">0..1</text>
<line class="connector" marker-end="url(#arrowEnd)" x1="524.25" y1="339.38" x2="584.25" y2="339.38" />
<text x="528" y="335.62" text-anchor="right" class="lhsText">0..1</text>
<line class="connector" marker-end="url(#arrowEnd)" x1="524.25" y1="373.12" x2="584.25" y2="373.12" />
<text x="528" y="369.38" text-anchor="right" class="lhsText">0..1</text>
<line class="connector" marker-start="url(#arrowStart)" x1="494.25" y1="219.38" x2="524.25" y2="219.38" />
<line class="connector" x1="524.25" y1="219.38" x2="524.25" y2="373.12" />
</g>
<g>
<g transform="translate(584.25 206.25)">
<a href="StructureDefinition-MGFinding.html" target="_top">
<rect class="profile" x="0" y="0" width="102.6" height="26.25" rx="3.75" ry="3.75" />
</a>
<a href="StructureDefinition-MGFinding.html" target="_top">
<title />
<text x="5.62" y="18.75" text-anchor="left" class="profile">Mg Findings</text>
</a>
</g>
</g>
<g>
<g transform="translate(584.25 240)">
<a href="StructureDefinition-MRIFinding.html" target="_top">
<rect class="profile" x="0" y="0" width="109.91" height="26.25" rx="3.75" ry="3.75" />
</a>
<a href="StructureDefinition-MRIFinding.html" target="_top">
<title />
<text x="5.62" y="18.75" text-anchor="left" class="profile">MRI Findings</text>
</a>
</g>
</g>
<g>
<g transform="translate(584.25 273.75)">
<a href="StructureDefinition-NMFinding.html" target="_top">
<rect class="profile" x="0" y="0" width="140.15" height="45" rx="3.75" ry="3.75" />
</a>
<a href="StructureDefinition-NMFinding.html" target="_top">
<title />
<text x="5.62" y="18.75" text-anchor="left" class="profile">Nuclear Medicine</text>
</a>
<a href="StructureDefinition-NMFinding.html" target="_top">
<title />
<text x="5.62" y="37.5" text-anchor="left" class="profile">Findings</text>
</a>
</g>
</g>
<g>
<g transform="translate(584.25 326.25)">
<a href="StructureDefinition-USFinding.html" target="_top">
<rect class="profile" x="0" y="0" width="159.4" height="26.25" rx="3.75" ry="3.75" />
</a>
<a href="StructureDefinition-USFinding.html" target="_top">
<title />
<text x="5.62" y="18.75" text-anchor="left" class="profile">Ultrasound Findings</text>
</a>
</g>
</g>
<g>
<g transform="translate(584.25 360)">
<a href="StructureDefinition-OtherModalityFinding.html" target="_top">
<rect class="profile" x="0" y="0" width="186.86" height="26.25" rx="3.75" ry="3.75" />
</a>
<a href="StructureDefinition-OtherModalityFinding.html" target="_top">
<title />
<text x="5.62" y="18.75" text-anchor="left" class="profile">Other Modality Findings</text>
</a>
</g>
</g>
<g>
<g transform="translate(3.75 468.75)">
<a target="_top">
<rect class="focus" x="0" y="0" width="57.72" height="26.25" rx="3.75" ry="3.75" />
</a>
<a target="_top">
<title />
<text x="5.62" y="18.75" text-anchor="left" class="focus">Focus</text>
</a>
</g>
<g transform="translate(68.97 468.75)">
<a target="_top">
<rect class="profile" x="0" y="0" width="143.81" height="26.25" rx="3.75" ry="3.75" />
</a>
<a target="_top">
<title />
<text x="5.62" y="18.75" text-anchor="left" class="profile">Profiled Resource</text>
</a>
</g>
<g transform="translate(220.28 468.75)">
<a target="_top">
<rect class="element" x="0" y="0" width="148.39" height="26.25" rx="3.75" ry="3.75" />
</a>
<a target="_top">
<title />
<text x="5.62" y="18.75" text-anchor="left" class="element">Resource Element</text>
</a>
</g>
<g transform="translate(376.16 468.75)">
<a target="_top">
<rect class="valueSet" x="0" y="0" width="79.72" height="26.25" rx="3.75" ry="3.75" />
</a>
<a target="_top">
<title />
<text x="5.62" y="18.75" text-anchor="left" class="valueSet">ValueSet</text>
</a>
</g>
<g transform="translate(463.38 468.75)">
<a target="_top">
<rect class="value" x="0" y="0" width="54.98" height="26.25" rx="3.75" ry="3.75" />
</a>
<a target="_top">
<title />
<text x="5.62" y="18.75" text-anchor="left" class="value">Value</text>
</a>
</g>
</g>
</svg>
