<?xml version="1.0"?>
<!DOCTYPE svg PUBLIC "-//W3C//DTD SVG 1.1//EN" "http://www.w3.org/Graphics/SVG/1.1/DTD/svg11.dtd">
<svg xmlns="http://www.w3.org/2000/svg" version="1.1" width="895.49994" height="322.5">
<defs>
<marker id="arrowStart" markerWidth="3.75" markerHeight="3.75" markerUnits="px" refX="1.875" refY="1.875">
<circle fill="Black" stroke-width="0" cx="1.875" cy="1.875" r="1.875" />
</marker>
<marker id="arrowEnd" markerWidth="7.5" markerHeight="7.5" markerUnits="px" refX="7.5" refY="3.75">
<polygon fill="Black" stroke-width="0" points="0 0 7.5 3.75 0 7.5" />
</marker>
</defs>
<g>
<g transform="translate(7.5 7.5)">
<rect fill="LightCyan" stroke="Black" stroke-width="1.875" x="0" y="0" width="267" height="52.5" rx="3.75" ry="3.75" />
<a href="./StructureDefinition-RelatedClinicalResourcesExtension.html" target="_top">
<text x="133.5" y="22.5" text-anchor="middle">RelatedClinicalResources</text>
</a>
<a href="./StructureDefinition-RelatedClinicalResourcesExtension.html" target="_top">
<text x="133.5" y="41.25" text-anchor="middle">Extension</text>
</a>
</g>
<line stroke="Black" stroke-width="1.875" marker-end="url(#arrowEnd)" x1="289.5" y1="43.125" x2="334.5" y2="43.125" />
<text x="293.25" y="39.375" text-anchor="left"></text>
<line stroke="Black" stroke-width="1.875" marker-start="url(#arrowStart)" x1="274.5" y1="33.75" x2="289.5" y2="33.75" />
<line stroke="Black" stroke-width="1.875" x1="289.5" y1="33.75" x2="289.5" y2="43.125" />
</g>
<g>
<g transform="translate(334.5 7.5)">
<rect fill="White" stroke="Black" stroke-width="1.875" x="0" y="0" width="109.49999" height="71.25" rx="3.75" ry="3.75" />
<text x="54.749996" y="22.5" text-anchor="middle">Breast</text>
<text x="54.749996" y="41.25" text-anchor="middle">Radiology</text>
<text x="54.749996" y="60" text-anchor="middle">Report</text>
</g>
<line stroke="Black" stroke-width="1.875" marker-end="url(#arrowEnd)" x1="458.99997" y1="33.75" x2="503.99997" y2="33.75" />
<text x="462.74997" y="30" text-anchor="left">0..1</text>
<line stroke="Black" stroke-width="1.875" marker-end="url(#arrowEnd)" x1="458.99997" y1="93.75" x2="503.99997" y2="93.75" />
<text x="462.74997" y="90" text-anchor="left">0..1</text>
<line stroke="Black" stroke-width="1.875" marker-end="url(#arrowEnd)" x1="458.99997" y1="153.75" x2="503.99997" y2="153.75" />
<text x="462.74997" y="150" text-anchor="left">1..1</text>
<line stroke="Black" stroke-width="1.875" marker-end="url(#arrowEnd)" x1="458.99997" y1="213.75" x2="503.99997" y2="213.75" />
<text x="462.74997" y="210" text-anchor="left">0..*</text>
<line stroke="Black" stroke-width="1.875" marker-end="url(#arrowEnd)" x1="458.99997" y1="273.75" x2="503.99997" y2="273.75" />
<text x="462.74997" y="270" text-anchor="left">0..*</text>
<line stroke="Black" stroke-width="1.875" marker-start="url(#arrowStart)" x1="443.99997" y1="43.125" x2="458.99997" y2="43.125" />
<line stroke="Black" stroke-width="1.875" x1="458.99997" y1="33.75" x2="458.99997" y2="273.75" />
</g>
<g>
<g transform="translate(503.99997 7.5)">
<rect fill="LightCyan" stroke="Black" stroke-width="1.875" x="0" y="0" width="130.5" height="52.5" rx="3.75" ry="3.75" />
<a href="./StructureDefinition-SectionFindingsLeftBreast.html" target="_top">
<text x="65.25" y="22.5" text-anchor="middle">Findings</text>
</a>
<a href="./StructureDefinition-SectionFindingsLeftBreast.html" target="_top">
<text x="65.25" y="41.25" text-anchor="middle">Left Breast</text>
</a>
</g>
</g>
<g>
<g transform="translate(503.99997 67.5)">
<rect fill="LightCyan" stroke="Black" stroke-width="1.875" x="0" y="0" width="141" height="52.5" rx="3.75" ry="3.75" />
<a href="./StructureDefinition-SectionFindingsRightBreast.html" target="_top">
<text x="70.5" y="22.5" text-anchor="middle">Findings</text>
</a>
<a href="./StructureDefinition-SectionFindingsRightBreast.html" target="_top">
<text x="70.5" y="41.25" text-anchor="middle">Right Breast</text>
</a>
</g>
</g>
<g>
<g transform="translate(503.99997 127.5)">
<a href="StructureDefinition-BreastRadReport-definitions.html#DiagnosticReport.conclusionCode" target="_top">
<rect fill="LightYellow" stroke="Black" stroke-width="1.875" x="0" y="0" width="172.5" height="52.5" rx="3.75" ry="3.75" />
</a>
<a href="StructureDefinition-BreastRadReport-definitions.html#DiagnosticReport.conclusionCode" target="_top">
<text x="86.25" y="22.5" text-anchor="middle">Conclusion Code</text>
</a>
<a href="StructureDefinition-BreastRadReport-definitions.html#DiagnosticReport.conclusionCode" target="_top">
<text x="86.25" y="41.25" text-anchor="middle">CodeableConcept</text>
</a>
</g>
<line stroke="Black" stroke-width="1.875" marker-end="url(#arrowEnd)" x1="691.5" y1="153.75" x2="736.5" y2="153.75" />
<line stroke="Black" stroke-width="1.875" marker-start="url(#arrowStart)" x1="676.5" y1="153.75" x2="691.5" y2="153.75" />
<line stroke="Black" stroke-width="1.875" x1="691.5" y1="153.75" x2="691.5" y2="153.75" />
</g>
<g>
<g transform="translate(736.5 127.5)">
<rect fill="LightGreen" stroke="Black" stroke-width="1.875" x="0" y="0" width="99" height="52.5" rx="3.75" ry="3.75" />
<a href="./ValueSet-BiRadsAssessmentCategoriesVS.html" target="_top">
<text x="49.5" y="22.5" text-anchor="middle">BiRads</text>
</a>
<a href="./ValueSet-BiRadsAssessmentCategoriesVS.html" target="_top">
<text x="49.5" y="41.25" text-anchor="middle">ValueSet</text>
</a>
</g>
</g>
<g>
<g transform="translate(503.99997 187.5)">
<rect fill="LightBlue" stroke="Black" stroke-width="1.875" x="0" y="0" width="130.5" height="52.5" rx="3.75" ry="3.75" />
<a href="./StructureDefinition-ImpressionsExtension.html" target="_top">
<text x="65.25" y="22.5" text-anchor="middle">Impressions</text>
</a>
<a href="./StructureDefinition-ImpressionsExtension.html" target="_top">
<text x="65.25" y="41.25" text-anchor="middle">Extension</text>
</a>
</g>
</g>
<g>
<g transform="translate(503.99997 247.5)">
<rect fill="LightBlue" stroke="Black" stroke-width="1.875" x="0" y="0" width="267" height="52.5" rx="3.75" ry="3.75" />
<a href="./StructureDefinition-RelatedClinicalResourcesExtension.html" target="_top">
<text x="133.5" y="22.5" text-anchor="middle">RelatedClinicalResources</text>
</a>
<a href="./StructureDefinition-RelatedClinicalResourcesExtension.html" target="_top">
<text x="133.5" y="41.25" text-anchor="middle">Extension</text>
</a>
</g>
</g>
</svg>
