<?xml version="1.0"?>
<?xml-stylesheet type="text/css" href="FocusGraph.css" ?>
<!DOCTYPE svg PUBLIC "-//W3C//DTD SVG 1.1//EN" "http://www.w3.org/Graphics/SVG/1.1/DTD/svg11.dtd">
<svg xmlns="http://www.w3.org/2000/svg" version="1.1" width="1197.14" height="712.5">
<defs>
<marker id="arrowStart" markerWidth="3.75" markerHeight="3.75" markerUnits="px" refX="1.88" refY="1.88">
<circle class="connector" cx="1.88" cy="1.88" r="1.88" />
</marker>
<marker id="arrowEnd" markerWidth="7.5" markerHeight="7.5" markerUnits="px" refX="7.5" refY="3.75">
<polygon class="connector" points="0 0 7.5 3.75 0 7.5" />
</marker>
</defs>
<g>
<g transform="translate(3.75 3.75)">
<a href="StructureDefinition-MGFinding.html" target="_top">
<rect class="profile" x="0" y="0" width="102.6" height="26.25" rx="3.75" ry="3.75" />
</a>
<a href="StructureDefinition-MGFinding.html" target="_top">
<text x="5.62" y="18.75" text-anchor="left" class="profile">Mg Findings</text>
</a>
</g>
<line class="connector" marker-end="url(#arrowEnd)" x1="136.35" y1="16.88" x2="196.35" y2="16.88" />
<text x="140.1" y="13.12" text-anchor="right" class="lhsText">0..*</text>
<line class="connector" marker-start="url(#arrowStart)" x1="106.35" y1="16.88" x2="136.35" y2="16.88" />
<line class="connector" x1="136.35" y1="16.88" x2="136.35" y2="16.88" />
</g>
<g>
<g transform="translate(196.35 3.75)">
<a href="StructureDefinition-LymphNodeAbnormality.html" target="_top">
<rect class="focus" x="0" y="0" width="106.26" height="26.25" rx="3.75" ry="3.75" />
</a>
<a href="StructureDefinition-LymphNodeAbnormality.html" target="_top">
<text x="5.62" y="18.75" text-anchor="left" class="focus">Lymph Node</text>
</a>
</g>
<line class="connector" marker-end="url(#arrowEnd)" x1="332.61" y1="16.88" x2="392.61" y2="16.88" />
<text x="336.36" y="13.12" text-anchor="right" class="lhsText">1..1</text>
<line class="connector" marker-end="url(#arrowEnd)" x1="332.61" y1="50.62" x2="392.61" y2="50.62" />
<text x="336.36" y="46.88" text-anchor="right" class="lhsText">1..*</text>
<line class="connector" marker-end="url(#arrowEnd)" x1="332.61" y1="508.12" x2="392.61" y2="508.12" />
<text x="336.36" y="504.38" text-anchor="right" class="lhsText">0..*</text>
<line class="connector" marker-start="url(#arrowStart)" x1="302.61" y1="16.88" x2="332.61" y2="16.88" />
<line class="connector" x1="332.61" y1="16.88" x2="332.61" y2="508.12" />
</g>
<g>
<g transform="translate(392.61 3.75)">
<a href="StructureDefinition-LymphNodeAbnormality-definitions.html#Observation.code" target="_top">
<rect class="element" x="0" y="0" width="52.22" height="26.25" rx="3.75" ry="3.75" />
</a>
<a href="StructureDefinition-LymphNodeAbnormality-definitions.html#Observation.code" target="_top">
<text x="5.62" y="18.75" text-anchor="left" class="element">Code</text>
</a>
</g>
<line class="connector" marker-end="url(#arrowEnd)" x1="474.84" y1="16.88" x2="594.84" y2="16.88" />
<text x="478.59" y="13.12" text-anchor="right" class="lhsText">pattern </text>
<line class="connector" marker-start="url(#arrowStart)" x1="444.84" y1="16.88" x2="474.84" y2="16.88" />
<line class="connector" x1="474.84" y1="16.88" x2="474.84" y2="16.88" />
</g>
<g>
<g transform="translate(594.84 3.75)">
<a href="CodeSystem-ObservationCodesCS.html" target="_top">
<rect class="value" x="0" y="0" width="444.26" height="26.25" rx="3.75" ry="3.75" />
</a>
<a href="CodeSystem-ObservationCodesCS.html" target="_top">
<text x="5.62" y="18.75" text-anchor="left" class="value">ObservationCodesCS#abnormalityLymphNodeObservation</text>
</a>
</g>
</g>
<g>
<g transform="translate(392.61 37.5)">
<a href="StructureDefinition-LymphNodeAbnormality-definitions.html#Observation.component" target="_top">
<rect class="element" x="0" y="0" width="106.26" height="26.25" rx="3.75" ry="3.75" />
</a>
<a href="StructureDefinition-LymphNodeAbnormality-definitions.html#Observation.component" target="_top">
<text x="5.62" y="18.75" text-anchor="left" class="element">Components</text>
</a>
</g>
<line class="connector" marker-end="url(#arrowEnd)" x1="528.88" y1="50.62" x2="588.88" y2="50.62" />
<text x="532.62" y="46.88" text-anchor="right" class="lhsText">0..*</text>
<line class="connector" marker-end="url(#arrowEnd)" x1="528.88" y1="84.38" x2="588.88" y2="84.38" />
<text x="532.62" y="80.62" text-anchor="right" class="lhsText">0..1</text>
<line class="connector" marker-end="url(#arrowEnd)" x1="528.88" y1="118.12" x2="588.88" y2="118.12" />
<text x="532.62" y="114.38" text-anchor="right" class="lhsText">1..1</text>
<line class="connector" marker-end="url(#arrowEnd)" x1="528.88" y1="151.88" x2="588.88" y2="151.88" />
<text x="532.62" y="148.12" text-anchor="right" class="lhsText">0..1</text>
<line class="connector" marker-end="url(#arrowEnd)" x1="528.88" y1="185.62" x2="588.88" y2="185.62" />
<text x="532.62" y="181.88" text-anchor="right" class="lhsText">0..*</text>
<line class="connector" marker-end="url(#arrowEnd)" x1="528.88" y1="219.38" x2="588.88" y2="219.38" />
<text x="532.62" y="215.62" text-anchor="right" class="lhsText">0..*</text>
<line class="connector" marker-end="url(#arrowEnd)" x1="528.88" y1="253.12" x2="588.88" y2="253.12" />
<text x="532.62" y="249.38" text-anchor="right" class="lhsText">0..1</text>
<line class="connector" marker-end="url(#arrowEnd)" x1="528.88" y1="286.88" x2="588.88" y2="286.88" />
<text x="532.62" y="283.12" text-anchor="right" class="lhsText">0..*</text>
<line class="connector" marker-end="url(#arrowEnd)" x1="528.88" y1="320.62" x2="588.88" y2="320.62" />
<text x="532.62" y="316.88" text-anchor="right" class="lhsText">0..1</text>
<line class="connector" marker-end="url(#arrowEnd)" x1="528.88" y1="354.38" x2="588.88" y2="354.38" />
<text x="532.62" y="350.62" text-anchor="right" class="lhsText">0..3</text>
<line class="connector" marker-end="url(#arrowEnd)" x1="528.88" y1="388.12" x2="588.88" y2="388.12" />
<text x="532.62" y="384.38" text-anchor="right" class="lhsText">0..1</text>
<line class="connector" marker-end="url(#arrowEnd)" x1="528.88" y1="431.25" x2="588.88" y2="431.25" />
<text x="532.62" y="427.5" text-anchor="right" class="lhsText">0..*</text>
<line class="connector" marker-end="url(#arrowEnd)" x1="528.88" y1="474.38" x2="588.88" y2="474.38" />
<text x="532.62" y="470.62" text-anchor="right" class="lhsText">0..1</text>
<line class="connector" marker-start="url(#arrowStart)" x1="498.87" y1="50.62" x2="528.88" y2="50.62" />
<line class="connector" x1="528.88" y1="50.62" x2="528.88" y2="474.38" />
</g>
<g>
<g transform="translate(588.88 37.5)">
<a href="StructureDefinition-LymphNodeAbnormality-definitions.html#Observation.component:correspondsWith" target="_top">
<rect class="element" x="0" y="0" width="144.71" height="26.25" rx="3.75" ry="3.75" />
</a>
<a href="StructureDefinition-LymphNodeAbnormality-definitions.html#Observation.component:correspondsWith" target="_top">
<text x="5.62" y="18.75" text-anchor="left" class="element">Corresponds With</text>
</a>
</g>
<line class="connector" marker-end="url(#arrowEnd)" x1="763.58" y1="50.62" x2="823.58" y2="50.62" />
<text x="767.33" y="46.88" text-anchor="right" class="lhsText">bind</text>
<line class="connector" marker-start="url(#arrowStart)" x1="733.58" y1="50.62" x2="763.58" y2="50.62" />
<line class="connector" x1="763.58" y1="50.62" x2="763.58" y2="50.62" />
</g>
<g>
<g transform="translate(823.58 37.5)">
<a href="ValueSet-CorrespondsWithVS.html" target="_top">
<rect class="valueSet" x="0" y="0" width="162.11" height="26.25" rx="3.75" ry="3.75" />
</a>
<a href="ValueSet-CorrespondsWithVS.html" target="_top">
<text x="5.62" y="18.75" text-anchor="left" class="valueSet">CorrespondsWithVS</text>
</a>
</g>
</g>
<g>
<g transform="translate(588.88 71.25)">
<a href="StructureDefinition-LymphNodeAbnormality-definitions.html#Observation.component:density" target="_top">
<rect class="element" x="0" y="0" width="67.79" height="26.25" rx="3.75" ry="3.75" />
</a>
<a href="StructureDefinition-LymphNodeAbnormality-definitions.html#Observation.component:density" target="_top">
<text x="5.62" y="18.75" text-anchor="left" class="element">Density</text>
</a>
</g>
<line class="connector" marker-end="url(#arrowEnd)" x1="686.66" y1="84.38" x2="746.66" y2="84.38" />
<text x="690.41" y="80.62" text-anchor="right" class="lhsText">bind</text>
<line class="connector" marker-start="url(#arrowStart)" x1="656.66" y1="84.38" x2="686.66" y2="84.38" />
<line class="connector" x1="686.66" y1="84.38" x2="686.66" y2="84.38" />
</g>
<g>
<g transform="translate(746.66 71.25)">
<a href="ValueSet-LesionDensityVS.html" target="_top">
<rect class="valueSet" x="0" y="0" width="138.33" height="26.25" rx="3.75" ry="3.75" />
</a>
<a href="ValueSet-LesionDensityVS.html" target="_top">
<text x="5.62" y="18.75" text-anchor="left" class="valueSet">LesionDensityVS</text>
</a>
</g>
</g>
<g>
<g transform="translate(588.88 105)">
<a href="StructureDefinition-LymphNodeAbnormality-definitions.html#Observation.component:lymphNodeType" target="_top">
<rect class="element" x="0" y="0" width="239.07" height="26.25" rx="3.75" ry="3.75" />
</a>
<a href="StructureDefinition-LymphNodeAbnormality-definitions.html#Observation.component:lymphNodeType" target="_top">
<text x="5.62" y="18.75" text-anchor="left" class="element">Lymph Node Abnormality Type</text>
</a>
</g>
<line class="connector" marker-end="url(#arrowEnd)" x1="857.94" y1="118.12" x2="917.94" y2="118.12" />
<text x="861.69" y="114.38" text-anchor="right" class="lhsText">bind</text>
<line class="connector" marker-start="url(#arrowStart)" x1="827.94" y1="118.12" x2="857.94" y2="118.12" />
<line class="connector" x1="857.94" y1="118.12" x2="857.94" y2="118.12" />
</g>
<g>
<g transform="translate(917.94 105)">
<a href="ValueSet-LymphNodeAbnormalityTypeVS.html" target="_top">
<rect class="valueSet" x="0" y="0" width="247.32" height="26.25" rx="3.75" ry="3.75" />
</a>
<a href="ValueSet-LymphNodeAbnormalityTypeVS.html" target="_top">
<text x="5.62" y="18.75" text-anchor="left" class="valueSet">LymphNodeAbnormalityTypeVS</text>
</a>
</g>
</g>
<g>
<g transform="translate(588.88 138.75)">
<a href="StructureDefinition-LymphNodeAbnormality-definitions.html#Observation.component:margin" target="_top">
<rect class="element" x="0" y="0" width="63.2" height="26.25" rx="3.75" ry="3.75" />
</a>
<a href="StructureDefinition-LymphNodeAbnormality-definitions.html#Observation.component:margin" target="_top">
<text x="5.62" y="18.75" text-anchor="left" class="element">Margin</text>
</a>
</g>
<line class="connector" marker-end="url(#arrowEnd)" x1="682.08" y1="151.88" x2="742.08" y2="151.88" />
<text x="685.83" y="148.12" text-anchor="right" class="lhsText">bind</text>
<line class="connector" marker-start="url(#arrowStart)" x1="652.08" y1="151.88" x2="682.08" y2="151.88" />
<line class="connector" x1="682.08" y1="151.88" x2="682.08" y2="151.88" />
</g>
<g>
<g transform="translate(742.08 138.75)">
<a href="ValueSet-MarginVS.html" target="_top">
<rect class="valueSet" x="0" y="0" width="85.18" height="26.25" rx="3.75" ry="3.75" />
</a>
<a href="ValueSet-MarginVS.html" target="_top">
<text x="5.62" y="18.75" text-anchor="left" class="valueSet">MarginVS</text>
</a>
</g>
</g>
<g>
<g transform="translate(588.88 172.5)">
<a href="StructureDefinition-LymphNodeAbnormality-definitions.html#Observation.component:notPreviouslySeen" target="_top">
<rect class="element" x="0" y="0" width="162.14" height="26.25" rx="3.75" ry="3.75" />
</a>
<a href="StructureDefinition-LymphNodeAbnormality-definitions.html#Observation.component:notPreviouslySeen" target="_top">
<text x="5.62" y="18.75" text-anchor="left" class="element">Not Previously Seen</text>
</a>
</g>
<line class="connector" marker-end="url(#arrowEnd)" x1="781.01" y1="185.62" x2="841.01" y2="185.62" />
<text x="784.76" y="181.88" text-anchor="right" class="lhsText">bind</text>
<line class="connector" marker-start="url(#arrowStart)" x1="751.01" y1="185.62" x2="781.01" y2="185.62" />
<line class="connector" x1="781.01" y1="185.62" x2="781.01" y2="185.62" />
</g>
<g>
<g transform="translate(841.01 172.5)">
<a href="ValueSet-NotPreviouslySeenVS.html" target="_top">
<rect class="valueSet" x="0" y="0" width="174.97" height="26.25" rx="3.75" ry="3.75" />
</a>
<a href="ValueSet-NotPreviouslySeenVS.html" target="_top">
<text x="5.62" y="18.75" text-anchor="left" class="valueSet">NotPreviouslySeenVS</text>
</a>
</g>
</g>
<g>
<g transform="translate(588.88 206.25)">
<a href="StructureDefinition-LymphNodeAbnormality-definitions.html#Observation.component:obsChanges" target="_top">
<rect class="element" x="0" y="0" width="154.82" height="26.25" rx="3.75" ry="3.75" />
</a>
<a href="StructureDefinition-LymphNodeAbnormality-definitions.html#Observation.component:obsChanges" target="_top">
<text x="5.62" y="18.75" text-anchor="left" class="element">Observed Changes</text>
</a>
</g>
<line class="connector" marker-end="url(#arrowEnd)" x1="773.69" y1="219.38" x2="833.69" y2="219.38" />
<text x="777.44" y="215.62" text-anchor="right" class="lhsText">bind</text>
<line class="connector" marker-start="url(#arrowStart)" x1="743.69" y1="219.38" x2="773.69" y2="219.38" />
<line class="connector" x1="773.69" y1="219.38" x2="773.69" y2="219.38" />
</g>
<g>
<g transform="translate(833.69 206.25)">
<a href="ValueSet-ObservedChangesVS.html" target="_top">
<rect class="valueSet" x="0" y="0" width="172.22" height="26.25" rx="3.75" ry="3.75" />
</a>
<a href="ValueSet-ObservedChangesVS.html" target="_top">
<text x="5.62" y="18.75" text-anchor="left" class="valueSet">ObservedChangesVS</text>
</a>
</g>
</g>
<g>
<g transform="translate(588.88 240)">
<a href="StructureDefinition-LymphNodeAbnormality-definitions.html#Observation.component:observedCount" target="_top">
<rect class="element" x="0" y="0" width="132.83" height="26.25" rx="3.75" ry="3.75" />
</a>
<a href="StructureDefinition-LymphNodeAbnormality-definitions.html#Observation.component:observedCount" target="_top">
<text x="5.62" y="18.75" text-anchor="left" class="element">Observed Count</text>
</a>
</g>
</g>
<g>
<g transform="translate(588.88 273.75)">
<a href="StructureDefinition-LymphNodeAbnormality-definitions.html#Observation.component:obsDistribution" target="_top">
<rect class="element" x="0" y="0" width="171.29" height="26.25" rx="3.75" ry="3.75" />
</a>
<a href="StructureDefinition-LymphNodeAbnormality-definitions.html#Observation.component:obsDistribution" target="_top">
<text x="5.62" y="18.75" text-anchor="left" class="element">Observed Distribution</text>
</a>
</g>
<line class="connector" marker-end="url(#arrowEnd)" x1="790.16" y1="286.88" x2="850.16" y2="286.88" />
<text x="793.91" y="283.12" text-anchor="right" class="lhsText">bind</text>
<line class="connector" marker-start="url(#arrowStart)" x1="760.16" y1="286.88" x2="790.16" y2="286.88" />
<line class="connector" x1="790.16" y1="286.88" x2="790.16" y2="286.88" />
</g>
<g>
<g transform="translate(850.16 273.75)">
<a href="ValueSet-CalcificationDistributionVS.html" target="_top">
<rect class="valueSet" x="0" y="0" width="206.1" height="26.25" rx="3.75" ry="3.75" />
</a>
<a href="ValueSet-CalcificationDistributionVS.html" target="_top">
<text x="5.62" y="18.75" text-anchor="left" class="valueSet">CalcificationDistributionVS</text>
</a>
</g>
</g>
<g>
<g transform="translate(588.88 307.5)">
<a href="StructureDefinition-LymphNodeAbnormality-definitions.html#Observation.component:obsDistRegionSize" target="_top">
<rect class="element" x="0" y="0" width="264.72" height="26.25" rx="3.75" ry="3.75" />
</a>
<a href="StructureDefinition-LymphNodeAbnormality-definitions.html#Observation.component:obsDistRegionSize" target="_top">
<text x="5.62" y="18.75" text-anchor="left" class="element">Observed Distribution Region Size</text>
</a>
</g>
</g>
<g>
<g transform="translate(588.88 341.25)">
<a href="StructureDefinition-LymphNodeAbnormality-definitions.html#Observation.component:obsSize" target="_top">
<rect class="element" x="0" y="0" width="120.92" height="26.25" rx="3.75" ry="3.75" />
</a>
<a href="StructureDefinition-LymphNodeAbnormality-definitions.html#Observation.component:obsSize" target="_top">
<text x="5.62" y="18.75" text-anchor="left" class="element">Observed Size</text>
</a>
</g>
</g>
<g>
<g transform="translate(588.88 375)">
<a href="StructureDefinition-LymphNodeAbnormality-definitions.html#Observation.component:orientation" target="_top">
<rect class="element" x="0" y="0" width="93.44" height="26.25" rx="3.75" ry="3.75" />
</a>
<a href="StructureDefinition-LymphNodeAbnormality-definitions.html#Observation.component:orientation" target="_top">
<text x="5.62" y="18.75" text-anchor="left" class="element">Orientation</text>
</a>
</g>
<line class="connector" marker-end="url(#arrowEnd)" x1="712.32" y1="388.12" x2="772.32" y2="388.12" />
<text x="716.07" y="384.38" text-anchor="right" class="lhsText">bind</text>
<line class="connector" marker-start="url(#arrowStart)" x1="682.32" y1="388.12" x2="712.32" y2="388.12" />
<line class="connector" x1="712.32" y1="388.12" x2="712.32" y2="388.12" />
</g>
<g>
<g transform="translate(772.32 375)">
<a href="ValueSet-OrientationVS.html" target="_top">
<rect class="valueSet" x="0" y="0" width="115.43" height="26.25" rx="3.75" ry="3.75" />
</a>
<a href="ValueSet-OrientationVS.html" target="_top">
<text x="5.62" y="18.75" text-anchor="left" class="valueSet">OrientationVS</text>
</a>
</g>
</g>
<g>
<g transform="translate(588.88 408.75)">
<a href="StructureDefinition-LymphNodeAbnormality-definitions.html#Observation.component:prevDemBy" target="_top">
<rect class="element" x="0" y="0" width="138.31" height="45" rx="3.75" ry="3.75" />
</a>
<a href="StructureDefinition-LymphNodeAbnormality-definitions.html#Observation.component:prevDemBy" target="_top">
<text x="5.62" y="18.75" text-anchor="left" class="element">Previously</text>
</a>
<a href="StructureDefinition-LymphNodeAbnormality-definitions.html#Observation.component:prevDemBy" target="_top">
<text x="5.62" y="37.5" text-anchor="left" class="element">Demonstrated by</text>
</a>
</g>
<line class="connector" marker-end="url(#arrowEnd)" x1="757.18" y1="421.88" x2="817.18" y2="421.88" />
<text x="760.93" y="418.12" text-anchor="right" class="lhsText">bind</text>
<line class="connector" marker-start="url(#arrowStart)" x1="727.18" y1="431.25" x2="757.18" y2="431.25" />
<line class="connector" x1="757.18" y1="421.88" x2="757.18" y2="431.25" />
</g>
<g>
<g transform="translate(817.18 408.75)">
<a href="ValueSet-PreviouslyDemonstratedByVS.html" target="_top">
<rect class="valueSet" x="0" y="0" width="233.57" height="26.25" rx="3.75" ry="3.75" />
</a>
<a href="ValueSet-PreviouslyDemonstratedByVS.html" target="_top">
<text x="5.62" y="18.75" text-anchor="left" class="valueSet">PreviouslyDemonstratedByVS</text>
</a>
</g>
</g>
<g>
<g transform="translate(588.88 461.25)">
<a href="StructureDefinition-LymphNodeAbnormality-definitions.html#Observation.component:shape" target="_top">
<rect class="element" x="0" y="0" width="60.48" height="26.25" rx="3.75" ry="3.75" />
</a>
<a href="StructureDefinition-LymphNodeAbnormality-definitions.html#Observation.component:shape" target="_top">
<text x="5.62" y="18.75" text-anchor="left" class="element">Shape</text>
</a>
</g>
<line class="connector" marker-end="url(#arrowEnd)" x1="679.36" y1="474.38" x2="739.36" y2="474.38" />
<text x="683.11" y="470.62" text-anchor="right" class="lhsText">bind</text>
<line class="connector" marker-start="url(#arrowStart)" x1="649.36" y1="474.38" x2="679.36" y2="474.38" />
<line class="connector" x1="679.36" y1="474.38" x2="679.36" y2="474.38" />
</g>
<g>
<g transform="translate(739.36 461.25)">
<a href="ValueSet-ShapeVS.html" target="_top">
<rect class="valueSet" x="0" y="0" width="82.47" height="26.25" rx="3.75" ry="3.75" />
</a>
<a href="ValueSet-ShapeVS.html" target="_top">
<text x="5.62" y="18.75" text-anchor="left" class="valueSet">ShapeVS</text>
</a>
</g>
</g>
<g>
<g transform="translate(392.61 495)">
<a href="StructureDefinition-LymphNodeAbnormality-definitions.html#Observation.hasMember" target="_top">
<rect class="element" x="0" y="0" width="102.57" height="26.25" rx="3.75" ry="3.75" />
</a>
<a href="StructureDefinition-LymphNodeAbnormality-definitions.html#Observation.hasMember" target="_top">
<text x="5.62" y="18.75" text-anchor="left" class="element">HasMember</text>
</a>
</g>
<line class="connector" marker-end="url(#arrowEnd)" x1="525.18" y1="508.12" x2="585.18" y2="508.12" />
<text x="528.93" y="504.38" text-anchor="right" class="lhsText">0..1</text>
<line class="connector" marker-end="url(#arrowEnd)" x1="525.18" y1="541.88" x2="585.18" y2="541.88" />
<text x="528.93" y="538.12" text-anchor="right" class="lhsText">0..*</text>
<line class="connector" marker-end="url(#arrowEnd)" x1="525.18" y1="575.62" x2="585.18" y2="575.62" />
<text x="528.93" y="571.88" text-anchor="right" class="lhsText">0..1</text>
<line class="connector" marker-start="url(#arrowStart)" x1="495.18" y1="508.12" x2="525.18" y2="508.12" />
<line class="connector" x1="525.18" y1="508.12" x2="525.18" y2="575.62" />
</g>
<g>
<g transform="translate(585.18 495)">
<a href="StructureDefinition-BreastAssessmentCategory.html" target="_top">
<rect class="profile" x="0" y="0" width="226.23" height="26.25" rx="3.75" ry="3.75" />
</a>
<a href="StructureDefinition-BreastAssessmentCategory.html" target="_top">
<text x="5.62" y="18.75" text-anchor="left" class="profile">Breast Assessment Category</text>
</a>
</g>
</g>
<g>
<g transform="translate(585.18 528.75)">
<a href="StructureDefinition-AssociatedFeature.html" target="_top">
<rect class="profile" x="0" y="0" width="154.82" height="26.25" rx="3.75" ry="3.75" />
</a>
<a href="StructureDefinition-AssociatedFeature.html" target="_top">
<text x="5.62" y="18.75" text-anchor="left" class="profile">Associated Feature</text>
</a>
</g>
</g>
<g>
<g transform="translate(585.18 562.5)">
<a href="StructureDefinition-TumorSatellite.html" target="_top">
<rect class="profile" x="0" y="0" width="123.65" height="26.25" rx="3.75" ry="3.75" />
</a>
<a href="StructureDefinition-TumorSatellite.html" target="_top">
<text x="5.62" y="18.75" text-anchor="left" class="profile">Tumor Satellite</text>
</a>
</g>
</g>
<g>
<g transform="translate(3.75 671.25)">
<rect class="focus" x="0" y="0" width="57.72" height="26.25" rx="3.75" ry="3.75" />
<text x="5.62" y="18.75" text-anchor="left" class="focus">Focus</text>
</g>
<g transform="translate(68.97 671.25)">
<rect class="profile" x="0" y="0" width="143.81" height="26.25" rx="3.75" ry="3.75" />
<text x="5.62" y="18.75" text-anchor="left" class="profile">Profiled Resource</text>
</g>
<g transform="translate(220.28 671.25)">
<rect class="element" x="0" y="0" width="148.39" height="26.25" rx="3.75" ry="3.75" />
<text x="5.62" y="18.75" text-anchor="left" class="element">Resource Element</text>
</g>
<g transform="translate(376.16 671.25)">
<rect class="valueSet" x="0" y="0" width="79.72" height="26.25" rx="3.75" ry="3.75" />
<text x="5.62" y="18.75" text-anchor="left" class="valueSet">ValueSet</text>
</g>
<g transform="translate(463.38 671.25)">
<rect class="value" x="0" y="0" width="54.98" height="26.25" rx="3.75" ry="3.75" />
<text x="5.62" y="18.75" text-anchor="left" class="value">Value</text>
</g>
</g>
</svg>
