<?xml version="1.0"?>
<?xml-stylesheet type="text/css" href="FocusGraph.css" ?>
<!DOCTYPE svg PUBLIC "-//W3C//DTD SVG 1.1//EN" "http://www.w3.org/Graphics/SVG/1.1/DTD/svg11.dtd">
<svg xmlns="http://www.w3.org/2000/svg" version="1.1" width="799.88" height="255">
<defs>
<marker id="arrowStart" markerWidth="3.75" markerHeight="3.75" markerUnits="px" refX="1.88" refY="1.88">
<circle class="connector" cx="1.88" cy="1.88" r="1.88" />
</marker>
<marker id="arrowEnd" markerWidth="7.5" markerHeight="7.5" markerUnits="px" refX="7.5" refY="3.75">
<polygon class="connector" points="0 0 7.5 3.75 0 7.5" />
</marker>
</defs>
<g>
<g transform="translate(7.5 7.5)">
<a href="StructureDefinition-AbnormalityCyst.html" target="_top">
<rect class="profile" x="0" y="0" width="57" height="33.75" rx="3.75" ry="3.75" />
</a>
<a href="StructureDefinition-AbnormalityCyst.html" target="_top">
<text x="28.5" y="22.5" text-anchor="middle" class="profile">Cyst</text>
</a>
</g>
<g transform="translate(7.5 48.75)">
<a href="StructureDefinition-AbnormalityLymphNode.html" target="_top">
<rect class="profile" x="0" y="0" width="57" height="33.75" rx="3.75" ry="3.75" />
</a>
<a href="StructureDefinition-AbnormalityLymphNode.html" target="_top">
<text x="28.5" y="22.5" text-anchor="middle" class="profile">Cyst</text>
</a>
</g>
<g transform="translate(7.5 90)">
<a href="StructureDefinition-AbnormalityMass.html" target="_top">
<rect class="profile" x="0" y="0" width="57" height="33.75" rx="3.75" ry="3.75" />
</a>
<a href="StructureDefinition-AbnormalityMass.html" target="_top">
<text x="28.5" y="22.5" text-anchor="middle" class="profile">Mass</text>
</a>
</g>
<line class="connector" marker-end="url(#arrowEnd)" x1="94.5" y1="24.38" x2="154.5" y2="24.38" />
<text x="98.25" y="20.62" text-anchor="right" class="lhsText">0..*</text>
<line class="connector" marker-start="url(#arrowStart)" x1="64.5" y1="24.38" x2="94.5" y2="24.38" />
<line class="connector" marker-start="url(#arrowStart)" x1="64.5" y1="65.62" x2="94.5" y2="65.62" />
<line class="connector" marker-start="url(#arrowStart)" x1="64.5" y1="106.88" x2="94.5" y2="106.88" />
<line class="connector" x1="94.5" y1="24.38" x2="94.5" y2="106.88" />
</g>
<g>
<g transform="translate(154.5 7.5)">
<a href="StructureDefinition-TumorSatellite.html" target="_top">
<rect class="focus" x="0" y="0" width="172.5" height="33.75" rx="3.75" ry="3.75" />
</a>
<a href="StructureDefinition-TumorSatellite.html" target="_top">
<text x="86.25" y="22.5" text-anchor="middle" class="focus">Tumor Satellite</text>
</a>
</g>
<line class="connector" marker-end="url(#arrowEnd)" x1="357" y1="24.38" x2="417" y2="24.38" />
<text x="360.75" y="20.62" text-anchor="right" class="lhsText">0..*</text>
<line class="connector" marker-end="url(#arrowEnd)" x1="357" y1="65.62" x2="417" y2="65.62" />
<text x="360.75" y="61.88" text-anchor="right" class="lhsText">0..1</text>
<line class="connector" marker-start="url(#arrowStart)" x1="327" y1="24.38" x2="357" y2="24.38" />
<line class="connector" x1="357" y1="24.38" x2="357" y2="65.62" />
</g>
<g>
<g transform="translate(417 7.5)">
<a href="StructureDefinition-TumorSatellite-definitions.html#Observation.derivedFrom" target="_top">
<rect class="element" x="0" y="0" width="130.5" height="33.75" rx="3.75" ry="3.75" />
</a>
<a href="StructureDefinition-TumorSatellite-definitions.html#Observation.derivedFrom" target="_top">
<text x="65.25" y="22.5" text-anchor="middle" class="element">DerivedFrom</text>
</a>
</g>
<line class="connector" marker-end="url(#arrowEnd)" x1="577.5" y1="24.38" x2="637.5" y2="24.38" />
<text x="581.25" y="20.62" text-anchor="right" class="lhsText">0..1</text>
<line class="connector" marker-start="url(#arrowStart)" x1="547.5" y1="24.38" x2="577.5" y2="24.38" />
<line class="connector" x1="577.5" y1="24.38" x2="577.5" y2="24.38" />
</g>
<g>
<g transform="translate(637.5 7.5)">
<a href="http://hl7.org/fhir/StructureDefinition/Observation" target="_top">
<rect class="fhir" x="0" y="0" width="130.5" height="33.75" rx="3.75" ry="3.75" />
</a>
<a href="http://hl7.org/fhir/StructureDefinition/Observation" target="_top">
<text x="65.25" y="22.5" text-anchor="middle" class="fhir">Observation</text>
</a>
</g>
</g>
<g>
<g transform="translate(417 48.75)">
<a href="StructureDefinition-TumorSatellite-definitions.html#Observation.value[x]" target="_top">
<rect class="element" x="0" y="0" width="67.5" height="33.75" rx="3.75" ry="3.75" />
</a>
<a href="StructureDefinition-TumorSatellite-definitions.html#Observation.value[x]" target="_top">
<text x="33.75" y="22.5" text-anchor="middle" class="element">Value</text>
</a>
</g>
</g>
<g>
<g transform="translate(7.5 206.25)">
<rect class="focus" x="0" y="0" width="67.5" height="33.75" rx="3.75" ry="3.75" />
<text x="33.75" y="22.5" text-anchor="middle" class="focus">Focus</text>
</g>
<g transform="translate(82.5 206.25)">
<rect class="profile" x="0" y="0" width="193.5" height="33.75" rx="3.75" ry="3.75" />
<text x="96.75" y="22.5" text-anchor="middle" class="profile">Profiled Resource</text>
</g>
<g transform="translate(283.5 206.25)">
<rect class="fhir" x="0" y="0" width="151.5" height="33.75" rx="3.75" ry="3.75" />
<text x="75.75" y="22.5" text-anchor="middle" class="fhir">Base Resource</text>
</g>
<g transform="translate(442.5 206.25)">
<rect class="element" x="0" y="0" width="183" height="33.75" rx="3.75" ry="3.75" />
<text x="91.5" y="22.5" text-anchor="middle" class="element">Resource Element</text>
</g>
</g>
</svg>
