<?xml version="1.0"?>
<!DOCTYPE svg PUBLIC "-//W3C//DTD SVG 1.1//EN" "http://www.w3.org/Graphics/SVG/1.1/DTD/svg11.dtd">
<svg xmlns="http://www.w3.org/2000/svg" version="1.1" width="979.50006" height="183.75">
<defs>
<marker id="arrowStart" markerWidth="3.75" markerHeight="3.75" markerUnits="px" refX="1.875" refY="1.875">
<circle fill="Black" stroke-width="0" cx="1.875" cy="1.875" r="1.875" />
</marker>
<marker id="arrowEnd" markerWidth="7.5" markerHeight="7.5" markerUnits="px" refX="7.5" refY="3.75">
<polygon fill="Black" stroke-width="0" points="0 0 7.5 3.75 0 7.5" />
</marker>
</defs>
<g>
<g transform="translate(7.5 7.5)">
<rect fill="LightCyan" stroke="Black" stroke-width="1.875" x="0" y="0" width="120" height="52.5" rx="3.75" ry="3.75" />
<a href="./StructureDefinition-AssociatedFeatures.html" target="_top">
<title>'AssociatedFeatures'</title>
<text x="60" y="22.5" text-anchor="middle">Associated</text>
</a>
<a href="./StructureDefinition-AssociatedFeatures.html" target="_top">
<title>'AssociatedFeatures'</title>
<text x="60" y="41.25" text-anchor="middle">Features</text>
</a>
</g>
<line stroke="Black" stroke-width="1.875" marker-end="url(#arrowEnd)" x1="157.5" y1="24.375" x2="187.5" y2="24.375" />
<line stroke="Black" stroke-width="1.875" marker-start="url(#arrowStart)" x1="127.5" y1="33.75" x2="157.5" y2="33.75" />
<line stroke="Black" stroke-width="1.875" x1="157.5" y1="24.375" x2="157.5" y2="33.75" />
</g>
<g>
<g transform="translate(187.5 7.5)">
<rect fill="White" stroke="Black" stroke-width="1.875" x="0" y="0" width="183" height="33.75" rx="3.75" ry="3.75" />
<text x="91.5" y="22.5" text-anchor="middle">Observed Feature</text>
</g>
<line stroke="Black" stroke-width="1.875" marker-end="url(#arrowEnd)" x1="400.5" y1="33.75" x2="430.5" y2="33.75" />
<line stroke="Black" stroke-width="1.875" marker-end="url(#arrowEnd)" x1="400.5" y1="93.75" x2="430.5" y2="93.75" />
<line stroke="Black" stroke-width="1.875" marker-end="url(#arrowEnd)" x1="400.5" y1="144.375" x2="430.5" y2="144.375" />
<line stroke="Black" stroke-width="1.875" marker-start="url(#arrowStart)" x1="370.5" y1="24.375" x2="400.5" y2="24.375" />
<line stroke="Black" stroke-width="1.875" x1="400.5" y1="24.375" x2="400.5" y2="144.375" />
</g>
<g>
<g transform="translate(430.5 7.5)">
<rect fill="LightYellow" stroke="Black" stroke-width="1.875" x="0" y="0" width="235.5" height="52.5" rx="3.75" ry="3.75" />
<text x="117.75" y="22.5" text-anchor="middle">Observed Feature Type</text>
<text x="117.75" y="41.25" text-anchor="middle">CodeableConcept</text>
</g>
<line stroke="Black" stroke-width="1.875" marker-end="url(#arrowEnd)" x1="696" y1="24.375" x2="726" y2="24.375" />
<line stroke="Black" stroke-width="1.875" marker-start="url(#arrowStart)" x1="666" y1="33.75" x2="696" y2="33.75" />
<line stroke="Black" stroke-width="1.875" x1="696" y1="24.375" x2="696" y2="33.75" />
</g>
<g>
<g transform="translate(726 7.5)">
<rect fill="LightGreen" stroke="Black" stroke-width="1.875" x="0" y="0" width="193.5" height="33.75" rx="3.75" ry="3.75" />
<a href="./ValueSet-ObservedFeatureVS.html" target="_top">
<title>'ObservedFeatureVS'</title>
<text x="96.75" y="22.5" text-anchor="middle">ObservedFeatureVS</text>
</a>
</g>
</g>
<g>
<g transform="translate(430.5 67.5)">
<rect fill="LightYellow" stroke="Black" stroke-width="1.875" x="0" y="0" width="162" height="52.5" rx="3.75" ry="3.75" />
<text x="81" y="22.5" text-anchor="middle">Observed Count</text>
<text x="81" y="41.25" text-anchor="middle">Quantity</text>
</g>
</g>
<g>
<g transform="translate(430.5 127.5)">
<rect fill="LightBlue" stroke="Black" stroke-width="1.875" x="0" y="0" width="183" height="33.75" rx="3.75" ry="3.75" />
<a href="./StructureDefinition-BreastBodyLocationExtension.html" target="_top">
<title>'BreastBodyLocationExtension'</title>
<text x="91.5" y="22.5" text-anchor="middle">Breast Body Loc.</text>
</a>
</g>
</g>
</svg>
