<?xml version="1.0"?>
<?xml-stylesheet type="text/css" href="FocusGraph.css" ?>
<!DOCTYPE svg PUBLIC "-//W3C//DTD SVG 1.1//EN" "http://www.w3.org/Graphics/SVG/1.1/DTD/svg11.dtd">
<svg xmlns="http://www.w3.org/2000/svg" version="1.1" width="916.875" height="558.75">
<defs>
<marker id="arrowStart" markerWidth="3.75" markerHeight="3.75" markerUnits="px" refX="1.875" refY="1.875">
<circle fill="Black" stroke-width="0" cx="1.875" cy="1.875" r="1.875" />
</marker>
<marker id="arrowEnd" markerWidth="7.5" markerHeight="7.5" markerUnits="px" refX="7.5" refY="3.75">
<polygon fill="Black" stroke-width="0" points="0 0 7.5 3.75 0 7.5" />
</marker>
</defs>
<g>
<g transform="translate(7.5 7.5)">
<a href="StructureDefinition-FindingsLeftBreast.html" target="_top">
<rect class="profile" fill="White" stroke="Black" stroke-width="1.875" x="0" y="0" width="130.5" height="52.5" rx="3.75" ry="3.75" />
</a>
<a href="StructureDefinition-FindingsLeftBreast.html" target="_top">
<text x="65.25" y="22.5" text-anchor="middle" class="profile">Findings</text>
</a>
<a href="StructureDefinition-FindingsLeftBreast.html" target="_top">
<text x="65.25" y="41.25" text-anchor="middle" class="profile">Left Breast</text>
</a>
</g>
<g transform="translate(7.5 67.5)">
<a href="StructureDefinition-FindingsRightBreast.html" target="_top">
<rect class="profile" fill="White" stroke="Black" stroke-width="1.875" x="0" y="0" width="141" height="52.5" rx="3.75" ry="3.75" />
</a>
<a href="StructureDefinition-FindingsRightBreast.html" target="_top">
<text x="70.5" y="22.5" text-anchor="middle" class="profile">Findings</text>
</a>
<a href="StructureDefinition-FindingsRightBreast.html" target="_top">
<text x="70.5" y="41.25" text-anchor="middle" class="profile">Right Breast</text>
</a>
</g>
<line stroke="Black" stroke-width="1.875" marker-end="url(#arrowEnd)" x1="178.5" y1="24.375" x2="208.5" y2="24.375" />
<line stroke="Black" stroke-width="1.875" marker-start="url(#arrowStart)" x1="138" y1="33.75" x2="178.5" y2="33.75" />
<line stroke="Black" stroke-width="1.875" marker-start="url(#arrowStart)" x1="148.5" y1="93.75" x2="178.5" y2="93.75" />
<line stroke="Black" stroke-width="1.875" x1="178.5" y1="24.375" x2="178.5" y2="93.75" />
</g>
<g>
<g transform="translate(208.5 7.5)">
<a href="StructureDefinition-MGFinding.html" target="_top">
<rect class="focus" fill="White" stroke="Black" stroke-width="1.875" x="0" y="0" width="120" height="33.75" rx="3.75" ry="3.75" />
</a>
<a href="StructureDefinition-MGFinding.html" target="_top">
<text x="60" y="22.5" text-anchor="middle" class="focus">Mg Finding</text>
</a>
</g>
<line stroke="Black" stroke-width="1.875" marker-end="url(#arrowEnd)" x1="358.5" y1="24.375" x2="418.5" y2="24.375" />
<text x="362.25" y="20.625" text-anchor="right" class="lhsText">1..*</text>
<line stroke="Black" stroke-width="1.875" marker-start="url(#arrowStart)" x1="328.5" y1="24.375" x2="358.5" y2="24.375" />
<line stroke="Black" stroke-width="1.875" x1="358.5" y1="24.375" x2="358.5" y2="24.375" />
</g>
<g>
<g transform="translate(418.5 7.5)">
<a href="StructureDefinition-MGFinding-definitions.html#Observation.hasMember" target="_top">
<rect class="element" fill="White" stroke="Black" stroke-width="1.875" x="0" y="0" width="109.49999" height="33.75" rx="3.75" ry="3.75" />
</a>
<a href="StructureDefinition-MGFinding-definitions.html#Observation.hasMember" target="_top">
<text x="54.749996" y="22.5" text-anchor="middle" class="element">HasMember</text>
</a>
</g>
<line stroke="Black" stroke-width="1.875" marker-end="url(#arrowEnd)" x1="588" y1="24.375" x2="618" y2="24.375" />
<line stroke="Black" stroke-width="1.875" marker-end="url(#arrowEnd)" x1="588" y1="65.625" x2="618" y2="65.625" />
<line stroke="Black" stroke-width="1.875" marker-end="url(#arrowEnd)" x1="588" y1="106.875" x2="618" y2="106.875" />
<line stroke="Black" stroke-width="1.875" marker-end="url(#arrowEnd)" x1="588" y1="148.125" x2="618" y2="148.125" />
<line stroke="Black" stroke-width="1.875" marker-end="url(#arrowEnd)" x1="588" y1="189.375" x2="618" y2="189.375" />
<line stroke="Black" stroke-width="1.875" marker-end="url(#arrowEnd)" x1="588" y1="230.625" x2="618" y2="230.625" />
<line stroke="Black" stroke-width="1.875" marker-end="url(#arrowEnd)" x1="588" y1="271.875" x2="618" y2="271.875" />
<line stroke="Black" stroke-width="1.875" marker-end="url(#arrowEnd)" x1="588" y1="313.125" x2="618" y2="313.125" />
<line stroke="Black" stroke-width="1.875" marker-end="url(#arrowEnd)" x1="588" y1="354.375" x2="618" y2="354.375" />
<line stroke="Black" stroke-width="1.875" marker-end="url(#arrowEnd)" x1="588" y1="395.625" x2="618" y2="395.625" />
<line stroke="Black" stroke-width="1.875" marker-end="url(#arrowEnd)" x1="588" y1="436.875" x2="618" y2="436.875" />
<line stroke="Black" stroke-width="1.875" marker-end="url(#arrowEnd)" x1="588" y1="478.125" x2="618" y2="478.125" />
<line stroke="Black" stroke-width="1.875" marker-end="url(#arrowEnd)" x1="588" y1="519.375" x2="618" y2="519.375" />
<line stroke="Black" stroke-width="1.875" marker-start="url(#arrowStart)" x1="528" y1="24.375" x2="588" y2="24.375" />
<text x="531.75" y="20.625" text-anchor="left" class="rhsText">1..1</text>
<line stroke="Black" stroke-width="1.875" x1="588" y1="24.375" x2="588" y2="519.375" />
</g>
<g>
<g transform="translate(618 7.5)">
<a href="StructureDefinition-AbnormalityCyst.html" target="_top">
<rect class="profile" fill="White" stroke="Black" stroke-width="1.875" x="0" y="0" width="57" height="33.75" rx="3.75" ry="3.75" />
</a>
<a href="StructureDefinition-AbnormalityCyst.html" target="_top">
<text x="28.5" y="22.5" text-anchor="middle" class="profile">Cyst</text>
</a>
</g>
</g>
<g>
<g transform="translate(618 48.75)">
<a href="StructureDefinition-AbnormalityDuct.html" target="_top">
<rect class="profile" fill="White" stroke="Black" stroke-width="1.875" x="0" y="0" width="57" height="33.75" rx="3.75" ry="3.75" />
</a>
<a href="StructureDefinition-AbnormalityDuct.html" target="_top">
<text x="28.5" y="22.5" text-anchor="middle" class="profile">Duct</text>
</a>
</g>
</g>
<g>
<g transform="translate(618 90)">
<a href="StructureDefinition-AbnormalityForeignObject.html" target="_top">
<rect class="profile" fill="White" stroke="Black" stroke-width="1.875" x="0" y="0" width="162" height="33.75" rx="3.75" ry="3.75" />
</a>
<a href="StructureDefinition-AbnormalityForeignObject.html" target="_top">
<text x="81" y="22.5" text-anchor="middle" class="profile">Foreign Object</text>
</a>
</g>
</g>
<g>
<g transform="translate(618 131.25)">
<a href="StructureDefinition-AbnormalityLymphNode.html" target="_top">
<rect class="profile" fill="White" stroke="Black" stroke-width="1.875" x="0" y="0" width="57" height="33.75" rx="3.75" ry="3.75" />
</a>
<a href="StructureDefinition-AbnormalityLymphNode.html" target="_top">
<text x="28.5" y="22.5" text-anchor="middle" class="profile">Cyst</text>
</a>
</g>
</g>
<g>
<g transform="translate(618 172.5)">
<a href="StructureDefinition-AbnormalityMass.html" target="_top">
<rect class="profile" fill="White" stroke="Black" stroke-width="1.875" x="0" y="0" width="57" height="33.75" rx="3.75" ry="3.75" />
</a>
<a href="StructureDefinition-AbnormalityMass.html" target="_top">
<text x="28.5" y="22.5" text-anchor="middle" class="profile">Mass</text>
</a>
</g>
</g>
<g>
<g transform="translate(618 213.75)">
<a href="StructureDefinition-AssociatedFeature.html" target="_top">
<rect class="profile" fill="White" stroke="Black" stroke-width="1.875" x="0" y="0" width="203.99998" height="33.75" rx="3.75" ry="3.75" />
</a>
<a href="StructureDefinition-AssociatedFeature.html" target="_top">
<text x="101.99999" y="22.5" text-anchor="middle" class="profile">Associated Feature</text>
</a>
</g>
</g>
<g>
<g transform="translate(618 255)">
<a href="StructureDefinition-AbnormalityFibroadenoma.html" target="_top">
<rect class="profile" fill="White" stroke="Black" stroke-width="1.875" x="0" y="0" width="141" height="33.75" rx="3.75" ry="3.75" />
</a>
<a href="StructureDefinition-AbnormalityFibroadenoma.html" target="_top">
<text x="70.5" y="22.5" text-anchor="middle" class="profile">Fibroadenoma</text>
</a>
</g>
</g>
<g>
<g transform="translate(618 296.25)">
<a href="StructureDefinition-AbnormalityArchitecturalDistortion.html" target="_top">
<rect class="profile" fill="White" stroke="Black" stroke-width="1.875" x="0" y="0" width="267" height="33.75" rx="3.75" ry="3.75" />
</a>
<a href="StructureDefinition-AbnormalityArchitecturalDistortion.html" target="_top">
<text x="133.5" y="22.5" text-anchor="middle" class="profile">Architectural Distortion</text>
</a>
</g>
</g>
<g>
<g transform="translate(618 337.5)">
<a href="StructureDefinition-AbnormalityAsymmetry.html" target="_top">
<rect class="profile" fill="White" stroke="Black" stroke-width="1.875" x="0" y="0" width="109.49999" height="33.75" rx="3.75" ry="3.75" />
</a>
<a href="StructureDefinition-AbnormalityAsymmetry.html" target="_top">
<text x="54.749996" y="22.5" text-anchor="middle" class="profile">Asymmetry</text>
</a>
</g>
</g>
<g>
<g transform="translate(618 378.75)">
<a href="StructureDefinition-AbnormalityCalcification.html" target="_top">
<rect class="profile" fill="White" stroke="Black" stroke-width="1.875" x="0" y="0" width="151.49998" height="33.75" rx="3.75" ry="3.75" />
</a>
<a href="StructureDefinition-AbnormalityCalcification.html" target="_top">
<text x="75.74999" y="22.5" text-anchor="middle" class="profile">Calcification</text>
</a>
</g>
</g>
<g>
<g transform="translate(618 420)">
<a href="StructureDefinition-AbnormalityDensity.html" target="_top">
<rect class="profile" fill="White" stroke="Black" stroke-width="1.875" x="0" y="0" width="88.5" height="33.75" rx="3.75" ry="3.75" />
</a>
<a href="StructureDefinition-AbnormalityDensity.html" target="_top">
<text x="44.25" y="22.5" text-anchor="middle" class="profile">Density</text>
</a>
</g>
</g>
<g>
<g transform="translate(618 461.25)">
<a href="StructureDefinition-AbnormalityFatNecrosis.html" target="_top">
<rect class="profile" fill="White" stroke="Black" stroke-width="1.875" x="0" y="0" width="141" height="33.75" rx="3.75" ry="3.75" />
</a>
<a href="StructureDefinition-AbnormalityFatNecrosis.html" target="_top">
<text x="70.5" y="22.5" text-anchor="middle" class="profile">Fat Necrosis</text>
</a>
</g>
</g>
<g>
<g transform="translate(618 502.5)">
<a href="StructureDefinition-MGBreastDensity.html" target="_top">
<rect class="profile" fill="White" stroke="Black" stroke-width="1.875" x="0" y="0" width="162" height="33.75" rx="3.75" ry="3.75" />
</a>
<a href="StructureDefinition-MGBreastDensity.html" target="_top">
<text x="81" y="22.5" text-anchor="middle" class="profile">Breast Density</text>
</a>
</g>
</g>
</svg>
