<?xml version="1.0"?>
<?xml-stylesheet type="text/css" href="FocusGraph.css" ?>
<!DOCTYPE svg PUBLIC "-//W3C//DTD SVG 1.1//EN" "http://www.w3.org/Graphics/SVG/1.1/DTD/svg11.dtd">
<svg xmlns="http://www.w3.org/2000/svg" version="1.1" width="1027.67" height="746.25">
<defs>
<marker id="arrowStart" markerWidth="3.75" markerHeight="3.75" markerUnits="px" refX="1.88" refY="1.88">
<circle class="connector" cx="1.88" cy="1.88" r="1.88" />
</marker>
<marker id="arrowEnd" markerWidth="7.5" markerHeight="7.5" markerUnits="px" refX="7.5" refY="3.75">
<polygon class="connector" points="0 0 7.5 3.75 0 7.5" />
</marker>
</defs>
<g>
<g transform="translate(3.75 3.75)">
<a href="StructureDefinition-MGFinding.html" target="_top">
<rect class="profile" x="0" y="0" width="102.6" height="26.25" rx="3.75" ry="3.75" />
</a>
<a href="StructureDefinition-MGFinding.html" target="_top">
<text x="5.62" y="18.75" text-anchor="left" class="profile">Mg Findings</text>
</a>
</g>
<line class="connector" marker-end="url(#arrowEnd)" x1="136.35" y1="16.88" x2="196.35" y2="16.88" />
<text x="140.1" y="13.12" text-anchor="right" class="lhsText">0..*</text>
<line class="connector" marker-start="url(#arrowStart)" x1="106.35" y1="16.88" x2="136.35" y2="16.88" />
<line class="connector" x1="136.35" y1="16.88" x2="136.35" y2="16.88" />
</g>
<g>
<g transform="translate(196.35 3.75)">
<a href="StructureDefinition-AbnormalityCyst.html" target="_top">
<rect class="focus" x="0" y="0" width="45.79" height="26.25" rx="3.75" ry="3.75" />
</a>
<a href="StructureDefinition-AbnormalityCyst.html" target="_top">
<text x="5.62" y="18.75" text-anchor="left" class="focus">Cyst</text>
</a>
</g>
<line class="connector" marker-end="url(#arrowEnd)" x1="272.14" y1="16.88" x2="332.14" y2="16.88" />
<text x="275.89" y="13.12" text-anchor="right" class="lhsText">1..1</text>
<line class="connector" marker-end="url(#arrowEnd)" x1="272.14" y1="50.62" x2="332.14" y2="50.62" />
<text x="275.89" y="46.88" text-anchor="right" class="lhsText">1..1</text>
<line class="connector" marker-end="url(#arrowEnd)" x1="272.14" y1="84.38" x2="332.14" y2="84.38" />
<text x="275.89" y="80.62" text-anchor="right" class="lhsText">0..*</text>
<line class="connector" marker-end="url(#arrowEnd)" x1="272.14" y1="508.12" x2="332.14" y2="508.12" />
<text x="275.89" y="504.38" text-anchor="right" class="lhsText">0..*</text>
<line class="connector" marker-start="url(#arrowStart)" x1="242.14" y1="16.88" x2="272.14" y2="16.88" />
<line class="connector" x1="272.14" y1="16.88" x2="272.14" y2="508.12" />
</g>
<g>
<g transform="translate(332.14 3.75)">
<a href="StructureDefinition-AbnormalityCyst-definitions.html#Observation.code" target="_top">
<rect class="element" x="0" y="0" width="52.22" height="26.25" rx="3.75" ry="3.75" />
</a>
<a href="StructureDefinition-AbnormalityCyst-definitions.html#Observation.code" target="_top">
<text x="5.62" y="18.75" text-anchor="left" class="element">Code</text>
</a>
</g>
<line class="connector" marker-end="url(#arrowEnd)" x1="414.37" y1="16.88" x2="534.37" y2="16.88" />
<text x="418.12" y="13.12" text-anchor="right" class="lhsText">pattern </text>
<line class="connector" marker-start="url(#arrowStart)" x1="384.37" y1="16.88" x2="414.37" y2="16.88" />
<line class="connector" x1="414.37" y1="16.88" x2="414.37" y2="16.88" />
</g>
<g>
<g transform="translate(534.37 3.75)">
<a href="http://hl7.org/fhir/us/breast-radiology/CodeSystem/ObservationCodesCS" target="_top">
<rect class="value" x="0" y="0" width="299.51" height="26.25" rx="3.75" ry="3.75" />
</a>
<a href="http://hl7.org/fhir/us/breast-radiology/CodeSystem/ObservationCodesCS" target="_top">
<text x="5.62" y="18.75" text-anchor="left" class="value">ObservationCodesCS#abnormalityCyst</text>
</a>
</g>
</g>
<g>
<g transform="translate(332.14 37.5)">
<a href="StructureDefinition-AbnormalityCyst-definitions.html#Observation.bodySite" target="_top">
<rect class="element" x="0" y="0" width="78.79" height="26.25" rx="3.75" ry="3.75" />
</a>
<a href="StructureDefinition-AbnormalityCyst-definitions.html#Observation.bodySite" target="_top">
<text x="5.62" y="18.75" text-anchor="left" class="element">BodySite</text>
</a>
</g>
<line class="connector" marker-end="url(#arrowEnd)" x1="440.94" y1="50.62" x2="500.94" y2="50.62" />
<text x="444.69" y="46.88" text-anchor="right" class="lhsText">1..*</text>
<line class="connector" marker-start="url(#arrowStart)" x1="410.94" y1="50.62" x2="440.94" y2="50.62" />
<line class="connector" x1="440.94" y1="50.62" x2="440.94" y2="50.62" />
</g>
<g>
<g transform="translate(500.94 37.5)">
<a href="StructureDefinition-AbnormalityCyst-definitions.html#Observation.bodySite.extension" target="_top">
<rect class="element" x="0" y="0" width="83.38" height="26.25" rx="3.75" ry="3.75" />
</a>
<a href="StructureDefinition-AbnormalityCyst-definitions.html#Observation.bodySite.extension" target="_top">
<text x="5.62" y="18.75" text-anchor="left" class="element">extension</text>
</a>
</g>
<line class="connector" marker-end="url(#arrowEnd)" x1="614.32" y1="50.62" x2="644.32" y2="50.62" />
<line class="connector" marker-start="url(#arrowStart)" x1="584.32" y1="50.62" x2="614.32" y2="50.62" />
<line class="connector" x1="614.32" y1="50.62" x2="614.32" y2="50.62" />
</g>
<g>
<g transform="translate(644.32 37.5)">
<a href="StructureDefinition-BreastBodyLocationExtension.html" target="_top">
<rect class="extension" x="0" y="0" width="160.33" height="26.25" rx="3.75" ry="3.75" />
</a>
<a href="StructureDefinition-BreastBodyLocationExtension.html" target="_top">
<text x="5.62" y="18.75" text-anchor="left" class="extension">BreastBodyLocation</text>
</a>
</g>
</g>
<g>
<g transform="translate(332.14 71.25)">
<a href="StructureDefinition-AbnormalityCyst-definitions.html#Observation.component" target="_top">
<rect class="element" x="0" y="0" width="106.26" height="26.25" rx="3.75" ry="3.75" />
</a>
<a href="StructureDefinition-AbnormalityCyst-definitions.html#Observation.component" target="_top">
<text x="5.62" y="18.75" text-anchor="left" class="element">Components</text>
</a>
</g>
<line class="connector" marker-end="url(#arrowEnd)" x1="468.41" y1="84.38" x2="528.41" y2="84.38" />
<text x="472.16" y="80.62" text-anchor="right" class="lhsText">0..*</text>
<line class="connector" marker-end="url(#arrowEnd)" x1="468.41" y1="118.12" x2="528.41" y2="118.12" />
<text x="472.16" y="114.38" text-anchor="right" class="lhsText">0..1</text>
<line class="connector" marker-end="url(#arrowEnd)" x1="468.41" y1="151.88" x2="528.41" y2="151.88" />
<text x="472.16" y="148.12" text-anchor="right" class="lhsText">0..1</text>
<line class="connector" marker-end="url(#arrowEnd)" x1="468.41" y1="185.62" x2="528.41" y2="185.62" />
<text x="472.16" y="181.88" text-anchor="right" class="lhsText">0..*</text>
<line class="connector" marker-end="url(#arrowEnd)" x1="468.41" y1="219.38" x2="528.41" y2="219.38" />
<text x="472.16" y="215.62" text-anchor="right" class="lhsText">0..*</text>
<line class="connector" marker-end="url(#arrowEnd)" x1="468.41" y1="253.12" x2="528.41" y2="253.12" />
<text x="472.16" y="249.38" text-anchor="right" class="lhsText">0..1</text>
<line class="connector" marker-end="url(#arrowEnd)" x1="468.41" y1="286.88" x2="528.41" y2="286.88" />
<text x="472.16" y="283.12" text-anchor="right" class="lhsText">0..*</text>
<line class="connector" marker-end="url(#arrowEnd)" x1="468.41" y1="320.62" x2="528.41" y2="320.62" />
<text x="472.16" y="316.88" text-anchor="right" class="lhsText">0..1</text>
<line class="connector" marker-end="url(#arrowEnd)" x1="468.41" y1="354.38" x2="528.41" y2="354.38" />
<text x="472.16" y="350.62" text-anchor="right" class="lhsText">0..3</text>
<line class="connector" marker-end="url(#arrowEnd)" x1="468.41" y1="388.12" x2="528.41" y2="388.12" />
<text x="472.16" y="384.38" text-anchor="right" class="lhsText">0..1</text>
<line class="connector" marker-end="url(#arrowEnd)" x1="468.41" y1="431.25" x2="528.41" y2="431.25" />
<text x="472.16" y="427.5" text-anchor="right" class="lhsText">0..*</text>
<line class="connector" marker-end="url(#arrowEnd)" x1="468.41" y1="474.38" x2="528.41" y2="474.38" />
<text x="472.16" y="470.62" text-anchor="right" class="lhsText">0..1</text>
<line class="connector" marker-start="url(#arrowStart)" x1="438.41" y1="84.38" x2="468.41" y2="84.38" />
<line class="connector" x1="468.41" y1="84.38" x2="468.41" y2="474.38" />
</g>
<g>
<g transform="translate(528.41 71.25)">
<a href="StructureDefinition-AbnormalityCyst-definitions.html#Observation.component:correspondsWith" target="_top">
<rect class="element" x="0" y="0" width="144.71" height="26.25" rx="3.75" ry="3.75" />
</a>
<a href="StructureDefinition-AbnormalityCyst-definitions.html#Observation.component:correspondsWith" target="_top">
<text x="5.62" y="18.75" text-anchor="left" class="element">Corresponds With</text>
</a>
</g>
<line class="connector" marker-end="url(#arrowEnd)" x1="703.11" y1="84.38" x2="763.11" y2="84.38" />
<text x="706.86" y="80.62" text-anchor="right" class="lhsText">bind</text>
<line class="connector" marker-start="url(#arrowStart)" x1="673.11" y1="84.38" x2="703.11" y2="84.38" />
<line class="connector" x1="703.11" y1="84.38" x2="703.11" y2="84.38" />
</g>
<g>
<g transform="translate(763.11 71.25)">
<a href="ValueSet-CorrespondsWithVS.html" target="_top">
<rect class="valueSet" x="0" y="0" width="162.11" height="26.25" rx="3.75" ry="3.75" />
</a>
<a href="ValueSet-CorrespondsWithVS.html" target="_top">
<text x="5.62" y="18.75" text-anchor="left" class="valueSet">CorrespondsWithVS</text>
</a>
</g>
</g>
<g>
<g transform="translate(528.41 105)">
<a href="StructureDefinition-AbnormalityCyst-definitions.html#Observation.component:cystType" target="_top">
<rect class="element" x="0" y="0" width="87.01" height="26.25" rx="3.75" ry="3.75" />
</a>
<a href="StructureDefinition-AbnormalityCyst-definitions.html#Observation.component:cystType" target="_top">
<text x="5.62" y="18.75" text-anchor="left" class="element">Cyst Type</text>
</a>
</g>
<line class="connector" marker-end="url(#arrowEnd)" x1="645.42" y1="118.12" x2="705.42" y2="118.12" />
<text x="649.17" y="114.38" text-anchor="right" class="lhsText">bind</text>
<line class="connector" marker-start="url(#arrowStart)" x1="615.42" y1="118.12" x2="645.42" y2="118.12" />
<line class="connector" x1="645.42" y1="118.12" x2="645.42" y2="118.12" />
</g>
<g>
<g transform="translate(705.42 105)">
<a href="ValueSet-AbnormalityCystTypeVS.html" target="_top">
<rect class="valueSet" x="0" y="0" width="191.43" height="26.25" rx="3.75" ry="3.75" />
</a>
<a href="ValueSet-AbnormalityCystTypeVS.html" target="_top">
<text x="5.62" y="18.75" text-anchor="left" class="valueSet">AbnormalityCystTypeVS</text>
</a>
</g>
</g>
<g>
<g transform="translate(528.41 138.75)">
<a href="StructureDefinition-AbnormalityCyst-definitions.html#Observation.component:margin" target="_top">
<rect class="element" x="0" y="0" width="63.2" height="26.25" rx="3.75" ry="3.75" />
</a>
<a href="StructureDefinition-AbnormalityCyst-definitions.html#Observation.component:margin" target="_top">
<text x="5.62" y="18.75" text-anchor="left" class="element">Margin</text>
</a>
</g>
<line class="connector" marker-end="url(#arrowEnd)" x1="621.61" y1="151.88" x2="681.61" y2="151.88" />
<text x="625.36" y="148.12" text-anchor="right" class="lhsText">bind</text>
<line class="connector" marker-start="url(#arrowStart)" x1="591.61" y1="151.88" x2="621.61" y2="151.88" />
<line class="connector" x1="621.61" y1="151.88" x2="621.61" y2="151.88" />
</g>
<g>
<g transform="translate(681.61 138.75)">
<a href="ValueSet-MarginVS.html" target="_top">
<rect class="valueSet" x="0" y="0" width="85.18" height="26.25" rx="3.75" ry="3.75" />
</a>
<a href="ValueSet-MarginVS.html" target="_top">
<text x="5.62" y="18.75" text-anchor="left" class="valueSet">MarginVS</text>
</a>
</g>
</g>
<g>
<g transform="translate(528.41 172.5)">
<a href="StructureDefinition-AbnormalityCyst-definitions.html#Observation.component:notPreviouslySeen" target="_top">
<rect class="element" x="0" y="0" width="162.14" height="26.25" rx="3.75" ry="3.75" />
</a>
<a href="StructureDefinition-AbnormalityCyst-definitions.html#Observation.component:notPreviouslySeen" target="_top">
<text x="5.62" y="18.75" text-anchor="left" class="element">Not Previously Seen</text>
</a>
</g>
<line class="connector" marker-end="url(#arrowEnd)" x1="720.54" y1="185.62" x2="780.54" y2="185.62" />
<text x="724.29" y="181.88" text-anchor="right" class="lhsText">bind</text>
<line class="connector" marker-start="url(#arrowStart)" x1="690.54" y1="185.62" x2="720.54" y2="185.62" />
<line class="connector" x1="720.54" y1="185.62" x2="720.54" y2="185.62" />
</g>
<g>
<g transform="translate(780.54 172.5)">
<a href="ValueSet-NotPreviouslySeenVS.html" target="_top">
<rect class="valueSet" x="0" y="0" width="174.97" height="26.25" rx="3.75" ry="3.75" />
</a>
<a href="ValueSet-NotPreviouslySeenVS.html" target="_top">
<text x="5.62" y="18.75" text-anchor="left" class="valueSet">NotPreviouslySeenVS</text>
</a>
</g>
</g>
<g>
<g transform="translate(528.41 206.25)">
<a href="StructureDefinition-AbnormalityCyst-definitions.html#Observation.component:obsChanges" target="_top">
<rect class="element" x="0" y="0" width="154.82" height="26.25" rx="3.75" ry="3.75" />
</a>
<a href="StructureDefinition-AbnormalityCyst-definitions.html#Observation.component:obsChanges" target="_top">
<text x="5.62" y="18.75" text-anchor="left" class="element">Observed Changes</text>
</a>
</g>
<line class="connector" marker-end="url(#arrowEnd)" x1="713.22" y1="219.38" x2="773.22" y2="219.38" />
<text x="716.97" y="215.62" text-anchor="right" class="lhsText">bind</text>
<line class="connector" marker-start="url(#arrowStart)" x1="683.22" y1="219.38" x2="713.22" y2="219.38" />
<line class="connector" x1="713.22" y1="219.38" x2="713.22" y2="219.38" />
</g>
<g>
<g transform="translate(773.22 206.25)">
<a href="ValueSet-ObservedChangesVS.html" target="_top">
<rect class="valueSet" x="0" y="0" width="172.22" height="26.25" rx="3.75" ry="3.75" />
</a>
<a href="ValueSet-ObservedChangesVS.html" target="_top">
<text x="5.62" y="18.75" text-anchor="left" class="valueSet">ObservedChangesVS</text>
</a>
</g>
</g>
<g>
<g transform="translate(528.41 240)">
<a href="StructureDefinition-AbnormalityCyst-definitions.html#Observation.component:observedCount" target="_top">
<rect class="element" x="0" y="0" width="132.83" height="26.25" rx="3.75" ry="3.75" />
</a>
<a href="StructureDefinition-AbnormalityCyst-definitions.html#Observation.component:observedCount" target="_top">
<text x="5.62" y="18.75" text-anchor="left" class="element">Observed Count</text>
</a>
</g>
</g>
<g>
<g transform="translate(528.41 273.75)">
<a href="StructureDefinition-AbnormalityCyst-definitions.html#Observation.component:obsDistribution" target="_top">
<rect class="element" x="0" y="0" width="171.29" height="26.25" rx="3.75" ry="3.75" />
</a>
<a href="StructureDefinition-AbnormalityCyst-definitions.html#Observation.component:obsDistribution" target="_top">
<text x="5.62" y="18.75" text-anchor="left" class="element">Observed Distribution</text>
</a>
</g>
<line class="connector" marker-end="url(#arrowEnd)" x1="729.69" y1="286.88" x2="789.69" y2="286.88" />
<text x="733.44" y="283.12" text-anchor="right" class="lhsText">bind</text>
<line class="connector" marker-start="url(#arrowStart)" x1="699.69" y1="286.88" x2="729.69" y2="286.88" />
<line class="connector" x1="729.69" y1="286.88" x2="729.69" y2="286.88" />
</g>
<g>
<g transform="translate(789.69 273.75)">
<a href="ValueSet-CalcificationDistributionVS.html" target="_top">
<rect class="valueSet" x="0" y="0" width="206.1" height="26.25" rx="3.75" ry="3.75" />
</a>
<a href="ValueSet-CalcificationDistributionVS.html" target="_top">
<text x="5.62" y="18.75" text-anchor="left" class="valueSet">CalcificationDistributionVS</text>
</a>
</g>
</g>
<g>
<g transform="translate(528.41 307.5)">
<a href="StructureDefinition-AbnormalityCyst-definitions.html#Observation.component:obsDistRegionSize" target="_top">
<rect class="element" x="0" y="0" width="264.72" height="26.25" rx="3.75" ry="3.75" />
</a>
<a href="StructureDefinition-AbnormalityCyst-definitions.html#Observation.component:obsDistRegionSize" target="_top">
<text x="5.62" y="18.75" text-anchor="left" class="element">Observed Distribution Region Size</text>
</a>
</g>
</g>
<g>
<g transform="translate(528.41 341.25)">
<a href="StructureDefinition-AbnormalityCyst-definitions.html#Observation.component:obsSize" target="_top">
<rect class="element" x="0" y="0" width="120.92" height="26.25" rx="3.75" ry="3.75" />
</a>
<a href="StructureDefinition-AbnormalityCyst-definitions.html#Observation.component:obsSize" target="_top">
<text x="5.62" y="18.75" text-anchor="left" class="element">Observed Size</text>
</a>
</g>
</g>
<g>
<g transform="translate(528.41 375)">
<a href="StructureDefinition-AbnormalityCyst-definitions.html#Observation.component:orientation" target="_top">
<rect class="element" x="0" y="0" width="93.44" height="26.25" rx="3.75" ry="3.75" />
</a>
<a href="StructureDefinition-AbnormalityCyst-definitions.html#Observation.component:orientation" target="_top">
<text x="5.62" y="18.75" text-anchor="left" class="element">Orientation</text>
</a>
</g>
<line class="connector" marker-end="url(#arrowEnd)" x1="651.85" y1="388.12" x2="711.85" y2="388.12" />
<text x="655.6" y="384.38" text-anchor="right" class="lhsText">bind</text>
<line class="connector" marker-start="url(#arrowStart)" x1="621.85" y1="388.12" x2="651.85" y2="388.12" />
<line class="connector" x1="651.85" y1="388.12" x2="651.85" y2="388.12" />
</g>
<g>
<g transform="translate(711.85 375)">
<a href="ValueSet-OrientationVS.html" target="_top">
<rect class="valueSet" x="0" y="0" width="115.43" height="26.25" rx="3.75" ry="3.75" />
</a>
<a href="ValueSet-OrientationVS.html" target="_top">
<text x="5.62" y="18.75" text-anchor="left" class="valueSet">OrientationVS</text>
</a>
</g>
</g>
<g>
<g transform="translate(528.41 408.75)">
<a href="StructureDefinition-AbnormalityCyst-definitions.html#Observation.component:prevDemBy" target="_top">
<rect class="element" x="0" y="0" width="138.31" height="45" rx="3.75" ry="3.75" />
</a>
<a href="StructureDefinition-AbnormalityCyst-definitions.html#Observation.component:prevDemBy" target="_top">
<text x="5.62" y="18.75" text-anchor="left" class="element">Previously</text>
</a>
<a href="StructureDefinition-AbnormalityCyst-definitions.html#Observation.component:prevDemBy" target="_top">
<text x="5.62" y="37.5" text-anchor="left" class="element">Demonstrated by</text>
</a>
</g>
<line class="connector" marker-end="url(#arrowEnd)" x1="696.72" y1="421.88" x2="756.72" y2="421.88" />
<text x="700.47" y="418.12" text-anchor="right" class="lhsText">bind</text>
<line class="connector" marker-start="url(#arrowStart)" x1="666.72" y1="431.25" x2="696.72" y2="431.25" />
<line class="connector" x1="696.72" y1="421.88" x2="696.72" y2="431.25" />
</g>
<g>
<g transform="translate(756.72 408.75)">
<a href="ValueSet-PreviouslyDemonstratedByVS.html" target="_top">
<rect class="valueSet" x="0" y="0" width="233.57" height="26.25" rx="3.75" ry="3.75" />
</a>
<a href="ValueSet-PreviouslyDemonstratedByVS.html" target="_top">
<text x="5.62" y="18.75" text-anchor="left" class="valueSet">PreviouslyDemonstratedByVS</text>
</a>
</g>
</g>
<g>
<g transform="translate(528.41 461.25)">
<a href="StructureDefinition-AbnormalityCyst-definitions.html#Observation.component:shape" target="_top">
<rect class="element" x="0" y="0" width="60.48" height="26.25" rx="3.75" ry="3.75" />
</a>
<a href="StructureDefinition-AbnormalityCyst-definitions.html#Observation.component:shape" target="_top">
<text x="5.62" y="18.75" text-anchor="left" class="element">Shape</text>
</a>
</g>
<line class="connector" marker-end="url(#arrowEnd)" x1="618.89" y1="474.38" x2="678.89" y2="474.38" />
<text x="622.64" y="470.62" text-anchor="right" class="lhsText">bind</text>
<line class="connector" marker-start="url(#arrowStart)" x1="588.89" y1="474.38" x2="618.89" y2="474.38" />
<line class="connector" x1="618.89" y1="474.38" x2="618.89" y2="474.38" />
</g>
<g>
<g transform="translate(678.89 461.25)">
<a href="ValueSet-ShapeVS.html" target="_top">
<rect class="valueSet" x="0" y="0" width="82.47" height="26.25" rx="3.75" ry="3.75" />
</a>
<a href="ValueSet-ShapeVS.html" target="_top">
<text x="5.62" y="18.75" text-anchor="left" class="valueSet">ShapeVS</text>
</a>
</g>
</g>
<g>
<g transform="translate(332.14 495)">
<a href="StructureDefinition-AbnormalityCyst-definitions.html#Observation.hasMember" target="_top">
<rect class="element" x="0" y="0" width="102.57" height="26.25" rx="3.75" ry="3.75" />
</a>
<a href="StructureDefinition-AbnormalityCyst-definitions.html#Observation.hasMember" target="_top">
<text x="5.62" y="18.75" text-anchor="left" class="element">HasMember</text>
</a>
</g>
<line class="connector" marker-end="url(#arrowEnd)" x1="464.71" y1="508.12" x2="524.71" y2="508.12" />
<text x="468.46" y="504.38" text-anchor="right" class="lhsText">0..1</text>
<line class="connector" marker-end="url(#arrowEnd)" x1="464.71" y1="541.88" x2="524.71" y2="541.88" />
<text x="468.46" y="538.12" text-anchor="right" class="lhsText">0..*</text>
<line class="connector" marker-end="url(#arrowEnd)" x1="464.71" y1="575.62" x2="524.71" y2="575.62" />
<text x="468.46" y="571.88" text-anchor="right" class="lhsText">0..*</text>
<line class="connector" marker-end="url(#arrowEnd)" x1="464.71" y1="609.38" x2="524.71" y2="609.38" />
<text x="468.46" y="605.62" text-anchor="right" class="lhsText">0..1</text>
<line class="connector" marker-start="url(#arrowStart)" x1="434.71" y1="508.12" x2="464.71" y2="508.12" />
<line class="connector" x1="464.71" y1="508.12" x2="464.71" y2="609.38" />
</g>
<g>
<g transform="translate(524.71 495)">
<a href="StructureDefinition-BreastAssessmentCategory.html" target="_top">
<rect class="profile" x="0" y="0" width="226.23" height="26.25" rx="3.75" ry="3.75" />
</a>
<a href="StructureDefinition-BreastAssessmentCategory.html" target="_top">
<text x="5.62" y="18.75" text-anchor="left" class="profile">Breast Assessment Category</text>
</a>
</g>
</g>
<g>
<g transform="translate(524.71 528.75)">
<a href="StructureDefinition-AssociatedFeature.html" target="_top">
<rect class="profile" x="0" y="0" width="154.82" height="26.25" rx="3.75" ry="3.75" />
</a>
<a href="StructureDefinition-AssociatedFeature.html" target="_top">
<text x="5.62" y="18.75" text-anchor="left" class="profile">Associated Feature</text>
</a>
</g>
</g>
<g>
<g transform="translate(524.71 562.5)">
<a href="StructureDefinition-ConsistentWith.html" target="_top">
<rect class="profile" x="0" y="0" width="128.23" height="26.25" rx="3.75" ry="3.75" />
</a>
<a href="StructureDefinition-ConsistentWith.html" target="_top">
<text x="5.62" y="18.75" text-anchor="left" class="profile">Consistent With</text>
</a>
</g>
</g>
<g>
<g transform="translate(524.71 596.25)">
<a href="StructureDefinition-TumorSatellite.html" target="_top">
<rect class="profile" x="0" y="0" width="123.65" height="26.25" rx="3.75" ry="3.75" />
</a>
<a href="StructureDefinition-TumorSatellite.html" target="_top">
<text x="5.62" y="18.75" text-anchor="left" class="profile">Tumor Satellite</text>
</a>
</g>
</g>
<g>
<g transform="translate(3.75 705)">
<rect class="focus" x="0" y="0" width="57.72" height="26.25" rx="3.75" ry="3.75" />
<text x="5.62" y="18.75" text-anchor="left" class="focus">Focus</text>
</g>
<g transform="translate(68.97 705)">
<rect class="profile" x="0" y="0" width="143.81" height="26.25" rx="3.75" ry="3.75" />
<text x="5.62" y="18.75" text-anchor="left" class="profile">Profiled Resource</text>
</g>
<g transform="translate(220.28 705)">
<rect class="extension" x="0" y="0" width="85.21" height="26.25" rx="3.75" ry="3.75" />
<text x="5.62" y="18.75" text-anchor="left" class="extension">Extension</text>
</g>
<g transform="translate(312.98 705)">
<rect class="element" x="0" y="0" width="148.39" height="26.25" rx="3.75" ry="3.75" />
<text x="5.62" y="18.75" text-anchor="left" class="element">Resource Element</text>
</g>
<g transform="translate(468.87 705)">
<rect class="valueSet" x="0" y="0" width="79.72" height="26.25" rx="3.75" ry="3.75" />
<text x="5.62" y="18.75" text-anchor="left" class="valueSet">ValueSet</text>
</g>
<g transform="translate(556.09 705)">
<rect class="value" x="0" y="0" width="54.98" height="26.25" rx="3.75" ry="3.75" />
<text x="5.62" y="18.75" text-anchor="left" class="value">Value</text>
</g>
</g>
</svg>
