<?xml version="1.0"?>
<!DOCTYPE svg PUBLIC "-//W3C//DTD SVG 1.1//EN" "http://www.w3.org/Graphics/SVG/1.1/DTD/svg11.dtd">
<svg xmlns="http://www.w3.org/2000/svg" version="1.1" width="547.5" height="93.75">
<defs>
<marker id="arrowStart" markerWidth="3.75" markerHeight="3.75" markerUnits="px" refX="1.875" refY="1.875">
<circle fill="Black" stroke-width="0" cx="1.875" cy="1.875" r="1.875" />
</marker>
<marker id="arrowEnd" markerWidth="7.5" markerHeight="7.5" markerUnits="px" refX="7.5" refY="3.75">
<polygon fill="Black" stroke-width="0" points="0 0 7.5 3.75 0 7.5" />
</marker>
</defs>
<g>
<g>
<rect fill="LightBlue" stroke="Black" stroke-width="1.875" x="7.5" y="7.5" width="109.49999" height="71.25" rx="3.75" ry="3.75" />
<a href="./StructureDefinition-BreastRadReport.html" target="_blank">
<title>'BreastRadReport'</title>
<text x="15" y="30">Breast</text>
</a>
<a href="./StructureDefinition-BreastRadReport.html" target="_blank">
<title>'BreastRadReport'</title>
<text x="15" y="48.75">Radiology</text>
</a>
<a href="./StructureDefinition-BreastRadReport.html" target="_blank">
<title>'BreastRadReport'</title>
<text x="15" y="67.5">Report</text>
</a>
</g>
<line stroke="Black" stroke-width="1.875" marker-end="url(#arrowEnd)" x1="146.99998" y1="33.75" x2="176.99998" y2="33.75" />
<line stroke="Black" stroke-width="1.875" marker-start="url(#arrowStart)" x1="116.99999" y1="43.125" x2="146.99998" y2="43.125" />
<line stroke="Black" stroke-width="1.875" x1="146.99998" y1="33.75" x2="146.99998" y2="43.125" />
</g>
<g>
<g>
<rect fill="LightGreen" stroke="Black" stroke-width="1.875" x="176.99998" y="7.5" width="130.5" height="52.5" rx="3.75" ry="3.75" />
<text x="184.49998" y="30">Impressions</text>
<text x="184.49998" y="48.75">Extension</text>
</g>
<line stroke="Black" stroke-width="1.875" marker-end="url(#arrowEnd)" x1="337.5" y1="33.75" x2="367.5" y2="33.75" />
<line stroke="Black" stroke-width="1.875" marker-start="url(#arrowStart)" x1="307.5" y1="33.75" x2="337.5" y2="33.75" />
<line stroke="Black" stroke-width="1.875" x1="337.5" y1="33.75" x2="337.5" y2="33.75" />
</g>
<g>
<g>
<rect fill="LightSalmon" stroke="Black" stroke-width="1.875" x="367.5" y="7.5" width="120" height="52.5" rx="3.75" ry="3.75" />
<a href="./StructureDefinition-ClinicalImpression.html" target="_blank">
<title>'ClinicalImpression'</title>
<text x="375" y="30">Clinical</text>
</a>
<a href="./StructureDefinition-ClinicalImpression.html" target="_blank">
<title>'ClinicalImpression'</title>
<text x="375" y="48.75">Impression</text>
</a>
</g>
</g>
</svg>
