<?xml version="1.0"?>
<!DOCTYPE svg PUBLIC "-//W3C//DTD SVG 1.1//EN" "http://www.w3.org/Graphics/SVG/1.1/DTD/svg11.dtd">
<svg xmlns="http://www.w3.org/2000/svg" version="1.1" width="600" height="348.75">
<defs>
<marker id="arrowStart" markerWidth="3.75" markerHeight="3.75" markerUnits="px" refX="1.875" refY="1.875">
<circle fill="Black" stroke-width="0" cx="1.875" cy="1.875" r="1.875" />
</marker>
<marker id="arrowEnd" markerWidth="7.5" markerHeight="7.5" markerUnits="px" refX="7.5" refY="3.75">
<polygon fill="Black" stroke-width="0" points="0 0 7.5 3.75 0 7.5" />
</marker>
</defs>
<g>
<g transform="translate(7.5 7.5)">
<rect fill="LightBlue" stroke="Black" stroke-width="1.875" x="0" y="0" width="130.5" height="33.75" rx="3.75" ry="3.75" />
<a href="./StructureDefinition-MRIFinding.html" target="_blank">
<title>'MRIFinding'</title>
<text x="65.25" y="22.5" text-anchor="middle">MRI Finding</text>
</a>
</g>
<line stroke="Black" stroke-width="1.875" marker-end="url(#arrowEnd)" x1="168" y1="24.375" x2="198" y2="24.375" />
<line stroke="Black" stroke-width="1.875" marker-start="url(#arrowStart)" x1="138" y1="24.375" x2="168" y2="24.375" />
<line stroke="Black" stroke-width="1.875" x1="168" y1="24.375" x2="168" y2="24.375" />
</g>
<g>
<g transform="translate(198 7.5)">
<rect fill="LightGreen" stroke="Black" stroke-width="1.875" x="0" y="0" width="99" height="33.75" rx="3.75" ry="3.75" />
<text x="49.5" y="22.5" text-anchor="middle">MRI Mass</text>
</g>
<line stroke="Black" stroke-width="1.875" marker-end="url(#arrowEnd)" x1="327" y1="24.375" x2="357" y2="24.375" />
<line stroke="Black" stroke-width="1.875" marker-end="url(#arrowEnd)" x1="327" y1="65.625" x2="357" y2="65.625" />
<line stroke="Black" stroke-width="1.875" marker-end="url(#arrowEnd)" x1="327" y1="106.875" x2="357" y2="106.875" />
<line stroke="Black" stroke-width="1.875" marker-end="url(#arrowEnd)" x1="327" y1="157.5" x2="357" y2="157.5" />
<line stroke="Black" stroke-width="1.875" marker-end="url(#arrowEnd)" x1="327" y1="208.125" x2="357" y2="208.125" />
<line stroke="Black" stroke-width="1.875" marker-end="url(#arrowEnd)" x1="327" y1="258.75" x2="357" y2="258.75" />
<line stroke="Black" stroke-width="1.875" marker-end="url(#arrowEnd)" x1="327" y1="309.375" x2="357" y2="309.375" />
<line stroke="Black" stroke-width="1.875" marker-start="url(#arrowStart)" x1="297" y1="24.375" x2="327" y2="24.375" />
<line stroke="Black" stroke-width="1.875" x1="327" y1="24.375" x2="327" y2="309.375" />
</g>
<g>
<g transform="translate(357 7.5)">
<rect fill="LightSalmon" stroke="Black" stroke-width="1.875" x="0" y="0" width="57" height="33.75" rx="3.75" ry="3.75" />
<a href="./StructureDefinition-ObservedSize.html" target="_blank">
<title>'ObservedSize'</title>
<text x="28.5" y="22.5" text-anchor="middle">Size</text>
</a>
</g>
<g transform="translate(357 48.75)">
<rect fill="LightSalmon" stroke="Black" stroke-width="1.875" x="0" y="0" width="67.5" height="33.75" rx="3.75" ry="3.75" />
<a href="./StructureDefinition-ObservedCount.html" target="_blank">
<title>'ObservedCount'</title>
<text x="33.75" y="22.5" text-anchor="middle">Count</text>
</a>
</g>
<g transform="translate(357 90)">
<rect fill="LightSalmon" stroke="Black" stroke-width="1.875" x="0" y="0" width="130.5" height="33.75" rx="3.75" ry="3.75" />
<a href="./StructureDefinition-Orientation.html" target="_blank">
<title>'Orientation'</title>
<text x="65.25" y="22.5" text-anchor="middle">Orientation</text>
</a>
</g>
<g transform="translate(357 131.25)">
<rect fill="LightSalmon" stroke="Black" stroke-width="1.875" x="0" y="0" width="78" height="52.5" rx="3.75" ry="3.75" />
<a href="./StructureDefinition-MRIMargin.html" target="_blank">
<title>'MRIMargin'</title>
<text x="39" y="22.5" text-anchor="middle">MRI</text>
</a>
<a href="./StructureDefinition-MRIMargin.html" target="_blank">
<title>'MRIMargin'</title>
<text x="39" y="41.25" text-anchor="middle">Margin</text>
</a>
</g>
<g transform="translate(357 191.25)">
<rect fill="LightSalmon" stroke="Black" stroke-width="1.875" x="0" y="0" width="141" height="33.75" rx="3.75" ry="3.75" />
<a href="./StructureDefinition-ObservedChangeInState.html" target="_blank">
<title>'ObservedChangeInState'</title>
<text x="70.5" y="22.5" text-anchor="middle">State Change</text>
</a>
</g>
<g transform="translate(357 232.5)">
<rect fill="LightSalmon" stroke="Black" stroke-width="1.875" x="0" y="0" width="151.49998" height="52.5" rx="3.75" ry="3.75" />
<a href="./StructureDefinition-AimAnnotatedImagingStudy.html" target="_blank">
<title>'AimAnnotatedImagingStudy'</title>
<text x="75.74999" y="22.5" text-anchor="middle">Annotated</text>
</a>
<a href="./StructureDefinition-AimAnnotatedImagingStudy.html" target="_blank">
<title>'AimAnnotatedImagingStudy'</title>
<text x="75.74999" y="41.25" text-anchor="middle">Imaging Study</text>
</a>
</g>
<g transform="translate(357 292.5)">
<rect fill="LightSalmon" stroke="Black" stroke-width="1.875" x="0" y="0" width="183" height="33.75" rx="3.75" ry="3.75" />
<a href="./StructureDefinition-BreastBodyLocationExtension.html" target="_blank">
<title>'BreastBodyLocationExtension'</title>
<text x="91.5" y="22.5" text-anchor="middle">Breast Body Loc.</text>
</a>
</g>
</g>
</svg>
