<?xml version="1.0"?>
<!DOCTYPE svg PUBLIC "-//W3C//DTD SVG 1.1//EN" "http://www.w3.org/Graphics/SVG/1.1/DTD/svg11.dtd">
<svg xmlns="http://www.w3.org/2000/svg" version="1.1" width="820.49994" height="1151.25">
<defs>
<marker id="arrowStart" markerWidth="3.75" markerHeight="3.75" markerUnits="px" refX="1.875" refY="1.875">
<circle fill="Black" stroke-width="0" cx="1.875" cy="1.875" r="1.875" />
</marker>
<marker id="arrowEnd" markerWidth="7.5" markerHeight="7.5" markerUnits="px" refX="7.5" refY="3.75">
<polygon fill="Black" stroke-width="0" points="0 0 7.5 3.75 0 7.5" />
</marker>
</defs>
<g>
<g transform="translate(7.5 7.5)">
<rect fill="LightCyan" stroke="Black" stroke-width="1.875" x="0" y="0" width="120" height="33.75" rx="3.75" ry="3.75" />
<a href="./StructureDefinition-MGFinding.html" target="_top">
<title>'MGFinding'</title>
<text x="60" y="22.5" text-anchor="middle">MG Finding</text>
</a>
</g>
<line stroke="Black" stroke-width="1.875" marker-end="url(#arrowEnd)" x1="157.5" y1="24.375" x2="187.5" y2="24.375" />
<line stroke="Black" stroke-width="1.875" marker-start="url(#arrowStart)" x1="127.5" y1="24.375" x2="157.5" y2="24.375" />
<line stroke="Black" stroke-width="1.875" x1="157.5" y1="24.375" x2="157.5" y2="24.375" />
</g>
<g>
<g transform="translate(187.5 7.5)">
<rect fill="White" stroke="Black" stroke-width="1.875" x="0" y="0" width="172.5" height="33.75" rx="3.75" ry="3.75" />
<text x="86.25" y="22.5" text-anchor="middle">MG Fibroadenoma</text>
</g>
<line stroke="Black" stroke-width="1.875" marker-end="url(#arrowEnd)" x1="390" y1="24.375" x2="420" y2="24.375" />
<line stroke="Black" stroke-width="1.875" marker-end="url(#arrowEnd)" x1="390" y1="75" x2="420" y2="75" />
<line stroke="Black" stroke-width="1.875" marker-end="url(#arrowEnd)" x1="390" y1="144.375" x2="420" y2="144.375" />
<line stroke="Black" stroke-width="1.875" marker-end="url(#arrowEnd)" x1="390" y1="213.75" x2="420" y2="213.75" />
<line stroke="Black" stroke-width="1.875" marker-end="url(#arrowEnd)" x1="390" y1="283.125" x2="420" y2="283.125" />
<line stroke="Black" stroke-width="1.875" marker-end="url(#arrowEnd)" x1="390" y1="361.875" x2="420" y2="361.875" />
<line stroke="Black" stroke-width="1.875" marker-end="url(#arrowEnd)" x1="390" y1="440.625" x2="420" y2="440.625" />
<line stroke="Black" stroke-width="1.875" marker-end="url(#arrowEnd)" x1="390" y1="519.375" x2="420" y2="519.375" />
<line stroke="Black" stroke-width="1.875" marker-end="url(#arrowEnd)" x1="390" y1="598.125" x2="420" y2="598.125" />
<line stroke="Black" stroke-width="1.875" marker-end="url(#arrowEnd)" x1="390" y1="676.875" x2="420" y2="676.875" />
<line stroke="Black" stroke-width="1.875" marker-end="url(#arrowEnd)" x1="390" y1="746.25" x2="420" y2="746.25" />
<line stroke="Black" stroke-width="1.875" marker-end="url(#arrowEnd)" x1="390" y1="815.625" x2="420" y2="815.625" />
<line stroke="Black" stroke-width="1.875" marker-end="url(#arrowEnd)" x1="390" y1="894.375" x2="420" y2="894.375" />
<line stroke="Black" stroke-width="1.875" marker-end="url(#arrowEnd)" x1="390" y1="973.125" x2="420" y2="973.125" />
<line stroke="Black" stroke-width="1.875" marker-end="url(#arrowEnd)" x1="390" y1="1051.875" x2="420" y2="1051.875" />
<line stroke="Black" stroke-width="1.875" marker-end="url(#arrowEnd)" x1="390" y1="1111.875" x2="420" y2="1111.875" />
<line stroke="Black" stroke-width="1.875" marker-start="url(#arrowStart)" x1="360" y1="24.375" x2="390" y2="24.375" />
<line stroke="Black" stroke-width="1.875" x1="390" y1="24.375" x2="390" y2="1111.875" />
</g>
<g>
<g transform="translate(420 7.5)">
<rect fill="LightCyan" stroke="Black" stroke-width="1.875" x="0" y="0" width="141" height="33.75" rx="3.75" ry="3.75" />
<a href="./StructureDefinition-ImagingStudy.html" target="_top">
<title>'ImagingStudy'</title>
<text x="70.5" y="22.5" text-anchor="middle">ImagingStudy</text>
</a>
</g>
<g transform="translate(420 48.75)">
<rect fill="LightCyan" stroke="Black" stroke-width="1.875" x="0" y="0" width="151.49998" height="52.5" rx="3.75" ry="3.75" />
<a href="./StructureDefinition-AimAnnotatedImagingStudy.html" target="_top">
<title>'AimAnnotatedImagingStudy'</title>
<text x="75.74999" y="22.5" text-anchor="middle">Annotated</text>
</a>
<a href="./StructureDefinition-AimAnnotatedImagingStudy.html" target="_top">
<title>'AimAnnotatedImagingStudy'</title>
<text x="75.74999" y="41.25" text-anchor="middle">Imaging Study</text>
</a>
</g>
<g transform="translate(420 108.75)">
<rect fill="LightYellow" stroke="Black" stroke-width="1.875" x="0" y="0" width="340.49997" height="71.25" rx="3.75" ry="3.75" />
<text x="170.24998" y="22.5" text-anchor="middle">MG AbnormalityFibroAdenoma Type</text>
<text x="170.24998" y="41.25" text-anchor="middle">CodeableConcept</text>
<a href="./ValueSet-FibroadenomaVS.html" target="_top">
<title>'FibroadenomaVS'</title>
<text x="170.24998" y="60" text-anchor="middle">FibroadenomaVS</text>
</a>
</g>
<g transform="translate(420 187.5)">
<rect fill="LightYellow" stroke="Black" stroke-width="1.875" x="0" y="0" width="162" height="52.5" rx="3.75" ry="3.75" />
<text x="81" y="22.5" text-anchor="middle">Observed Count</text>
<text x="81" y="41.25" text-anchor="middle">Quantity</text>
</g>
<g transform="translate(420 247.5)">
<rect fill="LightYellow" stroke="Black" stroke-width="1.875" x="0" y="0" width="309" height="71.25" rx="3.75" ry="3.75" />
<text x="154.5" y="22.5" text-anchor="middle">BiRads Assessment Category</text>
<text x="154.5" y="41.25" text-anchor="middle">CodeableConcept</text>
<a href="./ValueSet-BiRadsAssessmentCategoriesVS.html" target="_top">
<title>'BiRadsAssessmentCategoriesVS'</title>
<text x="154.5" y="60" text-anchor="middle">BiRadsAssessmentCategoriesVS</text>
</a>
</g>
<g transform="translate(420 326.25)">
<rect fill="LightYellow" stroke="Black" stroke-width="1.875" x="0" y="0" width="309" height="71.25" rx="3.75" ry="3.75" />
<text x="154.5" y="22.5" text-anchor="middle">Change In Definition</text>
<text x="154.5" y="41.25" text-anchor="middle">CodeableConcept</text>
<a href="./ValueSet-ObservedChangeInDefinitionVS.html" target="_top">
<title>'ObservedChangeInDefinitionVS'</title>
<text x="154.5" y="60" text-anchor="middle">ObservedChangeInDefinitionVS</text>
</a>
</g>
<g transform="translate(420 405)">
<rect fill="LightYellow" stroke="Black" stroke-width="1.875" x="0" y="0" width="267" height="71.25" rx="3.75" ry="3.75" />
<text x="133.5" y="22.5" text-anchor="middle">Change In Number</text>
<text x="133.5" y="41.25" text-anchor="middle">CodeableConcept</text>
<a href="./ValueSet-ObservedChangeInNumberVS.html" target="_top">
<title>'ObservedChangeInNumberVS'</title>
<text x="133.5" y="60" text-anchor="middle">ObservedChangeInNumberVS</text>
</a>
</g>
<g transform="translate(420 483.75)">
<rect fill="LightYellow" stroke="Black" stroke-width="1.875" x="0" y="0" width="309" height="71.25" rx="3.75" ry="3.75" />
<text x="154.5" y="22.5" text-anchor="middle">Change In Prominance</text>
<text x="154.5" y="41.25" text-anchor="middle">CodeableConcept</text>
<a href="./ValueSet-ObservedChangeInProminanceVS.html" target="_top">
<title>'ObservedChangeInProminanceVS'</title>
<text x="154.5" y="60" text-anchor="middle">ObservedChangeInProminanceVS</text>
</a>
</g>
<g transform="translate(420 562.5)">
<rect fill="LightYellow" stroke="Black" stroke-width="1.875" x="0" y="0" width="246" height="71.25" rx="3.75" ry="3.75" />
<text x="123" y="22.5" text-anchor="middle">Change In Size</text>
<text x="123" y="41.25" text-anchor="middle">CodeableConcept</text>
<a href="./ValueSet-ObservedChangeInSizeVS.html" target="_top">
<title>'ObservedChangeInSizeVS'</title>
<text x="123" y="60" text-anchor="middle">ObservedChangeInSizeVS</text>
</a>
</g>
<g transform="translate(420 641.25)">
<rect fill="LightYellow" stroke="Black" stroke-width="1.875" x="0" y="0" width="256.5" height="71.25" rx="3.75" ry="3.75" />
<text x="128.25" y="22.5" text-anchor="middle">Change In State</text>
<text x="128.25" y="41.25" text-anchor="middle">CodeableConcept</text>
<a href="./ValueSet-ObservedChangeInStateVS.html" target="_top">
<title>'ObservedChangeInStateVS'</title>
<text x="128.25" y="60" text-anchor="middle">ObservedChangeInStateVS</text>
</a>
</g>
<g transform="translate(420 720)">
<rect fill="LightYellow" stroke="Black" stroke-width="1.875" x="0" y="0" width="99" height="52.5" rx="3.75" ry="3.75" />
<text x="49.5" y="22.5" text-anchor="middle">Size</text>
<text x="49.5" y="41.25" text-anchor="middle">Quantity</text>
</g>
<g transform="translate(420 780)">
<rect fill="LightYellow" stroke="Black" stroke-width="1.875" x="0" y="0" width="172.5" height="71.25" rx="3.75" ry="3.75" />
<text x="86.25" y="22.5" text-anchor="middle">Orientation</text>
<text x="86.25" y="41.25" text-anchor="middle">CodeableConcept</text>
<a href="./ValueSet-OrientationVS.html" target="_top">
<title>'OrientationVS'</title>
<text x="86.25" y="60" text-anchor="middle">OrientationVS</text>
</a>
</g>
<g transform="translate(420 858.75)">
<rect fill="LightYellow" stroke="Black" stroke-width="1.875" x="0" y="0" width="172.5" height="71.25" rx="3.75" ry="3.75" />
<text x="86.25" y="22.5" text-anchor="middle">Shape</text>
<text x="86.25" y="41.25" text-anchor="middle">CodeableConcept</text>
<a href="./ValueSet-ShapeVS.html" target="_top">
<title>'ShapeVS'</title>
<text x="86.25" y="60" text-anchor="middle">ShapeVS</text>
</a>
</g>
<g transform="translate(420 937.5)">
<rect fill="LightYellow" stroke="Black" stroke-width="1.875" x="0" y="0" width="172.5" height="71.25" rx="3.75" ry="3.75" />
<text x="86.25" y="22.5" text-anchor="middle">Margin</text>
<text x="86.25" y="41.25" text-anchor="middle">CodeableConcept</text>
<a href="./ValueSet-MarginVS.html" target="_top">
<title>'MarginVS'</title>
<text x="86.25" y="60" text-anchor="middle">MarginVS</text>
</a>
</g>
<g transform="translate(420 1016.25)">
<rect fill="LightYellow" stroke="Black" stroke-width="1.875" x="0" y="0" width="172.5" height="71.25" rx="3.75" ry="3.75" />
<text x="86.25" y="22.5" text-anchor="middle">Density</text>
<text x="86.25" y="41.25" text-anchor="middle">CodeableConcept</text>
<a href="./ValueSet-MGDensityVS.html" target="_top">
<title>'MGDensityVS'</title>
<text x="86.25" y="60" text-anchor="middle">MGDensityVS</text>
</a>
</g>
<g transform="translate(420 1095)">
<rect fill="LightBlue" stroke="Black" stroke-width="1.875" x="0" y="0" width="183" height="33.75" rx="3.75" ry="3.75" />
<a href="./StructureDefinition-BreastBodyLocationExtension.html" target="_top">
<title>'BreastBodyLocationExtension'</title>
<text x="91.5" y="22.5" text-anchor="middle">Breast Body Loc.</text>
</a>
</g>
</g>
</svg>
