<?xml version="1.0"?>
<!DOCTYPE svg PUBLIC "-//W3C//DTD SVG 1.1//EN" "http://www.w3.org/Graphics/SVG/1.1/DTD/svg11.dtd">
<svg xmlns="http://www.w3.org/2000/svg" version="1.1" width="1204.5" height="517.5">
<defs>
<marker id="arrowStart" markerWidth="3.75" markerHeight="3.75" markerUnits="px" refX="1.875" refY="1.875">
<circle fill="Black" stroke-width="0" cx="1.875" cy="1.875" r="1.875" />
</marker>
<marker id="arrowEnd" markerWidth="7.5" markerHeight="7.5" markerUnits="px" refX="7.5" refY="3.75">
<polygon fill="Black" stroke-width="0" points="0 0 7.5 3.75 0 7.5" />
</marker>
</defs>
<g>
<g transform="translate(7.5 7.5)">
<a href="./StructureDefinition-AbnormalityCyst.html" target="_top">
<rect fill="LightCyan" stroke="Black" stroke-width="1.875" x="0" y="0" width="57" height="33.75" rx="3.75" ry="3.75" />
</a>
<a href="./StructureDefinition-AbnormalityCyst.html" target="_top">
<text x="28.5" y="22.5" text-anchor="middle">Cyst</text>
</a>
</g>
<g transform="translate(7.5 48.75)">
<a href="./StructureDefinition-AbnormalityDuct.html" target="_top">
<rect fill="LightCyan" stroke="Black" stroke-width="1.875" x="0" y="0" width="57" height="33.75" rx="3.75" ry="3.75" />
</a>
<a href="./StructureDefinition-AbnormalityDuct.html" target="_top">
<text x="28.5" y="22.5" text-anchor="middle">Duct</text>
</a>
</g>
<g transform="translate(7.5 90)">
<a href="./StructureDefinition-AbnormalityFibroadenoma.html" target="_top">
<rect fill="LightCyan" stroke="Black" stroke-width="1.875" x="0" y="0" width="141" height="33.75" rx="3.75" ry="3.75" />
</a>
<a href="./StructureDefinition-AbnormalityFibroadenoma.html" target="_top">
<text x="70.5" y="22.5" text-anchor="middle">Fibroadenoma</text>
</a>
</g>
<g transform="translate(7.5 131.25)">
<a href="./StructureDefinition-AbnormalityForeignObject.html" target="_top">
<rect fill="LightCyan" stroke="Black" stroke-width="1.875" x="0" y="0" width="162" height="33.75" rx="3.75" ry="3.75" />
</a>
<a href="./StructureDefinition-AbnormalityForeignObject.html" target="_top">
<text x="81" y="22.5" text-anchor="middle">Foreign Object</text>
</a>
</g>
<g transform="translate(7.5 172.5)">
<a href="./StructureDefinition-AbnormalityLymphNode.html" target="_top">
<rect fill="LightCyan" stroke="Black" stroke-width="1.875" x="0" y="0" width="120" height="33.75" rx="3.75" ry="3.75" />
</a>
<a href="./StructureDefinition-AbnormalityLymphNode.html" target="_top">
<text x="60" y="22.5" text-anchor="middle">Lymph Node</text>
</a>
</g>
<g transform="translate(7.5 213.75)">
<a href="./StructureDefinition-AbnormalityMass.html" target="_top">
<rect fill="LightCyan" stroke="Black" stroke-width="1.875" x="0" y="0" width="57" height="33.75" rx="3.75" ry="3.75" />
</a>
<a href="./StructureDefinition-AbnormalityMass.html" target="_top">
<text x="28.5" y="22.5" text-anchor="middle">Mass</text>
</a>
</g>
<g transform="translate(7.5 255)">
<a href="./StructureDefinition-MGAbnormalityArchitecturalDistortion.html" target="_top">
<rect fill="LightCyan" stroke="Black" stroke-width="1.875" x="0" y="0" width="214.5" height="33.75" rx="3.75" ry="3.75" />
</a>
<a href="./StructureDefinition-MGAbnormalityArchitecturalDistortion.html" target="_top">
<text x="107.25" y="22.5" text-anchor="middle">MG Arch. Distortion</text>
</a>
</g>
<g transform="translate(7.5 296.25)">
<a href="./StructureDefinition-MGAbnormalityAsymmetry.html" target="_top">
<rect fill="LightCyan" stroke="Black" stroke-width="1.875" x="0" y="0" width="141" height="33.75" rx="3.75" ry="3.75" />
</a>
<a href="./StructureDefinition-MGAbnormalityAsymmetry.html" target="_top">
<text x="70.5" y="22.5" text-anchor="middle">MG Asymmetry</text>
</a>
</g>
<g transform="translate(7.5 337.5)">
<a href="./StructureDefinition-MGAbnormalityCalcification.html" target="_top">
<rect fill="LightCyan" stroke="Black" stroke-width="1.875" x="0" y="0" width="99" height="33.75" rx="3.75" ry="3.75" />
</a>
<a href="./StructureDefinition-MGAbnormalityCalcification.html" target="_top">
<text x="49.5" y="22.5" text-anchor="middle">MG Calc.</text>
</a>
</g>
<g transform="translate(7.5 378.75)">
<a href="./StructureDefinition-MGAbnormalityDensity.html" target="_top">
<rect fill="LightCyan" stroke="Black" stroke-width="1.875" x="0" y="0" width="120" height="33.75" rx="3.75" ry="3.75" />
</a>
<a href="./StructureDefinition-MGAbnormalityDensity.html" target="_top">
<text x="60" y="22.5" text-anchor="middle">MG Density</text>
</a>
</g>
<g transform="translate(7.5 420)">
<a href="./StructureDefinition-MGAbnormalityFatNecrosis.html" target="_top">
<rect fill="LightCyan" stroke="Black" stroke-width="1.875" x="0" y="0" width="172.5" height="33.75" rx="3.75" ry="3.75" />
</a>
<a href="./StructureDefinition-MGAbnormalityFatNecrosis.html" target="_top">
<text x="86.25" y="22.5" text-anchor="middle">MG Fat Necrosis</text>
</a>
</g>
<g transform="translate(7.5 461.25)">
<a href="./StructureDefinition-ObservedFeature.html" target="_top">
<rect fill="LightCyan" stroke="Black" stroke-width="1.875" x="0" y="0" width="183" height="33.75" rx="3.75" ry="3.75" />
</a>
<a href="./StructureDefinition-ObservedFeature.html" target="_top">
<text x="91.5" y="22.5" text-anchor="middle">Observed Feature</text>
</a>
</g>
<line stroke="Black" stroke-width="1.875" marker-end="url(#arrowEnd)" x1="267" y1="24.375" x2="312" y2="24.375" />
<text x="270.75" y="20.625" text-anchor="left"></text>
<line stroke="Black" stroke-width="1.875" marker-start="url(#arrowStart)" x1="64.5" y1="24.375" x2="267" y2="24.375" />
<text x="68.25" y="20.625" text-anchor="left">1..1</text>
<line stroke="Black" stroke-width="1.875" marker-start="url(#arrowStart)" x1="64.5" y1="65.625" x2="267" y2="65.625" />
<text x="68.25" y="61.875" text-anchor="left">1..1</text>
<line stroke="Black" stroke-width="1.875" marker-start="url(#arrowStart)" x1="148.5" y1="106.875" x2="267" y2="106.875" />
<text x="152.25" y="103.125" text-anchor="left">1..1</text>
<line stroke="Black" stroke-width="1.875" marker-start="url(#arrowStart)" x1="169.5" y1="148.125" x2="267" y2="148.125" />
<text x="173.25" y="144.375" text-anchor="left">1..1</text>
<line stroke="Black" stroke-width="1.875" marker-start="url(#arrowStart)" x1="127.5" y1="189.375" x2="267" y2="189.375" />
<text x="131.25" y="185.625" text-anchor="left">1..1</text>
<line stroke="Black" stroke-width="1.875" marker-start="url(#arrowStart)" x1="64.5" y1="230.625" x2="267" y2="230.625" />
<text x="68.25" y="226.875" text-anchor="left">1..1</text>
<line stroke="Black" stroke-width="1.875" marker-start="url(#arrowStart)" x1="222" y1="271.875" x2="267" y2="271.875" />
<text x="225.75" y="268.125" text-anchor="left">1..1</text>
<line stroke="Black" stroke-width="1.875" marker-start="url(#arrowStart)" x1="148.5" y1="313.125" x2="267" y2="313.125" />
<text x="152.25" y="309.375" text-anchor="left">1..1</text>
<line stroke="Black" stroke-width="1.875" marker-start="url(#arrowStart)" x1="106.5" y1="354.375" x2="267" y2="354.375" />
<text x="110.25" y="350.625" text-anchor="left">1..1</text>
<line stroke="Black" stroke-width="1.875" marker-start="url(#arrowStart)" x1="127.5" y1="395.625" x2="267" y2="395.625" />
<text x="131.25" y="391.875" text-anchor="left">1..1</text>
<line stroke="Black" stroke-width="1.875" marker-start="url(#arrowStart)" x1="180" y1="436.875" x2="267" y2="436.875" />
<text x="183.75" y="433.125" text-anchor="left">1..1</text>
<line stroke="Black" stroke-width="1.875" marker-start="url(#arrowStart)" x1="190.5" y1="478.125" x2="267" y2="478.125" />
<text x="194.25" y="474.375" text-anchor="left">1..1</text>
<line stroke="Black" stroke-width="1.875" x1="267" y1="24.375" x2="267" y2="478.125" />
</g>
<g>
<g transform="translate(312 7.5)">
<rect fill="White" stroke="Black" stroke-width="1.875" x="0" y="0" width="183" height="33.75" rx="3.75" ry="3.75" />
<text x="91.5" y="22.5" text-anchor="middle">Breast Body Loc.</text>
</g>
<line stroke="Black" stroke-width="1.875" marker-end="url(#arrowEnd)" x1="540" y1="33.75" x2="585" y2="33.75" />
<text x="543.75" y="30" text-anchor="left">0..1</text>
<line stroke="Black" stroke-width="1.875" marker-end="url(#arrowEnd)" x1="540" y1="93.75" x2="585" y2="93.75" />
<text x="543.75" y="90" text-anchor="left">0..*</text>
<line stroke="Black" stroke-width="1.875" marker-end="url(#arrowEnd)" x1="540" y1="153.75" x2="585" y2="153.75" />
<text x="543.75" y="150" text-anchor="left">0..1</text>
<line stroke="Black" stroke-width="1.875" marker-end="url(#arrowEnd)" x1="540" y1="213.75" x2="585" y2="213.75" />
<text x="543.75" y="210" text-anchor="left">0..1</text>
<line stroke="Black" stroke-width="1.875" marker-end="url(#arrowEnd)" x1="540" y1="273.75" x2="585" y2="273.75" />
<text x="543.75" y="270" text-anchor="left">1..1</text>
<line stroke="Black" stroke-width="1.875" marker-end="url(#arrowEnd)" x1="540" y1="333.75" x2="585" y2="333.75" />
<text x="543.75" y="330" text-anchor="left">0..1</text>
<line stroke="Black" stroke-width="1.875" marker-end="url(#arrowEnd)" x1="540" y1="393.75" x2="585" y2="393.75" />
<text x="543.75" y="390" text-anchor="left">0..1</text>
<line stroke="Black" stroke-width="1.875" marker-end="url(#arrowEnd)" x1="540" y1="453.75" x2="585" y2="453.75" />
<text x="543.75" y="450" text-anchor="left">0..1</text>
<line stroke="Black" stroke-width="1.875" marker-start="url(#arrowStart)" x1="495" y1="24.375" x2="540" y2="24.375" />
<text x="498.75" y="20.625" text-anchor="left"></text>
<line stroke="Black" stroke-width="1.875" x1="540" y1="24.375" x2="540" y2="453.75" />
</g>
<g>
<g transform="translate(585 7.5)">
<a href="StructureDefinition-BreastBodyLocationExtension-definitions.html#Extension.extension:quadrant" target="_top">
<rect fill="LightYellow" stroke="Black" stroke-width="1.875" x="0" y="0" width="172.5" height="52.5" rx="3.75" ry="3.75" />
</a>
<a href="StructureDefinition-BreastBodyLocationExtension-definitions.html#Extension.extension:quadrant" target="_top">
<text x="86.25" y="22.5" text-anchor="middle">Quadrant</text>
</a>
<a href="StructureDefinition-BreastBodyLocationExtension-definitions.html#Extension.extension:quadrant" target="_top">
<text x="86.25" y="41.25" text-anchor="middle">CodeableConcept</text>
</a>
</g>
<line stroke="Black" stroke-width="1.875" marker-end="url(#arrowEnd)" x1="802.5" y1="33.75" x2="847.5" y2="33.75" />
<text x="806.25" y="30" text-anchor="left">0..1</text>
<line stroke="Black" stroke-width="1.875" marker-start="url(#arrowStart)" x1="757.5" y1="33.75" x2="802.5" y2="33.75" />
<text x="761.25" y="30" text-anchor="left"></text>
<line stroke="Black" stroke-width="1.875" x1="802.5" y1="33.75" x2="802.5" y2="33.75" />
</g>
<g>
<g transform="translate(847.5 7.5)">
<a href="./ValueSet-BreastLocationQuadrantVS.html" target="_top">
<rect fill="LightGreen" stroke="Black" stroke-width="1.875" x="0" y="0" width="193.5" height="52.5" rx="3.75" ry="3.75" />
</a>
<a href="./ValueSet-BreastLocationQuadrantVS.html" target="_top">
<text x="96.75" y="22.5" text-anchor="middle">Breast Location</text>
</a>
<a href="./ValueSet-BreastLocationQuadrantVS.html" target="_top">
<text x="96.75" y="41.25" text-anchor="middle">Quadrant ValueSet</text>
</a>
</g>
</g>
<g>
<g transform="translate(585 67.5)">
<a href="StructureDefinition-BreastBodyLocationExtension-definitions.html#Extension.extension" target="_top">
<rect fill="LightYellow" stroke="Black" stroke-width="1.875" x="0" y="0" width="172.5" height="52.5" rx="3.75" ry="3.75" />
</a>
<a href="StructureDefinition-BreastBodyLocationExtension-definitions.html#Extension.extension" target="_top">
<text x="86.25" y="22.5" text-anchor="middle">Region</text>
</a>
<a href="StructureDefinition-BreastBodyLocationExtension-definitions.html#Extension.extension" target="_top">
<text x="86.25" y="41.25" text-anchor="middle">CodeableConcept</text>
</a>
</g>
<line stroke="Black" stroke-width="1.875" marker-end="url(#arrowEnd)" x1="802.5" y1="93.75" x2="847.5" y2="93.75" />
<text x="806.25" y="90" text-anchor="left">0..*</text>
<line stroke="Black" stroke-width="1.875" marker-start="url(#arrowStart)" x1="757.5" y1="93.75" x2="802.5" y2="93.75" />
<text x="761.25" y="90" text-anchor="left"></text>
<line stroke="Black" stroke-width="1.875" x1="802.5" y1="93.75" x2="802.5" y2="93.75" />
</g>
<g>
<g transform="translate(847.5 67.5)">
<a href="./ValueSet-BreastLocationRegionVS.html" target="_top">
<rect fill="LightGreen" stroke="Black" stroke-width="1.875" x="0" y="0" width="172.5" height="52.5" rx="3.75" ry="3.75" />
</a>
<a href="./ValueSet-BreastLocationRegionVS.html" target="_top">
<text x="86.25" y="22.5" text-anchor="middle">Breast Location</text>
</a>
<a href="./ValueSet-BreastLocationRegionVS.html" target="_top">
<text x="86.25" y="41.25" text-anchor="middle">Region ValueSet</text>
</a>
</g>
</g>
<g>
<g transform="translate(585 127.5)">
<a href="StructureDefinition-BreastBodyLocationExtension-definitions.html#Extension.extension" target="_top">
<rect fill="LightYellow" stroke="Black" stroke-width="1.875" x="0" y="0" width="172.5" height="52.5" rx="3.75" ry="3.75" />
</a>
<a href="StructureDefinition-BreastBodyLocationExtension-definitions.html#Extension.extension" target="_top">
<text x="86.25" y="22.5" text-anchor="middle">ClockDirection</text>
</a>
<a href="StructureDefinition-BreastBodyLocationExtension-definitions.html#Extension.extension" target="_top">
<text x="86.25" y="41.25" text-anchor="middle">CodeableConcept</text>
</a>
</g>
<line stroke="Black" stroke-width="1.875" marker-end="url(#arrowEnd)" x1="802.5" y1="153.75" x2="847.5" y2="153.75" />
<text x="806.25" y="150" text-anchor="left">0..1</text>
<line stroke="Black" stroke-width="1.875" marker-start="url(#arrowStart)" x1="757.5" y1="153.75" x2="802.5" y2="153.75" />
<text x="761.25" y="150" text-anchor="left"></text>
<line stroke="Black" stroke-width="1.875" x1="802.5" y1="153.75" x2="802.5" y2="153.75" />
</g>
<g>
<g transform="translate(847.5 127.5)">
<a href="./ValueSet-BreastLocationClockVS.html" target="_top">
<rect fill="LightGreen" stroke="Black" stroke-width="1.875" x="0" y="0" width="172.5" height="52.5" rx="3.75" ry="3.75" />
</a>
<a href="./ValueSet-BreastLocationClockVS.html" target="_top">
<text x="86.25" y="22.5" text-anchor="middle">Breast Location</text>
</a>
<a href="./ValueSet-BreastLocationClockVS.html" target="_top">
<text x="86.25" y="41.25" text-anchor="middle">Clock ValueSet</text>
</a>
</g>
</g>
<g>
<g transform="translate(585 187.5)">
<a href="StructureDefinition-BreastBodyLocationExtension-definitions.html#Extension.extension" target="_top">
<rect fill="LightYellow" stroke="Black" stroke-width="1.875" x="0" y="0" width="172.5" height="52.5" rx="3.75" ry="3.75" />
</a>
<a href="StructureDefinition-BreastBodyLocationExtension-definitions.html#Extension.extension" target="_top">
<text x="86.25" y="22.5" text-anchor="middle">Depth</text>
</a>
<a href="StructureDefinition-BreastBodyLocationExtension-definitions.html#Extension.extension" target="_top">
<text x="86.25" y="41.25" text-anchor="middle">CodeableConcept</text>
</a>
</g>
<line stroke="Black" stroke-width="1.875" marker-end="url(#arrowEnd)" x1="802.5" y1="213.75" x2="847.5" y2="213.75" />
<text x="806.25" y="210" text-anchor="left">0..1</text>
<line stroke="Black" stroke-width="1.875" marker-start="url(#arrowStart)" x1="757.5" y1="213.75" x2="802.5" y2="213.75" />
<text x="761.25" y="210" text-anchor="left"></text>
<line stroke="Black" stroke-width="1.875" x1="802.5" y1="213.75" x2="802.5" y2="213.75" />
</g>
<g>
<g transform="translate(847.5 187.5)">
<a href="./ValueSet-BreastLocationDepthVS.html" target="_top">
<rect fill="LightGreen" stroke="Black" stroke-width="1.875" x="0" y="0" width="172.5" height="52.5" rx="3.75" ry="3.75" />
</a>
<a href="./ValueSet-BreastLocationDepthVS.html" target="_top">
<text x="86.25" y="22.5" text-anchor="middle">Breast Location</text>
</a>
<a href="./ValueSet-BreastLocationDepthVS.html" target="_top">
<text x="86.25" y="41.25" text-anchor="middle">Depth ValueSet</text>
</a>
</g>
</g>
<g>
<g transform="translate(585 247.5)">
<a href="StructureDefinition-BreastBodyLocationExtension-definitions.html#Extension.extension:laterality" target="_top">
<rect fill="LightSalmon" stroke="Black" stroke-width="1.875" x="0" y="0" width="120" height="52.5" rx="3.75" ry="3.75" />
</a>
<a href="StructureDefinition-BreastBodyLocationExtension-definitions.html#Extension.extension:laterality" target="_top">
<text x="60" y="22.5" text-anchor="middle">Laterality</text>
</a>
<a href="StructureDefinition-BreastBodyLocationExtension-definitions.html#Extension.extension:laterality" target="_top">
<text x="60" y="41.25" text-anchor="middle">extension</text>
</a>
</g>
<line stroke="Black" stroke-width="1.875" marker-end="url(#arrowEnd)" x1="750" y1="264.375" x2="795" y2="264.375" />
<text x="753.75" y="260.625" text-anchor="left">1..1</text>
<line stroke="Black" stroke-width="1.875" marker-start="url(#arrowStart)" x1="705" y1="273.75" x2="750" y2="273.75" />
<text x="708.75" y="270" text-anchor="left"></text>
<line stroke="Black" stroke-width="1.875" x1="750" y1="264.375" x2="750" y2="273.75" />
</g>
<g>
<g transform="translate(795 247.5)">
<a href="https://build.fhir.org/ig/HL7/fhir-skin-wound-ig/branches/master/StructureDefinition-BodySideExt.html" target="_top">
<rect fill="LightGray" stroke="Black" stroke-width="1.875" x="0" y="0" width="130.5" height="33.75" rx="3.75" ry="3.75" />
</a>
<a href="https://build.fhir.org/ig/HL7/fhir-skin-wound-ig/branches/master/StructureDefinition-BodySideExt.html" target="_top">
<text x="65.25" y="22.5" text-anchor="middle">BodySideExt</text>
</a>
</g>
</g>
<g>
<g transform="translate(585 307.5)">
<a href="StructureDefinition-BreastBodyLocationExtension-definitions.html#Extension.extension:distanceFromNipple" target="_top">
<rect fill="LightSalmon" stroke="Black" stroke-width="1.875" x="0" y="0" width="225" height="52.5" rx="3.75" ry="3.75" />
</a>
<a href="StructureDefinition-BreastBodyLocationExtension-definitions.html#Extension.extension:distanceFromNipple" target="_top">
<text x="112.5" y="22.5" text-anchor="middle">Distance From Nipple</text>
</a>
<a href="StructureDefinition-BreastBodyLocationExtension-definitions.html#Extension.extension:distanceFromNipple" target="_top">
<text x="112.5" y="41.25" text-anchor="middle">extension</text>
</a>
</g>
<line stroke="Black" stroke-width="1.875" marker-end="url(#arrowEnd)" x1="855" y1="324.375" x2="900" y2="324.375" />
<text x="858.75" y="320.625" text-anchor="left">0..1</text>
<line stroke="Black" stroke-width="1.875" marker-start="url(#arrowStart)" x1="810" y1="333.75" x2="855" y2="333.75" />
<text x="813.75" y="330" text-anchor="left"></text>
<line stroke="Black" stroke-width="1.875" x1="855" y1="324.375" x2="855" y2="333.75" />
</g>
<g>
<g transform="translate(900 307.5)">
<a href="./StructureDefinition-BodyDistanceFromExtension.html" target="_top">
<rect fill="LightCyan" stroke="Black" stroke-width="1.875" x="0" y="0" width="172.5" height="33.75" rx="3.75" ry="3.75" />
</a>
<a href="./StructureDefinition-BodyDistanceFromExtension.html" target="_top">
<text x="86.25" y="22.5" text-anchor="middle">Body Dist. From</text>
</a>
</g>
</g>
<g>
<g transform="translate(585 367.5)">
<a href="StructureDefinition-BreastBodyLocationExtension-definitions.html#Extension.extension:distanceFromChestWall" target="_top">
<rect fill="LightSalmon" stroke="Black" stroke-width="1.875" x="0" y="0" width="267" height="52.5" rx="3.75" ry="3.75" />
</a>
<a href="StructureDefinition-BreastBodyLocationExtension-definitions.html#Extension.extension:distanceFromChestWall" target="_top">
<text x="133.5" y="22.5" text-anchor="middle">Distance From Chest Wall</text>
</a>
<a href="StructureDefinition-BreastBodyLocationExtension-definitions.html#Extension.extension:distanceFromChestWall" target="_top">
<text x="133.5" y="41.25" text-anchor="middle">extension</text>
</a>
</g>
<line stroke="Black" stroke-width="1.875" marker-end="url(#arrowEnd)" x1="897" y1="384.375" x2="942" y2="384.375" />
<text x="900.75" y="380.625" text-anchor="left">0..1</text>
<line stroke="Black" stroke-width="1.875" marker-start="url(#arrowStart)" x1="852" y1="393.75" x2="897" y2="393.75" />
<text x="855.75" y="390" text-anchor="left"></text>
<line stroke="Black" stroke-width="1.875" x1="897" y1="384.375" x2="897" y2="393.75" />
</g>
<g>
<g transform="translate(942 367.5)">
<a href="./StructureDefinition-BodyDistanceFromExtension.html" target="_top">
<rect fill="LightCyan" stroke="Black" stroke-width="1.875" x="0" y="0" width="172.5" height="33.75" rx="3.75" ry="3.75" />
</a>
<a href="./StructureDefinition-BodyDistanceFromExtension.html" target="_top">
<text x="86.25" y="22.5" text-anchor="middle">Body Dist. From</text>
</a>
</g>
</g>
<g>
<g transform="translate(585 427.5)">
<a href="StructureDefinition-BreastBodyLocationExtension-definitions.html#Extension.extension:distanceFromSkin" target="_top">
<rect fill="LightSalmon" stroke="Black" stroke-width="1.875" x="0" y="0" width="203.99998" height="52.5" rx="3.75" ry="3.75" />
</a>
<a href="StructureDefinition-BreastBodyLocationExtension-definitions.html#Extension.extension:distanceFromSkin" target="_top">
<text x="101.99999" y="22.5" text-anchor="middle">Distance From Skin</text>
</a>
<a href="StructureDefinition-BreastBodyLocationExtension-definitions.html#Extension.extension:distanceFromSkin" target="_top">
<text x="101.99999" y="41.25" text-anchor="middle">extension</text>
</a>
</g>
<line stroke="Black" stroke-width="1.875" marker-end="url(#arrowEnd)" x1="834" y1="444.375" x2="879" y2="444.375" />
<text x="837.75" y="440.625" text-anchor="left">0..1</text>
<line stroke="Black" stroke-width="1.875" marker-start="url(#arrowStart)" x1="789" y1="453.75" x2="834" y2="453.75" />
<text x="792.75" y="450" text-anchor="left"></text>
<line stroke="Black" stroke-width="1.875" x1="834" y1="444.375" x2="834" y2="453.75" />
</g>
<g>
<g transform="translate(879 427.5)">
<a href="./StructureDefinition-BodyDistanceFromExtension.html" target="_top">
<rect fill="LightCyan" stroke="Black" stroke-width="1.875" x="0" y="0" width="172.5" height="33.75" rx="3.75" ry="3.75" />
</a>
<a href="./StructureDefinition-BodyDistanceFromExtension.html" target="_top">
<text x="86.25" y="22.5" text-anchor="middle">Body Dist. From</text>
</a>
</g>
</g>
</svg>
