<?xml version="1.0"?>
<?xml-stylesheet type="text/css" href="FocusGraph.css" ?>
<!DOCTYPE svg PUBLIC "-//W3C//DTD SVG 1.1//EN" "http://www.w3.org/Graphics/SVG/1.1/DTD/svg11.dtd">
<svg xmlns="http://www.w3.org/2000/svg" version="1.1" width="1251.37" height="997.5">
<defs>
<marker id="arrowStart" markerWidth="3.75" markerHeight="3.75" markerUnits="px" refX="1.88" refY="1.88">
<circle class="connector" cx="1.88" cy="1.88" r="1.88" />
</marker>
<marker id="arrowEnd" markerWidth="7.5" markerHeight="7.5" markerUnits="px" refX="7.5" refY="3.75">
<polygon class="connector" points="0 0 7.5 3.75 0 7.5" />
</marker>
</defs>
<g>
<g transform="translate(7.5 7.5)">
<a href="StructureDefinition-MGFinding.html" target="_top">
<rect class="profile" x="0" y="0" width="130.5" height="33.75" rx="3.75" ry="3.75" />
</a>
<a href="StructureDefinition-MGFinding.html" target="_top">
<text x="65.25" y="22.5" text-anchor="middle" class="profile">Mg Findings</text>
</a>
</g>
<line class="connector" marker-end="url(#arrowEnd)" x1="168" y1="24.38" x2="228" y2="24.38" />
<text x="171.75" y="20.62" text-anchor="right" class="lhsText">0..*</text>
<line class="connector" marker-start="url(#arrowStart)" x1="138" y1="24.38" x2="168" y2="24.38" />
<line class="connector" x1="168" y1="24.38" x2="168" y2="24.38" />
</g>
<g>
<g transform="translate(228 7.5)">
<a href="StructureDefinition-AbnormalityDuct.html" target="_top">
<rect class="focus" x="0" y="0" width="57" height="33.75" rx="3.75" ry="3.75" />
</a>
<a href="StructureDefinition-AbnormalityDuct.html" target="_top">
<text x="28.5" y="22.5" text-anchor="middle" class="focus">Duct</text>
</a>
</g>
<line class="connector" marker-end="url(#arrowEnd)" x1="315" y1="24.38" x2="375" y2="24.38" />
<text x="318.75" y="20.62" text-anchor="right" class="lhsText">1..1</text>
<line class="connector" marker-end="url(#arrowEnd)" x1="315" y1="65.62" x2="375" y2="65.62" />
<text x="318.75" y="61.88" text-anchor="right" class="lhsText">0..*</text>
<line class="connector" marker-end="url(#arrowEnd)" x1="315" y1="849.38" x2="375" y2="849.38" />
<text x="318.75" y="845.62" text-anchor="right" class="lhsText">0..*</text>
<line class="connector" marker-start="url(#arrowStart)" x1="285" y1="24.38" x2="315" y2="24.38" />
<line class="connector" x1="315" y1="24.38" x2="315" y2="849.38" />
</g>
<g>
<g transform="translate(375 7.5)">
<a href="StructureDefinition-AbnormalityDuct-definitions.html#Observation.bodySite" target="_top">
<rect class="element" x="0" y="0" width="99" height="33.75" rx="3.75" ry="3.75" />
</a>
<a href="StructureDefinition-AbnormalityDuct-definitions.html#Observation.bodySite" target="_top">
<text x="49.5" y="22.5" text-anchor="middle" class="element">BodySite</text>
</a>
</g>
<line class="connector" marker-end="url(#arrowEnd)" x1="504" y1="24.38" x2="564" y2="24.38" />
<text x="507.75" y="20.62" text-anchor="right" class="lhsText">1..*</text>
<line class="connector" marker-start="url(#arrowStart)" x1="474" y1="24.38" x2="504" y2="24.38" />
<line class="connector" x1="504" y1="24.38" x2="504" y2="24.38" />
</g>
<g>
<g transform="translate(564 7.5)">
<a href="StructureDefinition-AbnormalityDuct-definitions.html#Observation.bodySite.extension" target="_top">
<rect class="element" x="0" y="0" width="109.5" height="33.75" rx="3.75" ry="3.75" />
</a>
<a href="StructureDefinition-AbnormalityDuct-definitions.html#Observation.bodySite.extension" target="_top">
<text x="54.75" y="22.5" text-anchor="middle" class="element">extension</text>
</a>
</g>
<line class="connector" marker-end="url(#arrowEnd)" x1="703.5" y1="24.38" x2="733.5" y2="24.38" />
<line class="connector" marker-start="url(#arrowStart)" x1="673.5" y1="24.38" x2="703.5" y2="24.38" />
<line class="connector" x1="703.5" y1="24.38" x2="703.5" y2="24.38" />
</g>
<g>
<g transform="translate(733.5 7.5)">
<a href="StructureDefinition-BreastBodyLocationExtension.html" target="_top">
<rect class="extension" x="0" y="0" width="204" height="33.75" rx="3.75" ry="3.75" />
</a>
<a href="StructureDefinition-BreastBodyLocationExtension.html" target="_top">
<text x="102" y="22.5" text-anchor="middle" class="extension">BreastBodyLocation</text>
</a>
</g>
</g>
<g>
<g transform="translate(375 48.75)">
<a href="StructureDefinition-AbnormalityDuct-definitions.html#Observation.component" target="_top">
<rect class="element" x="0" y="0" width="120" height="33.75" rx="3.75" ry="3.75" />
</a>
<a href="StructureDefinition-AbnormalityDuct-definitions.html#Observation.component" target="_top">
<text x="60" y="22.5" text-anchor="middle" class="element">Components</text>
</a>
</g>
<line class="connector" marker-end="url(#arrowEnd)" x1="525" y1="65.62" x2="585" y2="65.62" />
<text x="528.75" y="61.88" text-anchor="right" class="lhsText">0..1</text>
<line class="connector" marker-end="url(#arrowEnd)" x1="525" y1="125.62" x2="585" y2="125.62" />
<text x="528.75" y="121.88" text-anchor="right" class="lhsText">0..*</text>
<line class="connector" marker-end="url(#arrowEnd)" x1="525" y1="185.62" x2="585" y2="185.62" />
<text x="528.75" y="181.88" text-anchor="right" class="lhsText">0..1</text>
<line class="connector" marker-end="url(#arrowEnd)" x1="525" y1="245.62" x2="585" y2="245.62" />
<text x="528.75" y="241.88" text-anchor="right" class="lhsText">0..1</text>
<line class="connector" marker-end="url(#arrowEnd)" x1="525" y1="305.62" x2="585" y2="305.62" />
<text x="528.75" y="301.88" text-anchor="right" class="lhsText">0..1</text>
<line class="connector" marker-end="url(#arrowEnd)" x1="525" y1="365.62" x2="585" y2="365.62" />
<text x="528.75" y="361.88" text-anchor="right" class="lhsText">0..*</text>
<line class="connector" marker-end="url(#arrowEnd)" x1="525" y1="425.62" x2="585" y2="425.62" />
<text x="528.75" y="421.88" text-anchor="right" class="lhsText">0..*</text>
<line class="connector" marker-end="url(#arrowEnd)" x1="525" y1="485.62" x2="585" y2="485.62" />
<text x="528.75" y="481.88" text-anchor="right" class="lhsText">0..1</text>
<line class="connector" marker-end="url(#arrowEnd)" x1="525" y1="526.88" x2="585" y2="526.88" />
<text x="528.75" y="523.12" text-anchor="right" class="lhsText">0..*</text>
<line class="connector" marker-end="url(#arrowEnd)" x1="525" y1="586.88" x2="585" y2="586.88" />
<text x="528.75" y="583.12" text-anchor="right" class="lhsText">0..1</text>
<line class="connector" marker-end="url(#arrowEnd)" x1="525" y1="628.12" x2="585" y2="628.12" />
<text x="528.75" y="624.38" text-anchor="right" class="lhsText">0..3</text>
<line class="connector" marker-end="url(#arrowEnd)" x1="525" y1="669.38" x2="585" y2="669.38" />
<text x="528.75" y="665.62" text-anchor="right" class="lhsText">0..1</text>
<line class="connector" marker-end="url(#arrowEnd)" x1="525" y1="738.75" x2="585" y2="738.75" />
<text x="528.75" y="735" text-anchor="right" class="lhsText">0..*</text>
<line class="connector" marker-end="url(#arrowEnd)" x1="525" y1="789.38" x2="585" y2="789.38" />
<text x="528.75" y="785.62" text-anchor="right" class="lhsText">0..1</text>
<line class="connector" marker-start="url(#arrowStart)" x1="495" y1="65.62" x2="525" y2="65.62" />
<line class="connector" x1="525" y1="65.62" x2="525" y2="789.38" />
</g>
<g>
<g transform="translate(585 48.75)">
<a href="StructureDefinition-AbnormalityDuct-definitions.html#Observation.component:biRadsAssessmentCategory" target="_top">
<rect class="element" x="0" y="0" width="130.5" height="33.75" rx="3.75" ry="3.75" />
</a>
<a href="StructureDefinition-AbnormalityDuct-definitions.html#Observation.component:biRadsAssessmentCategory" target="_top">
<text x="65.25" y="22.5" text-anchor="middle" class="element">BiRads Code</text>
</a>
</g>
<line class="connector" marker-end="url(#arrowEnd)" x1="745.5" y1="75" x2="805.5" y2="75" />
<text x="749.25" y="71.25" text-anchor="right" class="lhsText">bind</text>
<line class="connector" marker-start="url(#arrowStart)" x1="715.5" y1="65.62" x2="745.5" y2="65.62" />
<line class="connector" x1="745.5" y1="65.62" x2="745.5" y2="75" />
</g>
<g>
<g transform="translate(805.5 48.75)">
<a href="ValueSet-BiRadsAssessmentCategoryVS.html" target="_top">
<rect class="valueSet" x="0" y="0" width="288" height="52.5" rx="3.75" ry="3.75" />
</a>
<a href="ValueSet-BiRadsAssessmentCategoryVS.html" target="_top">
<text x="144" y="22.5" text-anchor="middle" class="valueSet">BiRadsAssessmentCategoryVS</text>
</a>
<a href="ValueSet-BiRadsAssessmentCategoryVS.html" target="_top">
<text x="144" y="41.25" text-anchor="middle" class="valueSet">ValueSet</text>
</a>
</g>
</g>
<g>
<g transform="translate(585 108.75)">
<a href="StructureDefinition-AbnormalityDuct-definitions.html#Observation.component:correspondsWith" target="_top">
<rect class="element" x="0" y="0" width="183" height="33.75" rx="3.75" ry="3.75" />
</a>
<a href="StructureDefinition-AbnormalityDuct-definitions.html#Observation.component:correspondsWith" target="_top">
<text x="91.5" y="22.5" text-anchor="middle" class="element">Corresponds With</text>
</a>
</g>
<line class="connector" marker-end="url(#arrowEnd)" x1="798" y1="135" x2="858" y2="135" />
<text x="801.75" y="131.25" text-anchor="right" class="lhsText">bind</text>
<line class="connector" marker-start="url(#arrowStart)" x1="768" y1="125.62" x2="798" y2="125.62" />
<line class="connector" x1="798" y1="125.62" x2="798" y2="135" />
</g>
<g>
<g transform="translate(858 108.75)">
<a href="ValueSet-CorrespondsWithVS.html" target="_top">
<rect class="valueSet" x="0" y="0" width="193.5" height="52.5" rx="3.75" ry="3.75" />
</a>
<a href="ValueSet-CorrespondsWithVS.html" target="_top">
<text x="96.75" y="22.5" text-anchor="middle" class="valueSet">CorrespondsWithVS</text>
</a>
<a href="ValueSet-CorrespondsWithVS.html" target="_top">
<text x="96.75" y="41.25" text-anchor="middle" class="valueSet">ValueSet</text>
</a>
</g>
</g>
<g>
<g transform="translate(585 168.75)">
<a href="StructureDefinition-AbnormalityDuct-definitions.html#Observation.component:mgBreastDensity" target="_top">
<rect class="element" x="0" y="0" width="88.5" height="33.75" rx="3.75" ry="3.75" />
</a>
<a href="StructureDefinition-AbnormalityDuct-definitions.html#Observation.component:mgBreastDensity" target="_top">
<text x="44.25" y="22.5" text-anchor="middle" class="element">Density</text>
</a>
</g>
<line class="connector" marker-end="url(#arrowEnd)" x1="703.5" y1="195" x2="763.5" y2="195" />
<text x="707.25" y="191.25" text-anchor="right" class="lhsText">bind</text>
<line class="connector" marker-start="url(#arrowStart)" x1="673.5" y1="185.62" x2="703.5" y2="185.62" />
<line class="connector" x1="703.5" y1="185.62" x2="703.5" y2="195" />
</g>
<g>
<g transform="translate(763.5 168.75)">
<a href="ValueSet-MGBreastDensityVS.html" target="_top">
<rect class="valueSet" x="0" y="0" width="193.5" height="52.5" rx="3.75" ry="3.75" />
</a>
<a href="ValueSet-MGBreastDensityVS.html" target="_top">
<text x="96.75" y="22.5" text-anchor="middle" class="valueSet">MGBreastDensityVS</text>
</a>
<a href="ValueSet-MGBreastDensityVS.html" target="_top">
<text x="96.75" y="41.25" text-anchor="middle" class="valueSet">ValueSet</text>
</a>
</g>
</g>
<g>
<g transform="translate(585 228.75)">
<a href="StructureDefinition-AbnormalityDuct-definitions.html#Observation.component:ductType" target="_top">
<rect class="element" x="0" y="0" width="183" height="33.75" rx="3.75" ry="3.75" />
</a>
<a href="StructureDefinition-AbnormalityDuct-definitions.html#Observation.component:ductType" target="_top">
<text x="91.5" y="22.5" text-anchor="middle" class="element">Duct Abnormality</text>
</a>
</g>
<line class="connector" marker-end="url(#arrowEnd)" x1="798" y1="255" x2="858" y2="255" />
<text x="801.75" y="251.25" text-anchor="right" class="lhsText">bind</text>
<line class="connector" marker-start="url(#arrowStart)" x1="768" y1="245.62" x2="798" y2="245.62" />
<line class="connector" x1="798" y1="245.62" x2="798" y2="255" />
</g>
<g>
<g transform="translate(858 228.75)">
<a href="ValueSet-AbnormalityDuctTypeVS.html" target="_top">
<rect class="valueSet" x="0" y="0" width="235.5" height="52.5" rx="3.75" ry="3.75" />
</a>
<a href="ValueSet-AbnormalityDuctTypeVS.html" target="_top">
<text x="117.75" y="22.5" text-anchor="middle" class="valueSet">AbnormalityDuctTypeVS</text>
</a>
<a href="ValueSet-AbnormalityDuctTypeVS.html" target="_top">
<text x="117.75" y="41.25" text-anchor="middle" class="valueSet">ValueSet</text>
</a>
</g>
</g>
<g>
<g transform="translate(585 288.75)">
<a href="StructureDefinition-AbnormalityDuct-definitions.html#Observation.component:margin" target="_top">
<rect class="element" x="0" y="0" width="78" height="33.75" rx="3.75" ry="3.75" />
</a>
<a href="StructureDefinition-AbnormalityDuct-definitions.html#Observation.component:margin" target="_top">
<text x="39" y="22.5" text-anchor="middle" class="element">Margin</text>
</a>
</g>
<line class="connector" marker-end="url(#arrowEnd)" x1="693" y1="315" x2="753" y2="315" />
<text x="696.75" y="311.25" text-anchor="right" class="lhsText">bind</text>
<line class="connector" marker-start="url(#arrowStart)" x1="663" y1="305.62" x2="693" y2="305.62" />
<line class="connector" x1="693" y1="305.62" x2="693" y2="315" />
</g>
<g>
<g transform="translate(753 288.75)">
<a href="ValueSet-MarginVS.html" target="_top">
<rect class="valueSet" x="0" y="0" width="99" height="52.5" rx="3.75" ry="3.75" />
</a>
<a href="ValueSet-MarginVS.html" target="_top">
<text x="49.5" y="22.5" text-anchor="middle" class="valueSet">MarginVS</text>
</a>
<a href="ValueSet-MarginVS.html" target="_top">
<text x="49.5" y="41.25" text-anchor="middle" class="valueSet">ValueSet</text>
</a>
</g>
</g>
<g>
<g transform="translate(585 348.75)">
<a href="StructureDefinition-AbnormalityDuct-definitions.html#Observation.component:notPreviouslySeen" target="_top">
<rect class="element" x="0" y="0" width="214.5" height="33.75" rx="3.75" ry="3.75" />
</a>
<a href="StructureDefinition-AbnormalityDuct-definitions.html#Observation.component:notPreviouslySeen" target="_top">
<text x="107.25" y="22.5" text-anchor="middle" class="element">Not Previously Seen</text>
</a>
</g>
<line class="connector" marker-end="url(#arrowEnd)" x1="829.5" y1="375" x2="889.5" y2="375" />
<text x="833.25" y="371.25" text-anchor="right" class="lhsText">bind</text>
<line class="connector" marker-start="url(#arrowStart)" x1="799.5" y1="365.62" x2="829.5" y2="365.62" />
<line class="connector" x1="829.5" y1="365.62" x2="829.5" y2="375" />
</g>
<g>
<g transform="translate(889.5 348.75)">
<a href="ValueSet-NotPreviouslySeenVS.html" target="_top">
<rect class="valueSet" x="0" y="0" width="214.5" height="52.5" rx="3.75" ry="3.75" />
</a>
<a href="ValueSet-NotPreviouslySeenVS.html" target="_top">
<text x="107.25" y="22.5" text-anchor="middle" class="valueSet">NotPreviouslySeenVS</text>
</a>
<a href="ValueSet-NotPreviouslySeenVS.html" target="_top">
<text x="107.25" y="41.25" text-anchor="middle" class="valueSet">ValueSet</text>
</a>
</g>
</g>
<g>
<g transform="translate(585 408.75)">
<a href="StructureDefinition-AbnormalityDuct-definitions.html#Observation.component:obsChanges" target="_top">
<rect class="element" x="0" y="0" width="183" height="33.75" rx="3.75" ry="3.75" />
</a>
<a href="StructureDefinition-AbnormalityDuct-definitions.html#Observation.component:obsChanges" target="_top">
<text x="91.5" y="22.5" text-anchor="middle" class="element">Observed Changes</text>
</a>
</g>
<line class="connector" marker-end="url(#arrowEnd)" x1="798" y1="435" x2="858" y2="435" />
<text x="801.75" y="431.25" text-anchor="right" class="lhsText">bind</text>
<line class="connector" marker-start="url(#arrowStart)" x1="768" y1="425.62" x2="798" y2="425.62" />
<line class="connector" x1="798" y1="425.62" x2="798" y2="435" />
</g>
<g>
<g transform="translate(858 408.75)">
<a href="ValueSet-ObservedChangesVS.html" target="_top">
<rect class="valueSet" x="0" y="0" width="193.5" height="52.5" rx="3.75" ry="3.75" />
</a>
<a href="ValueSet-ObservedChangesVS.html" target="_top">
<text x="96.75" y="22.5" text-anchor="middle" class="valueSet">ObservedChangesVS</text>
</a>
<a href="ValueSet-ObservedChangesVS.html" target="_top">
<text x="96.75" y="41.25" text-anchor="middle" class="valueSet">ValueSet</text>
</a>
</g>
</g>
<g>
<g transform="translate(585 468.75)">
<a href="StructureDefinition-AbnormalityDuct-definitions.html#Observation.component:observedCount" target="_top">
<rect class="element" x="0" y="0" width="162" height="33.75" rx="3.75" ry="3.75" />
</a>
<a href="StructureDefinition-AbnormalityDuct-definitions.html#Observation.component:observedCount" target="_top">
<text x="81" y="22.5" text-anchor="middle" class="element">Observed Count</text>
</a>
</g>
</g>
<g>
<g transform="translate(585 510)">
<a href="StructureDefinition-AbnormalityDuct-definitions.html#Observation.component:obsDistribution" target="_top">
<rect class="element" x="0" y="0" width="235.5" height="33.75" rx="3.75" ry="3.75" />
</a>
<a href="StructureDefinition-AbnormalityDuct-definitions.html#Observation.component:obsDistribution" target="_top">
<text x="117.75" y="22.5" text-anchor="middle" class="element">Observed Distribution</text>
</a>
</g>
<line class="connector" marker-end="url(#arrowEnd)" x1="850.5" y1="536.25" x2="910.5" y2="536.25" />
<text x="854.25" y="532.5" text-anchor="right" class="lhsText">bind</text>
<line class="connector" marker-start="url(#arrowStart)" x1="820.5" y1="526.88" x2="850.5" y2="526.88" />
<line class="connector" x1="850.5" y1="526.88" x2="850.5" y2="536.25" />
</g>
<g>
<g transform="translate(910.5 510)">
<a href="ValueSet-CalcificationDistributionVS.html" target="_top">
<rect class="valueSet" x="0" y="0" width="298.5" height="52.5" rx="3.75" ry="3.75" />
</a>
<a href="ValueSet-CalcificationDistributionVS.html" target="_top">
<text x="149.25" y="22.5" text-anchor="middle" class="valueSet">CalcificationDistributionVS</text>
</a>
<a href="ValueSet-CalcificationDistributionVS.html" target="_top">
<text x="149.25" y="41.25" text-anchor="middle" class="valueSet">ValueSet</text>
</a>
</g>
</g>
<g>
<g transform="translate(585 570)">
<a href="StructureDefinition-AbnormalityDuct-definitions.html#Observation.component:obsDistRegionSize" target="_top">
<rect class="element" x="0" y="0" width="361.5" height="33.75" rx="3.75" ry="3.75" />
</a>
<a href="StructureDefinition-AbnormalityDuct-definitions.html#Observation.component:obsDistRegionSize" target="_top">
<text x="180.75" y="22.5" text-anchor="middle" class="element">Observed Distribution Region Size</text>
</a>
</g>
</g>
<g>
<g transform="translate(585 611.25)">
<a href="StructureDefinition-AbnormalityDuct-definitions.html#Observation.component:obsSize" target="_top">
<rect class="element" x="0" y="0" width="151.5" height="33.75" rx="3.75" ry="3.75" />
</a>
<a href="StructureDefinition-AbnormalityDuct-definitions.html#Observation.component:obsSize" target="_top">
<text x="75.75" y="22.5" text-anchor="middle" class="element">Observed Size</text>
</a>
</g>
</g>
<g>
<g transform="translate(585 652.5)">
<a href="StructureDefinition-AbnormalityDuct-definitions.html#Observation.component:orientation" target="_top">
<rect class="element" x="0" y="0" width="130.5" height="33.75" rx="3.75" ry="3.75" />
</a>
<a href="StructureDefinition-AbnormalityDuct-definitions.html#Observation.component:orientation" target="_top">
<text x="65.25" y="22.5" text-anchor="middle" class="element">Orientation</text>
</a>
</g>
<line class="connector" marker-end="url(#arrowEnd)" x1="745.5" y1="678.75" x2="805.5" y2="678.75" />
<text x="749.25" y="675" text-anchor="right" class="lhsText">bind</text>
<line class="connector" marker-start="url(#arrowStart)" x1="715.5" y1="669.38" x2="745.5" y2="669.38" />
<line class="connector" x1="745.5" y1="669.38" x2="745.5" y2="678.75" />
</g>
<g>
<g transform="translate(805.5 652.5)">
<a href="ValueSet-OrientationVS.html" target="_top">
<rect class="valueSet" x="0" y="0" width="151.5" height="52.5" rx="3.75" ry="3.75" />
</a>
<a href="ValueSet-OrientationVS.html" target="_top">
<text x="75.75" y="22.5" text-anchor="middle" class="valueSet">OrientationVS</text>
</a>
<a href="ValueSet-OrientationVS.html" target="_top">
<text x="75.75" y="41.25" text-anchor="middle" class="valueSet">ValueSet</text>
</a>
</g>
</g>
<g>
<g transform="translate(585 712.5)">
<a href="StructureDefinition-AbnormalityDuct-definitions.html#Observation.component:prevDemBy" target="_top">
<rect class="element" x="0" y="0" width="256.5" height="52.5" rx="3.75" ry="3.75" />
</a>
<a href="StructureDefinition-AbnormalityDuct-definitions.html#Observation.component:prevDemBy" target="_top">
<text x="128.25" y="22.5" text-anchor="middle" class="element">Previously</text>
</a>
<a href="StructureDefinition-AbnormalityDuct-definitions.html#Observation.component:prevDemBy" target="_top">
<text x="128.25" y="41.25" text-anchor="middle" class="element">Demonstrated by Changes</text>
</a>
</g>
<line class="connector" marker-end="url(#arrowEnd)" x1="871.5" y1="738.75" x2="931.5" y2="738.75" />
<text x="875.25" y="735" text-anchor="right" class="lhsText">bind</text>
<line class="connector" marker-start="url(#arrowStart)" x1="841.5" y1="738.75" x2="871.5" y2="738.75" />
<line class="connector" x1="871.5" y1="738.75" x2="871.5" y2="738.75" />
</g>
<g>
<g transform="translate(931.5 712.5)">
<a href="ValueSet-PreviouslyDemonstratedByVS.html" target="_top">
<rect class="valueSet" x="0" y="0" width="288" height="52.5" rx="3.75" ry="3.75" />
</a>
<a href="ValueSet-PreviouslyDemonstratedByVS.html" target="_top">
<text x="144" y="22.5" text-anchor="middle" class="valueSet">PreviouslyDemonstratedByVS</text>
</a>
<a href="ValueSet-PreviouslyDemonstratedByVS.html" target="_top">
<text x="144" y="41.25" text-anchor="middle" class="valueSet">ValueSet</text>
</a>
</g>
</g>
<g>
<g transform="translate(585 772.5)">
<a href="StructureDefinition-AbnormalityDuct-definitions.html#Observation.component:shape" target="_top">
<rect class="element" x="0" y="0" width="67.5" height="33.75" rx="3.75" ry="3.75" />
</a>
<a href="StructureDefinition-AbnormalityDuct-definitions.html#Observation.component:shape" target="_top">
<text x="33.75" y="22.5" text-anchor="middle" class="element">Shape</text>
</a>
</g>
<line class="connector" marker-end="url(#arrowEnd)" x1="682.5" y1="798.75" x2="742.5" y2="798.75" />
<text x="686.25" y="795" text-anchor="right" class="lhsText">bind</text>
<line class="connector" marker-start="url(#arrowStart)" x1="652.5" y1="789.38" x2="682.5" y2="789.38" />
<line class="connector" x1="682.5" y1="789.38" x2="682.5" y2="798.75" />
</g>
<g>
<g transform="translate(742.5 772.5)">
<a href="ValueSet-ShapeVS.html" target="_top">
<rect class="valueSet" x="0" y="0" width="99" height="52.5" rx="3.75" ry="3.75" />
</a>
<a href="ValueSet-ShapeVS.html" target="_top">
<text x="49.5" y="22.5" text-anchor="middle" class="valueSet">ShapeVS</text>
</a>
<a href="ValueSet-ShapeVS.html" target="_top">
<text x="49.5" y="41.25" text-anchor="middle" class="valueSet">ValueSet</text>
</a>
</g>
</g>
<g>
<g transform="translate(375 832.5)">
<a href="StructureDefinition-AbnormalityDuct-definitions.html#Observation.hasMember" target="_top">
<rect class="element" x="0" y="0" width="109.5" height="33.75" rx="3.75" ry="3.75" />
</a>
<a href="StructureDefinition-AbnormalityDuct-definitions.html#Observation.hasMember" target="_top">
<text x="54.75" y="22.5" text-anchor="middle" class="element">HasMember</text>
</a>
</g>
<line class="connector" marker-end="url(#arrowEnd)" x1="514.5" y1="849.38" x2="574.5" y2="849.38" />
<text x="518.25" y="845.62" text-anchor="right" class="lhsText">0..*</text>
<line class="connector" marker-start="url(#arrowStart)" x1="484.5" y1="849.38" x2="514.5" y2="849.38" />
<line class="connector" x1="514.5" y1="849.38" x2="514.5" y2="849.38" />
</g>
<g>
<g transform="translate(574.5 832.5)">
<a href="StructureDefinition-ConsistentWith.html" target="_top">
<rect class="profile" x="0" y="0" width="172.5" height="33.75" rx="3.75" ry="3.75" />
</a>
<a href="StructureDefinition-ConsistentWith.html" target="_top">
<text x="86.25" y="22.5" text-anchor="middle" class="profile">Consistent With</text>
</a>
</g>
</g>
<g>
<g transform="translate(7.5 948.75)">
<rect class="focus" x="0" y="0" width="67.5" height="33.75" rx="3.75" ry="3.75" />
<text x="33.75" y="22.5" text-anchor="middle" class="focus">Focus</text>
</g>
<g transform="translate(82.5 948.75)">
<rect class="profile" x="0" y="0" width="193.5" height="33.75" rx="3.75" ry="3.75" />
<text x="96.75" y="22.5" text-anchor="middle" class="profile">Profiled Resource</text>
</g>
<g transform="translate(283.5 948.75)">
<rect class="extension" x="0" y="0" width="109.5" height="33.75" rx="3.75" ry="3.75" />
<text x="54.75" y="22.5" text-anchor="middle" class="extension">Extension</text>
</g>
<g transform="translate(400.5 948.75)">
<rect class="element" x="0" y="0" width="183" height="33.75" rx="3.75" ry="3.75" />
<text x="91.5" y="22.5" text-anchor="middle" class="element">Resource Element</text>
</g>
<g transform="translate(591 948.75)">
<rect class="valueSet" x="0" y="0" width="99" height="33.75" rx="3.75" ry="3.75" />
<text x="49.5" y="22.5" text-anchor="middle" class="valueSet">ValueSet</text>
</g>
</g>
</svg>
