<?xml version="1.0"?>
<?xml-stylesheet type="text/css" href="FocusGraph.css" ?>
<!DOCTYPE svg PUBLIC "-//W3C//DTD SVG 1.1//EN" "http://www.w3.org/Graphics/SVG/1.1/DTD/svg11.dtd">
<svg xmlns="http://www.w3.org/2000/svg" version="1.1" width="1039.84" height="442.5">
<defs>
<marker id="arrowStart" markerWidth="3.75" markerHeight="3.75" markerUnits="px" refX="1.88" refY="1.88">
<circle class="connector" cx="1.88" cy="1.88" r="1.88" />
</marker>
<marker id="arrowEnd" markerWidth="7.5" markerHeight="7.5" markerUnits="px" refX="7.5" refY="3.75">
<polygon class="connector" points="0 0 7.5 3.75 0 7.5" />
</marker>
</defs>
<g>
<g transform="translate(3.75 3.75)">
<a href="StructureDefinition-BreastRadiologyComposition.html" target="_top">
<rect class="profile" x="0" y="0" width="104.43" height="63.75" rx="3.75" ry="3.75" />
</a>
<a href="StructureDefinition-BreastRadiologyComposition.html" target="_top">
<text x="5.62" y="18.75" text-anchor="left" class="profile">Breast</text>
</a>
<a href="StructureDefinition-BreastRadiologyComposition.html" target="_top">
<text x="5.62" y="37.5" text-anchor="left" class="profile">Radiology</text>
</a>
<a href="StructureDefinition-BreastRadiologyComposition.html" target="_top">
<text x="5.62" y="56.25" text-anchor="left" class="profile">Composition</text>
</a>
</g>
<line class="connector" marker-end="url(#arrowEnd)" x1="138.18" y1="26.25" x2="198.18" y2="26.25" />
<text x="141.93" y="22.5" text-anchor="right" class="lhsText">0..*</text>
<line class="connector" marker-start="url(#arrowStart)" x1="108.18" y1="35.62" x2="138.18" y2="35.62" />
<line class="connector" x1="138.18" y1="26.25" x2="138.18" y2="35.62" />
</g>
<g>
<g transform="translate(198.18 3.75)">
<a href="StructureDefinition-FindingsBiLateralBreast.html" target="_top">
<rect class="focus" x="0" y="0" width="77.87" height="45" rx="3.75" ry="3.75" />
</a>
<a href="StructureDefinition-FindingsBiLateralBreast.html" target="_top">
<text x="5.62" y="18.75" text-anchor="left" class="focus">Findings</text>
</a>
<a href="StructureDefinition-FindingsBiLateralBreast.html" target="_top">
<text x="5.62" y="37.5" text-anchor="left" class="focus">BiLateral</text>
</a>
</g>
<line class="connector" marker-end="url(#arrowEnd)" x1="306.05" y1="16.88" x2="366.05" y2="16.88" />
<text x="309.8" y="13.12" text-anchor="right" class="lhsText">1..1</text>
<line class="connector" marker-end="url(#arrowEnd)" x1="306.05" y1="50.62" x2="366.05" y2="50.62" />
<text x="309.8" y="46.88" text-anchor="right" class="lhsText">1..1</text>
<line class="connector" marker-end="url(#arrowEnd)" x1="306.05" y1="84.38" x2="366.05" y2="84.38" />
<text x="309.8" y="80.62" text-anchor="right" class="lhsText">0..*</text>
<line class="connector" marker-start="url(#arrowStart)" x1="276.05" y1="26.25" x2="306.05" y2="26.25" />
<line class="connector" x1="306.05" y1="16.88" x2="306.05" y2="84.38" />
</g>
<g>
<g transform="translate(366.05 3.75)">
<a href="StructureDefinition-FindingsBiLateralBreast-definitions.html#Observation.code" target="_top">
<rect class="element" x="0" y="0" width="52.22" height="26.25" rx="3.75" ry="3.75" />
</a>
<a href="StructureDefinition-FindingsBiLateralBreast-definitions.html#Observation.code" target="_top">
<text x="5.62" y="18.75" text-anchor="left" class="element">Code</text>
</a>
</g>
<line class="connector" marker-end="url(#arrowEnd)" x1="448.27" y1="16.88" x2="568.27" y2="16.88" />
<text x="452.02" y="13.12" text-anchor="right" class="lhsText">pattern </text>
<line class="connector" marker-start="url(#arrowStart)" x1="418.27" y1="16.88" x2="448.27" y2="16.88" />
<line class="connector" x1="448.27" y1="16.88" x2="448.27" y2="16.88" />
</g>
<g>
<g transform="translate(568.27 3.75)">
<a href="CodeSystem-ObservationCodesCS.html" target="_top">
<rect class="value" x="0" y="0" width="439.69" height="26.25" rx="3.75" ry="3.75" />
</a>
<a href="CodeSystem-ObservationCodesCS.html" target="_top">
<text x="5.62" y="18.75" text-anchor="left" class="value">ObservationCodesCS#findingsBiLateralBreastObservation</text>
</a>
</g>
</g>
<g>
<g transform="translate(366.05 37.5)">
<a href="StructureDefinition-FindingsBiLateralBreast-definitions.html#Observation.bodySite" target="_top">
<rect class="element" x="0" y="0" width="83.37" height="26.25" rx="3.75" ry="3.75" />
</a>
<a href="StructureDefinition-FindingsBiLateralBreast-definitions.html#Observation.bodySite" target="_top">
<text x="5.62" y="18.75" text-anchor="left" class="element">Body Site</text>
</a>
</g>
<line class="connector" marker-end="url(#arrowEnd)" x1="479.42" y1="50.62" x2="599.42" y2="50.62" />
<text x="483.17" y="46.88" text-anchor="right" class="lhsText">pattern </text>
<line class="connector" marker-start="url(#arrowStart)" x1="449.42" y1="50.62" x2="479.42" y2="50.62" />
<line class="connector" x1="479.42" y1="50.62" x2="479.42" y2="50.62" />
</g>
<g>
<g transform="translate(599.42 37.5)">
<a target="_top">
<rect class="value" x="0" y="0" width="125.54" height="26.25" rx="3.75" ry="3.75" />
</a>
<a target="_top">
<text x="5.62" y="18.75" text-anchor="left" class="value">sct#181131000</text>
</a>
</g>
</g>
<g>
<g transform="translate(366.05 71.25)">
<a href="StructureDefinition-FindingsBiLateralBreast-definitions.html#Observation.hasMember" target="_top">
<rect class="element" x="0" y="0" width="102.57" height="26.25" rx="3.75" ry="3.75" />
</a>
<a href="StructureDefinition-FindingsBiLateralBreast-definitions.html#Observation.hasMember" target="_top">
<text x="5.62" y="18.75" text-anchor="left" class="element">HasMember</text>
</a>
</g>
<line class="connector" marker-end="url(#arrowEnd)" x1="498.62" y1="84.38" x2="558.62" y2="84.38" />
<text x="502.37" y="80.62" text-anchor="right" class="lhsText">0..1</text>
<line class="connector" marker-end="url(#arrowEnd)" x1="498.62" y1="118.12" x2="558.62" y2="118.12" />
<text x="502.37" y="114.38" text-anchor="right" class="lhsText">0..1</text>
<line class="connector" marker-end="url(#arrowEnd)" x1="498.62" y1="151.88" x2="558.62" y2="151.88" />
<text x="502.37" y="148.12" text-anchor="right" class="lhsText">0..1</text>
<line class="connector" marker-end="url(#arrowEnd)" x1="498.62" y1="185.62" x2="558.62" y2="185.62" />
<text x="502.37" y="181.88" text-anchor="right" class="lhsText">0..1</text>
<line class="connector" marker-end="url(#arrowEnd)" x1="498.62" y1="228.75" x2="558.62" y2="228.75" />
<text x="502.37" y="225" text-anchor="right" class="lhsText">0..1</text>
<line class="connector" marker-end="url(#arrowEnd)" x1="498.62" y1="271.88" x2="558.62" y2="271.88" />
<text x="502.37" y="268.12" text-anchor="right" class="lhsText">0..1</text>
<line class="connector" marker-end="url(#arrowEnd)" x1="498.62" y1="305.62" x2="558.62" y2="305.62" />
<text x="502.37" y="301.88" text-anchor="right" class="lhsText">0..1</text>
<line class="connector" marker-start="url(#arrowStart)" x1="468.62" y1="84.38" x2="498.62" y2="84.38" />
<line class="connector" x1="498.62" y1="84.38" x2="498.62" y2="305.62" />
</g>
<g>
<g transform="translate(558.62 71.25)">
<a href="StructureDefinition-BreastAssessmentCategory.html" target="_top">
<rect class="profile" x="0" y="0" width="226.23" height="26.25" rx="3.75" ry="3.75" />
</a>
<a href="StructureDefinition-BreastAssessmentCategory.html" target="_top">
<text x="5.62" y="18.75" text-anchor="left" class="profile">Breast Assessment Category</text>
</a>
</g>
</g>
<g>
<g transform="translate(558.62 105)">
<a href="StructureDefinition-BreastComposition.html" target="_top">
<rect class="profile" x="0" y="0" width="156.63" height="26.25" rx="3.75" ry="3.75" />
</a>
<a href="StructureDefinition-BreastComposition.html" target="_top">
<text x="5.62" y="18.75" text-anchor="left" class="profile">Breast Composition</text>
</a>
</g>
</g>
<g>
<g transform="translate(558.62 138.75)">
<a href="StructureDefinition-MGFinding.html" target="_top">
<rect class="profile" x="0" y="0" width="102.6" height="26.25" rx="3.75" ry="3.75" />
</a>
<a href="StructureDefinition-MGFinding.html" target="_top">
<text x="5.62" y="18.75" text-anchor="left" class="profile">Mg Findings</text>
</a>
</g>
</g>
<g>
<g transform="translate(558.62 172.5)">
<a href="StructureDefinition-MRIFinding.html" target="_top">
<rect class="profile" x="0" y="0" width="109.91" height="26.25" rx="3.75" ry="3.75" />
</a>
<a href="StructureDefinition-MRIFinding.html" target="_top">
<text x="5.62" y="18.75" text-anchor="left" class="profile">MRI Findings</text>
</a>
</g>
</g>
<g>
<g transform="translate(558.62 206.25)">
<a href="StructureDefinition-NMFinding.html" target="_top">
<rect class="profile" x="0" y="0" width="140.15" height="45" rx="3.75" ry="3.75" />
</a>
<a href="StructureDefinition-NMFinding.html" target="_top">
<text x="5.62" y="18.75" text-anchor="left" class="profile">Nuclear Medicine</text>
</a>
<a href="StructureDefinition-NMFinding.html" target="_top">
<text x="5.62" y="37.5" text-anchor="left" class="profile">Findings</text>
</a>
</g>
</g>
<g>
<g transform="translate(558.62 258.75)">
<a href="StructureDefinition-USFinding.html" target="_top">
<rect class="profile" x="0" y="0" width="159.4" height="26.25" rx="3.75" ry="3.75" />
</a>
<a href="StructureDefinition-USFinding.html" target="_top">
<text x="5.62" y="18.75" text-anchor="left" class="profile">Ultrasound Findings</text>
</a>
</g>
</g>
<g>
<g transform="translate(558.62 292.5)">
<a href="StructureDefinition-OtherModalityFinding.html" target="_top">
<rect class="profile" x="0" y="0" width="186.86" height="26.25" rx="3.75" ry="3.75" />
</a>
<a href="StructureDefinition-OtherModalityFinding.html" target="_top">
<text x="5.62" y="18.75" text-anchor="left" class="profile">Other Modality Findings</text>
</a>
</g>
</g>
<g>
<g transform="translate(3.75 401.25)">
<rect class="focus" x="0" y="0" width="57.72" height="26.25" rx="3.75" ry="3.75" />
<text x="5.62" y="18.75" text-anchor="left" class="focus">Focus</text>
</g>
<g transform="translate(68.97 401.25)">
<rect class="profile" x="0" y="0" width="143.81" height="26.25" rx="3.75" ry="3.75" />
<text x="5.62" y="18.75" text-anchor="left" class="profile">Profiled Resource</text>
</g>
<g transform="translate(220.28 401.25)">
<rect class="element" x="0" y="0" width="148.39" height="26.25" rx="3.75" ry="3.75" />
<text x="5.62" y="18.75" text-anchor="left" class="element">Resource Element</text>
</g>
<g transform="translate(376.16 401.25)">
<rect class="value" x="0" y="0" width="54.98" height="26.25" rx="3.75" ry="3.75" />
<text x="5.62" y="18.75" text-anchor="left" class="value">Value</text>
</g>
</g>
</svg>
