<?xml version="1.0"?>
<!DOCTYPE svg PUBLIC "-//W3C//DTD SVG 1.1//EN" "http://www.w3.org/Graphics/SVG/1.1/DTD/svg11.dtd">
<svg xmlns="http://www.w3.org/2000/svg" version="1.1" width="505.5" height="386.25">
<defs>
<marker id="arrowStart" markerWidth="3.75" markerHeight="3.75" markerUnits="px" refX="1.875" refY="1.875">
<circle fill="Black" stroke-width="0" cx="1.875" cy="1.875" r="1.875" />
</marker>
<marker id="arrowEnd" markerWidth="7.5" markerHeight="7.5" markerUnits="px" refX="7.5" refY="3.75">
<polygon fill="Black" stroke-width="0" points="0 0 7.5 3.75 0 7.5" />
</marker>
</defs>
<g>
<g>
<rect fill="LightBlue" stroke="Black" stroke-width="1.875" x="7.5" y="7.5" width="88.5" height="52.5" rx="3.75" ry="3.75" />
<a href="./StructureDefinition-BreastRadMammoFinding.html" target="_blank">
<title>'BreastRadMammoFinding'</title>
<text x="15" y="30">Mammo</text>
</a>
<a href="./StructureDefinition-BreastRadMammoFinding.html" target="_blank">
<title>'BreastRadMammoFinding'</title>
<text x="15" y="48.75">Finding</text>
</a>
</g>
<line stroke="Black" stroke-width="1.875" marker-end="url(#arrowEnd)" x1="125.99999" y1="52.5" x2="156" y2="52.5" />
<line stroke="Black" stroke-width="1.875" marker-start="url(#arrowStart)" x1="96" y1="33.75" x2="125.99999" y2="33.75" />
<line stroke="Black" stroke-width="1.875" x1="125.99999" y1="33.75" x2="125.99999" y2="52.5" />
</g>
<g>
<g>
<rect fill="LightGreen" stroke="Black" stroke-width="1.875" x="156" y="7.5" width="99" height="90" rx="3.75" ry="3.75" />
<text x="163.5" y="30">Mammo</text>
<text x="163.5" y="48.75">Solitary</text>
<text x="163.5" y="67.5">Dialated</text>
<text x="163.5" y="86.25">Duct</text>
</g>
<line stroke="Black" stroke-width="1.875" marker-end="url(#arrowEnd)" x1="285" y1="43.125" x2="315" y2="43.125" />
<line stroke="Black" stroke-width="1.875" marker-end="url(#arrowEnd)" x1="285" y1="103.125" x2="315" y2="103.125" />
<line stroke="Black" stroke-width="1.875" marker-end="url(#arrowEnd)" x1="285" y1="144.375" x2="315" y2="144.375" />
<line stroke="Black" stroke-width="1.875" marker-end="url(#arrowEnd)" x1="285" y1="185.625" x2="315" y2="185.625" />
<line stroke="Black" stroke-width="1.875" marker-end="url(#arrowEnd)" x1="285" y1="226.875" x2="315" y2="226.875" />
<line stroke="Black" stroke-width="1.875" marker-end="url(#arrowEnd)" x1="285" y1="268.125" x2="315" y2="268.125" />
<line stroke="Black" stroke-width="1.875" marker-end="url(#arrowEnd)" x1="285" y1="328.125" x2="315" y2="328.125" />
<line stroke="Black" stroke-width="1.875" marker-start="url(#arrowStart)" x1="255" y1="52.5" x2="285" y2="52.5" />
<line stroke="Black" stroke-width="1.875" x1="285" y1="43.125" x2="285" y2="328.125" />
</g>
<g>
<g>
<rect fill="LightSalmon" stroke="Black" stroke-width="1.875" x="315" y="7.5" width="120" height="71.25" rx="3.75" ry="3.75" />
<a href="./StructureDefinition-BiRadsAssessmentCategory.html" target="_blank">
<title>'BiRadsAssessmentCategory'</title>
<text x="322.5" y="30">BiRads</text>
</a>
<a href="./StructureDefinition-BiRadsAssessmentCategory.html" target="_blank">
<title>'BiRadsAssessmentCategory'</title>
<text x="322.5" y="48.75">Assessment</text>
</a>
<a href="./StructureDefinition-BiRadsAssessmentCategory.html" target="_blank">
<title>'BiRadsAssessmentCategory'</title>
<text x="322.5" y="67.5">Category</text>
</a>
</g>
<g>
<rect fill="LightSalmon" stroke="Black" stroke-width="1.875" x="315" y="86.25" width="67.5" height="33.75" rx="3.75" ry="3.75" />
<a href="./StructureDefinition-CommonCount.html" target="_blank">
<title>'CommonCount'</title>
<text x="322.5" y="108.75">Count</text>
</a>
</g>
<g>
<rect fill="LightSalmon" stroke="Black" stroke-width="1.875" x="315" y="127.5" width="88.5" height="33.75" rx="3.75" ry="3.75" />
<a href="./StructureDefinition-CommonObservedChanges.html" target="_blank">
<title>'CommonObservedChanges'</title>
<text x="322.5" y="150">Changes</text>
</a>
</g>
<g>
<rect fill="LightSalmon" stroke="Black" stroke-width="1.875" x="315" y="168.75" width="57" height="33.75" rx="3.75" ry="3.75" />
<a href="./StructureDefinition-CommonSize.html" target="_blank">
<title>'CommonSize'</title>
<text x="322.5" y="191.25">Size</text>
</a>
</g>
<g>
<rect fill="LightSalmon" stroke="Black" stroke-width="1.875" x="315" y="210" width="130.5" height="33.75" rx="3.75" ry="3.75" />
<a href="./StructureDefinition-CommonOrientation.html" target="_blank">
<title>'CommonOrientation'</title>
<text x="322.5" y="232.5">Orientation</text>
</a>
</g>
<g>
<rect fill="LightSalmon" stroke="Black" stroke-width="1.875" x="315" y="251.25" width="67.5" height="33.75" rx="3.75" ry="3.75" />
<a href="./StructureDefinition-CommonObservedState.html" target="_blank">
<title>'CommonObservedState'</title>
<text x="322.5" y="273.75">State</text>
</a>
</g>
<g>
<rect fill="LightSalmon" stroke="Black" stroke-width="1.875" x="315" y="292.5" width="99" height="71.25" rx="3.75" ry="3.75" />
<a href="./StructureDefinition-BreastBodyLocationExtension.html" target="_blank">
<title>'BreastBodyLocationExtension'</title>
<text x="322.5" y="315">Breast</text>
</a>
<a href="./StructureDefinition-BreastBodyLocationExtension.html" target="_blank">
<title>'BreastBodyLocationExtension'</title>
<text x="322.5" y="333.75">Body</text>
</a>
<a href="./StructureDefinition-BreastBodyLocationExtension.html" target="_blank">
<title>'BreastBodyLocationExtension'</title>
<text x="322.5" y="352.5">Location</text>
</a>
</g>
</g>
</svg>
