<?xml version="1.0"?>
<?xml-stylesheet type="text/css" href="FocusGraph.css" ?>
<!DOCTYPE svg PUBLIC "-//W3C//DTD SVG 1.1//EN" "http://www.w3.org/Graphics/SVG/1.1/DTD/svg11.dtd">
<svg xmlns="http://www.w3.org/2000/svg" version="1.1" width="1149.52" height="476.25">
<defs>
<marker id="arrowStart" markerWidth="3.75" markerHeight="3.75" markerUnits="px" refX="1.88" refY="1.88">
<circle class="connector" cx="1.88" cy="1.88" r="1.88" />
</marker>
<marker id="arrowEnd" markerWidth="7.5" markerHeight="7.5" markerUnits="px" refX="7.5" refY="3.75">
<polygon class="connector" points="0 0 7.5 3.75 0 7.5" />
</marker>
</defs>
<g>
<g transform="translate(3.75 3.75)">
<a href="StructureDefinition-MGFinding.html" target="_top">
<rect class="profile" x="0" y="0" width="102.6" height="26.25" rx="3.75" ry="3.75" />
</a>
<a href="StructureDefinition-MGFinding.html" target="_top">
<text x="5.62" y="18.75" text-anchor="left" class="profile">Mg Findings</text>
</a>
</g>
<line class="connector" marker-end="url(#arrowEnd)" x1="136.35" y1="16.88" x2="196.35" y2="16.88" />
<text x="140.1" y="13.12" text-anchor="right" class="lhsText">0..*</text>
<line class="connector" marker-start="url(#arrowStart)" x1="106.35" y1="16.88" x2="136.35" y2="16.88" />
<line class="connector" x1="136.35" y1="16.88" x2="136.35" y2="16.88" />
</g>
<g>
<g transform="translate(196.35 3.75)">
<a href="StructureDefinition-AbnormalityForeignObject.html" target="_top">
<rect class="focus" x="0" y="0" width="120.92" height="26.25" rx="3.75" ry="3.75" />
</a>
<a href="StructureDefinition-AbnormalityForeignObject.html" target="_top">
<text x="5.62" y="18.75" text-anchor="left" class="focus">Foreign Object</text>
</a>
</g>
<line class="connector" marker-end="url(#arrowEnd)" x1="347.27" y1="16.88" x2="407.27" y2="16.88" />
<text x="351.02" y="13.12" text-anchor="right" class="lhsText">1..1</text>
<line class="connector" marker-end="url(#arrowEnd)" x1="347.27" y1="50.62" x2="407.27" y2="50.62" />
<text x="351.02" y="46.88" text-anchor="right" class="lhsText">1..*</text>
<line class="connector" marker-end="url(#arrowEnd)" x1="347.27" y1="271.88" x2="407.27" y2="271.88" />
<text x="351.02" y="268.12" text-anchor="right" class="lhsText">0..*</text>
<line class="connector" marker-start="url(#arrowStart)" x1="317.27" y1="16.88" x2="347.27" y2="16.88" />
<line class="connector" x1="347.27" y1="16.88" x2="347.27" y2="271.88" />
</g>
<g>
<g transform="translate(407.27 3.75)">
<a href="StructureDefinition-AbnormalityForeignObject-definitions.html#Observation.code" target="_top">
<rect class="element" x="0" y="0" width="52.22" height="26.25" rx="3.75" ry="3.75" />
</a>
<a href="StructureDefinition-AbnormalityForeignObject-definitions.html#Observation.code" target="_top">
<text x="5.62" y="18.75" text-anchor="left" class="element">Code</text>
</a>
</g>
<line class="connector" marker-end="url(#arrowEnd)" x1="489.49" y1="16.88" x2="609.49" y2="16.88" />
<text x="493.24" y="13.12" text-anchor="right" class="lhsText">pattern </text>
<line class="connector" marker-start="url(#arrowStart)" x1="459.49" y1="16.88" x2="489.49" y2="16.88" />
<line class="connector" x1="489.49" y1="16.88" x2="489.49" y2="16.88" />
</g>
<g>
<g transform="translate(609.49 3.75)">
<a href="CodeSystem-ObservationCodesCS.html" target="_top">
<rect class="value" x="0" y="0" width="458.91" height="26.25" rx="3.75" ry="3.75" />
</a>
<a href="CodeSystem-ObservationCodesCS.html" target="_top">
<text x="5.62" y="18.75" text-anchor="left" class="value">ObservationCodesCS#abnormalityForeignObjectObservation</text>
</a>
</g>
</g>
<g>
<g transform="translate(407.27 37.5)">
<a href="StructureDefinition-AbnormalityForeignObject-definitions.html#Observation.component" target="_top">
<rect class="element" x="0" y="0" width="106.26" height="26.25" rx="3.75" ry="3.75" />
</a>
<a href="StructureDefinition-AbnormalityForeignObject-definitions.html#Observation.component" target="_top">
<text x="5.62" y="18.75" text-anchor="left" class="element">Components</text>
</a>
</g>
<line class="connector" marker-end="url(#arrowEnd)" x1="543.53" y1="50.62" x2="603.53" y2="50.62" />
<text x="547.28" y="46.88" text-anchor="right" class="lhsText">0..*</text>
<line class="connector" marker-end="url(#arrowEnd)" x1="543.53" y1="84.38" x2="603.53" y2="84.38" />
<text x="547.28" y="80.62" text-anchor="right" class="lhsText">1..1</text>
<line class="connector" marker-end="url(#arrowEnd)" x1="543.53" y1="118.12" x2="603.53" y2="118.12" />
<text x="547.28" y="114.38" text-anchor="right" class="lhsText">0..*</text>
<line class="connector" marker-end="url(#arrowEnd)" x1="543.53" y1="151.88" x2="603.53" y2="151.88" />
<text x="547.28" y="148.12" text-anchor="right" class="lhsText">0..*</text>
<line class="connector" marker-end="url(#arrowEnd)" x1="543.53" y1="185.62" x2="603.53" y2="185.62" />
<text x="547.28" y="181.88" text-anchor="right" class="lhsText">0..3</text>
<line class="connector" marker-end="url(#arrowEnd)" x1="543.53" y1="228.75" x2="603.53" y2="228.75" />
<text x="547.28" y="225" text-anchor="right" class="lhsText">0..*</text>
<line class="connector" marker-start="url(#arrowStart)" x1="513.53" y1="50.62" x2="543.53" y2="50.62" />
<line class="connector" x1="543.53" y1="50.62" x2="543.53" y2="228.75" />
</g>
<g>
<g transform="translate(603.53 37.5)">
<a href="StructureDefinition-AbnormalityForeignObject-definitions.html#Observation.component:correspondsWith" target="_top">
<rect class="element" x="0" y="0" width="144.71" height="26.25" rx="3.75" ry="3.75" />
</a>
<a href="StructureDefinition-AbnormalityForeignObject-definitions.html#Observation.component:correspondsWith" target="_top">
<text x="5.62" y="18.75" text-anchor="left" class="element">Corresponds With</text>
</a>
</g>
<line class="connector" marker-end="url(#arrowEnd)" x1="778.24" y1="50.62" x2="838.24" y2="50.62" />
<text x="781.99" y="46.88" text-anchor="right" class="lhsText">bind</text>
<line class="connector" marker-start="url(#arrowStart)" x1="748.24" y1="50.62" x2="778.24" y2="50.62" />
<line class="connector" x1="778.24" y1="50.62" x2="778.24" y2="50.62" />
</g>
<g>
<g transform="translate(838.24 37.5)">
<a href="ValueSet-CorrespondsWithVS.html" target="_top">
<rect class="valueSet" x="0" y="0" width="162.11" height="26.25" rx="3.75" ry="3.75" />
</a>
<a href="ValueSet-CorrespondsWithVS.html" target="_top">
<text x="5.62" y="18.75" text-anchor="left" class="valueSet">CorrespondsWithVS</text>
</a>
</g>
</g>
<g>
<g transform="translate(603.53 71.25)">
<a href="StructureDefinition-AbnormalityForeignObject-definitions.html#Observation.component:abnormalityForeignObjectType" target="_top">
<rect class="element" x="0" y="0" width="162.14" height="26.25" rx="3.75" ry="3.75" />
</a>
<a href="StructureDefinition-AbnormalityForeignObject-definitions.html#Observation.component:abnormalityForeignObjectType" target="_top">
<text x="5.62" y="18.75" text-anchor="left" class="element">Foreign Object Type</text>
</a>
</g>
<line class="connector" marker-end="url(#arrowEnd)" x1="795.67" y1="84.38" x2="855.67" y2="84.38" />
<text x="799.42" y="80.62" text-anchor="right" class="lhsText">bind</text>
<line class="connector" marker-start="url(#arrowStart)" x1="765.67" y1="84.38" x2="795.67" y2="84.38" />
<line class="connector" x1="795.67" y1="84.38" x2="795.67" y2="84.38" />
</g>
<g>
<g transform="translate(855.67 71.25)">
<a href="ValueSet-AbnormalityForeignObjectTypeVS.html" target="_top">
<rect class="valueSet" x="0" y="0" width="261.97" height="26.25" rx="3.75" ry="3.75" />
</a>
<a href="ValueSet-AbnormalityForeignObjectTypeVS.html" target="_top">
<text x="5.62" y="18.75" text-anchor="left" class="valueSet">AbnormalityForeignObjectTypeVS</text>
</a>
</g>
</g>
<g>
<g transform="translate(603.53 105)">
<a href="StructureDefinition-AbnormalityForeignObject-definitions.html#Observation.component:notPreviouslySeen" target="_top">
<rect class="element" x="0" y="0" width="162.14" height="26.25" rx="3.75" ry="3.75" />
</a>
<a href="StructureDefinition-AbnormalityForeignObject-definitions.html#Observation.component:notPreviouslySeen" target="_top">
<text x="5.62" y="18.75" text-anchor="left" class="element">Not Previously Seen</text>
</a>
</g>
<line class="connector" marker-end="url(#arrowEnd)" x1="795.67" y1="118.12" x2="855.67" y2="118.12" />
<text x="799.42" y="114.38" text-anchor="right" class="lhsText">bind</text>
<line class="connector" marker-start="url(#arrowStart)" x1="765.67" y1="118.12" x2="795.67" y2="118.12" />
<line class="connector" x1="795.67" y1="118.12" x2="795.67" y2="118.12" />
</g>
<g>
<g transform="translate(855.67 105)">
<a href="ValueSet-NotPreviouslySeenVS.html" target="_top">
<rect class="valueSet" x="0" y="0" width="174.97" height="26.25" rx="3.75" ry="3.75" />
</a>
<a href="ValueSet-NotPreviouslySeenVS.html" target="_top">
<text x="5.62" y="18.75" text-anchor="left" class="valueSet">NotPreviouslySeenVS</text>
</a>
</g>
</g>
<g>
<g transform="translate(603.53 138.75)">
<a href="StructureDefinition-AbnormalityForeignObject-definitions.html#Observation.component:obsChanges" target="_top">
<rect class="element" x="0" y="0" width="154.82" height="26.25" rx="3.75" ry="3.75" />
</a>
<a href="StructureDefinition-AbnormalityForeignObject-definitions.html#Observation.component:obsChanges" target="_top">
<text x="5.62" y="18.75" text-anchor="left" class="element">Observed Changes</text>
</a>
</g>
<line class="connector" marker-end="url(#arrowEnd)" x1="788.35" y1="151.88" x2="848.35" y2="151.88" />
<text x="792.1" y="148.12" text-anchor="right" class="lhsText">bind</text>
<line class="connector" marker-start="url(#arrowStart)" x1="758.35" y1="151.88" x2="788.35" y2="151.88" />
<line class="connector" x1="788.35" y1="151.88" x2="788.35" y2="151.88" />
</g>
<g>
<g transform="translate(848.35 138.75)">
<a href="ValueSet-ObservedChangesVS.html" target="_top">
<rect class="valueSet" x="0" y="0" width="172.22" height="26.25" rx="3.75" ry="3.75" />
</a>
<a href="ValueSet-ObservedChangesVS.html" target="_top">
<text x="5.62" y="18.75" text-anchor="left" class="valueSet">ObservedChangesVS</text>
</a>
</g>
</g>
<g>
<g transform="translate(603.53 172.5)">
<a href="StructureDefinition-AbnormalityForeignObject-definitions.html#Observation.component:obsSize" target="_top">
<rect class="element" x="0" y="0" width="120.92" height="26.25" rx="3.75" ry="3.75" />
</a>
<a href="StructureDefinition-AbnormalityForeignObject-definitions.html#Observation.component:obsSize" target="_top">
<text x="5.62" y="18.75" text-anchor="left" class="element">Observed Size</text>
</a>
</g>
</g>
<g>
<g transform="translate(603.53 206.25)">
<a href="StructureDefinition-AbnormalityForeignObject-definitions.html#Observation.component:prevDemBy" target="_top">
<rect class="element" x="0" y="0" width="138.31" height="45" rx="3.75" ry="3.75" />
</a>
<a href="StructureDefinition-AbnormalityForeignObject-definitions.html#Observation.component:prevDemBy" target="_top">
<text x="5.62" y="18.75" text-anchor="left" class="element">Previously</text>
</a>
<a href="StructureDefinition-AbnormalityForeignObject-definitions.html#Observation.component:prevDemBy" target="_top">
<text x="5.62" y="37.5" text-anchor="left" class="element">Demonstrated by</text>
</a>
</g>
<line class="connector" marker-end="url(#arrowEnd)" x1="771.84" y1="219.38" x2="831.84" y2="219.38" />
<text x="775.59" y="215.62" text-anchor="right" class="lhsText">bind</text>
<line class="connector" marker-start="url(#arrowStart)" x1="741.84" y1="228.75" x2="771.84" y2="228.75" />
<line class="connector" x1="771.84" y1="219.38" x2="771.84" y2="228.75" />
</g>
<g>
<g transform="translate(831.84 206.25)">
<a href="ValueSet-PreviouslyDemonstratedByVS.html" target="_top">
<rect class="valueSet" x="0" y="0" width="233.57" height="26.25" rx="3.75" ry="3.75" />
</a>
<a href="ValueSet-PreviouslyDemonstratedByVS.html" target="_top">
<text x="5.62" y="18.75" text-anchor="left" class="valueSet">PreviouslyDemonstratedByVS</text>
</a>
</g>
</g>
<g>
<g transform="translate(407.27 258.75)">
<a href="StructureDefinition-AbnormalityForeignObject-definitions.html#Observation.hasMember" target="_top">
<rect class="element" x="0" y="0" width="102.57" height="26.25" rx="3.75" ry="3.75" />
</a>
<a href="StructureDefinition-AbnormalityForeignObject-definitions.html#Observation.hasMember" target="_top">
<text x="5.62" y="18.75" text-anchor="left" class="element">HasMember</text>
</a>
</g>
<line class="connector" marker-end="url(#arrowEnd)" x1="539.84" y1="271.88" x2="599.84" y2="271.88" />
<text x="543.59" y="268.12" text-anchor="right" class="lhsText">0..1</text>
<line class="connector" marker-end="url(#arrowEnd)" x1="539.84" y1="305.62" x2="599.84" y2="305.62" />
<text x="543.59" y="301.88" text-anchor="right" class="lhsText">0..*</text>
<line class="connector" marker-end="url(#arrowEnd)" x1="539.84" y1="339.38" x2="599.84" y2="339.38" />
<text x="543.59" y="335.62" text-anchor="right" class="lhsText">0..*</text>
<line class="connector" marker-start="url(#arrowStart)" x1="509.84" y1="271.88" x2="539.84" y2="271.88" />
<line class="connector" x1="539.84" y1="271.88" x2="539.84" y2="339.38" />
</g>
<g>
<g transform="translate(599.84 258.75)">
<a href="StructureDefinition-BreastAssessmentCategory.html" target="_top">
<rect class="profile" x="0" y="0" width="226.23" height="26.25" rx="3.75" ry="3.75" />
</a>
<a href="StructureDefinition-BreastAssessmentCategory.html" target="_top">
<text x="5.62" y="18.75" text-anchor="left" class="profile">Breast Assessment Category</text>
</a>
</g>
</g>
<g>
<g transform="translate(599.84 292.5)">
<a href="StructureDefinition-AssociatedFeature.html" target="_top">
<rect class="profile" x="0" y="0" width="154.82" height="26.25" rx="3.75" ry="3.75" />
</a>
<a href="StructureDefinition-AssociatedFeature.html" target="_top">
<text x="5.62" y="18.75" text-anchor="left" class="profile">Associated Feature</text>
</a>
</g>
</g>
<g>
<g transform="translate(599.84 326.25)">
<a href="StructureDefinition-ConsistentWith.html" target="_top">
<rect class="profile" x="0" y="0" width="128.23" height="26.25" rx="3.75" ry="3.75" />
</a>
<a href="StructureDefinition-ConsistentWith.html" target="_top">
<text x="5.62" y="18.75" text-anchor="left" class="profile">Consistent With</text>
</a>
</g>
</g>
<g>
<g transform="translate(3.75 435)">
<rect class="focus" x="0" y="0" width="57.72" height="26.25" rx="3.75" ry="3.75" />
<text x="5.62" y="18.75" text-anchor="left" class="focus">Focus</text>
</g>
<g transform="translate(68.97 435)">
<rect class="profile" x="0" y="0" width="143.81" height="26.25" rx="3.75" ry="3.75" />
<text x="5.62" y="18.75" text-anchor="left" class="profile">Profiled Resource</text>
</g>
<g transform="translate(220.28 435)">
<rect class="element" x="0" y="0" width="148.39" height="26.25" rx="3.75" ry="3.75" />
<text x="5.62" y="18.75" text-anchor="left" class="element">Resource Element</text>
</g>
<g transform="translate(376.16 435)">
<rect class="valueSet" x="0" y="0" width="79.72" height="26.25" rx="3.75" ry="3.75" />
<text x="5.62" y="18.75" text-anchor="left" class="valueSet">ValueSet</text>
</g>
<g transform="translate(463.38 435)">
<rect class="value" x="0" y="0" width="54.98" height="26.25" rx="3.75" ry="3.75" />
<text x="5.62" y="18.75" text-anchor="left" class="value">Value</text>
</g>
</g>
</svg>
