<?xml version="1.0"?>
<?xml-stylesheet type="text/css" href="FocusGraph.css" ?>
<!DOCTYPE svg PUBLIC "-//W3C//DTD SVG 1.1//EN" "http://www.w3.org/Graphics/SVG/1.1/DTD/svg11.dtd">
<svg xmlns="http://www.w3.org/2000/svg" version="1.1" width="885.375" height="146.25">
<defs>
<marker id="arrowStart" markerWidth="3.75" markerHeight="3.75" markerUnits="px" refX="1.875" refY="1.875">
<circle fill="Black" stroke-width="0" cx="1.875" cy="1.875" r="1.875" />
</marker>
<marker id="arrowEnd" markerWidth="7.5" markerHeight="7.5" markerUnits="px" refX="7.5" refY="3.75">
<polygon fill="Black" stroke-width="0" points="0 0 7.5 3.75 0 7.5" />
</marker>
</defs>
<g>
<g transform="translate(7.5 7.5)">
<a href="StructureDefinition-AbnormalityCyst.html" target="_top">
<rect class="profile" fill="White" stroke="Black" stroke-width="1.875" x="0" y="0" width="183" height="33.75" rx="3.75" ry="3.75" />
</a>
<a href="StructureDefinition-AbnormalityCyst.html" target="_top">
<text x="91.5" y="22.5" text-anchor="middle" class="profile">Cyst Abnormality</text>
</a>
</g>
<g transform="translate(7.5 48.75)">
<a href="StructureDefinition-AbnormalityLymphNode.html" target="_top">
<rect class="profile" fill="White" stroke="Black" stroke-width="1.875" x="0" y="0" width="183" height="33.75" rx="3.75" ry="3.75" />
</a>
<a href="StructureDefinition-AbnormalityLymphNode.html" target="_top">
<text x="91.5" y="22.5" text-anchor="middle" class="profile">Cyst Abnormality</text>
</a>
</g>
<g transform="translate(7.5 90)">
<a href="StructureDefinition-AbnormalityMass.html" target="_top">
<rect class="profile" fill="White" stroke="Black" stroke-width="1.875" x="0" y="0" width="183" height="33.75" rx="3.75" ry="3.75" />
</a>
<a href="StructureDefinition-AbnormalityMass.html" target="_top">
<text x="91.5" y="22.5" text-anchor="middle" class="profile">Mass Abnormality</text>
</a>
</g>
<line stroke="Black" stroke-width="1.875" marker-end="url(#arrowEnd)" x1="220.5" y1="24.375" x2="250.50002" y2="24.375" />
<line stroke="Black" stroke-width="1.875" marker-start="url(#arrowStart)" x1="190.5" y1="24.375" x2="220.5" y2="24.375" />
<line stroke="Black" stroke-width="1.875" marker-start="url(#arrowStart)" x1="190.5" y1="65.625" x2="220.5" y2="65.625" />
<line stroke="Black" stroke-width="1.875" marker-start="url(#arrowStart)" x1="190.5" y1="106.875" x2="220.5" y2="106.875" />
<line stroke="Black" stroke-width="1.875" x1="220.5" y1="24.375" x2="220.5" y2="106.875" />
</g>
<g>
<g transform="translate(250.50002 7.5)">
<a href="StructureDefinition-TumorSatellite.html" target="_top">
<rect class="focus" fill="White" stroke="Black" stroke-width="1.875" x="0" y="0" width="162" height="33.75" rx="3.75" ry="3.75" />
</a>
<a href="StructureDefinition-TumorSatellite.html" target="_top">
<text x="81" y="22.5" text-anchor="middle" class="focus">TumorSatellite</text>
</a>
</g>
<line stroke="Black" stroke-width="1.875" marker-end="url(#arrowEnd)" x1="442.5" y1="24.375" x2="502.5" y2="24.375" />
<text x="446.25" y="20.625" text-anchor="right" class="lhsText">0..1</text>
<line stroke="Black" stroke-width="1.875" marker-end="url(#arrowEnd)" x1="442.5" y1="65.625" x2="502.5" y2="65.625" />
<text x="446.25" y="61.875" text-anchor="right" class="lhsText">0..*</text>
<line stroke="Black" stroke-width="1.875" marker-start="url(#arrowStart)" x1="412.5" y1="24.375" x2="442.5" y2="24.375" />
<line stroke="Black" stroke-width="1.875" x1="442.5" y1="24.375" x2="442.5" y2="65.625" />
</g>
<g>
<g transform="translate(502.5 7.5)">
<a href="StructureDefinition-TumorSatellite-definitions.html#Observation.value[x]" target="_top">
<rect class="element" fill="White" stroke="Black" stroke-width="1.875" x="0" y="0" width="67.5" height="33.75" rx="3.75" ry="3.75" />
</a>
<a href="StructureDefinition-TumorSatellite-definitions.html#Observation.value[x]" target="_top">
<text x="33.75" y="22.5" text-anchor="middle" class="element">Value</text>
</a>
</g>
</g>
<g>
<g transform="translate(502.5 48.75)">
<a href="StructureDefinition-TumorSatellite-definitions.html#Observation.derivedFrom" target="_top">
<rect class="element" fill="White" stroke="Black" stroke-width="1.875" x="0" y="0" width="130.5" height="33.75" rx="3.75" ry="3.75" />
</a>
<a href="StructureDefinition-TumorSatellite-definitions.html#Observation.derivedFrom" target="_top">
<text x="65.25" y="22.5" text-anchor="middle" class="element">DerivedFrom</text>
</a>
</g>
<line stroke="Black" stroke-width="1.875" marker-end="url(#arrowEnd)" x1="693" y1="65.625" x2="723" y2="65.625" />
<line stroke="Black" stroke-width="1.875" marker-start="url(#arrowStart)" x1="633" y1="65.625" x2="693" y2="65.625" />
<text x="636.75" y="61.875" text-anchor="left" class="rhsText">0..1</text>
<line stroke="Black" stroke-width="1.875" x1="693" y1="65.625" x2="693" y2="65.625" />
</g>
<g>
<g transform="translate(723 48.75)">
<a href="http://hl7.org/fhir/StructureDefinition/Observation" target="_top">
<rect class="fhir" fill="White" stroke="Black" stroke-width="1.875" x="0" y="0" width="130.5" height="33.75" rx="3.75" ry="3.75" />
</a>
<a href="http://hl7.org/fhir/StructureDefinition/Observation" target="_top">
<text x="65.25" y="22.5" text-anchor="middle" class="fhir">Observation</text>
</a>
</g>
</g>
</svg>
