<?xml version="1.0"?>
<!DOCTYPE svg PUBLIC "-//W3C//DTD SVG 1.1//EN" "http://www.w3.org/Graphics/SVG/1.1/DTD/svg11.dtd">
<svg xmlns="http://www.w3.org/2000/svg" version="1.1" width="1183.4999" height="142.5">
<defs>
<marker id="arrowStart" markerWidth="3.75" markerHeight="3.75" markerUnits="px" refX="1.875" refY="1.875">
<circle fill="Black" stroke-width="0" cx="1.875" cy="1.875" r="1.875" />
</marker>
<marker id="arrowEnd" markerWidth="7.5" markerHeight="7.5" markerUnits="px" refX="7.5" refY="3.75">
<polygon fill="Black" stroke-width="0" points="0 0 7.5 3.75 0 7.5" />
</marker>
</defs>
<g>
<g transform="translate(7.5 7.5)">
<a href="./StructureDefinition-ImageInstanceExtension.html" target="_top">
<rect fill="LightCyan" stroke="Black" stroke-width="1.875" x="0" y="0" width="267" height="33.75" rx="3.75" ry="3.75" />
</a>
<a href="./StructureDefinition-ImageInstanceExtension.html" target="_top">
<text x="133.5" y="22.5" text-anchor="middle">Image Instance Extension</text>
</a>
</g>
<line stroke="Black" stroke-width="1.875" marker-end="url(#arrowEnd)" x1="319.5" y1="24.375" x2="364.5" y2="24.375" />
<text x="323.25" y="20.625" text-anchor="left"></text>
<line stroke="Black" stroke-width="1.875" marker-start="url(#arrowStart)" x1="274.5" y1="24.375" x2="319.5" y2="24.375" />
<text x="278.25" y="20.625" text-anchor="left">0..1</text>
<line stroke="Black" stroke-width="1.875" x1="319.5" y1="24.375" x2="319.5" y2="24.375" />
</g>
<g>
<g transform="translate(364.5 7.5)">
<rect fill="White" stroke="Black" stroke-width="1.875" x="0" y="0" width="246" height="33.75" rx="3.75" ry="3.75" />
<text x="123" y="22.5" text-anchor="middle">Image Region Extension</text>
</g>
<line stroke="Black" stroke-width="1.875" marker-end="url(#arrowEnd)" x1="655.49994" y1="33.75" x2="700.49994" y2="33.75" />
<text x="659.24994" y="30" text-anchor="left">1..1</text>
<line stroke="Black" stroke-width="1.875" marker-end="url(#arrowEnd)" x1="655.49994" y1="93.75" x2="700.49994" y2="93.75" />
<text x="659.24994" y="90" text-anchor="left">1..1</text>
<line stroke="Black" stroke-width="1.875" marker-start="url(#arrowStart)" x1="610.49994" y1="24.375" x2="655.49994" y2="24.375" />
<text x="614.24994" y="20.625" text-anchor="left"></text>
<line stroke="Black" stroke-width="1.875" x1="655.49994" y1="24.375" x2="655.49994" y2="93.75" />
</g>
<g>
<g transform="translate(700.49994 7.5)">
<a href="StructureDefinition-ImageRegionExtension-definitions.html#Extension.extension:regionType" target="_top">
<rect fill="LightYellow" stroke="Black" stroke-width="1.875" x="0" y="0" width="172.5" height="52.5" rx="3.75" ry="3.75" />
</a>
<a href="StructureDefinition-ImageRegionExtension-definitions.html#Extension.extension:regionType" target="_top">
<text x="86.25" y="22.5" text-anchor="middle">RegionType</text>
</a>
<a href="StructureDefinition-ImageRegionExtension-definitions.html#Extension.extension:regionType" target="_top">
<text x="86.25" y="41.25" text-anchor="middle">CodeableConcept</text>
</a>
</g>
<line stroke="Black" stroke-width="1.875" marker-end="url(#arrowEnd)" x1="917.99994" y1="33.75" x2="962.99994" y2="33.75" />
<text x="921.74994" y="30" text-anchor="left"></text>
<line stroke="Black" stroke-width="1.875" marker-start="url(#arrowStart)" x1="872.99994" y1="33.75" x2="917.99994" y2="33.75" />
<text x="876.74994" y="30" text-anchor="left"></text>
<line stroke="Black" stroke-width="1.875" x1="917.99994" y1="33.75" x2="917.99994" y2="33.75" />
</g>
<g>
<g transform="translate(962.99994 7.5)">
<a href="./ValueSet-GraphicTypeVS.html" target="_top">
<rect fill="LightGreen" stroke="Black" stroke-width="1.875" x="0" y="0" width="130.5" height="52.5" rx="3.75" ry="3.75" />
</a>
<a href="./ValueSet-GraphicTypeVS.html" target="_top">
<text x="65.25" y="22.5" text-anchor="middle">GraphicType</text>
</a>
<a href="./ValueSet-GraphicTypeVS.html" target="_top">
<text x="65.25" y="41.25" text-anchor="middle">ValueSet</text>
</a>
</g>
</g>
<g>
<g transform="translate(700.49994 67.5)">
<a href="StructureDefinition-ImageRegionExtension-definitions.html#Extension.extension:coordinates" target="_top">
<rect fill="LightYellow" stroke="Black" stroke-width="1.875" x="0" y="0" width="130.5" height="52.5" rx="3.75" ry="3.75" />
</a>
<a href="StructureDefinition-ImageRegionExtension-definitions.html#Extension.extension:coordinates" target="_top">
<text x="65.25" y="22.5" text-anchor="middle">Coordinates</text>
</a>
<a href="StructureDefinition-ImageRegionExtension-definitions.html#Extension.extension:coordinates" target="_top">
<text x="65.25" y="41.25" text-anchor="middle">string</text>
</a>
</g>
</g>
</svg>
