<?xml version="1.0"?>
<?xml-stylesheet type="text/css" href="FocusGraph.css" ?>
<!DOCTYPE svg PUBLIC "-//W3C//DTD SVG 1.1//EN" "http://www.w3.org/Graphics/SVG/1.1/DTD/svg11.dtd">
<svg xmlns="http://www.w3.org/2000/svg" version="1.1" width="1248.38" height="442.5">
<defs>
<marker id="arrowStart" markerWidth="3.75" markerHeight="3.75" markerUnits="px" refX="1.88" refY="1.88">
<circle class="connector" cx="1.88" cy="1.88" r="1.88" />
</marker>
<marker id="arrowEnd" markerWidth="7.5" markerHeight="7.5" markerUnits="px" refX="7.5" refY="3.75">
<polygon class="connector" points="0 0 7.5 3.75 0 7.5" />
</marker>
</defs>
<g>
<g transform="translate(3.75 3.75)">
<a href="StructureDefinition-MGFinding.html" target="_top">
<rect class="profile" x="0" y="0" width="102.6" height="26.25" rx="3.75" ry="3.75" />
</a>
<a href="StructureDefinition-MGFinding.html" target="_top">
<title />
<text x="5.62" y="18.75" text-anchor="left" class="profile">Mg Findings</text>
</a>
</g>
<line class="connector" marker-end="url(#arrowEnd)" x1="136.35" y1="16.88" x2="196.35" y2="16.88" />
<text x="140.1" y="13.12" text-anchor="right" class="lhsText">0..*</text>
<line class="connector" marker-start="url(#arrowStart)" x1="106.35" y1="16.88" x2="136.35" y2="16.88" />
<line class="connector" x1="136.35" y1="16.88" x2="136.35" y2="16.88" />
</g>
<g>
<g transform="translate(196.35 3.75)">
<a href="StructureDefinition-ArchitecturalDistortionAbnormality.html" target="_top">
<rect class="focus" x="0" y="0" width="178.6" height="26.25" rx="3.75" ry="3.75" />
</a>
<a href="StructureDefinition-ArchitecturalDistortionAbnormality.html" target="_top">
<title />
<text x="5.62" y="18.75" text-anchor="left" class="focus">Architectural Distortion</text>
</a>
</g>
<line class="connector" marker-end="url(#arrowEnd)" x1="404.95" y1="16.88" x2="464.95" y2="16.88" />
<text x="408.7" y="13.12" text-anchor="right" class="lhsText">1..1</text>
<line class="connector" marker-end="url(#arrowEnd)" x1="404.95" y1="50.62" x2="464.95" y2="50.62" />
<text x="408.7" y="46.88" text-anchor="right" class="lhsText">1..1</text>
<line class="connector" marker-end="url(#arrowEnd)" x1="404.95" y1="84.38" x2="464.95" y2="84.38" />
<text x="408.7" y="80.62" text-anchor="right" class="lhsText">0..*</text>
<line class="connector" marker-end="url(#arrowEnd)" x1="404.95" y1="271.88" x2="464.95" y2="271.88" />
<text x="408.7" y="268.12" text-anchor="right" class="lhsText">0..*</text>
<line class="connector" marker-start="url(#arrowStart)" x1="374.95" y1="16.88" x2="404.95" y2="16.88" />
<line class="connector" x1="404.95" y1="16.88" x2="404.95" y2="271.88" />
</g>
<g>
<g transform="translate(464.95 3.75)">
<a href="StructureDefinition-ArchitecturalDistortionAbnormality-definitions.html#Observation.code" target="_top">
<rect class="element" x="0" y="0" width="52.22" height="26.25" rx="3.75" ry="3.75" />
</a>
<a href="StructureDefinition-ArchitecturalDistortionAbnormality-definitions.html#Observation.code" target="_top">
<title />
<text x="5.62" y="18.75" text-anchor="left" class="element">Code</text>
</a>
</g>
<line class="connector" marker-end="url(#arrowEnd)" x1="547.17" y1="16.88" x2="667.17" y2="16.88" />
<text x="550.92" y="13.12" text-anchor="right" class="lhsText">pattern </text>
<line class="connector" marker-start="url(#arrowStart)" x1="517.17" y1="16.88" x2="547.17" y2="16.88" />
<line class="connector" x1="547.17" y1="16.88" x2="547.17" y2="16.88" />
</g>
<g>
<g transform="translate(667.17 3.75)">
<a href="CodeSystem-ObservationCodesCS.html" target="_top">
<rect class="value" x="0" y="0" width="516.59" height="26.25" rx="3.75" ry="3.75" />
</a>
<a href="CodeSystem-ObservationCodesCS.html" target="_top">
<title />
<text x="5.62" y="18.75" text-anchor="left" class="value">ObservationCodesCS#abnormalityArchitecturalDistortionObservation</text>
</a>
</g>
</g>
<g>
<g transform="translate(464.95 37.5)">
<a href="StructureDefinition-ArchitecturalDistortionAbnormality-definitions.html#Observation.bodySite" target="_top">
<rect class="element" x="0" y="0" width="78.79" height="26.25" rx="3.75" ry="3.75" />
</a>
<a href="StructureDefinition-ArchitecturalDistortionAbnormality-definitions.html#Observation.bodySite" target="_top">
<title />
<text x="5.62" y="18.75" text-anchor="left" class="element">BodySite</text>
</a>
</g>
<line class="connector" marker-end="url(#arrowEnd)" x1="573.74" y1="50.62" x2="633.74" y2="50.62" />
<text x="577.49" y="46.88" text-anchor="right" class="lhsText">1..*</text>
<line class="connector" marker-start="url(#arrowStart)" x1="543.74" y1="50.62" x2="573.74" y2="50.62" />
<line class="connector" x1="573.74" y1="50.62" x2="573.74" y2="50.62" />
</g>
<g>
<g transform="translate(633.74 37.5)">
<a href="StructureDefinition-ArchitecturalDistortionAbnormality-definitions.html#Observation.bodySite.extension" target="_top">
<rect class="element" x="0" y="0" width="83.38" height="26.25" rx="3.75" ry="3.75" />
</a>
<a href="StructureDefinition-ArchitecturalDistortionAbnormality-definitions.html#Observation.bodySite.extension" target="_top">
<title />
<text x="5.62" y="18.75" text-anchor="left" class="element">extension</text>
</a>
</g>
<line class="connector" marker-end="url(#arrowEnd)" x1="747.12" y1="50.62" x2="777.12" y2="50.62" />
<line class="connector" marker-start="url(#arrowStart)" x1="717.12" y1="50.62" x2="747.12" y2="50.62" />
<line class="connector" x1="747.12" y1="50.62" x2="747.12" y2="50.62" />
</g>
<g>
<g transform="translate(777.12 37.5)">
<a href="StructureDefinition-BreastBodyLocationExtension.html" target="_top">
<rect class="extension" x="0" y="0" width="160.33" height="26.25" rx="3.75" ry="3.75" />
</a>
<a href="StructureDefinition-BreastBodyLocationExtension.html" target="_top">
<title />
<text x="5.62" y="18.75" text-anchor="left" class="extension">BreastBodyLocation</text>
</a>
</g>
</g>
<g>
<g transform="translate(464.95 71.25)">
<a href="StructureDefinition-ArchitecturalDistortionAbnormality-definitions.html#Observation.component" target="_top">
<rect class="element" x="0" y="0" width="106.26" height="26.25" rx="3.75" ry="3.75" />
</a>
<a href="StructureDefinition-ArchitecturalDistortionAbnormality-definitions.html#Observation.component" target="_top">
<title />
<text x="5.62" y="18.75" text-anchor="left" class="element">Components</text>
</a>
</g>
<line class="connector" marker-end="url(#arrowEnd)" x1="601.21" y1="84.38" x2="661.21" y2="84.38" />
<text x="604.96" y="80.62" text-anchor="right" class="lhsText">0..*</text>
<line class="connector" marker-end="url(#arrowEnd)" x1="601.21" y1="118.12" x2="661.21" y2="118.12" />
<text x="604.96" y="114.38" text-anchor="right" class="lhsText">0..*</text>
<line class="connector" marker-end="url(#arrowEnd)" x1="601.21" y1="151.88" x2="661.21" y2="151.88" />
<text x="604.96" y="148.12" text-anchor="right" class="lhsText">0..*</text>
<line class="connector" marker-end="url(#arrowEnd)" x1="601.21" y1="185.62" x2="661.21" y2="185.62" />
<text x="604.96" y="181.88" text-anchor="right" class="lhsText">0..*</text>
<line class="connector" marker-end="url(#arrowEnd)" x1="601.21" y1="228.75" x2="661.21" y2="228.75" />
<text x="604.96" y="225" text-anchor="right" class="lhsText">0..*</text>
<line class="connector" marker-start="url(#arrowStart)" x1="571.21" y1="84.38" x2="601.21" y2="84.38" />
<line class="connector" x1="601.21" y1="84.38" x2="601.21" y2="228.75" />
</g>
<g>
<g transform="translate(661.21 71.25)">
<a href="StructureDefinition-ArchitecturalDistortionAbnormality-definitions.html#Observation.component:breastAssessmentCategory" target="_top">
<rect class="element" x="0" y="0" width="226.23" height="26.25" rx="3.75" ry="3.75" />
</a>
<a href="StructureDefinition-ArchitecturalDistortionAbnormality-definitions.html#Observation.component:breastAssessmentCategory" target="_top">
<title />
<text x="5.62" y="18.75" text-anchor="left" class="element">Breast Assessment Category</text>
</a>
</g>
<line class="connector" marker-end="url(#arrowEnd)" x1="917.44" y1="84.38" x2="977.44" y2="84.38" />
<text x="921.19" y="80.62" text-anchor="right" class="lhsText">bind</text>
<line class="connector" marker-start="url(#arrowStart)" x1="887.44" y1="84.38" x2="917.44" y2="84.38" />
<line class="connector" x1="917.44" y1="84.38" x2="917.44" y2="84.38" />
</g>
<g>
<g transform="translate(977.44 71.25)">
<a href="ValueSet-BreastAssessmentCategoryVS.html" target="_top">
<rect class="valueSet" x="0" y="0" width="239.06" height="26.25" rx="3.75" ry="3.75" />
</a>
<a href="ValueSet-BreastAssessmentCategoryVS.html" target="_top">
<title />
<text x="5.62" y="18.75" text-anchor="left" class="valueSet">BreastAssessmentCategoryVS</text>
</a>
</g>
</g>
<g>
<g transform="translate(661.21 105)">
<a href="StructureDefinition-ArchitecturalDistortionAbnormality-definitions.html#Observation.component:correspondsWith" target="_top">
<rect class="element" x="0" y="0" width="144.71" height="26.25" rx="3.75" ry="3.75" />
</a>
<a href="StructureDefinition-ArchitecturalDistortionAbnormality-definitions.html#Observation.component:correspondsWith" target="_top">
<title />
<text x="5.62" y="18.75" text-anchor="left" class="element">Corresponds With</text>
</a>
</g>
<line class="connector" marker-end="url(#arrowEnd)" x1="835.92" y1="118.12" x2="895.92" y2="118.12" />
<text x="839.67" y="114.38" text-anchor="right" class="lhsText">bind</text>
<line class="connector" marker-start="url(#arrowStart)" x1="805.92" y1="118.12" x2="835.92" y2="118.12" />
<line class="connector" x1="835.92" y1="118.12" x2="835.92" y2="118.12" />
</g>
<g>
<g transform="translate(895.92 105)">
<a href="ValueSet-CorrespondsWithVS.html" target="_top">
<rect class="valueSet" x="0" y="0" width="162.11" height="26.25" rx="3.75" ry="3.75" />
</a>
<a href="ValueSet-CorrespondsWithVS.html" target="_top">
<title />
<text x="5.62" y="18.75" text-anchor="left" class="valueSet">CorrespondsWithVS</text>
</a>
</g>
</g>
<g>
<g transform="translate(661.21 138.75)">
<a href="StructureDefinition-ArchitecturalDistortionAbnormality-definitions.html#Observation.component:notPreviouslySeen" target="_top">
<rect class="element" x="0" y="0" width="162.14" height="26.25" rx="3.75" ry="3.75" />
</a>
<a href="StructureDefinition-ArchitecturalDistortionAbnormality-definitions.html#Observation.component:notPreviouslySeen" target="_top">
<title />
<text x="5.62" y="18.75" text-anchor="left" class="element">Not Previously Seen</text>
</a>
</g>
<line class="connector" marker-end="url(#arrowEnd)" x1="853.35" y1="151.88" x2="913.35" y2="151.88" />
<text x="857.1" y="148.12" text-anchor="right" class="lhsText">bind</text>
<line class="connector" marker-start="url(#arrowStart)" x1="823.35" y1="151.88" x2="853.35" y2="151.88" />
<line class="connector" x1="853.35" y1="151.88" x2="853.35" y2="151.88" />
</g>
<g>
<g transform="translate(913.35 138.75)">
<a href="ValueSet-NotPreviouslySeenVS.html" target="_top">
<rect class="valueSet" x="0" y="0" width="174.97" height="26.25" rx="3.75" ry="3.75" />
</a>
<a href="ValueSet-NotPreviouslySeenVS.html" target="_top">
<title />
<text x="5.62" y="18.75" text-anchor="left" class="valueSet">NotPreviouslySeenVS</text>
</a>
</g>
</g>
<g>
<g transform="translate(661.21 172.5)">
<a href="StructureDefinition-ArchitecturalDistortionAbnormality-definitions.html#Observation.component:obsChanges" target="_top">
<rect class="element" x="0" y="0" width="154.82" height="26.25" rx="3.75" ry="3.75" />
</a>
<a href="StructureDefinition-ArchitecturalDistortionAbnormality-definitions.html#Observation.component:obsChanges" target="_top">
<title />
<text x="5.62" y="18.75" text-anchor="left" class="element">Observed Changes</text>
</a>
</g>
<line class="connector" marker-end="url(#arrowEnd)" x1="846.03" y1="185.62" x2="906.03" y2="185.62" />
<text x="849.78" y="181.88" text-anchor="right" class="lhsText">bind</text>
<line class="connector" marker-start="url(#arrowStart)" x1="816.03" y1="185.62" x2="846.03" y2="185.62" />
<line class="connector" x1="846.03" y1="185.62" x2="846.03" y2="185.62" />
</g>
<g>
<g transform="translate(906.03 172.5)">
<a href="ValueSet-ObservedChangesVS.html" target="_top">
<rect class="valueSet" x="0" y="0" width="172.22" height="26.25" rx="3.75" ry="3.75" />
</a>
<a href="ValueSet-ObservedChangesVS.html" target="_top">
<title />
<text x="5.62" y="18.75" text-anchor="left" class="valueSet">ObservedChangesVS</text>
</a>
</g>
</g>
<g>
<g transform="translate(661.21 206.25)">
<a href="StructureDefinition-ArchitecturalDistortionAbnormality-definitions.html#Observation.component:prevDemBy" target="_top">
<rect class="element" x="0" y="0" width="138.31" height="45" rx="3.75" ry="3.75" />
</a>
<a href="StructureDefinition-ArchitecturalDistortionAbnormality-definitions.html#Observation.component:prevDemBy" target="_top">
<title />
<text x="5.62" y="18.75" text-anchor="left" class="element">Previously</text>
</a>
<a href="StructureDefinition-ArchitecturalDistortionAbnormality-definitions.html#Observation.component:prevDemBy" target="_top">
<title />
<text x="5.62" y="37.5" text-anchor="left" class="element">Demonstrated by</text>
</a>
</g>
<line class="connector" marker-end="url(#arrowEnd)" x1="829.52" y1="219.38" x2="889.52" y2="219.38" />
<text x="833.27" y="215.62" text-anchor="right" class="lhsText">bind</text>
<line class="connector" marker-start="url(#arrowStart)" x1="799.52" y1="228.75" x2="829.52" y2="228.75" />
<line class="connector" x1="829.52" y1="219.38" x2="829.52" y2="228.75" />
</g>
<g>
<g transform="translate(889.52 206.25)">
<a href="ValueSet-PreviouslyDemonstratedByVS.html" target="_top">
<rect class="valueSet" x="0" y="0" width="233.57" height="26.25" rx="3.75" ry="3.75" />
</a>
<a href="ValueSet-PreviouslyDemonstratedByVS.html" target="_top">
<title />
<text x="5.62" y="18.75" text-anchor="left" class="valueSet">PreviouslyDemonstratedByVS</text>
</a>
</g>
</g>
<g>
<g transform="translate(464.95 258.75)">
<a href="StructureDefinition-ArchitecturalDistortionAbnormality-definitions.html#Observation.hasMember" target="_top">
<rect class="element" x="0" y="0" width="102.57" height="26.25" rx="3.75" ry="3.75" />
</a>
<a href="StructureDefinition-ArchitecturalDistortionAbnormality-definitions.html#Observation.hasMember" target="_top">
<title />
<text x="5.62" y="18.75" text-anchor="left" class="element">HasMember</text>
</a>
</g>
<line class="connector" marker-end="url(#arrowEnd)" x1="597.52" y1="271.88" x2="657.52" y2="271.88" />
<text x="601.27" y="268.12" text-anchor="right" class="lhsText">0..*</text>
<line class="connector" marker-end="url(#arrowEnd)" x1="597.52" y1="305.62" x2="657.52" y2="305.62" />
<text x="601.27" y="301.88" text-anchor="right" class="lhsText">0..*</text>
<line class="connector" marker-start="url(#arrowStart)" x1="567.52" y1="271.88" x2="597.52" y2="271.88" />
<line class="connector" x1="597.52" y1="271.88" x2="597.52" y2="305.62" />
</g>
<g>
<g transform="translate(657.52 258.75)">
<a href="StructureDefinition-AssociatedFeature.html" target="_top">
<rect class="profile" x="0" y="0" width="154.82" height="26.25" rx="3.75" ry="3.75" />
</a>
<a href="StructureDefinition-AssociatedFeature.html" target="_top">
<title />
<text x="5.62" y="18.75" text-anchor="left" class="profile">Associated Feature</text>
</a>
</g>
</g>
<g>
<g transform="translate(657.52 292.5)">
<a href="StructureDefinition-ConsistentWith.html" target="_top">
<rect class="profile" x="0" y="0" width="128.23" height="26.25" rx="3.75" ry="3.75" />
</a>
<a href="StructureDefinition-ConsistentWith.html" target="_top">
<title />
<text x="5.62" y="18.75" text-anchor="left" class="profile">Consistent With</text>
</a>
</g>
</g>
<g>
<g transform="translate(3.75 401.25)">
<a target="_top">
<rect class="focus" x="0" y="0" width="57.72" height="26.25" rx="3.75" ry="3.75" />
</a>
<a target="_top">
<title />
<text x="5.62" y="18.75" text-anchor="left" class="focus">Focus</text>
</a>
</g>
<g transform="translate(68.97 401.25)">
<a target="_top">
<rect class="profile" x="0" y="0" width="143.81" height="26.25" rx="3.75" ry="3.75" />
</a>
<a target="_top">
<title />
<text x="5.62" y="18.75" text-anchor="left" class="profile">Profiled Resource</text>
</a>
</g>
<g transform="translate(220.28 401.25)">
<a target="_top">
<rect class="extension" x="0" y="0" width="85.21" height="26.25" rx="3.75" ry="3.75" />
</a>
<a target="_top">
<title />
<text x="5.62" y="18.75" text-anchor="left" class="extension">Extension</text>
</a>
</g>
<g transform="translate(312.98 401.25)">
<a target="_top">
<rect class="element" x="0" y="0" width="148.39" height="26.25" rx="3.75" ry="3.75" />
</a>
<a target="_top">
<title />
<text x="5.62" y="18.75" text-anchor="left" class="element">Resource Element</text>
</a>
</g>
<g transform="translate(468.87 401.25)">
<a target="_top">
<rect class="valueSet" x="0" y="0" width="79.72" height="26.25" rx="3.75" ry="3.75" />
</a>
<a target="_top">
<title />
<text x="5.62" y="18.75" text-anchor="left" class="valueSet">ValueSet</text>
</a>
</g>
<g transform="translate(556.09 401.25)">
<a target="_top">
<rect class="value" x="0" y="0" width="54.98" height="26.25" rx="3.75" ry="3.75" />
</a>
<a target="_top">
<title />
<text x="5.62" y="18.75" text-anchor="left" class="value">Value</text>
</a>
</g>
</g>
</svg>
