<?xml version="1.0"?>
<?xml-stylesheet type="text/css" href="FocusGraph.css" ?>
<!DOCTYPE svg PUBLIC "-//W3C//DTD SVG 1.1//EN" "http://www.w3.org/Graphics/SVG/1.1/DTD/svg11.dtd">
<svg xmlns="http://www.w3.org/2000/svg" version="1.1" width="1039.55" height="780">
<defs>
<marker id="arrowStart" markerWidth="3.75" markerHeight="3.75" markerUnits="px" refX="1.88" refY="1.88">
<circle class="connector" cx="1.88" cy="1.88" r="1.88" />
</marker>
<marker id="arrowEnd" markerWidth="7.5" markerHeight="7.5" markerUnits="px" refX="7.5" refY="3.75">
<polygon class="connector" points="0 0 7.5 3.75 0 7.5" />
</marker>
</defs>
<g>
<g transform="translate(3.75 3.75)">
<a href="StructureDefinition-MGFinding.html" target="_top">
<rect class="profile" x="0" y="0" width="102.6" height="26.25" rx="3.75" ry="3.75" />
</a>
<a href="StructureDefinition-MGFinding.html" target="_top">
<text x="5.62" y="18.75" text-anchor="left" class="profile">Mg Findings</text>
</a>
</g>
<line class="connector" marker-end="url(#arrowEnd)" x1="136.35" y1="16.88" x2="196.35" y2="16.88" />
<text x="140.1" y="13.12" text-anchor="right" class="lhsText">0..*</text>
<line class="connector" marker-start="url(#arrowStart)" x1="106.35" y1="16.88" x2="136.35" y2="16.88" />
<line class="connector" x1="136.35" y1="16.88" x2="136.35" y2="16.88" />
</g>
<g>
<g transform="translate(196.35 3.75)">
<a href="StructureDefinition-AbnormalityMass.html" target="_top">
<rect class="focus" x="0" y="0" width="52.21" height="26.25" rx="3.75" ry="3.75" />
</a>
<a href="StructureDefinition-AbnormalityMass.html" target="_top">
<text x="5.62" y="18.75" text-anchor="left" class="focus">Mass</text>
</a>
</g>
<line class="connector" marker-end="url(#arrowEnd)" x1="278.56" y1="16.88" x2="338.56" y2="16.88" />
<text x="282.31" y="13.12" text-anchor="right" class="lhsText">1..1</text>
<line class="connector" marker-end="url(#arrowEnd)" x1="278.56" y1="50.62" x2="338.56" y2="50.62" />
<text x="282.31" y="46.88" text-anchor="right" class="lhsText">1..1</text>
<line class="connector" marker-end="url(#arrowEnd)" x1="278.56" y1="84.38" x2="338.56" y2="84.38" />
<text x="282.31" y="80.62" text-anchor="right" class="lhsText">1..*</text>
<line class="connector" marker-end="url(#arrowEnd)" x1="278.56" y1="541.88" x2="338.56" y2="541.88" />
<text x="282.31" y="538.12" text-anchor="right" class="lhsText">0..*</text>
<line class="connector" marker-start="url(#arrowStart)" x1="248.56" y1="16.88" x2="278.56" y2="16.88" />
<line class="connector" x1="278.56" y1="16.88" x2="278.56" y2="541.88" />
</g>
<g>
<g transform="translate(338.56 3.75)">
<a href="StructureDefinition-AbnormalityMass-definitions.html#Observation.code" target="_top">
<rect class="element" x="0" y="0" width="52.22" height="26.25" rx="3.75" ry="3.75" />
</a>
<a href="StructureDefinition-AbnormalityMass-definitions.html#Observation.code" target="_top">
<text x="5.62" y="18.75" text-anchor="left" class="element">Code</text>
</a>
</g>
<line class="connector" marker-end="url(#arrowEnd)" x1="420.78" y1="16.88" x2="540.78" y2="16.88" />
<text x="424.53" y="13.12" text-anchor="right" class="lhsText">pattern </text>
<line class="connector" marker-start="url(#arrowStart)" x1="390.78" y1="16.88" x2="420.78" y2="16.88" />
<line class="connector" x1="420.78" y1="16.88" x2="420.78" y2="16.88" />
</g>
<g>
<g transform="translate(540.78 3.75)">
<a href="CodeSystem-ObservationCodesCS.html" target="_top">
<rect class="value" x="0" y="0" width="394.78" height="26.25" rx="3.75" ry="3.75" />
</a>
<a href="CodeSystem-ObservationCodesCS.html" target="_top">
<text x="5.62" y="18.75" text-anchor="left" class="value">ObservationCodesCS#abnormalityMassObservation</text>
</a>
</g>
</g>
<g>
<g transform="translate(338.56 37.5)">
<a href="StructureDefinition-AbnormalityMass-definitions.html#Observation.bodySite" target="_top">
<rect class="element" x="0" y="0" width="78.79" height="26.25" rx="3.75" ry="3.75" />
</a>
<a href="StructureDefinition-AbnormalityMass-definitions.html#Observation.bodySite" target="_top">
<text x="5.62" y="18.75" text-anchor="left" class="element">BodySite</text>
</a>
</g>
<line class="connector" marker-end="url(#arrowEnd)" x1="447.35" y1="50.62" x2="507.35" y2="50.62" />
<text x="451.1" y="46.88" text-anchor="right" class="lhsText">1..*</text>
<line class="connector" marker-start="url(#arrowStart)" x1="417.35" y1="50.62" x2="447.35" y2="50.62" />
<line class="connector" x1="447.35" y1="50.62" x2="447.35" y2="50.62" />
</g>
<g>
<g transform="translate(507.35 37.5)">
<a href="StructureDefinition-AbnormalityMass-definitions.html#Observation.bodySite.extension" target="_top">
<rect class="element" x="0" y="0" width="83.38" height="26.25" rx="3.75" ry="3.75" />
</a>
<a href="StructureDefinition-AbnormalityMass-definitions.html#Observation.bodySite.extension" target="_top">
<text x="5.62" y="18.75" text-anchor="left" class="element">extension</text>
</a>
</g>
<line class="connector" marker-end="url(#arrowEnd)" x1="620.73" y1="50.62" x2="650.73" y2="50.62" />
<line class="connector" marker-start="url(#arrowStart)" x1="590.73" y1="50.62" x2="620.73" y2="50.62" />
<line class="connector" x1="620.73" y1="50.62" x2="620.73" y2="50.62" />
</g>
<g>
<g transform="translate(650.73 37.5)">
<a href="StructureDefinition-BreastBodyLocationExtension.html" target="_top">
<rect class="extension" x="0" y="0" width="160.33" height="26.25" rx="3.75" ry="3.75" />
</a>
<a href="StructureDefinition-BreastBodyLocationExtension.html" target="_top">
<text x="5.62" y="18.75" text-anchor="left" class="extension">BreastBodyLocation</text>
</a>
</g>
</g>
<g>
<g transform="translate(338.56 71.25)">
<a href="StructureDefinition-AbnormalityMass-definitions.html#Observation.component" target="_top">
<rect class="element" x="0" y="0" width="106.26" height="26.25" rx="3.75" ry="3.75" />
</a>
<a href="StructureDefinition-AbnormalityMass-definitions.html#Observation.component" target="_top">
<text x="5.62" y="18.75" text-anchor="left" class="element">Components</text>
</a>
</g>
<line class="connector" marker-end="url(#arrowEnd)" x1="474.82" y1="84.38" x2="534.82" y2="84.38" />
<text x="478.57" y="80.62" text-anchor="right" class="lhsText">0..*</text>
<line class="connector" marker-end="url(#arrowEnd)" x1="474.82" y1="118.12" x2="534.82" y2="118.12" />
<text x="478.57" y="114.38" text-anchor="right" class="lhsText">0..1</text>
<line class="connector" marker-end="url(#arrowEnd)" x1="474.82" y1="151.88" x2="534.82" y2="151.88" />
<text x="478.57" y="148.12" text-anchor="right" class="lhsText">0..1</text>
<line class="connector" marker-end="url(#arrowEnd)" x1="474.82" y1="185.62" x2="534.82" y2="185.62" />
<text x="478.57" y="181.88" text-anchor="right" class="lhsText">1..1</text>
<line class="connector" marker-end="url(#arrowEnd)" x1="474.82" y1="219.38" x2="534.82" y2="219.38" />
<text x="478.57" y="215.62" text-anchor="right" class="lhsText">0..*</text>
<line class="connector" marker-end="url(#arrowEnd)" x1="474.82" y1="253.12" x2="534.82" y2="253.12" />
<text x="478.57" y="249.38" text-anchor="right" class="lhsText">0..*</text>
<line class="connector" marker-end="url(#arrowEnd)" x1="474.82" y1="286.88" x2="534.82" y2="286.88" />
<text x="478.57" y="283.12" text-anchor="right" class="lhsText">0..1</text>
<line class="connector" marker-end="url(#arrowEnd)" x1="474.82" y1="320.62" x2="534.82" y2="320.62" />
<text x="478.57" y="316.88" text-anchor="right" class="lhsText">0..*</text>
<line class="connector" marker-end="url(#arrowEnd)" x1="474.82" y1="354.38" x2="534.82" y2="354.38" />
<text x="478.57" y="350.62" text-anchor="right" class="lhsText">0..1</text>
<line class="connector" marker-end="url(#arrowEnd)" x1="474.82" y1="388.12" x2="534.82" y2="388.12" />
<text x="478.57" y="384.38" text-anchor="right" class="lhsText">0..3</text>
<line class="connector" marker-end="url(#arrowEnd)" x1="474.82" y1="421.88" x2="534.82" y2="421.88" />
<text x="478.57" y="418.12" text-anchor="right" class="lhsText">0..1</text>
<line class="connector" marker-end="url(#arrowEnd)" x1="474.82" y1="465" x2="534.82" y2="465" />
<text x="478.57" y="461.25" text-anchor="right" class="lhsText">0..*</text>
<line class="connector" marker-end="url(#arrowEnd)" x1="474.82" y1="508.12" x2="534.82" y2="508.12" />
<text x="478.57" y="504.38" text-anchor="right" class="lhsText">0..1</text>
<line class="connector" marker-start="url(#arrowStart)" x1="444.82" y1="84.38" x2="474.82" y2="84.38" />
<line class="connector" x1="474.82" y1="84.38" x2="474.82" y2="508.12" />
</g>
<g>
<g transform="translate(534.82 71.25)">
<a href="StructureDefinition-AbnormalityMass-definitions.html#Observation.component:correspondsWith" target="_top">
<rect class="element" x="0" y="0" width="144.71" height="26.25" rx="3.75" ry="3.75" />
</a>
<a href="StructureDefinition-AbnormalityMass-definitions.html#Observation.component:correspondsWith" target="_top">
<text x="5.62" y="18.75" text-anchor="left" class="element">Corresponds With</text>
</a>
</g>
<line class="connector" marker-end="url(#arrowEnd)" x1="709.53" y1="84.38" x2="769.53" y2="84.38" />
<text x="713.28" y="80.62" text-anchor="right" class="lhsText">bind</text>
<line class="connector" marker-start="url(#arrowStart)" x1="679.53" y1="84.38" x2="709.53" y2="84.38" />
<line class="connector" x1="709.53" y1="84.38" x2="709.53" y2="84.38" />
</g>
<g>
<g transform="translate(769.53 71.25)">
<a href="ValueSet-CorrespondsWithVS.html" target="_top">
<rect class="valueSet" x="0" y="0" width="162.11" height="26.25" rx="3.75" ry="3.75" />
</a>
<a href="ValueSet-CorrespondsWithVS.html" target="_top">
<text x="5.62" y="18.75" text-anchor="left" class="valueSet">CorrespondsWithVS</text>
</a>
</g>
</g>
<g>
<g transform="translate(534.82 105)">
<a href="StructureDefinition-AbnormalityMass-definitions.html#Observation.component:density" target="_top">
<rect class="element" x="0" y="0" width="67.79" height="26.25" rx="3.75" ry="3.75" />
</a>
<a href="StructureDefinition-AbnormalityMass-definitions.html#Observation.component:density" target="_top">
<text x="5.62" y="18.75" text-anchor="left" class="element">Density</text>
</a>
</g>
<line class="connector" marker-end="url(#arrowEnd)" x1="632.61" y1="118.12" x2="692.61" y2="118.12" />
<text x="636.36" y="114.38" text-anchor="right" class="lhsText">bind</text>
<line class="connector" marker-start="url(#arrowStart)" x1="602.61" y1="118.12" x2="632.61" y2="118.12" />
<line class="connector" x1="632.61" y1="118.12" x2="632.61" y2="118.12" />
</g>
<g>
<g transform="translate(692.61 105)">
<a href="ValueSet-LesionRadiographicDensityVS.html" target="_top">
<rect class="valueSet" x="0" y="0" width="235.43" height="26.25" rx="3.75" ry="3.75" />
</a>
<a href="ValueSet-LesionRadiographicDensityVS.html" target="_top">
<text x="5.62" y="18.75" text-anchor="left" class="valueSet">LesionRadiographicDensityVS</text>
</a>
</g>
</g>
<g>
<g transform="translate(534.82 138.75)">
<a href="StructureDefinition-AbnormalityMass-definitions.html#Observation.component:margin" target="_top">
<rect class="element" x="0" y="0" width="63.2" height="26.25" rx="3.75" ry="3.75" />
</a>
<a href="StructureDefinition-AbnormalityMass-definitions.html#Observation.component:margin" target="_top">
<text x="5.62" y="18.75" text-anchor="left" class="element">Margin</text>
</a>
</g>
<line class="connector" marker-end="url(#arrowEnd)" x1="628.02" y1="151.88" x2="688.02" y2="151.88" />
<text x="631.77" y="148.12" text-anchor="right" class="lhsText">bind</text>
<line class="connector" marker-start="url(#arrowStart)" x1="598.02" y1="151.88" x2="628.02" y2="151.88" />
<line class="connector" x1="628.02" y1="151.88" x2="628.02" y2="151.88" />
</g>
<g>
<g transform="translate(688.02 138.75)">
<a href="ValueSet-MarginVS.html" target="_top">
<rect class="valueSet" x="0" y="0" width="85.18" height="26.25" rx="3.75" ry="3.75" />
</a>
<a href="ValueSet-MarginVS.html" target="_top">
<text x="5.62" y="18.75" text-anchor="left" class="valueSet">MarginVS</text>
</a>
</g>
</g>
<g>
<g transform="translate(534.82 172.5)">
<a href="StructureDefinition-AbnormalityMass-definitions.html#Observation.component:massType" target="_top">
<rect class="element" x="0" y="0" width="185.01" height="26.25" rx="3.75" ry="3.75" />
</a>
<a href="StructureDefinition-AbnormalityMass-definitions.html#Observation.component:massType" target="_top">
<text x="5.62" y="18.75" text-anchor="left" class="element">Mass Abnormality Type</text>
</a>
</g>
<line class="connector" marker-end="url(#arrowEnd)" x1="749.83" y1="185.62" x2="809.83" y2="185.62" />
<text x="753.58" y="181.88" text-anchor="right" class="lhsText">bind</text>
<line class="connector" marker-start="url(#arrowStart)" x1="719.83" y1="185.62" x2="749.83" y2="185.62" />
<line class="connector" x1="749.83" y1="185.62" x2="749.83" y2="185.62" />
</g>
<g>
<g transform="translate(809.83 172.5)">
<a href="ValueSet-AbnormalityMassTypeVS.html" target="_top">
<rect class="valueSet" x="0" y="0" width="197.84" height="26.25" rx="3.75" ry="3.75" />
</a>
<a href="ValueSet-AbnormalityMassTypeVS.html" target="_top">
<text x="5.62" y="18.75" text-anchor="left" class="valueSet">AbnormalityMassTypeVS</text>
</a>
</g>
</g>
<g>
<g transform="translate(534.82 206.25)">
<a href="StructureDefinition-AbnormalityMass-definitions.html#Observation.component:notPreviouslySeen" target="_top">
<rect class="element" x="0" y="0" width="162.14" height="26.25" rx="3.75" ry="3.75" />
</a>
<a href="StructureDefinition-AbnormalityMass-definitions.html#Observation.component:notPreviouslySeen" target="_top">
<text x="5.62" y="18.75" text-anchor="left" class="element">Not Previously Seen</text>
</a>
</g>
<line class="connector" marker-end="url(#arrowEnd)" x1="726.96" y1="219.38" x2="786.96" y2="219.38" />
<text x="730.71" y="215.62" text-anchor="right" class="lhsText">bind</text>
<line class="connector" marker-start="url(#arrowStart)" x1="696.96" y1="219.38" x2="726.96" y2="219.38" />
<line class="connector" x1="726.96" y1="219.38" x2="726.96" y2="219.38" />
</g>
<g>
<g transform="translate(786.96 206.25)">
<a href="ValueSet-NotPreviouslySeenVS.html" target="_top">
<rect class="valueSet" x="0" y="0" width="174.97" height="26.25" rx="3.75" ry="3.75" />
</a>
<a href="ValueSet-NotPreviouslySeenVS.html" target="_top">
<text x="5.62" y="18.75" text-anchor="left" class="valueSet">NotPreviouslySeenVS</text>
</a>
</g>
</g>
<g>
<g transform="translate(534.82 240)">
<a href="StructureDefinition-AbnormalityMass-definitions.html#Observation.component:obsChanges" target="_top">
<rect class="element" x="0" y="0" width="154.82" height="26.25" rx="3.75" ry="3.75" />
</a>
<a href="StructureDefinition-AbnormalityMass-definitions.html#Observation.component:obsChanges" target="_top">
<text x="5.62" y="18.75" text-anchor="left" class="element">Observed Changes</text>
</a>
</g>
<line class="connector" marker-end="url(#arrowEnd)" x1="719.64" y1="253.12" x2="779.64" y2="253.12" />
<text x="723.39" y="249.38" text-anchor="right" class="lhsText">bind</text>
<line class="connector" marker-start="url(#arrowStart)" x1="689.64" y1="253.12" x2="719.64" y2="253.12" />
<line class="connector" x1="719.64" y1="253.12" x2="719.64" y2="253.12" />
</g>
<g>
<g transform="translate(779.64 240)">
<a href="ValueSet-ObservedChangesVS.html" target="_top">
<rect class="valueSet" x="0" y="0" width="172.22" height="26.25" rx="3.75" ry="3.75" />
</a>
<a href="ValueSet-ObservedChangesVS.html" target="_top">
<text x="5.62" y="18.75" text-anchor="left" class="valueSet">ObservedChangesVS</text>
</a>
</g>
</g>
<g>
<g transform="translate(534.82 273.75)">
<a href="StructureDefinition-AbnormalityMass-definitions.html#Observation.component:observedCount" target="_top">
<rect class="element" x="0" y="0" width="132.83" height="26.25" rx="3.75" ry="3.75" />
</a>
<a href="StructureDefinition-AbnormalityMass-definitions.html#Observation.component:observedCount" target="_top">
<text x="5.62" y="18.75" text-anchor="left" class="element">Observed Count</text>
</a>
</g>
</g>
<g>
<g transform="translate(534.82 307.5)">
<a href="StructureDefinition-AbnormalityMass-definitions.html#Observation.component:obsDistribution" target="_top">
<rect class="element" x="0" y="0" width="171.29" height="26.25" rx="3.75" ry="3.75" />
</a>
<a href="StructureDefinition-AbnormalityMass-definitions.html#Observation.component:obsDistribution" target="_top">
<text x="5.62" y="18.75" text-anchor="left" class="element">Observed Distribution</text>
</a>
</g>
<line class="connector" marker-end="url(#arrowEnd)" x1="736.11" y1="320.62" x2="796.11" y2="320.62" />
<text x="739.86" y="316.88" text-anchor="right" class="lhsText">bind</text>
<line class="connector" marker-start="url(#arrowStart)" x1="706.11" y1="320.62" x2="736.11" y2="320.62" />
<line class="connector" x1="736.11" y1="320.62" x2="736.11" y2="320.62" />
</g>
<g>
<g transform="translate(796.11 307.5)">
<a href="ValueSet-CalcificationDistributionVS.html" target="_top">
<rect class="valueSet" x="0" y="0" width="206.1" height="26.25" rx="3.75" ry="3.75" />
</a>
<a href="ValueSet-CalcificationDistributionVS.html" target="_top">
<text x="5.62" y="18.75" text-anchor="left" class="valueSet">CalcificationDistributionVS</text>
</a>
</g>
</g>
<g>
<g transform="translate(534.82 341.25)">
<a href="StructureDefinition-AbnormalityMass-definitions.html#Observation.component:obsDistRegionSize" target="_top">
<rect class="element" x="0" y="0" width="264.72" height="26.25" rx="3.75" ry="3.75" />
</a>
<a href="StructureDefinition-AbnormalityMass-definitions.html#Observation.component:obsDistRegionSize" target="_top">
<text x="5.62" y="18.75" text-anchor="left" class="element">Observed Distribution Region Size</text>
</a>
</g>
</g>
<g>
<g transform="translate(534.82 375)">
<a href="StructureDefinition-AbnormalityMass-definitions.html#Observation.component:obsSize" target="_top">
<rect class="element" x="0" y="0" width="120.92" height="26.25" rx="3.75" ry="3.75" />
</a>
<a href="StructureDefinition-AbnormalityMass-definitions.html#Observation.component:obsSize" target="_top">
<text x="5.62" y="18.75" text-anchor="left" class="element">Observed Size</text>
</a>
</g>
</g>
<g>
<g transform="translate(534.82 408.75)">
<a href="StructureDefinition-AbnormalityMass-definitions.html#Observation.component:orientation" target="_top">
<rect class="element" x="0" y="0" width="93.44" height="26.25" rx="3.75" ry="3.75" />
</a>
<a href="StructureDefinition-AbnormalityMass-definitions.html#Observation.component:orientation" target="_top">
<text x="5.62" y="18.75" text-anchor="left" class="element">Orientation</text>
</a>
</g>
<line class="connector" marker-end="url(#arrowEnd)" x1="658.26" y1="421.88" x2="718.26" y2="421.88" />
<text x="662.01" y="418.12" text-anchor="right" class="lhsText">bind</text>
<line class="connector" marker-start="url(#arrowStart)" x1="628.26" y1="421.88" x2="658.26" y2="421.88" />
<line class="connector" x1="658.26" y1="421.88" x2="658.26" y2="421.88" />
</g>
<g>
<g transform="translate(718.26 408.75)">
<a href="ValueSet-OrientationVS.html" target="_top">
<rect class="valueSet" x="0" y="0" width="115.43" height="26.25" rx="3.75" ry="3.75" />
</a>
<a href="ValueSet-OrientationVS.html" target="_top">
<text x="5.62" y="18.75" text-anchor="left" class="valueSet">OrientationVS</text>
</a>
</g>
</g>
<g>
<g transform="translate(534.82 442.5)">
<a href="StructureDefinition-AbnormalityMass-definitions.html#Observation.component:prevDemBy" target="_top">
<rect class="element" x="0" y="0" width="138.31" height="45" rx="3.75" ry="3.75" />
</a>
<a href="StructureDefinition-AbnormalityMass-definitions.html#Observation.component:prevDemBy" target="_top">
<text x="5.62" y="18.75" text-anchor="left" class="element">Previously</text>
</a>
<a href="StructureDefinition-AbnormalityMass-definitions.html#Observation.component:prevDemBy" target="_top">
<text x="5.62" y="37.5" text-anchor="left" class="element">Demonstrated by</text>
</a>
</g>
<line class="connector" marker-end="url(#arrowEnd)" x1="703.13" y1="455.62" x2="763.13" y2="455.62" />
<text x="706.88" y="451.88" text-anchor="right" class="lhsText">bind</text>
<line class="connector" marker-start="url(#arrowStart)" x1="673.13" y1="465" x2="703.13" y2="465" />
<line class="connector" x1="703.13" y1="455.62" x2="703.13" y2="465" />
</g>
<g>
<g transform="translate(763.13 442.5)">
<a href="ValueSet-PreviouslyDemonstratedByVS.html" target="_top">
<rect class="valueSet" x="0" y="0" width="233.57" height="26.25" rx="3.75" ry="3.75" />
</a>
<a href="ValueSet-PreviouslyDemonstratedByVS.html" target="_top">
<text x="5.62" y="18.75" text-anchor="left" class="valueSet">PreviouslyDemonstratedByVS</text>
</a>
</g>
</g>
<g>
<g transform="translate(534.82 495)">
<a href="StructureDefinition-AbnormalityMass-definitions.html#Observation.component:shape" target="_top">
<rect class="element" x="0" y="0" width="60.48" height="26.25" rx="3.75" ry="3.75" />
</a>
<a href="StructureDefinition-AbnormalityMass-definitions.html#Observation.component:shape" target="_top">
<text x="5.62" y="18.75" text-anchor="left" class="element">Shape</text>
</a>
</g>
<line class="connector" marker-end="url(#arrowEnd)" x1="625.3" y1="508.12" x2="685.3" y2="508.12" />
<text x="629.05" y="504.38" text-anchor="right" class="lhsText">bind</text>
<line class="connector" marker-start="url(#arrowStart)" x1="595.3" y1="508.12" x2="625.3" y2="508.12" />
<line class="connector" x1="625.3" y1="508.12" x2="625.3" y2="508.12" />
</g>
<g>
<g transform="translate(685.3 495)">
<a href="ValueSet-ShapeVS.html" target="_top">
<rect class="valueSet" x="0" y="0" width="82.47" height="26.25" rx="3.75" ry="3.75" />
</a>
<a href="ValueSet-ShapeVS.html" target="_top">
<text x="5.62" y="18.75" text-anchor="left" class="valueSet">ShapeVS</text>
</a>
</g>
</g>
<g>
<g transform="translate(338.56 528.75)">
<a href="StructureDefinition-AbnormalityMass-definitions.html#Observation.hasMember" target="_top">
<rect class="element" x="0" y="0" width="102.57" height="26.25" rx="3.75" ry="3.75" />
</a>
<a href="StructureDefinition-AbnormalityMass-definitions.html#Observation.hasMember" target="_top">
<text x="5.62" y="18.75" text-anchor="left" class="element">HasMember</text>
</a>
</g>
<line class="connector" marker-end="url(#arrowEnd)" x1="471.12" y1="541.88" x2="531.12" y2="541.88" />
<text x="474.87" y="538.12" text-anchor="right" class="lhsText">0..1</text>
<line class="connector" marker-end="url(#arrowEnd)" x1="471.12" y1="575.62" x2="531.12" y2="575.62" />
<text x="474.87" y="571.88" text-anchor="right" class="lhsText">0..*</text>
<line class="connector" marker-end="url(#arrowEnd)" x1="471.12" y1="609.38" x2="531.12" y2="609.38" />
<text x="474.87" y="605.62" text-anchor="right" class="lhsText">0..*</text>
<line class="connector" marker-end="url(#arrowEnd)" x1="471.12" y1="643.12" x2="531.12" y2="643.12" />
<text x="474.87" y="639.38" text-anchor="right" class="lhsText">0..1</text>
<line class="connector" marker-start="url(#arrowStart)" x1="441.12" y1="541.88" x2="471.12" y2="541.88" />
<line class="connector" x1="471.12" y1="541.88" x2="471.12" y2="643.12" />
</g>
<g>
<g transform="translate(531.12 528.75)">
<a href="StructureDefinition-BreastAssessmentCategory.html" target="_top">
<rect class="profile" x="0" y="0" width="226.23" height="26.25" rx="3.75" ry="3.75" />
</a>
<a href="StructureDefinition-BreastAssessmentCategory.html" target="_top">
<text x="5.62" y="18.75" text-anchor="left" class="profile">Breast Assessment Category</text>
</a>
</g>
</g>
<g>
<g transform="translate(531.12 562.5)">
<a href="StructureDefinition-AssociatedFeature.html" target="_top">
<rect class="profile" x="0" y="0" width="154.82" height="26.25" rx="3.75" ry="3.75" />
</a>
<a href="StructureDefinition-AssociatedFeature.html" target="_top">
<text x="5.62" y="18.75" text-anchor="left" class="profile">Associated Feature</text>
</a>
</g>
</g>
<g>
<g transform="translate(531.12 596.25)">
<a href="StructureDefinition-ConsistentWith.html" target="_top">
<rect class="profile" x="0" y="0" width="128.23" height="26.25" rx="3.75" ry="3.75" />
</a>
<a href="StructureDefinition-ConsistentWith.html" target="_top">
<text x="5.62" y="18.75" text-anchor="left" class="profile">Consistent With</text>
</a>
</g>
</g>
<g>
<g transform="translate(531.12 630)">
<a href="StructureDefinition-TumorSatellite.html" target="_top">
<rect class="profile" x="0" y="0" width="123.65" height="26.25" rx="3.75" ry="3.75" />
</a>
<a href="StructureDefinition-TumorSatellite.html" target="_top">
<text x="5.62" y="18.75" text-anchor="left" class="profile">Tumor Satellite</text>
</a>
</g>
</g>
<g>
<g transform="translate(3.75 738.75)">
<rect class="focus" x="0" y="0" width="57.72" height="26.25" rx="3.75" ry="3.75" />
<text x="5.62" y="18.75" text-anchor="left" class="focus">Focus</text>
</g>
<g transform="translate(68.97 738.75)">
<rect class="profile" x="0" y="0" width="143.81" height="26.25" rx="3.75" ry="3.75" />
<text x="5.62" y="18.75" text-anchor="left" class="profile">Profiled Resource</text>
</g>
<g transform="translate(220.28 738.75)">
<rect class="extension" x="0" y="0" width="85.21" height="26.25" rx="3.75" ry="3.75" />
<text x="5.62" y="18.75" text-anchor="left" class="extension">Extension</text>
</g>
<g transform="translate(312.98 738.75)">
<rect class="element" x="0" y="0" width="148.39" height="26.25" rx="3.75" ry="3.75" />
<text x="5.62" y="18.75" text-anchor="left" class="element">Resource Element</text>
</g>
<g transform="translate(468.87 738.75)">
<rect class="valueSet" x="0" y="0" width="79.72" height="26.25" rx="3.75" ry="3.75" />
<text x="5.62" y="18.75" text-anchor="left" class="valueSet">ValueSet</text>
</g>
<g transform="translate(556.09 738.75)">
<rect class="value" x="0" y="0" width="54.98" height="26.25" rx="3.75" ry="3.75" />
<text x="5.62" y="18.75" text-anchor="left" class="value">Value</text>
</g>
</g>
</svg>
