<?xml version="1.0"?>
<!DOCTYPE svg PUBLIC "-//W3C//DTD SVG 1.1//EN" "http://www.w3.org/Graphics/SVG/1.1/DTD/svg11.dtd">
<svg xmlns="http://www.w3.org/2000/svg" version="1.1" width="400.5" height="120">
<defs>
<marker id="arrowStart" markerWidth="3.75" markerHeight="3.75" markerUnits="px" refX="1.875" refY="1.875">
<circle fill="Black" stroke-width="0" cx="1.875" cy="1.875" r="1.875" />
</marker>
<marker id="arrowEnd" markerWidth="7.5" markerHeight="7.5" markerUnits="px" refX="7.5" refY="3.75">
<polygon fill="Black" stroke-width="0" points="0 0 7.5 3.75 0 7.5" />
</marker>
</defs>
<g>
<g>
<rect fill="LightBlue" stroke="Black" stroke-width="1.875" x="7.5" y="7.5" width="57" height="52.5" rx="3.75" ry="3.75" />
<a href="./StructureDefinition-BreastRadMRIMass.html" target="_blank">
<title>'BreastRadMRIMass'</title>
<text x="15" y="30">MRI</text>
</a>
<a href="./StructureDefinition-BreastRadMRIMass.html" target="_blank">
<title>'BreastRadMRIMass'</title>
<text x="15" y="48.75">Mass</text>
</a>
</g>
<line stroke="Black" stroke-width="1.875" marker-end="url(#arrowEnd)" x1="94.5" y1="43.125" x2="124.5" y2="43.125" />
<line stroke="Black" stroke-width="1.875" marker-start="url(#arrowStart)" x1="64.5" y1="33.75" x2="94.5" y2="33.75" />
<line stroke="Black" stroke-width="1.875" x1="94.5" y1="33.75" x2="94.5" y2="43.125" />
</g>
<g>
<g>
<rect fill="LightGreen" stroke="Black" stroke-width="1.875" x="124.5" y="7.5" width="78" height="71.25" rx="3.75" ry="3.75" />
<text x="132" y="30">MRI</text>
<text x="132" y="48.75">Mass</text>
<text x="132" y="67.5">Margin</text>
</g>
<line stroke="Black" stroke-width="1.875" marker-end="url(#arrowEnd)" x1="232.5" y1="52.5" x2="262.5" y2="52.5" />
<line stroke="Black" stroke-width="1.875" marker-start="url(#arrowStart)" x1="202.5" y1="43.125" x2="232.5" y2="43.125" />
<line stroke="Black" stroke-width="1.875" x1="232.5" y1="43.125" x2="232.5" y2="52.5" />
</g>
<g>
<g>
<rect fill="LightSalmon" stroke="Black" stroke-width="1.875" x="262.5" y="7.5" width="78" height="90" rx="3.75" ry="3.75" />
<a href="./ValueSet-BreastRadMRIMassMarginVS.html" target="_blank">
<title>'BreastRadMRIMassMarginVS'</title>
<text x="270" y="30">MRI</text>
</a>
<a href="./ValueSet-BreastRadMRIMassMarginVS.html" target="_blank">
<title>'BreastRadMRIMassMarginVS'</title>
<text x="270" y="48.75">Mass</text>
</a>
<a href="./ValueSet-BreastRadMRIMassMarginVS.html" target="_blank">
<title>'BreastRadMRIMassMarginVS'</title>
<text x="270" y="67.5">Margin</text>
</a>
<a href="./ValueSet-BreastRadMRIMassMarginVS.html" target="_blank">
<title>'BreastRadMRIMassMarginVS'</title>
<text x="270" y="86.25">Values</text>
</a>
</g>
</g>
</svg>
