<?xml version="1.0"?>
<?xml-stylesheet type="text/css" href="FocusGraph.css" ?>
<!DOCTYPE svg PUBLIC "-//W3C//DTD SVG 1.1//EN" "http://www.w3.org/Graphics/SVG/1.1/DTD/svg11.dtd">
<svg xmlns="http://www.w3.org/2000/svg" version="1.1" width="1165.01" height="510">
<defs>
<marker id="arrowStart" markerWidth="3.75" markerHeight="3.75" markerUnits="px" refX="1.88" refY="1.88">
<circle class="connector" cx="1.88" cy="1.88" r="1.88" />
</marker>
<marker id="arrowEnd" markerWidth="7.5" markerHeight="7.5" markerUnits="px" refX="7.5" refY="3.75">
<polygon class="connector" points="0 0 7.5 3.75 0 7.5" />
</marker>
</defs>
<g>
<g transform="translate(3.75 3.75)">
<a href="StructureDefinition-MGFinding.html" target="_top">
<rect class="profile" x="0" y="0" width="102.6" height="26.25" rx="3.75" ry="3.75" />
</a>
<a href="StructureDefinition-MGFinding.html" target="_top">
<title />
<text x="5.62" y="18.75" text-anchor="left" class="profile">Mg Findings</text>
</a>
</g>
<line class="connector" marker-end="url(#arrowEnd)" x1="136.35" y1="16.88" x2="196.35" y2="16.88" />
<text x="140.1" y="13.12" text-anchor="right" class="lhsText">0..*</text>
<line class="connector" marker-start="url(#arrowStart)" x1="106.35" y1="16.88" x2="136.35" y2="16.88" />
<line class="connector" x1="136.35" y1="16.88" x2="136.35" y2="16.88" />
</g>
<g>
<g transform="translate(196.35 3.75)">
<a href="StructureDefinition-AsymmetryAbnormality.html" target="_top">
<rect class="focus" x="0" y="0" width="95.23" height="26.25" rx="3.75" ry="3.75" />
</a>
<a href="StructureDefinition-AsymmetryAbnormality.html" target="_top">
<title />
<text x="5.62" y="18.75" text-anchor="left" class="focus">Asymmetry</text>
</a>
</g>
<line class="connector" marker-end="url(#arrowEnd)" x1="321.58" y1="16.88" x2="381.58" y2="16.88" />
<text x="325.33" y="13.12" text-anchor="right" class="lhsText">1..1</text>
<line class="connector" marker-end="url(#arrowEnd)" x1="321.58" y1="50.62" x2="381.58" y2="50.62" />
<text x="325.33" y="46.88" text-anchor="right" class="lhsText">1..1</text>
<line class="connector" marker-end="url(#arrowEnd)" x1="321.58" y1="84.38" x2="381.58" y2="84.38" />
<text x="325.33" y="80.62" text-anchor="right" class="lhsText">1..*</text>
<line class="connector" marker-end="url(#arrowEnd)" x1="321.58" y1="339.38" x2="381.58" y2="339.38" />
<text x="325.33" y="335.62" text-anchor="right" class="lhsText">0..*</text>
<line class="connector" marker-start="url(#arrowStart)" x1="291.58" y1="16.88" x2="321.58" y2="16.88" />
<line class="connector" x1="321.58" y1="16.88" x2="321.58" y2="339.38" />
</g>
<g>
<g transform="translate(381.58 3.75)">
<a href="StructureDefinition-AsymmetryAbnormality-definitions.html#Observation.code" target="_top">
<rect class="element" x="0" y="0" width="52.22" height="26.25" rx="3.75" ry="3.75" />
</a>
<a href="StructureDefinition-AsymmetryAbnormality-definitions.html#Observation.code" target="_top">
<title />
<text x="5.62" y="18.75" text-anchor="left" class="element">Code</text>
</a>
</g>
<line class="connector" marker-end="url(#arrowEnd)" x1="463.8" y1="16.88" x2="583.8" y2="16.88" />
<text x="467.55" y="13.12" text-anchor="right" class="lhsText">pattern </text>
<line class="connector" marker-start="url(#arrowStart)" x1="433.8" y1="16.88" x2="463.8" y2="16.88" />
<line class="connector" x1="463.8" y1="16.88" x2="463.8" y2="16.88" />
</g>
<g>
<g transform="translate(583.8 3.75)">
<a href="CodeSystem-ObservationCodesCS.html" target="_top">
<rect class="value" x="0" y="0" width="437.8" height="26.25" rx="3.75" ry="3.75" />
</a>
<a href="CodeSystem-ObservationCodesCS.html" target="_top">
<title />
<text x="5.62" y="18.75" text-anchor="left" class="value">ObservationCodesCS#abnormalityAsymmetryObservation</text>
</a>
</g>
</g>
<g>
<g transform="translate(381.58 37.5)">
<a href="StructureDefinition-AsymmetryAbnormality-definitions.html#Observation.bodySite" target="_top">
<rect class="element" x="0" y="0" width="78.79" height="26.25" rx="3.75" ry="3.75" />
</a>
<a href="StructureDefinition-AsymmetryAbnormality-definitions.html#Observation.bodySite" target="_top">
<title />
<text x="5.62" y="18.75" text-anchor="left" class="element">BodySite</text>
</a>
</g>
<line class="connector" marker-end="url(#arrowEnd)" x1="490.38" y1="50.62" x2="550.38" y2="50.62" />
<text x="494.12" y="46.88" text-anchor="right" class="lhsText">1..*</text>
<line class="connector" marker-start="url(#arrowStart)" x1="460.37" y1="50.62" x2="490.38" y2="50.62" />
<line class="connector" x1="490.38" y1="50.62" x2="490.38" y2="50.62" />
</g>
<g>
<g transform="translate(550.38 37.5)">
<a href="StructureDefinition-AsymmetryAbnormality-definitions.html#Observation.bodySite.extension" target="_top">
<rect class="element" x="0" y="0" width="83.38" height="26.25" rx="3.75" ry="3.75" />
</a>
<a href="StructureDefinition-AsymmetryAbnormality-definitions.html#Observation.bodySite.extension" target="_top">
<title />
<text x="5.62" y="18.75" text-anchor="left" class="element">extension</text>
</a>
</g>
<line class="connector" marker-end="url(#arrowEnd)" x1="663.76" y1="50.62" x2="693.76" y2="50.62" />
<line class="connector" marker-start="url(#arrowStart)" x1="633.76" y1="50.62" x2="663.76" y2="50.62" />
<line class="connector" x1="663.76" y1="50.62" x2="663.76" y2="50.62" />
</g>
<g>
<g transform="translate(693.76 37.5)">
<a href="StructureDefinition-BreastBodyLocationExtension.html" target="_top">
<rect class="extension" x="0" y="0" width="160.33" height="26.25" rx="3.75" ry="3.75" />
</a>
<a href="StructureDefinition-BreastBodyLocationExtension.html" target="_top">
<title />
<text x="5.62" y="18.75" text-anchor="left" class="extension">BreastBodyLocation</text>
</a>
</g>
</g>
<g>
<g transform="translate(381.58 71.25)">
<a href="StructureDefinition-AsymmetryAbnormality-definitions.html#Observation.component" target="_top">
<rect class="element" x="0" y="0" width="106.26" height="26.25" rx="3.75" ry="3.75" />
</a>
<a href="StructureDefinition-AsymmetryAbnormality-definitions.html#Observation.component" target="_top">
<title />
<text x="5.62" y="18.75" text-anchor="left" class="element">Components</text>
</a>
</g>
<line class="connector" marker-end="url(#arrowEnd)" x1="517.84" y1="84.38" x2="577.84" y2="84.38" />
<text x="521.59" y="80.62" text-anchor="right" class="lhsText">1..1</text>
<line class="connector" marker-end="url(#arrowEnd)" x1="517.84" y1="118.12" x2="577.84" y2="118.12" />
<text x="521.59" y="114.38" text-anchor="right" class="lhsText">0..*</text>
<line class="connector" marker-end="url(#arrowEnd)" x1="517.84" y1="151.88" x2="577.84" y2="151.88" />
<text x="521.59" y="148.12" text-anchor="right" class="lhsText">0..*</text>
<line class="connector" marker-end="url(#arrowEnd)" x1="517.84" y1="185.62" x2="577.84" y2="185.62" />
<text x="521.59" y="181.88" text-anchor="right" class="lhsText">0..*</text>
<line class="connector" marker-end="url(#arrowEnd)" x1="517.84" y1="219.38" x2="577.84" y2="219.38" />
<text x="521.59" y="215.62" text-anchor="right" class="lhsText">0..*</text>
<line class="connector" marker-end="url(#arrowEnd)" x1="517.84" y1="253.12" x2="577.84" y2="253.12" />
<text x="521.59" y="249.38" text-anchor="right" class="lhsText">0..1</text>
<line class="connector" marker-end="url(#arrowEnd)" x1="517.84" y1="296.25" x2="577.84" y2="296.25" />
<text x="521.59" y="292.5" text-anchor="right" class="lhsText">0..*</text>
<line class="connector" marker-start="url(#arrowStart)" x1="487.84" y1="84.38" x2="517.84" y2="84.38" />
<line class="connector" x1="517.84" y1="84.38" x2="517.84" y2="296.25" />
</g>
<g>
<g transform="translate(577.84 71.25)">
<a href="StructureDefinition-AsymmetryAbnormality-definitions.html#Observation.component:asymmetryType" target="_top">
<rect class="element" x="0" y="0" width="136.45" height="26.25" rx="3.75" ry="3.75" />
</a>
<a href="StructureDefinition-AsymmetryAbnormality-definitions.html#Observation.component:asymmetryType" target="_top">
<title />
<text x="5.62" y="18.75" text-anchor="left" class="element">Asymmetry Type</text>
</a>
</g>
<line class="connector" marker-end="url(#arrowEnd)" x1="744.29" y1="84.38" x2="804.29" y2="84.38" />
<text x="748.04" y="80.62" text-anchor="right" class="lhsText">bind</text>
<line class="connector" marker-start="url(#arrowStart)" x1="714.29" y1="84.38" x2="744.29" y2="84.38" />
<line class="connector" x1="744.29" y1="84.38" x2="744.29" y2="84.38" />
</g>
<g>
<g transform="translate(804.29 71.25)">
<a href="ValueSet-AsymmetryAbnormalityTypeVS.html" target="_top">
<rect class="valueSet" x="0" y="0" width="240.86" height="26.25" rx="3.75" ry="3.75" />
</a>
<a href="ValueSet-AsymmetryAbnormalityTypeVS.html" target="_top">
<title />
<text x="5.62" y="18.75" text-anchor="left" class="valueSet">AsymmetryAbnormalityTypeVS</text>
</a>
</g>
</g>
<g>
<g transform="translate(577.84 105)">
<a href="StructureDefinition-AsymmetryAbnormality-definitions.html#Observation.component:breastAssessmentCategory" target="_top">
<rect class="element" x="0" y="0" width="226.23" height="26.25" rx="3.75" ry="3.75" />
</a>
<a href="StructureDefinition-AsymmetryAbnormality-definitions.html#Observation.component:breastAssessmentCategory" target="_top">
<title />
<text x="5.62" y="18.75" text-anchor="left" class="element">Breast Assessment Category</text>
</a>
</g>
<line class="connector" marker-end="url(#arrowEnd)" x1="834.08" y1="118.12" x2="894.08" y2="118.12" />
<text x="837.83" y="114.38" text-anchor="right" class="lhsText">bind</text>
<line class="connector" marker-start="url(#arrowStart)" x1="804.08" y1="118.12" x2="834.08" y2="118.12" />
<line class="connector" x1="834.08" y1="118.12" x2="834.08" y2="118.12" />
</g>
<g>
<g transform="translate(894.08 105)">
<a href="ValueSet-BreastAssessmentCategoryVS.html" target="_top">
<rect class="valueSet" x="0" y="0" width="239.06" height="26.25" rx="3.75" ry="3.75" />
</a>
<a href="ValueSet-BreastAssessmentCategoryVS.html" target="_top">
<title />
<text x="5.62" y="18.75" text-anchor="left" class="valueSet">BreastAssessmentCategoryVS</text>
</a>
</g>
</g>
<g>
<g transform="translate(577.84 138.75)">
<a href="StructureDefinition-AsymmetryAbnormality-definitions.html#Observation.component:correspondsWith" target="_top">
<rect class="element" x="0" y="0" width="144.71" height="26.25" rx="3.75" ry="3.75" />
</a>
<a href="StructureDefinition-AsymmetryAbnormality-definitions.html#Observation.component:correspondsWith" target="_top">
<title />
<text x="5.62" y="18.75" text-anchor="left" class="element">Corresponds With</text>
</a>
</g>
<line class="connector" marker-end="url(#arrowEnd)" x1="752.55" y1="151.88" x2="812.55" y2="151.88" />
<text x="756.3" y="148.12" text-anchor="right" class="lhsText">bind</text>
<line class="connector" marker-start="url(#arrowStart)" x1="722.55" y1="151.88" x2="752.55" y2="151.88" />
<line class="connector" x1="752.55" y1="151.88" x2="752.55" y2="151.88" />
</g>
<g>
<g transform="translate(812.55 138.75)">
<a href="ValueSet-CorrespondsWithVS.html" target="_top">
<rect class="valueSet" x="0" y="0" width="162.11" height="26.25" rx="3.75" ry="3.75" />
</a>
<a href="ValueSet-CorrespondsWithVS.html" target="_top">
<title />
<text x="5.62" y="18.75" text-anchor="left" class="valueSet">CorrespondsWithVS</text>
</a>
</g>
</g>
<g>
<g transform="translate(577.84 172.5)">
<a href="StructureDefinition-AsymmetryAbnormality-definitions.html#Observation.component:notPreviouslySeen" target="_top">
<rect class="element" x="0" y="0" width="162.14" height="26.25" rx="3.75" ry="3.75" />
</a>
<a href="StructureDefinition-AsymmetryAbnormality-definitions.html#Observation.component:notPreviouslySeen" target="_top">
<title />
<text x="5.62" y="18.75" text-anchor="left" class="element">Not Previously Seen</text>
</a>
</g>
<line class="connector" marker-end="url(#arrowEnd)" x1="769.98" y1="185.62" x2="829.98" y2="185.62" />
<text x="773.73" y="181.88" text-anchor="right" class="lhsText">bind</text>
<line class="connector" marker-start="url(#arrowStart)" x1="739.98" y1="185.62" x2="769.98" y2="185.62" />
<line class="connector" x1="769.98" y1="185.62" x2="769.98" y2="185.62" />
</g>
<g>
<g transform="translate(829.98 172.5)">
<a href="ValueSet-NotPreviouslySeenVS.html" target="_top">
<rect class="valueSet" x="0" y="0" width="174.97" height="26.25" rx="3.75" ry="3.75" />
</a>
<a href="ValueSet-NotPreviouslySeenVS.html" target="_top">
<title />
<text x="5.62" y="18.75" text-anchor="left" class="valueSet">NotPreviouslySeenVS</text>
</a>
</g>
</g>
<g>
<g transform="translate(577.84 206.25)">
<a href="StructureDefinition-AsymmetryAbnormality-definitions.html#Observation.component:obsChanges" target="_top">
<rect class="element" x="0" y="0" width="154.82" height="26.25" rx="3.75" ry="3.75" />
</a>
<a href="StructureDefinition-AsymmetryAbnormality-definitions.html#Observation.component:obsChanges" target="_top">
<title />
<text x="5.62" y="18.75" text-anchor="left" class="element">Observed Changes</text>
</a>
</g>
<line class="connector" marker-end="url(#arrowEnd)" x1="762.66" y1="219.38" x2="822.66" y2="219.38" />
<text x="766.41" y="215.62" text-anchor="right" class="lhsText">bind</text>
<line class="connector" marker-start="url(#arrowStart)" x1="732.66" y1="219.38" x2="762.66" y2="219.38" />
<line class="connector" x1="762.66" y1="219.38" x2="762.66" y2="219.38" />
</g>
<g>
<g transform="translate(822.66 206.25)">
<a href="ValueSet-ObservedChangesVS.html" target="_top">
<rect class="valueSet" x="0" y="0" width="172.22" height="26.25" rx="3.75" ry="3.75" />
</a>
<a href="ValueSet-ObservedChangesVS.html" target="_top">
<title />
<text x="5.62" y="18.75" text-anchor="left" class="valueSet">ObservedChangesVS</text>
</a>
</g>
</g>
<g>
<g transform="translate(577.84 240)">
<a href="StructureDefinition-AsymmetryAbnormality-definitions.html#Observation.component:observedCount" target="_top">
<rect class="element" x="0" y="0" width="132.83" height="26.25" rx="3.75" ry="3.75" />
</a>
<a href="StructureDefinition-AsymmetryAbnormality-definitions.html#Observation.component:observedCount" target="_top">
<title />
<text x="5.62" y="18.75" text-anchor="left" class="element">Observed Count</text>
</a>
</g>
</g>
<g>
<g transform="translate(577.84 273.75)">
<a href="StructureDefinition-AsymmetryAbnormality-definitions.html#Observation.component:prevDemBy" target="_top">
<rect class="element" x="0" y="0" width="138.31" height="45" rx="3.75" ry="3.75" />
</a>
<a href="StructureDefinition-AsymmetryAbnormality-definitions.html#Observation.component:prevDemBy" target="_top">
<title />
<text x="5.62" y="18.75" text-anchor="left" class="element">Previously</text>
</a>
<a href="StructureDefinition-AsymmetryAbnormality-definitions.html#Observation.component:prevDemBy" target="_top">
<title />
<text x="5.62" y="37.5" text-anchor="left" class="element">Demonstrated by</text>
</a>
</g>
<line class="connector" marker-end="url(#arrowEnd)" x1="746.15" y1="286.88" x2="806.15" y2="286.88" />
<text x="749.9" y="283.12" text-anchor="right" class="lhsText">bind</text>
<line class="connector" marker-start="url(#arrowStart)" x1="716.15" y1="296.25" x2="746.15" y2="296.25" />
<line class="connector" x1="746.15" y1="286.88" x2="746.15" y2="296.25" />
</g>
<g>
<g transform="translate(806.15 273.75)">
<a href="ValueSet-PreviouslyDemonstratedByVS.html" target="_top">
<rect class="valueSet" x="0" y="0" width="233.57" height="26.25" rx="3.75" ry="3.75" />
</a>
<a href="ValueSet-PreviouslyDemonstratedByVS.html" target="_top">
<title />
<text x="5.62" y="18.75" text-anchor="left" class="valueSet">PreviouslyDemonstratedByVS</text>
</a>
</g>
</g>
<g>
<g transform="translate(381.58 326.25)">
<a href="StructureDefinition-AsymmetryAbnormality-definitions.html#Observation.hasMember" target="_top">
<rect class="element" x="0" y="0" width="102.57" height="26.25" rx="3.75" ry="3.75" />
</a>
<a href="StructureDefinition-AsymmetryAbnormality-definitions.html#Observation.hasMember" target="_top">
<title />
<text x="5.62" y="18.75" text-anchor="left" class="element">HasMember</text>
</a>
</g>
<line class="connector" marker-end="url(#arrowEnd)" x1="514.15" y1="339.38" x2="574.15" y2="339.38" />
<text x="517.9" y="335.62" text-anchor="right" class="lhsText">0..*</text>
<line class="connector" marker-end="url(#arrowEnd)" x1="514.15" y1="373.12" x2="574.15" y2="373.12" />
<text x="517.9" y="369.38" text-anchor="right" class="lhsText">0..*</text>
<line class="connector" marker-start="url(#arrowStart)" x1="484.15" y1="339.38" x2="514.15" y2="339.38" />
<line class="connector" x1="514.15" y1="339.38" x2="514.15" y2="373.12" />
</g>
<g>
<g transform="translate(574.15 326.25)">
<a href="StructureDefinition-AssociatedFeature.html" target="_top">
<rect class="profile" x="0" y="0" width="154.82" height="26.25" rx="3.75" ry="3.75" />
</a>
<a href="StructureDefinition-AssociatedFeature.html" target="_top">
<title />
<text x="5.62" y="18.75" text-anchor="left" class="profile">Associated Feature</text>
</a>
</g>
</g>
<g>
<g transform="translate(574.15 360)">
<a href="StructureDefinition-ConsistentWith.html" target="_top">
<rect class="profile" x="0" y="0" width="128.23" height="26.25" rx="3.75" ry="3.75" />
</a>
<a href="StructureDefinition-ConsistentWith.html" target="_top">
<title />
<text x="5.62" y="18.75" text-anchor="left" class="profile">Consistent With</text>
</a>
</g>
</g>
<g>
<g transform="translate(3.75 468.75)">
<a target="_top">
<rect class="focus" x="0" y="0" width="57.72" height="26.25" rx="3.75" ry="3.75" />
</a>
<a target="_top">
<title />
<text x="5.62" y="18.75" text-anchor="left" class="focus">Focus</text>
</a>
</g>
<g transform="translate(68.97 468.75)">
<a target="_top">
<rect class="profile" x="0" y="0" width="143.81" height="26.25" rx="3.75" ry="3.75" />
</a>
<a target="_top">
<title />
<text x="5.62" y="18.75" text-anchor="left" class="profile">Profiled Resource</text>
</a>
</g>
<g transform="translate(220.28 468.75)">
<a target="_top">
<rect class="extension" x="0" y="0" width="85.21" height="26.25" rx="3.75" ry="3.75" />
</a>
<a target="_top">
<title />
<text x="5.62" y="18.75" text-anchor="left" class="extension">Extension</text>
</a>
</g>
<g transform="translate(312.98 468.75)">
<a target="_top">
<rect class="element" x="0" y="0" width="148.39" height="26.25" rx="3.75" ry="3.75" />
</a>
<a target="_top">
<title />
<text x="5.62" y="18.75" text-anchor="left" class="element">Resource Element</text>
</a>
</g>
<g transform="translate(468.87 468.75)">
<a target="_top">
<rect class="valueSet" x="0" y="0" width="79.72" height="26.25" rx="3.75" ry="3.75" />
</a>
<a target="_top">
<title />
<text x="5.62" y="18.75" text-anchor="left" class="valueSet">ValueSet</text>
</a>
</g>
<g transform="translate(556.09 468.75)">
<a target="_top">
<rect class="value" x="0" y="0" width="54.98" height="26.25" rx="3.75" ry="3.75" />
</a>
<a target="_top">
<title />
<text x="5.62" y="18.75" text-anchor="left" class="value">Value</text>
</a>
</g>
</g>
</svg>
