<?xml version="1.0"?>
<?xml-stylesheet type="text/css" href="FocusGraph.css" ?>
<!DOCTYPE svg PUBLIC "-//W3C//DTD SVG 1.1//EN" "http://www.w3.org/Graphics/SVG/1.1/DTD/svg11.dtd">
<svg xmlns="http://www.w3.org/2000/svg" version="1.1" width="1251.37" height="933.75">
<defs>
<marker id="arrowStart" markerWidth="3.75" markerHeight="3.75" markerUnits="px" refX="1.88" refY="1.88">
<circle class="connector" cx="1.88" cy="1.88" r="1.88" />
</marker>
<marker id="arrowEnd" markerWidth="7.5" markerHeight="7.5" markerUnits="px" refX="7.5" refY="3.75">
<polygon class="connector" points="0 0 7.5 3.75 0 7.5" />
</marker>
</defs>
<g>
<g transform="translate(7.5 7.5)">
<a href="StructureDefinition-MGFinding.html" target="_top">
<rect class="profile" x="0" y="0" width="130.5" height="33.75" rx="3.75" ry="3.75" />
</a>
<a href="StructureDefinition-MGFinding.html" target="_top">
<text x="65.25" y="22.5" text-anchor="middle" class="profile">Mg Findings</text>
</a>
</g>
<line class="connector" marker-end="url(#arrowEnd)" x1="168" y1="24.38" x2="228" y2="24.38" />
<text x="171.75" y="20.62" text-anchor="right" class="lhsText">0..*</text>
<line class="connector" marker-start="url(#arrowStart)" x1="138" y1="24.38" x2="168" y2="24.38" />
<line class="connector" x1="168" y1="24.38" x2="168" y2="24.38" />
</g>
<g>
<g transform="translate(228 7.5)">
<a href="StructureDefinition-AbnormalityCyst.html" target="_top">
<rect class="focus" x="0" y="0" width="57" height="33.75" rx="3.75" ry="3.75" />
</a>
<a href="StructureDefinition-AbnormalityCyst.html" target="_top">
<text x="28.5" y="22.5" text-anchor="middle" class="focus">Cyst</text>
</a>
</g>
<line class="connector" marker-end="url(#arrowEnd)" x1="315" y1="24.38" x2="375" y2="24.38" />
<text x="318.75" y="20.62" text-anchor="right" class="lhsText">1..1</text>
<line class="connector" marker-end="url(#arrowEnd)" x1="315" y1="65.62" x2="375" y2="65.62" />
<text x="318.75" y="61.88" text-anchor="right" class="lhsText">1..1</text>
<line class="connector" marker-end="url(#arrowEnd)" x1="315" y1="106.88" x2="375" y2="106.88" />
<text x="318.75" y="103.12" text-anchor="right" class="lhsText">0..*</text>
<line class="connector" marker-end="url(#arrowEnd)" x1="315" y1="703.12" x2="375" y2="703.12" />
<text x="318.75" y="699.38" text-anchor="right" class="lhsText">0..*</text>
<line class="connector" marker-start="url(#arrowStart)" x1="285" y1="24.38" x2="315" y2="24.38" />
<line class="connector" x1="315" y1="24.38" x2="315" y2="703.12" />
</g>
<g>
<g transform="translate(375 7.5)">
<a href="StructureDefinition-AbnormalityCyst-definitions.html#Observation.code" target="_top">
<rect class="element" x="0" y="0" width="57" height="33.75" rx="3.75" ry="3.75" />
</a>
<a href="StructureDefinition-AbnormalityCyst-definitions.html#Observation.code" target="_top">
<text x="28.5" y="22.5" text-anchor="middle" class="element">Code</text>
</a>
</g>
<line class="connector" marker-end="url(#arrowEnd)" x1="462" y1="24.38" x2="582" y2="24.38" />
<text x="465.75" y="20.62" text-anchor="right" class="lhsText">pattern </text>
<line class="connector" marker-start="url(#arrowStart)" x1="432" y1="24.38" x2="462" y2="24.38" />
<line class="connector" x1="462" y1="24.38" x2="462" y2="24.38" />
</g>
<g>
<g transform="translate(582 7.5)">
<a href="http://hl7.org/fhir/us/breast-radiology/CodeSystem/ObservationCodesCS" target="_top">
<rect class="value" x="0" y="0" width="372" height="33.75" rx="3.75" ry="3.75" />
</a>
<a href="http://hl7.org/fhir/us/breast-radiology/CodeSystem/ObservationCodesCS" target="_top">
<text x="186" y="22.5" text-anchor="middle" class="value">ObservationCodesCS#abnormalityCyst</text>
</a>
</g>
</g>
<g>
<g transform="translate(375 48.75)">
<a href="StructureDefinition-AbnormalityCyst-definitions.html#Observation.bodySite" target="_top">
<rect class="element" x="0" y="0" width="99" height="33.75" rx="3.75" ry="3.75" />
</a>
<a href="StructureDefinition-AbnormalityCyst-definitions.html#Observation.bodySite" target="_top">
<text x="49.5" y="22.5" text-anchor="middle" class="element">BodySite</text>
</a>
</g>
<line class="connector" marker-end="url(#arrowEnd)" x1="504" y1="65.62" x2="564" y2="65.62" />
<text x="507.75" y="61.88" text-anchor="right" class="lhsText">1..*</text>
<line class="connector" marker-start="url(#arrowStart)" x1="474" y1="65.62" x2="504" y2="65.62" />
<line class="connector" x1="504" y1="65.62" x2="504" y2="65.62" />
</g>
<g>
<g transform="translate(564 48.75)">
<a href="StructureDefinition-AbnormalityCyst-definitions.html#Observation.bodySite.extension" target="_top">
<rect class="element" x="0" y="0" width="109.5" height="33.75" rx="3.75" ry="3.75" />
</a>
<a href="StructureDefinition-AbnormalityCyst-definitions.html#Observation.bodySite.extension" target="_top">
<text x="54.75" y="22.5" text-anchor="middle" class="element">extension</text>
</a>
</g>
<line class="connector" marker-end="url(#arrowEnd)" x1="703.5" y1="65.62" x2="733.5" y2="65.62" />
<line class="connector" marker-start="url(#arrowStart)" x1="673.5" y1="65.62" x2="703.5" y2="65.62" />
<line class="connector" x1="703.5" y1="65.62" x2="703.5" y2="65.62" />
</g>
<g>
<g transform="translate(733.5 48.75)">
<a href="StructureDefinition-BreastBodyLocationExtension.html" target="_top">
<rect class="extension" x="0" y="0" width="204" height="33.75" rx="3.75" ry="3.75" />
</a>
<a href="StructureDefinition-BreastBodyLocationExtension.html" target="_top">
<text x="102" y="22.5" text-anchor="middle" class="extension">BreastBodyLocation</text>
</a>
</g>
</g>
<g>
<g transform="translate(375 90)">
<a href="StructureDefinition-AbnormalityCyst-definitions.html#Observation.component" target="_top">
<rect class="element" x="0" y="0" width="120" height="33.75" rx="3.75" ry="3.75" />
</a>
<a href="StructureDefinition-AbnormalityCyst-definitions.html#Observation.component" target="_top">
<text x="60" y="22.5" text-anchor="middle" class="element">Components</text>
</a>
</g>
<line class="connector" marker-end="url(#arrowEnd)" x1="525" y1="106.88" x2="585" y2="106.88" />
<text x="528.75" y="103.12" text-anchor="right" class="lhsText">0..1</text>
<line class="connector" marker-end="url(#arrowEnd)" x1="525" y1="148.12" x2="585" y2="148.12" />
<text x="528.75" y="144.38" text-anchor="right" class="lhsText">0..*</text>
<line class="connector" marker-end="url(#arrowEnd)" x1="525" y1="189.38" x2="585" y2="189.38" />
<text x="528.75" y="185.62" text-anchor="right" class="lhsText">0..1</text>
<line class="connector" marker-end="url(#arrowEnd)" x1="525" y1="230.62" x2="585" y2="230.62" />
<text x="528.75" y="226.88" text-anchor="right" class="lhsText">0..1</text>
<line class="connector" marker-end="url(#arrowEnd)" x1="525" y1="271.88" x2="585" y2="271.88" />
<text x="528.75" y="268.12" text-anchor="right" class="lhsText">0..1</text>
<line class="connector" marker-end="url(#arrowEnd)" x1="525" y1="313.12" x2="585" y2="313.12" />
<text x="528.75" y="309.38" text-anchor="right" class="lhsText">0..*</text>
<line class="connector" marker-end="url(#arrowEnd)" x1="525" y1="354.38" x2="585" y2="354.38" />
<text x="528.75" y="350.62" text-anchor="right" class="lhsText">0..*</text>
<line class="connector" marker-end="url(#arrowEnd)" x1="525" y1="395.62" x2="585" y2="395.62" />
<text x="528.75" y="391.88" text-anchor="right" class="lhsText">0..1</text>
<line class="connector" marker-end="url(#arrowEnd)" x1="525" y1="436.88" x2="585" y2="436.88" />
<text x="528.75" y="433.12" text-anchor="right" class="lhsText">0..*</text>
<line class="connector" marker-end="url(#arrowEnd)" x1="525" y1="478.12" x2="585" y2="478.12" />
<text x="528.75" y="474.38" text-anchor="right" class="lhsText">0..1</text>
<line class="connector" marker-end="url(#arrowEnd)" x1="525" y1="519.38" x2="585" y2="519.38" />
<text x="528.75" y="515.62" text-anchor="right" class="lhsText">0..3</text>
<line class="connector" marker-end="url(#arrowEnd)" x1="525" y1="560.62" x2="585" y2="560.62" />
<text x="528.75" y="556.88" text-anchor="right" class="lhsText">0..1</text>
<line class="connector" marker-end="url(#arrowEnd)" x1="525" y1="611.25" x2="585" y2="611.25" />
<text x="528.75" y="607.5" text-anchor="right" class="lhsText">0..*</text>
<line class="connector" marker-end="url(#arrowEnd)" x1="525" y1="661.88" x2="585" y2="661.88" />
<text x="528.75" y="658.12" text-anchor="right" class="lhsText">0..1</text>
<line class="connector" marker-start="url(#arrowStart)" x1="495" y1="106.88" x2="525" y2="106.88" />
<line class="connector" x1="525" y1="106.88" x2="525" y2="661.88" />
</g>
<g>
<g transform="translate(585 90)">
<a href="StructureDefinition-AbnormalityCyst-definitions.html#Observation.component:biRadsAssessmentCategory" target="_top">
<rect class="element" x="0" y="0" width="130.5" height="33.75" rx="3.75" ry="3.75" />
</a>
<a href="StructureDefinition-AbnormalityCyst-definitions.html#Observation.component:biRadsAssessmentCategory" target="_top">
<text x="65.25" y="22.5" text-anchor="middle" class="element">BiRads Code</text>
</a>
</g>
<line class="connector" marker-end="url(#arrowEnd)" x1="745.5" y1="106.88" x2="805.5" y2="106.88" />
<text x="749.25" y="103.12" text-anchor="right" class="lhsText">bind</text>
<line class="connector" marker-start="url(#arrowStart)" x1="715.5" y1="106.88" x2="745.5" y2="106.88" />
<line class="connector" x1="745.5" y1="106.88" x2="745.5" y2="106.88" />
</g>
<g>
<g transform="translate(805.5 90)">
<a href="ValueSet-BiRadsAssessmentCategoryVS.html" target="_top">
<rect class="valueSet" x="0" y="0" width="288" height="33.75" rx="3.75" ry="3.75" />
</a>
<a href="ValueSet-BiRadsAssessmentCategoryVS.html" target="_top">
<text x="144" y="22.5" text-anchor="middle" class="valueSet">BiRadsAssessmentCategoryVS</text>
</a>
</g>
</g>
<g>
<g transform="translate(585 131.25)">
<a href="StructureDefinition-AbnormalityCyst-definitions.html#Observation.component:correspondsWith" target="_top">
<rect class="element" x="0" y="0" width="183" height="33.75" rx="3.75" ry="3.75" />
</a>
<a href="StructureDefinition-AbnormalityCyst-definitions.html#Observation.component:correspondsWith" target="_top">
<text x="91.5" y="22.5" text-anchor="middle" class="element">Corresponds With</text>
</a>
</g>
<line class="connector" marker-end="url(#arrowEnd)" x1="798" y1="148.12" x2="858" y2="148.12" />
<text x="801.75" y="144.38" text-anchor="right" class="lhsText">bind</text>
<line class="connector" marker-start="url(#arrowStart)" x1="768" y1="148.12" x2="798" y2="148.12" />
<line class="connector" x1="798" y1="148.12" x2="798" y2="148.12" />
</g>
<g>
<g transform="translate(858 131.25)">
<a href="ValueSet-CorrespondsWithVS.html" target="_top">
<rect class="valueSet" x="0" y="0" width="193.5" height="33.75" rx="3.75" ry="3.75" />
</a>
<a href="ValueSet-CorrespondsWithVS.html" target="_top">
<text x="96.75" y="22.5" text-anchor="middle" class="valueSet">CorrespondsWithVS</text>
</a>
</g>
</g>
<g>
<g transform="translate(585 172.5)">
<a href="StructureDefinition-AbnormalityCyst-definitions.html#Observation.component:cystType" target="_top">
<rect class="element" x="0" y="0" width="109.5" height="33.75" rx="3.75" ry="3.75" />
</a>
<a href="StructureDefinition-AbnormalityCyst-definitions.html#Observation.component:cystType" target="_top">
<text x="54.75" y="22.5" text-anchor="middle" class="element">Cyst Type</text>
</a>
</g>
<line class="connector" marker-end="url(#arrowEnd)" x1="724.5" y1="189.38" x2="784.5" y2="189.38" />
<text x="728.25" y="185.62" text-anchor="right" class="lhsText">bind</text>
<line class="connector" marker-start="url(#arrowStart)" x1="694.5" y1="189.38" x2="724.5" y2="189.38" />
<line class="connector" x1="724.5" y1="189.38" x2="724.5" y2="189.38" />
</g>
<g>
<g transform="translate(784.5 172.5)">
<a href="ValueSet-AbnormalityCystTypeVS.html" target="_top">
<rect class="valueSet" x="0" y="0" width="235.5" height="33.75" rx="3.75" ry="3.75" />
</a>
<a href="ValueSet-AbnormalityCystTypeVS.html" target="_top">
<text x="117.75" y="22.5" text-anchor="middle" class="valueSet">AbnormalityCystTypeVS</text>
</a>
</g>
</g>
<g>
<g transform="translate(585 213.75)">
<a href="StructureDefinition-AbnormalityCyst-definitions.html#Observation.component:mgBreastDensity" target="_top">
<rect class="element" x="0" y="0" width="88.5" height="33.75" rx="3.75" ry="3.75" />
</a>
<a href="StructureDefinition-AbnormalityCyst-definitions.html#Observation.component:mgBreastDensity" target="_top">
<text x="44.25" y="22.5" text-anchor="middle" class="element">Density</text>
</a>
</g>
<line class="connector" marker-end="url(#arrowEnd)" x1="703.5" y1="230.62" x2="763.5" y2="230.62" />
<text x="707.25" y="226.88" text-anchor="right" class="lhsText">bind</text>
<line class="connector" marker-start="url(#arrowStart)" x1="673.5" y1="230.62" x2="703.5" y2="230.62" />
<line class="connector" x1="703.5" y1="230.62" x2="703.5" y2="230.62" />
</g>
<g>
<g transform="translate(763.5 213.75)">
<a href="ValueSet-MGBreastDensityVS.html" target="_top">
<rect class="valueSet" x="0" y="0" width="193.5" height="33.75" rx="3.75" ry="3.75" />
</a>
<a href="ValueSet-MGBreastDensityVS.html" target="_top">
<text x="96.75" y="22.5" text-anchor="middle" class="valueSet">MGBreastDensityVS</text>
</a>
</g>
</g>
<g>
<g transform="translate(585 255)">
<a href="StructureDefinition-AbnormalityCyst-definitions.html#Observation.component:margin" target="_top">
<rect class="element" x="0" y="0" width="78" height="33.75" rx="3.75" ry="3.75" />
</a>
<a href="StructureDefinition-AbnormalityCyst-definitions.html#Observation.component:margin" target="_top">
<text x="39" y="22.5" text-anchor="middle" class="element">Margin</text>
</a>
</g>
<line class="connector" marker-end="url(#arrowEnd)" x1="693" y1="271.88" x2="753" y2="271.88" />
<text x="696.75" y="268.12" text-anchor="right" class="lhsText">bind</text>
<line class="connector" marker-start="url(#arrowStart)" x1="663" y1="271.88" x2="693" y2="271.88" />
<line class="connector" x1="693" y1="271.88" x2="693" y2="271.88" />
</g>
<g>
<g transform="translate(753 255)">
<a href="ValueSet-MarginVS.html" target="_top">
<rect class="valueSet" x="0" y="0" width="99" height="33.75" rx="3.75" ry="3.75" />
</a>
<a href="ValueSet-MarginVS.html" target="_top">
<text x="49.5" y="22.5" text-anchor="middle" class="valueSet">MarginVS</text>
</a>
</g>
</g>
<g>
<g transform="translate(585 296.25)">
<a href="StructureDefinition-AbnormalityCyst-definitions.html#Observation.component:notPreviouslySeen" target="_top">
<rect class="element" x="0" y="0" width="214.5" height="33.75" rx="3.75" ry="3.75" />
</a>
<a href="StructureDefinition-AbnormalityCyst-definitions.html#Observation.component:notPreviouslySeen" target="_top">
<text x="107.25" y="22.5" text-anchor="middle" class="element">Not Previously Seen</text>
</a>
</g>
<line class="connector" marker-end="url(#arrowEnd)" x1="829.5" y1="313.12" x2="889.5" y2="313.12" />
<text x="833.25" y="309.38" text-anchor="right" class="lhsText">bind</text>
<line class="connector" marker-start="url(#arrowStart)" x1="799.5" y1="313.12" x2="829.5" y2="313.12" />
<line class="connector" x1="829.5" y1="313.12" x2="829.5" y2="313.12" />
</g>
<g>
<g transform="translate(889.5 296.25)">
<a href="ValueSet-NotPreviouslySeenVS.html" target="_top">
<rect class="valueSet" x="0" y="0" width="214.5" height="33.75" rx="3.75" ry="3.75" />
</a>
<a href="ValueSet-NotPreviouslySeenVS.html" target="_top">
<text x="107.25" y="22.5" text-anchor="middle" class="valueSet">NotPreviouslySeenVS</text>
</a>
</g>
</g>
<g>
<g transform="translate(585 337.5)">
<a href="StructureDefinition-AbnormalityCyst-definitions.html#Observation.component:obsChanges" target="_top">
<rect class="element" x="0" y="0" width="183" height="33.75" rx="3.75" ry="3.75" />
</a>
<a href="StructureDefinition-AbnormalityCyst-definitions.html#Observation.component:obsChanges" target="_top">
<text x="91.5" y="22.5" text-anchor="middle" class="element">Observed Changes</text>
</a>
</g>
<line class="connector" marker-end="url(#arrowEnd)" x1="798" y1="354.38" x2="858" y2="354.38" />
<text x="801.75" y="350.62" text-anchor="right" class="lhsText">bind</text>
<line class="connector" marker-start="url(#arrowStart)" x1="768" y1="354.38" x2="798" y2="354.38" />
<line class="connector" x1="798" y1="354.38" x2="798" y2="354.38" />
</g>
<g>
<g transform="translate(858 337.5)">
<a href="ValueSet-ObservedChangesVS.html" target="_top">
<rect class="valueSet" x="0" y="0" width="193.5" height="33.75" rx="3.75" ry="3.75" />
</a>
<a href="ValueSet-ObservedChangesVS.html" target="_top">
<text x="96.75" y="22.5" text-anchor="middle" class="valueSet">ObservedChangesVS</text>
</a>
</g>
</g>
<g>
<g transform="translate(585 378.75)">
<a href="StructureDefinition-AbnormalityCyst-definitions.html#Observation.component:observedCount" target="_top">
<rect class="element" x="0" y="0" width="162" height="33.75" rx="3.75" ry="3.75" />
</a>
<a href="StructureDefinition-AbnormalityCyst-definitions.html#Observation.component:observedCount" target="_top">
<text x="81" y="22.5" text-anchor="middle" class="element">Observed Count</text>
</a>
</g>
</g>
<g>
<g transform="translate(585 420)">
<a href="StructureDefinition-AbnormalityCyst-definitions.html#Observation.component:obsDistribution" target="_top">
<rect class="element" x="0" y="0" width="235.5" height="33.75" rx="3.75" ry="3.75" />
</a>
<a href="StructureDefinition-AbnormalityCyst-definitions.html#Observation.component:obsDistribution" target="_top">
<text x="117.75" y="22.5" text-anchor="middle" class="element">Observed Distribution</text>
</a>
</g>
<line class="connector" marker-end="url(#arrowEnd)" x1="850.5" y1="436.88" x2="910.5" y2="436.88" />
<text x="854.25" y="433.12" text-anchor="right" class="lhsText">bind</text>
<line class="connector" marker-start="url(#arrowStart)" x1="820.5" y1="436.88" x2="850.5" y2="436.88" />
<line class="connector" x1="850.5" y1="436.88" x2="850.5" y2="436.88" />
</g>
<g>
<g transform="translate(910.5 420)">
<a href="ValueSet-CalcificationDistributionVS.html" target="_top">
<rect class="valueSet" x="0" y="0" width="298.5" height="33.75" rx="3.75" ry="3.75" />
</a>
<a href="ValueSet-CalcificationDistributionVS.html" target="_top">
<text x="149.25" y="22.5" text-anchor="middle" class="valueSet">CalcificationDistributionVS</text>
</a>
</g>
</g>
<g>
<g transform="translate(585 461.25)">
<a href="StructureDefinition-AbnormalityCyst-definitions.html#Observation.component:obsDistRegionSize" target="_top">
<rect class="element" x="0" y="0" width="361.5" height="33.75" rx="3.75" ry="3.75" />
</a>
<a href="StructureDefinition-AbnormalityCyst-definitions.html#Observation.component:obsDistRegionSize" target="_top">
<text x="180.75" y="22.5" text-anchor="middle" class="element">Observed Distribution Region Size</text>
</a>
</g>
</g>
<g>
<g transform="translate(585 502.5)">
<a href="StructureDefinition-AbnormalityCyst-definitions.html#Observation.component:obsSize" target="_top">
<rect class="element" x="0" y="0" width="151.5" height="33.75" rx="3.75" ry="3.75" />
</a>
<a href="StructureDefinition-AbnormalityCyst-definitions.html#Observation.component:obsSize" target="_top">
<text x="75.75" y="22.5" text-anchor="middle" class="element">Observed Size</text>
</a>
</g>
</g>
<g>
<g transform="translate(585 543.75)">
<a href="StructureDefinition-AbnormalityCyst-definitions.html#Observation.component:orientation" target="_top">
<rect class="element" x="0" y="0" width="130.5" height="33.75" rx="3.75" ry="3.75" />
</a>
<a href="StructureDefinition-AbnormalityCyst-definitions.html#Observation.component:orientation" target="_top">
<text x="65.25" y="22.5" text-anchor="middle" class="element">Orientation</text>
</a>
</g>
<line class="connector" marker-end="url(#arrowEnd)" x1="745.5" y1="560.62" x2="805.5" y2="560.62" />
<text x="749.25" y="556.88" text-anchor="right" class="lhsText">bind</text>
<line class="connector" marker-start="url(#arrowStart)" x1="715.5" y1="560.62" x2="745.5" y2="560.62" />
<line class="connector" x1="745.5" y1="560.62" x2="745.5" y2="560.62" />
</g>
<g>
<g transform="translate(805.5 543.75)">
<a href="ValueSet-OrientationVS.html" target="_top">
<rect class="valueSet" x="0" y="0" width="151.5" height="33.75" rx="3.75" ry="3.75" />
</a>
<a href="ValueSet-OrientationVS.html" target="_top">
<text x="75.75" y="22.5" text-anchor="middle" class="valueSet">OrientationVS</text>
</a>
</g>
</g>
<g>
<g transform="translate(585 585)">
<a href="StructureDefinition-AbnormalityCyst-definitions.html#Observation.component:prevDemBy" target="_top">
<rect class="element" x="0" y="0" width="256.5" height="52.5" rx="3.75" ry="3.75" />
</a>
<a href="StructureDefinition-AbnormalityCyst-definitions.html#Observation.component:prevDemBy" target="_top">
<text x="128.25" y="22.5" text-anchor="middle" class="element">Previously</text>
</a>
<a href="StructureDefinition-AbnormalityCyst-definitions.html#Observation.component:prevDemBy" target="_top">
<text x="128.25" y="41.25" text-anchor="middle" class="element">Demonstrated by Changes</text>
</a>
</g>
<line class="connector" marker-end="url(#arrowEnd)" x1="871.5" y1="601.88" x2="931.5" y2="601.88" />
<text x="875.25" y="598.12" text-anchor="right" class="lhsText">bind</text>
<line class="connector" marker-start="url(#arrowStart)" x1="841.5" y1="611.25" x2="871.5" y2="611.25" />
<line class="connector" x1="871.5" y1="601.88" x2="871.5" y2="611.25" />
</g>
<g>
<g transform="translate(931.5 585)">
<a href="ValueSet-PreviouslyDemonstratedByVS.html" target="_top">
<rect class="valueSet" x="0" y="0" width="288" height="33.75" rx="3.75" ry="3.75" />
</a>
<a href="ValueSet-PreviouslyDemonstratedByVS.html" target="_top">
<text x="144" y="22.5" text-anchor="middle" class="valueSet">PreviouslyDemonstratedByVS</text>
</a>
</g>
</g>
<g>
<g transform="translate(585 645)">
<a href="StructureDefinition-AbnormalityCyst-definitions.html#Observation.component:shape" target="_top">
<rect class="element" x="0" y="0" width="67.5" height="33.75" rx="3.75" ry="3.75" />
</a>
<a href="StructureDefinition-AbnormalityCyst-definitions.html#Observation.component:shape" target="_top">
<text x="33.75" y="22.5" text-anchor="middle" class="element">Shape</text>
</a>
</g>
<line class="connector" marker-end="url(#arrowEnd)" x1="682.5" y1="661.88" x2="742.5" y2="661.88" />
<text x="686.25" y="658.12" text-anchor="right" class="lhsText">bind</text>
<line class="connector" marker-start="url(#arrowStart)" x1="652.5" y1="661.88" x2="682.5" y2="661.88" />
<line class="connector" x1="682.5" y1="661.88" x2="682.5" y2="661.88" />
</g>
<g>
<g transform="translate(742.5 645)">
<a href="ValueSet-ShapeVS.html" target="_top">
<rect class="valueSet" x="0" y="0" width="88.5" height="33.75" rx="3.75" ry="3.75" />
</a>
<a href="ValueSet-ShapeVS.html" target="_top">
<text x="44.25" y="22.5" text-anchor="middle" class="valueSet">ShapeVS</text>
</a>
</g>
</g>
<g>
<g transform="translate(375 686.25)">
<a href="StructureDefinition-AbnormalityCyst-definitions.html#Observation.hasMember" target="_top">
<rect class="element" x="0" y="0" width="109.5" height="33.75" rx="3.75" ry="3.75" />
</a>
<a href="StructureDefinition-AbnormalityCyst-definitions.html#Observation.hasMember" target="_top">
<text x="54.75" y="22.5" text-anchor="middle" class="element">HasMember</text>
</a>
</g>
<line class="connector" marker-end="url(#arrowEnd)" x1="514.5" y1="703.12" x2="574.5" y2="703.12" />
<text x="518.25" y="699.38" text-anchor="right" class="lhsText">0..*</text>
<line class="connector" marker-end="url(#arrowEnd)" x1="514.5" y1="744.38" x2="574.5" y2="744.38" />
<text x="518.25" y="740.62" text-anchor="right" class="lhsText">0..*</text>
<line class="connector" marker-end="url(#arrowEnd)" x1="514.5" y1="785.62" x2="574.5" y2="785.62" />
<text x="518.25" y="781.88" text-anchor="right" class="lhsText">0..1</text>
<line class="connector" marker-start="url(#arrowStart)" x1="484.5" y1="703.12" x2="514.5" y2="703.12" />
<line class="connector" x1="514.5" y1="703.12" x2="514.5" y2="785.62" />
</g>
<g>
<g transform="translate(574.5 686.25)">
<a href="StructureDefinition-AssociatedFeature.html" target="_top">
<rect class="profile" x="0" y="0" width="204" height="33.75" rx="3.75" ry="3.75" />
</a>
<a href="StructureDefinition-AssociatedFeature.html" target="_top">
<text x="102" y="22.5" text-anchor="middle" class="profile">Associated Feature</text>
</a>
</g>
</g>
<g>
<g transform="translate(574.5 727.5)">
<a href="StructureDefinition-ConsistentWith.html" target="_top">
<rect class="profile" x="0" y="0" width="172.5" height="33.75" rx="3.75" ry="3.75" />
</a>
<a href="StructureDefinition-ConsistentWith.html" target="_top">
<text x="86.25" y="22.5" text-anchor="middle" class="profile">Consistent With</text>
</a>
</g>
</g>
<g>
<g transform="translate(574.5 768.75)">
<a href="StructureDefinition-TumorSatellite.html" target="_top">
<rect class="profile" x="0" y="0" width="172.5" height="33.75" rx="3.75" ry="3.75" />
</a>
<a href="StructureDefinition-TumorSatellite.html" target="_top">
<text x="86.25" y="22.5" text-anchor="middle" class="profile">Tumor Satellite</text>
</a>
</g>
</g>
<g>
<g transform="translate(7.5 885)">
<rect class="focus" x="0" y="0" width="67.5" height="33.75" rx="3.75" ry="3.75" />
<text x="33.75" y="22.5" text-anchor="middle" class="focus">Focus</text>
</g>
<g transform="translate(82.5 885)">
<rect class="profile" x="0" y="0" width="193.5" height="33.75" rx="3.75" ry="3.75" />
<text x="96.75" y="22.5" text-anchor="middle" class="profile">Profiled Resource</text>
</g>
<g transform="translate(283.5 885)">
<rect class="extension" x="0" y="0" width="109.5" height="33.75" rx="3.75" ry="3.75" />
<text x="54.75" y="22.5" text-anchor="middle" class="extension">Extension</text>
</g>
<g transform="translate(400.5 885)">
<rect class="element" x="0" y="0" width="183" height="33.75" rx="3.75" ry="3.75" />
<text x="91.5" y="22.5" text-anchor="middle" class="element">Resource Element</text>
</g>
<g transform="translate(591 885)">
<rect class="valueSet" x="0" y="0" width="99" height="33.75" rx="3.75" ry="3.75" />
<text x="49.5" y="22.5" text-anchor="middle" class="valueSet">ValueSet</text>
</g>
<g transform="translate(697.5 885)">
<rect class="value" x="0" y="0" width="67.5" height="33.75" rx="3.75" ry="3.75" />
<text x="33.75" y="22.5" text-anchor="middle" class="value">Value</text>
</g>
</g>
</svg>
