<?xml version="1.0"?>
<!DOCTYPE svg PUBLIC "-//W3C//DTD SVG 1.1//EN" "http://www.w3.org/Graphics/SVG/1.1/DTD/svg11.dtd">
<svg xmlns="http://www.w3.org/2000/svg" version="1.1" width="658.49994" height="348.75">
<defs>
<marker id="arrowStart" markerWidth="3.75" markerHeight="3.75" markerUnits="px" refX="1.875" refY="1.875">
<circle fill="Black" stroke-width="0" cx="1.875" cy="1.875" r="1.875" />
</marker>
<marker id="arrowEnd" markerWidth="7.5" markerHeight="7.5" markerUnits="px" refX="7.5" refY="3.75">
<polygon fill="Black" stroke-width="0" points="0 0 7.5 3.75 0 7.5" />
</marker>
</defs>
<g />
<g>
<g>
<rect fill="LightGreen" stroke="Black" stroke-width="1.875" x="67.5" y="7.5" width="287.99997" height="33.75" rx="3.75" ry="3.75" />
<text x="75" y="30">Foreign Object Abnormality</text>
</g>
<line stroke="Black" stroke-width="1.875" marker-end="url(#arrowEnd)" x1="385.49997" y1="43.125" x2="415.49997" y2="43.125" />
<line stroke="Black" stroke-width="1.875" marker-end="url(#arrowEnd)" x1="385.49997" y1="103.125" x2="415.49997" y2="103.125" />
<line stroke="Black" stroke-width="1.875" marker-end="url(#arrowEnd)" x1="385.49997" y1="144.375" x2="415.49997" y2="144.375" />
<line stroke="Black" stroke-width="1.875" marker-end="url(#arrowEnd)" x1="385.49997" y1="185.625" x2="415.49997" y2="185.625" />
<line stroke="Black" stroke-width="1.875" marker-end="url(#arrowEnd)" x1="385.49997" y1="226.875" x2="415.49997" y2="226.875" />
<line stroke="Black" stroke-width="1.875" marker-end="url(#arrowEnd)" x1="385.49997" y1="268.125" x2="415.49997" y2="268.125" />
<line stroke="Black" stroke-width="1.875" marker-end="url(#arrowEnd)" x1="385.49997" y1="309.375" x2="415.49997" y2="309.375" />
<line stroke="Black" stroke-width="1.875" marker-start="url(#arrowStart)" x1="355.49997" y1="24.375" x2="385.49997" y2="24.375" />
<line stroke="Black" stroke-width="1.875" x1="385.49997" y1="24.375" x2="385.49997" y2="309.375" />
</g>
<g>
<g>
<rect fill="LightSalmon" stroke="Black" stroke-width="1.875" x="415.49997" y="7.5" width="99" height="71.25" rx="3.75" ry="3.75" />
<a href="./ValueSet-CommonAbnormalitiesVS.html" target="_blank">
<title>'CommonAbnormalitiesVS'</title>
<text x="422.99997" y="30">Foreign</text>
</a>
<a href="./ValueSet-CommonAbnormalitiesVS.html" target="_blank">
<title>'CommonAbnormalitiesVS'</title>
<text x="422.99997" y="48.75">Object</text>
</a>
<a href="./ValueSet-CommonAbnormalitiesVS.html" target="_blank">
<title>'CommonAbnormalitiesVS'</title>
<text x="422.99997" y="67.5">ValueSet</text>
</a>
</g>
<g>
<rect fill="LightSalmon" stroke="Black" stroke-width="1.875" x="415.49997" y="86.25" width="130.5" height="33.75" rx="3.75" ry="3.75" />
<a href="./StructureDefinition-BiRadsAssessmentCategory.html" target="_blank">
<title>'BiRadsAssessmentCategory'</title>
<text x="422.99997" y="108.75">BiRads Code</text>
</a>
</g>
<g>
<rect fill="LightSalmon" stroke="Black" stroke-width="1.875" x="415.49997" y="127.5" width="67.5" height="33.75" rx="3.75" ry="3.75" />
<a href="./StructureDefinition-CommonCount.html" target="_blank">
<title>'CommonCount'</title>
<text x="422.99997" y="150">Count</text>
</a>
</g>
<g>
<rect fill="LightSalmon" stroke="Black" stroke-width="1.875" x="415.49997" y="168.75" width="88.5" height="33.75" rx="3.75" ry="3.75" />
<a href="./StructureDefinition-CommonObservedChanges.html" target="_blank">
<title>'CommonObservedChanges'</title>
<text x="422.99997" y="191.25">Changes</text>
</a>
</g>
<g>
<rect fill="LightSalmon" stroke="Black" stroke-width="1.875" x="415.49997" y="210" width="57" height="33.75" rx="3.75" ry="3.75" />
<a href="./StructureDefinition-CommonSize.html" target="_blank">
<title>'CommonSize'</title>
<text x="422.99997" y="232.5">Size</text>
</a>
</g>
<g>
<rect fill="LightSalmon" stroke="Black" stroke-width="1.875" x="415.49997" y="251.25" width="130.5" height="33.75" rx="3.75" ry="3.75" />
<a href="./StructureDefinition-CommonOrientation.html" target="_blank">
<title>'CommonOrientation'</title>
<text x="422.99997" y="273.75">Orientation</text>
</a>
</g>
<g>
<rect fill="LightSalmon" stroke="Black" stroke-width="1.875" x="415.49997" y="292.5" width="183" height="33.75" rx="3.75" ry="3.75" />
<a href="./StructureDefinition-BreastBodyLocationExtension.html" target="_blank">
<title>'BreastBodyLocationExtension'</title>
<text x="422.99997" y="315">Breast Body Loc.</text>
</a>
</g>
</g>
</svg>
