<?xml version="1.0"?>
<?xml-stylesheet type="text/css" href="FocusGraph.css" ?>
<!DOCTYPE svg PUBLIC "-//W3C//DTD SVG 1.1//EN" "http://www.w3.org/Graphics/SVG/1.1/DTD/svg11.dtd">
<svg xmlns="http://www.w3.org/2000/svg" version="1.1" width="1165.31" height="525">
<defs>
<marker id="arrowStart" markerWidth="3.75" markerHeight="3.75" markerUnits="px" refX="1.88" refY="1.88">
<circle class="connector" cx="1.88" cy="1.88" r="1.88" />
</marker>
<marker id="arrowEnd" markerWidth="7.5" markerHeight="7.5" markerUnits="px" refX="7.5" refY="3.75">
<polygon class="connector" points="0 0 7.5 3.75 0 7.5" />
</marker>
</defs>
<g>
<g transform="translate(3.75 3.75)">
<a href="StructureDefinition-AbnormalityArchitecturalDistortion.html" target="_top">
<rect class="profile" x="0" y="0" width="178.6" height="26.25" rx="3.75" ry="3.75" />
</a>
<a href="StructureDefinition-AbnormalityArchitecturalDistortion.html" target="_top">
<text x="5.62" y="18.75" text-anchor="left" class="profile">Architectural Distortion</text>
</a>
</g>
<g transform="translate(3.75 37.5)">
<a href="StructureDefinition-AbnormalityAsymmetry.html" target="_top">
<rect class="profile" x="0" y="0" width="95.23" height="26.25" rx="3.75" ry="3.75" />
</a>
<a href="StructureDefinition-AbnormalityAsymmetry.html" target="_top">
<text x="5.62" y="18.75" text-anchor="left" class="profile">Asymmetry</text>
</a>
</g>
<g transform="translate(3.75 71.25)">
<a href="StructureDefinition-MGFinding.html" target="_top">
<rect class="profile" x="0" y="0" width="102.6" height="26.25" rx="3.75" ry="3.75" />
</a>
<a href="StructureDefinition-MGFinding.html" target="_top">
<text x="5.62" y="18.75" text-anchor="left" class="profile">Mg Findings</text>
</a>
</g>
<g transform="translate(3.75 105)">
<a href="StructureDefinition-AbnormalityCalcification.html" target="_top">
<rect class="profile" x="0" y="0" width="101.68" height="26.25" rx="3.75" ry="3.75" />
</a>
<a href="StructureDefinition-AbnormalityCalcification.html" target="_top">
<text x="5.62" y="18.75" text-anchor="left" class="profile">Calcification</text>
</a>
</g>
<g transform="translate(3.75 138.75)">
<a href="StructureDefinition-AbnormalityCyst.html" target="_top">
<rect class="profile" x="0" y="0" width="45.79" height="26.25" rx="3.75" ry="3.75" />
</a>
<a href="StructureDefinition-AbnormalityCyst.html" target="_top">
<text x="5.62" y="18.75" text-anchor="left" class="profile">Cyst</text>
</a>
</g>
<g transform="translate(3.75 172.5)">
<a href="StructureDefinition-AbnormalityDensity.html" target="_top">
<rect class="profile" x="0" y="0" width="67.79" height="26.25" rx="3.75" ry="3.75" />
</a>
<a href="StructureDefinition-AbnormalityDensity.html" target="_top">
<text x="5.62" y="18.75" text-anchor="left" class="profile">Density</text>
</a>
</g>
<g transform="translate(3.75 206.25)">
<a href="StructureDefinition-AbnormalityFatNecrosis.html" target="_top">
<rect class="profile" x="0" y="0" width="105.33" height="26.25" rx="3.75" ry="3.75" />
</a>
<a href="StructureDefinition-AbnormalityFatNecrosis.html" target="_top">
<text x="5.62" y="18.75" text-anchor="left" class="profile">Fat Necrosis</text>
</a>
</g>
<g transform="translate(3.75 240)">
<a href="StructureDefinition-AbnormalityFibroadenoma.html" target="_top">
<rect class="profile" x="0" y="0" width="119.09" height="26.25" rx="3.75" ry="3.75" />
</a>
<a href="StructureDefinition-AbnormalityFibroadenoma.html" target="_top">
<text x="5.62" y="18.75" text-anchor="left" class="profile">Fibroadenoma</text>
</a>
</g>
<g transform="translate(3.75 273.75)">
<a href="StructureDefinition-AbnormalityForeignObject.html" target="_top">
<rect class="profile" x="0" y="0" width="120.92" height="26.25" rx="3.75" ry="3.75" />
</a>
<a href="StructureDefinition-AbnormalityForeignObject.html" target="_top">
<text x="5.62" y="18.75" text-anchor="left" class="profile">Foreign Object</text>
</a>
</g>
<g transform="translate(3.75 307.5)">
<a href="StructureDefinition-AbnormalityLymphNode.html" target="_top">
<rect class="profile" x="0" y="0" width="106.26" height="26.25" rx="3.75" ry="3.75" />
</a>
<a href="StructureDefinition-AbnormalityLymphNode.html" target="_top">
<text x="5.62" y="18.75" text-anchor="left" class="profile">Lymph Node</text>
</a>
</g>
<g transform="translate(3.75 341.25)">
<a href="StructureDefinition-AbnormalityMass.html" target="_top">
<rect class="profile" x="0" y="0" width="52.21" height="26.25" rx="3.75" ry="3.75" />
</a>
<a href="StructureDefinition-AbnormalityMass.html" target="_top">
<text x="5.62" y="18.75" text-anchor="left" class="profile">Mass</text>
</a>
</g>
<g transform="translate(3.75 375)">
<a href="StructureDefinition-AbnormalitySkinLesion.html" target="_top">
<rect class="profile" x="0" y="0" width="98.04" height="26.25" rx="3.75" ry="3.75" />
</a>
<a href="StructureDefinition-AbnormalitySkinLesion.html" target="_top">
<text x="5.62" y="18.75" text-anchor="left" class="profile">Skin Lesion</text>
</a>
</g>
<line class="connector" marker-end="url(#arrowEnd)" x1="212.35" y1="16.88" x2="272.35" y2="16.88" />
<text x="216.1" y="13.12" text-anchor="right" class="lhsText">0..*</text>
<line class="connector" marker-start="url(#arrowStart)" x1="182.35" y1="16.88" x2="212.35" y2="16.88" />
<line class="connector" marker-start="url(#arrowStart)" x1="98.98" y1="50.62" x2="212.35" y2="50.62" />
<line class="connector" marker-start="url(#arrowStart)" x1="106.35" y1="84.38" x2="212.35" y2="84.38" />
<line class="connector" marker-start="url(#arrowStart)" x1="105.43" y1="118.12" x2="212.35" y2="118.12" />
<line class="connector" marker-start="url(#arrowStart)" x1="49.54" y1="151.88" x2="212.35" y2="151.88" />
<line class="connector" marker-start="url(#arrowStart)" x1="71.54" y1="185.62" x2="212.35" y2="185.62" />
<line class="connector" marker-start="url(#arrowStart)" x1="109.08" y1="219.38" x2="212.35" y2="219.38" />
<line class="connector" marker-start="url(#arrowStart)" x1="122.84" y1="253.12" x2="212.35" y2="253.12" />
<line class="connector" marker-start="url(#arrowStart)" x1="124.67" y1="286.88" x2="212.35" y2="286.88" />
<line class="connector" marker-start="url(#arrowStart)" x1="110.01" y1="320.62" x2="212.35" y2="320.62" />
<line class="connector" marker-start="url(#arrowStart)" x1="55.96" y1="354.38" x2="212.35" y2="354.38" />
<line class="connector" marker-start="url(#arrowStart)" x1="101.79" y1="388.12" x2="212.35" y2="388.12" />
<line class="connector" x1="212.35" y1="16.88" x2="212.35" y2="388.12" />
</g>
<g>
<g transform="translate(272.35 3.75)">
<a href="StructureDefinition-AssociatedFeature.html" target="_top">
<rect class="focus" x="0" y="0" width="154.82" height="26.25" rx="3.75" ry="3.75" />
</a>
<a href="StructureDefinition-AssociatedFeature.html" target="_top">
<text x="5.62" y="18.75" text-anchor="left" class="focus">Associated Feature</text>
</a>
</g>
<line class="connector" marker-end="url(#arrowEnd)" x1="457.17" y1="16.88" x2="517.17" y2="16.88" />
<text x="460.92" y="13.12" text-anchor="right" class="lhsText">1..1</text>
<line class="connector" marker-end="url(#arrowEnd)" x1="457.17" y1="50.62" x2="517.17" y2="50.62" />
<text x="460.92" y="46.88" text-anchor="right" class="lhsText">1..1</text>
<line class="connector" marker-end="url(#arrowEnd)" x1="457.17" y1="84.38" x2="517.17" y2="84.38" />
<text x="460.92" y="80.62" text-anchor="right" class="lhsText">1..2</text>
<line class="connector" marker-start="url(#arrowStart)" x1="427.17" y1="16.88" x2="457.17" y2="16.88" />
<line class="connector" x1="457.17" y1="16.88" x2="457.17" y2="84.38" />
</g>
<g>
<g transform="translate(517.17 3.75)">
<a href="StructureDefinition-AssociatedFeature-definitions.html#Observation.code" target="_top">
<rect class="element" x="0" y="0" width="52.22" height="26.25" rx="3.75" ry="3.75" />
</a>
<a href="StructureDefinition-AssociatedFeature-definitions.html#Observation.code" target="_top">
<text x="5.62" y="18.75" text-anchor="left" class="element">Code</text>
</a>
</g>
<line class="connector" marker-end="url(#arrowEnd)" x1="599.39" y1="16.88" x2="719.39" y2="16.88" />
<text x="603.14" y="13.12" text-anchor="right" class="lhsText">pattern </text>
<line class="connector" marker-start="url(#arrowStart)" x1="569.39" y1="16.88" x2="599.39" y2="16.88" />
<line class="connector" x1="599.39" y1="16.88" x2="599.39" y2="16.88" />
</g>
<g>
<g transform="translate(719.39 3.75)">
<a href="CodeSystem-ObservationCodesCS.html" target="_top">
<rect class="value" x="0" y="0" width="414.04" height="26.25" rx="3.75" ry="3.75" />
</a>
<a href="CodeSystem-ObservationCodesCS.html" target="_top">
<text x="5.62" y="18.75" text-anchor="left" class="value">ObservationCodesCS#associatedFeaturesObservation</text>
</a>
</g>
</g>
<g>
<g transform="translate(517.17 37.5)">
<a href="StructureDefinition-AssociatedFeature-definitions.html#Observation.bodySite" target="_top">
<rect class="element" x="0" y="0" width="78.79" height="26.25" rx="3.75" ry="3.75" />
</a>
<a href="StructureDefinition-AssociatedFeature-definitions.html#Observation.bodySite" target="_top">
<text x="5.62" y="18.75" text-anchor="left" class="element">BodySite</text>
</a>
</g>
<line class="connector" marker-end="url(#arrowEnd)" x1="625.96" y1="50.62" x2="685.96" y2="50.62" />
<text x="629.71" y="46.88" text-anchor="right" class="lhsText">1..*</text>
<line class="connector" marker-start="url(#arrowStart)" x1="595.96" y1="50.62" x2="625.96" y2="50.62" />
<line class="connector" x1="625.96" y1="50.62" x2="625.96" y2="50.62" />
</g>
<g>
<g transform="translate(685.96 37.5)">
<a href="StructureDefinition-AssociatedFeature-definitions.html#Observation.bodySite.extension" target="_top">
<rect class="element" x="0" y="0" width="83.38" height="26.25" rx="3.75" ry="3.75" />
</a>
<a href="StructureDefinition-AssociatedFeature-definitions.html#Observation.bodySite.extension" target="_top">
<text x="5.62" y="18.75" text-anchor="left" class="element">extension</text>
</a>
</g>
<line class="connector" marker-end="url(#arrowEnd)" x1="799.34" y1="50.62" x2="829.34" y2="50.62" />
<line class="connector" marker-start="url(#arrowStart)" x1="769.34" y1="50.62" x2="799.34" y2="50.62" />
<line class="connector" x1="799.34" y1="50.62" x2="799.34" y2="50.62" />
</g>
<g>
<g transform="translate(829.34 37.5)">
<a href="StructureDefinition-BreastBodyLocationExtension.html" target="_top">
<rect class="extension" x="0" y="0" width="160.33" height="26.25" rx="3.75" ry="3.75" />
</a>
<a href="StructureDefinition-BreastBodyLocationExtension.html" target="_top">
<text x="5.62" y="18.75" text-anchor="left" class="extension">BreastBodyLocation</text>
</a>
</g>
</g>
<g>
<g transform="translate(517.17 71.25)">
<a href="StructureDefinition-AssociatedFeature-definitions.html#Observation.component" target="_top">
<rect class="element" x="0" y="0" width="106.26" height="26.25" rx="3.75" ry="3.75" />
</a>
<a href="StructureDefinition-AssociatedFeature-definitions.html#Observation.component" target="_top">
<text x="5.62" y="18.75" text-anchor="left" class="element">Components</text>
</a>
</g>
<line class="connector" marker-end="url(#arrowEnd)" x1="653.43" y1="84.38" x2="713.43" y2="84.38" />
<text x="657.18" y="80.62" text-anchor="right" class="lhsText">1..1</text>
<line class="connector" marker-end="url(#arrowEnd)" x1="653.43" y1="118.12" x2="713.43" y2="118.12" />
<text x="657.18" y="114.38" text-anchor="right" class="lhsText">0..1</text>
<line class="connector" marker-start="url(#arrowStart)" x1="623.43" y1="84.38" x2="653.43" y2="84.38" />
<line class="connector" x1="653.43" y1="84.38" x2="653.43" y2="118.12" />
</g>
<g>
<g transform="translate(713.43 71.25)">
<a href="StructureDefinition-AssociatedFeature-definitions.html#Observation.component:featureType" target="_top">
<rect class="element" x="0" y="0" width="110.84" height="26.25" rx="3.75" ry="3.75" />
</a>
<a href="StructureDefinition-AssociatedFeature-definitions.html#Observation.component:featureType" target="_top">
<text x="5.62" y="18.75" text-anchor="left" class="element">Feature Type</text>
</a>
</g>
<line class="connector" marker-end="url(#arrowEnd)" x1="854.27" y1="84.38" x2="914.27" y2="84.38" />
<text x="858.02" y="80.62" text-anchor="right" class="lhsText">bind</text>
<line class="connector" marker-start="url(#arrowStart)" x1="824.27" y1="84.38" x2="854.27" y2="84.38" />
<line class="connector" x1="854.27" y1="84.38" x2="854.27" y2="84.38" />
</g>
<g>
<g transform="translate(914.27 71.25)">
<a href="ValueSet-AssociatedFeatureVS.html" target="_top">
<rect class="valueSet" x="0" y="0" width="172.22" height="26.25" rx="3.75" ry="3.75" />
</a>
<a href="ValueSet-AssociatedFeatureVS.html" target="_top">
<text x="5.62" y="18.75" text-anchor="left" class="valueSet">AssociatedFeatureVS</text>
</a>
</g>
</g>
<g>
<g transform="translate(713.43 105)">
<a href="StructureDefinition-AssociatedFeature-definitions.html#Observation.component:observedCount" target="_top">
<rect class="element" x="0" y="0" width="132.83" height="26.25" rx="3.75" ry="3.75" />
</a>
<a href="StructureDefinition-AssociatedFeature-definitions.html#Observation.component:observedCount" target="_top">
<text x="5.62" y="18.75" text-anchor="left" class="element">Observed Count</text>
</a>
</g>
</g>
<g>
<g transform="translate(3.75 483.75)">
<rect class="focus" x="0" y="0" width="57.72" height="26.25" rx="3.75" ry="3.75" />
<text x="5.62" y="18.75" text-anchor="left" class="focus">Focus</text>
</g>
<g transform="translate(68.97 483.75)">
<rect class="profile" x="0" y="0" width="143.81" height="26.25" rx="3.75" ry="3.75" />
<text x="5.62" y="18.75" text-anchor="left" class="profile">Profiled Resource</text>
</g>
<g transform="translate(220.28 483.75)">
<rect class="extension" x="0" y="0" width="85.21" height="26.25" rx="3.75" ry="3.75" />
<text x="5.62" y="18.75" text-anchor="left" class="extension">Extension</text>
</g>
<g transform="translate(312.98 483.75)">
<rect class="element" x="0" y="0" width="148.39" height="26.25" rx="3.75" ry="3.75" />
<text x="5.62" y="18.75" text-anchor="left" class="element">Resource Element</text>
</g>
<g transform="translate(468.87 483.75)">
<rect class="valueSet" x="0" y="0" width="79.72" height="26.25" rx="3.75" ry="3.75" />
<text x="5.62" y="18.75" text-anchor="left" class="valueSet">ValueSet</text>
</g>
<g transform="translate(556.09 483.75)">
<rect class="value" x="0" y="0" width="54.98" height="26.25" rx="3.75" ry="3.75" />
<text x="5.62" y="18.75" text-anchor="left" class="value">Value</text>
</g>
</g>
</svg>
