<?xml version="1.0"?>
<!DOCTYPE svg PUBLIC "-//W3C//DTD SVG 1.1//EN" "http://www.w3.org/Graphics/SVG/1.1/DTD/svg11.dtd">
<svg xmlns="http://www.w3.org/2000/svg" version="1.1" width="705" height="288.75">
<defs>
<marker id="arrowStart" markerWidth="3.75" markerHeight="3.75" markerUnits="px" refX="1.875" refY="1.875">
<circle fill="Black" stroke-width="0" cx="1.875" cy="1.875" r="1.875" />
</marker>
<marker id="arrowEnd" markerWidth="7.5" markerHeight="7.5" markerUnits="px" refX="7.5" refY="3.75">
<polygon fill="Black" stroke-width="0" points="0 0 7.5 3.75 0 7.5" />
</marker>
</defs>
<g>
<g>
<rect fill="LightBlue" stroke="Black" stroke-width="1.875" x="7.5" y="7.5" width="141" height="33.75" rx="3.75" ry="3.75" />
<a href="./StructureDefinition-BreastRadMammoAsymmetry.html" target="_blank">
<title>'BreastRadMammoAsymmetry'</title>
<text x="15" y="30">Mg Asymmetry</text>
</a>
</g>
<g>
<rect fill="LightBlue" stroke="Black" stroke-width="1.875" x="7.5" y="48.75" width="99" height="33.75" rx="3.75" ry="3.75" />
<a href="./StructureDefinition-BreastRadMammoCalcification.html" target="_blank">
<title>'BreastRadMammoCalcification'</title>
<text x="15" y="71.25">Mg Calc.</text>
</a>
</g>
<g>
<rect fill="LightBlue" stroke="Black" stroke-width="1.875" x="7.5" y="90" width="120" height="33.75" rx="3.75" ry="3.75" />
<a href="./StructureDefinition-BreastRadMammoFinding.html" target="_blank">
<title>'BreastRadMammoFinding'</title>
<text x="15" y="112.5">Mg Finding</text>
</a>
</g>
<g>
<rect fill="LightBlue" stroke="Black" stroke-width="1.875" x="7.5" y="131.25" width="88.5" height="33.75" rx="3.75" ry="3.75" />
<a href="./StructureDefinition-BreastRadMammoMass.html" target="_blank">
<title>'BreastRadMammoMass'</title>
<text x="15" y="153.75">Mg Mass</text>
</a>
</g>
<line stroke="Black" stroke-width="1.875" marker-end="url(#arrowEnd)" x1="178.5" y1="33.75" x2="208.5" y2="33.75" />
<line stroke="Black" stroke-width="1.875" marker-start="url(#arrowStart)" x1="148.5" y1="24.375" x2="178.5" y2="24.375" />
<line stroke="Black" stroke-width="1.875" marker-start="url(#arrowStart)" x1="106.5" y1="65.625" x2="178.5" y2="65.625" />
<line stroke="Black" stroke-width="1.875" marker-start="url(#arrowStart)" x1="127.5" y1="106.875" x2="178.5" y2="106.875" />
<line stroke="Black" stroke-width="1.875" marker-start="url(#arrowStart)" x1="96" y1="148.125" x2="178.5" y2="148.125" />
<line stroke="Black" stroke-width="1.875" x1="178.5" y1="24.375" x2="178.5" y2="148.125" />
</g>
<g>
<g>
<rect fill="LightGreen" stroke="Black" stroke-width="1.875" x="208.5" y="7.5" width="151.49998" height="52.5" rx="3.75" ry="3.75" />
<text x="216" y="30">Mg Associated</text>
<text x="216" y="48.75">Features</text>
</g>
<line stroke="Black" stroke-width="1.875" marker-end="url(#arrowEnd)" x1="390" y1="24.375" x2="420" y2="24.375" />
<line stroke="Black" stroke-width="1.875" marker-end="url(#arrowEnd)" x1="390" y1="65.625" x2="420" y2="65.625" />
<line stroke="Black" stroke-width="1.875" marker-end="url(#arrowEnd)" x1="390" y1="106.875" x2="420" y2="106.875" />
<line stroke="Black" stroke-width="1.875" marker-end="url(#arrowEnd)" x1="390" y1="157.5" x2="420" y2="157.5" />
<line stroke="Black" stroke-width="1.875" marker-end="url(#arrowEnd)" x1="390" y1="208.125" x2="420" y2="208.125" />
<line stroke="Black" stroke-width="1.875" marker-end="url(#arrowEnd)" x1="390" y1="249.375" x2="420" y2="249.375" />
<line stroke="Black" stroke-width="1.875" marker-start="url(#arrowStart)" x1="360" y1="33.75" x2="390" y2="33.75" />
<line stroke="Black" stroke-width="1.875" x1="390" y1="24.375" x2="390" y2="249.375" />
</g>
<g>
<g>
<rect fill="LightSalmon" stroke="Black" stroke-width="1.875" x="420" y="7.5" width="203.99998" height="33.75" rx="3.75" ry="3.75" />
<a href="./StructureDefinition-BreastRadMammoSkinRetraction.html" target="_blank">
<title>'BreastRadMammoSkinRetraction'</title>
<text x="427.5" y="30">Mg Skin Retraction</text>
</a>
</g>
<g>
<rect fill="LightSalmon" stroke="Black" stroke-width="1.875" x="420" y="48.75" width="225" height="33.75" rx="3.75" ry="3.75" />
<a href="./StructureDefinition-BreastRadMammoNippleRetraction.html" target="_blank">
<title>'BreastRadMammoNippleRetraction'</title>
<text x="427.5" y="71.25">Mg Nipple Retraction</text>
</a>
</g>
<g>
<rect fill="LightSalmon" stroke="Black" stroke-width="1.875" x="420" y="90" width="203.99998" height="33.75" rx="3.75" ry="3.75" />
<a href="./StructureDefinition-BreastRadMammoSkinThickening.html" target="_blank">
<title>'BreastRadMammoSkinThickening'</title>
<text x="427.5" y="112.5">Mg Skin Thickening</text>
</a>
</g>
<g>
<rect fill="LightSalmon" stroke="Black" stroke-width="1.875" x="420" y="131.25" width="130.5" height="52.5" rx="3.75" ry="3.75" />
<a href="./StructureDefinition-BreastRadMammoAxillaryAdenopathy.html" target="_blank">
<title>'BreastRadMammoAxillaryAdenopathy'</title>
<text x="427.5" y="153.75">Mg Axillary</text>
</a>
<a href="./StructureDefinition-BreastRadMammoAxillaryAdenopathy.html" target="_blank">
<title>'BreastRadMammoAxillaryAdenopathy'</title>
<text x="427.5" y="172.5">Adenopathy</text>
</a>
</g>
<g>
<rect fill="LightSalmon" stroke="Black" stroke-width="1.875" x="420" y="191.25" width="214.5" height="33.75" rx="3.75" ry="3.75" />
<a href="./StructureDefinition-BreastRadMammoArchitecturalDistortion.html" target="_blank">
<title>'BreastRadMammoArchitecturalDistortion'</title>
<text x="427.5" y="213.75">Mg Arch. Distortion</text>
</a>
</g>
<g>
<rect fill="LightSalmon" stroke="Black" stroke-width="1.875" x="420" y="232.5" width="99" height="33.75" rx="3.75" ry="3.75" />
<a href="./StructureDefinition-BreastRadMammoCalcification.html" target="_blank">
<title>'BreastRadMammoCalcification'</title>
<text x="427.5" y="255">Mg Calc.</text>
</a>
</g>
</g>
</svg>
