<?xml version="1.0"?>
<!DOCTYPE svg PUBLIC "-//W3C//DTD SVG 1.1//EN" "http://www.w3.org/Graphics/SVG/1.1/DTD/svg11.dtd">
<svg xmlns="http://www.w3.org/2000/svg" version="1.1" width="631.5" height="630">
<defs>
<marker id="arrowStart" markerWidth="3.75" markerHeight="3.75" markerUnits="px" refX="1.875" refY="1.875">
<circle fill="Black" stroke-width="0" cx="1.875" cy="1.875" r="1.875" />
</marker>
<marker id="arrowEnd" markerWidth="7.5" markerHeight="7.5" markerUnits="px" refX="7.5" refY="3.75">
<polygon fill="Black" stroke-width="0" points="0 0 7.5 3.75 0 7.5" />
</marker>
</defs>
<g>
<g>
<rect fill="LightBlue" stroke="Black" stroke-width="1.875" x="7.5" y="7.5" width="214.5" height="33.75" rx="3.75" ry="3.75" />
<a href="./StructureDefinition-BreastRadMammoArchitecturalDistortion.html" target="_blank">
<title>'BreastRadMammoArchitecturalDistortion'</title>
<text x="15" y="30">Mg Arch. Distortion</text>
</a>
</g>
<g>
<rect fill="LightBlue" stroke="Black" stroke-width="1.875" x="7.5" y="48.75" width="162" height="33.75" rx="3.75" ry="3.75" />
<a href="./StructureDefinition-BreastRadMammoAsymmetries.html" target="_blank">
<title>'BreastRadMammoAsymmetries'</title>
<text x="15" y="71.25">Mg Asymmetries</text>
</a>
</g>
<g>
<rect fill="LightBlue" stroke="Black" stroke-width="1.875" x="7.5" y="90" width="99" height="33.75" rx="3.75" ry="3.75" />
<a href="./StructureDefinition-BreastRadMammoCalcification.html" target="_blank">
<title>'BreastRadMammoCalcification'</title>
<text x="15" y="112.5">Mg Calc.</text>
</a>
</g>
<g>
<rect fill="LightBlue" stroke="Black" stroke-width="1.875" x="7.5" y="131.25" width="88.5" height="33.75" rx="3.75" ry="3.75" />
<a href="./StructureDefinition-BreastRadMammoCyst.html" target="_blank">
<title>'BreastRadMammoCyst'</title>
<text x="15" y="153.75">Mg Cyst</text>
</a>
</g>
<g>
<rect fill="LightBlue" stroke="Black" stroke-width="1.875" x="7.5" y="172.5" width="172.5" height="33.75" rx="3.75" ry="3.75" />
<a href="./StructureDefinition-BreastRadMammoFatNecrosis.html" target="_blank">
<title>'BreastRadMammoFatNecrosis'</title>
<text x="15" y="195">Mg Fat Necrosis</text>
</a>
</g>
<g>
<rect fill="LightBlue" stroke="Black" stroke-width="1.875" x="7.5" y="213.75" width="172.5" height="33.75" rx="3.75" ry="3.75" />
<a href="./StructureDefinition-BreastRadMammoFibroadenoma.html" target="_blank">
<title>'BreastRadMammoFibroadenoma'</title>
<text x="15" y="236.25">Mg Fibroadenoma</text>
</a>
</g>
<g>
<rect fill="LightBlue" stroke="Black" stroke-width="1.875" x="7.5" y="255" width="172.5" height="52.5" rx="3.75" ry="3.75" />
<a href="./StructureDefinition-BreastRadMammoIntramammaryLymphNode.html" target="_blank">
<title>'BreastRadMammoIntramammaryLymphNode'</title>
<text x="15" y="277.5">Mg Intramammory</text>
</a>
<a href="./StructureDefinition-BreastRadMammoIntramammaryLymphNode.html" target="_blank">
<title>'BreastRadMammoIntramammaryLymphNode'</title>
<text x="15" y="296.25">Lymph Node</text>
</a>
</g>
<g>
<rect fill="LightBlue" stroke="Black" stroke-width="1.875" x="7.5" y="315" width="88.5" height="33.75" rx="3.75" ry="3.75" />
<a href="./StructureDefinition-BreastRadMammoMass.html" target="_blank">
<title>'BreastRadMammoMass'</title>
<text x="15" y="337.5">Mg Mass</text>
</a>
</g>
<g>
<rect fill="LightBlue" stroke="Black" stroke-width="1.875" x="7.5" y="356.25" width="151.49998" height="52.5" rx="3.75" ry="3.75" />
<a href="./StructureDefinition-BreastRadMammoSolitaryDilatedDuct.html" target="_blank">
<title>'BreastRadMammoSolitaryDilatedDuct'</title>
<text x="15" y="378.75">Mg Solitary</text>
</a>
<a href="./StructureDefinition-BreastRadMammoSolitaryDilatedDuct.html" target="_blank">
<title>'BreastRadMammoSolitaryDilatedDuct'</title>
<text x="15" y="397.5">Dialated Duct</text>
</a>
</g>
<g>
<rect fill="LightBlue" stroke="Black" stroke-width="1.875" x="7.5" y="416.25" width="99" height="33.75" rx="3.75" ry="3.75" />
<a href="./StructureDefinition-BreastRadSectionFindings.html" target="_blank">
<title>'BreastRadSectionFindings'</title>
<text x="15" y="438.75">Findings</text>
</a>
</g>
<g>
<rect fill="LightBlue" stroke="Black" stroke-width="1.875" x="7.5" y="457.5" width="130.5" height="33.75" rx="3.75" ry="3.75" />
<a href="./StructureDefinition-BreastRadSectionFindingsLeftBreast.html" target="_blank">
<title>'BreastRadSectionFindingsLeftBreast'</title>
<text x="15" y="480">Left Breast</text>
</a>
</g>
<g>
<rect fill="LightBlue" stroke="Black" stroke-width="1.875" x="7.5" y="498.75" width="141" height="33.75" rx="3.75" ry="3.75" />
<a href="./StructureDefinition-BreastRadSectionFindingsRightBreast.html" target="_blank">
<title>'BreastRadSectionFindingsRightBreast'</title>
<text x="15" y="521.25">Right Breast</text>
</a>
</g>
<g>
<rect fill="LightBlue" stroke="Black" stroke-width="1.875" x="7.5" y="540" width="88.5" height="33.75" rx="3.75" ry="3.75" />
<a href="./StructureDefinition-BreastRadUSMass.html" target="_blank">
<title>'BreastRadUSMass'</title>
<text x="15" y="562.5">US Mass</text>
</a>
</g>
<g>
<rect fill="LightBlue" stroke="Black" stroke-width="1.875" x="7.5" y="581.25" width="162" height="33.75" rx="3.75" ry="3.75" />
<a href="./StructureDefinition-CommonForeignObject.html" target="_blank">
<title>'CommonForeignObject'</title>
<text x="15" y="603.75">Foreign Object</text>
</a>
</g>
<line stroke="Black" stroke-width="1.875" marker-end="url(#arrowEnd)" x1="251.99998" y1="24.375" x2="282" y2="24.375" />
<line stroke="Black" stroke-width="1.875" marker-start="url(#arrowStart)" x1="222" y1="24.375" x2="251.99998" y2="24.375" />
<line stroke="Black" stroke-width="1.875" marker-start="url(#arrowStart)" x1="169.5" y1="65.625" x2="251.99998" y2="65.625" />
<line stroke="Black" stroke-width="1.875" marker-start="url(#arrowStart)" x1="106.5" y1="106.875" x2="251.99998" y2="106.875" />
<line stroke="Black" stroke-width="1.875" marker-start="url(#arrowStart)" x1="96" y1="148.125" x2="251.99998" y2="148.125" />
<line stroke="Black" stroke-width="1.875" marker-start="url(#arrowStart)" x1="180" y1="189.375" x2="251.99998" y2="189.375" />
<line stroke="Black" stroke-width="1.875" marker-start="url(#arrowStart)" x1="180" y1="230.625" x2="251.99998" y2="230.625" />
<line stroke="Black" stroke-width="1.875" marker-start="url(#arrowStart)" x1="180" y1="281.25" x2="251.99998" y2="281.25" />
<line stroke="Black" stroke-width="1.875" marker-start="url(#arrowStart)" x1="96" y1="331.875" x2="251.99998" y2="331.875" />
<line stroke="Black" stroke-width="1.875" marker-start="url(#arrowStart)" x1="158.99998" y1="382.5" x2="251.99998" y2="382.5" />
<line stroke="Black" stroke-width="1.875" marker-start="url(#arrowStart)" x1="106.5" y1="433.125" x2="251.99998" y2="433.125" />
<line stroke="Black" stroke-width="1.875" marker-start="url(#arrowStart)" x1="138" y1="474.375" x2="251.99998" y2="474.375" />
<line stroke="Black" stroke-width="1.875" marker-start="url(#arrowStart)" x1="148.5" y1="515.625" x2="251.99998" y2="515.625" />
<line stroke="Black" stroke-width="1.875" marker-start="url(#arrowStart)" x1="96" y1="556.875" x2="251.99998" y2="556.875" />
<line stroke="Black" stroke-width="1.875" marker-start="url(#arrowStart)" x1="169.5" y1="598.125" x2="251.99998" y2="598.125" />
<line stroke="Black" stroke-width="1.875" x1="251.99998" y1="24.375" x2="251.99998" y2="598.125" />
</g>
<g>
<g>
<rect fill="LightGreen" stroke="Black" stroke-width="1.875" x="282" y="7.5" width="130.5" height="33.75" rx="3.75" ry="3.75" />
<text x="289.5" y="30">BiRads Code</text>
</g>
<line stroke="Black" stroke-width="1.875" marker-end="url(#arrowEnd)" x1="442.5" y1="33.75" x2="472.5" y2="33.75" />
<line stroke="Black" stroke-width="1.875" marker-start="url(#arrowStart)" x1="412.5" y1="24.375" x2="442.5" y2="24.375" />
<line stroke="Black" stroke-width="1.875" x1="442.5" y1="24.375" x2="442.5" y2="33.75" />
</g>
<g>
<g>
<rect fill="LightSalmon" stroke="Black" stroke-width="1.875" x="472.5" y="7.5" width="99" height="52.5" rx="3.75" ry="3.75" />
<a href="./ValueSet-BiRadsAssessmentCategoriesVS.html" target="_blank">
<title>'BiRadsAssessmentCategoriesVS'</title>
<text x="480" y="30">BiRads</text>
</a>
<a href="./ValueSet-BiRadsAssessmentCategoriesVS.html" target="_blank">
<title>'BiRadsAssessmentCategoriesVS'</title>
<text x="480" y="48.75">ValueSet</text>
</a>
</g>
</g>
</svg>
