<?xml version="1.0"?>
<!DOCTYPE svg PUBLIC "-//W3C//DTD SVG 1.1//EN" "http://www.w3.org/Graphics/SVG/1.1/DTD/svg11.dtd">
<svg xmlns="http://www.w3.org/2000/svg" version="1.1" width="1309.4999" height="1023.75">
<defs>
<marker id="arrowStart" markerWidth="3.75" markerHeight="3.75" markerUnits="px" refX="1.875" refY="1.875">
<circle fill="Black" stroke-width="0" cx="1.875" cy="1.875" r="1.875" />
</marker>
<marker id="arrowEnd" markerWidth="7.5" markerHeight="7.5" markerUnits="px" refX="7.5" refY="3.75">
<polygon fill="Black" stroke-width="0" points="0 0 7.5 3.75 0 7.5" />
</marker>
</defs>
<g>
<g transform="translate(7.5 7.5)">
<a href="./StructureDefinition-MGFinding.html" target="_top">
<rect fill="LightCyan" stroke="Black" stroke-width="1.875" x="0" y="0" width="120" height="33.75" rx="3.75" ry="3.75" />
</a>
<a href="./StructureDefinition-MGFinding.html" target="_top">
<text x="60" y="22.5" text-anchor="middle">MG Finding</text>
</a>
</g>
<line stroke="Black" stroke-width="1.875" marker-end="url(#arrowEnd)" x1="172.5" y1="24.375" x2="217.5" y2="24.375" />
<text x="176.25" y="20.625" text-anchor="left"></text>
<line stroke="Black" stroke-width="1.875" marker-start="url(#arrowStart)" x1="127.5" y1="24.375" x2="172.5" y2="24.375" />
<text x="131.25" y="20.625" text-anchor="left">0..*</text>
<line stroke="Black" stroke-width="1.875" x1="172.5" y1="24.375" x2="172.5" y2="24.375" />
</g>
<g>
<g transform="translate(217.5 7.5)">
<rect fill="White" stroke="Black" stroke-width="1.875" x="0" y="0" width="120" height="33.75" rx="3.75" ry="3.75" />
<text x="60" y="22.5" text-anchor="middle">Lymph Node</text>
</g>
<line stroke="Black" stroke-width="1.875" marker-end="url(#arrowEnd)" x1="382.5" y1="24.375" x2="427.5" y2="24.375" />
<text x="386.25" y="20.625" text-anchor="left">0..*</text>
<line stroke="Black" stroke-width="1.875" marker-end="url(#arrowEnd)" x1="382.5" y1="65.625" x2="427.5" y2="65.625" />
<text x="386.25" y="61.875" text-anchor="left">0..*</text>
<line stroke="Black" stroke-width="1.875" marker-end="url(#arrowEnd)" x1="382.5" y1="116.25" x2="427.5" y2="116.25" />
<text x="386.25" y="112.5" text-anchor="left">0..1</text>
<line stroke="Black" stroke-width="1.875" marker-end="url(#arrowEnd)" x1="382.5" y1="176.25" x2="427.5" y2="176.25" />
<text x="386.25" y="172.5" text-anchor="left">0..*</text>
<line stroke="Black" stroke-width="1.875" marker-end="url(#arrowEnd)" x1="382.5" y1="255" x2="427.5" y2="255" />
<text x="386.25" y="251.25" text-anchor="left">0..1</text>
<line stroke="Black" stroke-width="1.875" marker-end="url(#arrowEnd)" x1="382.5" y1="315" x2="427.5" y2="315" />
<text x="386.25" y="311.25" text-anchor="left">0..1</text>
<line stroke="Black" stroke-width="1.875" marker-end="url(#arrowEnd)" x1="382.5" y1="375" x2="427.5" y2="375" />
<text x="386.25" y="371.25" text-anchor="left">0..1</text>
<line stroke="Black" stroke-width="1.875" marker-end="url(#arrowEnd)" x1="382.5" y1="435" x2="427.5" y2="435" />
<text x="386.25" y="431.25" text-anchor="left">0..1</text>
<line stroke="Black" stroke-width="1.875" marker-end="url(#arrowEnd)" x1="382.5" y1="495" x2="427.5" y2="495" />
<text x="386.25" y="491.25" text-anchor="left">0..1</text>
<line stroke="Black" stroke-width="1.875" marker-end="url(#arrowEnd)" x1="382.5" y1="555" x2="427.5" y2="555" />
<text x="386.25" y="551.25" text-anchor="left">0..1</text>
<line stroke="Black" stroke-width="1.875" marker-end="url(#arrowEnd)" x1="382.5" y1="615" x2="427.5" y2="615" />
<text x="386.25" y="611.25" text-anchor="left">0..*</text>
<line stroke="Black" stroke-width="1.875" marker-end="url(#arrowEnd)" x1="382.5" y1="675" x2="427.5" y2="675" />
<text x="386.25" y="671.25" text-anchor="left">0..3</text>
<line stroke="Black" stroke-width="1.875" marker-end="url(#arrowEnd)" x1="382.5" y1="735" x2="427.5" y2="735" />
<text x="386.25" y="731.25" text-anchor="left">0..3</text>
<line stroke="Black" stroke-width="1.875" marker-end="url(#arrowEnd)" x1="382.5" y1="795" x2="427.5" y2="795" />
<text x="386.25" y="791.25" text-anchor="left">0..*</text>
<line stroke="Black" stroke-width="1.875" marker-end="url(#arrowEnd)" x1="382.5" y1="855" x2="427.5" y2="855" />
<text x="386.25" y="851.25" text-anchor="left">0..*</text>
<line stroke="Black" stroke-width="1.875" marker-end="url(#arrowEnd)" x1="382.5" y1="915" x2="427.5" y2="915" />
<text x="386.25" y="911.25" text-anchor="left">0..*</text>
<line stroke="Black" stroke-width="1.875" marker-end="url(#arrowEnd)" x1="382.5" y1="975" x2="427.5" y2="975" />
<text x="386.25" y="971.25" text-anchor="left">1..1</text>
<line stroke="Black" stroke-width="1.875" marker-start="url(#arrowStart)" x1="337.5" y1="24.375" x2="382.5" y2="24.375" />
<text x="341.25" y="20.625" text-anchor="left"></text>
<line stroke="Black" stroke-width="1.875" x1="382.5" y1="24.375" x2="382.5" y2="975" />
</g>
<g>
<g transform="translate(427.5 7.5)">
<a href="./StructureDefinition-TumorSatellite.html" target="_top">
<rect fill="LightCyan" stroke="Black" stroke-width="1.875" x="0" y="0" width="162" height="33.75" rx="3.75" ry="3.75" />
</a>
<a href="./StructureDefinition-TumorSatellite.html" target="_top">
<text x="81" y="22.5" text-anchor="middle">TumorSatellite</text>
</a>
</g>
</g>
<g>
<g transform="translate(427.5 48.75)">
<a href="./StructureDefinition-AssociatedFeature.html" target="_top">
<rect fill="LightCyan" stroke="Black" stroke-width="1.875" x="0" y="0" width="203.99998" height="33.75" rx="3.75" ry="3.75" />
</a>
<a href="./StructureDefinition-AssociatedFeature.html" target="_top">
<text x="101.99999" y="22.5" text-anchor="middle">Associated Feature</text>
</a>
</g>
</g>
<g>
<g transform="translate(427.5 90)">
<a href="StructureDefinition-AbnormalityLymphNode-definitions.html#Observation.component:lymphNodeType" target="_top">
<rect fill="LightYellow" stroke="Black" stroke-width="1.875" x="0" y="0" width="172.5" height="52.5" rx="3.75" ry="3.75" />
</a>
<a href="StructureDefinition-AbnormalityLymphNode-definitions.html#Observation.component:lymphNodeType" target="_top">
<text x="86.25" y="22.5" text-anchor="middle">Lymph Node Type</text>
</a>
<a href="StructureDefinition-AbnormalityLymphNode-definitions.html#Observation.component:lymphNodeType" target="_top">
<text x="86.25" y="41.25" text-anchor="middle">CodeableConcept</text>
</a>
</g>
<line stroke="Black" stroke-width="1.875" marker-end="url(#arrowEnd)" x1="645" y1="116.25" x2="690" y2="116.25" />
<text x="648.75" y="112.5" text-anchor="left"></text>
<line stroke="Black" stroke-width="1.875" marker-start="url(#arrowStart)" x1="600" y1="116.25" x2="645" y2="116.25" />
<text x="603.75" y="112.5" text-anchor="left"></text>
<line stroke="Black" stroke-width="1.875" x1="645" y1="116.25" x2="645" y2="116.25" />
</g>
<g>
<g transform="translate(690 90)">
<a href="./ValueSet-AbnormalityLymphNodeTypeVS.html" target="_top">
<rect fill="LightGreen" stroke="Black" stroke-width="1.875" x="0" y="0" width="120" height="52.5" rx="3.75" ry="3.75" />
</a>
<a href="./ValueSet-AbnormalityLymphNodeTypeVS.html" target="_top">
<text x="60" y="22.5" text-anchor="middle">Lymph Node</text>
</a>
<a href="./ValueSet-AbnormalityLymphNodeTypeVS.html" target="_top">
<text x="60" y="41.25" text-anchor="middle">ValueSet</text>
</a>
</g>
</g>
<g>
<g transform="translate(427.5 150)">
<a href="StructureDefinition-AbnormalityLymphNode-definitions.html#Observation.component:obsChanges" target="_top">
<rect fill="LightYellow" stroke="Black" stroke-width="1.875" x="0" y="0" width="330" height="52.5" rx="3.75" ry="3.75" />
</a>
<a href="StructureDefinition-AbnormalityLymphNode-definitions.html#Observation.component:obsChanges" target="_top">
<text x="165" y="22.5" text-anchor="middle">Observed Change In Abnormality</text>
</a>
<a href="StructureDefinition-AbnormalityLymphNode-definitions.html#Observation.component:obsChanges" target="_top">
<text x="165" y="41.25" text-anchor="middle">CodeableConcept</text>
</a>
</g>
<line stroke="Black" stroke-width="1.875" marker-end="url(#arrowEnd)" x1="802.5" y1="185.625" x2="847.5" y2="185.625" />
<text x="806.25" y="181.875" text-anchor="left"></text>
<line stroke="Black" stroke-width="1.875" marker-start="url(#arrowStart)" x1="757.5" y1="176.25" x2="802.5" y2="176.25" />
<text x="761.25" y="172.5" text-anchor="left"></text>
<line stroke="Black" stroke-width="1.875" x1="802.5" y1="176.25" x2="802.5" y2="185.625" />
</g>
<g>
<g transform="translate(847.5 150)">
<a href="./ValueSet-ObservedChangesVS.html" target="_top">
<rect fill="LightGreen" stroke="Black" stroke-width="1.875" x="0" y="0" width="99" height="71.25" rx="3.75" ry="3.75" />
</a>
<a href="./ValueSet-ObservedChangesVS.html" target="_top">
<text x="49.5" y="22.5" text-anchor="middle">Observed</text>
</a>
<a href="./ValueSet-ObservedChangesVS.html" target="_top">
<text x="49.5" y="41.25" text-anchor="middle">Change</text>
</a>
<a href="./ValueSet-ObservedChangesVS.html" target="_top">
<text x="49.5" y="60" text-anchor="middle">ValueSet</text>
</a>
</g>
</g>
<g>
<g transform="translate(427.5 228.75)">
<a href="StructureDefinition-AbnormalityLymphNode-definitions.html#Observation.component:biRadsAssessmentCategory" target="_top">
<rect fill="LightYellow" stroke="Black" stroke-width="1.875" x="0" y="0" width="287.99997" height="52.5" rx="3.75" ry="3.75" />
</a>
<a href="StructureDefinition-AbnormalityLymphNode-definitions.html#Observation.component:biRadsAssessmentCategory" target="_top">
<text x="143.99998" y="22.5" text-anchor="middle">BiRads Assessment Category</text>
</a>
<a href="StructureDefinition-AbnormalityLymphNode-definitions.html#Observation.component:biRadsAssessmentCategory" target="_top">
<text x="143.99998" y="41.25" text-anchor="middle">CodeableConcept</text>
</a>
</g>
<line stroke="Black" stroke-width="1.875" marker-end="url(#arrowEnd)" x1="760.49994" y1="255" x2="805.49994" y2="255" />
<text x="764.24994" y="251.25" text-anchor="left"></text>
<line stroke="Black" stroke-width="1.875" marker-start="url(#arrowStart)" x1="715.49994" y1="255" x2="760.49994" y2="255" />
<text x="719.24994" y="251.25" text-anchor="left"></text>
<line stroke="Black" stroke-width="1.875" x1="760.49994" y1="255" x2="760.49994" y2="255" />
</g>
<g>
<g transform="translate(805.49994 228.75)">
<a href="./ValueSet-BiRadsAssessmentCategoriesVS.html" target="_top">
<rect fill="LightGreen" stroke="Black" stroke-width="1.875" x="0" y="0" width="99" height="52.5" rx="3.75" ry="3.75" />
</a>
<a href="./ValueSet-BiRadsAssessmentCategoriesVS.html" target="_top">
<text x="49.5" y="22.5" text-anchor="middle">BiRads</text>
</a>
<a href="./ValueSet-BiRadsAssessmentCategoriesVS.html" target="_top">
<text x="49.5" y="41.25" text-anchor="middle">ValueSet</text>
</a>
</g>
</g>
<g>
<g transform="translate(427.5 288.75)">
<a href="StructureDefinition-AbnormalityLymphNode-definitions.html#Observation.component:orientation" target="_top">
<rect fill="LightYellow" stroke="Black" stroke-width="1.875" x="0" y="0" width="172.5" height="52.5" rx="3.75" ry="3.75" />
</a>
<a href="StructureDefinition-AbnormalityLymphNode-definitions.html#Observation.component:orientation" target="_top">
<text x="86.25" y="22.5" text-anchor="middle">Orientation</text>
</a>
<a href="StructureDefinition-AbnormalityLymphNode-definitions.html#Observation.component:orientation" target="_top">
<text x="86.25" y="41.25" text-anchor="middle">CodeableConcept</text>
</a>
</g>
<line stroke="Black" stroke-width="1.875" marker-end="url(#arrowEnd)" x1="645" y1="305.625" x2="690" y2="305.625" />
<text x="648.75" y="301.875" text-anchor="left"></text>
<line stroke="Black" stroke-width="1.875" marker-start="url(#arrowStart)" x1="600" y1="315" x2="645" y2="315" />
<text x="603.75" y="311.25" text-anchor="left"></text>
<line stroke="Black" stroke-width="1.875" x1="645" y1="305.625" x2="645" y2="315" />
</g>
<g>
<g transform="translate(690 288.75)">
<a href="./ValueSet-OrientationVS.html" target="_top">
<rect fill="LightGreen" stroke="Black" stroke-width="1.875" x="0" y="0" width="225" height="33.75" rx="3.75" ry="3.75" />
</a>
<a href="./ValueSet-OrientationVS.html" target="_top">
<text x="112.5" y="22.5" text-anchor="middle">Orientation ValueSet</text>
</a>
</g>
</g>
<g>
<g transform="translate(427.5 348.75)">
<a href="StructureDefinition-AbnormalityLymphNode-definitions.html#Observation.component:shape" target="_top">
<rect fill="LightYellow" stroke="Black" stroke-width="1.875" x="0" y="0" width="172.5" height="52.5" rx="3.75" ry="3.75" />
</a>
<a href="StructureDefinition-AbnormalityLymphNode-definitions.html#Observation.component:shape" target="_top">
<text x="86.25" y="22.5" text-anchor="middle">Shape</text>
</a>
<a href="StructureDefinition-AbnormalityLymphNode-definitions.html#Observation.component:shape" target="_top">
<text x="86.25" y="41.25" text-anchor="middle">CodeableConcept</text>
</a>
</g>
<line stroke="Black" stroke-width="1.875" marker-end="url(#arrowEnd)" x1="645" y1="375" x2="690" y2="375" />
<text x="648.75" y="371.25" text-anchor="left"></text>
<line stroke="Black" stroke-width="1.875" marker-start="url(#arrowStart)" x1="600" y1="375" x2="645" y2="375" />
<text x="603.75" y="371.25" text-anchor="left"></text>
<line stroke="Black" stroke-width="1.875" x1="645" y1="375" x2="645" y2="375" />
</g>
<g>
<g transform="translate(690 348.75)">
<a href="./ValueSet-ShapeVS.html" target="_top">
<rect fill="LightGreen" stroke="Black" stroke-width="1.875" x="0" y="0" width="99" height="52.5" rx="3.75" ry="3.75" />
</a>
<a href="./ValueSet-ShapeVS.html" target="_top">
<text x="49.5" y="22.5" text-anchor="middle">Shape</text>
</a>
<a href="./ValueSet-ShapeVS.html" target="_top">
<text x="49.5" y="41.25" text-anchor="middle">ValueSet</text>
</a>
</g>
</g>
<g>
<g transform="translate(427.5 408.75)">
<a href="StructureDefinition-AbnormalityLymphNode-definitions.html#Observation.component:margin" target="_top">
<rect fill="LightYellow" stroke="Black" stroke-width="1.875" x="0" y="0" width="172.5" height="52.5" rx="3.75" ry="3.75" />
</a>
<a href="StructureDefinition-AbnormalityLymphNode-definitions.html#Observation.component:margin" target="_top">
<text x="86.25" y="22.5" text-anchor="middle">Margin</text>
</a>
<a href="StructureDefinition-AbnormalityLymphNode-definitions.html#Observation.component:margin" target="_top">
<text x="86.25" y="41.25" text-anchor="middle">CodeableConcept</text>
</a>
</g>
<line stroke="Black" stroke-width="1.875" marker-end="url(#arrowEnd)" x1="645" y1="425.625" x2="690" y2="425.625" />
<text x="648.75" y="421.875" text-anchor="left"></text>
<line stroke="Black" stroke-width="1.875" marker-start="url(#arrowStart)" x1="600" y1="435" x2="645" y2="435" />
<text x="603.75" y="431.25" text-anchor="left"></text>
<line stroke="Black" stroke-width="1.875" x1="645" y1="425.625" x2="645" y2="435" />
</g>
<g>
<g transform="translate(690 408.75)">
<a href="./ValueSet-MarginVS.html" target="_top">
<rect fill="LightGreen" stroke="Black" stroke-width="1.875" x="0" y="0" width="162" height="33.75" rx="3.75" ry="3.75" />
</a>
<a href="./ValueSet-MarginVS.html" target="_top">
<text x="81" y="22.5" text-anchor="middle">MarginValueSet</text>
</a>
</g>
</g>
<g>
<g transform="translate(427.5 468.75)">
<a href="StructureDefinition-AbnormalityLymphNode-definitions.html#Observation.component:mgDensity" target="_top">
<rect fill="LightYellow" stroke="Black" stroke-width="1.875" x="0" y="0" width="172.5" height="52.5" rx="3.75" ry="3.75" />
</a>
<a href="StructureDefinition-AbnormalityLymphNode-definitions.html#Observation.component:mgDensity" target="_top">
<text x="86.25" y="22.5" text-anchor="middle">Density</text>
</a>
<a href="StructureDefinition-AbnormalityLymphNode-definitions.html#Observation.component:mgDensity" target="_top">
<text x="86.25" y="41.25" text-anchor="middle">CodeableConcept</text>
</a>
</g>
<line stroke="Black" stroke-width="1.875" marker-end="url(#arrowEnd)" x1="645" y1="485.625" x2="690" y2="485.625" />
<text x="648.75" y="481.875" text-anchor="left"></text>
<line stroke="Black" stroke-width="1.875" marker-start="url(#arrowStart)" x1="600" y1="495" x2="645" y2="495" />
<text x="603.75" y="491.25" text-anchor="left"></text>
<line stroke="Black" stroke-width="1.875" x1="645" y1="485.625" x2="645" y2="495" />
</g>
<g>
<g transform="translate(690 468.75)">
<a href="./ValueSet-MGDensityVS.html" target="_top">
<rect fill="LightGreen" stroke="Black" stroke-width="1.875" x="0" y="0" width="214.5" height="33.75" rx="3.75" ry="3.75" />
</a>
<a href="./ValueSet-MGDensityVS.html" target="_top">
<text x="107.25" y="22.5" text-anchor="middle">MG Density ValueSet</text>
</a>
</g>
</g>
<g>
<g transform="translate(427.5 528.75)">
<a href="StructureDefinition-AbnormalityLymphNode-definitions.html#Observation.component:obsCount" target="_top">
<rect fill="LightYellow" stroke="Black" stroke-width="1.875" x="0" y="0" width="193.5" height="52.5" rx="3.75" ry="3.75" />
</a>
<a href="StructureDefinition-AbnormalityLymphNode-definitions.html#Observation.component:obsCount" target="_top">
<text x="96.75" y="22.5" text-anchor="middle">Observed Count</text>
</a>
<a href="StructureDefinition-AbnormalityLymphNode-definitions.html#Observation.component:obsCount" target="_top">
<text x="96.75" y="41.25" text-anchor="middle">Quantity or Range</text>
</a>
</g>
</g>
<g>
<g transform="translate(427.5 588.75)">
<a href="StructureDefinition-AbnormalityLymphNode-definitions.html#Observation.component:obsDistribution" target="_top">
<rect fill="LightYellow" stroke="Black" stroke-width="1.875" x="0" y="0" width="414" height="52.5" rx="3.75" ry="3.75" />
</a>
<a href="StructureDefinition-AbnormalityLymphNode-definitions.html#Observation.component:obsDistribution" target="_top">
<text x="207" y="22.5" text-anchor="middle">Observed distribution of abnormalities</text>
</a>
<a href="StructureDefinition-AbnormalityLymphNode-definitions.html#Observation.component:obsDistribution" target="_top">
<text x="207" y="41.25" text-anchor="middle">CodeableConcept</text>
</a>
</g>
<line stroke="Black" stroke-width="1.875" marker-end="url(#arrowEnd)" x1="886.5" y1="615" x2="931.5" y2="615" />
<text x="890.25" y="611.25" text-anchor="left"></text>
<line stroke="Black" stroke-width="1.875" marker-start="url(#arrowStart)" x1="841.5" y1="615" x2="886.5" y2="615" />
<text x="845.25" y="611.25" text-anchor="left"></text>
<line stroke="Black" stroke-width="1.875" x1="886.5" y1="615" x2="886.5" y2="615" />
</g>
<g>
<g transform="translate(931.5 588.75)">
<a href="./ValueSet-CalcificationDistributionVS.html" target="_top">
<rect fill="LightGreen" stroke="Black" stroke-width="1.875" x="0" y="0" width="287.99997" height="52.5" rx="3.75" ry="3.75" />
</a>
<a href="./ValueSet-CalcificationDistributionVS.html" target="_top">
<text x="143.99998" y="22.5" text-anchor="middle">Calcification Distribution</text>
</a>
<a href="./ValueSet-CalcificationDistributionVS.html" target="_top">
<text x="143.99998" y="41.25" text-anchor="middle">ValueSet</text>
</a>
</g>
</g>
<g>
<g transform="translate(427.5 648.75)">
<a href="StructureDefinition-AbnormalityLymphNode-definitions.html#Observation.component:obsDistRegionSize" target="_top">
<rect fill="LightYellow" stroke="Black" stroke-width="1.875" x="0" y="0" width="361.5" height="52.5" rx="3.75" ry="3.75" />
</a>
<a href="StructureDefinition-AbnormalityLymphNode-definitions.html#Observation.component:obsDistRegionSize" target="_top">
<text x="180.75" y="22.5" text-anchor="middle">Observed Distribution Region Size</text>
</a>
<a href="StructureDefinition-AbnormalityLymphNode-definitions.html#Observation.component:obsDistRegionSize" target="_top">
<text x="180.75" y="41.25" text-anchor="middle">Quantity or Range</text>
</a>
</g>
<line stroke="Black" stroke-width="1.875" marker-end="url(#arrowEnd)" x1="834" y1="675" x2="879" y2="675" />
<text x="837.75" y="671.25" text-anchor="left"></text>
<line stroke="Black" stroke-width="1.875" marker-start="url(#arrowStart)" x1="789" y1="675" x2="834" y2="675" />
<text x="792.75" y="671.25" text-anchor="left"></text>
<line stroke="Black" stroke-width="1.875" x1="834" y1="675" x2="834" y2="675" />
</g>
<g>
<g transform="translate(879 648.75)">
<a href="./ValueSet-UnitsOfLengthVS.html" target="_top">
<rect fill="LightGreen" stroke="Black" stroke-width="1.875" x="0" y="0" width="151.49998" height="52.5" rx="3.75" ry="3.75" />
</a>
<a href="./ValueSet-UnitsOfLengthVS.html" target="_top">
<text x="75.74999" y="22.5" text-anchor="middle">UnitsOfLength</text>
</a>
<a href="./ValueSet-UnitsOfLengthVS.html" target="_top">
<text x="75.74999" y="41.25" text-anchor="middle">ValueSet</text>
</a>
</g>
</g>
<g>
<g transform="translate(427.5 708.75)">
<a href="StructureDefinition-AbnormalityLymphNode-definitions.html#Observation.component:obsSize" target="_top">
<rect fill="LightYellow" stroke="Black" stroke-width="1.875" x="0" y="0" width="193.5" height="52.5" rx="3.75" ry="3.75" />
</a>
<a href="StructureDefinition-AbnormalityLymphNode-definitions.html#Observation.component:obsSize" target="_top">
<text x="96.75" y="22.5" text-anchor="middle">Observed Size</text>
</a>
<a href="StructureDefinition-AbnormalityLymphNode-definitions.html#Observation.component:obsSize" target="_top">
<text x="96.75" y="41.25" text-anchor="middle">Quantity or Range</text>
</a>
</g>
<line stroke="Black" stroke-width="1.875" marker-end="url(#arrowEnd)" x1="666" y1="735" x2="711" y2="735" />
<text x="669.75" y="731.25" text-anchor="left"></text>
<line stroke="Black" stroke-width="1.875" marker-start="url(#arrowStart)" x1="621" y1="735" x2="666" y2="735" />
<text x="624.75" y="731.25" text-anchor="left"></text>
<line stroke="Black" stroke-width="1.875" x1="666" y1="735" x2="666" y2="735" />
</g>
<g>
<g transform="translate(711 708.75)">
<a href="./ValueSet-UnitsOfLengthVS.html" target="_top">
<rect fill="LightGreen" stroke="Black" stroke-width="1.875" x="0" y="0" width="151.49998" height="52.5" rx="3.75" ry="3.75" />
</a>
<a href="./ValueSet-UnitsOfLengthVS.html" target="_top">
<text x="75.74999" y="22.5" text-anchor="middle">UnitsOfLength</text>
</a>
<a href="./ValueSet-UnitsOfLengthVS.html" target="_top">
<text x="75.74999" y="41.25" text-anchor="middle">ValueSet</text>
</a>
</g>
</g>
<g>
<g transform="translate(427.5 768.75)">
<a href="StructureDefinition-AbnormalityLymphNode-definitions.html#Observation.component:notPreviouslySeen" target="_top">
<rect fill="LightYellow" stroke="Black" stroke-width="1.875" x="0" y="0" width="214.5" height="52.5" rx="3.75" ry="3.75" />
</a>
<a href="StructureDefinition-AbnormalityLymphNode-definitions.html#Observation.component:notPreviouslySeen" target="_top">
<text x="107.25" y="22.5" text-anchor="middle">Not Previously Seen</text>
</a>
<a href="StructureDefinition-AbnormalityLymphNode-definitions.html#Observation.component:notPreviouslySeen" target="_top">
<text x="107.25" y="41.25" text-anchor="middle">CodeableConcept</text>
</a>
</g>
<line stroke="Black" stroke-width="1.875" marker-end="url(#arrowEnd)" x1="687" y1="795" x2="732" y2="795" />
<text x="690.75" y="791.25" text-anchor="left"></text>
<line stroke="Black" stroke-width="1.875" marker-start="url(#arrowStart)" x1="642" y1="795" x2="687" y2="795" />
<text x="645.75" y="791.25" text-anchor="left"></text>
<line stroke="Black" stroke-width="1.875" x1="687" y1="795" x2="687" y2="795" />
</g>
<g>
<g transform="translate(732 768.75)">
<a href="./ValueSet-NotPreviouslySeenVS.html" target="_top">
<rect fill="LightGreen" stroke="Black" stroke-width="1.875" x="0" y="0" width="193.5" height="52.5" rx="3.75" ry="3.75" />
</a>
<a href="./ValueSet-NotPreviouslySeenVS.html" target="_top">
<text x="96.75" y="22.5" text-anchor="middle">NotPreviouslySeen</text>
</a>
<a href="./ValueSet-NotPreviouslySeenVS.html" target="_top">
<text x="96.75" y="41.25" text-anchor="middle">ValueSet</text>
</a>
</g>
</g>
<g>
<g transform="translate(427.5 828.75)">
<a href="StructureDefinition-AbnormalityLymphNode-definitions.html#Observation.component:correspondsWith" target="_top">
<rect fill="LightYellow" stroke="Black" stroke-width="1.875" x="0" y="0" width="183" height="52.5" rx="3.75" ry="3.75" />
</a>
<a href="StructureDefinition-AbnormalityLymphNode-definitions.html#Observation.component:correspondsWith" target="_top">
<text x="91.5" y="22.5" text-anchor="middle">Corresponds With</text>
</a>
<a href="StructureDefinition-AbnormalityLymphNode-definitions.html#Observation.component:correspondsWith" target="_top">
<text x="91.5" y="41.25" text-anchor="middle">CodeableConcept</text>
</a>
</g>
<line stroke="Black" stroke-width="1.875" marker-end="url(#arrowEnd)" x1="655.5" y1="855" x2="700.5" y2="855" />
<text x="659.25" y="851.25" text-anchor="left"></text>
<line stroke="Black" stroke-width="1.875" marker-start="url(#arrowStart)" x1="610.5" y1="855" x2="655.5" y2="855" />
<text x="614.25" y="851.25" text-anchor="left"></text>
<line stroke="Black" stroke-width="1.875" x1="655.5" y1="855" x2="655.5" y2="855" />
</g>
<g>
<g transform="translate(700.5 828.75)">
<a href="./ValueSet-CorrespondsWithVS.html" target="_top">
<rect fill="LightGreen" stroke="Black" stroke-width="1.875" x="0" y="0" width="172.5" height="52.5" rx="3.75" ry="3.75" />
</a>
<a href="./ValueSet-CorrespondsWithVS.html" target="_top">
<text x="86.25" y="22.5" text-anchor="middle">CorrespondsWith</text>
</a>
<a href="./ValueSet-CorrespondsWithVS.html" target="_top">
<text x="86.25" y="41.25" text-anchor="middle">ValueSet</text>
</a>
</g>
</g>
<g>
<g transform="translate(427.5 888.75)">
<a href="StructureDefinition-AbnormalityLymphNode-definitions.html#Observation.component:PreviouslyDemonstratedBy" target="_top">
<rect fill="LightYellow" stroke="Black" stroke-width="1.875" x="0" y="0" width="287.99997" height="52.5" rx="3.75" ry="3.75" />
</a>
<a href="StructureDefinition-AbnormalityLymphNode-definitions.html#Observation.component:PreviouslyDemonstratedBy" target="_top">
<text x="143.99998" y="22.5" text-anchor="middle">Previously Demonstrated By</text>
</a>
<a href="StructureDefinition-AbnormalityLymphNode-definitions.html#Observation.component:PreviouslyDemonstratedBy" target="_top">
<text x="143.99998" y="41.25" text-anchor="middle">CodeableConcept</text>
</a>
</g>
<line stroke="Black" stroke-width="1.875" marker-end="url(#arrowEnd)" x1="760.49994" y1="915" x2="805.49994" y2="915" />
<text x="764.24994" y="911.25" text-anchor="left"></text>
<line stroke="Black" stroke-width="1.875" marker-start="url(#arrowStart)" x1="715.49994" y1="915" x2="760.49994" y2="915" />
<text x="719.24994" y="911.25" text-anchor="left"></text>
<line stroke="Black" stroke-width="1.875" x1="760.49994" y1="915" x2="760.49994" y2="915" />
</g>
<g>
<g transform="translate(805.49994 888.75)">
<a href="./ValueSet-PreviouslyDemonstratedByVS.html" target="_top">
<rect fill="LightGreen" stroke="Black" stroke-width="1.875" x="0" y="0" width="267" height="52.5" rx="3.75" ry="3.75" />
</a>
<a href="./ValueSet-PreviouslyDemonstratedByVS.html" target="_top">
<text x="133.5" y="22.5" text-anchor="middle">PreviouslyDemonstratedBy</text>
</a>
<a href="./ValueSet-PreviouslyDemonstratedByVS.html" target="_top">
<text x="133.5" y="41.25" text-anchor="middle">ValueSet</text>
</a>
</g>
</g>
<g>
<g transform="translate(427.5 948.75)">
<a href="StructureDefinition-AbnormalityLymphNode-definitions.html#Observation.bodySite.extension:breastBodyLocation" target="_top">
<rect fill="LightSalmon" stroke="Black" stroke-width="1.875" x="0" y="0" width="225" height="52.5" rx="3.75" ry="3.75" />
</a>
<a href="StructureDefinition-AbnormalityLymphNode-definitions.html#Observation.bodySite.extension:breastBodyLocation" target="_top">
<text x="112.5" y="22.5" text-anchor="middle">Breast Body Location</text>
</a>
<a href="StructureDefinition-AbnormalityLymphNode-definitions.html#Observation.bodySite.extension:breastBodyLocation" target="_top">
<text x="112.5" y="41.25" text-anchor="middle">extension</text>
</a>
</g>
<line stroke="Black" stroke-width="1.875" marker-end="url(#arrowEnd)" x1="697.5" y1="965.625" x2="742.5" y2="965.625" />
<text x="701.25" y="961.875" text-anchor="left">1..1</text>
<line stroke="Black" stroke-width="1.875" marker-start="url(#arrowStart)" x1="652.5" y1="975" x2="697.5" y2="975" />
<text x="656.25" y="971.25" text-anchor="left"></text>
<line stroke="Black" stroke-width="1.875" x1="697.5" y1="965.625" x2="697.5" y2="975" />
</g>
<g>
<g transform="translate(742.5 948.75)">
<a href="./StructureDefinition-BreastBodyLocationExtension.html" target="_top">
<rect fill="LightCyan" stroke="Black" stroke-width="1.875" x="0" y="0" width="225" height="33.75" rx="3.75" ry="3.75" />
</a>
<a href="./StructureDefinition-BreastBodyLocationExtension.html" target="_top">
<text x="112.5" y="22.5" text-anchor="middle">Breast Body
Location</text>
</a>
</g>
</g>
</svg>
