<?xml version="1.0"?>
<!DOCTYPE svg PUBLIC "-//W3C//DTD SVG 1.1//EN" "http://www.w3.org/Graphics/SVG/1.1/DTD/svg11.dtd">
<svg xmlns="http://www.w3.org/2000/svg" version="1.1" width="558" height="240">
<defs>
<marker id="arrowStart" markerWidth="3.75" markerHeight="3.75" markerUnits="px" refX="1.875" refY="1.875">
<circle fill="Black" stroke-width="0" cx="1.875" cy="1.875" r="1.875" />
</marker>
<marker id="arrowEnd" markerWidth="7.5" markerHeight="7.5" markerUnits="px" refX="7.5" refY="3.75">
<polygon fill="Black" stroke-width="0" points="0 0 7.5 3.75 0 7.5" />
</marker>
</defs>
<g>
<g transform="translate(7.5 7.5)">
<a href="./StructureDefinition-BreastRadObservationFragment.html" target="_top">
<rect fill="LightCyan" stroke="Black" stroke-width="1.875" x="0" y="0" width="130.5" height="52.5" rx="3.75" ry="3.75" />
</a>
<a href="./StructureDefinition-BreastRadObservationFragment.html" target="_top">
<text x="65.25" y="22.5" text-anchor="middle">Observation</text>
</a>
<a href="./StructureDefinition-BreastRadObservationFragment.html" target="_top">
<text x="65.25" y="41.25" text-anchor="middle">Fragment</text>
</a>
</g>
<g transform="translate(7.5 67.5)">
<a href="./StructureDefinition-BreastRadObservationNoComponentFragment.html" target="_top">
<rect fill="LightCyan" stroke="Black" stroke-width="1.875" x="0" y="0" width="141" height="71.25" rx="3.75" ry="3.75" />
</a>
<a href="./StructureDefinition-BreastRadObservationNoComponentFragment.html" target="_top">
<text x="70.5" y="22.5" text-anchor="middle">Observation</text>
</a>
<a href="./StructureDefinition-BreastRadObservationNoComponentFragment.html" target="_top">
<text x="70.5" y="41.25" text-anchor="middle">No Component</text>
</a>
<a href="./StructureDefinition-BreastRadObservationNoComponentFragment.html" target="_top">
<text x="70.5" y="60" text-anchor="middle">Fragment</text>
</a>
</g>
<g transform="translate(7.5 146.25)">
<a href="./StructureDefinition-BreastRadObservationNoValueFragment.html" target="_top">
<rect fill="LightCyan" stroke="Black" stroke-width="1.875" x="0" y="0" width="130.5" height="71.25" rx="3.75" ry="3.75" />
</a>
<a href="./StructureDefinition-BreastRadObservationNoValueFragment.html" target="_top">
<text x="65.25" y="22.5" text-anchor="middle">Observation</text>
</a>
<a href="./StructureDefinition-BreastRadObservationNoValueFragment.html" target="_top">
<text x="65.25" y="41.25" text-anchor="middle">NoValue</text>
</a>
<a href="./StructureDefinition-BreastRadObservationNoValueFragment.html" target="_top">
<text x="65.25" y="60" text-anchor="middle">Fragment</text>
</a>
</g>
<line stroke="Black" stroke-width="1.875" marker-end="url(#arrowEnd)" x1="178.5" y1="33.75" x2="208.5" y2="33.75" />
<line stroke="Black" stroke-width="1.875" marker-start="url(#arrowStart)" x1="138" y1="33.75" x2="178.5" y2="33.75" />
<line stroke="Black" stroke-width="1.875" marker-start="url(#arrowStart)" x1="148.5" y1="103.125" x2="178.5" y2="103.125" />
<line stroke="Black" stroke-width="1.875" marker-start="url(#arrowStart)" x1="138" y1="181.875" x2="178.5" y2="181.875" />
<line stroke="Black" stroke-width="1.875" x1="178.5" y1="33.75" x2="178.5" y2="181.875" />
</g>
<g>
<g transform="translate(208.5 7.5)">
<rect fill="Green" stroke="Black" stroke-width="1.875" x="0" y="0" width="99" height="52.5" rx="3.75" ry="3.75" />
<text x="49.5" y="22.5" text-anchor="middle">Section</text>
<text x="49.5" y="41.25" text-anchor="middle">Fragment</text>
</g>
<line stroke="Black" stroke-width="1.875" marker-end="url(#arrowEnd)" x1="337.5" y1="24.375" x2="367.5" y2="24.375" />
<line stroke="Black" stroke-width="1.875" marker-end="url(#arrowEnd)" x1="337.5" y1="65.625" x2="367.5" y2="65.625" />
<line stroke="Black" stroke-width="1.875" marker-end="url(#arrowEnd)" x1="337.5" y1="106.875" x2="367.5" y2="106.875" />
<line stroke="Black" stroke-width="1.875" marker-end="url(#arrowEnd)" x1="337.5" y1="148.125" x2="367.5" y2="148.125" />
<line stroke="Black" stroke-width="1.875" marker-start="url(#arrowStart)" x1="307.5" y1="33.75" x2="337.5" y2="33.75" />
<line stroke="Black" stroke-width="1.875" x1="337.5" y1="24.375" x2="337.5" y2="148.125" />
</g>
<g>
<g transform="translate(367.5 7.5)">
<a href="./StructureDefinition-MGFinding.html" target="_top">
<rect fill="LightBlue" stroke="Black" stroke-width="1.875" x="0" y="0" width="120" height="33.75" rx="3.75" ry="3.75" />
</a>
<a href="./StructureDefinition-MGFinding.html" target="_top">
<text x="60" y="22.5" text-anchor="middle">MG Finding</text>
</a>
</g>
<g transform="translate(367.5 48.75)">
<a href="./StructureDefinition-MRIFinding.html" target="_top">
<rect fill="LightBlue" stroke="Black" stroke-width="1.875" x="0" y="0" width="130.5" height="33.75" rx="3.75" ry="3.75" />
</a>
<a href="./StructureDefinition-MRIFinding.html" target="_top">
<text x="65.25" y="22.5" text-anchor="middle">MRI Finding</text>
</a>
</g>
<g transform="translate(367.5 90)">
<a href="./StructureDefinition-NMFinding.html" target="_top">
<rect fill="LightBlue" stroke="Black" stroke-width="1.875" x="0" y="0" width="120" height="33.75" rx="3.75" ry="3.75" />
</a>
<a href="./StructureDefinition-NMFinding.html" target="_top">
<text x="60" y="22.5" text-anchor="middle">NM Finding</text>
</a>
</g>
<g transform="translate(367.5 131.25)">
<a href="./StructureDefinition-USFinding.html" target="_top">
<rect fill="LightBlue" stroke="Black" stroke-width="1.875" x="0" y="0" width="120" height="33.75" rx="3.75" ry="3.75" />
</a>
<a href="./StructureDefinition-USFinding.html" target="_top">
<text x="60" y="22.5" text-anchor="middle">US Finding</text>
</a>
</g>
</g>
</svg>
