<?xml version="1.0"?>
<!DOCTYPE svg PUBLIC "-//W3C//DTD SVG 1.1//EN" "http://www.w3.org/Graphics/SVG/1.1/DTD/svg11.dtd">
<svg xmlns="http://www.w3.org/2000/svg" version="1.1" width="577.5" height="270">
<defs>
<marker id="arrowStart" markerWidth="3.75" markerHeight="3.75" markerUnits="px" refX="1.875" refY="1.875">
<circle fill="Black" stroke-width="0" cx="1.875" cy="1.875" r="1.875" />
</marker>
<marker id="arrowEnd" markerWidth="7.5" markerHeight="7.5" markerUnits="px" refX="7.5" refY="3.75">
<polygon fill="Black" stroke-width="0" points="0 0 7.5 3.75 0 7.5" />
</marker>
</defs>
<g>
<g transform="translate(7.5 7.5)">
<rect fill="Green" stroke="Black" stroke-width="1.875" x="0" y="0" width="78" height="33.75" rx="3.75" ry="3.75" />
<text x="39" y="22.5" text-anchor="middle">Common</text>
</g>
<line stroke="Black" stroke-width="1.875" marker-end="url(#arrowEnd)" x1="115.5" y1="24.375" x2="145.5" y2="24.375" />
<line stroke="Black" stroke-width="1.875" marker-end="url(#arrowEnd)" x1="115.5" y1="65.625" x2="145.5" y2="65.625" />
<line stroke="Black" stroke-width="1.875" marker-end="url(#arrowEnd)" x1="115.5" y1="106.875" x2="145.5" y2="106.875" />
<line stroke="Black" stroke-width="1.875" marker-end="url(#arrowEnd)" x1="115.5" y1="148.125" x2="145.5" y2="148.125" />
<line stroke="Black" stroke-width="1.875" marker-end="url(#arrowEnd)" x1="115.5" y1="189.375" x2="145.5" y2="189.375" />
<line stroke="Black" stroke-width="1.875" marker-end="url(#arrowEnd)" x1="115.5" y1="230.625" x2="145.5" y2="230.625" />
<line stroke="Black" stroke-width="1.875" marker-start="url(#arrowStart)" x1="85.5" y1="24.375" x2="115.5" y2="24.375" />
<line stroke="Black" stroke-width="1.875" x1="115.5" y1="24.375" x2="115.5" y2="230.625" />
</g>
<g>
<g transform="translate(145.5 7.5)">
<a href="./StructureDefinition-ImageInstanceExtension.html" target="_top">
<rect fill="LightBlue" stroke="Black" stroke-width="1.875" x="0" y="0" width="267" height="33.75" rx="3.75" ry="3.75" />
</a>
<a href="./StructureDefinition-ImageInstanceExtension.html" target="_top">
<text x="133.5" y="22.5" text-anchor="middle">Image Instance Extension</text>
</a>
</g>
<g transform="translate(145.5 48.75)">
<a href="./StructureDefinition-ImageRegionExtension.html" target="_top">
<rect fill="LightBlue" stroke="Black" stroke-width="1.875" x="0" y="0" width="246" height="33.75" rx="3.75" ry="3.75" />
</a>
<a href="./StructureDefinition-ImageRegionExtension.html" target="_top">
<text x="123" y="22.5" text-anchor="middle">Image Region Extension</text>
</a>
</g>
<g transform="translate(145.5 90)">
<a href="./StructureDefinition-ImageSeriesExtension.html" target="_top">
<rect fill="LightBlue" stroke="Black" stroke-width="1.875" x="0" y="0" width="246" height="33.75" rx="3.75" ry="3.75" />
</a>
<a href="./StructureDefinition-ImageSeriesExtension.html" target="_top">
<text x="123" y="22.5" text-anchor="middle">Image Series Extension</text>
</a>
</g>
<g transform="translate(145.5 131.25)">
<a href="./StructureDefinition-ImageStudyDerivedFromExtension.html" target="_top">
<rect fill="LightBlue" stroke="Black" stroke-width="1.875" x="0" y="0" width="372" height="33.75" rx="3.75" ry="3.75" />
</a>
<a href="./StructureDefinition-ImageStudyDerivedFromExtension.html" target="_top">
<text x="186" y="22.5" text-anchor="middle">Image Study Derived From Extension</text>
</a>
</g>
<g transform="translate(145.5 172.5)">
<a href="./StructureDefinition-ImageStudyExtension.html" target="_top">
<rect fill="LightBlue" stroke="Black" stroke-width="1.875" x="0" y="0" width="235.5" height="33.75" rx="3.75" ry="3.75" />
</a>
<a href="./StructureDefinition-ImageStudyExtension.html" target="_top">
<text x="117.75" y="22.5" text-anchor="middle">Image Study Extension</text>
</a>
</g>
<g transform="translate(145.5 213.75)">
<a href="./StructureDefinition-ImagingContextExtension.html" target="_top">
<rect fill="LightBlue" stroke="Black" stroke-width="1.875" x="0" y="0" width="277.5" height="33.75" rx="3.75" ry="3.75" />
</a>
<a href="./StructureDefinition-ImagingContextExtension.html" target="_top">
<text x="138.75" y="22.5" text-anchor="middle">Imaging Context Extension</text>
</a>
</g>
</g>
</svg>
