<?xml version="1.0"?>
<!DOCTYPE svg PUBLIC "-//W3C//DTD SVG 1.1//EN" "http://www.w3.org/Graphics/SVG/1.1/DTD/svg11.dtd">
<svg xmlns="http://www.w3.org/2000/svg" version="1.1" width="513" height="247.5">
<defs>
<marker id="arrowStart" markerWidth="3.75" markerHeight="3.75" markerUnits="px" refX="1.875" refY="1.875">
<circle fill="Black" stroke-width="0" cx="1.875" cy="1.875" r="1.875" />
</marker>
<marker id="arrowEnd" markerWidth="7.5" markerHeight="7.5" markerUnits="px" refX="7.5" refY="3.75">
<polygon fill="Black" stroke-width="0" points="0 0 7.5 3.75 0 7.5" />
</marker>
</defs>
<g>
<g transform="translate(7.5 7.5)">
<rect fill="LightCyan" stroke="Black" stroke-width="1.875" x="0" y="0" width="130.5" height="52.5" rx="3.75" ry="3.75" />
<a href="./StructureDefinition-BreastRadObservationFragment.html" target="_top">
<title>'BreastRadObservationFragment'</title>
<text x="65.25" y="22.5" text-anchor="middle">Observation</text>
</a>
<a href="./StructureDefinition-BreastRadObservationFragment.html" target="_top">
<title>'BreastRadObservationFragment'</title>
<text x="65.25" y="41.25" text-anchor="middle">Fragment</text>
</a>
</g>
<g transform="translate(7.5 67.5)">
<rect fill="LightCyan" stroke="Black" stroke-width="1.875" x="0" y="0" width="141" height="71.25" rx="3.75" ry="3.75" />
<a href="./StructureDefinition-BreastRadObservationNoComponentFragment.html" target="_top">
<title>'BreastRadObservationNoComponentFragment'</title>
<text x="70.5" y="22.5" text-anchor="middle">Observation</text>
</a>
<a href="./StructureDefinition-BreastRadObservationNoComponentFragment.html" target="_top">
<title>'BreastRadObservationNoComponentFragment'</title>
<text x="70.5" y="41.25" text-anchor="middle">No Component</text>
</a>
<a href="./StructureDefinition-BreastRadObservationNoComponentFragment.html" target="_top">
<title>'BreastRadObservationNoComponentFragment'</title>
<text x="70.5" y="60" text-anchor="middle">Fragment</text>
</a>
</g>
<g transform="translate(7.5 146.25)">
<rect fill="LightCyan" stroke="Black" stroke-width="1.875" x="0" y="0" width="130.5" height="71.25" rx="3.75" ry="3.75" />
<a href="./StructureDefinition-BreastRadObservationNoValueFragment.html" target="_top">
<title>'BreastRadObservationNoValueFragment'</title>
<text x="65.25" y="22.5" text-anchor="middle">Observation</text>
</a>
<a href="./StructureDefinition-BreastRadObservationNoValueFragment.html" target="_top">
<title>'BreastRadObservationNoValueFragment'</title>
<text x="65.25" y="41.25" text-anchor="middle">NoValue</text>
</a>
<a href="./StructureDefinition-BreastRadObservationNoValueFragment.html" target="_top">
<title>'BreastRadObservationNoValueFragment'</title>
<text x="65.25" y="60" text-anchor="middle">Fragment</text>
</a>
</g>
<line stroke="Black" stroke-width="1.875" marker-end="url(#arrowEnd)" x1="163.5" y1="33.75" x2="193.5" y2="33.75" />
<line stroke="Black" stroke-width="1.875" marker-start="url(#arrowStart)" x1="138" y1="33.75" x2="163.5" y2="33.75" />
<line stroke="Black" stroke-width="1.875" marker-start="url(#arrowStart)" x1="148.5" y1="103.125" x2="163.5" y2="103.125" />
<line stroke="Black" stroke-width="1.875" marker-start="url(#arrowStart)" x1="138" y1="181.875" x2="163.5" y2="181.875" />
<line stroke="Black" stroke-width="1.875" x1="163.5" y1="33.75" x2="163.5" y2="181.875" />
</g>
<g>
<g transform="translate(193.5 7.5)">
<rect fill="Green" stroke="Black" stroke-width="1.875" x="0" y="0" width="99" height="52.5" rx="3.75" ry="3.75" />
<text x="49.5" y="22.5" text-anchor="middle">Section</text>
<text x="49.5" y="41.25" text-anchor="middle">Fragment</text>
</g>
<line stroke="Black" stroke-width="1.875" marker-end="url(#arrowEnd)" x1="307.5" y1="33.75" x2="337.5" y2="33.75" />
<line stroke="Black" stroke-width="1.875" marker-end="url(#arrowEnd)" x1="307.5" y1="84.375" x2="337.5" y2="84.375" />
<line stroke="Black" stroke-width="1.875" marker-end="url(#arrowEnd)" x1="307.5" y1="125.625" x2="337.5" y2="125.625" />
<line stroke="Black" stroke-width="1.875" marker-end="url(#arrowEnd)" x1="307.5" y1="166.875" x2="337.5" y2="166.875" />
<line stroke="Black" stroke-width="1.875" marker-end="url(#arrowEnd)" x1="307.5" y1="208.125" x2="337.5" y2="208.125" />
<line stroke="Black" stroke-width="1.875" marker-start="url(#arrowStart)" x1="292.5" y1="33.75" x2="307.5" y2="33.75" />
<line stroke="Black" stroke-width="1.875" x1="307.5" y1="33.75" x2="307.5" y2="208.125" />
</g>
<g>
<g transform="translate(337.5 7.5)">
<rect fill="LightBlue" stroke="Black" stroke-width="1.875" x="0" y="0" width="120" height="52.5" rx="3.75" ry="3.75" />
<a href="./StructureDefinition-AssociatedFeatures.html" target="_top">
<title>'AssociatedFeatures'</title>
<text x="60" y="22.5" text-anchor="middle">Associated</text>
</a>
<a href="./StructureDefinition-AssociatedFeatures.html" target="_top">
<title>'AssociatedFeatures'</title>
<text x="60" y="41.25" text-anchor="middle">Features</text>
</a>
</g>
<g transform="translate(337.5 67.5)">
<rect fill="LightBlue" stroke="Black" stroke-width="1.875" x="0" y="0" width="120" height="33.75" rx="3.75" ry="3.75" />
<a href="./StructureDefinition-MGFinding.html" target="_top">
<title>'MGFinding'</title>
<text x="60" y="22.5" text-anchor="middle">MG Finding</text>
</a>
</g>
<g transform="translate(337.5 108.75)">
<rect fill="LightBlue" stroke="Black" stroke-width="1.875" x="0" y="0" width="130.5" height="33.75" rx="3.75" ry="3.75" />
<a href="./StructureDefinition-MRIFinding.html" target="_top">
<title>'MRIFinding'</title>
<text x="65.25" y="22.5" text-anchor="middle">MRI Finding</text>
</a>
</g>
<g transform="translate(337.5 150)">
<rect fill="LightBlue" stroke="Black" stroke-width="1.875" x="0" y="0" width="120" height="33.75" rx="3.75" ry="3.75" />
<a href="./StructureDefinition-NMFinding.html" target="_top">
<title>'NMFinding'</title>
<text x="60" y="22.5" text-anchor="middle">NM Finding</text>
</a>
</g>
<g transform="translate(337.5 191.25)">
<rect fill="LightBlue" stroke="Black" stroke-width="1.875" x="0" y="0" width="120" height="33.75" rx="3.75" ry="3.75" />
<a href="./StructureDefinition-USFinding.html" target="_top">
<title>'USFinding'</title>
<text x="60" y="22.5" text-anchor="middle">US Finding</text>
</a>
</g>
</g>
</svg>
