<?xml version="1.0"?>
<!DOCTYPE svg PUBLIC "-//W3C//DTD SVG 1.1//EN" "http://www.w3.org/Graphics/SVG/1.1/DTD/svg11.dtd">
<svg xmlns="http://www.w3.org/2000/svg" version="1.1" width="642.00006" height="146.25">
<defs>
<marker id="arrowStart" markerWidth="3.75" markerHeight="3.75" markerUnits="px" refX="1.875" refY="1.875">
<circle fill="Black" stroke-width="0" cx="1.875" cy="1.875" r="1.875" />
</marker>
<marker id="arrowEnd" markerWidth="7.5" markerHeight="7.5" markerUnits="px" refX="7.5" refY="3.75">
<polygon fill="Black" stroke-width="0" points="0 0 7.5 3.75 0 7.5" />
</marker>
</defs>
<g>
<g transform="translate(7.5 7.5)">
<rect fill="LightCyan" stroke="Black" stroke-width="1.875" x="0" y="0" width="78" height="33.75" rx="3.75" ry="3.75" />
<a href="./StructureDefinition-HeaderFragment.html" target="_top">
<title>'HeaderFragment'</title>
<text x="39" y="22.5" text-anchor="middle">Common</text>
</a>
</g>
<line stroke="Black" stroke-width="1.875" marker-end="url(#arrowEnd)" x1="115.5" y1="61.875" x2="145.5" y2="61.875" />
<line stroke="Black" stroke-width="1.875" marker-start="url(#arrowStart)" x1="85.5" y1="24.375" x2="115.5" y2="24.375" />
<line stroke="Black" stroke-width="1.875" x1="115.5" y1="24.375" x2="115.5" y2="61.875" />
</g>
<g>
<g transform="translate(145.5 7.5)">
<rect fill="Green" stroke="Black" stroke-width="1.875" x="0" y="0" width="120" height="108.75" rx="3.75" ry="3.75" />
<text x="60" y="22.5" text-anchor="middle">Breast</text>
<text x="60" y="41.25" text-anchor="middle">Body</text>
<text x="60" y="60" text-anchor="middle">Location</text>
<text x="60" y="78.75" text-anchor="middle">Fragment</text>
<text x="60" y="97.5" text-anchor="middle">(Required)</text>
</g>
<line stroke="Black" stroke-width="1.875" marker-end="url(#arrowEnd)" x1="295.5" y1="24.375" x2="325.5" y2="24.375" />
<line stroke="Black" stroke-width="1.875" marker-end="url(#arrowEnd)" x1="295.5" y1="65.625" x2="325.5" y2="65.625" />
<line stroke="Black" stroke-width="1.875" marker-end="url(#arrowEnd)" x1="295.5" y1="106.875" x2="325.5" y2="106.875" />
<line stroke="Black" stroke-width="1.875" marker-start="url(#arrowStart)" x1="265.5" y1="61.875" x2="295.5" y2="61.875" />
<line stroke="Black" stroke-width="1.875" x1="295.5" y1="24.375" x2="295.5" y2="106.875" />
</g>
<g>
<g transform="translate(325.5 7.5)">
<rect fill="LightBlue" stroke="Black" stroke-width="1.875" x="0" y="0" width="256.5" height="33.75" rx="3.75" ry="3.75" />
<a href="./StructureDefinition-CommonTargetsFragment.html" target="_top">
<title>'CommonTargetsFragment'</title>
<text x="128.25" y="22.5" text-anchor="middle">Common Targets Fragment</text>
</a>
</g>
<g transform="translate(325.5 48.75)">
<rect fill="LightBlue" stroke="Black" stroke-width="1.875" x="0" y="0" width="183" height="33.75" rx="3.75" ry="3.75" />
<a href="./StructureDefinition-ObservedFeature.html" target="_top">
<title>'ObservedFeature'</title>
<text x="91.5" y="22.5" text-anchor="middle">Observed Feature</text>
</a>
</g>
<g transform="translate(325.5 90)">
<rect fill="LightBlue" stroke="Black" stroke-width="1.875" x="0" y="0" width="246" height="33.75" rx="3.75" ry="3.75" />
<a href="./StructureDefinition-ShapeTargetsFragment.html" target="_top">
<title>'ShapeTargetsFragment'</title>
<text x="123" y="22.5" text-anchor="middle">Shape Targets Fragment</text>
</a>
</g>
</g>
</svg>
