<?xml version="1.0"?>
<!DOCTYPE svg PUBLIC "-//W3C//DTD SVG 1.1//EN" "http://www.w3.org/Graphics/SVG/1.1/DTD/svg11.dtd">
<svg xmlns="http://www.w3.org/2000/svg" version="1.1" width="673.5" height="945">
<defs>
<marker id="arrowStart" markerWidth="3.75" markerHeight="3.75" markerUnits="px" refX="1.875" refY="1.875">
<circle fill="Black" stroke-width="0" cx="1.875" cy="1.875" r="1.875" />
</marker>
<marker id="arrowEnd" markerWidth="7.5" markerHeight="7.5" markerUnits="px" refX="7.5" refY="3.75">
<polygon fill="Black" stroke-width="0" points="0 0 7.5 3.75 0 7.5" />
</marker>
</defs>
<g>
<g transform="translate(7.5 7.5)">
<rect fill="LightCyan" stroke="Black" stroke-width="1.875" x="0" y="0" width="130.5" height="52.5" rx="3.75" ry="3.75" />
<a href="./StructureDefinition-BreastRadObservationFragment.html" target="_top">
<title>'BreastRadObservationFragment'</title>
<text x="65.25" y="22.5" text-anchor="middle">Observation</text>
</a>
<a href="./StructureDefinition-BreastRadObservationFragment.html" target="_top">
<title>'BreastRadObservationFragment'</title>
<text x="65.25" y="41.25" text-anchor="middle">Fragment</text>
</a>
</g>
<line stroke="Black" stroke-width="1.875" marker-end="url(#arrowEnd)" x1="168" y1="43.125" x2="198" y2="43.125" />
<line stroke="Black" stroke-width="1.875" marker-start="url(#arrowStart)" x1="138" y1="33.75" x2="168" y2="33.75" />
<line stroke="Black" stroke-width="1.875" x1="168" y1="33.75" x2="168" y2="43.125" />
</g>
<g>
<g transform="translate(198 7.5)">
<rect fill="Green" stroke="Black" stroke-width="1.875" x="0" y="0" width="130.5" height="71.25" rx="3.75" ry="3.75" />
<text x="65.25" y="22.5" text-anchor="middle">NoDevice</text>
<text x="65.25" y="41.25" text-anchor="middle">Observation</text>
<text x="65.25" y="60" text-anchor="middle">Fragment</text>
</g>
<line stroke="Black" stroke-width="1.875" marker-end="url(#arrowEnd)" x1="358.5" y1="33.75" x2="388.5" y2="33.75" />
<line stroke="Black" stroke-width="1.875" marker-end="url(#arrowEnd)" x1="358.5" y1="84.375" x2="388.5" y2="84.375" />
<line stroke="Black" stroke-width="1.875" marker-end="url(#arrowEnd)" x1="358.5" y1="125.625" x2="388.5" y2="125.625" />
<line stroke="Black" stroke-width="1.875" marker-end="url(#arrowEnd)" x1="358.5" y1="166.875" x2="388.5" y2="166.875" />
<line stroke="Black" stroke-width="1.875" marker-end="url(#arrowEnd)" x1="358.5" y1="208.125" x2="388.5" y2="208.125" />
<line stroke="Black" stroke-width="1.875" marker-end="url(#arrowEnd)" x1="358.5" y1="249.375" x2="388.5" y2="249.375" />
<line stroke="Black" stroke-width="1.875" marker-end="url(#arrowEnd)" x1="358.5" y1="290.625" x2="388.5" y2="290.625" />
<line stroke="Black" stroke-width="1.875" marker-end="url(#arrowEnd)" x1="358.5" y1="331.875" x2="388.5" y2="331.875" />
<line stroke="Black" stroke-width="1.875" marker-end="url(#arrowEnd)" x1="358.5" y1="373.125" x2="388.5" y2="373.125" />
<line stroke="Black" stroke-width="1.875" marker-end="url(#arrowEnd)" x1="358.5" y1="414.375" x2="388.5" y2="414.375" />
<line stroke="Black" stroke-width="1.875" marker-end="url(#arrowEnd)" x1="358.5" y1="455.625" x2="388.5" y2="455.625" />
<line stroke="Black" stroke-width="1.875" marker-end="url(#arrowEnd)" x1="358.5" y1="506.25" x2="388.5" y2="506.25" />
<line stroke="Black" stroke-width="1.875" marker-end="url(#arrowEnd)" x1="358.5" y1="566.25" x2="388.5" y2="566.25" />
<line stroke="Black" stroke-width="1.875" marker-end="url(#arrowEnd)" x1="358.5" y1="616.875" x2="388.5" y2="616.875" />
<line stroke="Black" stroke-width="1.875" marker-end="url(#arrowEnd)" x1="358.5" y1="658.125" x2="388.5" y2="658.125" />
<line stroke="Black" stroke-width="1.875" marker-end="url(#arrowEnd)" x1="358.5" y1="699.375" x2="388.5" y2="699.375" />
<line stroke="Black" stroke-width="1.875" marker-end="url(#arrowEnd)" x1="358.5" y1="740.625" x2="388.5" y2="740.625" />
<line stroke="Black" stroke-width="1.875" marker-end="url(#arrowEnd)" x1="358.5" y1="781.875" x2="388.5" y2="781.875" />
<line stroke="Black" stroke-width="1.875" marker-end="url(#arrowEnd)" x1="358.5" y1="823.125" x2="388.5" y2="823.125" />
<line stroke="Black" stroke-width="1.875" marker-end="url(#arrowEnd)" x1="358.5" y1="864.375" x2="388.5" y2="864.375" />
<line stroke="Black" stroke-width="1.875" marker-end="url(#arrowEnd)" x1="358.5" y1="905.625" x2="388.5" y2="905.625" />
<line stroke="Black" stroke-width="1.875" marker-start="url(#arrowStart)" x1="328.5" y1="43.125" x2="358.5" y2="43.125" />
<line stroke="Black" stroke-width="1.875" x1="358.5" y1="33.75" x2="358.5" y2="905.625" />
</g>
<g>
<g transform="translate(388.5 7.5)">
<rect fill="LightBlue" stroke="Black" stroke-width="1.875" x="0" y="0" width="120" height="52.5" rx="3.75" ry="3.75" />
<a href="./StructureDefinition-ConsistentWith.html" target="_top">
<title>'ConsistentWith'</title>
<text x="60" y="22.5" text-anchor="middle">Consistent</text>
</a>
<a href="./StructureDefinition-ConsistentWith.html" target="_top">
<title>'ConsistentWith'</title>
<text x="60" y="41.25" text-anchor="middle">With</text>
</a>
</g>
<g transform="translate(388.5 67.5)">
<rect fill="LightBlue" stroke="Black" stroke-width="1.875" x="0" y="0" width="214.5" height="33.75" rx="3.75" ry="3.75" />
<a href="./StructureDefinition-MGAbnormalityArchitecturalDistortion.html" target="_top">
<title>'MGAbnormalityArchitecturalDistortion'</title>
<text x="107.25" y="22.5" text-anchor="middle">MG Arch. Distortion</text>
</a>
</g>
<g transform="translate(388.5 108.75)">
<rect fill="LightBlue" stroke="Black" stroke-width="1.875" x="0" y="0" width="141" height="33.75" rx="3.75" ry="3.75" />
<a href="./StructureDefinition-MGAbnormalityAsymmetry.html" target="_top">
<title>'MGAbnormalityAsymmetry'</title>
<text x="70.5" y="22.5" text-anchor="middle">MG Asymmetry</text>
</a>
</g>
<g transform="translate(388.5 150)">
<rect fill="LightBlue" stroke="Black" stroke-width="1.875" x="0" y="0" width="99" height="33.75" rx="3.75" ry="3.75" />
<a href="./StructureDefinition-MGAbnormalityCalcification.html" target="_top">
<title>'MGAbnormalityCalcification'</title>
<text x="49.5" y="22.5" text-anchor="middle">MG Calc.</text>
</a>
</g>
<g transform="translate(388.5 191.25)">
<rect fill="LightBlue" stroke="Black" stroke-width="1.875" x="0" y="0" width="88.5" height="33.75" rx="3.75" ry="3.75" />
<a href="./StructureDefinition-MGAbnormalityCyst.html" target="_top">
<title>'MGAbnormalityCyst'</title>
<text x="44.25" y="22.5" text-anchor="middle">MG Cyst</text>
</a>
</g>
<g transform="translate(388.5 232.5)">
<rect fill="LightBlue" stroke="Black" stroke-width="1.875" x="0" y="0" width="120" height="33.75" rx="3.75" ry="3.75" />
<a href="./StructureDefinition-MGAbnormalityDensity.html" target="_top">
<title>'MGAbnormalityDensity'</title>
<text x="60" y="22.5" text-anchor="middle">MG Density</text>
</a>
</g>
<g transform="translate(388.5 273.75)">
<rect fill="LightBlue" stroke="Black" stroke-width="1.875" x="0" y="0" width="88.5" height="33.75" rx="3.75" ry="3.75" />
<a href="./StructureDefinition-MGAbnormalityDuct.html" target="_top">
<title>'MGAbnormalityDuct'</title>
<text x="44.25" y="22.5" text-anchor="middle">MG Duct</text>
</a>
</g>
<g transform="translate(388.5 315)">
<rect fill="LightBlue" stroke="Black" stroke-width="1.875" x="0" y="0" width="172.5" height="33.75" rx="3.75" ry="3.75" />
<a href="./StructureDefinition-MGAbnormalityFatNecrosis.html" target="_top">
<title>'MGAbnormalityFatNecrosis'</title>
<text x="86.25" y="22.5" text-anchor="middle">MG Fat Necrosis</text>
</a>
</g>
<g transform="translate(388.5 356.25)">
<rect fill="LightBlue" stroke="Black" stroke-width="1.875" x="0" y="0" width="172.5" height="33.75" rx="3.75" ry="3.75" />
<a href="./StructureDefinition-MGAbnormalityFibroadenoma.html" target="_top">
<title>'MGAbnormalityFibroadenoma'</title>
<text x="86.25" y="22.5" text-anchor="middle">MG Fibroadenoma</text>
</a>
</g>
<g transform="translate(388.5 397.5)">
<rect fill="LightBlue" stroke="Black" stroke-width="1.875" x="0" y="0" width="162" height="33.75" rx="3.75" ry="3.75" />
<a href="./StructureDefinition-MGAbnormalityForeignObject.html" target="_top">
<title>'MGAbnormalityForeignObject'</title>
<text x="81" y="22.5" text-anchor="middle">Foreign Object</text>
</a>
</g>
<g transform="translate(388.5 438.75)">
<rect fill="LightBlue" stroke="Black" stroke-width="1.875" x="0" y="0" width="151.49998" height="33.75" rx="3.75" ry="3.75" />
<a href="./StructureDefinition-MGAbnormalityLymphNode.html" target="_top">
<title>'MGAbnormalityLymphNode'</title>
<text x="75.74999" y="22.5" text-anchor="middle">MG Lymph Node</text>
</a>
</g>
<g transform="translate(388.5 480)">
<rect fill="LightBlue" stroke="Black" stroke-width="1.875" x="0" y="0" width="151.49998" height="52.5" rx="3.75" ry="3.75" />
<a href="./StructureDefinition-MGAssociatedFeatures.html" target="_top">
<title>'MGAssociatedFeatures'</title>
<text x="75.74999" y="22.5" text-anchor="middle">MG Associated</text>
</a>
<a href="./StructureDefinition-MGAssociatedFeatures.html" target="_top">
<title>'MGAssociatedFeatures'</title>
<text x="75.74999" y="41.25" text-anchor="middle">Features</text>
</a>
</g>
<g transform="translate(388.5 540)">
<rect fill="LightBlue" stroke="Black" stroke-width="1.875" x="0" y="0" width="130.5" height="52.5" rx="3.75" ry="3.75" />
<a href="./StructureDefinition-MGAxillaryAdenopathy.html" target="_top">
<title>'MGAxillaryAdenopathy'</title>
<text x="65.25" y="22.5" text-anchor="middle">MG Axillary</text>
</a>
<a href="./StructureDefinition-MGAxillaryAdenopathy.html" target="_top">
<title>'MGAxillaryAdenopathy'</title>
<text x="65.25" y="41.25" text-anchor="middle">Adenopathy</text>
</a>
</g>
<g transform="translate(388.5 600)">
<rect fill="LightBlue" stroke="Black" stroke-width="1.875" x="0" y="0" width="193.5" height="33.75" rx="3.75" ry="3.75" />
<a href="./StructureDefinition-MGBreastDensity.html" target="_top">
<title>'MGBreastDensity'</title>
<text x="96.75" y="22.5" text-anchor="middle">MG Breast Density</text>
</a>
</g>
<g transform="translate(388.5 641.25)">
<rect fill="LightBlue" stroke="Black" stroke-width="1.875" x="0" y="0" width="88.5" height="33.75" rx="3.75" ry="3.75" />
<a href="./StructureDefinition-MGMass.html" target="_top">
<title>'MGMass'</title>
<text x="44.25" y="22.5" text-anchor="middle">MG Mass</text>
</a>
</g>
<g transform="translate(388.5 682.5)">
<rect fill="LightBlue" stroke="Black" stroke-width="1.875" x="0" y="0" width="225" height="33.75" rx="3.75" ry="3.75" />
<a href="./StructureDefinition-MGNippleRetraction.html" target="_top">
<title>'MGNippleRetraction'</title>
<text x="112.5" y="22.5" text-anchor="middle">MG Nipple Retraction</text>
</a>
</g>
<g transform="translate(388.5 723.75)">
<rect fill="LightBlue" stroke="Black" stroke-width="1.875" x="0" y="0" width="203.99998" height="33.75" rx="3.75" ry="3.75" />
<a href="./StructureDefinition-MGSkinRetraction.html" target="_top">
<title>'MGSkinRetraction'</title>
<text x="101.99999" y="22.5" text-anchor="middle">MG Skin Retraction</text>
</a>
</g>
<g transform="translate(388.5 765)">
<rect fill="LightBlue" stroke="Black" stroke-width="1.875" x="0" y="0" width="203.99998" height="33.75" rx="3.75" ry="3.75" />
<a href="./StructureDefinition-MGSkinThickening.html" target="_top">
<title>'MGSkinThickening'</title>
<text x="101.99999" y="22.5" text-anchor="middle">MG Skin Thickening</text>
</a>
</g>
<g transform="translate(388.5 806.25)">
<rect fill="LightBlue" stroke="Black" stroke-width="1.875" x="0" y="0" width="99" height="33.75" rx="3.75" ry="3.75" />
<a href="./StructureDefinition-SectionFindings.html" target="_top">
<title>'SectionFindings'</title>
<text x="49.5" y="22.5" text-anchor="middle">Findings</text>
</a>
</g>
<g transform="translate(388.5 847.5)">
<rect fill="LightBlue" stroke="Black" stroke-width="1.875" x="0" y="0" width="130.5" height="33.75" rx="3.75" ry="3.75" />
<a href="./StructureDefinition-SectionFindingsLeftBreast.html" target="_top">
<title>'SectionFindingsLeftBreast'</title>
<text x="65.25" y="22.5" text-anchor="middle">Left Breast</text>
</a>
</g>
<g transform="translate(388.5 888.75)">
<rect fill="LightBlue" stroke="Black" stroke-width="1.875" x="0" y="0" width="141" height="33.75" rx="3.75" ry="3.75" />
<a href="./StructureDefinition-SectionFindingsRightBreast.html" target="_top">
<title>'SectionFindingsRightBreast'</title>
<text x="70.5" y="22.5" text-anchor="middle">Right Breast</text>
</a>
</g>
</g>
</svg>
