<?xml version="1.0"?>
<!DOCTYPE svg PUBLIC "-//W3C//DTD SVG 1.1//EN" "http://www.w3.org/Graphics/SVG/1.1/DTD/svg11.dtd">
<svg xmlns="http://www.w3.org/2000/svg" version="1.1" width="406.5" height="120">
<defs>
<marker id="arrowStart" markerWidth="3.75" markerHeight="3.75" markerUnits="px" refX="1.875" refY="1.875">
<circle fill="Black" stroke-width="0" cx="1.875" cy="1.875" r="1.875" />
</marker>
<marker id="arrowEnd" markerWidth="7.5" markerHeight="7.5" markerUnits="px" refX="7.5" refY="3.75">
<polygon fill="Black" stroke-width="0" points="0 0 7.5 3.75 0 7.5" />
</marker>
</defs>
<g>
<g transform="translate(7.5 7.5)">
<rect fill="LightCyan" stroke="Black" stroke-width="1.875" x="0" y="0" width="78" height="33.75" rx="3.75" ry="3.75" />
<a href="./StructureDefinition-FragmentHeaderFragment.html" target="_blank">
<title>'Fragment HeaderFragment'</title>
<text x="39" y="22.5" text-anchor="middle">Common</text>
</a>
</g>
<g transform="translate(7.5 48.75)">
<rect fill="LightCyan" stroke="Black" stroke-width="1.875" x="0" y="0" width="99" height="52.5" rx="3.75" ry="3.75" />
<a href="./StructureDefinition-FragmentCategoryFragment.html" target="_blank">
<title>'Fragment CategoryFragment'</title>
<text x="49.5" y="22.5" text-anchor="middle">Category</text>
</a>
<a href="./StructureDefinition-FragmentCategoryFragment.html" target="_blank">
<title>'Fragment CategoryFragment'</title>
<text x="49.5" y="41.25" text-anchor="middle">Fragment</text>
</a>
</g>
<line stroke="Black" stroke-width="1.875" marker-end="url(#arrowEnd)" x1="136.5" y1="52.5" x2="166.5" y2="52.5" />
<line stroke="Black" stroke-width="1.875" marker-start="url(#arrowStart)" x1="85.5" y1="24.375" x2="136.5" y2="24.375" />
<line stroke="Black" stroke-width="1.875" marker-start="url(#arrowStart)" x1="106.5" y1="75" x2="136.5" y2="75" />
<line stroke="Black" stroke-width="1.875" x1="136.5" y1="24.375" x2="136.5" y2="75" />
</g>
<g>
<g transform="translate(166.5 7.5)">
<rect fill="Green" stroke="Black" stroke-width="1.875" x="0" y="0" width="120" height="90" rx="3.75" ry="3.75" />
<text x="60" y="22.5" text-anchor="middle">Breast</text>
<text x="60" y="41.25" text-anchor="middle">Radiology</text>
<text x="60" y="60" text-anchor="middle">Report</text>
<a href="StructureDefinition-BreastRadReport.html" target="_blank">
<title>Resource 'BreastRadReport'</title>
<text x="60" y="78.75" text-anchor="middle">[Resource]</text>
</a>
</g>
</g>
<g />
</svg>
