<?xml version="1.0"?>
<!DOCTYPE svg PUBLIC "-//W3C//DTD SVG 1.1//EN" "http://www.w3.org/Graphics/SVG/1.1/DTD/svg11.dtd">
<svg xmlns="http://www.w3.org/2000/svg" version="1.1" width="512.99994" height="142.5">
<defs>
<marker id="arrowStart" markerWidth="3.75" markerHeight="3.75" markerUnits="px" refX="1.875" refY="1.875">
<circle fill="Black" stroke-width="0" cx="1.875" cy="1.875" r="1.875" />
</marker>
<marker id="arrowEnd" markerWidth="7.5" markerHeight="7.5" markerUnits="px" refX="7.5" refY="3.75">
<polygon fill="Black" stroke-width="0" points="0 0 7.5 3.75 0 7.5" />
</marker>
</defs>
<g>
<g transform="translate(7.5 7.5)">
<rect fill="LightCyan" stroke="Black" stroke-width="1.875" x="0" y="0" width="78" height="33.75" rx="3.75" ry="3.75" />
<a href="./StructureDefinition-HeaderFragment.html" target="_top">
<title>'HeaderFragment'</title>
<text x="39" y="22.5" text-anchor="middle">Common</text>
</a>
</g>
<g transform="translate(7.5 48.75)">
<rect fill="LightCyan" stroke="Black" stroke-width="1.875" x="0" y="0" width="130.5" height="71.25" rx="3.75" ry="3.75" />
<a href="./StructureDefinition-BreastRadObservationNoDeviceFragment.html" target="_top">
<title>'BreastRadObservationNoDeviceFragment'</title>
<text x="65.25" y="22.5" text-anchor="middle">Observation</text>
</a>
<a href="./StructureDefinition-BreastRadObservationNoDeviceFragment.html" target="_top">
<title>'BreastRadObservationNoDeviceFragment'</title>
<text x="65.25" y="41.25" text-anchor="middle">NoDevice</text>
</a>
<a href="./StructureDefinition-BreastRadObservationNoDeviceFragment.html" target="_top">
<title>'BreastRadObservationNoDeviceFragment'</title>
<text x="65.25" y="60" text-anchor="middle">Fragment</text>
</a>
</g>
<line stroke="Black" stroke-width="1.875" marker-end="url(#arrowEnd)" x1="153" y1="43.125" x2="183" y2="43.125" />
<line stroke="Black" stroke-width="1.875" marker-start="url(#arrowStart)" x1="85.5" y1="24.375" x2="153" y2="24.375" />
<line stroke="Black" stroke-width="1.875" marker-start="url(#arrowStart)" x1="138" y1="84.375" x2="153" y2="84.375" />
<line stroke="Black" stroke-width="1.875" x1="153" y1="24.375" x2="153" y2="84.375" />
</g>
<g>
<g transform="translate(183 7.5)">
<rect fill="Green" stroke="Black" stroke-width="1.875" x="0" y="0" width="99" height="71.25" rx="3.75" ry="3.75" />
<text x="49.5" y="22.5" text-anchor="middle">Finding</text>
<text x="49.5" y="41.25" text-anchor="middle">Breast</text>
<text x="49.5" y="60" text-anchor="middle">Fragment</text>
</g>
<line stroke="Black" stroke-width="1.875" marker-end="url(#arrowEnd)" x1="297" y1="33.75" x2="327" y2="33.75" />
<line stroke="Black" stroke-width="1.875" marker-end="url(#arrowEnd)" x1="297" y1="93.75" x2="327" y2="93.75" />
<line stroke="Black" stroke-width="1.875" marker-start="url(#arrowStart)" x1="282" y1="43.125" x2="297" y2="43.125" />
<line stroke="Black" stroke-width="1.875" x1="297" y1="33.75" x2="297" y2="93.75" />
</g>
<g>
<g transform="translate(327 7.5)">
<rect fill="LightBlue" stroke="Black" stroke-width="1.875" x="0" y="0" width="130.5" height="52.5" rx="3.75" ry="3.75" />
<a href="./StructureDefinition-SectionFindingsLeftBreast.html" target="_top">
<title>'SectionFindingsLeftBreast'</title>
<text x="65.25" y="22.5" text-anchor="middle">Findings</text>
</a>
<a href="./StructureDefinition-SectionFindingsLeftBreast.html" target="_top">
<title>'SectionFindingsLeftBreast'</title>
<text x="65.25" y="41.25" text-anchor="middle">Left Breast</text>
</a>
</g>
<g transform="translate(327 67.5)">
<rect fill="LightBlue" stroke="Black" stroke-width="1.875" x="0" y="0" width="141" height="52.5" rx="3.75" ry="3.75" />
<a href="./StructureDefinition-SectionFindingsRightBreast.html" target="_top">
<title>'SectionFindingsRightBreast'</title>
<text x="70.5" y="22.5" text-anchor="middle">Findings</text>
</a>
<a href="./StructureDefinition-SectionFindingsRightBreast.html" target="_top">
<title>'SectionFindingsRightBreast'</title>
<text x="70.5" y="41.25" text-anchor="middle">Right Breast</text>
</a>
</g>
</g>
</svg>
