<?xml version="1.0"?>
<!DOCTYPE svg PUBLIC "-//W3C//DTD SVG 1.1//EN" "http://www.w3.org/Graphics/SVG/1.1/DTD/svg11.dtd">
<svg xmlns="http://www.w3.org/2000/svg" version="1.1" width="859.50006" height="187.5">
<defs>
<marker id="arrowStart" markerWidth="3.75" markerHeight="3.75" markerUnits="px" refX="1.875" refY="1.875">
<circle fill="Black" stroke-width="0" cx="1.875" cy="1.875" r="1.875" />
</marker>
<marker id="arrowEnd" markerWidth="7.5" markerHeight="7.5" markerUnits="px" refX="7.5" refY="3.75">
<polygon fill="Black" stroke-width="0" points="0 0 7.5 3.75 0 7.5" />
</marker>
</defs>
<g>
<g transform="translate(7.5 7.5)">
<a href="./StructureDefinition-HeaderFragment.html" target="_top">
<rect fill="LightCyan" stroke="Black" stroke-width="1.875" x="0" y="0" width="78" height="33.75" rx="3.75" ry="3.75" />
</a>
<a href="./StructureDefinition-HeaderFragment.html" target="_top">
<text x="39" y="22.5" text-anchor="middle">Common</text>
</a>
</g>
<line stroke="Black" stroke-width="1.875" marker-end="url(#arrowEnd)" x1="100.5" y1="33.75" x2="130.5" y2="33.75" />
<line stroke="Black" stroke-width="1.875" marker-start="url(#arrowStart)" x1="85.5" y1="24.375" x2="100.5" y2="24.375" />
<line stroke="Black" stroke-width="1.875" x1="100.5" y1="24.375" x2="100.5" y2="33.75" />
</g>
<g>
<g transform="translate(130.5 7.5)">
<rect fill="Green" stroke="Black" stroke-width="1.875" x="0" y="0" width="225" height="52.5" rx="3.75" ry="3.75" />
<text x="112.5" y="22.5" text-anchor="middle">Breast Body Location</text>
<text x="112.5" y="41.25" text-anchor="middle">Fragment (Required)</text>
</g>
<line stroke="Black" stroke-width="1.875" marker-end="url(#arrowEnd)" x1="370.5" y1="24.375" x2="400.5" y2="24.375" />
<line stroke="Black" stroke-width="1.875" marker-end="url(#arrowEnd)" x1="370.5" y1="65.625" x2="400.5" y2="65.625" />
<line stroke="Black" stroke-width="1.875" marker-end="url(#arrowEnd)" x1="370.5" y1="106.875" x2="400.5" y2="106.875" />
<line stroke="Black" stroke-width="1.875" marker-end="url(#arrowEnd)" x1="370.5" y1="148.125" x2="400.5" y2="148.125" />
<line stroke="Black" stroke-width="1.875" marker-start="url(#arrowStart)" x1="355.5" y1="33.75" x2="370.5" y2="33.75" />
<line stroke="Black" stroke-width="1.875" x1="370.5" y1="24.375" x2="370.5" y2="148.125" />
</g>
<g>
<g transform="translate(400.5 7.5)">
<a href="./StructureDefinition-CommonComponentsFragment.html" target="_top">
<rect fill="LightBlue" stroke="Black" stroke-width="1.875" x="0" y="0" width="287.99997" height="33.75" rx="3.75" ry="3.75" />
</a>
<a href="./StructureDefinition-CommonComponentsFragment.html" target="_top">
<text x="143.99998" y="22.5" text-anchor="middle">Common Components Fragment</text>
</a>
</g>
<g transform="translate(400.5 48.75)">
<a href="./StructureDefinition-NotPreviouslySeenComponentFragment.html" target="_top">
<rect fill="LightBlue" stroke="Black" stroke-width="1.875" x="0" y="0" width="414" height="33.75" rx="3.75" ry="3.75" />
</a>
<a href="./StructureDefinition-NotPreviouslySeenComponentFragment.html" target="_top">
<text x="207" y="22.5" text-anchor="middle">Not Previously Seen Component Fragment</text>
</a>
</g>
<g transform="translate(400.5 90)">
<a href="./StructureDefinition-ObservedFeature.html" target="_top">
<rect fill="LightBlue" stroke="Black" stroke-width="1.875" x="0" y="0" width="183" height="33.75" rx="3.75" ry="3.75" />
</a>
<a href="./StructureDefinition-ObservedFeature.html" target="_top">
<text x="91.5" y="22.5" text-anchor="middle">Observed Feature</text>
</a>
</g>
<g transform="translate(400.5 131.25)">
<a href="./StructureDefinition-ShapeComponentsFragment.html" target="_top">
<rect fill="LightBlue" stroke="Black" stroke-width="1.875" x="0" y="0" width="277.5" height="33.75" rx="3.75" ry="3.75" />
</a>
<a href="./StructureDefinition-ShapeComponentsFragment.html" target="_top">
<text x="138.75" y="22.5" text-anchor="middle">Shape Components Fragment</text>
</a>
</g>
</g>
</svg>
