<?xml version="1.0"?>
<?xml-stylesheet type="text/css" href="FragGraph.css" ?>
<!DOCTYPE svg PUBLIC "-//W3C//DTD SVG 1.1//EN" "http://www.w3.org/Graphics/SVG/1.1/DTD/svg11.dtd">
<svg xmlns="http://www.w3.org/2000/svg" version="1.1" width="430.64" height="255">
<defs>
<marker id="arrowStart" markerWidth="3.75" markerHeight="3.75" markerUnits="px" refX="1.88" refY="1.88">
<circle class="connector" cx="1.88" cy="1.88" r="1.88" />
</marker>
<marker id="arrowEnd" markerWidth="7.5" markerHeight="7.5" markerUnits="px" refX="7.5" refY="3.75">
<polygon class="connector" points="0 0 7.5 3.75 0 7.5" />
</marker>
</defs>
<g>
<g transform="translate(3.75 3.75)">
<a href="StructureDefinition-TumorSatelliteFragment.html" target="_top">
<rect class="focus" x="0" y="0" width="198.75" height="26.25" rx="3.75" ry="3.75" />
</a>
<a href="StructureDefinition-TumorSatelliteFragment.html" target="_top">
<text x="5.62" y="18.75" text-anchor="left" class="focus">Tumor Satellite Fragment</text>
</a>
</g>
<line class="connector" marker-end="url(#arrowEnd)" x1="232.5" y1="16.88" x2="292.5" y2="16.88" />
<text x="236.25" y="13.12" text-anchor="right" class="lhsText">0..*</text>
<line class="connector" marker-end="url(#arrowEnd)" x1="232.5" y1="50.62" x2="292.5" y2="50.62" />
<text x="236.25" y="46.88" text-anchor="right" class="lhsText">0..*</text>
<line class="connector" marker-end="url(#arrowEnd)" x1="232.5" y1="84.38" x2="292.5" y2="84.38" />
<text x="236.25" y="80.62" text-anchor="right" class="lhsText">0..*</text>
<line class="connector" marker-end="url(#arrowEnd)" x1="232.5" y1="118.12" x2="292.5" y2="118.12" />
<text x="236.25" y="114.38" text-anchor="right" class="lhsText">0..*</text>
<line class="connector" marker-start="url(#arrowStart)" x1="202.5" y1="16.88" x2="232.5" y2="16.88" />
<line class="connector" x1="232.5" y1="16.88" x2="232.5" y2="118.12" />
</g>
<g>
<g transform="translate(292.5 3.75)">
<a href="StructureDefinition-AbnormalityCyst.html" target="_top">
<rect class="profile" x="0" y="0" width="45.79" height="26.25" rx="3.75" ry="3.75" />
</a>
<a href="StructureDefinition-AbnormalityCyst.html" target="_top">
<text x="5.62" y="18.75" text-anchor="left" class="profile">Cyst</text>
</a>
</g>
</g>
<g>
<g transform="translate(292.5 37.5)">
<a href="StructureDefinition-AbnormalityLymphNode.html" target="_top">
<rect class="profile" x="0" y="0" width="106.26" height="26.25" rx="3.75" ry="3.75" />
</a>
<a href="StructureDefinition-AbnormalityLymphNode.html" target="_top">
<text x="5.62" y="18.75" text-anchor="left" class="profile">Lymph Node</text>
</a>
</g>
</g>
<g>
<g transform="translate(292.5 71.25)">
<a href="StructureDefinition-AbnormalityMass.html" target="_top">
<rect class="profile" x="0" y="0" width="52.21" height="26.25" rx="3.75" ry="3.75" />
</a>
<a href="StructureDefinition-AbnormalityMass.html" target="_top">
<text x="5.62" y="18.75" text-anchor="left" class="profile">Mass</text>
</a>
</g>
</g>
<g>
<g transform="translate(292.5 105)">
<a href="StructureDefinition-AbnormalitySkinLesion.html" target="_top">
<rect class="profile" x="0" y="0" width="98.04" height="26.25" rx="3.75" ry="3.75" />
</a>
<a href="StructureDefinition-AbnormalitySkinLesion.html" target="_top">
<text x="5.62" y="18.75" text-anchor="left" class="profile">Skin Lesion</text>
</a>
</g>
</g>
<g>
<g transform="translate(3.75 213.75)">
<rect class="focus" x="0" y="0" width="57.72" height="26.25" rx="3.75" ry="3.75" />
<text x="5.62" y="18.75" text-anchor="left" class="focus">Focus</text>
</g>
<g transform="translate(68.97 213.75)">
<rect class="profile" x="0" y="0" width="143.81" height="26.25" rx="3.75" ry="3.75" />
<text x="5.62" y="18.75" text-anchor="left" class="profile">Profiled Resource</text>
</g>
</g>
</svg>
