<?xml version="1.0"?>
<!DOCTYPE svg PUBLIC "-//W3C//DTD SVG 1.1//EN" "http://www.w3.org/Graphics/SVG/1.1/DTD/svg11.dtd">
<svg xmlns="http://www.w3.org/2000/svg" version="1.1" width="472.5" height="618.75">
<defs>
<marker id="arrowStart" markerWidth="3.75" markerHeight="3.75" markerUnits="px" refX="1.875" refY="1.875">
<circle fill="Black" stroke-width="0" cx="1.875" cy="1.875" r="1.875" />
</marker>
<marker id="arrowEnd" markerWidth="7.5" markerHeight="7.5" markerUnits="px" refX="7.5" refY="3.75">
<polygon fill="Black" stroke-width="0" points="0 0 7.5 3.75 0 7.5" />
</marker>
</defs>
<g>
<g transform="translate(7.5 7.5)">
<rect fill="Green" stroke="Black" stroke-width="1.875" x="0" y="0" width="130.5" height="71.25" rx="3.75" ry="3.75" />
<text x="65.25" y="22.5" text-anchor="middle">Observation</text>
<text x="65.25" y="41.25" text-anchor="middle">Leaf</text>
<text x="65.25" y="60" text-anchor="middle">Fragment</text>
</g>
<line stroke="Black" stroke-width="1.875" marker-end="url(#arrowEnd)" x1="168" y1="24.375" x2="198" y2="24.375" />
<line stroke="Black" stroke-width="1.875" marker-end="url(#arrowEnd)" x1="168" y1="65.625" x2="198" y2="65.625" />
<line stroke="Black" stroke-width="1.875" marker-end="url(#arrowEnd)" x1="168" y1="106.875" x2="198" y2="106.875" />
<line stroke="Black" stroke-width="1.875" marker-end="url(#arrowEnd)" x1="168" y1="148.125" x2="198" y2="148.125" />
<line stroke="Black" stroke-width="1.875" marker-end="url(#arrowEnd)" x1="168" y1="189.375" x2="198" y2="189.375" />
<line stroke="Black" stroke-width="1.875" marker-end="url(#arrowEnd)" x1="168" y1="230.625" x2="198" y2="230.625" />
<line stroke="Black" stroke-width="1.875" marker-end="url(#arrowEnd)" x1="168" y1="281.25" x2="198" y2="281.25" />
<line stroke="Black" stroke-width="1.875" marker-end="url(#arrowEnd)" x1="168" y1="331.875" x2="198" y2="331.875" />
<line stroke="Black" stroke-width="1.875" marker-end="url(#arrowEnd)" x1="168" y1="373.125" x2="198" y2="373.125" />
<line stroke="Black" stroke-width="1.875" marker-end="url(#arrowEnd)" x1="168" y1="414.375" x2="198" y2="414.375" />
<line stroke="Black" stroke-width="1.875" marker-end="url(#arrowEnd)" x1="168" y1="455.625" x2="198" y2="455.625" />
<line stroke="Black" stroke-width="1.875" marker-end="url(#arrowEnd)" x1="168" y1="496.875" x2="198" y2="496.875" />
<line stroke="Black" stroke-width="1.875" marker-end="url(#arrowEnd)" x1="168" y1="538.125" x2="198" y2="538.125" />
<line stroke="Black" stroke-width="1.875" marker-end="url(#arrowEnd)" x1="168" y1="579.375" x2="198" y2="579.375" />
<line stroke="Black" stroke-width="1.875" marker-start="url(#arrowStart)" x1="138" y1="43.125" x2="168" y2="43.125" />
<line stroke="Black" stroke-width="1.875" x1="168" y1="24.375" x2="168" y2="579.375" />
</g>
<g>
<g transform="translate(198 7.5)">
<a href="./StructureDefinition-AbnormalityCyst.html" target="_top">
<rect fill="LightBlue" stroke="Black" stroke-width="1.875" x="0" y="0" width="57" height="33.75" rx="3.75" ry="3.75" />
</a>
<a href="./StructureDefinition-AbnormalityCyst.html" target="_top">
<text x="28.5" y="22.5" text-anchor="middle">Cyst</text>
</a>
</g>
<g transform="translate(198 48.75)">
<a href="./StructureDefinition-AbnormalityDuct.html" target="_top">
<rect fill="LightBlue" stroke="Black" stroke-width="1.875" x="0" y="0" width="57" height="33.75" rx="3.75" ry="3.75" />
</a>
<a href="./StructureDefinition-AbnormalityDuct.html" target="_top">
<text x="28.5" y="22.5" text-anchor="middle">Duct</text>
</a>
</g>
<g transform="translate(198 90)">
<a href="./StructureDefinition-AbnormalityFibroadenoma.html" target="_top">
<rect fill="LightBlue" stroke="Black" stroke-width="1.875" x="0" y="0" width="141" height="33.75" rx="3.75" ry="3.75" />
</a>
<a href="./StructureDefinition-AbnormalityFibroadenoma.html" target="_top">
<text x="70.5" y="22.5" text-anchor="middle">Fibroadenoma</text>
</a>
</g>
<g transform="translate(198 131.25)">
<a href="./StructureDefinition-AbnormalityLymphNode.html" target="_top">
<rect fill="LightBlue" stroke="Black" stroke-width="1.875" x="0" y="0" width="120" height="33.75" rx="3.75" ry="3.75" />
</a>
<a href="./StructureDefinition-AbnormalityLymphNode.html" target="_top">
<text x="60" y="22.5" text-anchor="middle">Lymph Node</text>
</a>
</g>
<g transform="translate(198 172.5)">
<a href="./StructureDefinition-AbnormalityMass.html" target="_top">
<rect fill="LightBlue" stroke="Black" stroke-width="1.875" x="0" y="0" width="57" height="33.75" rx="3.75" ry="3.75" />
</a>
<a href="./StructureDefinition-AbnormalityMass.html" target="_top">
<text x="28.5" y="22.5" text-anchor="middle">Mass</text>
</a>
</g>
<g transform="translate(198 213.75)">
<a href="./StructureDefinition-AssociatedFeature.html" target="_top">
<rect fill="LightBlue" stroke="Black" stroke-width="1.875" x="0" y="0" width="203.99998" height="33.75" rx="3.75" ry="3.75" />
</a>
<a href="./StructureDefinition-AssociatedFeature.html" target="_top">
<text x="101.99999" y="22.5" text-anchor="middle">Associated Feature</text>
</a>
</g>
<g transform="translate(198 255)">
<a href="./StructureDefinition-ConsistentWith.html" target="_top">
<rect fill="LightBlue" stroke="Black" stroke-width="1.875" x="0" y="0" width="120" height="52.5" rx="3.75" ry="3.75" />
</a>
<a href="./StructureDefinition-ConsistentWith.html" target="_top">
<text x="60" y="22.5" text-anchor="middle">Consistent</text>
</a>
<a href="./StructureDefinition-ConsistentWith.html" target="_top">
<text x="60" y="41.25" text-anchor="middle">With</text>
</a>
</g>
<g transform="translate(198 315)">
<a href="./StructureDefinition-MGAbnormalityArchitecturalDistortion.html" target="_top">
<rect fill="LightBlue" stroke="Black" stroke-width="1.875" x="0" y="0" width="214.5" height="33.75" rx="3.75" ry="3.75" />
</a>
<a href="./StructureDefinition-MGAbnormalityArchitecturalDistortion.html" target="_top">
<text x="107.25" y="22.5" text-anchor="middle">MG Arch. Distortion</text>
</a>
</g>
<g transform="translate(198 356.25)">
<a href="./StructureDefinition-MGAbnormalityAsymmetry.html" target="_top">
<rect fill="LightBlue" stroke="Black" stroke-width="1.875" x="0" y="0" width="141" height="33.75" rx="3.75" ry="3.75" />
</a>
<a href="./StructureDefinition-MGAbnormalityAsymmetry.html" target="_top">
<text x="70.5" y="22.5" text-anchor="middle">MG Asymmetry</text>
</a>
</g>
<g transform="translate(198 397.5)">
<a href="./StructureDefinition-MGAbnormalityCalcification.html" target="_top">
<rect fill="LightBlue" stroke="Black" stroke-width="1.875" x="0" y="0" width="99" height="33.75" rx="3.75" ry="3.75" />
</a>
<a href="./StructureDefinition-MGAbnormalityCalcification.html" target="_top">
<text x="49.5" y="22.5" text-anchor="middle">MG Calc.</text>
</a>
</g>
<g transform="translate(198 438.75)">
<a href="./StructureDefinition-MGAbnormalityDensity.html" target="_top">
<rect fill="LightBlue" stroke="Black" stroke-width="1.875" x="0" y="0" width="120" height="33.75" rx="3.75" ry="3.75" />
</a>
<a href="./StructureDefinition-MGAbnormalityDensity.html" target="_top">
<text x="60" y="22.5" text-anchor="middle">MG Density</text>
</a>
</g>
<g transform="translate(198 480)">
<a href="./StructureDefinition-MGAbnormalityFatNecrosis.html" target="_top">
<rect fill="LightBlue" stroke="Black" stroke-width="1.875" x="0" y="0" width="172.5" height="33.75" rx="3.75" ry="3.75" />
</a>
<a href="./StructureDefinition-MGAbnormalityFatNecrosis.html" target="_top">
<text x="86.25" y="22.5" text-anchor="middle">MG Fat Necrosis</text>
</a>
</g>
<g transform="translate(198 521.25)">
<a href="./StructureDefinition-MGBreastDensity.html" target="_top">
<rect fill="LightBlue" stroke="Black" stroke-width="1.875" x="0" y="0" width="193.5" height="33.75" rx="3.75" ry="3.75" />
</a>
<a href="./StructureDefinition-MGBreastDensity.html" target="_top">
<text x="96.75" y="22.5" text-anchor="middle">MG Breast Density</text>
</a>
</g>
<g transform="translate(198 562.5)">
<a href="./StructureDefinition-TumorSatellite.html" target="_top">
<rect fill="LightBlue" stroke="Black" stroke-width="1.875" x="0" y="0" width="162" height="33.75" rx="3.75" ry="3.75" />
</a>
<a href="./StructureDefinition-TumorSatellite.html" target="_top">
<text x="81" y="22.5" text-anchor="middle">TumorSatellite</text>
</a>
</g>
</g>
</svg>
