<?xml version="1.0"?>
<!DOCTYPE svg PUBLIC "-//W3C//DTD SVG 1.1//EN" "http://www.w3.org/Graphics/SVG/1.1/DTD/svg11.dtd">
<svg xmlns="http://www.w3.org/2000/svg" version="1.1" width="579" height="513.75">
<defs>
<marker id="arrowStart" markerWidth="3.75" markerHeight="3.75" markerUnits="px" refX="1.875" refY="1.875">
<circle fill="Black" stroke-width="0" cx="1.875" cy="1.875" r="1.875" />
</marker>
<marker id="arrowEnd" markerWidth="7.5" markerHeight="7.5" markerUnits="px" refX="7.5" refY="3.75">
<polygon fill="Black" stroke-width="0" points="0 0 7.5 3.75 0 7.5" />
</marker>
</defs>
<g>
<g transform="translate(7.5 7.5)">
<rect fill="LightCyan" stroke="Black" stroke-width="1.875" x="0" y="0" width="130.5" height="52.5" rx="3.75" ry="3.75" />
<a href="./StructureDefinition-BreastRadObservationFragment.html" target="_top">
<title>'BreastRadObservationFragment'</title>
<text x="65.25" y="22.5" text-anchor="middle">Observation</text>
</a>
<a href="./StructureDefinition-BreastRadObservationFragment.html" target="_top">
<title>'BreastRadObservationFragment'</title>
<text x="65.25" y="41.25" text-anchor="middle">Fragment</text>
</a>
</g>
<g transform="translate(7.5 67.5)">
<rect fill="LightCyan" stroke="Black" stroke-width="1.875" x="0" y="0" width="130.5" height="71.25" rx="3.75" ry="3.75" />
<a href="./StructureDefinition-BreastRadObservationNoValueFragment.html" target="_top">
<title>'BreastRadObservationNoValueFragment'</title>
<text x="65.25" y="22.5" text-anchor="middle">NoValue</text>
</a>
<a href="./StructureDefinition-BreastRadObservationNoValueFragment.html" target="_top">
<title>'BreastRadObservationNoValueFragment'</title>
<text x="65.25" y="41.25" text-anchor="middle">Observation</text>
</a>
<a href="./StructureDefinition-BreastRadObservationNoValueFragment.html" target="_top">
<title>'BreastRadObservationNoValueFragment'</title>
<text x="65.25" y="60" text-anchor="middle">Fragment</text>
</a>
</g>
<line stroke="Black" stroke-width="1.875" marker-end="url(#arrowEnd)" x1="168" y1="33.75" x2="198" y2="33.75" />
<line stroke="Black" stroke-width="1.875" marker-start="url(#arrowStart)" x1="138" y1="33.75" x2="168" y2="33.75" />
<line stroke="Black" stroke-width="1.875" marker-start="url(#arrowStart)" x1="138" y1="103.125" x2="168" y2="103.125" />
<line stroke="Black" stroke-width="1.875" x1="168" y1="33.75" x2="168" y2="103.125" />
</g>
<g>
<g transform="translate(198 7.5)">
<rect fill="Green" stroke="Black" stroke-width="1.875" x="0" y="0" width="99" height="52.5" rx="3.75" ry="3.75" />
<text x="49.5" y="22.5" text-anchor="middle">Section</text>
<text x="49.5" y="41.25" text-anchor="middle">Fragment</text>
</g>
<line stroke="Black" stroke-width="1.875" marker-end="url(#arrowEnd)" x1="327" y1="24.375" x2="357" y2="24.375" />
<line stroke="Black" stroke-width="1.875" marker-end="url(#arrowEnd)" x1="327" y1="75" x2="357" y2="75" />
<line stroke="Black" stroke-width="1.875" marker-end="url(#arrowEnd)" x1="327" y1="125.625" x2="357" y2="125.625" />
<line stroke="Black" stroke-width="1.875" marker-end="url(#arrowEnd)" x1="327" y1="176.25" x2="357" y2="176.25" />
<line stroke="Black" stroke-width="1.875" marker-end="url(#arrowEnd)" x1="327" y1="226.875" x2="357" y2="226.875" />
<line stroke="Black" stroke-width="1.875" marker-end="url(#arrowEnd)" x1="327" y1="268.125" x2="357" y2="268.125" />
<line stroke="Black" stroke-width="1.875" marker-end="url(#arrowEnd)" x1="327" y1="309.375" x2="357" y2="309.375" />
<line stroke="Black" stroke-width="1.875" marker-end="url(#arrowEnd)" x1="327" y1="350.625" x2="357" y2="350.625" />
<line stroke="Black" stroke-width="1.875" marker-end="url(#arrowEnd)" x1="327" y1="391.875" x2="357" y2="391.875" />
<line stroke="Black" stroke-width="1.875" marker-end="url(#arrowEnd)" x1="327" y1="433.125" x2="357" y2="433.125" />
<line stroke="Black" stroke-width="1.875" marker-end="url(#arrowEnd)" x1="327" y1="474.375" x2="357" y2="474.375" />
<line stroke="Black" stroke-width="1.875" marker-start="url(#arrowStart)" x1="297" y1="33.75" x2="327" y2="33.75" />
<line stroke="Black" stroke-width="1.875" x1="327" y1="24.375" x2="327" y2="474.375" />
</g>
<g>
<g transform="translate(357 7.5)">
<rect fill="LightBlue" stroke="Black" stroke-width="1.875" x="0" y="0" width="162" height="33.75" rx="3.75" ry="3.75" />
<a href="./StructureDefinition-AbnormalityForeignObject.html" target="_top">
<title>'AbnormalityForeignObject'</title>
<text x="81" y="22.5" text-anchor="middle">Foreign Object</text>
</a>
</g>
<g transform="translate(357 48.75)">
<rect fill="LightBlue" stroke="Black" stroke-width="1.875" x="0" y="0" width="120" height="52.5" rx="3.75" ry="3.75" />
<a href="./StructureDefinition-AssociatedFeatures.html" target="_top">
<title>'AssociatedFeatures'</title>
<text x="60" y="22.5" text-anchor="middle">Associated</text>
</a>
<a href="./StructureDefinition-AssociatedFeatures.html" target="_top">
<title>'AssociatedFeatures'</title>
<text x="60" y="41.25" text-anchor="middle">Features</text>
</a>
</g>
<g transform="translate(357 108.75)">
<rect fill="LightBlue" stroke="Black" stroke-width="1.875" x="0" y="0" width="162" height="33.75" rx="3.75" ry="3.75" />
<a href="./StructureDefinition-MGAbnormalityForeignObject.html" target="_top">
<title>'MGAbnormalityForeignObject'</title>
<text x="81" y="22.5" text-anchor="middle">Foreign Object</text>
</a>
</g>
<g transform="translate(357 150)">
<rect fill="LightBlue" stroke="Black" stroke-width="1.875" x="0" y="0" width="151.49998" height="52.5" rx="3.75" ry="3.75" />
<a href="./StructureDefinition-MGAssociatedFeatures.html" target="_top">
<title>'MGAssociatedFeatures'</title>
<text x="75.74999" y="22.5" text-anchor="middle">MG Associated</text>
</a>
<a href="./StructureDefinition-MGAssociatedFeatures.html" target="_top">
<title>'MGAssociatedFeatures'</title>
<text x="75.74999" y="41.25" text-anchor="middle">Features</text>
</a>
</g>
<g transform="translate(357 210)">
<rect fill="LightBlue" stroke="Black" stroke-width="1.875" x="0" y="0" width="120" height="33.75" rx="3.75" ry="3.75" />
<a href="./StructureDefinition-MGFinding.html" target="_top">
<title>'MGFinding'</title>
<text x="60" y="22.5" text-anchor="middle">MG Finding</text>
</a>
</g>
<g transform="translate(357 251.25)">
<rect fill="LightBlue" stroke="Black" stroke-width="1.875" x="0" y="0" width="130.5" height="33.75" rx="3.75" ry="3.75" />
<a href="./StructureDefinition-MRIFinding.html" target="_top">
<title>'MRIFinding'</title>
<text x="65.25" y="22.5" text-anchor="middle">MRI Finding</text>
</a>
</g>
<g transform="translate(357 292.5)">
<rect fill="LightBlue" stroke="Black" stroke-width="1.875" x="0" y="0" width="120" height="33.75" rx="3.75" ry="3.75" />
<a href="./StructureDefinition-NMFinding.html" target="_top">
<title>'NMFinding'</title>
<text x="60" y="22.5" text-anchor="middle">NM Finding</text>
</a>
</g>
<g transform="translate(357 333.75)">
<rect fill="LightBlue" stroke="Black" stroke-width="1.875" x="0" y="0" width="99" height="33.75" rx="3.75" ry="3.75" />
<a href="./StructureDefinition-SectionFindings.html" target="_top">
<title>'SectionFindings'</title>
<text x="49.5" y="22.5" text-anchor="middle">Findings</text>
</a>
</g>
<g transform="translate(357 375)">
<rect fill="LightBlue" stroke="Black" stroke-width="1.875" x="0" y="0" width="130.5" height="33.75" rx="3.75" ry="3.75" />
<a href="./StructureDefinition-SectionFindingsLeftBreast.html" target="_top">
<title>'SectionFindingsLeftBreast'</title>
<text x="65.25" y="22.5" text-anchor="middle">Left Breast</text>
</a>
</g>
<g transform="translate(357 416.25)">
<rect fill="LightBlue" stroke="Black" stroke-width="1.875" x="0" y="0" width="141" height="33.75" rx="3.75" ry="3.75" />
<a href="./StructureDefinition-SectionFindingsRightBreast.html" target="_top">
<title>'SectionFindingsRightBreast'</title>
<text x="70.5" y="22.5" text-anchor="middle">Right Breast</text>
</a>
</g>
<g transform="translate(357 457.5)">
<rect fill="LightBlue" stroke="Black" stroke-width="1.875" x="0" y="0" width="120" height="33.75" rx="3.75" ry="3.75" />
<a href="./StructureDefinition-USFinding.html" target="_top">
<title>'USFinding'</title>
<text x="60" y="22.5" text-anchor="middle">US Finding</text>
</a>
</g>
</g>
</svg>
