<?xml version="1.0"?>
<?xml-stylesheet type="text/css" href="FragGraph.css" ?>
<!DOCTYPE svg PUBLIC "-//W3C//DTD SVG 1.1//EN" "http://www.w3.org/Graphics/SVG/1.1/DTD/svg11.dtd">
<svg xmlns="http://www.w3.org/2000/svg" version="1.1" width="510.32" height="277.5">
<defs>
<marker id="arrowStart" markerWidth="3.75" markerHeight="3.75" markerUnits="px" refX="1.88" refY="1.88">
<circle class="connector" cx="1.88" cy="1.88" r="1.88" />
</marker>
<marker id="arrowEnd" markerWidth="7.5" markerHeight="7.5" markerUnits="px" refX="7.5" refY="3.75">
<polygon class="connector" points="0 0 7.5 3.75 0 7.5" />
</marker>
</defs>
<g>
<g transform="translate(3.75 3.75)">
<a href="StructureDefinition-BiRadBreastCompositionFragment.html" target="_top">
<rect class="focus" x="0" y="0" width="281.18" height="26.25" rx="3.75" ry="3.75" />
</a>
<a href="StructureDefinition-BiRadBreastCompositionFragment.html" target="_top">
<text x="5.62" y="18.75" text-anchor="left" class="focus">BiRad Breast Composition Fragment</text>
</a>
</g>
<line class="connector" marker-end="url(#arrowEnd)" x1="314.93" y1="26.25" x2="374.93" y2="26.25" />
<text x="318.68" y="22.5" text-anchor="right" class="lhsText">0..*</text>
<line class="connector" marker-end="url(#arrowEnd)" x1="314.93" y1="78.75" x2="374.93" y2="78.75" />
<text x="318.68" y="75" text-anchor="right" class="lhsText">0..*</text>
<line class="connector" marker-end="url(#arrowEnd)" x1="314.93" y1="131.25" x2="374.93" y2="131.25" />
<text x="318.68" y="127.5" text-anchor="right" class="lhsText">0..*</text>
<line class="connector" marker-start="url(#arrowStart)" x1="284.93" y1="16.88" x2="314.93" y2="16.88" />
<line class="connector" x1="314.93" y1="16.88" x2="314.93" y2="131.25" />
</g>
<g>
<g transform="translate(374.93 3.75)">
<a href="StructureDefinition-FindingsBiLateralBreast.html" target="_top">
<rect class="profile" x="0" y="0" width="77.87" height="45" rx="3.75" ry="3.75" />
</a>
<a href="StructureDefinition-FindingsBiLateralBreast.html" target="_top">
<text x="5.62" y="18.75" text-anchor="left" class="profile">Findings</text>
</a>
<a href="StructureDefinition-FindingsBiLateralBreast.html" target="_top">
<text x="5.62" y="37.5" text-anchor="left" class="profile">BiLateral</text>
</a>
</g>
</g>
<g>
<g transform="translate(374.93 56.25)">
<a href="StructureDefinition-FindingsLeftBreast.html" target="_top">
<rect class="profile" x="0" y="0" width="92.52" height="45" rx="3.75" ry="3.75" />
</a>
<a href="StructureDefinition-FindingsLeftBreast.html" target="_top">
<text x="5.62" y="18.75" text-anchor="left" class="profile">Findings</text>
</a>
<a href="StructureDefinition-FindingsLeftBreast.html" target="_top">
<text x="5.62" y="37.5" text-anchor="left" class="profile">Left Breast</text>
</a>
</g>
</g>
<g>
<g transform="translate(374.93 108.75)">
<a href="StructureDefinition-FindingsRightBreast.html" target="_top">
<rect class="profile" x="0" y="0" width="103.51" height="45" rx="3.75" ry="3.75" />
</a>
<a href="StructureDefinition-FindingsRightBreast.html" target="_top">
<text x="5.62" y="18.75" text-anchor="left" class="profile">Findings</text>
</a>
<a href="StructureDefinition-FindingsRightBreast.html" target="_top">
<text x="5.62" y="37.5" text-anchor="left" class="profile">Right Breast</text>
</a>
</g>
</g>
<g>
<g transform="translate(3.75 236.25)">
<rect class="focus" x="0" y="0" width="57.72" height="26.25" rx="3.75" ry="3.75" />
<text x="5.62" y="18.75" text-anchor="left" class="focus">Focus</text>
</g>
<g transform="translate(68.97 236.25)">
<rect class="profile" x="0" y="0" width="143.81" height="26.25" rx="3.75" ry="3.75" />
<text x="5.62" y="18.75" text-anchor="left" class="profile">Profiled Resource</text>
</g>
</g>
</svg>
