<?xml version="1.0"?>
<!DOCTYPE svg PUBLIC "-//W3C//DTD SVG 1.1//EN" "http://www.w3.org/Graphics/SVG/1.1/DTD/svg11.dtd">
<svg xmlns="http://www.w3.org/2000/svg" version="1.1" width="618" height="697.5">
<defs>
<marker id="arrowStart" markerWidth="3.75" markerHeight="3.75" markerUnits="px" refX="1.875" refY="1.875">
<circle fill="Black" stroke-width="0" cx="1.875" cy="1.875" r="1.875" />
</marker>
<marker id="arrowEnd" markerWidth="7.5" markerHeight="7.5" markerUnits="px" refX="7.5" refY="3.75">
<polygon fill="Black" stroke-width="0" points="0 0 7.5 3.75 0 7.5" />
</marker>
</defs>
<g>
<g transform="translate(7.5 7.5)">
<rect fill="LightCyan" stroke="Black" stroke-width="1.875" x="0" y="0" width="130.5" height="52.5" rx="3.75" ry="3.75" />
<a href="./StructureDefinition-BreastRadObservationFragment.html" target="_top">
<title>'BreastRadObservationFragment'</title>
<text x="65.25" y="22.5" text-anchor="middle">Observation</text>
</a>
<a href="./StructureDefinition-BreastRadObservationFragment.html" target="_top">
<title>'BreastRadObservationFragment'</title>
<text x="65.25" y="41.25" text-anchor="middle">Fragment</text>
</a>
</g>
<line stroke="Black" stroke-width="1.875" marker-end="url(#arrowEnd)" x1="153" y1="43.125" x2="183" y2="43.125" />
<line stroke="Black" stroke-width="1.875" marker-start="url(#arrowStart)" x1="138" y1="33.75" x2="153" y2="33.75" />
<line stroke="Black" stroke-width="1.875" x1="153" y1="33.75" x2="153" y2="43.125" />
</g>
<g>
<g transform="translate(183 7.5)">
<rect fill="Green" stroke="Black" stroke-width="1.875" x="0" y="0" width="130.5" height="71.25" rx="3.75" ry="3.75" />
<text x="65.25" y="22.5" text-anchor="middle">Observation</text>
<text x="65.25" y="41.25" text-anchor="middle">NoDevice</text>
<text x="65.25" y="60" text-anchor="middle">Fragment</text>
</g>
<line stroke="Black" stroke-width="1.875" marker-end="url(#arrowEnd)" x1="328.5" y1="24.375" x2="358.5" y2="24.375" />
<line stroke="Black" stroke-width="1.875" marker-end="url(#arrowEnd)" x1="328.5" y1="65.625" x2="358.5" y2="65.625" />
<line stroke="Black" stroke-width="1.875" marker-end="url(#arrowEnd)" x1="328.5" y1="106.875" x2="358.5" y2="106.875" />
<line stroke="Black" stroke-width="1.875" marker-end="url(#arrowEnd)" x1="328.5" y1="148.125" x2="358.5" y2="148.125" />
<line stroke="Black" stroke-width="1.875" marker-end="url(#arrowEnd)" x1="328.5" y1="189.375" x2="358.5" y2="189.375" />
<line stroke="Black" stroke-width="1.875" marker-end="url(#arrowEnd)" x1="328.5" y1="240" x2="358.5" y2="240" />
<line stroke="Black" stroke-width="1.875" marker-end="url(#arrowEnd)" x1="328.5" y1="309.375" x2="358.5" y2="309.375" />
<line stroke="Black" stroke-width="1.875" marker-end="url(#arrowEnd)" x1="328.5" y1="369.375" x2="358.5" y2="369.375" />
<line stroke="Black" stroke-width="1.875" marker-end="url(#arrowEnd)" x1="328.5" y1="410.625" x2="358.5" y2="410.625" />
<line stroke="Black" stroke-width="1.875" marker-end="url(#arrowEnd)" x1="328.5" y1="451.875" x2="358.5" y2="451.875" />
<line stroke="Black" stroke-width="1.875" marker-end="url(#arrowEnd)" x1="328.5" y1="493.125" x2="358.5" y2="493.125" />
<line stroke="Black" stroke-width="1.875" marker-end="url(#arrowEnd)" x1="328.5" y1="534.375" x2="358.5" y2="534.375" />
<line stroke="Black" stroke-width="1.875" marker-end="url(#arrowEnd)" x1="328.5" y1="575.625" x2="358.5" y2="575.625" />
<line stroke="Black" stroke-width="1.875" marker-end="url(#arrowEnd)" x1="328.5" y1="616.875" x2="358.5" y2="616.875" />
<line stroke="Black" stroke-width="1.875" marker-end="url(#arrowEnd)" x1="328.5" y1="658.125" x2="358.5" y2="658.125" />
<line stroke="Black" stroke-width="1.875" marker-start="url(#arrowStart)" x1="313.5" y1="43.125" x2="328.5" y2="43.125" />
<line stroke="Black" stroke-width="1.875" x1="328.5" y1="24.375" x2="328.5" y2="658.125" />
</g>
<g>
<g transform="translate(358.5 7.5)">
<rect fill="LightBlue" stroke="Black" stroke-width="1.875" x="0" y="0" width="57" height="33.75" rx="3.75" ry="3.75" />
<a href="./StructureDefinition-AbnormalityCyst.html" target="_top">
<title>'AbnormalityCyst'</title>
<text x="28.5" y="22.5" text-anchor="middle">Cyst</text>
</a>
</g>
<g transform="translate(358.5 48.75)">
<rect fill="LightBlue" stroke="Black" stroke-width="1.875" x="0" y="0" width="57" height="33.75" rx="3.75" ry="3.75" />
<a href="./StructureDefinition-AbnormalityDuct.html" target="_top">
<title>'AbnormalityDuct'</title>
<text x="28.5" y="22.5" text-anchor="middle">Duct</text>
</a>
</g>
<g transform="translate(358.5 90)">
<rect fill="LightBlue" stroke="Black" stroke-width="1.875" x="0" y="0" width="141" height="33.75" rx="3.75" ry="3.75" />
<a href="./StructureDefinition-AbnormalityFibroadenoma.html" target="_top">
<title>'AbnormalityFibroadenoma'</title>
<text x="70.5" y="22.5" text-anchor="middle">Fibroadenoma</text>
</a>
</g>
<g transform="translate(358.5 131.25)">
<rect fill="LightBlue" stroke="Black" stroke-width="1.875" x="0" y="0" width="162" height="33.75" rx="3.75" ry="3.75" />
<a href="./StructureDefinition-AbnormalityForeignObject.html" target="_top">
<title>'AbnormalityForeignObject'</title>
<text x="81" y="22.5" text-anchor="middle">Foreign Object</text>
</a>
</g>
<g transform="translate(358.5 172.5)">
<rect fill="LightBlue" stroke="Black" stroke-width="1.875" x="0" y="0" width="120" height="33.75" rx="3.75" ry="3.75" />
<a href="./StructureDefinition-AbnormalityLymphNode.html" target="_top">
<title>'AbnormalityLymphNode'</title>
<text x="60" y="22.5" text-anchor="middle">Lymph Node</text>
</a>
</g>
<g transform="translate(358.5 213.75)">
<rect fill="LightBlue" stroke="Black" stroke-width="1.875" x="0" y="0" width="120" height="52.5" rx="3.75" ry="3.75" />
<a href="./StructureDefinition-ConsistentWith.html" target="_top">
<title>'ConsistentWith'</title>
<text x="60" y="22.5" text-anchor="middle">Consistent</text>
</a>
<a href="./StructureDefinition-ConsistentWith.html" target="_top">
<title>'ConsistentWith'</title>
<text x="60" y="41.25" text-anchor="middle">With</text>
</a>
</g>
<g transform="translate(358.5 273.75)">
<rect fill="LightBlue" stroke="Black" stroke-width="1.875" x="0" y="0" width="99" height="71.25" rx="3.75" ry="3.75" />
<a href="./StructureDefinition-FindingBreastFragment.html" target="_top">
<title>'FindingBreastFragment'</title>
<text x="49.5" y="22.5" text-anchor="middle">Finding</text>
</a>
<a href="./StructureDefinition-FindingBreastFragment.html" target="_top">
<title>'FindingBreastFragment'</title>
<text x="49.5" y="41.25" text-anchor="middle">Breast</text>
</a>
<a href="./StructureDefinition-FindingBreastFragment.html" target="_top">
<title>'FindingBreastFragment'</title>
<text x="49.5" y="60" text-anchor="middle">Fragment</text>
</a>
</g>
<g transform="translate(358.5 352.5)">
<rect fill="LightBlue" stroke="Black" stroke-width="1.875" x="0" y="0" width="57" height="33.75" rx="3.75" ry="3.75" />
<a href="./StructureDefinition-Mass.html" target="_top">
<title>'Mass'</title>
<text x="28.5" y="22.5" text-anchor="middle">Mass</text>
</a>
</g>
<g transform="translate(358.5 393.75)">
<rect fill="LightBlue" stroke="Black" stroke-width="1.875" x="0" y="0" width="214.5" height="33.75" rx="3.75" ry="3.75" />
<a href="./StructureDefinition-MGAbnormalityArchitecturalDistortion.html" target="_top">
<title>'MGAbnormalityArchitecturalDistortion'</title>
<text x="107.25" y="22.5" text-anchor="middle">MG Arch. Distortion</text>
</a>
</g>
<g transform="translate(358.5 435)">
<rect fill="LightBlue" stroke="Black" stroke-width="1.875" x="0" y="0" width="141" height="33.75" rx="3.75" ry="3.75" />
<a href="./StructureDefinition-MGAbnormalityAsymmetry.html" target="_top">
<title>'MGAbnormalityAsymmetry'</title>
<text x="70.5" y="22.5" text-anchor="middle">MG Asymmetry</text>
</a>
</g>
<g transform="translate(358.5 476.25)">
<rect fill="LightBlue" stroke="Black" stroke-width="1.875" x="0" y="0" width="99" height="33.75" rx="3.75" ry="3.75" />
<a href="./StructureDefinition-MGAbnormalityCalcification.html" target="_top">
<title>'MGAbnormalityCalcification'</title>
<text x="49.5" y="22.5" text-anchor="middle">MG Calc.</text>
</a>
</g>
<g transform="translate(358.5 517.5)">
<rect fill="LightBlue" stroke="Black" stroke-width="1.875" x="0" y="0" width="120" height="33.75" rx="3.75" ry="3.75" />
<a href="./StructureDefinition-MGAbnormalityDensity.html" target="_top">
<title>'MGAbnormalityDensity'</title>
<text x="60" y="22.5" text-anchor="middle">MG Density</text>
</a>
</g>
<g transform="translate(358.5 558.75)">
<rect fill="LightBlue" stroke="Black" stroke-width="1.875" x="0" y="0" width="172.5" height="33.75" rx="3.75" ry="3.75" />
<a href="./StructureDefinition-MGAbnormalityFatNecrosis.html" target="_top">
<title>'MGAbnormalityFatNecrosis'</title>
<text x="86.25" y="22.5" text-anchor="middle">MG Fat Necrosis</text>
</a>
</g>
<g transform="translate(358.5 600)">
<rect fill="LightBlue" stroke="Black" stroke-width="1.875" x="0" y="0" width="193.5" height="33.75" rx="3.75" ry="3.75" />
<a href="./StructureDefinition-MGBreastDensity.html" target="_top">
<title>'MGBreastDensity'</title>
<text x="96.75" y="22.5" text-anchor="middle">MG Breast Density</text>
</a>
</g>
<g transform="translate(358.5 641.25)">
<rect fill="LightBlue" stroke="Black" stroke-width="1.875" x="0" y="0" width="183" height="33.75" rx="3.75" ry="3.75" />
<a href="./StructureDefinition-ObservedFeature.html" target="_top">
<title>'ObservedFeature'</title>
<text x="91.5" y="22.5" text-anchor="middle">Observed Feature</text>
</a>
</g>
</g>
</svg>
