<?xml version="1.0"?>
<!DOCTYPE svg PUBLIC "-//W3C//DTD SVG 1.1//EN" "http://www.w3.org/Graphics/SVG/1.1/DTD/svg11.dtd">
<svg xmlns="http://www.w3.org/2000/svg" version="1.1" width="673.5" height="423.75">
<defs>
<marker id="arrowStart" markerWidth="3.75" markerHeight="3.75" markerUnits="px" refX="1.875" refY="1.875">
<circle fill="Black" stroke-width="0" cx="1.875" cy="1.875" r="1.875" />
</marker>
<marker id="arrowEnd" markerWidth="7.5" markerHeight="7.5" markerUnits="px" refX="7.5" refY="3.75">
<polygon fill="Black" stroke-width="0" points="0 0 7.5 3.75 0 7.5" />
</marker>
</defs>
<g>
<g transform="translate(7.5 7.5)">
<rect fill="LightCyan" stroke="Black" stroke-width="1.875" x="0" y="0" width="78" height="33.75" rx="3.75" ry="3.75" />
<a href="./StructureDefinition-FragmentHeaderFragment.html" target="_blank">
<title>'Fragment HeaderFragment'</title>
<text x="39" y="22.5" text-anchor="middle">Common</text>
</a>
</g>
<line stroke="Black" stroke-width="1.875" marker-end="url(#arrowEnd)" x1="115.5" y1="61.875" x2="145.5" y2="61.875" />
<line stroke="Black" stroke-width="1.875" marker-start="url(#arrowStart)" x1="85.5" y1="24.375" x2="115.5" y2="24.375" />
<line stroke="Black" stroke-width="1.875" x1="115.5" y1="24.375" x2="115.5" y2="61.875" />
</g>
<g>
<g transform="translate(145.5 7.5)">
<rect fill="Green" stroke="Black" stroke-width="1.875" x="0" y="0" width="120" height="108.75" rx="3.75" ry="3.75" />
<text x="60" y="22.5" text-anchor="middle">Breast</text>
<text x="60" y="41.25" text-anchor="middle">Body</text>
<text x="60" y="60" text-anchor="middle">Location</text>
<text x="60" y="78.75" text-anchor="middle">Fragment</text>
<text x="60" y="97.5" text-anchor="middle">(Required)</text>
</g>
<line stroke="Black" stroke-width="1.875" marker-end="url(#arrowEnd)" x1="295.5" y1="43.125" x2="325.5" y2="43.125" />
<line stroke="Black" stroke-width="1.875" marker-end="url(#arrowEnd)" x1="295.5" y1="103.125" x2="325.5" y2="103.125" />
<line stroke="Black" stroke-width="1.875" marker-end="url(#arrowEnd)" x1="295.5" y1="153.75" x2="325.5" y2="153.75" />
<line stroke="Black" stroke-width="1.875" marker-end="url(#arrowEnd)" x1="295.5" y1="204.375" x2="325.5" y2="204.375" />
<line stroke="Black" stroke-width="1.875" marker-end="url(#arrowEnd)" x1="295.5" y1="255" x2="325.5" y2="255" />
<line stroke="Black" stroke-width="1.875" marker-end="url(#arrowEnd)" x1="295.5" y1="315" x2="325.5" y2="315" />
<line stroke="Black" stroke-width="1.875" marker-end="url(#arrowEnd)" x1="295.5" y1="375" x2="325.5" y2="375" />
<line stroke="Black" stroke-width="1.875" marker-start="url(#arrowStart)" x1="265.5" y1="61.875" x2="295.5" y2="61.875" />
<line stroke="Black" stroke-width="1.875" x1="295.5" y1="43.125" x2="295.5" y2="375" />
</g>
<g>
<g transform="translate(325.5 7.5)">
<rect fill="LightBlue" stroke="Black" stroke-width="1.875" x="0" y="0" width="130.5" height="71.25" rx="3.75" ry="3.75" />
<a href="./StructureDefinition-FragmentMGAxillaryAdenopathy.html" target="_blank">
<title>'Fragment MGAxillaryAdenopathy'</title>
<text x="65.25" y="22.5" text-anchor="middle">MG Axillary</text>
</a>
<a href="./StructureDefinition-FragmentMGAxillaryAdenopathy.html" target="_blank">
<title>'Fragment MGAxillaryAdenopathy'</title>
<text x="65.25" y="41.25" text-anchor="middle">Adenopathy</text>
</a>
<a href="StructureDefinition-MGAxillaryAdenopathy.html" target="_blank">
<title>Resource 'MGAxillaryAdenopathy'</title>
<text x="65.25" y="60" text-anchor="middle">[Resource]</text>
</a>
</g>
<g transform="translate(325.5 86.25)">
<rect fill="LightBlue" stroke="Black" stroke-width="1.875" x="0" y="0" width="287.99997" height="33.75" rx="3.75" ry="3.75" />
<a href="./StructureDefinition-FragmentMgCommonTargetsFragment.html" target="_blank">
<title>'Fragment MgCommonTargetsFragment'</title>
<text x="143.99998" y="22.5" text-anchor="middle">MG Common Targets Fragment</text>
</a>
</g>
<g transform="translate(325.5 127.5)">
<rect fill="LightBlue" stroke="Black" stroke-width="1.875" x="0" y="0" width="225" height="52.5" rx="3.75" ry="3.75" />
<a href="./StructureDefinition-FragmentMGNippleRetraction.html" target="_blank">
<title>'Fragment MGNippleRetraction'</title>
<text x="112.5" y="22.5" text-anchor="middle">MG Nipple Retraction</text>
</a>
<a href="StructureDefinition-MGNippleRetraction.html" target="_blank">
<title>Resource 'MGNippleRetraction'</title>
<text x="112.5" y="41.25" text-anchor="middle">[Resource]</text>
</a>
</g>
<g transform="translate(325.5 187.5)">
<rect fill="LightBlue" stroke="Black" stroke-width="1.875" x="0" y="0" width="277.5" height="33.75" rx="3.75" ry="3.75" />
<a href="./StructureDefinition-FragmentMgShapeTargetsFragment.html" target="_blank">
<title>'Fragment MgShapeTargetsFragment'</title>
<text x="138.75" y="22.5" text-anchor="middle">MG Shape Targets Fragment</text>
</a>
</g>
<g transform="translate(325.5 228.75)">
<rect fill="LightBlue" stroke="Black" stroke-width="1.875" x="0" y="0" width="162" height="52.5" rx="3.75" ry="3.75" />
<a href="./StructureDefinition-FragmentMGSkinLesion.html" target="_blank">
<title>'Fragment MGSkinLesion'</title>
<text x="81" y="22.5" text-anchor="middle">MG Skin Lesion</text>
</a>
<a href="StructureDefinition-MGSkinLesion.html" target="_blank">
<title>Resource 'MGSkinLesion'</title>
<text x="81" y="41.25" text-anchor="middle">[Resource]</text>
</a>
</g>
<g transform="translate(325.5 288.75)">
<rect fill="LightBlue" stroke="Black" stroke-width="1.875" x="0" y="0" width="203.99998" height="52.5" rx="3.75" ry="3.75" />
<a href="./StructureDefinition-FragmentMGSkinRetraction.html" target="_blank">
<title>'Fragment MGSkinRetraction'</title>
<text x="101.99999" y="22.5" text-anchor="middle">MG Skin Retraction</text>
</a>
<a href="StructureDefinition-MGSkinRetraction.html" target="_blank">
<title>Resource 'MGSkinRetraction'</title>
<text x="101.99999" y="41.25" text-anchor="middle">[Resource]</text>
</a>
</g>
<g transform="translate(325.5 348.75)">
<rect fill="LightBlue" stroke="Black" stroke-width="1.875" x="0" y="0" width="203.99998" height="52.5" rx="3.75" ry="3.75" />
<a href="./StructureDefinition-FragmentMGSkinThickening.html" target="_blank">
<title>'Fragment MGSkinThickening'</title>
<text x="101.99999" y="22.5" text-anchor="middle">MG Skin Thickening</text>
</a>
<a href="StructureDefinition-MGSkinThickening.html" target="_blank">
<title>Resource 'MGSkinThickening'</title>
<text x="101.99999" y="41.25" text-anchor="middle">[Resource]</text>
</a>
</g>
</g>
</svg>
