<?xml version="1.0"?>
<!DOCTYPE svg PUBLIC "-//W3C//DTD SVG 1.1//EN" "http://www.w3.org/Graphics/SVG/1.1/DTD/svg11.dtd">
<svg xmlns="http://www.w3.org/2000/svg" version="1.1" width="799.49994" height="82.5">
<defs>
<marker id="arrowStart" markerWidth="3.75" markerHeight="3.75" markerUnits="px" refX="1.875" refY="1.875">
<circle fill="Black" stroke-width="0" cx="1.875" cy="1.875" r="1.875" />
</marker>
<marker id="arrowEnd" markerWidth="7.5" markerHeight="7.5" markerUnits="px" refX="7.5" refY="3.75">
<polygon fill="Black" stroke-width="0" points="0 0 7.5 3.75 0 7.5" />
</marker>
</defs>
<g>
<g transform="translate(7.5 7.5)">
<rect fill="LightCyan" stroke="Black" stroke-width="1.875" x="0" y="0" width="78" height="33.75" rx="3.75" ry="3.75" />
<a href="./StructureDefinition-HeaderFragment.html" target="_top">
<title>'HeaderFragment'</title>
<text x="39" y="22.5" text-anchor="middle">Common</text>
</a>
</g>
<line stroke="Black" stroke-width="1.875" marker-end="url(#arrowEnd)" x1="115.5" y1="33.75" x2="145.5" y2="33.75" />
<line stroke="Black" stroke-width="1.875" marker-start="url(#arrowStart)" x1="85.5" y1="24.375" x2="115.5" y2="24.375" />
<line stroke="Black" stroke-width="1.875" x1="115.5" y1="24.375" x2="115.5" y2="33.75" />
</g>
<g>
<g transform="translate(145.5 7.5)">
<rect fill="Green" stroke="Black" stroke-width="1.875" x="0" y="0" width="246" height="52.5" rx="3.75" ry="3.75" />
<text x="123" y="22.5" text-anchor="middle">Service Recommendation</text>
<text x="123" y="41.25" text-anchor="middle">Fragment</text>
</g>
<line stroke="Black" stroke-width="1.875" marker-end="url(#arrowEnd)" x1="421.49997" y1="24.375" x2="451.49997" y2="24.375" />
<line stroke="Black" stroke-width="1.875" marker-start="url(#arrowStart)" x1="391.49997" y1="33.75" x2="421.49997" y2="33.75" />
<line stroke="Black" stroke-width="1.875" x1="421.49997" y1="24.375" x2="421.49997" y2="33.75" />
</g>
<g>
<g transform="translate(451.49997 7.5)">
<rect fill="LightBlue" stroke="Black" stroke-width="1.875" x="0" y="0" width="287.99997" height="33.75" rx="3.75" ry="3.75" />
<a href="./StructureDefinition-CommonComponentsFragment.html" target="_top">
<title>'CommonComponentsFragment'</title>
<text x="143.99998" y="22.5" text-anchor="middle">Common Components Fragment</text>
</a>
</g>
</g>
</svg>
