<?xml version="1.0"?>
<!DOCTYPE svg PUBLIC "-//W3C//DTD SVG 1.1//EN" "http://www.w3.org/Graphics/SVG/1.1/DTD/svg11.dtd">
<svg xmlns="http://www.w3.org/2000/svg" version="1.1" width="904.5" height="393.75">
<defs>
<marker id="arrowStart" markerWidth="3.75" markerHeight="3.75" markerUnits="px" refX="1.875" refY="1.875">
<circle fill="Black" stroke-width="0" cx="1.875" cy="1.875" r="1.875" />
</marker>
<marker id="arrowEnd" markerWidth="7.5" markerHeight="7.5" markerUnits="px" refX="7.5" refY="3.75">
<polygon fill="Black" stroke-width="0" points="0 0 7.5 3.75 0 7.5" />
</marker>
</defs>
<g>
<g transform="translate(7.5 7.5)">
<rect fill="LightCyan" stroke="Black" stroke-width="1.875" x="0" y="0" width="225" height="52.5" rx="3.75" ry="3.75" />
<a href="./StructureDefinition-BreastBodyLocationRequiredFragment.html" target="_top">
<title>'BreastBodyLocationRequiredFragment'</title>
<text x="112.5" y="22.5" text-anchor="middle">Breast Body Location</text>
</a>
<a href="./StructureDefinition-BreastBodyLocationRequiredFragment.html" target="_top">
<title>'BreastBodyLocationRequiredFragment'</title>
<text x="112.5" y="41.25" text-anchor="middle">Fragment (Required)</text>
</a>
</g>
<line stroke="Black" stroke-width="1.875" marker-end="url(#arrowEnd)" x1="262.5" y1="24.375" x2="292.5" y2="24.375" />
<line stroke="Black" stroke-width="1.875" marker-start="url(#arrowStart)" x1="232.5" y1="33.75" x2="262.5" y2="33.75" />
<line stroke="Black" stroke-width="1.875" x1="262.5" y1="24.375" x2="262.5" y2="33.75" />
</g>
<g>
<g transform="translate(292.5 7.5)">
<rect fill="Green" stroke="Black" stroke-width="1.875" x="0" y="0" width="277.5" height="33.75" rx="3.75" ry="3.75" />
<text x="138.75" y="22.5" text-anchor="middle">Shape Components Fragment</text>
</g>
<line stroke="Black" stroke-width="1.875" marker-end="url(#arrowEnd)" x1="600" y1="24.375" x2="630" y2="24.375" />
<line stroke="Black" stroke-width="1.875" marker-end="url(#arrowEnd)" x1="600" y1="65.625" x2="630" y2="65.625" />
<line stroke="Black" stroke-width="1.875" marker-end="url(#arrowEnd)" x1="600" y1="106.875" x2="630" y2="106.875" />
<line stroke="Black" stroke-width="1.875" marker-end="url(#arrowEnd)" x1="600" y1="148.125" x2="630" y2="148.125" />
<line stroke="Black" stroke-width="1.875" marker-end="url(#arrowEnd)" x1="600" y1="189.375" x2="630" y2="189.375" />
<line stroke="Black" stroke-width="1.875" marker-end="url(#arrowEnd)" x1="600" y1="230.625" x2="630" y2="230.625" />
<line stroke="Black" stroke-width="1.875" marker-end="url(#arrowEnd)" x1="600" y1="271.875" x2="630" y2="271.875" />
<line stroke="Black" stroke-width="1.875" marker-end="url(#arrowEnd)" x1="600" y1="313.125" x2="630" y2="313.125" />
<line stroke="Black" stroke-width="1.875" marker-end="url(#arrowEnd)" x1="600" y1="354.375" x2="630" y2="354.375" />
<line stroke="Black" stroke-width="1.875" marker-start="url(#arrowStart)" x1="570" y1="24.375" x2="600" y2="24.375" />
<line stroke="Black" stroke-width="1.875" x1="600" y1="24.375" x2="600" y2="354.375" />
</g>
<g>
<g transform="translate(630 7.5)">
<rect fill="LightBlue" stroke="Black" stroke-width="1.875" x="0" y="0" width="57" height="33.75" rx="3.75" ry="3.75" />
<a href="./StructureDefinition-AbnormalityCyst.html" target="_top">
<title>'AbnormalityCyst'</title>
<text x="28.5" y="22.5" text-anchor="middle">Cyst</text>
</a>
</g>
<g transform="translate(630 48.75)">
<rect fill="LightBlue" stroke="Black" stroke-width="1.875" x="0" y="0" width="57" height="33.75" rx="3.75" ry="3.75" />
<a href="./StructureDefinition-AbnormalityDuct.html" target="_top">
<title>'AbnormalityDuct'</title>
<text x="28.5" y="22.5" text-anchor="middle">Duct</text>
</a>
</g>
<g transform="translate(630 90)">
<rect fill="LightBlue" stroke="Black" stroke-width="1.875" x="0" y="0" width="141" height="33.75" rx="3.75" ry="3.75" />
<a href="./StructureDefinition-AbnormalityFibroadenoma.html" target="_top">
<title>'AbnormalityFibroadenoma'</title>
<text x="70.5" y="22.5" text-anchor="middle">Fibroadenoma</text>
</a>
</g>
<g transform="translate(630 131.25)">
<rect fill="LightBlue" stroke="Black" stroke-width="1.875" x="0" y="0" width="120" height="33.75" rx="3.75" ry="3.75" />
<a href="./StructureDefinition-AbnormalityLymphNode.html" target="_top">
<title>'AbnormalityLymphNode'</title>
<text x="60" y="22.5" text-anchor="middle">Lymph Node</text>
</a>
</g>
<g transform="translate(630 172.5)">
<rect fill="LightBlue" stroke="Black" stroke-width="1.875" x="0" y="0" width="57" height="33.75" rx="3.75" ry="3.75" />
<a href="./StructureDefinition-Mass.html" target="_top">
<title>'Mass'</title>
<text x="28.5" y="22.5" text-anchor="middle">Mass</text>
</a>
</g>
<g transform="translate(630 213.75)">
<rect fill="LightBlue" stroke="Black" stroke-width="1.875" x="0" y="0" width="214.5" height="33.75" rx="3.75" ry="3.75" />
<a href="./StructureDefinition-MGAbnormalityArchitecturalDistortion.html" target="_top">
<title>'MGAbnormalityArchitecturalDistortion'</title>
<text x="107.25" y="22.5" text-anchor="middle">MG Arch. Distortion</text>
</a>
</g>
<g transform="translate(630 255)">
<rect fill="LightBlue" stroke="Black" stroke-width="1.875" x="0" y="0" width="141" height="33.75" rx="3.75" ry="3.75" />
<a href="./StructureDefinition-MGAbnormalityAsymmetry.html" target="_top">
<title>'MGAbnormalityAsymmetry'</title>
<text x="70.5" y="22.5" text-anchor="middle">MG Asymmetry</text>
</a>
</g>
<g transform="translate(630 296.25)">
<rect fill="LightBlue" stroke="Black" stroke-width="1.875" x="0" y="0" width="120" height="33.75" rx="3.75" ry="3.75" />
<a href="./StructureDefinition-MGAbnormalityDensity.html" target="_top">
<title>'MGAbnormalityDensity'</title>
<text x="60" y="22.5" text-anchor="middle">MG Density</text>
</a>
</g>
<g transform="translate(630 337.5)">
<rect fill="LightBlue" stroke="Black" stroke-width="1.875" x="0" y="0" width="172.5" height="33.75" rx="3.75" ry="3.75" />
<a href="./StructureDefinition-MGAbnormalityFatNecrosis.html" target="_top">
<title>'MGAbnormalityFatNecrosis'</title>
<text x="86.25" y="22.5" text-anchor="middle">MG Fat Necrosis</text>
</a>
</g>
</g>
</svg>
