<?xml version="1.0"?>
<!DOCTYPE svg PUBLIC "-//W3C//DTD SVG 1.1//EN" "http://www.w3.org/Graphics/SVG/1.1/DTD/svg11.dtd">
<svg xmlns="http://www.w3.org/2000/svg" version="1.1" width="587.99994" height="697.5">
<defs>
<marker id="arrowStart" markerWidth="3.75" markerHeight="3.75" markerUnits="px" refX="1.875" refY="1.875">
<circle fill="Black" stroke-width="0" cx="1.875" cy="1.875" r="1.875" />
</marker>
<marker id="arrowEnd" markerWidth="7.5" markerHeight="7.5" markerUnits="px" refX="7.5" refY="3.75">
<polygon fill="Black" stroke-width="0" points="0 0 7.5 3.75 0 7.5" />
</marker>
</defs>
<g />
<g>
<g>
<rect fill="LightGreen" stroke="Black" stroke-width="1.875" x="67.5" y="7.5" width="183" height="33.75" rx="3.75" ry="3.75" />
<text x="75" y="30">DiagnosticReport</text>
</g>
</g>
<g>
<g>
<rect fill="LightSalmon" stroke="Black" stroke-width="1.875" x="310.5" y="7.5" width="109.49999" height="33.75" rx="3.75" ry="3.75" />
<text x="318" y="30">Extension</text>
</g>
</g>
<g>
<g>
<rect fill="LightSkyBlue" stroke="Black" stroke-width="1.875" x="480" y="7.5" width="130.5" height="33.75" rx="3.75" ry="3.75" />
<text x="487.5" y="30">Observation</text>
</g>
</g>
<g>
<g>
<rect fill="LightCoral" stroke="Black" stroke-width="1.875" x="670.5" y="7.5" width="141" height="33.75" rx="3.75" ry="3.75" />
<text x="678" y="30">ImagingStudy</text>
</g>
</g>
<g>
<g>
<rect fill="LightSkyBlue" stroke="Black" stroke-width="1.875" x="7.5" y="86.25" width="120" height="33.75" rx="3.75" ry="3.75" />
<a href="./StructureDefinition-BreastRadMammoFinding.html" target="_blank">
<title>BreastRadMammoFinding</title>
<text x="15" y="108.75">Mg Finding</text>
</a>
</g>
<line stroke="Black" stroke-width="1.875" marker-end="url(#arrowEnd)" x1="157.5" y1="103.125" x2="187.5" y2="103.125" />
<line stroke="Black" stroke-width="1.875" marker-end="url(#arrowEnd)" x1="157.5" y1="144.375" x2="187.5" y2="144.375" />
<line stroke="Black" stroke-width="1.875" marker-end="url(#arrowEnd)" x1="157.5" y1="185.625" x2="187.5" y2="185.625" />
<line stroke="Black" stroke-width="1.875" marker-end="url(#arrowEnd)" x1="157.5" y1="226.875" x2="187.5" y2="226.875" />
<line stroke="Black" stroke-width="1.875" marker-end="url(#arrowEnd)" x1="157.5" y1="268.125" x2="187.5" y2="268.125" />
<line stroke="Black" stroke-width="1.875" marker-end="url(#arrowEnd)" x1="157.5" y1="309.375" x2="187.5" y2="309.375" />
<line stroke="Black" stroke-width="1.875" marker-end="url(#arrowEnd)" x1="157.5" y1="350.625" x2="187.5" y2="350.625" />
<line stroke="Black" stroke-width="1.875" marker-end="url(#arrowEnd)" x1="157.5" y1="391.875" x2="187.5" y2="391.875" />
<line stroke="Black" stroke-width="1.875" marker-end="url(#arrowEnd)" x1="157.5" y1="433.125" x2="187.5" y2="433.125" />
<line stroke="Black" stroke-width="1.875" marker-end="url(#arrowEnd)" x1="157.5" y1="474.375" x2="187.5" y2="474.375" />
<line stroke="Black" stroke-width="1.875" marker-end="url(#arrowEnd)" x1="157.5" y1="515.625" x2="187.5" y2="515.625" />
<line stroke="Black" stroke-width="1.875" marker-end="url(#arrowEnd)" x1="157.5" y1="556.875" x2="187.5" y2="556.875" />
<line stroke="Black" stroke-width="1.875" marker-end="url(#arrowEnd)" x1="157.5" y1="607.5" x2="187.5" y2="607.5" />
<line stroke="Black" stroke-width="1.875" marker-end="url(#arrowEnd)" x1="157.5" y1="658.125" x2="187.5" y2="658.125" />
<line stroke="Black" stroke-width="1.875" marker-start="url(#arrowStart)" x1="127.5" y1="103.125" x2="157.5" y2="103.125" />
<line stroke="Black" stroke-width="1.875" x1="157.5" y1="103.125" x2="157.5" y2="658.125" />
</g>
<g>
<g>
<rect fill="LightSkyBlue" stroke="Black" stroke-width="1.875" x="187.5" y="86.25" width="287.99997" height="33.75" rx="3.75" ry="3.75" />
<a href="./StructureDefinition-MGAbnormalityForeignObject.html" target="_blank">
<title>MGAbnormalityForeignObject</title>
<text x="195" y="108.75">Foreign Object Abnormality</text>
</a>
</g>
</g>
<g>
<g>
<rect fill="LightSkyBlue" stroke="Black" stroke-width="1.875" x="187.5" y="127.5" width="340.49997" height="33.75" rx="3.75" ry="3.75" />
<a href="./StructureDefinition-BreastRadMammoAbnormalityArchitecturalDistortion.html" target="_blank">
<title>BreastRadMammoAbnormalityArchitecturalDistortion</title>
<text x="195" y="150">Mg Arch. Distortion Abnormality</text>
</a>
</g>
</g>
<g>
<g>
<rect fill="LightSkyBlue" stroke="Black" stroke-width="1.875" x="187.5" y="168.75" width="267" height="33.75" rx="3.75" ry="3.75" />
<a href="./StructureDefinition-BreastRadMammoAbnormalityAsymmetry.html" target="_blank">
<title>BreastRadMammoAbnormalityAsymmetry</title>
<text x="195" y="191.25">Mg Asymmetry Abnormality</text>
</a>
</g>
</g>
<g>
<g>
<rect fill="LightSkyBlue" stroke="Black" stroke-width="1.875" x="187.5" y="210" width="225" height="33.75" rx="3.75" ry="3.75" />
<a href="./StructureDefinition-BreastRadMammoAbnormalityCalcification.html" target="_blank">
<title>BreastRadMammoAbnormalityCalcification</title>
<text x="195" y="232.5">Mg Calc. Abnormality</text>
</a>
</g>
</g>
<g>
<g>
<rect fill="LightSkyBlue" stroke="Black" stroke-width="1.875" x="187.5" y="251.25" width="214.5" height="33.75" rx="3.75" ry="3.75" />
<a href="./StructureDefinition-BreastRadMammoAbnormalityCyst.html" target="_blank">
<title>BreastRadMammoAbnormalityCyst</title>
<text x="195" y="273.75">Mg Cyst Abnormality</text>
</a>
</g>
</g>
<g>
<g>
<rect fill="LightSkyBlue" stroke="Black" stroke-width="1.875" x="187.5" y="292.5" width="246" height="33.75" rx="3.75" ry="3.75" />
<a href="./StructureDefinition-BreastRadMammoAbnormalityDensity.html" target="_blank">
<title>BreastRadMammoAbnormalityDensity</title>
<text x="195" y="315">Mg Density Abnormality</text>
</a>
</g>
</g>
<g>
<g>
<rect fill="LightSkyBlue" stroke="Black" stroke-width="1.875" x="187.5" y="333.75" width="214.5" height="33.75" rx="3.75" ry="3.75" />
<a href="./StructureDefinition-BreastRadMammoAbnormalityDuct.html" target="_blank">
<title>BreastRadMammoAbnormalityDuct</title>
<text x="195" y="356.25">Mg Duct Abnormality</text>
</a>
</g>
</g>
<g>
<g>
<rect fill="LightSkyBlue" stroke="Black" stroke-width="1.875" x="187.5" y="375" width="298.5" height="33.75" rx="3.75" ry="3.75" />
<a href="./StructureDefinition-BreastRadMammoAbnormalityFatNecrosis.html" target="_blank">
<title>BreastRadMammoAbnormalityFatNecrosis</title>
<text x="195" y="397.5">Mg Fat Necrosis Abnormality</text>
</a>
</g>
</g>
<g>
<g>
<rect fill="LightSkyBlue" stroke="Black" stroke-width="1.875" x="187.5" y="416.25" width="298.5" height="33.75" rx="3.75" ry="3.75" />
<a href="./StructureDefinition-BreastRadMammoAbnormalityFibroadenoma.html" target="_blank">
<title>BreastRadMammoAbnormalityFibroadenoma</title>
<text x="195" y="438.75">Mg Fibroadenoma Abnormality</text>
</a>
</g>
</g>
<g>
<g>
<rect fill="LightSkyBlue" stroke="Black" stroke-width="1.875" x="187.5" y="457.5" width="277.5" height="33.75" rx="3.75" ry="3.75" />
<a href="./StructureDefinition-BreastRadMammoAbnormalityLymphNode.html" target="_blank">
<title>BreastRadMammoAbnormalityLymphNode</title>
<text x="195" y="480">Mg Lymph Node Abnormality</text>
</a>
</g>
</g>
<g>
<g>
<rect fill="LightSkyBlue" stroke="Black" stroke-width="1.875" x="187.5" y="498.75" width="214.5" height="33.75" rx="3.75" ry="3.75" />
<a href="./StructureDefinition-BreastRadMammoMass.html" target="_blank">
<title>BreastRadMammoMass</title>
<text x="195" y="521.25">Mg Mass Abnormality</text>
</a>
</g>
</g>
<g>
<g>
<rect fill="LightSkyBlue" stroke="Black" stroke-width="1.875" x="187.5" y="540" width="162" height="33.75" rx="3.75" ry="3.75" />
<a href="./StructureDefinition-BreastRadMammoSkinLesion.html" target="_blank">
<title>BreastRadMammoSkinLesion</title>
<text x="195" y="562.5">Mg Skin Lesion</text>
</a>
</g>
</g>
<g>
<g>
<rect fill="LightSkyBlue" stroke="Black" stroke-width="1.875" x="187.5" y="581.25" width="151.49998" height="52.5" rx="3.75" ry="3.75" />
<a href="./StructureDefinition-BreastRadMammoAssociatedFeatures.html" target="_blank">
<title>BreastRadMammoAssociatedFeatures</title>
<text x="195" y="603.75">Mg Associated</text>
</a>
<a href="./StructureDefinition-BreastRadMammoAssociatedFeatures.html" target="_blank">
<title>BreastRadMammoAssociatedFeatures</title>
<text x="195" y="622.5">Features</text>
</a>
</g>
</g>
<g>
<g>
<rect fill="LightSkyBlue" stroke="Black" stroke-width="1.875" x="187.5" y="641.25" width="193.5" height="33.75" rx="3.75" ry="3.75" />
<a href="./StructureDefinition-BreastRadMammoBreastDensity.html" target="_blank">
<title>BreastRadMammoBreastDensity</title>
<text x="195" y="663.75">Mg Breast Density</text>
</a>
</g>
</g>
</svg>
