<?xml version="1.0"?>
<!DOCTYPE svg PUBLIC "-//W3C//DTD SVG 1.1//EN" "http://www.w3.org/Graphics/SVG/1.1/DTD/svg11.dtd">
<svg xmlns="http://www.w3.org/2000/svg" version="1.1" width="811.5" height="731.25">
<defs>
<marker id="arrowStart" markerWidth="3.75" markerHeight="3.75" markerUnits="px" refX="1.875" refY="1.875">
<circle fill="Black" stroke-width="0" cx="1.875" cy="1.875" r="1.875" />
</marker>
<marker id="arrowEnd" markerWidth="7.5" markerHeight="7.5" markerUnits="px" refX="7.5" refY="3.75">
<polygon fill="Black" stroke-width="0" points="0 0 7.5 3.75 0 7.5" />
</marker>
</defs>
<g>
<g transform="translate(7.5 7.5)">
<rect fill="LightGreen" stroke="Black" stroke-width="1.875" x="0" y="0" width="183" height="33.75" rx="3.75" ry="3.75" />
<text x="91.5" y="22.5" text-anchor="middle">DiagnosticReport</text>
</g>
</g>
<g>
<g transform="translate(250.50002 7.5)">
<rect fill="LightSalmon" stroke="Black" stroke-width="1.875" x="0" y="0" width="109.49999" height="33.75" rx="3.75" ry="3.75" />
<text x="54.749996" y="22.5" text-anchor="middle">Extension</text>
</g>
</g>
<g>
<g transform="translate(420 7.5)">
<rect fill="LightSkyBlue" stroke="Black" stroke-width="1.875" x="0" y="0" width="130.5" height="33.75" rx="3.75" ry="3.75" />
<text x="65.25" y="22.5" text-anchor="middle">Observation</text>
</g>
</g>
<g>
<g transform="translate(610.5 7.5)">
<rect fill="LightCoral" stroke="Black" stroke-width="1.875" x="0" y="0" width="141" height="33.75" rx="3.75" ry="3.75" />
<text x="70.5" y="22.5" text-anchor="middle">ImagingStudy</text>
</g>
</g>
<g>
<g transform="translate(7.5 48.75)">
<rect fill="LightBlue" stroke="Black" stroke-width="1.875" x="0" y="0" width="141" height="33.75" rx="3.75" ry="3.75" />
<text x="70.5" y="22.5" text-anchor="middle">FhirResource</text>
</g>
</g>
<g>
<g transform="translate(7.5 120)">
<rect fill="LightSkyBlue" stroke="Black" stroke-width="1.875" x="0" y="0" width="120" height="33.75" rx="3.75" ry="3.75" />
<a href="./StructureDefinition-MGFinding.html" target="_top">
<title>MGFinding</title>
<text x="60" y="22.5" text-anchor="middle">MG Finding</text>
</a>
</g>
<line stroke="Black" stroke-width="1.875" marker-end="url(#arrowEnd)" x1="157.5" y1="136.875" x2="187.5" y2="136.875" />
<line stroke="Black" stroke-width="1.875" marker-end="url(#arrowEnd)" x1="157.5" y1="178.125" x2="187.5" y2="178.125" />
<line stroke="Black" stroke-width="1.875" marker-end="url(#arrowEnd)" x1="157.5" y1="219.375" x2="187.5" y2="219.375" />
<line stroke="Black" stroke-width="1.875" marker-end="url(#arrowEnd)" x1="157.5" y1="260.625" x2="187.5" y2="260.625" />
<line stroke="Black" stroke-width="1.875" marker-end="url(#arrowEnd)" x1="157.5" y1="301.875" x2="187.5" y2="301.875" />
<line stroke="Black" stroke-width="1.875" marker-end="url(#arrowEnd)" x1="157.5" y1="343.125" x2="187.5" y2="343.125" />
<line stroke="Black" stroke-width="1.875" marker-end="url(#arrowEnd)" x1="157.5" y1="384.375" x2="187.5" y2="384.375" />
<line stroke="Black" stroke-width="1.875" marker-end="url(#arrowEnd)" x1="157.5" y1="425.625" x2="187.5" y2="425.625" />
<line stroke="Black" stroke-width="1.875" marker-end="url(#arrowEnd)" x1="157.5" y1="466.875" x2="187.5" y2="466.875" />
<line stroke="Black" stroke-width="1.875" marker-end="url(#arrowEnd)" x1="157.5" y1="508.125" x2="187.5" y2="508.125" />
<line stroke="Black" stroke-width="1.875" marker-end="url(#arrowEnd)" x1="157.5" y1="549.375" x2="187.5" y2="549.375" />
<line stroke="Black" stroke-width="1.875" marker-end="url(#arrowEnd)" x1="157.5" y1="600" x2="187.5" y2="600" />
<line stroke="Black" stroke-width="1.875" marker-end="url(#arrowEnd)" x1="157.5" y1="650.625" x2="187.5" y2="650.625" />
<line stroke="Black" stroke-width="1.875" marker-end="url(#arrowEnd)" x1="157.5" y1="691.875" x2="187.5" y2="691.875" />
<line stroke="Black" stroke-width="1.875" marker-start="url(#arrowStart)" x1="127.5" y1="136.875" x2="157.5" y2="136.875" />
<line stroke="Black" stroke-width="1.875" x1="157.5" y1="136.875" x2="157.5" y2="691.875" />
</g>
<g>
<g transform="translate(187.5 120)">
<rect fill="LightSkyBlue" stroke="Black" stroke-width="1.875" x="0" y="0" width="162" height="33.75" rx="3.75" ry="3.75" />
<a href="./StructureDefinition-MGAbnormalityForeignObject.html" target="_top">
<title>MGAbnormalityForeignObject</title>
<text x="81" y="22.5" text-anchor="middle">Foreign Object</text>
</a>
</g>
</g>
<g>
<g transform="translate(187.5 161.25)">
<rect fill="LightSkyBlue" stroke="Black" stroke-width="1.875" x="0" y="0" width="214.5" height="33.75" rx="3.75" ry="3.75" />
<a href="./StructureDefinition-MGAbnormalityArchitecturalDistortion.html" target="_top">
<title>MGAbnormalityArchitecturalDistortion</title>
<text x="107.25" y="22.5" text-anchor="middle">MG Arch. Distortion</text>
</a>
</g>
</g>
<g>
<g transform="translate(187.5 202.5)">
<rect fill="LightSkyBlue" stroke="Black" stroke-width="1.875" x="0" y="0" width="141" height="33.75" rx="3.75" ry="3.75" />
<a href="./StructureDefinition-MGAbnormalityAsymmetry.html" target="_top">
<title>MGAbnormalityAsymmetry</title>
<text x="70.5" y="22.5" text-anchor="middle">MG Asymmetry</text>
</a>
</g>
</g>
<g>
<g transform="translate(187.5 243.75)">
<rect fill="LightSkyBlue" stroke="Black" stroke-width="1.875" x="0" y="0" width="99" height="33.75" rx="3.75" ry="3.75" />
<a href="./StructureDefinition-MGAbnormalityCalcification.html" target="_top">
<title>MGAbnormalityCalcification</title>
<text x="49.5" y="22.5" text-anchor="middle">MG Calc.</text>
</a>
</g>
</g>
<g>
<g transform="translate(187.5 285)">
<rect fill="LightSkyBlue" stroke="Black" stroke-width="1.875" x="0" y="0" width="88.5" height="33.75" rx="3.75" ry="3.75" />
<a href="./StructureDefinition-MGAbnormalityCyst.html" target="_top">
<title>MGAbnormalityCyst</title>
<text x="44.25" y="22.5" text-anchor="middle">MG Cyst</text>
</a>
</g>
</g>
<g>
<g transform="translate(187.5 326.25)">
<rect fill="LightSkyBlue" stroke="Black" stroke-width="1.875" x="0" y="0" width="120" height="33.75" rx="3.75" ry="3.75" />
<a href="./StructureDefinition-MGAbnormalityDensity.html" target="_top">
<title>MGAbnormalityDensity</title>
<text x="60" y="22.5" text-anchor="middle">MG Density</text>
</a>
</g>
</g>
<g>
<g transform="translate(187.5 367.5)">
<rect fill="LightSkyBlue" stroke="Black" stroke-width="1.875" x="0" y="0" width="88.5" height="33.75" rx="3.75" ry="3.75" />
<a href="./StructureDefinition-MGAbnormalityDuct.html" target="_top">
<title>MGAbnormalityDuct</title>
<text x="44.25" y="22.5" text-anchor="middle">MG Duct</text>
</a>
</g>
</g>
<g>
<g transform="translate(187.5 408.75)">
<rect fill="LightSkyBlue" stroke="Black" stroke-width="1.875" x="0" y="0" width="172.5" height="33.75" rx="3.75" ry="3.75" />
<a href="./StructureDefinition-MGAbnormalityFatNecrosis.html" target="_top">
<title>MGAbnormalityFatNecrosis</title>
<text x="86.25" y="22.5" text-anchor="middle">MG Fat Necrosis</text>
</a>
</g>
</g>
<g>
<g transform="translate(187.5 450)">
<rect fill="LightSkyBlue" stroke="Black" stroke-width="1.875" x="0" y="0" width="172.5" height="33.75" rx="3.75" ry="3.75" />
<a href="./StructureDefinition-MGAbnormalityFibroadenoma.html" target="_top">
<title>MGAbnormalityFibroadenoma</title>
<text x="86.25" y="22.5" text-anchor="middle">MG Fibroadenoma</text>
</a>
</g>
</g>
<g>
<g transform="translate(187.5 491.25)">
<rect fill="LightSkyBlue" stroke="Black" stroke-width="1.875" x="0" y="0" width="151.49998" height="33.75" rx="3.75" ry="3.75" />
<a href="./StructureDefinition-MGAbnormalityLymphNode.html" target="_top">
<title>MGAbnormalityLymphNode</title>
<text x="75.74999" y="22.5" text-anchor="middle">MG Lymph Node</text>
</a>
</g>
</g>
<g>
<g transform="translate(187.5 532.5)">
<rect fill="LightSkyBlue" stroke="Black" stroke-width="1.875" x="0" y="0" width="88.5" height="33.75" rx="3.75" ry="3.75" />
<a href="./StructureDefinition-MGMass.html" target="_top">
<title>MGMass</title>
<text x="44.25" y="22.5" text-anchor="middle">MG Mass</text>
</a>
</g>
</g>
<g>
<g transform="translate(187.5 573.75)">
<rect fill="LightSkyBlue" stroke="Black" stroke-width="1.875" x="0" y="0" width="151.49998" height="52.5" rx="3.75" ry="3.75" />
<a href="./StructureDefinition-MGAssociatedFeatures.html" target="_top">
<title>MGAssociatedFeatures</title>
<text x="75.74999" y="22.5" text-anchor="middle">MG Associated</text>
</a>
<a href="./StructureDefinition-MGAssociatedFeatures.html" target="_top">
<title>MGAssociatedFeatures</title>
<text x="75.74999" y="41.25" text-anchor="middle">Features</text>
</a>
</g>
</g>
<g>
<g transform="translate(187.5 633.75)">
<rect fill="LightSkyBlue" stroke="Black" stroke-width="1.875" x="0" y="0" width="193.5" height="33.75" rx="3.75" ry="3.75" />
<a href="./StructureDefinition-MGBreastDensity.html" target="_top">
<title>MGBreastDensity</title>
<text x="96.75" y="22.5" text-anchor="middle">MG Breast Density</text>
</a>
</g>
</g>
<g>
<g transform="translate(187.5 675)">
<rect fill="LightSkyBlue" stroke="Black" stroke-width="1.875" x="0" y="0" width="162" height="33.75" rx="3.75" ry="3.75" />
<a href="./StructureDefinition-MGSkinLesion.html" target="_top">
<title>MGSkinLesion</title>
<text x="81" y="22.5" text-anchor="middle">MG Skin Lesion</text>
</a>
</g>
</g>
</svg>
