<?xml version="1.0"?>
<!DOCTYPE svg PUBLIC "-//W3C//DTD SVG 1.1//EN" "http://www.w3.org/Graphics/SVG/1.1/DTD/svg11.dtd">
<svg xmlns="http://www.w3.org/2000/svg" version="1.1" width="871.5" height="697.5">
<defs>
<marker id="arrowStart" markerWidth="3.75" markerHeight="3.75" markerUnits="px" refX="1.875" refY="1.875">
<circle fill="Black" stroke-width="0" cx="1.875" cy="1.875" r="1.875" />
</marker>
<marker id="arrowEnd" markerWidth="7.5" markerHeight="7.5" markerUnits="px" refX="7.5" refY="3.75">
<polygon fill="Black" stroke-width="0" points="0 0 7.5 3.75 0 7.5" />
</marker>
</defs>
<g />
<g>
<g transform="translate(67.5 7.5)">
<rect fill="LightGreen" stroke="Black" stroke-width="1.875" x="0" y="0" width="183" height="33.75" rx="3.75" ry="3.75" />
<text x="91.5" y="22.5" text-anchor="middle">DiagnosticReport</text>
</g>
</g>
<g>
<g transform="translate(310.5 7.5)">
<rect fill="LightSalmon" stroke="Black" stroke-width="1.875" x="0" y="0" width="109.49999" height="33.75" rx="3.75" ry="3.75" />
<text x="54.749996" y="22.5" text-anchor="middle">Extension</text>
</g>
</g>
<g>
<g transform="translate(480 7.5)">
<rect fill="LightSkyBlue" stroke="Black" stroke-width="1.875" x="0" y="0" width="130.5" height="33.75" rx="3.75" ry="3.75" />
<text x="65.25" y="22.5" text-anchor="middle">Observation</text>
</g>
</g>
<g>
<g transform="translate(670.5 7.5)">
<rect fill="LightCoral" stroke="Black" stroke-width="1.875" x="0" y="0" width="141" height="33.75" rx="3.75" ry="3.75" />
<text x="70.5" y="22.5" text-anchor="middle">ImagingStudy</text>
</g>
</g>
<g>
<g transform="translate(7.5 86.25)">
<rect fill="LightSkyBlue" stroke="Black" stroke-width="1.875" x="0" y="0" width="120" height="33.75" rx="3.75" ry="3.75" />
<a href="./StructureDefinition-BreastRadMammoFinding.html" target="_blank">
<title>BreastRadMammoFinding</title>
<text x="60" y="22.5" text-anchor="middle">Mg Finding</text>
</a>
</g>
<line stroke="Black" stroke-width="1.875" marker-end="url(#arrowEnd)" x1="157.5" y1="103.125" x2="187.5" y2="103.125" />
<line stroke="Black" stroke-width="1.875" marker-end="url(#arrowEnd)" x1="157.5" y1="144.375" x2="187.5" y2="144.375" />
<line stroke="Black" stroke-width="1.875" marker-end="url(#arrowEnd)" x1="157.5" y1="185.625" x2="187.5" y2="185.625" />
<line stroke="Black" stroke-width="1.875" marker-end="url(#arrowEnd)" x1="157.5" y1="226.875" x2="187.5" y2="226.875" />
<line stroke="Black" stroke-width="1.875" marker-end="url(#arrowEnd)" x1="157.5" y1="268.125" x2="187.5" y2="268.125" />
<line stroke="Black" stroke-width="1.875" marker-end="url(#arrowEnd)" x1="157.5" y1="309.375" x2="187.5" y2="309.375" />
<line stroke="Black" stroke-width="1.875" marker-end="url(#arrowEnd)" x1="157.5" y1="350.625" x2="187.5" y2="350.625" />
<line stroke="Black" stroke-width="1.875" marker-end="url(#arrowEnd)" x1="157.5" y1="391.875" x2="187.5" y2="391.875" />
<line stroke="Black" stroke-width="1.875" marker-end="url(#arrowEnd)" x1="157.5" y1="433.125" x2="187.5" y2="433.125" />
<line stroke="Black" stroke-width="1.875" marker-end="url(#arrowEnd)" x1="157.5" y1="474.375" x2="187.5" y2="474.375" />
<line stroke="Black" stroke-width="1.875" marker-end="url(#arrowEnd)" x1="157.5" y1="515.625" x2="187.5" y2="515.625" />
<line stroke="Black" stroke-width="1.875" marker-end="url(#arrowEnd)" x1="157.5" y1="556.875" x2="187.5" y2="556.875" />
<line stroke="Black" stroke-width="1.875" marker-end="url(#arrowEnd)" x1="157.5" y1="607.5" x2="187.5" y2="607.5" />
<line stroke="Black" stroke-width="1.875" marker-end="url(#arrowEnd)" x1="157.5" y1="658.125" x2="187.5" y2="658.125" />
<line stroke="Black" stroke-width="1.875" marker-start="url(#arrowStart)" x1="127.5" y1="103.125" x2="157.5" y2="103.125" />
<line stroke="Black" stroke-width="1.875" x1="157.5" y1="103.125" x2="157.5" y2="658.125" />
</g>
<g>
<g transform="translate(187.5 86.25)">
<rect fill="LightSkyBlue" stroke="Black" stroke-width="1.875" x="0" y="0" width="162" height="33.75" rx="3.75" ry="3.75" />
<a href="./StructureDefinition-MGAbnormalityForeignObject.html" target="_blank">
<title>MGAbnormalityForeignObject</title>
<text x="81" y="22.5" text-anchor="middle">Foreign Object</text>
</a>
</g>
</g>
<g>
<g transform="translate(187.5 127.5)">
<rect fill="LightSkyBlue" stroke="Black" stroke-width="1.875" x="0" y="0" width="214.5" height="33.75" rx="3.75" ry="3.75" />
<a href="./StructureDefinition-BreastRadMammoAbnormalityArchitecturalDistortion.html" target="_blank">
<title>BreastRadMammoAbnormalityArchitecturalDistortion</title>
<text x="107.25" y="22.5" text-anchor="middle">Mg Arch. Distortion</text>
</a>
</g>
</g>
<g>
<g transform="translate(187.5 168.75)">
<rect fill="LightSkyBlue" stroke="Black" stroke-width="1.875" x="0" y="0" width="141" height="33.75" rx="3.75" ry="3.75" />
<a href="./StructureDefinition-BreastRadMammoAbnormalityAsymmetry.html" target="_blank">
<title>BreastRadMammoAbnormalityAsymmetry</title>
<text x="70.5" y="22.5" text-anchor="middle">Mg Asymmetry</text>
</a>
</g>
</g>
<g>
<g transform="translate(187.5 210)">
<rect fill="LightSkyBlue" stroke="Black" stroke-width="1.875" x="0" y="0" width="99" height="33.75" rx="3.75" ry="3.75" />
<a href="./StructureDefinition-BreastRadMammoAbnormalityCalcification.html" target="_blank">
<title>BreastRadMammoAbnormalityCalcification</title>
<text x="49.5" y="22.5" text-anchor="middle">Mg Calc.</text>
</a>
</g>
</g>
<g>
<g transform="translate(187.5 251.25)">
<rect fill="LightSkyBlue" stroke="Black" stroke-width="1.875" x="0" y="0" width="88.5" height="33.75" rx="3.75" ry="3.75" />
<a href="./StructureDefinition-BreastRadMammoAbnormalityCyst.html" target="_blank">
<title>BreastRadMammoAbnormalityCyst</title>
<text x="44.25" y="22.5" text-anchor="middle">Mg Cyst</text>
</a>
</g>
</g>
<g>
<g transform="translate(187.5 292.5)">
<rect fill="LightSkyBlue" stroke="Black" stroke-width="1.875" x="0" y="0" width="120" height="33.75" rx="3.75" ry="3.75" />
<a href="./StructureDefinition-BreastRadMammoAbnormalityDensity.html" target="_blank">
<title>BreastRadMammoAbnormalityDensity</title>
<text x="60" y="22.5" text-anchor="middle">Mg Density</text>
</a>
</g>
</g>
<g>
<g transform="translate(187.5 333.75)">
<rect fill="LightSkyBlue" stroke="Black" stroke-width="1.875" x="0" y="0" width="88.5" height="33.75" rx="3.75" ry="3.75" />
<a href="./StructureDefinition-BreastRadMammoAbnormalityDuct.html" target="_blank">
<title>BreastRadMammoAbnormalityDuct</title>
<text x="44.25" y="22.5" text-anchor="middle">Mg Duct</text>
</a>
</g>
</g>
<g>
<g transform="translate(187.5 375)">
<rect fill="LightSkyBlue" stroke="Black" stroke-width="1.875" x="0" y="0" width="172.5" height="33.75" rx="3.75" ry="3.75" />
<a href="./StructureDefinition-BreastRadMammoAbnormalityFatNecrosis.html" target="_blank">
<title>BreastRadMammoAbnormalityFatNecrosis</title>
<text x="86.25" y="22.5" text-anchor="middle">Mg Fat Necrosis</text>
</a>
</g>
</g>
<g>
<g transform="translate(187.5 416.25)">
<rect fill="LightSkyBlue" stroke="Black" stroke-width="1.875" x="0" y="0" width="172.5" height="33.75" rx="3.75" ry="3.75" />
<a href="./StructureDefinition-BreastRadMammoAbnormalityFibroadenoma.html" target="_blank">
<title>BreastRadMammoAbnormalityFibroadenoma</title>
<text x="86.25" y="22.5" text-anchor="middle">Mg Fibroadenoma</text>
</a>
</g>
</g>
<g>
<g transform="translate(187.5 457.5)">
<rect fill="LightSkyBlue" stroke="Black" stroke-width="1.875" x="0" y="0" width="151.49998" height="33.75" rx="3.75" ry="3.75" />
<a href="./StructureDefinition-BreastRadMammoAbnormalityLymphNode.html" target="_blank">
<title>BreastRadMammoAbnormalityLymphNode</title>
<text x="75.74999" y="22.5" text-anchor="middle">Mg Lymph Node</text>
</a>
</g>
</g>
<g>
<g transform="translate(187.5 498.75)">
<rect fill="LightSkyBlue" stroke="Black" stroke-width="1.875" x="0" y="0" width="88.5" height="33.75" rx="3.75" ry="3.75" />
<a href="./StructureDefinition-BreastRadMammoMass.html" target="_blank">
<title>BreastRadMammoMass</title>
<text x="44.25" y="22.5" text-anchor="middle">Mg Mass</text>
</a>
</g>
</g>
<g>
<g transform="translate(187.5 540)">
<rect fill="LightSkyBlue" stroke="Black" stroke-width="1.875" x="0" y="0" width="162" height="33.75" rx="3.75" ry="3.75" />
<a href="./StructureDefinition-BreastRadMammoSkinLesion.html" target="_blank">
<title>BreastRadMammoSkinLesion</title>
<text x="81" y="22.5" text-anchor="middle">Mg Skin Lesion</text>
</a>
</g>
</g>
<g>
<g transform="translate(187.5 581.25)">
<rect fill="LightSkyBlue" stroke="Black" stroke-width="1.875" x="0" y="0" width="151.49998" height="52.5" rx="3.75" ry="3.75" />
<a href="./StructureDefinition-BreastRadMammoAssociatedFeatures.html" target="_blank">
<title>BreastRadMammoAssociatedFeatures</title>
<text x="75.74999" y="22.5" text-anchor="middle">Mg Associated</text>
</a>
<a href="./StructureDefinition-BreastRadMammoAssociatedFeatures.html" target="_blank">
<title>BreastRadMammoAssociatedFeatures</title>
<text x="75.74999" y="41.25" text-anchor="middle">Features</text>
</a>
</g>
</g>
<g>
<g transform="translate(187.5 641.25)">
<rect fill="LightSkyBlue" stroke="Black" stroke-width="1.875" x="0" y="0" width="193.5" height="33.75" rx="3.75" ry="3.75" />
<a href="./StructureDefinition-BreastRadMammoBreastDensity.html" target="_blank">
<title>BreastRadMammoBreastDensity</title>
<text x="96.75" y="22.5" text-anchor="middle">Mg Breast Density</text>
</a>
</g>
</g>
</svg>
