<?xml version="1.0"?>
<!DOCTYPE svg PUBLIC "-//W3C//DTD SVG 1.1//EN" "http://www.w3.org/Graphics/SVG/1.1/DTD/svg11.dtd">
<svg xmlns="http://www.w3.org/2000/svg" version="1.1" width="811.5" height="690">
<defs>
<marker id="arrowStart" markerWidth="3.75" markerHeight="3.75" markerUnits="px" refX="1.875" refY="1.875">
<circle fill="Black" stroke-width="0" cx="1.875" cy="1.875" r="1.875" />
</marker>
<marker id="arrowEnd" markerWidth="7.5" markerHeight="7.5" markerUnits="px" refX="7.5" refY="3.75">
<polygon fill="Black" stroke-width="0" points="0 0 7.5 3.75 0 7.5" />
</marker>
</defs>
<g>
<g transform="translate(7.5 7.5)">
<rect fill="LightGreen" stroke="Black" stroke-width="1.875" x="0" y="0" width="183" height="33.75" rx="3.75" ry="3.75" />
<text x="91.5" y="22.5" text-anchor="middle">DiagnosticReport</text>
</g>
</g>
<g>
<g transform="translate(250.50002 7.5)">
<rect fill="LightSalmon" stroke="Black" stroke-width="1.875" x="0" y="0" width="109.49999" height="33.75" rx="3.75" ry="3.75" />
<text x="54.749996" y="22.5" text-anchor="middle">Extension</text>
</g>
</g>
<g>
<g transform="translate(420 7.5)">
<rect fill="LightSkyBlue" stroke="Black" stroke-width="1.875" x="0" y="0" width="130.5" height="33.75" rx="3.75" ry="3.75" />
<text x="65.25" y="22.5" text-anchor="middle">Observation</text>
</g>
</g>
<g>
<g transform="translate(610.5 7.5)">
<rect fill="LightCoral" stroke="Black" stroke-width="1.875" x="0" y="0" width="141" height="33.75" rx="3.75" ry="3.75" />
<text x="70.5" y="22.5" text-anchor="middle">ImagingStudy</text>
</g>
</g>
<g>
<g transform="translate(7.5 48.75)">
<rect fill="LightBlue" stroke="Black" stroke-width="1.875" x="0" y="0" width="141" height="33.75" rx="3.75" ry="3.75" />
<text x="70.5" y="22.5" text-anchor="middle">FhirResource</text>
</g>
</g>
<g>
<g transform="translate(7.5 120)">
<a href="./StructureDefinition-MGFinding.html" target="_top">
<title>MGFinding</title>
<rect fill="LightSkyBlue" stroke="Black" stroke-width="1.875" x="0" y="0" width="120" height="33.75" rx="3.75" ry="3.75" />
</a>
<a href="./StructureDefinition-MGFinding.html" target="_top">
<text x="60" y="22.5" text-anchor="middle">MG Finding</text>
</a>
</g>
<line stroke="Black" stroke-width="1.875" marker-end="url(#arrowEnd)" x1="157.5" y1="136.875" x2="187.5" y2="136.875" />
<line stroke="Black" stroke-width="1.875" marker-end="url(#arrowEnd)" x1="157.5" y1="178.125" x2="187.5" y2="178.125" />
<line stroke="Black" stroke-width="1.875" marker-end="url(#arrowEnd)" x1="157.5" y1="219.375" x2="187.5" y2="219.375" />
<line stroke="Black" stroke-width="1.875" marker-end="url(#arrowEnd)" x1="157.5" y1="260.625" x2="187.5" y2="260.625" />
<line stroke="Black" stroke-width="1.875" marker-end="url(#arrowEnd)" x1="157.5" y1="301.875" x2="187.5" y2="301.875" />
<line stroke="Black" stroke-width="1.875" marker-end="url(#arrowEnd)" x1="157.5" y1="352.5" x2="187.5" y2="352.5" />
<line stroke="Black" stroke-width="1.875" marker-end="url(#arrowEnd)" x1="157.5" y1="403.125" x2="187.5" y2="403.125" />
<line stroke="Black" stroke-width="1.875" marker-end="url(#arrowEnd)" x1="157.5" y1="444.375" x2="187.5" y2="444.375" />
<line stroke="Black" stroke-width="1.875" marker-end="url(#arrowEnd)" x1="157.5" y1="485.625" x2="187.5" y2="485.625" />
<line stroke="Black" stroke-width="1.875" marker-end="url(#arrowEnd)" x1="157.5" y1="526.875" x2="187.5" y2="526.875" />
<line stroke="Black" stroke-width="1.875" marker-end="url(#arrowEnd)" x1="157.5" y1="568.125" x2="187.5" y2="568.125" />
<line stroke="Black" stroke-width="1.875" marker-end="url(#arrowEnd)" x1="157.5" y1="609.375" x2="187.5" y2="609.375" />
<line stroke="Black" stroke-width="1.875" marker-end="url(#arrowEnd)" x1="157.5" y1="650.625" x2="187.5" y2="650.625" />
<line stroke="Black" stroke-width="1.875" marker-start="url(#arrowStart)" x1="127.5" y1="136.875" x2="157.5" y2="136.875" />
<line stroke="Black" stroke-width="1.875" x1="157.5" y1="136.875" x2="157.5" y2="650.625" />
</g>
<g>
<g transform="translate(187.5 120)">
<a href="./StructureDefinition-AbnormalityCyst.html" target="_top">
<title>AbnormalityCyst</title>
<rect fill="LightSkyBlue" stroke="Black" stroke-width="1.875" x="0" y="0" width="57" height="33.75" rx="3.75" ry="3.75" />
</a>
<a href="./StructureDefinition-AbnormalityCyst.html" target="_top">
<text x="28.5" y="22.5" text-anchor="middle">Cyst</text>
</a>
</g>
</g>
<g>
<g transform="translate(187.5 161.25)">
<a href="./StructureDefinition-AbnormalityDuct.html" target="_top">
<title>AbnormalityDuct</title>
<rect fill="LightSkyBlue" stroke="Black" stroke-width="1.875" x="0" y="0" width="57" height="33.75" rx="3.75" ry="3.75" />
</a>
<a href="./StructureDefinition-AbnormalityDuct.html" target="_top">
<text x="28.5" y="22.5" text-anchor="middle">Duct</text>
</a>
</g>
</g>
<g>
<g transform="translate(187.5 202.5)">
<a href="./StructureDefinition-AbnormalityForeignObject.html" target="_top">
<title>AbnormalityForeignObject</title>
<rect fill="LightSkyBlue" stroke="Black" stroke-width="1.875" x="0" y="0" width="162" height="33.75" rx="3.75" ry="3.75" />
</a>
<a href="./StructureDefinition-AbnormalityForeignObject.html" target="_top">
<text x="81" y="22.5" text-anchor="middle">Foreign Object</text>
</a>
</g>
</g>
<g>
<g transform="translate(187.5 243.75)">
<a href="./StructureDefinition-AbnormalityLymphNode.html" target="_top">
<title>AbnormalityLymphNode</title>
<rect fill="LightSkyBlue" stroke="Black" stroke-width="1.875" x="0" y="0" width="120" height="33.75" rx="3.75" ry="3.75" />
</a>
<a href="./StructureDefinition-AbnormalityLymphNode.html" target="_top">
<text x="60" y="22.5" text-anchor="middle">Lymph Node</text>
</a>
</g>
</g>
<g>
<g transform="translate(187.5 285)">
<a href="./StructureDefinition-Mass.html" target="_top">
<title>Mass</title>
<rect fill="LightSkyBlue" stroke="Black" stroke-width="1.875" x="0" y="0" width="57" height="33.75" rx="3.75" ry="3.75" />
</a>
<a href="./StructureDefinition-Mass.html" target="_top">
<text x="28.5" y="22.5" text-anchor="middle">Mass</text>
</a>
</g>
</g>
<g>
<g transform="translate(187.5 326.25)">
<a href="./StructureDefinition-AssociatedFeatures.html" target="_top">
<title>AssociatedFeatures</title>
<rect fill="LightSkyBlue" stroke="Black" stroke-width="1.875" x="0" y="0" width="120" height="52.5" rx="3.75" ry="3.75" />
</a>
<a href="./StructureDefinition-AssociatedFeatures.html" target="_top">
<text x="60" y="22.5" text-anchor="middle">Associated</text>
</a>
<a href="./StructureDefinition-AssociatedFeatures.html" target="_top">
<text x="60" y="41.25" text-anchor="middle">Features</text>
</a>
</g>
</g>
<g>
<g transform="translate(187.5 386.25)">
<a href="./StructureDefinition-AbnormalityFibroadenoma.html" target="_top">
<title>AbnormalityFibroadenoma</title>
<rect fill="LightSkyBlue" stroke="Black" stroke-width="1.875" x="0" y="0" width="141" height="33.75" rx="3.75" ry="3.75" />
</a>
<a href="./StructureDefinition-AbnormalityFibroadenoma.html" target="_top">
<text x="70.5" y="22.5" text-anchor="middle">Fibroadenoma</text>
</a>
</g>
</g>
<g>
<g transform="translate(187.5 427.5)">
<a href="./StructureDefinition-MGAbnormalityArchitecturalDistortion.html" target="_top">
<title>MGAbnormalityArchitecturalDistortion</title>
<rect fill="LightSkyBlue" stroke="Black" stroke-width="1.875" x="0" y="0" width="214.5" height="33.75" rx="3.75" ry="3.75" />
</a>
<a href="./StructureDefinition-MGAbnormalityArchitecturalDistortion.html" target="_top">
<text x="107.25" y="22.5" text-anchor="middle">MG Arch. Distortion</text>
</a>
</g>
</g>
<g>
<g transform="translate(187.5 468.75)">
<a href="./StructureDefinition-MGAbnormalityAsymmetry.html" target="_top">
<title>MGAbnormalityAsymmetry</title>
<rect fill="LightSkyBlue" stroke="Black" stroke-width="1.875" x="0" y="0" width="141" height="33.75" rx="3.75" ry="3.75" />
</a>
<a href="./StructureDefinition-MGAbnormalityAsymmetry.html" target="_top">
<text x="70.5" y="22.5" text-anchor="middle">MG Asymmetry</text>
</a>
</g>
</g>
<g>
<g transform="translate(187.5 510)">
<a href="./StructureDefinition-MGAbnormalityCalcification.html" target="_top">
<title>MGAbnormalityCalcification</title>
<rect fill="LightSkyBlue" stroke="Black" stroke-width="1.875" x="0" y="0" width="99" height="33.75" rx="3.75" ry="3.75" />
</a>
<a href="./StructureDefinition-MGAbnormalityCalcification.html" target="_top">
<text x="49.5" y="22.5" text-anchor="middle">MG Calc.</text>
</a>
</g>
</g>
<g>
<g transform="translate(187.5 551.25)">
<a href="./StructureDefinition-MGAbnormalityDensity.html" target="_top">
<title>MGAbnormalityDensity</title>
<rect fill="LightSkyBlue" stroke="Black" stroke-width="1.875" x="0" y="0" width="120" height="33.75" rx="3.75" ry="3.75" />
</a>
<a href="./StructureDefinition-MGAbnormalityDensity.html" target="_top">
<text x="60" y="22.5" text-anchor="middle">MG Density</text>
</a>
</g>
</g>
<g>
<g transform="translate(187.5 592.5)">
<a href="./StructureDefinition-MGAbnormalityFatNecrosis.html" target="_top">
<title>MGAbnormalityFatNecrosis</title>
<rect fill="LightSkyBlue" stroke="Black" stroke-width="1.875" x="0" y="0" width="172.5" height="33.75" rx="3.75" ry="3.75" />
</a>
<a href="./StructureDefinition-MGAbnormalityFatNecrosis.html" target="_top">
<text x="86.25" y="22.5" text-anchor="middle">MG Fat Necrosis</text>
</a>
</g>
</g>
<g>
<g transform="translate(187.5 633.75)">
<a href="./StructureDefinition-MGBreastDensity.html" target="_top">
<title>MGBreastDensity</title>
<rect fill="LightSkyBlue" stroke="Black" stroke-width="1.875" x="0" y="0" width="193.5" height="33.75" rx="3.75" ry="3.75" />
</a>
<a href="./StructureDefinition-MGBreastDensity.html" target="_top">
<text x="96.75" y="22.5" text-anchor="middle">MG Breast Density</text>
</a>
</g>
</g>
</svg>
