<?xml version="1.0"?>
<!DOCTYPE svg PUBLIC "-//W3C//DTD SVG 1.1//EN" "http://www.w3.org/Graphics/SVG/1.1/DTD/svg11.dtd">
<svg xmlns="http://www.w3.org/2000/svg" version="1.1" width="748.49994" height="693.75">
<defs>
<marker id="arrowStart" markerWidth="3.75" markerHeight="3.75" markerUnits="px" refX="1.875" refY="1.875">
<circle fill="Black" stroke-width="0" cx="1.875" cy="1.875" r="1.875" />
</marker>
<marker id="arrowEnd" markerWidth="7.5" markerHeight="7.5" markerUnits="px" refX="7.5" refY="3.75">
<polygon fill="Black" stroke-width="0" points="0 0 7.5 3.75 0 7.5" />
</marker>
</defs>
<g />
<g>
<g>
<rect fill="LightGreen" stroke="Black" stroke-width="1.875" x="67.5" y="7.5" width="183" height="33.75" rx="3.75" ry="3.75" />
<text x="75" y="30">DiagnosticReport</text>
</g>
</g>
<g>
<g>
<rect fill="LightSalmon" stroke="Black" stroke-width="1.875" x="310.5" y="7.5" width="109.49999" height="33.75" rx="3.75" ry="3.75" />
<text x="318" y="30">Extension</text>
</g>
</g>
<g>
<g>
<rect fill="LightSkyBlue" stroke="Black" stroke-width="1.875" x="480" y="7.5" width="130.5" height="33.75" rx="3.75" ry="3.75" />
<text x="487.5" y="30">Observation</text>
</g>
</g>
<g>
<g>
<rect fill="LightCoral" stroke="Black" stroke-width="1.875" x="670.5" y="7.5" width="141" height="33.75" rx="3.75" ry="3.75" />
<text x="678" y="30">ImagingStudy</text>
</g>
</g>
<g>
<g>
<rect fill="LightSkyBlue" stroke="Black" stroke-width="1.875" x="7.5" y="86.25" width="130.5" height="33.75" rx="3.75" ry="3.75" />
<a href="./StructureDefinition-BreastRadMRIFinding.html" target="_blank">
<title>BreastRadMRIFinding</title>
<text x="15" y="108.75">MRI Finding</text>
</a>
</g>
<line stroke="Black" stroke-width="1.875" marker-end="url(#arrowEnd)" x1="168" y1="103.125" x2="198" y2="103.125" />
<line stroke="Black" stroke-width="1.875" marker-end="url(#arrowEnd)" x1="168" y1="350.625" x2="198" y2="350.625" />
<line stroke="Black" stroke-width="1.875" marker-start="url(#arrowStart)" x1="138" y1="103.125" x2="168" y2="103.125" />
<line stroke="Black" stroke-width="1.875" x1="168" y1="103.125" x2="168" y2="350.625" />
</g>
<g>
<g>
<rect fill="LightSkyBlue" stroke="Black" stroke-width="1.875" x="198" y="86.25" width="162" height="33.75" rx="3.75" ry="3.75" />
<a href="./StructureDefinition-CommonForeignObject.html" target="_blank">
<title>CommonForeignObject</title>
<text x="205.5" y="108.75">Foreign Object</text>
</a>
</g>
<line stroke="Black" stroke-width="1.875" marker-end="url(#arrowEnd)" x1="390" y1="103.125" x2="420" y2="103.125" />
<line stroke="Black" stroke-width="1.875" marker-end="url(#arrowEnd)" x1="390" y1="144.375" x2="420" y2="144.375" />
<line stroke="Black" stroke-width="1.875" marker-end="url(#arrowEnd)" x1="390" y1="185.625" x2="420" y2="185.625" />
<line stroke="Black" stroke-width="1.875" marker-end="url(#arrowEnd)" x1="390" y1="226.875" x2="420" y2="226.875" />
<line stroke="Black" stroke-width="1.875" marker-end="url(#arrowEnd)" x1="390" y1="268.125" x2="420" y2="268.125" />
<line stroke="Black" stroke-width="1.875" marker-end="url(#arrowEnd)" x1="390" y1="309.375" x2="420" y2="309.375" />
<line stroke="Black" stroke-width="1.875" marker-start="url(#arrowStart)" x1="360" y1="103.125" x2="390" y2="103.125" />
<line stroke="Black" stroke-width="1.875" x1="390" y1="103.125" x2="390" y2="309.375" />
</g>
<g>
<g>
<rect fill="LightSalmon" stroke="Black" stroke-width="1.875" x="420" y="86.25" width="183" height="33.75" rx="3.75" ry="3.75" />
<a href="./StructureDefinition-BreastBodyLocationExtension.html" target="_blank">
<title>BreastBodyLocationExtension</title>
<text x="427.5" y="108.75">Breast Body Loc.</text>
</a>
</g>
<g>
<rect fill="LightSkyBlue" stroke="Black" stroke-width="1.875" x="420" y="127.5" width="130.5" height="33.75" rx="3.75" ry="3.75" />
<a href="./StructureDefinition-BiRadsAssessmentCategory.html" target="_blank">
<title>BiRadsAssessmentCategory</title>
<text x="427.5" y="150">BiRads Code</text>
</a>
</g>
<g>
<rect fill="LightSkyBlue" stroke="Black" stroke-width="1.875" x="420" y="168.75" width="67.5" height="33.75" rx="3.75" ry="3.75" />
<a href="./StructureDefinition-CommonCount.html" target="_blank">
<title>CommonCount</title>
<text x="427.5" y="191.25">Count</text>
</a>
</g>
<g>
<rect fill="LightSkyBlue" stroke="Black" stroke-width="1.875" x="420" y="210" width="88.5" height="33.75" rx="3.75" ry="3.75" />
<a href="./StructureDefinition-CommonObservedChanges.html" target="_blank">
<title>CommonObservedChanges</title>
<text x="427.5" y="232.5">Changes</text>
</a>
</g>
<g>
<rect fill="LightSkyBlue" stroke="Black" stroke-width="1.875" x="420" y="251.25" width="57" height="33.75" rx="3.75" ry="3.75" />
<a href="./StructureDefinition-CommonSize.html" target="_blank">
<title>CommonSize</title>
<text x="427.5" y="273.75">Size</text>
</a>
</g>
<g>
<rect fill="LightSkyBlue" stroke="Black" stroke-width="1.875" x="420" y="292.5" width="130.5" height="33.75" rx="3.75" ry="3.75" />
<a href="./StructureDefinition-CommonOrientation.html" target="_blank">
<title>CommonOrientation</title>
<text x="427.5" y="315">Orientation</text>
</a>
</g>
</g>
<g>
<g>
<rect fill="LightSkyBlue" stroke="Black" stroke-width="1.875" x="198" y="333.75" width="99" height="33.75" rx="3.75" ry="3.75" />
<a href="./StructureDefinition-BreastRadMRIMass.html" target="_blank">
<title>BreastRadMRIMass</title>
<text x="205.5" y="356.25">MRI Mass</text>
</a>
</g>
<line stroke="Black" stroke-width="1.875" marker-end="url(#arrowEnd)" x1="327" y1="350.625" x2="357" y2="350.625" />
<line stroke="Black" stroke-width="1.875" marker-end="url(#arrowEnd)" x1="327" y1="391.875" x2="357" y2="391.875" />
<line stroke="Black" stroke-width="1.875" marker-end="url(#arrowEnd)" x1="327" y1="433.125" x2="357" y2="433.125" />
<line stroke="Black" stroke-width="1.875" marker-end="url(#arrowEnd)" x1="327" y1="474.375" x2="357" y2="474.375" />
<line stroke="Black" stroke-width="1.875" marker-end="url(#arrowEnd)" x1="327" y1="525" x2="357" y2="525" />
<line stroke="Black" stroke-width="1.875" marker-end="url(#arrowEnd)" x1="327" y1="575.625" x2="357" y2="575.625" />
<line stroke="Black" stroke-width="1.875" marker-end="url(#arrowEnd)" x1="327" y1="626.25" x2="357" y2="626.25" />
<line stroke="Black" stroke-width="1.875" marker-start="url(#arrowStart)" x1="297" y1="350.625" x2="327" y2="350.625" />
<line stroke="Black" stroke-width="1.875" x1="327" y1="350.625" x2="327" y2="626.25" />
</g>
<g>
<g>
<rect fill="LightSalmon" stroke="Black" stroke-width="1.875" x="357" y="333.75" width="183" height="33.75" rx="3.75" ry="3.75" />
<a href="./StructureDefinition-BreastBodyLocationExtension.html" target="_blank">
<title>BreastBodyLocationExtension</title>
<text x="364.5" y="356.25">Breast Body Loc.</text>
</a>
</g>
<g>
<rect fill="LightSkyBlue" stroke="Black" stroke-width="1.875" x="357" y="375" width="57" height="33.75" rx="3.75" ry="3.75" />
<a href="./StructureDefinition-CommonSize.html" target="_blank">
<title>CommonSize</title>
<text x="364.5" y="397.5">Size</text>
</a>
</g>
<g>
<rect fill="LightSkyBlue" stroke="Black" stroke-width="1.875" x="357" y="416.25" width="67.5" height="33.75" rx="3.75" ry="3.75" />
<a href="./StructureDefinition-CommonCount.html" target="_blank">
<title>CommonCount</title>
<text x="364.5" y="438.75">Count</text>
</a>
</g>
<g>
<rect fill="LightSkyBlue" stroke="Black" stroke-width="1.875" x="357" y="457.5" width="130.5" height="33.75" rx="3.75" ry="3.75" />
<a href="./StructureDefinition-CommonOrientation.html" target="_blank">
<title>CommonOrientation</title>
<text x="364.5" y="480">Orientation</text>
</a>
</g>
<g>
<rect fill="LightSkyBlue" stroke="Black" stroke-width="1.875" x="357" y="498.75" width="99" height="52.5" rx="3.75" ry="3.75" />
<a href="./StructureDefinition-BreastRadMRIMassMargin.html" target="_blank">
<title>BreastRadMRIMassMargin</title>
<text x="364.5" y="521.25">MRI Mass</text>
</a>
<a href="./StructureDefinition-BreastRadMRIMassMargin.html" target="_blank">
<title>BreastRadMRIMassMargin</title>
<text x="364.5" y="540">Margin</text>
</a>
</g>
<g>
<rect fill="LightSkyBlue" stroke="Black" stroke-width="1.875" x="357" y="558.75" width="88.5" height="33.75" rx="3.75" ry="3.75" />
<a href="./StructureDefinition-CommonObservedChanges.html" target="_blank">
<title>CommonObservedChanges</title>
<text x="364.5" y="581.25">Changes</text>
</a>
</g>
</g>
<g>
<g>
<rect fill="LightCoral" stroke="Black" stroke-width="1.875" x="357" y="600" width="151.49998" height="52.5" rx="3.75" ry="3.75" />
<a href="./StructureDefinition-AimAnnotatedImagingStudy.html" target="_blank">
<title>AimAnnotatedImagingStudy</title>
<text x="364.5" y="622.5">Annotated</text>
</a>
<a href="./StructureDefinition-AimAnnotatedImagingStudy.html" target="_blank">
<title>AimAnnotatedImagingStudy</title>
<text x="364.5" y="641.25">Imaging Study</text>
</a>
</g>
<line stroke="Black" stroke-width="1.875" marker-end="url(#arrowEnd)" x1="538.49994" y1="635.625" x2="568.49994" y2="635.625" />
<line stroke="Black" stroke-width="1.875" marker-start="url(#arrowStart)" x1="508.49997" y1="626.25" x2="538.49994" y2="626.25" />
<line stroke="Black" stroke-width="1.875" x1="538.49994" y1="626.25" x2="538.49994" y2="635.625" />
</g>
<g>
<g>
<rect fill="LightSalmon" stroke="Black" stroke-width="1.875" x="568.49994" y="600" width="120" height="71.25" rx="3.75" ry="3.75" />
<a href="./StructureDefinition-AimAnnotationPolyLineExtension.html" target="_blank">
<title>AimAnnotationPolyLineExtension</title>
<text x="575.99994" y="622.5">Annotation</text>
</a>
<a href="./StructureDefinition-AimAnnotationPolyLineExtension.html" target="_blank">
<title>AimAnnotationPolyLineExtension</title>
<text x="575.99994" y="641.25">PolyLine</text>
</a>
<a href="./StructureDefinition-AimAnnotationPolyLineExtension.html" target="_blank">
<title>AimAnnotationPolyLineExtension</title>
<text x="575.99994" y="660">Location</text>
</a>
</g>
</g>
</svg>
