<?xml version="1.0"?>
<!DOCTYPE svg PUBLIC "-//W3C//DTD SVG 1.1//EN" "http://www.w3.org/Graphics/SVG/1.1/DTD/svg11.dtd">
<svg xmlns="http://www.w3.org/2000/svg" version="1.1" width="357" height="142.5">
<defs>
<marker id="arrowStart" markerWidth="3.75" markerHeight="3.75" markerUnits="px" refX="1.875" refY="1.875">
<circle fill="Black" stroke-width="0" cx="1.875" cy="1.875" r="1.875" />
</marker>
<marker id="arrowEnd" markerWidth="7.5" markerHeight="7.5" markerUnits="px" refX="7.5" refY="3.75">
<polygon fill="Black" stroke-width="0" points="0 0 7.5 3.75 0 7.5" />
</marker>
</defs>
<g />
<g>
<g>
<rect fill="LightGreen" stroke="Black" stroke-width="1.875" x="67.5" y="7.5" width="183" height="33.75" rx="3.75" ry="3.75" />
<text x="75" y="30">DiagnosticReport</text>
</g>
</g>
<g>
<g>
<rect fill="LightSalmon" stroke="Black" stroke-width="1.875" x="310.5" y="7.5" width="109.49999" height="33.75" rx="3.75" ry="3.75" />
<text x="318" y="30">Extension</text>
</g>
</g>
<g>
<g>
<rect fill="LightSkyBlue" stroke="Black" stroke-width="1.875" x="480" y="7.5" width="130.5" height="33.75" rx="3.75" ry="3.75" />
<text x="487.5" y="30">Observation</text>
</g>
</g>
<g>
<g>
<rect fill="LightCoral" stroke="Black" stroke-width="1.875" x="670.5" y="7.5" width="141" height="33.75" rx="3.75" ry="3.75" />
<text x="678" y="30">ImagingStudy</text>
</g>
</g>
<g>
<g>
<rect fill="LightSkyBlue" stroke="Black" stroke-width="1.875" x="7.5" y="86.25" width="130.5" height="33.75" rx="3.75" ry="3.75" />
<a href="./StructureDefinition-BreastRadMRIFinding.html" target="_blank">
<title>BreastRadMRIFinding</title>
<text x="15" y="108.75">MRI Finding</text>
</a>
</g>
<line stroke="Black" stroke-width="1.875" marker-end="url(#arrowEnd)" x1="168" y1="103.125" x2="198" y2="103.125" />
<line stroke="Black" stroke-width="1.875" marker-start="url(#arrowStart)" x1="138" y1="103.125" x2="168" y2="103.125" />
<line stroke="Black" stroke-width="1.875" x1="168" y1="103.125" x2="168" y2="103.125" />
</g>
<g>
<g>
<rect fill="LightSkyBlue" stroke="Black" stroke-width="1.875" x="198" y="86.25" width="99" height="33.75" rx="3.75" ry="3.75" />
<a href="./StructureDefinition-BreastRadMRIMass.html" target="_blank">
<title>BreastRadMRIMass</title>
<text x="205.5" y="108.75">MRI Mass</text>
</a>
</g>
</g>
</svg>
