<?xml version="1.0"?>
<!DOCTYPE svg PUBLIC "-//W3C//DTD SVG 1.1//EN" "http://www.w3.org/Graphics/SVG/1.1/DTD/svg11.dtd">
<svg xmlns="http://www.w3.org/2000/svg" version="1.1" width="695.99994" height="506.25">
<defs>
<marker id="arrowStart" markerWidth="3.75" markerHeight="3.75" markerUnits="px" refX="1.875" refY="1.875">
<circle fill="Black" stroke-width="0" cx="1.875" cy="1.875" r="1.875" />
</marker>
<marker id="arrowEnd" markerWidth="7.5" markerHeight="7.5" markerUnits="px" refX="7.5" refY="3.75">
<polygon fill="Black" stroke-width="0" points="0 0 7.5 3.75 0 7.5" />
</marker>
</defs>
<g />
<g>
<g>
<rect fill="LightGreen" stroke="Black" stroke-width="1.875" x="67.5" y="7.5" width="183" height="33.75" rx="3.75" ry="3.75" />
<text x="75" y="30">DiagnosticReport</text>
</g>
</g>
<g>
<g>
<rect fill="LightSalmon" stroke="Black" stroke-width="1.875" x="310.5" y="7.5" width="109.49999" height="33.75" rx="3.75" ry="3.75" />
<text x="318" y="30">Extension</text>
</g>
</g>
<g>
<g>
<rect fill="LightSkyBlue" stroke="Black" stroke-width="1.875" x="480" y="7.5" width="130.5" height="33.75" rx="3.75" ry="3.75" />
<text x="487.5" y="30">Observation</text>
</g>
</g>
<g>
<g>
<rect fill="LightCoral" stroke="Black" stroke-width="1.875" x="670.5" y="7.5" width="141" height="33.75" rx="3.75" ry="3.75" />
<text x="678" y="30">ImagingStudy</text>
</g>
</g>
<g>
<g>
<rect fill="LightSkyBlue" stroke="Black" stroke-width="1.875" x="7.5" y="86.25" width="120" height="33.75" rx="3.75" ry="3.75" />
<a href="./StructureDefinition-BreastRadNMFinding.html" target="_blank">
<title>BreastRadNMFinding</title>
<text x="15" y="108.75">NM Finding</text>
</a>
</g>
<line stroke="Black" stroke-width="1.875" marker-end="url(#arrowEnd)" x1="157.5" y1="112.5" x2="187.5" y2="112.5" />
<line stroke="Black" stroke-width="1.875" marker-start="url(#arrowStart)" x1="127.5" y1="103.125" x2="157.5" y2="103.125" />
<line stroke="Black" stroke-width="1.875" x1="157.5" y1="103.125" x2="157.5" y2="112.5" />
</g>
<g>
<g>
<rect fill="LightSkyBlue" stroke="Black" stroke-width="1.875" x="187.5" y="86.25" width="57" height="52.5" rx="3.75" ry="3.75" />
<a href="./StructureDefinition-BreastRadNMMass.html" target="_blank">
<title>BreastRadNMMass</title>
<text x="195" y="108.75">NM</text>
</a>
<a href="./StructureDefinition-BreastRadNMMass.html" target="_blank">
<title>BreastRadNMMass</title>
<text x="195" y="127.5">Mass</text>
</a>
</g>
<line stroke="Black" stroke-width="1.875" marker-end="url(#arrowEnd)" x1="274.5" y1="103.125" x2="304.5" y2="103.125" />
<line stroke="Black" stroke-width="1.875" marker-end="url(#arrowEnd)" x1="274.5" y1="144.375" x2="304.5" y2="144.375" />
<line stroke="Black" stroke-width="1.875" marker-end="url(#arrowEnd)" x1="274.5" y1="185.625" x2="304.5" y2="185.625" />
<line stroke="Black" stroke-width="1.875" marker-end="url(#arrowEnd)" x1="274.5" y1="226.875" x2="304.5" y2="226.875" />
<line stroke="Black" stroke-width="1.875" marker-end="url(#arrowEnd)" x1="274.5" y1="286.875" x2="304.5" y2="286.875" />
<line stroke="Black" stroke-width="1.875" marker-end="url(#arrowEnd)" x1="274.5" y1="346.875" x2="304.5" y2="346.875" />
<line stroke="Black" stroke-width="1.875" marker-end="url(#arrowEnd)" x1="274.5" y1="388.125" x2="304.5" y2="388.125" />
<line stroke="Black" stroke-width="1.875" marker-end="url(#arrowEnd)" x1="274.5" y1="438.75" x2="304.5" y2="438.75" />
<line stroke="Black" stroke-width="1.875" marker-start="url(#arrowStart)" x1="244.49998" y1="112.5" x2="274.5" y2="112.5" />
<line stroke="Black" stroke-width="1.875" x1="274.5" y1="103.125" x2="274.5" y2="438.75" />
</g>
<g>
<g>
<rect fill="LightSalmon" stroke="Black" stroke-width="1.875" x="304.5" y="86.25" width="183" height="33.75" rx="3.75" ry="3.75" />
<a href="./StructureDefinition-BreastBodyLocationExtension.html" target="_blank">
<title>BreastBodyLocationExtension</title>
<text x="312" y="108.75">Breast Body Loc.</text>
</a>
</g>
<g>
<rect fill="LightSkyBlue" stroke="Black" stroke-width="1.875" x="304.5" y="127.5" width="57" height="33.75" rx="3.75" ry="3.75" />
<a href="./StructureDefinition-CommonSize.html" target="_blank">
<title>CommonSize</title>
<text x="312" y="150">Size</text>
</a>
</g>
<g>
<rect fill="LightSkyBlue" stroke="Black" stroke-width="1.875" x="304.5" y="168.75" width="67.5" height="33.75" rx="3.75" ry="3.75" />
<a href="./StructureDefinition-CommonCount.html" target="_blank">
<title>CommonCount</title>
<text x="312" y="191.25">Count</text>
</a>
</g>
<g>
<rect fill="LightSkyBlue" stroke="Black" stroke-width="1.875" x="304.5" y="210" width="130.5" height="33.75" rx="3.75" ry="3.75" />
<a href="./StructureDefinition-CommonOrientation.html" target="_blank">
<title>CommonOrientation</title>
<text x="312" y="232.5">Orientation</text>
</a>
</g>
<g>
<rect fill="LightSkyBlue" stroke="Black" stroke-width="1.875" x="304.5" y="251.25" width="78" height="71.25" rx="3.75" ry="3.75" />
<a href="./StructureDefinition-BreastRadNMMassMargin.html" target="_blank">
<title>BreastRadNMMassMargin</title>
<text x="312" y="273.75">NM</text>
</a>
<a href="./StructureDefinition-BreastRadNMMassMargin.html" target="_blank">
<title>BreastRadNMMassMargin</title>
<text x="312" y="292.5">Mass</text>
</a>
<a href="./StructureDefinition-BreastRadNMMassMargin.html" target="_blank">
<title>BreastRadNMMassMargin</title>
<text x="312" y="311.25">Margin</text>
</a>
</g>
<g>
<rect fill="LightSkyBlue" stroke="Black" stroke-width="1.875" x="304.5" y="330" width="88.5" height="33.75" rx="3.75" ry="3.75" />
<a href="./StructureDefinition-CommonObservedChanges.html" target="_blank">
<title>CommonObservedChanges</title>
<text x="312" y="352.5">Changes</text>
</a>
</g>
<g>
<rect fill="LightSkyBlue" stroke="Black" stroke-width="1.875" x="304.5" y="371.25" width="67.5" height="33.75" rx="3.75" ry="3.75" />
<a href="./StructureDefinition-CommonObservedState.html" target="_blank">
<title>CommonObservedState</title>
<text x="312" y="393.75">State</text>
</a>
</g>
</g>
<g>
<g>
<rect fill="LightCoral" stroke="Black" stroke-width="1.875" x="304.5" y="412.5" width="151.49998" height="52.5" rx="3.75" ry="3.75" />
<a href="./StructureDefinition-AimAnnotatedImagingStudy.html" target="_blank">
<title>AimAnnotatedImagingStudy</title>
<text x="312" y="435">Annotated</text>
</a>
<a href="./StructureDefinition-AimAnnotatedImagingStudy.html" target="_blank">
<title>AimAnnotatedImagingStudy</title>
<text x="312" y="453.75">Imaging Study</text>
</a>
</g>
<line stroke="Black" stroke-width="1.875" marker-end="url(#arrowEnd)" x1="485.99997" y1="448.125" x2="515.99994" y2="448.125" />
<line stroke="Black" stroke-width="1.875" marker-start="url(#arrowStart)" x1="455.99997" y1="438.75" x2="485.99997" y2="438.75" />
<line stroke="Black" stroke-width="1.875" x1="485.99997" y1="438.75" x2="485.99997" y2="448.125" />
</g>
<g>
<g>
<rect fill="LightSalmon" stroke="Black" stroke-width="1.875" x="515.99994" y="412.5" width="120" height="71.25" rx="3.75" ry="3.75" />
<a href="./StructureDefinition-AimAnnotationPolyLineExtension.html" target="_blank">
<title>AimAnnotationPolyLineExtension</title>
<text x="523.49994" y="435">Annotation</text>
</a>
<a href="./StructureDefinition-AimAnnotationPolyLineExtension.html" target="_blank">
<title>AimAnnotationPolyLineExtension</title>
<text x="523.49994" y="453.75">PolyLine</text>
</a>
<a href="./StructureDefinition-AimAnnotationPolyLineExtension.html" target="_blank">
<title>AimAnnotationPolyLineExtension</title>
<text x="523.49994" y="472.5">Location</text>
</a>
</g>
</g>
</svg>
