<?xml version="1.0"?>
<!DOCTYPE svg PUBLIC "-//W3C//DTD SVG 1.1//EN" "http://www.w3.org/Graphics/SVG/1.1/DTD/svg11.dtd">
<svg xmlns="http://www.w3.org/2000/svg" version="1.1" width="772.5" height="476.25">
<defs>
<marker id="arrowStart" markerWidth="3.75" markerHeight="3.75" markerUnits="px" refX="1.875" refY="1.875">
<circle fill="Black" stroke-width="0" cx="1.875" cy="1.875" r="1.875" />
</marker>
<marker id="arrowEnd" markerWidth="7.5" markerHeight="7.5" markerUnits="px" refX="7.5" refY="3.75">
<polygon fill="Black" stroke-width="0" points="0 0 7.5 3.75 0 7.5" />
</marker>
</defs>
<g>
<g transform="translate(7.5 7.5)">
<rect fill="LightGreen" stroke="Black" stroke-width="1.875" x="0" y="0" width="183" height="33.75" rx="3.75" ry="3.75" />
<text x="91.5" y="22.5" text-anchor="middle">DiagnosticReport</text>
</g>
</g>
<g>
<g transform="translate(235.5 7.5)">
<rect fill="LightPink" stroke="Black" stroke-width="1.875" x="0" y="0" width="162" height="33.75" rx="3.75" ry="3.75" />
<text x="81" y="22.5" text-anchor="middle">ServiceRequest</text>
</g>
</g>
<g>
<g transform="translate(442.5 7.5)">
<rect fill="LightSalmon" stroke="Black" stroke-width="1.875" x="0" y="0" width="109.49999" height="33.75" rx="3.75" ry="3.75" />
<text x="54.749996" y="22.5" text-anchor="middle">Extension</text>
</g>
</g>
<g>
<g transform="translate(597 7.5)">
<rect fill="LightSkyBlue" stroke="Black" stroke-width="1.875" x="0" y="0" width="130.5" height="33.75" rx="3.75" ry="3.75" />
<text x="65.25" y="22.5" text-anchor="middle">Observation</text>
</g>
</g>
<g>
<g transform="translate(7.5 48.75)">
<rect fill="LightBlue" stroke="Black" stroke-width="1.875" x="0" y="0" width="141" height="33.75" rx="3.75" ry="3.75" />
<text x="70.5" y="22.5" text-anchor="middle">FhirResource</text>
</g>
</g>
<g>
<g transform="translate(7.5 120)">
<a href="./StructureDefinition-BreastRadReport.html" target="_top">
<title>BreastRadReport</title>
<rect fill="LightGreen" stroke="Black" stroke-width="1.875" x="0" y="0" width="109.49999" height="71.25" rx="3.75" ry="3.75" />
</a>
<a href="./StructureDefinition-BreastRadReport.html" target="_top">
<text x="54.749996" y="22.5" text-anchor="middle">Breast</text>
</a>
<a href="./StructureDefinition-BreastRadReport.html" target="_top">
<text x="54.749996" y="41.25" text-anchor="middle">Radiology</text>
</a>
<a href="./StructureDefinition-BreastRadReport.html" target="_top">
<text x="54.749996" y="60" text-anchor="middle">Report</text>
</a>
</g>
<line stroke="Black" stroke-width="1.875" marker-end="url(#arrowEnd)" x1="131.99998" y1="146.25" x2="161.99998" y2="146.25" />
<line stroke="Black" stroke-width="1.875" marker-end="url(#arrowEnd)" x1="131.99998" y1="206.25" x2="161.99998" y2="206.25" />
<line stroke="Black" stroke-width="1.875" marker-end="url(#arrowEnd)" x1="131.99998" y1="367.5" x2="161.99998" y2="367.5" />
<line stroke="Black" stroke-width="1.875" marker-end="url(#arrowEnd)" x1="131.99998" y1="427.5" x2="161.99998" y2="427.5" />
<line stroke="Black" stroke-width="1.875" marker-start="url(#arrowStart)" x1="116.99999" y1="155.625" x2="131.99998" y2="155.625" />
<line stroke="Black" stroke-width="1.875" x1="131.99998" y1="146.25" x2="131.99998" y2="427.5" />
</g>
<g>
<g transform="translate(161.99998 120)">
<a href="./StructureDefinition-ImpressionsExtension.html" target="_top">
<title>ImpressionsExtension</title>
<rect fill="LightSalmon" stroke="Black" stroke-width="1.875" x="0" y="0" width="130.5" height="52.5" rx="3.75" ry="3.75" />
</a>
<a href="./StructureDefinition-ImpressionsExtension.html" target="_top">
<text x="65.25" y="22.5" text-anchor="middle">Impressions</text>
</a>
<a href="./StructureDefinition-ImpressionsExtension.html" target="_top">
<text x="65.25" y="41.25" text-anchor="middle">Extension</text>
</a>
</g>
<line stroke="Black" stroke-width="1.875" marker-end="url(#arrowEnd)" x1="307.5" y1="136.875" x2="337.5" y2="136.875" />
<line stroke="Black" stroke-width="1.875" marker-start="url(#arrowStart)" x1="292.5" y1="146.25" x2="307.5" y2="146.25" />
<line stroke="Black" stroke-width="1.875" x1="307.5" y1="136.875" x2="307.5" y2="146.25" />
</g>
<g>
<g transform="translate(337.5 120)">
<a href="http://hl7.org/fhir/StructureDefinition/ClinicalImpression" target="_top">
<title>ClinicalImpression</title>
<rect fill="LightBlue" stroke="Black" stroke-width="1.875" x="0" y="0" width="203.99998" height="33.75" rx="3.75" ry="3.75" />
</a>
<a href="http://hl7.org/fhir/StructureDefinition/ClinicalImpression" target="_top">
<text x="101.99999" y="22.5" text-anchor="middle">ClinicalImpression</text>
</a>
</g>
</g>
<g>
<g transform="translate(161.99998 180)">
<a href="./StructureDefinition-RelatedClinicalResourcesExtension.html" target="_top">
<title>RelatedClinicalResourcesExtension</title>
<rect fill="LightSalmon" stroke="Black" stroke-width="1.875" x="0" y="0" width="267" height="52.5" rx="3.75" ry="3.75" />
</a>
<a href="./StructureDefinition-RelatedClinicalResourcesExtension.html" target="_top">
<text x="133.5" y="22.5" text-anchor="middle">RelatedClinicalResources</text>
</a>
<a href="./StructureDefinition-RelatedClinicalResourcesExtension.html" target="_top">
<text x="133.5" y="41.25" text-anchor="middle">Extension</text>
</a>
</g>
<line stroke="Black" stroke-width="1.875" marker-end="url(#arrowEnd)" x1="443.99997" y1="215.625" x2="473.99997" y2="215.625" />
<line stroke="Black" stroke-width="1.875" marker-end="url(#arrowEnd)" x1="443.99997" y1="275.625" x2="473.99997" y2="275.625" />
<line stroke="Black" stroke-width="1.875" marker-end="url(#arrowEnd)" x1="443.99997" y1="316.875" x2="473.99997" y2="316.875" />
<line stroke="Black" stroke-width="1.875" marker-start="url(#arrowStart)" x1="428.99997" y1="206.25" x2="443.99997" y2="206.25" />
<line stroke="Black" stroke-width="1.875" x1="443.99997" y1="206.25" x2="443.99997" y2="316.875" />
</g>
<g>
<g transform="translate(473.99997 180)">
<a href="./StructureDefinition-BreastRadReport.html" target="_top">
<title>BreastRadReport</title>
<rect fill="LightGreen" stroke="Black" stroke-width="1.875" x="0" y="0" width="109.49999" height="71.25" rx="3.75" ry="3.75" />
</a>
<a href="./StructureDefinition-BreastRadReport.html" target="_top">
<text x="54.749996" y="22.5" text-anchor="middle">Breast</text>
</a>
<a href="./StructureDefinition-BreastRadReport.html" target="_top">
<text x="54.749996" y="41.25" text-anchor="middle">Radiology</text>
</a>
<a href="./StructureDefinition-BreastRadReport.html" target="_top">
<text x="54.749996" y="60" text-anchor="middle">Report</text>
</a>
</g>
</g>
<g>
<g transform="translate(473.99997 258.75)">
<a href="http://hl7.org/fhir/StructureDefinition/RiskAssessment" target="_top">
<title>RiskAssessment</title>
<rect fill="LightBlue" stroke="Black" stroke-width="1.875" x="0" y="0" width="162" height="33.75" rx="3.75" ry="3.75" />
</a>
<a href="http://hl7.org/fhir/StructureDefinition/RiskAssessment" target="_top">
<text x="81" y="22.5" text-anchor="middle">RiskAssessment</text>
</a>
</g>
</g>
<g>
<g transform="translate(473.99997 300)">
<a href="http://hl7.org/fhir/StructureDefinition/DomainResource" target="_top">
<title>DomainResource</title>
<rect fill="LightBlue" stroke="Black" stroke-width="1.875" x="0" y="0" width="162" height="33.75" rx="3.75" ry="3.75" />
</a>
<a href="http://hl7.org/fhir/StructureDefinition/DomainResource" target="_top">
<text x="81" y="22.5" text-anchor="middle">DomainResource</text>
</a>
</g>
</g>
<g>
<g transform="translate(161.99998 341.25)">
<a href="./StructureDefinition-SectionFindingsLeftBreast.html" target="_top">
<title>SectionFindingsLeftBreast</title>
<rect fill="LightSkyBlue" stroke="Black" stroke-width="1.875" x="0" y="0" width="130.5" height="52.5" rx="3.75" ry="3.75" />
</a>
<a href="./StructureDefinition-SectionFindingsLeftBreast.html" target="_top">
<text x="65.25" y="22.5" text-anchor="middle">Findings</text>
</a>
<a href="./StructureDefinition-SectionFindingsLeftBreast.html" target="_top">
<text x="65.25" y="41.25" text-anchor="middle">Left Breast</text>
</a>
</g>
</g>
<g>
<g transform="translate(161.99998 401.25)">
<a href="./StructureDefinition-SectionFindingsRightBreast.html" target="_top">
<title>SectionFindingsRightBreast</title>
<rect fill="LightSkyBlue" stroke="Black" stroke-width="1.875" x="0" y="0" width="141" height="52.5" rx="3.75" ry="3.75" />
</a>
<a href="./StructureDefinition-SectionFindingsRightBreast.html" target="_top">
<text x="70.5" y="22.5" text-anchor="middle">Findings</text>
</a>
<a href="./StructureDefinition-SectionFindingsRightBreast.html" target="_top">
<text x="70.5" y="41.25" text-anchor="middle">Right Breast</text>
</a>
</g>
</g>
</svg>
