<?xml version="1.0"?>
<!DOCTYPE svg PUBLIC "-//W3C//DTD SVG 1.1//EN" "http://www.w3.org/Graphics/SVG/1.1/DTD/svg11.dtd">
<svg xmlns="http://www.w3.org/2000/svg" version="1.1" width="892.5" height="442.5">
<defs>
<marker id="arrowStart" markerWidth="3.75" markerHeight="3.75" markerUnits="px" refX="1.875" refY="1.875">
<circle fill="Black" stroke-width="0" cx="1.875" cy="1.875" r="1.875" />
</marker>
<marker id="arrowEnd" markerWidth="7.5" markerHeight="7.5" markerUnits="px" refX="7.5" refY="3.75">
<polygon fill="Black" stroke-width="0" points="0 0 7.5 3.75 0 7.5" />
</marker>
</defs>
<g />
<g>
<g transform="translate(67.5 7.5)">
<rect fill="LightGreen" stroke="Black" stroke-width="1.875" x="0" y="0" width="183" height="33.75" rx="3.75" ry="3.75" />
<text x="91.5" y="22.5" text-anchor="middle">DiagnosticReport</text>
</g>
</g>
<g>
<g transform="translate(310.5 7.5)">
<rect fill="LightSalmon" stroke="Black" stroke-width="1.875" x="0" y="0" width="109.49999" height="33.75" rx="3.75" ry="3.75" />
<text x="54.749996" y="22.5" text-anchor="middle">Extension</text>
</g>
</g>
<g>
<g transform="translate(480 7.5)">
<rect fill="LightSkyBlue" stroke="Black" stroke-width="1.875" x="0" y="0" width="130.5" height="33.75" rx="3.75" ry="3.75" />
<text x="65.25" y="22.5" text-anchor="middle">Observation</text>
</g>
</g>
<g>
<g transform="translate(670.5 7.5)">
<rect fill="LightBlue" stroke="Black" stroke-width="1.875" x="0" y="0" width="162" height="33.75" rx="3.75" ry="3.75" />
<text x="81" y="22.5" text-anchor="middle">ServiceRequest</text>
</g>
</g>
<g>
<g transform="translate(7.5 86.25)">
<rect fill="LightGreen" stroke="Black" stroke-width="1.875" x="0" y="0" width="109.49999" height="71.25" rx="3.75" ry="3.75" />
<a href="./StructureDefinition-BreastRadReport.html" target="_top">
<title>BreastRadReport</title>
<text x="54.749996" y="22.5" text-anchor="middle">Breast</text>
</a>
<a href="./StructureDefinition-BreastRadReport.html" target="_top">
<title>BreastRadReport</title>
<text x="54.749996" y="41.25" text-anchor="middle">Radiology</text>
</a>
<a href="./StructureDefinition-BreastRadReport.html" target="_top">
<title>BreastRadReport</title>
<text x="54.749996" y="60" text-anchor="middle">Report</text>
</a>
</g>
<line stroke="Black" stroke-width="1.875" marker-end="url(#arrowEnd)" x1="146.99998" y1="112.5" x2="176.99998" y2="112.5" />
<line stroke="Black" stroke-width="1.875" marker-end="url(#arrowEnd)" x1="146.99998" y1="172.5" x2="176.99998" y2="172.5" />
<line stroke="Black" stroke-width="1.875" marker-end="url(#arrowEnd)" x1="146.99998" y1="251.25" x2="176.99998" y2="251.25" />
<line stroke="Black" stroke-width="1.875" marker-end="url(#arrowEnd)" x1="146.99998" y1="311.25" x2="176.99998" y2="311.25" />
<line stroke="Black" stroke-width="1.875" marker-end="url(#arrowEnd)" x1="146.99998" y1="361.875" x2="176.99998" y2="361.875" />
<line stroke="Black" stroke-width="1.875" marker-end="url(#arrowEnd)" x1="146.99998" y1="403.125" x2="176.99998" y2="403.125" />
<line stroke="Black" stroke-width="1.875" marker-start="url(#arrowStart)" x1="116.99999" y1="121.875" x2="146.99998" y2="121.875" />
<line stroke="Black" stroke-width="1.875" x1="146.99998" y1="112.5" x2="146.99998" y2="403.125" />
</g>
<g>
<g transform="translate(176.99998 86.25)">
<rect fill="LightSalmon" stroke="Black" stroke-width="1.875" x="0" y="0" width="172.5" height="52.5" rx="3.75" ry="3.75" />
<a href="./StructureDefinition-RecommendationsExtension.html" target="_top">
<title>RecommendationsExtension</title>
<text x="86.25" y="22.5" text-anchor="middle">Recommendations</text>
</a>
<a href="./StructureDefinition-RecommendationsExtension.html" target="_top">
<title>RecommendationsExtension</title>
<text x="86.25" y="41.25" text-anchor="middle">Extension</text>
</a>
</g>
</g>
<g>
<g transform="translate(176.99998 146.25)">
<rect fill="LightSalmon" stroke="Black" stroke-width="1.875" x="0" y="0" width="151.49998" height="52.5" rx="3.75" ry="3.75" />
<a href="./StructureDefinition-PriorReportsExtension.html" target="_top">
<title>PriorReportsExtension</title>
<text x="75.74999" y="22.5" text-anchor="middle">Prior Reports</text>
</a>
<a href="./StructureDefinition-PriorReportsExtension.html" target="_top">
<title>PriorReportsExtension</title>
<text x="75.74999" y="41.25" text-anchor="middle">Extension</text>
</a>
</g>
<line stroke="Black" stroke-width="1.875" marker-end="url(#arrowEnd)" x1="358.49997" y1="181.875" x2="388.49997" y2="181.875" />
<line stroke="Black" stroke-width="1.875" marker-start="url(#arrowStart)" x1="328.49997" y1="172.5" x2="358.49997" y2="172.5" />
<line stroke="Black" stroke-width="1.875" x1="358.49997" y1="172.5" x2="358.49997" y2="181.875" />
</g>
<g>
<g transform="translate(388.49997 146.25)">
<rect fill="LightGreen" stroke="Black" stroke-width="1.875" x="0" y="0" width="109.49999" height="71.25" rx="3.75" ry="3.75" />
<a href="./StructureDefinition-BreastRadReport.html" target="_top">
<title>BreastRadReport</title>
<text x="54.749996" y="22.5" text-anchor="middle">Breast</text>
</a>
<a href="./StructureDefinition-BreastRadReport.html" target="_top">
<title>BreastRadReport</title>
<text x="54.749996" y="41.25" text-anchor="middle">Radiology</text>
</a>
<a href="./StructureDefinition-BreastRadReport.html" target="_top">
<title>BreastRadReport</title>
<text x="54.749996" y="60" text-anchor="middle">Report</text>
</a>
</g>
</g>
<g>
<g transform="translate(176.99998 225)">
<rect fill="LightSalmon" stroke="Black" stroke-width="1.875" x="0" y="0" width="130.5" height="52.5" rx="3.75" ry="3.75" />
<a href="./StructureDefinition-ImpressionsExtension.html" target="_top">
<title>ImpressionsExtension</title>
<text x="65.25" y="22.5" text-anchor="middle">Impressions</text>
</a>
<a href="./StructureDefinition-ImpressionsExtension.html" target="_top">
<title>ImpressionsExtension</title>
<text x="65.25" y="41.25" text-anchor="middle">Extension</text>
</a>
</g>
<g transform="translate(176.99998 285)">
<rect fill="LightSalmon" stroke="Black" stroke-width="1.875" x="0" y="0" width="130.5" height="52.5" rx="3.75" ry="3.75" />
<a href="./StructureDefinition-PatientRiskExtension.html" target="_top">
<title>PatientRiskExtension</title>
<text x="65.25" y="22.5" text-anchor="middle">PatientRisk</text>
</a>
<a href="./StructureDefinition-PatientRiskExtension.html" target="_top">
<title>PatientRiskExtension</title>
<text x="65.25" y="41.25" text-anchor="middle">Extension</text>
</a>
</g>
</g>
<g>
<g transform="translate(176.99998 345)">
<rect fill="LightSkyBlue" stroke="Black" stroke-width="1.875" x="0" y="0" width="172.5" height="33.75" rx="3.75" ry="3.75" />
<a href="./StructureDefinition-SectionPatientHistory.html" target="_top">
<title>SectionPatientHistory</title>
<text x="86.25" y="22.5" text-anchor="middle">Patient History</text>
</a>
</g>
</g>
<g>
<g transform="translate(176.99998 386.25)">
<rect fill="LightSkyBlue" stroke="Black" stroke-width="1.875" x="0" y="0" width="99" height="33.75" rx="3.75" ry="3.75" />
<a href="./StructureDefinition-SectionFindings.html" target="_top">
<title>SectionFindings</title>
<text x="49.5" y="22.5" text-anchor="middle">Findings</text>
</a>
</g>
</g>
</svg>
