<?xml version="1.0"?>
<!DOCTYPE svg PUBLIC "-//W3C//DTD SVG 1.1//EN" "http://www.w3.org/Graphics/SVG/1.1/DTD/svg11.dtd">
<svg xmlns="http://www.w3.org/2000/svg" version="1.1" width="871.5" height="465">
<defs>
<marker id="arrowStart" markerWidth="3.75" markerHeight="3.75" markerUnits="px" refX="1.875" refY="1.875">
<circle fill="Black" stroke-width="0" cx="1.875" cy="1.875" r="1.875" />
</marker>
<marker id="arrowEnd" markerWidth="7.5" markerHeight="7.5" markerUnits="px" refX="7.5" refY="3.75">
<polygon fill="Black" stroke-width="0" points="0 0 7.5 3.75 0 7.5" />
</marker>
</defs>
<g />
<g>
<g transform="translate(67.5 7.5)">
<rect fill="LightGreen" stroke="Black" stroke-width="1.875" x="0" y="0" width="183" height="33.75" rx="3.75" ry="3.75" />
<text x="91.5" y="22.5" text-anchor="middle">DiagnosticReport</text>
</g>
</g>
<g>
<g transform="translate(310.5 7.5)">
<rect fill="LightSalmon" stroke="Black" stroke-width="1.875" x="0" y="0" width="109.49999" height="33.75" rx="3.75" ry="3.75" />
<text x="54.749996" y="22.5" text-anchor="middle">Extension</text>
</g>
</g>
<g>
<g transform="translate(480 7.5)">
<rect fill="LightSkyBlue" stroke="Black" stroke-width="1.875" x="0" y="0" width="130.5" height="33.75" rx="3.75" ry="3.75" />
<text x="65.25" y="22.5" text-anchor="middle">Observation</text>
</g>
</g>
<g>
<g transform="translate(670.5 7.5)">
<rect fill="LightBlue" stroke="Black" stroke-width="1.875" x="0" y="0" width="141" height="33.75" rx="3.75" ry="3.75" />
<text x="70.5" y="22.5" text-anchor="middle">FhirResource</text>
</g>
</g>
<g>
<g transform="translate(7.5 86.25)">
<rect fill="LightGreen" stroke="Black" stroke-width="1.875" x="0" y="0" width="109.49999" height="71.25" rx="3.75" ry="3.75" />
<a href="./StructureDefinition-BreastRadReport.html" target="_top">
<title>BreastRadReport</title>
<text x="54.749996" y="22.5" text-anchor="middle">Breast</text>
</a>
<a href="./StructureDefinition-BreastRadReport.html" target="_top">
<title>BreastRadReport</title>
<text x="54.749996" y="41.25" text-anchor="middle">Radiology</text>
</a>
<a href="./StructureDefinition-BreastRadReport.html" target="_top">
<title>BreastRadReport</title>
<text x="54.749996" y="60" text-anchor="middle">Report</text>
</a>
</g>
<line stroke="Black" stroke-width="1.875" marker-end="url(#arrowEnd)" x1="146.99998" y1="112.5" x2="176.99998" y2="112.5" />
<line stroke="Black" stroke-width="1.875" marker-end="url(#arrowEnd)" x1="146.99998" y1="195" x2="176.99998" y2="195" />
<line stroke="Black" stroke-width="1.875" marker-end="url(#arrowEnd)" x1="146.99998" y1="273.75" x2="176.99998" y2="273.75" />
<line stroke="Black" stroke-width="1.875" marker-end="url(#arrowEnd)" x1="146.99998" y1="333.75" x2="176.99998" y2="333.75" />
<line stroke="Black" stroke-width="1.875" marker-end="url(#arrowEnd)" x1="146.99998" y1="384.375" x2="176.99998" y2="384.375" />
<line stroke="Black" stroke-width="1.875" marker-end="url(#arrowEnd)" x1="146.99998" y1="425.625" x2="176.99998" y2="425.625" />
<line stroke="Black" stroke-width="1.875" marker-start="url(#arrowStart)" x1="116.99999" y1="121.875" x2="146.99998" y2="121.875" />
<line stroke="Black" stroke-width="1.875" x1="146.99998" y1="112.5" x2="146.99998" y2="425.625" />
</g>
<g>
<g transform="translate(176.99998 86.25)">
<rect fill="LightSalmon" stroke="Black" stroke-width="1.875" x="0" y="0" width="172.5" height="52.5" rx="3.75" ry="3.75" />
<a href="./StructureDefinition-RecommendationsExtension.html" target="_top">
<title>RecommendationsExtension</title>
<text x="86.25" y="22.5" text-anchor="middle">Recommendations</text>
</a>
<a href="./StructureDefinition-RecommendationsExtension.html" target="_top">
<title>RecommendationsExtension</title>
<text x="86.25" y="41.25" text-anchor="middle">Extension</text>
</a>
</g>
<line stroke="Black" stroke-width="1.875" marker-end="url(#arrowEnd)" x1="379.5" y1="103.125" x2="409.5" y2="103.125" />
<line stroke="Black" stroke-width="1.875" marker-end="url(#arrowEnd)" x1="379.5" y1="144.375" x2="409.5" y2="144.375" />
<line stroke="Black" stroke-width="1.875" marker-start="url(#arrowStart)" x1="349.5" y1="112.5" x2="379.5" y2="112.5" />
<line stroke="Black" stroke-width="1.875" x1="379.5" y1="103.125" x2="379.5" y2="144.375" />
</g>
<g>
<g transform="translate(409.5 86.25)">
<rect fill="LightBlue" stroke="Black" stroke-width="1.875" x="0" y="0" width="193.5" height="33.75" rx="3.75" ry="3.75" />
<a href="./StructureDefinition-MedicationRequest.html" target="_top">
<title>MedicationRequest</title>
<text x="96.75" y="22.5" text-anchor="middle">MedicationRequest</text>
</a>
</g>
</g>
<g>
<g transform="translate(409.5 127.5)">
<rect fill="LightBlue" stroke="Black" stroke-width="1.875" x="0" y="0" width="162" height="33.75" rx="3.75" ry="3.75" />
<a href="./StructureDefinition-ServiceRequest.html" target="_top">
<title>ServiceRequest</title>
<text x="81" y="22.5" text-anchor="middle">ServiceRequest</text>
</a>
</g>
</g>
<g>
<g transform="translate(176.99998 168.75)">
<rect fill="LightSalmon" stroke="Black" stroke-width="1.875" x="0" y="0" width="151.49998" height="52.5" rx="3.75" ry="3.75" />
<a href="./StructureDefinition-PriorReportsExtension.html" target="_top">
<title>PriorReportsExtension</title>
<text x="75.74999" y="22.5" text-anchor="middle">Prior Reports</text>
</a>
<a href="./StructureDefinition-PriorReportsExtension.html" target="_top">
<title>PriorReportsExtension</title>
<text x="75.74999" y="41.25" text-anchor="middle">Extension</text>
</a>
</g>
<line stroke="Black" stroke-width="1.875" marker-end="url(#arrowEnd)" x1="358.49997" y1="204.375" x2="388.49997" y2="204.375" />
<line stroke="Black" stroke-width="1.875" marker-start="url(#arrowStart)" x1="328.49997" y1="195" x2="358.49997" y2="195" />
<line stroke="Black" stroke-width="1.875" x1="358.49997" y1="195" x2="358.49997" y2="204.375" />
</g>
<g>
<g transform="translate(388.49997 168.75)">
<rect fill="LightGreen" stroke="Black" stroke-width="1.875" x="0" y="0" width="109.49999" height="71.25" rx="3.75" ry="3.75" />
<a href="./StructureDefinition-BreastRadReport.html" target="_top">
<title>BreastRadReport</title>
<text x="54.749996" y="22.5" text-anchor="middle">Breast</text>
</a>
<a href="./StructureDefinition-BreastRadReport.html" target="_top">
<title>BreastRadReport</title>
<text x="54.749996" y="41.25" text-anchor="middle">Radiology</text>
</a>
<a href="./StructureDefinition-BreastRadReport.html" target="_top">
<title>BreastRadReport</title>
<text x="54.749996" y="60" text-anchor="middle">Report</text>
</a>
</g>
</g>
<g>
<g transform="translate(176.99998 247.5)">
<rect fill="LightSalmon" stroke="Black" stroke-width="1.875" x="0" y="0" width="130.5" height="52.5" rx="3.75" ry="3.75" />
<a href="./StructureDefinition-ImpressionsExtension.html" target="_top">
<title>ImpressionsExtension</title>
<text x="65.25" y="22.5" text-anchor="middle">Impressions</text>
</a>
<a href="./StructureDefinition-ImpressionsExtension.html" target="_top">
<title>ImpressionsExtension</title>
<text x="65.25" y="41.25" text-anchor="middle">Extension</text>
</a>
</g>
<line stroke="Black" stroke-width="1.875" marker-end="url(#arrowEnd)" x1="337.5" y1="264.375" x2="367.5" y2="264.375" />
<line stroke="Black" stroke-width="1.875" marker-start="url(#arrowStart)" x1="307.5" y1="273.75" x2="337.5" y2="273.75" />
<line stroke="Black" stroke-width="1.875" x1="337.5" y1="264.375" x2="337.5" y2="273.75" />
</g>
<g>
<g transform="translate(367.5 247.5)">
<rect fill="LightBlue" stroke="Black" stroke-width="1.875" x="0" y="0" width="203.99998" height="33.75" rx="3.75" ry="3.75" />
<a href="./StructureDefinition-ClinicalImpression.html" target="_top">
<title>ClinicalImpression</title>
<text x="101.99999" y="22.5" text-anchor="middle">ClinicalImpression</text>
</a>
</g>
</g>
<g>
<g transform="translate(176.99998 307.5)">
<rect fill="LightSalmon" stroke="Black" stroke-width="1.875" x="0" y="0" width="141" height="52.5" rx="3.75" ry="3.75" />
<a href="./StructureDefinition-PatientRiskExtension.html" target="_top">
<title>PatientRiskExtension</title>
<text x="70.5" y="22.5" text-anchor="middle">Patient Risk</text>
</a>
<a href="./StructureDefinition-PatientRiskExtension.html" target="_top">
<title>PatientRiskExtension</title>
<text x="70.5" y="41.25" text-anchor="middle">Extension</text>
</a>
</g>
<line stroke="Black" stroke-width="1.875" marker-end="url(#arrowEnd)" x1="347.99997" y1="324.375" x2="377.99997" y2="324.375" />
<line stroke="Black" stroke-width="1.875" marker-start="url(#arrowStart)" x1="317.99997" y1="333.75" x2="347.99997" y2="333.75" />
<line stroke="Black" stroke-width="1.875" x1="347.99997" y1="324.375" x2="347.99997" y2="333.75" />
</g>
<g>
<g transform="translate(377.99997 307.5)">
<rect fill="LightBlue" stroke="Black" stroke-width="1.875" x="0" y="0" width="162" height="33.75" rx="3.75" ry="3.75" />
<a href="./StructureDefinition-RiskAssessment.html" target="_top">
<title>RiskAssessment</title>
<text x="81" y="22.5" text-anchor="middle">RiskAssessment</text>
</a>
</g>
</g>
<g>
<g transform="translate(176.99998 367.5)">
<rect fill="LightSkyBlue" stroke="Black" stroke-width="1.875" x="0" y="0" width="172.5" height="33.75" rx="3.75" ry="3.75" />
<a href="./StructureDefinition-SectionPatientHistory.html" target="_top">
<title>SectionPatientHistory</title>
<text x="86.25" y="22.5" text-anchor="middle">Patient History</text>
</a>
</g>
</g>
<g>
<g transform="translate(176.99998 408.75)">
<rect fill="LightSkyBlue" stroke="Black" stroke-width="1.875" x="0" y="0" width="99" height="33.75" rx="3.75" ry="3.75" />
<a href="./StructureDefinition-SectionFindings.html" target="_top">
<title>SectionFindings</title>
<text x="49.5" y="22.5" text-anchor="middle">Findings</text>
</a>
</g>
</g>
</svg>
