<?xml version="1.0"?>
<?xml-stylesheet type="text/css" href="FocusGraph.css" ?>
<!DOCTYPE svg PUBLIC "-//W3C//DTD SVG 1.1//EN" "http://www.w3.org/Graphics/SVG/1.1/DTD/svg11.dtd">
<svg xmlns="http://www.w3.org/2000/svg" version="1.1" width="967.88" height="615">
<defs>
<marker id="arrowStart" markerWidth="3.75" markerHeight="3.75" markerUnits="px" refX="1.88" refY="1.88">
<circle class="connector" cx="1.88" cy="1.88" r="1.88" />
</marker>
<marker id="arrowEnd" markerWidth="7.5" markerHeight="7.5" markerUnits="px" refX="7.5" refY="3.75">
<polygon class="connector" points="0 0 7.5 3.75 0 7.5" />
</marker>
</defs>
<g>
<g transform="translate(7.5 7.5)">
<a href="StructureDefinition-BreastRadiologyDocument.html" target="_top">
<rect class="focus" x="0" y="0" width="109.5" height="71.25" rx="3.75" ry="3.75" />
</a>
<a href="StructureDefinition-BreastRadiologyDocument.html" target="_top">
<text x="54.75" y="22.5" text-anchor="middle" class="focus">Breast</text>
</a>
<a href="StructureDefinition-BreastRadiologyDocument.html" target="_top">
<text x="54.75" y="41.25" text-anchor="middle" class="focus">Radiology</text>
</a>
<a href="StructureDefinition-BreastRadiologyDocument.html" target="_top">
<text x="54.75" y="60" text-anchor="middle" class="focus">Document</text>
</a>
</g>
<line class="connector" marker-end="url(#arrowEnd)" x1="147" y1="43.12" x2="207" y2="43.12" />
<text x="150.75" y="39.38" text-anchor="right" class="lhsText">1..1</text>
<line class="connector" marker-start="url(#arrowStart)" x1="117" y1="43.12" x2="147" y2="43.12" />
<line class="connector" x1="147" y1="43.12" x2="147" y2="43.12" />
</g>
<g>
<g transform="translate(207 7.5)">
<a href="StructureDefinition-BreastRadiologyComposition.html" target="_top">
<rect class="profile" x="0" y="0" width="130.5" height="71.25" rx="3.75" ry="3.75" />
</a>
<a href="StructureDefinition-BreastRadiologyComposition.html" target="_top">
<text x="65.25" y="22.5" text-anchor="middle" class="profile">Breast</text>
</a>
<a href="StructureDefinition-BreastRadiologyComposition.html" target="_top">
<text x="65.25" y="41.25" text-anchor="middle" class="profile">Radiology</text>
</a>
<a href="StructureDefinition-BreastRadiologyComposition.html" target="_top">
<text x="65.25" y="60" text-anchor="middle" class="profile">Composition</text>
</a>
</g>
<line class="connector" marker-end="url(#arrowEnd)" x1="367.5" y1="24.38" x2="427.5" y2="24.38" />
<text x="371.25" y="20.62" text-anchor="right" class="lhsText">1..1</text>
<line class="connector" marker-end="url(#arrowEnd)" x1="367.5" y1="65.62" x2="427.5" y2="65.62" />
<text x="371.25" y="61.88" text-anchor="right" class="lhsText">0..1</text>
<line class="connector" marker-end="url(#arrowEnd)" x1="367.5" y1="125.62" x2="427.5" y2="125.62" />
<text x="371.25" y="121.88" text-anchor="right" class="lhsText">0..1</text>
<line class="connector" marker-end="url(#arrowEnd)" x1="367.5" y1="204.38" x2="427.5" y2="204.38" />
<text x="371.25" y="200.62" text-anchor="right" class="lhsText">0..1</text>
<line class="connector" marker-end="url(#arrowEnd)" x1="367.5" y1="273.75" x2="427.5" y2="273.75" />
<text x="371.25" y="270" text-anchor="right" class="lhsText">0..1</text>
<line class="connector" marker-end="url(#arrowEnd)" x1="367.5" y1="397.5" x2="427.5" y2="397.5" />
<text x="371.25" y="393.75" text-anchor="right" class="lhsText">0..1</text>
<line class="connector" marker-end="url(#arrowEnd)" x1="367.5" y1="457.5" x2="427.5" y2="457.5" />
<text x="371.25" y="453.75" text-anchor="right" class="lhsText">0..1</text>
<line class="connector" marker-start="url(#arrowStart)" x1="337.5" y1="43.12" x2="367.5" y2="43.12" />
<line class="connector" x1="367.5" y1="24.38" x2="367.5" y2="457.5" />
</g>
<g>
<g transform="translate(427.5 7.5)">
<a href="StructureDefinition-BreastRadiologyComposition-definitions.html#Composition.section:report" target="_top">
<rect class="element" x="0" y="0" width="162" height="33.75" rx="3.75" ry="3.75" />
</a>
<a href="StructureDefinition-BreastRadiologyComposition-definitions.html#Composition.section:report" target="_top">
<text x="81" y="22.5" text-anchor="middle" class="element">Report Section</text>
</a>
</g>
</g>
<g>
<g transform="translate(427.5 48.75)">
<a href="StructureDefinition-BreastRadiologyComposition-definitions.html#Composition.section:impressions" target="_top">
<rect class="element" x="0" y="0" width="214.5" height="33.75" rx="3.75" ry="3.75" />
</a>
<a href="StructureDefinition-BreastRadiologyComposition-definitions.html#Composition.section:impressions" target="_top">
<text x="107.25" y="22.5" text-anchor="middle" class="element">Impressions Section</text>
</a>
</g>
</g>
<g>
<g transform="translate(427.5 90)">
<a href="StructureDefinition-BreastRadiologyComposition-definitions.html#Composition.section:findingsLeftBreast" target="_top">
<rect class="element" x="0" y="0" width="130.5" height="71.25" rx="3.75" ry="3.75" />
</a>
<a href="StructureDefinition-BreastRadiologyComposition-definitions.html#Composition.section:findingsLeftBreast" target="_top">
<text x="65.25" y="22.5" text-anchor="middle" class="element">Findings</text>
</a>
<a href="StructureDefinition-BreastRadiologyComposition-definitions.html#Composition.section:findingsLeftBreast" target="_top">
<text x="65.25" y="41.25" text-anchor="middle" class="element">Left Breast</text>
</a>
<a href="StructureDefinition-BreastRadiologyComposition-definitions.html#Composition.section:findingsLeftBreast" target="_top">
<text x="65.25" y="60" text-anchor="middle" class="element">Section</text>
</a>
</g>
<line class="connector" marker-end="url(#arrowEnd)" x1="588" y1="116.25" x2="648" y2="116.25" />
<text x="591.75" y="112.5" text-anchor="right" class="lhsText">0..*</text>
<line class="connector" marker-start="url(#arrowStart)" x1="558" y1="125.62" x2="588" y2="125.62" />
<line class="connector" x1="588" y1="116.25" x2="588" y2="125.62" />
</g>
<g>
<g transform="translate(648 90)">
<a href="StructureDefinition-FindingsLeftBreast.html" target="_top">
<rect class="profile" x="0" y="0" width="130.5" height="52.5" rx="3.75" ry="3.75" />
</a>
<a href="StructureDefinition-FindingsLeftBreast.html" target="_top">
<text x="65.25" y="22.5" text-anchor="middle" class="profile">Findings</text>
</a>
<a href="StructureDefinition-FindingsLeftBreast.html" target="_top">
<text x="65.25" y="41.25" text-anchor="middle" class="profile">Left Breast</text>
</a>
</g>
</g>
<g>
<g transform="translate(427.5 168.75)">
<a href="StructureDefinition-BreastRadiologyComposition-definitions.html#Composition.section:findingsRightBreast" target="_top">
<rect class="element" x="0" y="0" width="141" height="71.25" rx="3.75" ry="3.75" />
</a>
<a href="StructureDefinition-BreastRadiologyComposition-definitions.html#Composition.section:findingsRightBreast" target="_top">
<text x="70.5" y="22.5" text-anchor="middle" class="element">Findings</text>
</a>
<a href="StructureDefinition-BreastRadiologyComposition-definitions.html#Composition.section:findingsRightBreast" target="_top">
<text x="70.5" y="41.25" text-anchor="middle" class="element">Right Breast</text>
</a>
<a href="StructureDefinition-BreastRadiologyComposition-definitions.html#Composition.section:findingsRightBreast" target="_top">
<text x="70.5" y="60" text-anchor="middle" class="element">Section</text>
</a>
</g>
<line class="connector" marker-end="url(#arrowEnd)" x1="598.5" y1="195" x2="658.5" y2="195" />
<text x="602.25" y="191.25" text-anchor="right" class="lhsText">0..*</text>
<line class="connector" marker-start="url(#arrowStart)" x1="568.5" y1="204.38" x2="598.5" y2="204.38" />
<line class="connector" x1="598.5" y1="195" x2="598.5" y2="204.38" />
</g>
<g>
<g transform="translate(658.5 168.75)">
<a href="StructureDefinition-FindingsRightBreast.html" target="_top">
<rect class="profile" x="0" y="0" width="141" height="52.5" rx="3.75" ry="3.75" />
</a>
<a href="StructureDefinition-FindingsRightBreast.html" target="_top">
<text x="70.5" y="22.5" text-anchor="middle" class="profile">Findings</text>
</a>
<a href="StructureDefinition-FindingsRightBreast.html" target="_top">
<text x="70.5" y="41.25" text-anchor="middle" class="profile">Right Breast</text>
</a>
</g>
</g>
<g>
<g transform="translate(427.5 247.5)">
<a href="StructureDefinition-BreastRadiologyComposition-definitions.html#Composition.section:recommendations" target="_top">
<rect class="element" x="0" y="0" width="172.5" height="52.5" rx="3.75" ry="3.75" />
</a>
<a href="StructureDefinition-BreastRadiologyComposition-definitions.html#Composition.section:recommendations" target="_top">
<text x="86.25" y="22.5" text-anchor="middle" class="element">Recommendations</text>
</a>
<a href="StructureDefinition-BreastRadiologyComposition-definitions.html#Composition.section:recommendations" target="_top">
<text x="86.25" y="41.25" text-anchor="middle" class="element">Section</text>
</a>
</g>
<line class="connector" marker-end="url(#arrowEnd)" x1="630" y1="264.38" x2="690" y2="264.38" />
<text x="633.75" y="260.62" text-anchor="right" class="lhsText">0..*</text>
<line class="connector" marker-end="url(#arrowEnd)" x1="630" y1="305.62" x2="690" y2="305.62" />
<text x="633.75" y="301.88" text-anchor="right" class="lhsText">0..*</text>
<line class="connector" marker-end="url(#arrowEnd)" x1="630" y1="346.88" x2="690" y2="346.88" />
<text x="633.75" y="343.12" text-anchor="right" class="lhsText">0..*</text>
<line class="connector" marker-start="url(#arrowStart)" x1="600" y1="273.75" x2="630" y2="273.75" />
<line class="connector" x1="630" y1="264.38" x2="630" y2="346.88" />
</g>
<g>
<g transform="translate(690 247.5)">
<a href="http://hl7.org/fhir/StructureDefinition/MedicationRequest" target="_top">
<rect class="fhir" x="0" y="0" width="193.5" height="33.75" rx="3.75" ry="3.75" />
</a>
<a href="http://hl7.org/fhir/StructureDefinition/MedicationRequest" target="_top">
<text x="96.75" y="22.5" text-anchor="middle" class="fhir">MedicationRequest</text>
</a>
</g>
</g>
<g>
<g transform="translate(690 288.75)">
<a href="StructureDefinition-ServiceRecommendation.html" target="_top">
<rect class="profile" x="0" y="0" width="246" height="33.75" rx="3.75" ry="3.75" />
</a>
<a href="StructureDefinition-ServiceRecommendation.html" target="_top">
<text x="123" y="22.5" text-anchor="middle" class="profile">Service Recommendation</text>
</a>
</g>
</g>
<g>
<g transform="translate(690 330)">
<a href="http://hl7.org/fhir/StructureDefinition/ServiceRequest" target="_top">
<rect class="fhir" x="0" y="0" width="162" height="33.75" rx="3.75" ry="3.75" />
</a>
<a href="http://hl7.org/fhir/StructureDefinition/ServiceRequest" target="_top">
<text x="81" y="22.5" text-anchor="middle" class="fhir">ServiceRequest</text>
</a>
</g>
</g>
<g>
<g transform="translate(427.5 371.25)">
<a href="StructureDefinition-BreastRadiologyComposition-definitions.html#Composition.section:relatedResources" target="_top">
<rect class="element" x="0" y="0" width="193.5" height="52.5" rx="3.75" ry="3.75" />
</a>
<a href="StructureDefinition-BreastRadiologyComposition-definitions.html#Composition.section:relatedResources" target="_top">
<text x="96.75" y="22.5" text-anchor="middle" class="element">Related Resources</text>
</a>
<a href="StructureDefinition-BreastRadiologyComposition-definitions.html#Composition.section:relatedResources" target="_top">
<text x="96.75" y="41.25" text-anchor="middle" class="element">Section</text>
</a>
</g>
<line class="connector" marker-end="url(#arrowEnd)" x1="651" y1="388.12" x2="711" y2="388.12" />
<text x="654.75" y="384.38" text-anchor="right" class="lhsText">0..*</text>
<line class="connector" marker-start="url(#arrowStart)" x1="621" y1="397.5" x2="651" y2="397.5" />
<line class="connector" x1="651" y1="388.12" x2="651" y2="397.5" />
</g>
<g>
<g transform="translate(711 371.25)">
<a href="http://hl7.org/fhir/StructureDefinition/Resource" target="_top">
<rect class="fhir" x="0" y="0" width="99" height="33.75" rx="3.75" ry="3.75" />
</a>
<a href="http://hl7.org/fhir/StructureDefinition/Resource" target="_top">
<text x="49.5" y="22.5" text-anchor="middle" class="fhir">Resource</text>
</a>
</g>
</g>
<g>
<g transform="translate(427.5 431.25)">
<a href="StructureDefinition-BreastRadiologyComposition-definitions.html#Composition.section:admin" target="_top">
<rect class="element" x="0" y="0" width="88.5" height="52.5" rx="3.75" ry="3.75" />
</a>
<a href="StructureDefinition-BreastRadiologyComposition-definitions.html#Composition.section:admin" target="_top">
<text x="44.25" y="22.5" text-anchor="middle" class="element">Admin</text>
</a>
<a href="StructureDefinition-BreastRadiologyComposition-definitions.html#Composition.section:admin" target="_top">
<text x="44.25" y="41.25" text-anchor="middle" class="element">Section</text>
</a>
</g>
<line class="connector" marker-end="url(#arrowEnd)" x1="546" y1="448.12" x2="606" y2="448.12" />
<text x="549.75" y="444.38" text-anchor="right" class="lhsText">0..*</text>
<line class="connector" marker-start="url(#arrowStart)" x1="516" y1="457.5" x2="546" y2="457.5" />
<line class="connector" x1="546" y1="448.12" x2="546" y2="457.5" />
</g>
<g>
<g transform="translate(606 431.25)">
<a href="http://hl7.org/fhir/StructureDefinition/Resource" target="_top">
<rect class="fhir" x="0" y="0" width="99" height="33.75" rx="3.75" ry="3.75" />
</a>
<a href="http://hl7.org/fhir/StructureDefinition/Resource" target="_top">
<text x="49.5" y="22.5" text-anchor="middle" class="fhir">Resource</text>
</a>
</g>
</g>
<g>
<g transform="translate(7.5 566.25)">
<rect class="focus" x="0" y="0" width="67.5" height="33.75" rx="3.75" ry="3.75" />
<text x="33.75" y="22.5" text-anchor="middle" class="focus">Focus</text>
</g>
<g transform="translate(82.5 566.25)">
<rect class="profile" x="0" y="0" width="193.5" height="33.75" rx="3.75" ry="3.75" />
<text x="96.75" y="22.5" text-anchor="middle" class="profile">Profiled Resource</text>
</g>
<g transform="translate(283.5 566.25)">
<rect class="extension" x="0" y="0" width="109.5" height="33.75" rx="3.75" ry="3.75" />
<text x="54.75" y="22.5" text-anchor="middle" class="extension">Extension</text>
</g>
<g transform="translate(400.5 566.25)">
<rect class="fhir" x="0" y="0" width="151.5" height="33.75" rx="3.75" ry="3.75" />
<text x="75.75" y="22.5" text-anchor="middle" class="fhir">Base Resource</text>
</g>
<g transform="translate(559.5 566.25)">
<rect class="element" x="0" y="0" width="183" height="33.75" rx="3.75" ry="3.75" />
<text x="91.5" y="22.5" text-anchor="middle" class="element">Resource Element</text>
</g>
<g transform="translate(750 566.25)">
<rect class="valueSet" x="0" y="0" width="99" height="33.75" rx="3.75" ry="3.75" />
<text x="49.5" y="22.5" text-anchor="middle" class="valueSet">ValueSet</text>
</g>
</g>
</svg>
