<?xml version="1.0"?>
<?xml-stylesheet type="text/css" href="FocusGraph.css" ?>
<!DOCTYPE svg PUBLIC "-//W3C//DTD SVG 1.1//EN" "http://www.w3.org/Graphics/SVG/1.1/DTD/svg11.dtd">
<svg xmlns="http://www.w3.org/2000/svg" version="1.1" width="967.87" height="213.75">
<defs>
<marker id="arrowStart" markerWidth="3.75" markerHeight="3.75" markerUnits="px" refX="1.88" refY="1.88">
<circle class="connector" cx="1.88" cy="1.88" r="1.88" />
</marker>
<marker id="arrowEnd" markerWidth="7.5" markerHeight="7.5" markerUnits="px" refX="7.5" refY="3.75">
<polygon class="connector" points="0 0 7.5 3.75 0 7.5" />
</marker>
</defs>
<g>
<g transform="translate(7.5 7.5)">
<a href="StructureDefinition-BreastRadiologyDocument.html" target="_top">
<rect class="focus" x="0" y="0" width="109.5" height="71.25" rx="3.75" ry="3.75" />
</a>
<a href="StructureDefinition-BreastRadiologyDocument.html" target="_top">
<text x="54.75" y="22.5" text-anchor="middle" class="focus">Breast</text>
</a>
<a href="StructureDefinition-BreastRadiologyDocument.html" target="_top">
<text x="54.75" y="41.25" text-anchor="middle" class="focus">Radiology</text>
</a>
<a href="StructureDefinition-BreastRadiologyDocument.html" target="_top">
<text x="54.75" y="60" text-anchor="middle" class="focus">Document</text>
</a>
</g>
<line class="connector" marker-end="url(#arrowEnd)" x1="147" y1="43.12" x2="207" y2="43.12" />
<text x="150.75" y="39.38" text-anchor="right" class="lhsText">1..1</text>
<line class="connector" marker-start="url(#arrowStart)" x1="117" y1="43.12" x2="147" y2="43.12" />
<line class="connector" x1="147" y1="43.12" x2="147" y2="43.12" />
</g>
<g>
<g transform="translate(207 7.5)">
<a href="StructureDefinition-BreastRadiologyComposition.html" target="_top">
<rect class="profile" x="0" y="0" width="130.5" height="71.25" rx="3.75" ry="3.75" />
</a>
<a href="StructureDefinition-BreastRadiologyComposition.html" target="_top">
<text x="65.25" y="22.5" text-anchor="middle" class="profile">Breast</text>
</a>
<a href="StructureDefinition-BreastRadiologyComposition.html" target="_top">
<text x="65.25" y="41.25" text-anchor="middle" class="profile">Radiology</text>
</a>
<a href="StructureDefinition-BreastRadiologyComposition.html" target="_top">
<text x="65.25" y="60" text-anchor="middle" class="profile">Composition</text>
</a>
</g>
<line class="connector" marker-end="url(#arrowEnd)" x1="367.5" y1="24.38" x2="427.5" y2="24.38" />
<text x="371.25" y="20.62" text-anchor="right" class="lhsText">1..1</text>
<line class="connector" marker-end="url(#arrowEnd)" x1="367.5" y1="65.62" x2="427.5" y2="65.62" />
<text x="371.25" y="61.88" text-anchor="right" class="lhsText">0..1</text>
<line class="connector" marker-start="url(#arrowStart)" x1="337.5" y1="43.12" x2="367.5" y2="43.12" />
<line class="connector" x1="367.5" y1="24.38" x2="367.5" y2="65.62" />
</g>
<g>
<g transform="translate(427.5 7.5)">
<a href="StructureDefinition-BreastRadiologyComposition-definitions.html#Composition.section:report" target="_top">
<rect class="element" x="0" y="0" width="162" height="33.75" rx="3.75" ry="3.75" />
</a>
<a href="StructureDefinition-BreastRadiologyComposition-definitions.html#Composition.section:report" target="_top">
<text x="81" y="22.5" text-anchor="middle" class="element">Report Section</text>
</a>
</g>
<line class="connector" marker-end="url(#arrowEnd)" x1="619.5" y1="24.38" x2="679.5" y2="24.38" />
<text x="623.25" y="20.62" text-anchor="right" class="lhsText">1..1</text>
<line class="connector" marker-start="url(#arrowStart)" x1="589.5" y1="24.38" x2="619.5" y2="24.38" />
<line class="connector" x1="619.5" y1="24.38" x2="619.5" y2="24.38" />
</g>
<g>
<g transform="translate(679.5 7.5)">
<a href="StructureDefinition-BreastRadiologyReport.html" target="_top">
<rect class="profile" x="0" y="0" width="78" height="33.75" rx="3.75" ry="3.75" />
</a>
<a href="StructureDefinition-BreastRadiologyReport.html" target="_top">
<text x="39" y="22.5" text-anchor="middle" class="profile">Report</text>
</a>
</g>
</g>
<g>
<g transform="translate(427.5 48.75)">
<a href="StructureDefinition-BreastRadiologyComposition-definitions.html#Composition.section:impressions" target="_top">
<rect class="element" x="0" y="0" width="214.5" height="33.75" rx="3.75" ry="3.75" />
</a>
<a href="StructureDefinition-BreastRadiologyComposition-definitions.html#Composition.section:impressions" target="_top">
<text x="107.25" y="22.5" text-anchor="middle" class="element">Impressions Section</text>
</a>
</g>
<line class="connector" marker-end="url(#arrowEnd)" x1="672" y1="65.62" x2="732" y2="65.62" />
<text x="675.75" y="61.88" text-anchor="right" class="lhsText">0..*</text>
<line class="connector" marker-start="url(#arrowStart)" x1="642" y1="65.62" x2="672" y2="65.62" />
<line class="connector" x1="672" y1="65.62" x2="672" y2="65.62" />
</g>
<g>
<g transform="translate(732 48.75)">
<a href="http://hl7.org/fhir/StructureDefinition/ClinicalImpression" target="_top">
<rect class="fhir" x="0" y="0" width="204" height="33.75" rx="3.75" ry="3.75" />
</a>
<a href="http://hl7.org/fhir/StructureDefinition/ClinicalImpression" target="_top">
<text x="102" y="22.5" text-anchor="middle" class="fhir">ClinicalImpression</text>
</a>
</g>
</g>
<g>
<g transform="translate(7.5 165)">
<rect class="focus" x="0" y="0" width="67.5" height="33.75" rx="3.75" ry="3.75" />
<text x="33.75" y="22.5" text-anchor="middle" class="focus">Focus</text>
</g>
<g transform="translate(82.5 165)">
<rect class="profile" x="0" y="0" width="193.5" height="33.75" rx="3.75" ry="3.75" />
<text x="96.75" y="22.5" text-anchor="middle" class="profile">Profiled Resource</text>
</g>
<g transform="translate(283.5 165)">
<rect class="fhir" x="0" y="0" width="151.5" height="33.75" rx="3.75" ry="3.75" />
<text x="75.75" y="22.5" text-anchor="middle" class="fhir">Base Resource</text>
</g>
<g transform="translate(442.5 165)">
<rect class="element" x="0" y="0" width="183" height="33.75" rx="3.75" ry="3.75" />
<text x="91.5" y="22.5" text-anchor="middle" class="element">Resource Element</text>
</g>
</g>
</svg>
