<?xml version="1.0"?>
<?xml-stylesheet type="text/css" href="FocusGraph.css" ?>
<!DOCTYPE svg PUBLIC "-//W3C//DTD SVG 1.1//EN" "http://www.w3.org/Graphics/SVG/1.1/DTD/svg11.dtd">
<svg xmlns="http://www.w3.org/2000/svg" version="1.1" width="805.76" height="191.25">
<defs>
<marker id="arrowStart" markerWidth="3.75" markerHeight="3.75" markerUnits="px" refX="1.88" refY="1.88">
<circle class="connector" cx="1.88" cy="1.88" r="1.88" />
</marker>
<marker id="arrowEnd" markerWidth="7.5" markerHeight="7.5" markerUnits="px" refX="7.5" refY="3.75">
<polygon class="connector" points="0 0 7.5 3.75 0 7.5" />
</marker>
</defs>
<g>
<g transform="translate(3.75 3.75)">
<a href="StructureDefinition-BreastImagingDocument.html" target="_top">
<rect class="focus" x="0" y="0" width="87.93" height="63.75" rx="3.75" ry="3.75" />
</a>
<a href="StructureDefinition-BreastImagingDocument.html" target="_top">
<text x="5.62" y="18.75" text-anchor="left" class="focus">Breast</text>
</a>
<a href="StructureDefinition-BreastImagingDocument.html" target="_top">
<text x="5.62" y="37.5" text-anchor="left" class="focus">Imaging</text>
</a>
<a href="StructureDefinition-BreastImagingDocument.html" target="_top">
<text x="5.62" y="56.25" text-anchor="left" class="focus">Document</text>
</a>
</g>
<line class="connector" marker-end="url(#arrowEnd)" x1="121.68" y1="35.62" x2="181.68" y2="35.62" />
<text x="125.43" y="31.88" text-anchor="right" class="lhsText">1..1</text>
<line class="connector" marker-start="url(#arrowStart)" x1="91.68" y1="35.62" x2="121.68" y2="35.62" />
<line class="connector" x1="121.68" y1="35.62" x2="121.68" y2="35.62" />
</g>
<g>
<g transform="translate(181.68 3.75)">
<a href="StructureDefinition-BreastImagingComposition.html" target="_top">
<rect class="profile" x="0" y="0" width="104.43" height="63.75" rx="3.75" ry="3.75" />
</a>
<a href="StructureDefinition-BreastImagingComposition.html" target="_top">
<text x="5.62" y="18.75" text-anchor="left" class="profile">Breast</text>
</a>
<a href="StructureDefinition-BreastImagingComposition.html" target="_top">
<text x="5.62" y="37.5" text-anchor="left" class="profile">Imaging</text>
</a>
<a href="StructureDefinition-BreastImagingComposition.html" target="_top">
<text x="5.62" y="56.25" text-anchor="left" class="profile">Composition</text>
</a>
</g>
<line class="connector" marker-end="url(#arrowEnd)" x1="316.11" y1="16.88" x2="376.11" y2="16.88" />
<text x="319.86" y="13.12" text-anchor="right" class="lhsText">1..1</text>
<line class="connector" marker-end="url(#arrowEnd)" x1="316.11" y1="50.62" x2="376.11" y2="50.62" />
<text x="319.86" y="46.88" text-anchor="right" class="lhsText">0..1</text>
<line class="connector" marker-start="url(#arrowStart)" x1="286.11" y1="35.62" x2="316.11" y2="35.62" />
<line class="connector" x1="316.11" y1="16.88" x2="316.11" y2="50.62" />
</g>
<g>
<g transform="translate(376.11 3.75)">
<a href="StructureDefinition-BreastImagingComposition-definitions.html#Composition.section:report" target="_top">
<rect class="element" x="0" y="0" width="121.83" height="26.25" rx="3.75" ry="3.75" />
</a>
<a href="StructureDefinition-BreastImagingComposition-definitions.html#Composition.section:report" target="_top">
<text x="5.62" y="18.75" text-anchor="left" class="element">Report Section</text>
</a>
</g>
<line class="connector" marker-end="url(#arrowEnd)" x1="527.95" y1="16.88" x2="587.95" y2="16.88" />
<text x="531.7" y="13.12" text-anchor="right" class="lhsText">1..1</text>
<line class="connector" marker-start="url(#arrowStart)" x1="497.95" y1="16.88" x2="527.95" y2="16.88" />
<line class="connector" x1="527.95" y1="16.88" x2="527.95" y2="16.88" />
</g>
<g>
<g transform="translate(587.95 3.75)">
<a href="StructureDefinition-BreastImagingReport.html" target="_top">
<rect class="profile" x="0" y="0" width="62.29" height="26.25" rx="3.75" ry="3.75" />
</a>
<a href="StructureDefinition-BreastImagingReport.html" target="_top">
<text x="5.62" y="18.75" text-anchor="left" class="profile">Report</text>
</a>
</g>
</g>
<g>
<g transform="translate(376.11 37.5)">
<a href="StructureDefinition-BreastImagingComposition-definitions.html#Composition.section:impressions" target="_top">
<rect class="element" x="0" y="0" width="161.22" height="26.25" rx="3.75" ry="3.75" />
</a>
<a href="StructureDefinition-BreastImagingComposition-definitions.html#Composition.section:impressions" target="_top">
<text x="5.62" y="18.75" text-anchor="left" class="element">Impressions Section</text>
</a>
</g>
<line class="connector" marker-end="url(#arrowEnd)" x1="567.33" y1="50.62" x2="627.33" y2="50.62" />
<text x="571.08" y="46.88" text-anchor="right" class="lhsText">1..*</text>
<line class="connector" marker-start="url(#arrowStart)" x1="537.33" y1="50.62" x2="567.33" y2="50.62" />
<line class="connector" x1="567.33" y1="50.62" x2="567.33" y2="50.62" />
</g>
<g>
<g transform="translate(627.33 37.5)">
<a href="http://hl7.org/fhir/StructureDefinition/ClinicalImpression" target="_top">
<rect class="fhir" x="0" y="0" width="146.55" height="26.25" rx="3.75" ry="3.75" />
</a>
<a href="http://hl7.org/fhir/StructureDefinition/ClinicalImpression" target="_top">
<text x="5.62" y="18.75" text-anchor="left" class="fhir">ClinicalImpression</text>
</a>
</g>
</g>
<g>
<g transform="translate(3.75 150)">
<rect class="focus" x="0" y="0" width="57.72" height="26.25" rx="3.75" ry="3.75" />
<text x="5.62" y="18.75" text-anchor="left" class="focus">Focus</text>
</g>
<g transform="translate(68.97 150)">
<rect class="profile" x="0" y="0" width="143.81" height="26.25" rx="3.75" ry="3.75" />
<text x="5.62" y="18.75" text-anchor="left" class="profile">Profiled Resource</text>
</g>
<g transform="translate(220.28 150)">
<rect class="fhir" x="0" y="0" width="125.5" height="26.25" rx="3.75" ry="3.75" />
<text x="5.62" y="18.75" text-anchor="left" class="fhir">Base Resource</text>
</g>
<g transform="translate(353.27 150)">
<rect class="element" x="0" y="0" width="148.39" height="26.25" rx="3.75" ry="3.75" />
<text x="5.62" y="18.75" text-anchor="left" class="element">Resource Element</text>
</g>
</g>
</svg>
