<?xml version="1.0"?>
<!DOCTYPE svg PUBLIC "-//W3C//DTD SVG 1.1//EN" "http://www.w3.org/Graphics/SVG/1.1/DTD/svg11.dtd">
<svg xmlns="http://www.w3.org/2000/svg" version="1.1" width="727.5" height="1102.5">
<defs>
<marker id="arrowStart" markerWidth="3.75" markerHeight="3.75" markerUnits="px" refX="1.875" refY="1.875">
<circle fill="Black" stroke-width="0" cx="1.875" cy="1.875" r="1.875" />
</marker>
<marker id="arrowEnd" markerWidth="7.5" markerHeight="7.5" markerUnits="px" refX="7.5" refY="3.75">
<polygon fill="Black" stroke-width="0" points="0 0 7.5 3.75 0 7.5" />
</marker>
</defs>
<g />
<g>
<g>
<rect fill="LightGreen" stroke="Black" stroke-width="1.875" x="67.5" y="7.5" width="183" height="33.75" rx="3.75" ry="3.75" />
<text x="75" y="30">DiagnosticReport</text>
</g>
</g>
<g>
<g>
<rect fill="LightSalmon" stroke="Black" stroke-width="1.875" x="310.5" y="7.5" width="109.49999" height="33.75" rx="3.75" ry="3.75" />
<text x="318" y="30">Extension</text>
</g>
</g>
<g>
<g>
<rect fill="LightSkyBlue" stroke="Black" stroke-width="1.875" x="480" y="7.5" width="130.5" height="33.75" rx="3.75" ry="3.75" />
<text x="487.5" y="30">Observation</text>
</g>
</g>
<g>
<g>
<rect fill="LightCoral" stroke="Black" stroke-width="1.875" x="670.5" y="7.5" width="141" height="33.75" rx="3.75" ry="3.75" />
<text x="678" y="30">ImagingStudy</text>
</g>
</g>
<g>
<g>
<rect fill="LightSkyBlue" stroke="Black" stroke-width="1.875" x="7.5" y="86.25" width="120" height="33.75" rx="3.75" ry="3.75" />
<a href="./StructureDefinition-BreastRadUltraSoundFinding.html" target="_blank">
<title>BreastRadUltraSoundFinding</title>
<text x="15" y="108.75">US Finding</text>
</a>
</g>
<line stroke="Black" stroke-width="1.875" marker-end="url(#arrowEnd)" x1="157.5" y1="103.125" x2="187.5" y2="103.125" />
<line stroke="Black" stroke-width="1.875" marker-end="url(#arrowEnd)" x1="157.5" y1="350.625" x2="187.5" y2="350.625" />
<line stroke="Black" stroke-width="1.875" marker-end="url(#arrowEnd)" x1="157.5" y1="1053.75" x2="187.5" y2="1053.75" />
<line stroke="Black" stroke-width="1.875" marker-start="url(#arrowStart)" x1="127.5" y1="103.125" x2="157.5" y2="103.125" />
<line stroke="Black" stroke-width="1.875" x1="157.5" y1="103.125" x2="157.5" y2="1053.75" />
</g>
<g>
<g>
<rect fill="LightSkyBlue" stroke="Black" stroke-width="1.875" x="187.5" y="86.25" width="162" height="33.75" rx="3.75" ry="3.75" />
<a href="./StructureDefinition-CommonForeignObject.html" target="_blank">
<title>CommonForeignObject</title>
<text x="195" y="108.75">Foreign Object</text>
</a>
</g>
<line stroke="Black" stroke-width="1.875" marker-end="url(#arrowEnd)" x1="379.5" y1="103.125" x2="409.5" y2="103.125" />
<line stroke="Black" stroke-width="1.875" marker-end="url(#arrowEnd)" x1="379.5" y1="144.375" x2="409.5" y2="144.375" />
<line stroke="Black" stroke-width="1.875" marker-end="url(#arrowEnd)" x1="379.5" y1="185.625" x2="409.5" y2="185.625" />
<line stroke="Black" stroke-width="1.875" marker-end="url(#arrowEnd)" x1="379.5" y1="226.875" x2="409.5" y2="226.875" />
<line stroke="Black" stroke-width="1.875" marker-end="url(#arrowEnd)" x1="379.5" y1="268.125" x2="409.5" y2="268.125" />
<line stroke="Black" stroke-width="1.875" marker-end="url(#arrowEnd)" x1="379.5" y1="309.375" x2="409.5" y2="309.375" />
<line stroke="Black" stroke-width="1.875" marker-start="url(#arrowStart)" x1="349.5" y1="103.125" x2="379.5" y2="103.125" />
<line stroke="Black" stroke-width="1.875" x1="379.5" y1="103.125" x2="379.5" y2="309.375" />
</g>
<g>
<g>
<rect fill="LightSalmon" stroke="Black" stroke-width="1.875" x="409.5" y="86.25" width="183" height="33.75" rx="3.75" ry="3.75" />
<a href="./StructureDefinition-BreastBodyLocationExtension.html" target="_blank">
<title>BreastBodyLocationExtension</title>
<text x="417" y="108.75">Breast Body Loc.</text>
</a>
</g>
<g>
<rect fill="LightSkyBlue" stroke="Black" stroke-width="1.875" x="409.5" y="127.5" width="130.5" height="33.75" rx="3.75" ry="3.75" />
<a href="./StructureDefinition-BiRadsAssessmentCategory.html" target="_blank">
<title>BiRadsAssessmentCategory</title>
<text x="417" y="150">BiRads Code</text>
</a>
</g>
<g>
<rect fill="LightSkyBlue" stroke="Black" stroke-width="1.875" x="409.5" y="168.75" width="67.5" height="33.75" rx="3.75" ry="3.75" />
<a href="./StructureDefinition-CommonCount.html" target="_blank">
<title>CommonCount</title>
<text x="417" y="191.25">Count</text>
</a>
</g>
<g>
<rect fill="LightSkyBlue" stroke="Black" stroke-width="1.875" x="409.5" y="210" width="88.5" height="33.75" rx="3.75" ry="3.75" />
<a href="./StructureDefinition-CommonObservedChanges.html" target="_blank">
<title>CommonObservedChanges</title>
<text x="417" y="232.5">Changes</text>
</a>
</g>
<g>
<rect fill="LightSkyBlue" stroke="Black" stroke-width="1.875" x="409.5" y="251.25" width="57" height="33.75" rx="3.75" ry="3.75" />
<a href="./StructureDefinition-CommonSize.html" target="_blank">
<title>CommonSize</title>
<text x="417" y="273.75">Size</text>
</a>
</g>
<g>
<rect fill="LightSkyBlue" stroke="Black" stroke-width="1.875" x="409.5" y="292.5" width="130.5" height="33.75" rx="3.75" ry="3.75" />
<a href="./StructureDefinition-CommonOrientation.html" target="_blank">
<title>CommonOrientation</title>
<text x="417" y="315">Orientation</text>
</a>
</g>
</g>
<g>
<g>
<rect fill="LightSkyBlue" stroke="Black" stroke-width="1.875" x="187.5" y="333.75" width="88.5" height="33.75" rx="3.75" ry="3.75" />
<a href="./StructureDefinition-BreastRadUSMass.html" target="_blank">
<title>BreastRadUSMass</title>
<text x="195" y="356.25">US Mass</text>
</a>
</g>
<line stroke="Black" stroke-width="1.875" marker-end="url(#arrowEnd)" x1="306" y1="350.625" x2="336" y2="350.625" />
<line stroke="Black" stroke-width="1.875" marker-end="url(#arrowEnd)" x1="306" y1="391.875" x2="336" y2="391.875" />
<line stroke="Black" stroke-width="1.875" marker-end="url(#arrowEnd)" x1="306" y1="433.125" x2="336" y2="433.125" />
<line stroke="Black" stroke-width="1.875" marker-end="url(#arrowEnd)" x1="306" y1="474.375" x2="336" y2="474.375" />
<line stroke="Black" stroke-width="1.875" marker-end="url(#arrowEnd)" x1="306" y1="515.625" x2="336" y2="515.625" />
<line stroke="Black" stroke-width="1.875" marker-end="url(#arrowEnd)" x1="306" y1="556.875" x2="336" y2="556.875" />
<line stroke="Black" stroke-width="1.875" marker-end="url(#arrowEnd)" x1="306" y1="607.5" x2="336" y2="607.5" />
<line stroke="Black" stroke-width="1.875" marker-end="url(#arrowEnd)" x1="306" y1="658.125" x2="336" y2="658.125" />
<line stroke="Black" stroke-width="1.875" marker-end="url(#arrowEnd)" x1="306" y1="699.375" x2="336" y2="699.375" />
<line stroke="Black" stroke-width="1.875" marker-end="url(#arrowEnd)" x1="306" y1="740.625" x2="336" y2="740.625" />
<line stroke="Black" stroke-width="1.875" marker-end="url(#arrowEnd)" x1="306" y1="781.875" x2="336" y2="781.875" />
<line stroke="Black" stroke-width="1.875" marker-end="url(#arrowEnd)" x1="306" y1="832.5" x2="336" y2="832.5" />
<line stroke="Black" stroke-width="1.875" marker-end="url(#arrowEnd)" x1="306" y1="883.125" x2="336" y2="883.125" />
<line stroke="Black" stroke-width="1.875" marker-end="url(#arrowEnd)" x1="306" y1="924.375" x2="336" y2="924.375" />
<line stroke="Black" stroke-width="1.875" marker-end="url(#arrowEnd)" x1="306" y1="975" x2="336" y2="975" />
<line stroke="Black" stroke-width="1.875" marker-start="url(#arrowStart)" x1="276" y1="350.625" x2="306" y2="350.625" />
<line stroke="Black" stroke-width="1.875" x1="306" y1="350.625" x2="306" y2="975" />
</g>
<g>
<g>
<rect fill="LightSalmon" stroke="Black" stroke-width="1.875" x="336" y="333.75" width="183" height="33.75" rx="3.75" ry="3.75" />
<a href="./StructureDefinition-BreastBodyLocationExtension.html" target="_blank">
<title>BreastBodyLocationExtension</title>
<text x="343.5" y="356.25">Breast Body Loc.</text>
</a>
</g>
<g>
<rect fill="LightSkyBlue" stroke="Black" stroke-width="1.875" x="336" y="375" width="130.5" height="33.75" rx="3.75" ry="3.75" />
<a href="./StructureDefinition-BiRadsAssessmentCategory.html" target="_blank">
<title>BiRadsAssessmentCategory</title>
<text x="343.5" y="397.5">BiRads Code</text>
</a>
</g>
<g>
<rect fill="LightSkyBlue" stroke="Black" stroke-width="1.875" x="336" y="416.25" width="67.5" height="33.75" rx="3.75" ry="3.75" />
<a href="./StructureDefinition-CommonCount.html" target="_blank">
<title>CommonCount</title>
<text x="343.5" y="438.75">Count</text>
</a>
</g>
<g>
<rect fill="LightSkyBlue" stroke="Black" stroke-width="1.875" x="336" y="457.5" width="88.5" height="33.75" rx="3.75" ry="3.75" />
<a href="./StructureDefinition-CommonObservedChanges.html" target="_blank">
<title>CommonObservedChanges</title>
<text x="343.5" y="480">Changes</text>
</a>
</g>
<g>
<rect fill="LightSkyBlue" stroke="Black" stroke-width="1.875" x="336" y="498.75" width="57" height="33.75" rx="3.75" ry="3.75" />
<a href="./StructureDefinition-CommonSize.html" target="_blank">
<title>CommonSize</title>
<text x="343.5" y="521.25">Size</text>
</a>
</g>
<g>
<rect fill="LightSkyBlue" stroke="Black" stroke-width="1.875" x="336" y="540" width="130.5" height="33.75" rx="3.75" ry="3.75" />
<a href="./StructureDefinition-CommonOrientation.html" target="_blank">
<title>CommonOrientation</title>
<text x="343.5" y="562.5">Orientation</text>
</a>
</g>
<g>
<rect fill="LightSkyBlue" stroke="Black" stroke-width="1.875" x="336" y="581.25" width="67.5" height="52.5" rx="3.75" ry="3.75" />
<a href="./StructureDefinition-CommonHilum.html" target="_blank">
<title>CommonHilum</title>
<text x="343.5" y="603.75">Hilum</text>
</a>
<a href="./StructureDefinition-CommonHilum.html" target="_blank">
<title>CommonHilum</title>
<text x="343.5" y="622.5">Shape</text>
</a>
</g>
<g>
<rect fill="LightSkyBlue" stroke="Black" stroke-width="1.875" x="336" y="641.25" width="130.5" height="33.75" rx="3.75" ry="3.75" />
<a href="./StructureDefinition-BreastRadUSBoundary.html" target="_blank">
<title>BreastRadUSBoundary</title>
<text x="343.5" y="663.75">US Boundary</text>
</a>
</g>
<g>
<rect fill="LightSkyBlue" stroke="Black" stroke-width="1.875" x="336" y="682.5" width="172.5" height="33.75" rx="3.75" ry="3.75" />
<a href="./StructureDefinition-BreastRadUSEchoPattern.html" target="_blank">
<title>BreastRadUSEchoPattern</title>
<text x="343.5" y="705">US Echo Pattern</text>
</a>
</g>
<g>
<rect fill="LightSkyBlue" stroke="Black" stroke-width="1.875" x="336" y="723.75" width="151.49998" height="33.75" rx="3.75" ry="3.75" />
<a href="./StructureDefinition-BreastRadUSElasticity.html" target="_blank">
<title>BreastRadUSElasticity</title>
<text x="343.5" y="746.25">US Elasticity</text>
</a>
</g>
<g>
<rect fill="LightSkyBlue" stroke="Black" stroke-width="1.875" x="336" y="765" width="109.49999" height="33.75" rx="3.75" ry="3.75" />
<a href="./StructureDefinition-BreastRadUSMargin.html" target="_blank">
<title>BreastRadUSMargin</title>
<text x="343.5" y="787.5">US Margin</text>
</a>
</g>
<g>
<rect fill="LightSkyBlue" stroke="Black" stroke-width="1.875" x="336" y="806.25" width="235.5" height="52.5" rx="3.75" ry="3.75" />
<a href="./StructureDefinition-BreastRadUSPosteriorAcousticFeatures.html" target="_blank">
<title>BreastRadUSPosteriorAcousticFeatures</title>
<text x="343.5" y="828.75">US Posterior Acoustic</text>
</a>
<a href="./StructureDefinition-BreastRadUSPosteriorAcousticFeatures.html" target="_blank">
<title>BreastRadUSPosteriorAcousticFeatures</title>
<text x="343.5" y="847.5">Features</text>
</a>
</g>
<g>
<rect fill="LightSkyBlue" stroke="Black" stroke-width="1.875" x="336" y="866.25" width="67.5" height="33.75" rx="3.75" ry="3.75" />
<a href="./StructureDefinition-UltraSoundShape.html" target="_blank">
<title>UltraSoundShape</title>
<text x="343.5" y="888.75">Shape</text>
</a>
</g>
<g>
<rect fill="LightSkyBlue" stroke="Black" stroke-width="1.875" x="336" y="907.5" width="162" height="33.75" rx="3.75" ry="3.75" />
<a href="./StructureDefinition-BreastRadUSVascularity.html" target="_blank">
<title>BreastRadUSVascularity</title>
<text x="343.5" y="930">US Vascularity</text>
</a>
</g>
</g>
<g>
<g>
<rect fill="LightCoral" stroke="Black" stroke-width="1.875" x="336" y="948.75" width="151.49998" height="52.5" rx="3.75" ry="3.75" />
<a href="./StructureDefinition-AimAnnotatedImagingStudy.html" target="_blank">
<title>AimAnnotatedImagingStudy</title>
<text x="343.5" y="971.25">Annotated</text>
</a>
<a href="./StructureDefinition-AimAnnotatedImagingStudy.html" target="_blank">
<title>AimAnnotatedImagingStudy</title>
<text x="343.5" y="990">Imaging Study</text>
</a>
</g>
<line stroke="Black" stroke-width="1.875" marker-end="url(#arrowEnd)" x1="517.5" y1="984.375" x2="547.5" y2="984.375" />
<line stroke="Black" stroke-width="1.875" marker-start="url(#arrowStart)" x1="487.5" y1="975" x2="517.5" y2="975" />
<line stroke="Black" stroke-width="1.875" x1="517.5" y1="975" x2="517.5" y2="984.375" />
</g>
<g>
<g>
<rect fill="LightSalmon" stroke="Black" stroke-width="1.875" x="547.5" y="948.75" width="120" height="71.25" rx="3.75" ry="3.75" />
<a href="./StructureDefinition-AimAnnotationPolyLineExtension.html" target="_blank">
<title>AimAnnotationPolyLineExtension</title>
<text x="555" y="971.25">Annotation</text>
</a>
<a href="./StructureDefinition-AimAnnotationPolyLineExtension.html" target="_blank">
<title>AimAnnotationPolyLineExtension</title>
<text x="555" y="990">PolyLine</text>
</a>
<a href="./StructureDefinition-AimAnnotationPolyLineExtension.html" target="_blank">
<title>AimAnnotationPolyLineExtension</title>
<text x="555" y="1008.75">Location</text>
</a>
</g>
</g>
<g>
<g>
<rect fill="LightSkyBlue" stroke="Black" stroke-width="1.875" x="187.5" y="1027.5" width="130.5" height="52.5" rx="3.75" ry="3.75" />
<a href="./StructureDefinition-BreastRadUSTissueComposition.html" target="_blank">
<title>BreastRadUSTissueComposition</title>
<text x="195" y="1050">US Tissue</text>
</a>
<a href="./StructureDefinition-BreastRadUSTissueComposition.html" target="_blank">
<title>BreastRadUSTissueComposition</title>
<text x="195" y="1068.75">Composition</text>
</a>
</g>
</g>
</svg>
