<?xml version="1.0"?>
<!DOCTYPE svg PUBLIC "-//W3C//DTD SVG 1.1//EN" "http://www.w3.org/Graphics/SVG/1.1/DTD/svg11.dtd">
<svg xmlns="http://www.w3.org/2000/svg" version="1.1" width="871.5" height="202.5">
<defs>
<marker id="arrowStart" markerWidth="3.75" markerHeight="3.75" markerUnits="px" refX="1.875" refY="1.875">
<circle fill="Black" stroke-width="0" cx="1.875" cy="1.875" r="1.875" />
</marker>
<marker id="arrowEnd" markerWidth="7.5" markerHeight="7.5" markerUnits="px" refX="7.5" refY="3.75">
<polygon fill="Black" stroke-width="0" points="0 0 7.5 3.75 0 7.5" />
</marker>
</defs>
<g />
<g>
<g transform="translate(67.5 7.5)">
<rect fill="LightGreen" stroke="Black" stroke-width="1.875" x="0" y="0" width="183" height="33.75" rx="3.75" ry="3.75" />
<text x="91.5" y="22.5" text-anchor="middle">DiagnosticReport</text>
</g>
</g>
<g>
<g transform="translate(310.5 7.5)">
<rect fill="LightSalmon" stroke="Black" stroke-width="1.875" x="0" y="0" width="109.49999" height="33.75" rx="3.75" ry="3.75" />
<text x="54.749996" y="22.5" text-anchor="middle">Extension</text>
</g>
</g>
<g>
<g transform="translate(480 7.5)">
<rect fill="LightSkyBlue" stroke="Black" stroke-width="1.875" x="0" y="0" width="130.5" height="33.75" rx="3.75" ry="3.75" />
<text x="65.25" y="22.5" text-anchor="middle">Observation</text>
</g>
</g>
<g>
<g transform="translate(670.5 7.5)">
<rect fill="LightCoral" stroke="Black" stroke-width="1.875" x="0" y="0" width="141" height="33.75" rx="3.75" ry="3.75" />
<text x="70.5" y="22.5" text-anchor="middle">ImagingStudy</text>
</g>
</g>
<g>
<g transform="translate(7.5 86.25)">
<rect fill="LightSkyBlue" stroke="Black" stroke-width="1.875" x="0" y="0" width="120" height="33.75" rx="3.75" ry="3.75" />
<a href="./StructureDefinition-BreastRadUltraSoundFinding.html" target="_blank">
<title>BreastRadUltraSoundFinding</title>
<text x="60" y="22.5" text-anchor="middle">US Finding</text>
</a>
</g>
<line stroke="Black" stroke-width="1.875" marker-end="url(#arrowEnd)" x1="157.5" y1="103.125" x2="187.5" y2="103.125" />
<line stroke="Black" stroke-width="1.875" marker-end="url(#arrowEnd)" x1="157.5" y1="153.75" x2="187.5" y2="153.75" />
<line stroke="Black" stroke-width="1.875" marker-start="url(#arrowStart)" x1="127.5" y1="103.125" x2="157.5" y2="103.125" />
<line stroke="Black" stroke-width="1.875" x1="157.5" y1="103.125" x2="157.5" y2="153.75" />
</g>
<g>
<g transform="translate(187.5 86.25)">
<rect fill="LightSkyBlue" stroke="Black" stroke-width="1.875" x="0" y="0" width="88.5" height="33.75" rx="3.75" ry="3.75" />
<a href="./StructureDefinition-BreastRadUSMass.html" target="_blank">
<title>BreastRadUSMass</title>
<text x="44.25" y="22.5" text-anchor="middle">US Mass</text>
</a>
</g>
</g>
<g>
<g transform="translate(187.5 127.5)">
<rect fill="LightSkyBlue" stroke="Black" stroke-width="1.875" x="0" y="0" width="130.5" height="52.5" rx="3.75" ry="3.75" />
<a href="./StructureDefinition-BreastRadUSTissueComposition.html" target="_blank">
<title>BreastRadUSTissueComposition</title>
<text x="65.25" y="22.5" text-anchor="middle">US Tissue</text>
</a>
<a href="./StructureDefinition-BreastRadUSTissueComposition.html" target="_blank">
<title>BreastRadUSTissueComposition</title>
<text x="65.25" y="41.25" text-anchor="middle">Composition</text>
</a>
</g>
</g>
</svg>
